<svg xmlns="http://www.w3.org/2000/svg" viewBox="0 0 320 320">
  <defs>
    <style>
      .cls-1 {
        fill: #1a1a1a;
      }
    </style>
  </defs>
  <title>flat-pencil-tip</title>
  <g id="Layer_16" data-name="Layer 16">
    <path class="cls-1" d="M250,123.8047l-3.322-2.2281q-33.0695,49.3065-66.1429,98.6107l3.3219,2.2283-1.8056-3.5693-17.8662,9.0381,1.8056,3.5693h4v-.0015a4,4,0,0,0-5.8052-3.57l-40.6123,20.5391a4.0066,4.0066,0,0,0-2.1948,3.57v0h4l-1.8053-3.5695L68.1947,276.4305,70,280l3.989.2957Q77.93,227.14,81.8714,173.9851a4,4,0,0,0-5.7779-3.8734l-.001,0,1.7889,3.5778,3.989.296,1.3905-18.7379,64.8126-96.6286,30.8683-10.8543L110.4856,149.8239,84.3875,165.21a4.0006,4.0006,0,0,0-1.9576,3.15L78.968,215.0631a4,4,0,0,0,4.7858,4.2156,25.1956,25.1956,0,0,1,5.02-.4933,31.482,31.482,0,0,1,10.7111,1.9791,37.7614,37.7614,0,0,1,14.1779,9.2448,28.49,28.49,0,0,1,7.6038,13.8265,4,4,0,0,0,5.7263,2.7786L169.16,225.2887a3.9955,3.9955,0,0,0,2.1557-3.0117q2.1579-15.3241,4.3088-30.65l-3.9612-.556,3.322,2.228Q212.8157,136.8937,250.65,80.49l-3.3219-2.2281-3.9932.2343,2.6719,45.5425L250,123.8047l-3.322-2.2281L250,123.8047l3.9931-.2344-2.6719-45.5425a4,4,0,0,0-7.3151-1.9939q-37.8325,56.4045-75.6646,112.8087a3.9705,3.9705,0,0,0-.6391,1.672q-2.151,15.3239-4.3083,30.6467l3.9609.5579-1.8052-3.57-42.1675,21.3257,1.8052,3.57,3.921-.791a34.3329,34.3329,0,0,0-5.3524-12.457,44.3,44.3,0,0,0-15.2458-13.69,41.3825,41.3825,0,0,0-19.7366-5.3209,33.1772,33.1772,0,0,0-6.6135.6534l.7968,3.92,3.989.2957,3.3072-44.6156,25.079-14.7856a3.9377,3.9377,0,0,0,1.29-1.2175l75.666-112.8076a4,4,0,0,0-4.6488-6.0017L144.1653,51.5135a4.0371,4.0371,0,0,0-1.9951,1.5453L76.0281,151.67a3.9651,3.9651,0,0,0-.6671,1.9321l-1.4687,19.792a4,4,0,0,0,5.7779,3.8738l.001,0-1.7888-3.5776-3.9891-.2958q-3.9412,53.1555-7.8823,106.3105a4,4,0,0,0,5.7943,3.8651l55.3784-28.0083a4.0067,4.0067,0,0,0,2.1947-3.5693v0h-4l1.8052,3.5695,40.6123-20.5391-1.8052-3.5695h-4v.0015a4,4,0,0,0,5.8056,3.5692l17.8662-9.0381a4.05,4.05,0,0,0,1.5163-1.3411q33.0725-49.3052,66.1432-98.611a4.0049,4.0049,0,0,0,.6711-2.4624ZM132.2773,187.1519l2.446,3.1649L161.18,169.87a3.8721,3.8721,0,0,0,.8739-.9338c24.5329-36.5084,47.1032-74.6479,62.1183-116.1548a4,4,0,0,0-6.9374-3.7922l-79.37,103.6552a4.0986,4.0986,0,0,0-.6827,1.3777l-8.7632,32.0752a4,4,0,0,0,6.3046,4.2191l-2.446-3.1649,3.8586,1.0541,8.5567-31.32L223.5865,53.8531l-3.1758-2.4318-3.7615-1.36C201.9806,90.6252,179.78,128.222,155.4139,164.4744l3.32,2.2312-2.446-3.165-26.4565,20.4463,2.446,3.165,3.8586,1.0541Z"/>
  </g>
</svg>
