<svg xmlns="http://www.w3.org/2000/svg" viewBox="0 0 320 320">
  <defs>
    <style>
      .cls-1 {
        fill: #1a1a1a;
      }
    </style>
  </defs>
  <title>flat-arrow-left</title>
  <g id="Layer_16" data-name="Layer 16">
    <path  d="M150.8037,73.8789l-2.8289-2.8281L70.9564,148.0859l2.8287,2.8281-2.4875-3.1326a13.179,13.179,0,0,0-2.8124,3.3274A17.2338,17.2338,0,0,0,66,160.2188a15.4681,15.4681,0,0,0,.8275,4.9783,17.2043,17.2043,0,0,0,2.708,4.9973,14.348,14.348,0,0,0,1.778,1.9365l2.6279-3.0156-2.8287,2.8279L148.13,248.9773a17.03,17.03,0,0,0,12.0591,5.022,16.8886,16.8886,0,0,0,16.85-16.9087,17.02,17.02,0,0,0-4.9993-12.0547l-48.0222-48.0217,112.99.01a16.8137,16.8137,0,0,0,12.0518-5.1328,17.2912,17.2912,0,0,0-.0044-24.2058,16.8243,16.8243,0,0,0-12.0547-5.1338l-112.9719.0015,47.9636-47.7388L172,94.8074A16.8556,16.8556,0,0,0,160.1289,66a17.1737,17.1737,0,0,0-12.1548,5.0515l2.83,2.8276,2.8293,2.8274A9.1686,9.1686,0,0,1,160.1289,74a8.72,8.72,0,0,1,6.219,2.5659,8.8314,8.8314,0,0,1-.0059,12.5859l.0068-.0071-54.8309,54.5742a4,4,0,0,0,2.8219,6.8352l122.6611-.002a8.8146,8.8146,0,0,1,6.3274,2.7195,9.2906,9.2906,0,0,1,.0034,13.0356,8.8059,8.8059,0,0,1-6.323,2.7175l-122.6482-.0107a4,4,0,0,0-2.8287,6.8284l54.8514,54.8506a9.0132,9.0132,0,0,1,2.6565,6.3979,8.8787,8.8787,0,0,1-2.6138,6.3157A8.759,8.759,0,0,1,160.1892,246a9.0219,9.0219,0,0,1-6.4014-2.6782L76.77,166.2871l-.2008-.1877L75.4706,167.36l1.1309-1.2322-.0322-.0286L75.4706,167.36l1.1309-1.2322a9.1878,9.1878,0,0,1-2.2427-3.6367A7.4382,7.4382,0,0,1,74,160.2188,9.2019,9.2019,0,0,1,75.3,155.3a6.9215,6.9215,0,0,1,.8181-1.0884c.0991-.1062.1709-.1738.2015-.2017l.0149-.0134,0,0-1.3907-1.6228,1.3287,1.6733.062-.0505-1.3907-1.6228,1.3287,1.6733a3.6841,3.6841,0,0,0,.3412-.3044l77.0186-77.0352Z"/>
  </g>
</svg>
