<svg xmlns="http://www.w3.org/2000/svg" viewBox="0 0 320 320">
  <defs>
    <style>
      .cls-1 {
        fill: #1a1a1a;
      }
    </style>
  </defs>
  <title>flat-layers</title>
  <g id="Layer_16" data-name="Layer 16">
    <path  d="M235,197.5l-1.7891,3.5776L271.0554,220,160,275.5277,48.9441,220,85,201.972l73.2112,36.6056a4.0082,4.0082,0,0,0,3.5779,0l75-37.5L235,197.5l-1.7891,3.5776L235,197.5l-1.7891-3.5778L160,230.5277,86.7888,193.9222a4.0074,4.0074,0,0,0-3.5779,0l-45,22.5a4,4,0,0,0,0,7.1554l120,60a4.0082,4.0082,0,0,0,3.5779,0l120-60a4,4,0,0,0,0-7.1554l-45-22.5a4.0074,4.0074,0,0,0-3.5779,0ZM40,100l-1.7891,3.5776,120,60a4.0082,4.0082,0,0,0,3.5779,0l120-60a4,4,0,0,0,0-7.1554l-120-60a4.0078,4.0078,0,0,0-3.5779,0l-120,60a4,4,0,0,0,0,7.1554L40,100l1.7888,3.5776L160,44.4721,271.0554,100,160,155.5277,41.7888,96.4222,40,100l1.7888,3.5776Zm120,75,1.7888-3.5778-75-37.5a4.0074,4.0074,0,0,0-3.5779,0l-45,22.5a4,4,0,0,0,0,7.1554l120,60a4.0082,4.0082,0,0,0,3.5779,0l120-60a4,4,0,0,0,0-7.1554l-45-22.5a4.0074,4.0074,0,0,0-3.5779,0l-75,37.5L160,175l1.7888-3.5778L160,175l1.7888,3.5776L235,141.972,271.0554,160,160,215.5277,48.9441,160,85,141.972l73.2112,36.6056a4.0082,4.0082,0,0,0,3.5779,0Z"/>
  </g>
</svg>
