<svg xmlns="http://www.w3.org/2000/svg" viewBox="0 0 320 320">
  <defs>
    <style>
      .cls-1 {
        fill: #1a1a1a;
      }
    </style>
  </defs>
  <title>flat-heart</title>
  <g id="Layer_16" data-name="Layer 16">
    <path  d="M100,40v4c14.3925.0082,24.8339,3.2952,32.5911,8.0605A45.0371,45.0371,0,0,1,146.0388,64.813a57.2877,57.2877,0,0,1,8.7133,20.7224,61.32,61.32,0,0,1,1.0967,7.2248c.0774.8732.1152,1.5548.1337,2.0053.0092.2253.0135.3928.0157.4976l.0016.11,0,.0184,1.3333-.0065H156v.0064l1.3333-.0065H156a4,4,0,1,0,8,0h-1.6285l1.6285.007v-.007h-1.6285l1.6285.007a51.3064,51.3064,0,0,1,.9374-8.2964,62.1266,62.1266,0,0,1,3.9163-13.0209,51.5019,51.5019,0,0,1,6.1357-10.6816,45.016,45.016,0,0,1,16.4291-13.5366c7.25-3.54,16.5348-5.853,28.5817-5.8563a71.828,71.828,0,0,1,18.762,2.2776,44.8434,44.8434,0,0,1,21.3821,12.363,48.6175,48.6175,0,0,1,9.0515,13.7536,78.9515,78.9515,0,0,1,5.9373,22.9546A154.5862,154.5862,0,0,1,276,113.8462c-.0043,17.7322-4.7849,35.5012-14.5172,53.4794q-14.5964,26.9541-44.1959,54.35-60,55.385-60,55.3848L160,280l2.713-2.9393s-20-18.4614-60-55.3847q-29.6376-27.3546-44.1959-54.35C48.7847,149.3474,44.0042,131.5784,44,113.8462a153.3,153.3,0,0,1,.9089-18.8489,84.6144,84.6144,0,0,1,3.8945-17.5428,56.0893,56.0893,0,0,1,6.1259-12.606A42.982,42.982,0,0,1,71.31,50.0819C78.5466,46.3542,87.8564,44.0034,100,44V36a79.7881,79.7881,0,0,0-20.8474,2.5541A52.8916,52.8916,0,0,0,54.0588,53.1274,56.6091,56.6091,0,0,0,43.5034,69.1236a86.8281,86.8281,0,0,0-6.5822,25.2951A162.2346,162.2346,0,0,0,36,113.8462c-.0043,19.1906,5.2151,38.3446,15.4828,57.29q15.4036,28.4305,45.8041,56.4186,60,55.3849,60,55.3848a3.9962,3.9962,0,0,0,5.4261,0s20-18.4615,60-55.3848q30.3624-28.03,45.8041-56.4186c10.2676-18.945,15.4871-38.099,15.4828-57.29a160.9741,160.9741,0,0,0-.9661-19.8049,92.5531,92.5531,0,0,0-4.2793-19.209,64.0635,64.0635,0,0,0-7.0125-14.3988,51.027,51.027,0,0,0-19.3865-17.4622C243.8322,38.5744,233.1691,35.9965,220,36c-15.6075-.0083-27.6661,3.6279-36.7839,9.2472a53.06,53.06,0,0,0-15.82,14.9939,65.2152,65.2152,0,0,0-9.9745,23.6355A60.618,60.618,0,0,0,156,95.3848a4,4,0,1,0,8,0,57.5065,57.5065,0,0,0-1.0011-9.3646,70.3179,70.3179,0,0,0-4.337-14.7155,59.7523,59.7523,0,0,0-7.0435-12.434,53.052,53.052,0,0,0-19.3252-16.1043C123.8081,38.5756,113.1709,35.9965,100,36Z"/>
  </g>
</svg>
