<svg xmlns="http://www.w3.org/2000/svg" viewBox="0 0 320 320"><defs><style>.a{fill:#1a1a1a;}</style></defs><title>flat-bell-outline</title><path class="a" d="M270,214.6l.8927-1.79-.0153-.0078a77.7014,77.7014,0,0,1-18.2164-13.7559A64.1386,64.1386,0,0,1,240.6963,182.53a50.9841,50.9841,0,0,1-5.3624-22.7971V123.1558a92.8047,92.8047,0,0,0-9.3788-37.4741,66.248,66.248,0,0,0-22.4515-25.9165C192.8486,52.6729,178.6622,47.9942,160,48c-18.6622-.0058-32.8486,4.6729-43.5037,11.7652a64.2588,64.2588,0,0,0-18.46,18.9066,86.5689,86.5689,0,0,0-11.7018,29.9938,82.9217,82.9217,0,0,0-1.6689,14.49s0,18.289,0,36.5776a51.0225,51.0225,0,0,1-5.5171,23.1082c-4.9715,9.928-12.4983,17.4579-18.7952,22.48a80.5635,80.5635,0,0,1-8.0164,5.6454c-1.0181.625-1.8368,1.0915-2.3954,1.399-.2793.1537-.4936.2676-.6352.3417l-.1571.0814-.0359.0182-.0065.0033L50,216.6H270l.8927-3.79L270,214.6v-2H50v2l.8927,1.79a80.9788,80.9788,0,0,0,18.8528-14.09,68.5917,68.5917,0,0,0,12.9794-17.6656,55.0389,55.0389,0,0,0,5.9411-24.9V123.1558l0-.0371a89.0354,89.0354,0,0,1,9.3795-36.4793,61.8634,61.8634,0,0,1,21.1355-23.8526C129.0984,56.3336,142.2765,52.0053,160,52c18.0048.0058,31.3186,4.4716,41.2887,11.0959a60.2513,60.2513,0,0,1,17.3123,17.7427A82.6154,82.6154,0,0,1,229.74,109.4355a90.7411,90.7411,0,0,1,1.3969,9.9505c.0994,1.2118.1487,2.1659.1732,2.8113.0122.3227.0182.5681.0212.73l.0025.1793,0,.0491s0,18.289,0,36.5776a55.0383,55.0383,0,0,0,5.9411,24.9c5.3409,10.647,13.2824,18.5482,19.876,23.8139a74.9338,74.9338,0,0,0,11.9562,7.942L270,214.6v0Z"/><path class="a" d="M113.381,222.369c-.0627.9812-.1076,1.9841-.1076,3.0128a46.7267,46.7267,0,0,0,93.4531,0c0-1.0287-.0449-2.0316-.1076-3.0128l-3.9919.2551c.0594.9289.0995,1.8459.0994,2.7577a42.7266,42.7266,0,0,1-85.4531,0c0-.9118.04-1.8288.0994-2.7578l-3.9919-.255Z"/></svg>