<svg xmlns="http://www.w3.org/2000/svg" viewBox="0 0 320 320"><defs><style>.a{fill:#1a1a1a;}</style></defs><title>flat-undo</title><path class="a" d="M268.9419,185.5259l3.5787-1.7867a79.4312,79.4312,0,0,0-18.5821-24.2407l.0022.0019a85.8516,85.8516,0,0,0-18.1509-12.206,114.9121,114.9121,0,0,0-30.824-10.096,178.5867,178.5867,0,0,0-32.6476-2.8005,282.3873,282.3873,0,0,0-42.7743,3.5391A416.9455,416.9455,0,0,0,78.47,149.354l1.1089,3.8432,3.5777,1.7888L92.52,136.2585a14,14,0,1,0-25.0438-12.5212l-20,40,.0026-.0051c-.2114.4216-.3777.8172-.5172,1.1747l.005-.0129c-.0822.21-.1293.3518-.1538.4194l.0025-.0072q-.14.3924-.2551.79l.0014-.0047c-.03.1029-.0786.264-.1353.4875l.0011-.0044c-.0776.307-.13.5724-.1723.7923l.0019-.01c-.0581.3009-.1014.5855-.136.8519l-.0014.0112c-.0185.1486-.0486.3669-.0722.6569l0,.0035c-.0212.2707-.0274.4836-.033.6369l0,.0068q-.0081.2447-.0081.49l0,.0765v-.0117c.0012.18.0039.3934.0163.64l0,.0044c.0144.27.0361.4706.0486.6021l-.0013-.0128c.0247.262.0573.5478.106.8556l-.0019-.0121c.0356.228.08.5025.15.82l-.0007-.0033c.0577.2623.1066.4342.1282.52l-.002-.0079c.0537.2093.1148.4313.1867.6647l.0064.02c.0437.1391.0964.3036.1633.4918l-.008-.0227c.0978.28.1957.5239.2838.7362l-.0019-.0045c.0075.0149.0562.1492.165.3938l.0018.0039q.2358.5224.523,1.0414l.0718.1238.146.2417-.0176-.03c.1245.21.2669.4418.4337.6895l.0085.0126c.1192.1753.22.312.2946.4149l.0037.0051c.1447.1977.2873.38.4247.55l.0067.0082c.0831.1019.1967.243.3485.4164l3.0076-2.6371-3.07,2.5643.0693.083.0948.1094c.2278.2514.38.3938.43.4465l.0045.0045c.07.07.2.2079.4021.3981l-.0021-.002q.3855.3611.797.6926l.0053.0043c.2021.161.3308.2514.3769.2869l.0049.0036c.2023.1512.4228.3092.6649.469l-.0124-.0082c.1093.0726.2406.1591.3958.2549l.0093.0057q.4376.2685.89.5027l1.84-3.5517-1.96,3.4866.1294.0728.1716.0911,40,20a14,14,0,1,0,12.5221-25.0436l-18.0361-9.0181-1.7888,3.5777,1.0966,3.8467c3.6819-1.05,7.7162-2.1456,12.0393-3.2389,10.2412-2.5912,22.0851-5.1662,34.5462-7.0806a254.2393,254.2393,0,0,1,38.1719-3.1651h.0148v-1.5611l-.01,1.5611h.01v-1.5611l-.01,1.5611h.0465a155.3255,155.3255,0,0,1,24.5883,1.821c11.699,1.88,22.1658,5.336,30.6239,10.5054a53.8863,53.8863,0,0,1,11.33,9.1324,51.8354,51.8354,0,0,1,8.5942,12.4031,14,14,0,1,0,25.0428-12.5231l.0012.0023-3.5787,1.7867-3.5776,1.789A5.9532,5.9532,0,0,1,266,189.99a6.0473,6.0473,0,0,1-.873,3.1231A6.0151,6.0151,0,0,1,260.0054,196a6.047,6.047,0,0,1-3.1231-.873,5.9477,5.9477,0,0,1-2.2508-2.4459,59.8688,59.8688,0,0,0-9.9151-14.2982A61.8989,61.8989,0,0,0,231.72,167.8958c-9.6088-5.8629-21.0571-9.5669-33.519-11.575a163.2544,163.2544,0,0,0-25.8611-1.9229h-.0386l.0166,4,.0244-4h-.0542a262.1293,262.1293,0,0,0-39.3875,3.2579c-12.7716,1.9625-24.8516,4.5906-35.2924,7.2319-4.4079,1.1147-8.5191,2.2316-12.2708,3.3011a4,4,0,0,0-.6923,7.4245l18.0361,9.0181a5.9474,5.9474,0,0,1,2.4456,2.2507,6.0474,6.0474,0,0,1,.873,3.1232,6.0149,6.0149,0,0,1-2.8867,5.1215A6.0467,6.0467,0,0,1,99.99,196a5.9535,5.9535,0,0,1-2.6752-.6356L57.4018,175.4077l-.0449-.0252-.1206-.0651q-.1981-.1026-.3861-.218l.0093.0057-.1687-.1094-.0124-.0082c-.0792-.0522-.1721-.1178-.2794-.198l.0049.0036-.1463-.1087-.0276-.0208-.0023-.0018-.3316.424.3368-.42-.0052-.0042-.3316.424.3368-.42.0053.0043q-.1745-.1405-.3446-.3l-.0021-.002-.0367-.0364-.13-.1319.0045.0045-.1642-.1655-.0291-.03-.0017-.0018-.4227.3925.429-.3855-.0063-.0069-.4227.3925.429-.3855-2.9751,2.6737,3.07-2.5643-.0693-.083-.0624-.0729c-.0221-.0249-.0745-.0879-.1574-.19l.0067.0082c-.0735-.0908-.136-.1718-.1886-.2436l.0037.0051c-.0726-.0992-.1186-.1636-.14-.1954l.0085.0126c-.051-.0756-.1127-.174-.1855-.2968l-.0176-.03-.146-.2417-3.4238,2.0682,3.4956-1.9444q-.1177-.2116-.2231-.445l.0018.0039-.0231.01.024-.01-.0009-.0006-.0231.01.024-.01-.07-.1732-.0019-.0045c-.0544-.1305-.0932-.2311-.1175-.3009l-.008-.0227c-.0151-.0423-.0376-.11-.0672-.2045l.0064.02c-.0268-.087-.0546-.1862-.0838-.3l-.002-.0079-.045-.1725-.0093-.037-.0011-.0047-.0007-.0033c-.0148-.0669-.0355-.1811-.06-.3427l-.0019-.0121c-.0147-.0926-.029-.2082-.0424-.3514l-.0013-.0128c-.0149-.15-.0215-.2307-.0218-.2426l0,.0044c-.0032-.0609-.0054-.1552-.0062-.2847v-.0143l.0038-.2232,0,.0068c.0051-.1534.01-.2471.0129-.284l0,.0035c.0017-.0264.0126-.1226.0342-.2894l-.0014.0112c.0181-.14.0373-.2605.0573-.3639l.0019-.01c.0292-.1541.0527-.2627.0689-.3258l.0011-.0044c.0019-.0089.0213-.0783.0591-.2068l.0014-.0047q.0476-.1641.1053-.3257l.0025-.0072.0481-.136.01-.027,0-.0006.005-.0129c.08-.2059.1512-.368.2142-.4932l.0026-.0051,20-40a5.9474,5.9474,0,0,1,2.2509-2.4462,6.0468,6.0468,0,0,1,3.1231-.873,6.0157,6.0157,0,0,1,5.1216,2.8867A6.0469,6.0469,0,0,1,86,130.0054a5.9532,5.9532,0,0,1-.6357,2.6753l-9.3634,18.7278a4,4,0,0,0,4.6866,5.632,409.0292,409.0292,0,0,1,50.0789-11.1974,274.4621,274.4621,0,0,1,41.5518-3.4451,170.6369,170.6369,0,0,1,31.1792,2.6646,106.9513,106.9513,0,0,1,28.6837,9.3717,77.8531,77.8531,0,0,1,16.4659,11.0643l.0022.0019a71.4174,71.4174,0,0,1,16.7138,21.8121l.0012.0023Z"/></svg>