<svg xmlns="http://www.w3.org/2000/svg" viewBox="0 0 320 320">
  <defs>
    <style>
      .cls-1 {
        fill: #1a1a1a;
      }
    </style>
  </defs>
  <title>flat-layers-outline</title>
  <g id="Layer_16" data-name="Layer 16">
    <path class="cls-1" d="M235,197.5l-.8945,1.7888L275.5276,220,160,277.7638,44.4722,220,85,199.736l75,37.5,75.8948-37.9471L235,197.5l-.8945,1.7888L235,197.5l-.8945-1.7889L160,232.7638l-75-37.5L39.1055,218.2111v3.5778L160,282.236l120.8948-60.4471v-3.5778L235,195.2638l-.894.4473ZM40,100l-.8945,1.7888L160,162.236l120.8948-60.4471V98.2111L160,37.7639,39.1055,98.2111v3.5778L40,100l.8944,1.7888L160,42.236,275.5276,100,160,157.7638,40.8944,98.2111,40,100l.8944,1.7888Zm120,75,.8943-1.7889L85,135.2637,39.1055,158.2111v3.5778L160,222.236l120.8948-60.4471v-3.5778L235,135.2638l-75.894,37.9473L160,175l.8943-1.7889L160,175l.8943,1.7888L235,139.736,275.5276,160,160,217.7638,44.4722,160,85,139.736l75,37.5.8948-.4471Z"/>
  </g>
</svg>
