<svg xmlns="http://www.w3.org/2000/svg" viewBox="0 0 320 320"><defs><style>.a{fill:#1a1a1a;}</style></defs><title>flat-dots-horizontal-filled</title><circle  cx="71.8181" cy="160" r="33.0681"/><circle  cx="160" cy="160" r="33.0681"/><circle  cx="248.1821" cy="160" r="33.0681"/><path  d="M71.8184,126.9316l0-2a27.3645,27.3645,0,1,0,.0007,0l0,2,0,2a51.9435,51.9435,0,1,0,.0007,0Z"/><path  d="M160,126.9316l0-2a35.0678,35.0678,0,1,0,.0007,0l0,2,0,2a31.0679,31.0679,0,1,0,.0007,0Z"/><path  d="M248.1821,126.9316l0-2a35.0678,35.0678,0,1,0,.0007,0l0,2,0,2a31.0679,31.0679,0,1,0,.0007,0Z"/></svg>