<svg xmlns="http://www.w3.org/2000/svg" viewBox="0 0 320 320"><defs><style>.a{fill:#1a1a1a;}</style></defs><title>flat-no-parking-sign</title><path  d="M270.5659,113.2876l3.6838-1.5585A124.4034,124.4034,0,0,0,229.339,57.1852l.0006,0A123.4969,123.4969,0,0,0,160.0192,36h-.03A123.8181,123.8181,0,0,0,57.1852,90.661l0-.0006A123.4963,123.4963,0,0,0,36,159.9808l0,.0572L40,160l-4-.0339,0,.0447A123.9709,123.9709,0,0,0,159.9807,284h.0084l-.0027-3.0385L159.9434,284l.0457,0-.0027-3.0385L159.9434,284,160,284h.0224l-.0117-2.7383V284h.0117l-.0117-2.7383V284A123.9706,123.9706,0,0,0,284,160.0192h0l-3.6374-.0087,3.6359.1046.0015-.0959-3.6374-.0087,3.6359.1046L284,160v-.0392l-3.36.0284H284v-.0284l-3.36.0284H284a123.6608,123.6608,0,0,0-9.75-48.26l-3.6838,1.5585-3.6839,1.5585A115.6583,115.6583,0,0,1,276,159.9892v.0392l3.357-.0284H276v.0284l3.357-.0284H280l-3.9984-.1151L276,160v.0215l1.2933-.0023H276v.0023l1.2933-.0023H276A115.9077,115.9077,0,0,1,160.0107,276h-.0224L160,278.7361V276h-.0116L160,278.7361V280l.0566-4-.0615,0h-.0143A115.908,115.908,0,0,1,44,160.0108H41.2714L44,160.0339v-.0231H41.2714L44,160.0339v-.0719l-2.9866.0284H44v-.0284l-2.9866.0284H44v-.01A115.4889,115.4889,0,0,1,63.8134,95.14l0-.0006A115.8183,115.8183,0,0,1,159.9892,44h.03a115.49,115.49,0,0,1,64.84,19.8135l.0006,0a116.4069,116.4069,0,0,1,42.0219,51.0323ZM58.4614,160l4,0a97.3555,97.3555,0,0,1,43.0128-80.8884l-.0005,0a97.3693,97.3693,0,0,1,116.9357,5.9351l2.5613-3.0724-2.8284-2.8284L79.1481,222.14l2.8284,2.8284,3.0723-2.5614a96.99,96.99,0,0,1-22.5875-62.4081V160l-4,0-4,.0007A104.9888,104.9888,0,0,0,78.9042,227.53a4,4,0,0,0,5.9007.267L227.7991,84.8035a4,4,0,0,0-.2672-5.9009,105.5563,105.5563,0,0,0-126.5349-6.42l-.0005,0A105.3555,105.3555,0,0,0,54.4614,160v.0012ZM253.563,199.5205l-3.6842-1.5579a97.4666,97.4666,0,0,1-152.2882,36.99l-2.5612,3.0725,2.8284,2.8284L240.8518,97.8592l-2.8284-2.8284-3.0726,2.5611a96.9994,96.9994,0,0,1,22.5877,62.4088V160a97.18,97.18,0,0,1-7.66,37.9631l3.6842,1.5578,3.6841,1.5578A105.19,105.19,0,0,0,265.5386,160v-.0012a104.997,104.997,0,0,0-24.4426-67.53,4,4,0,0,0-5.9009-.2673L92.2009,235.1965a4,4,0,0,0,.2672,5.9009,105.5647,105.5647,0,0,0,164.7791-40.019Z"/></svg>