<svg xmlns="http://www.w3.org/2000/svg" viewBox="0 0 320 320"><defs><style>.a{fill:#1a1a1a;}</style></defs><title>flat-drag</title><path  d="M60,60H56V90a4,4,0,0,0,4,4H90a4,4,0,0,0,4-4V60a4,4,0,0,0-4-4H60a4,4,0,0,0-4,4h4v4H86V86H64l0-26H60v0Z"/><polyline  points="71 100 71 210 79 210 79 100"/><polyline  points="231 100 231 210 239 210 239 100"/><polyline  points="100 79 210 79 210 71 100 71"/><polyline  points="100 239 210 239 210 231 100 231"/><path  d="M230,230l-3.8806.97,10,40a4,4,0,0,0,6.709,1.8583L250,265.6569l7.1716,7.1715a4,4,0,0,0,5.657,0l10-10a4,4,0,0,0,0-5.6568L265.6565,250l7.1719-7.1715a4,4,0,0,0-1.8584-6.709l-40-10a4,4,0,0,0-4.8506,4.8507L230,230l-.97,3.8806,33.1458,8.2865-5.0042,5.0045a4,4,0,0,0,0,5.6568L264.343,260,260,264.3431l-7.1714-7.1715a4,4,0,0,0-5.657,0l-5.0049,5.0047L233.88,229.03,230,230l-.97,3.8806Z"/><path  d="M90,231H79l0-11H71l0,15a4,4,0,0,0,4,4H90v-8Z"/><path  d="M220,79h11l0,11h8l0-15a4,4,0,0,0-4-4H220v8Z"/></svg>