<svg xmlns="http://www.w3.org/2000/svg" viewBox="0 0 320 320">
  <defs>
    <style>
      .cls-1 {
        fill: #1a1a1a;
      }
    </style>
  </defs>
  <title>flat-arrow-left-outline</title>
  <g id="Layer_16" data-name="Layer 16">
    <path class="cls-1" d="M150.8032,73.8789l-1.4144-1.4141L72.3712,149.5l1.4144,1.4141-1.2437-1.5664a11.2665,11.2665,0,0,0-2.3527,2.8088A15.2234,15.2234,0,0,0,68,160.2188a14.0639,14.0639,0,0,0,2.2853,7.5735,13.8975,13.8975,0,0,0,2.3416,2.8306l1.3141-1.5076-1.4144,1.4138,77.0176,77.0352A15.03,15.03,0,0,0,160.1888,252,14.89,14.89,0,0,0,175.04,237.0906a15.02,15.02,0,0,0-4.4131-10.64l-51.4381-51.4355,117.82.01a14.81,14.81,0,0,0,10.62-4.5291,15.2907,15.2907,0,0,0-.0043-21.4131A14.8223,14.8223,0,0,0,237,144.5518l-117.8155.0015,51.3963-51.1553.0035-.0037A14.8556,14.8556,0,0,0,160.1292,68a15.1746,15.1746,0,0,0-10.74,4.4651l1.4145,1.4141,1.4144,1.4138A11.1743,11.1743,0,0,1,160.1292,72a10.7249,10.7249,0,0,1,7.6337,3.1519,10.8324,10.8324,0,0,1-.007,15.415l.0035-.0037-54.83,54.5732,1.4109,3.4177,122.66-.002a10.8178,10.8178,0,0,1,7.76,3.323,11.291,11.291,0,0,1,.0037,15.8284,10.8088,10.8088,0,0,1-7.7551,3.3213l-122.6488-.01-1.4143,3.4141,54.8525,54.85a11.0154,11.0154,0,0,1,3.2418,7.8123,10.88,10.88,0,0,1-3.2,7.7295,10.76,10.76,0,0,1-7.6513,3.18,11.0272,11.0272,0,0,1-7.816-3.2637l-77.0665-77.084-.0513-.0447-.5181.5942.5256-.5876-.0075-.0066-.5181.5942.5256-.5876a10.4414,10.4414,0,0,1-1.6857-2.1011A10.0288,10.0288,0,0,1,72,160.2188a11.2069,11.2069,0,0,1,1.5964-5.9668,8.9164,8.9164,0,0,1,1.06-1.4053c.1383-.1482.2482-.2529.3152-.3142l.0667-.0591.0057-.0046-.7227-.8806.7083.8921.0144-.0115-.7227-.8806.7083.8921.09-.0718,77.098-77.1157Z"/>
  </g>
</svg>
