<svg xmlns="http://www.w3.org/2000/svg" viewBox="0 0 320 320"><defs><style>.a{fill:#1a1a1a;}</style></defs><title>flat-checkmark</title><path class="a" d="M256.9122,55.4572,119.47,222.3514,62.5607,174.9271l-5.1213,6.1458,60,50a4,4,0,0,0,5.6484-.53l140-170-6.1753-5.0857Z"/><path class="a" d="M106.281,251.0664a104.0041,104.0041,0,0,0,134.8567-154.12l-6.2383,5.0081a96.0082,96.0082,0,0,1-124.48,142.265l-4.1379,6.8467Z"/><path class="a" d="M226.5271,82.0645A103.9983,103.9983,0,0,0,56,162h8A95.9975,95.9975,0,0,1,221.4064,88.2109l5.1208-6.1464Z"/></svg>