<svg xmlns="http://www.w3.org/2000/svg" viewBox="0 0 320 320"><defs><style>.a{fill:#1a1a1a;}</style></defs><title>flat-compass-outline</title><polygon class="a" points="123.333 141.667 105 251.667 196.667 178.333 160 160 123.333 141.667"/><polygon class="a" points="123.333 141.667 121.361 141.338 103.027 251.338 106.249 253.228 200.357 177.943 160.894 158.211 121.806 138.667 121.361 141.338 123.333 141.667 122.439 143.455 159.105 161.789 192.976 178.724 107.832 246.84 125.306 141.995 123.333 141.667 122.439 143.455 123.333 141.667"/><path class="a" d="M270,160h-2a108,108,0,1,1-31.6324-76.3676A107.6536,107.6536,0,0,1,268,160h4A112,112,0,1,0,160,272,112,112,0,0,0,272,160Zm-110,0-.8945,1.7888,36.6665,18.3335a2,2,0,0,0,2.8673-1.46l18.3335-110a2,2,0,0,0-3.2222-1.8906l-91.6665,73.333a2,2,0,0,0,.3549,3.3506l36.6665,18.3335L160,160l.8944-1.7889-33.8708-16.9356L212.1676,73.16,195.1387,175.3336l-34.2443-17.1224Z"/><path class="a" d="M123.3335,141.6665l-1.9729-.3288-18.3335,110a2,2,0,0,0,3.2222,1.8906l91.6665-73.333a2,2,0,0,0-.3549-3.3506l-36.6665-18.3335-36.6665-18.3335a2,2,0,0,0-2.8673,1.46l1.9729.3288-.8945,1.7888,36.6665,18.3335,33.8706,16.9356L107.832,246.84l17.4742-104.8442-1.9728-.3288-.8945,1.7888Z"/></svg>