<svg xmlns="http://www.w3.org/2000/svg" viewBox="0 0 320 320"><defs><style>.a{fill:#1a1a1a;}</style></defs><title>flat-pencil</title><path class="a" d="M113.0635,22.6l-2.0349-3.4438C104.2007,23.19,95.56,28.1727,88.6332,32.142c-3.4637,1.9849-6.5,3.717-8.6693,4.9526-1.0848.6178-1.953,1.1116-2.55,1.4507s-.92.5227-.9213.5232l-.0614.0355a24.2829,24.2829,0,0,0-5.16,4.3369,21.5718,21.5718,0,0,0-3.5672,5.27A17.4729,17.4729,0,0,0,66,56.1952a20.03,20.03,0,0,0,2.74,9.8079c7.5025,13.4417,15.3008,26.8546,15.3073,26.8657l-.015-.026a12.6559,12.6559,0,0,0,2.4933,2.9843,12.1689,12.1689,0,0,0,3.0994,2.0222,11.0046,11.0046,0,0,0,4.5216.9689,13.1946,13.1946,0,0,0,6.1172-1.6075l.185-.1028c3.3882-2.0021,13.767-8.0111,24.1253-14.0079,10.3689-6.0032,20.7172-11.9941,24.1863-14.0439a12.6359,12.6359,0,0,0,4.7645-4.7223,10.817,10.817,0,0,0,1.3354-5.2573,12.85,12.85,0,0,0-.7318-4.2021,11.48,11.48,0,0,0-.8133-1.8441l.0025.0044L138.0453,26.23,134.57,28.21h4a3.9631,3.9631,0,0,0-.0785-.7914,4.04,4.04,0,0,0-.1679-.5995,4.7006,4.7006,0,0,0-.1879-.4446c-.0952-.1968-.1775-.3461-.2748-.516a18.9416,18.9416,0,0,0-1.7078-2.429,21.9411,21.9411,0,0,0-5.3753-4.7637A17.3106,17.3106,0,0,0,121.6132,16a20.7375,20.7375,0,0,0-10.5849,3.156L113.0635,22.6l2.0352,3.4435A12.7612,12.7612,0,0,1,121.6132,24a8.9856,8.9856,0,0,1,3.8551.8728,13.0641,13.0641,0,0,1,4.1872,3.26,13.5594,13.5594,0,0,1,1.0894,1.424c.11.1672.1842.2948.2016.3269l.003.0054,1.6532-.8834-1.7121.76c.0458.1018.0578.12.0589.1234l1.6532-.8834-1.7121.76,3.1721-1.4081L130.78,29.4817c.0549.1581.0871.2288.1107.2836l3.1721-1.4081L130.78,29.4817l3.6366-1.2457-3.74.89c.0414.1719.0755.2744.1029.356l3.6366-1.2457-3.74.89,3.85-.9159H130.57a3.8421,3.8421,0,0,0,.1071.9158l3.85-.9159H130.57a3.9746,3.9746,0,0,0,.5245,1.98l15.2725,26.8047.0025.0044,2.3272-1.33-2.3506,1.2882.0233.0416,2.3272-1.33-2.3506,1.2882.4031-.2209-.407.2139.0039.0071.4031-.2209-.407.2139a5.13,5.13,0,0,1,.5184,2.1259,2.7932,2.7932,0,0,1-.34,1.3926,4.67,4.67,0,0,1-1.83,1.7c-3.3878,2.002-13.7665,8.011-24.1248,14.0078C110.1969,82.18,99.8485,88.1705,96.3793,90.22l2.0348,3.4438-1.85-3.5466a5.2308,5.2308,0,0,1-2.4177.7008,2.9767,2.9767,0,0,1-1.2482-.2687A4.6191,4.6191,0,0,1,91.4207,89.43a5.2266,5.2266,0,0,1-.3992-.4982l-.07-.1046-.0713.0447.0722-.043-.0009-.0017-.0713.0447.0722-.043-2.1864,1.3087,2.2124-1.264-.026-.0447-2.1864,1.3087,2.2124-1.264-.015-.026c0-.0006-.12-.2069-.3471-.598-1.5875-2.7378-8.3647-14.4534-14.8906-26.1458A12.0314,12.0314,0,0,1,74,56.1952a9.4534,9.4534,0,0,1,.9414-4.0747,14.8272,14.8272,0,0,1,3.5173-4.5566,17.4129,17.4129,0,0,1,1.539-1.2339c.1893-.1342.3355-.231.4242-.288l.0881-.0557.0083-.0051L79.367,44.0721l1.1341,1.9194.0173-.01L79.367,44.0721l1.1341,1.9194-2.0349-3.4437L80.44,46.0271c.01-.006,20.8913-11.8492,34.6585-19.9838Z"/><path class="a" d="M157.0605,82.0625l-2.0349-3.4437c-3.3878,2.002-13.7666,8.011-24.1248,14.0078-10.3689,6.0032-20.7171,11.9941-24.1862,14.0439a12.6351,12.6351,0,0,0-4.7648,4.722,10.8164,10.8164,0,0,0-1.3356,5.2577,12.8493,12.8493,0,0,0,.7318,4.2019,11.4779,11.4779,0,0,0,.8132,1.844l-.0024-.0042s18.6116,32.6674,37.73,66.1538c9.5593,16.7434,19.2453,33.6913,26.7963,46.8654,3.7755,6.587,7.0171,12.23,9.444,16.4357,1.2135,2.1029,2.2231,3.8459,2.9961,5.1714.7772,1.332,1.299,2.217,1.6034,2.71l3.4012-2.1052-3.458,2.01a20.4516,20.4516,0,0,0,2.5091,3.3484,55.3649,55.3649,0,0,0,6.9179,6.2407,189.415,189.415,0,0,0,17.06,11.56C216.6209,286.8881,226.84,292.5,234.71,296.673c7.8691,4.1718,13.3851,6.9,13.41,6.9124a4,4,0,0,0,5.7656-3.3359c.0024-.0476,1.1025-17.6285,1.1032-36.4923-.0008-8.712-.2329-17.6914-.9319-25.4215a97.2434,97.2434,0,0,0-1.4521-10.527,41.516,41.516,0,0,0-1.1064-4.3225,20.2815,20.2815,0,0,0-1.5408-3.6689l-.02-.035C246.1959,213.2334,171.4422,82.571,171.4417,82.57l-.0707-.1188a13.0182,13.0182,0,0,0-2.499-2.839,12.3723,12.3723,0,0,0-3.0356-1.9342,10.8276,10.8276,0,0,0-4.4-.9391,12.56,12.56,0,0,0-6.4108,1.88l2.0353,3.4436,2.0352,3.4435a4.5872,4.5872,0,0,1,2.34-.767,2.8077,2.8077,0,0,1,1.1606.2539,4.8867,4.8867,0,0,1,1.5008,1.1057,5.6328,5.6328,0,0,1,.4191.4954l.0767.1072.0008.0011,2.0921-1.3512-2.1176,1.3107.0255.0405,2.0921-1.3512-2.1176,1.3107,3.4012-2.1051-3.472,1.9863.84,1.469c8.226,14.3784,74.15,129.6068,77.6536,135.739l3.473-1.9844-3.4929,1.9493a12.54,12.54,0,0,1,.91,2.2166,44.5506,44.5506,0,0,1,1.4586,6.7424c.6158,4.0817,1.0339,9.0566,1.2908,14.3988.2579,5.3444.3579,11.0627.3578,16.6833,0,9.2792-.272,18.2926-.5444,24.9761-.1362,3.3419-.2723,6.1018-.3743,8.0234-.051.9608-.0934,1.712-.123,2.2217-.0148.2549-.0264.4492-.0342.5793l-.0118.1929,3.9922.25,1.7734-3.5854-.1589-.0789c-1.6611-.8256-16.1248-8.0552-31.03-16.6478-7.449-4.2928-15.0125-8.9324-21.0844-13.23a88.102,88.102,0,0,1-7.7494-6.0514,33.241,33.241,0,0,1-2.5889-2.5553,12.4813,12.4813,0,0,1-1.4691-1.9392l-.0569-.0948c-.2021-.3257-.7367-1.2284-1.4951-2.5294-2.8636-4.91-9.1149-15.795-16.8656-29.3337-11.6283-20.3119-26.644-46.6184-38.752-67.8461-6.054-10.6139-11.3812-19.958-15.1949-26.6488-1.9068-3.3453-3.4353-6.0273-4.487-7.8729s-1.6251-2.8519-1.6267-2.8549l-.0024-.0042-2.3174,1.324,2.3407-1.2825-.0233-.0415-2.3174,1.324,2.3407-1.2825-.4091.2241.4131-.2169-.0039-.0072-.4091.2241.4131-.2169a5.1343,5.1343,0,0,1-.5185-2.126,2.7929,2.7929,0,0,1,.34-1.3926,4.67,4.67,0,0,1,1.83-1.7c3.388-2.0021,13.7668-8.0111,24.125-14.0079,10.3688-6.0032,20.7171-11.9941,24.1862-14.0439Z"/></svg>