<svg xmlns="http://www.w3.org/2000/svg" viewBox="0 0 320 320"><defs><style>.a{fill:#1a1a1a;}</style></defs><title>flat-mug-outline</title><path class="a" d="M280,140h2a64.8665,64.8665,0,0,0-12.4529-38.3385c-8.1621-11.175-20.2095-20.0947-35.6225-24.86l-.5911,1.9108h2V65a7.0008,7.0008,0,0,0-7-7H85a7.0008,7.0008,0,0,0-7,7V218.4126a55.3972,55.3972,0,0,0,5.1976,21.66,38.1445,38.1445,0,0,0,12.5381,15.0726C101.7032,259.2894,109.6571,262.0067,120,262h73.3335a51.692,51.692,0,0,0,20.8944-5.2111,37.1074,37.1074,0,0,0,14.52-12.5544c3.9846-5.9677,6.5917-13.9049,6.5859-24.2344V210h-2l.8944,1.7888c10.3264-5.1718,22.1688-14.7177,31.5375-27.1667C275.1181,172.1791,281.995,156.7877,282,140h-4c.005,15.6663-6.4514,30.2748-15.4319,42.2184-8.9646,11.9374-20.4554,21.1644-30.129,25.9927l-1.1056.5527V210c0,4.812,0,6.3612,0,10-.0058,9.67-2.3987,16.733-5.9141,22.0155a31.9987,31.9987,0,0,1-9.437,9.183,44.3443,44.3443,0,0,1-15.3206,5.9487,48.8476,48.8476,0,0,1-5.3409.7482c-.6484.053-1.157.0792-1.4976.092-.17.0065-.2986.01-.3815.0111l-.09.0012-.0187,0S158.0952,258,120,258c-9.6571-.0068-16.7032-2.4879-21.9857-6.1418A32.77,32.77,0,0,1,88.82,242.033a47.3543,47.3543,0,0,1-5.9648-15.9718,52.8161,52.8161,0,0,1-.75-5.57c-.0533-.6765-.08-1.2076-.0925-1.5638-.0065-.1781-.01-.3126-.0112-.4L82,218.4335V65a3,3,0,0,1,3-3H228.3335a3,3,0,0,1,3,3V80.187l1.4089.436c14.6285,4.5287,25.9143,12.92,33.5751,23.3983A60.8649,60.8649,0,0,1,278,140Zm-46.6665,46.6665h2V100h-2l-.727,1.8632a42.4338,42.4338,0,0,1,18.632,13.5439c4.74,6.2443,7.7059,14.2822,7.7136,24.5929a50.5987,50.5987,0,0,1-7.3024,26.4866,52.3285,52.3285,0,0,1-19.2921,18.4341l.9759,1.7458h0l.9759,1.7457a56.3287,56.3287,0,0,0,20.7587-19.8484A54.6089,54.6089,0,0,0,262.9521,140c.0077-11.0835-3.2519-20.0865-8.53-27.0143A46.4225,46.4225,0,0,0,234.06,98.1367l-2.727-1.0641V100c0,25.2251,0,60.3959,0,86.6665v3.4092l2.9759-1.6635Z"/></svg>