<svg xmlns="http://www.w3.org/2000/svg" viewBox="0 0 320 320"><defs><style>.a{fill:#1a1a1a;}</style></defs><title>flat-cylinder</title><path  d="M279.8564,98.2715l-3.9473.6484a5.2561,5.2561,0,0,1,.0908.8057V213.9023a15.6,15.6,0,0,1-1.9685,7.41c-2.3142,4.3773-6.9009,8.9258-13.542,13.1126-9.9434,6.2983-24.3567,11.7567-41.6213,15.5621A276.4771,276.4771,0,0,1,160,256a289.2227,289.2227,0,0,1-46.0681-3.5709c-21.1892-3.4335-39.137-9.21-51.4607-16.23-6.1638-3.4992-10.8977-7.3038-13.9675-11.1055a21.9249,21.9249,0,0,1-3.4043-5.6491,14.869,14.869,0,0,1-1.1-5.5418V99.7256a5.2561,5.2561,0,0,1,.0908-.8057l-3.947-.6484-3.9712.48A25.1517,25.1517,0,0,0,40.1357,109.34c3.72,5.7689,9.5767,10.7889,17.0549,15.233,11.229,6.6488,26.2124,12.0017,43.7637,15.7562A286.003,286.003,0,0,0,160,146.1953c32.5972-.0078,62.2-4.9056,84.3413-13.0392,11.0737-4.0791,20.2971-8.9558,27.147-14.6283a40.7394,40.7394,0,0,0,8.3752-9.1877,25.1524,25.1524,0,0,0,3.9639-10.5884l-3.9709-.48-3.9473.6484,3.9473-.6484-3.9712-.48a17.16,17.16,0,0,1-2.7529,7.2255c-2.7371,4.2845-7.63,8.6682-14.4041,12.6748-10.15,6.0272-24.4272,11.2058-41.354,14.8139A278.0718,278.0718,0,0,1,160,138.1953c-31.7793.0078-60.6267-4.8317-81.5808-12.5477C67.9453,121.8019,59.46,117.2258,53.6184,112.37a32.8363,32.8363,0,0,1-6.7512-7.3536,17.1593,17.1593,0,0,1-2.7527-7.2253,4,4,0,0,0-7.9182-.1685A12.7579,12.7579,0,0,0,36,99.7256V213.9023a23.6147,23.6147,0,0,0,2.9075,11.1708c3.2805,6.1256,8.9377,11.43,16.3276,16.1134,11.1028,7.0078,26.2568,12.6465,44.1711,16.6118A284.4029,284.4029,0,0,0,160,264a297.1866,297.1866,0,0,0,47.3508-3.6743c21.8806-3.5645,40.5781-9.4785,54.1321-17.1725,6.7754-3.8581,12.2883-8.1666,16.2307-13.0258a29.8957,29.8957,0,0,0,4.62-7.7265A22.8842,22.8842,0,0,0,284,213.9023V99.7256a12.7579,12.7579,0,0,0-.1963-2.1025,4,4,0,0,0-7.9182.1683ZM160,50V46a297.1732,297.1732,0,0,0-47.3511,3.6743c-21.8806,3.5645-40.5781,9.4785-54.1321,17.1725-6.7754,3.8581-12.2883,8.1666-16.2307,13.0258a29.8869,29.8869,0,0,0-4.62,7.7265A22.884,22.884,0,0,0,36,96.0977a21.9165,21.9165,0,0,0,.1729,2.658l0-.0043A25.1517,25.1517,0,0,0,40.1357,109.34c3.72,5.7689,9.5767,10.7889,17.0549,15.233,11.229,6.6488,26.2124,12.0017,43.7637,15.7562A286.003,286.003,0,0,0,160,146.1953c32.5972-.0078,62.2-4.9056,84.3413-13.0392,11.0737-4.0791,20.2971-8.9558,27.147-14.6283a40.7394,40.7394,0,0,0,8.3752-9.1877,25.1524,25.1524,0,0,0,3.9639-10.5884l0,.0041A21.9165,21.9165,0,0,0,284,96.0977a23.6146,23.6146,0,0,0-2.9075-11.1709c-3.2805-6.1256-8.9377-11.43-16.3276-16.1134-11.1028-7.0078-26.2571-12.6466-44.1711-16.6118A284.4022,284.4022,0,0,0,160,46v8a289.2076,289.2076,0,0,1,46.0679,3.5709c21.1892,3.4335,39.137,9.21,51.4607,16.23,6.1636,3.4991,10.8977,7.3038,13.9675,11.1055A21.9239,21.9239,0,0,1,274.9,90.5558a14.8691,14.8691,0,0,1,1.1,5.5419,13.9841,13.9841,0,0,1-.1143,1.69l0,.0041a17.16,17.16,0,0,1-2.7529,7.2255c-2.7371,4.2845-7.63,8.6682-14.4041,12.6748-10.15,6.0272-24.4272,11.2058-41.354,14.8139A278.0718,278.0718,0,0,1,160,138.1953c-31.7793.0078-60.6267-4.8317-81.5808-12.5477C67.9453,121.8019,59.46,117.2258,53.6184,112.37a32.8363,32.8363,0,0,1-6.7512-7.3536,17.1593,17.1593,0,0,1-2.7527-7.2253l0-.0043A13.9841,13.9841,0,0,1,44,96.0977a15.6,15.6,0,0,1,1.9685-7.41c2.3142-4.3773,6.9009-8.9258,13.542-13.1126,9.9434-6.2983,24.3567-11.7567,41.6213-15.5621A276.4778,276.4778,0,0,1,160,54Z"/></svg>