<svg xmlns="http://www.w3.org/2000/svg" viewBox="0 0 320 320">
  <defs>
    <style>
      .cls-1 {
        fill: #1a1a1a;
      }
    </style>
  </defs>
  <title>flat-database</title>
  <g id="Layer_16" data-name="Layer 16">
    <path class="cls-1" d="M249.8926,202.4414l-3.95.6287a3.5533,3.5533,0,0,1,.0577.4963v40.7754a11.5326,11.5326,0,0,1-1.3825,5.3507c-1.6353,3.1964-4.9467,6.6138-9.832,9.7886-7.31,4.7784-18.0168,8.973-30.876,11.8944A200.2166,200.2166,0,0,1,160,276a209.365,209.365,0,0,1-34.3709-2.7473c-15.7961-2.6377-29.1515-7.0842-38.235-12.4246a36.085,36.085,0,0,1-10.2016-8.3528,16.1961,16.1961,0,0,1-2.4234-4.1426A10.9939,10.9939,0,0,1,74,244.3418V203.5664a3.54,3.54,0,0,1,.0577-.4963l-3.95-.6287-3.9728.4656a20.6793,20.6793,0,0,0,3.096,8.5386c2.8954,4.6283,7.4067,8.5975,13.1058,12.0918,8.5605,5.2258,19.8964,9.3927,33.1457,12.3174A209.2787,209.2787,0,0,0,160,240.4178c24.5628-.0079,46.8727-3.806,63.6393-10.1562,8.386-3.1871,15.4021-7.0028,20.6622-11.4934a32.1226,32.1226,0,0,0,6.4677-7.3226,20.68,20.68,0,0,0,3.0963-8.5385l-3.9728-.4657-3.95.6287,3.95-.6287-3.9728-.4658a12.6875,12.6875,0,0,1-1.9415,5.2411c-1.9473,3.1483-5.4983,6.4531-10.4886,9.4957-7.4738,4.58-18.0836,8.5591-30.6927,11.33A201.3613,201.3613,0,0,1,160,232.418c-23.7194.0079-45.2472-3.7262-60.8022-9.6362-7.7747-2.943-14.04-6.4395-18.2988-10.0924a24.2082,24.2082,0,0,1-4.8774-5.4727,12.6849,12.6849,0,0,1-1.9414-5.241,4,4,0,0,0-7.9231-.1631A10.9857,10.9857,0,0,0,66,203.5664v40.7754a19.55,19.55,0,0,0,2.2745,9.0219c2.5608,4.928,6.9323,9.1318,12.57,12.8187,8.475,5.5143,19.9436,9.9038,33.4686,12.9933A208.1367,208.1367,0,0,0,160,284a217.3332,217.3332,0,0,0,35.6931-2.8572c16.5062-2.7755,30.6348-7.3719,40.96-13.4138A43.8565,43.8565,0,0,0,249.1,257.4153a24.1691,24.1691,0,0,0,3.595-6.2039,19.0125,19.0125,0,0,0,1.3049-6.87V203.5664a10.99,10.99,0,0,0-.1571-1.7538,4,4,0,0,0-7.9231.163ZM160,174.708v-4c-23.7194.0079-45.2472-3.7262-60.8022-9.6362-7.7747-2.943-14.04-6.4395-18.2988-10.0924a24.2082,24.2082,0,0,1-4.8774-5.4727,12.6849,12.6849,0,0,1-1.9414-5.241,4,4,0,0,0-7.9231-.1631A10.978,10.978,0,0,0,66,141.8564v40.7754a19.55,19.55,0,0,0,2.2745,9.0219c2.5608,4.928,6.9323,9.1318,12.57,12.8187,8.475,5.5143,19.9436,9.9038,33.4686,12.9933A208.1367,208.1367,0,0,0,160,222.29a217.3332,217.3332,0,0,0,35.6931-2.8572c16.5062-2.7755,30.6348-7.3719,40.96-13.4138A43.8565,43.8565,0,0,0,249.1,195.7053a24.1691,24.1691,0,0,0,3.595-6.2039,19.0125,19.0125,0,0,0,1.3049-6.87V141.8564a10.9785,10.9785,0,0,0-.1571-1.7538,4,4,0,0,0-7.9231.163,12.6875,12.6875,0,0,1-1.9415,5.2411c-1.9473,3.1483-5.4983,6.4531-10.4886,9.4957-7.4738,4.58-18.0836,8.5591-30.6927,11.33A201.3613,201.3613,0,0,1,160,170.708v8c24.5628-.0079,46.8727-3.806,63.6393-10.1562,8.386-3.1871,15.4021-7.0028,20.6622-11.4934a32.1226,32.1226,0,0,0,6.4677-7.3226,20.68,20.68,0,0,0,3.0963-8.5385l-3.9728-.4657-3.95.6287a3.5262,3.5262,0,0,1,.0577.4963v40.7754a11.5326,11.5326,0,0,1-1.3825,5.3507c-1.6353,3.1964-4.9467,6.6138-9.832,9.7886-7.31,4.7784-18.0168,8.973-30.876,11.8944A200.2166,200.2166,0,0,1,160,214.29a209.365,209.365,0,0,1-34.3709-2.7473c-15.7961-2.6377-29.1515-7.0842-38.235-12.4246a36.085,36.085,0,0,1-10.2016-8.3528,16.1961,16.1961,0,0,1-2.4234-4.1426A10.9939,10.9939,0,0,1,74,182.6318V141.8564a3.5234,3.5234,0,0,1,.0577-.4963l-3.95-.6287-3.9728.4656a20.6793,20.6793,0,0,0,3.096,8.5386c2.8954,4.6283,7.4067,8.5975,13.1058,12.0918,8.5605,5.2258,19.8964,9.3927,33.1457,12.3174A209.2787,209.2787,0,0,0,160,178.7079Zm0-63.3916v-4c-23.7194.0079-45.2472-3.7262-60.8022-9.6364-7.7747-2.9431-14.04-6.44-18.2988-10.0927a24.2083,24.2083,0,0,1-4.8775-5.4729A12.6857,12.6857,0,0,1,74.08,76.8732a4,4,0,0,0-7.9231-.1631A10.99,10.99,0,0,0,66,78.4648V119.24a19.55,19.55,0,0,0,2.2745,9.0219c2.5608,4.928,6.9323,9.1317,12.57,12.8185,8.475,5.5142,19.9436,9.9034,33.4685,12.9928A208.1447,208.1447,0,0,0,160,158.8973a217.3324,217.3324,0,0,0,35.6931-2.8571c16.5062-2.7754,30.6348-7.3715,40.96-13.4132A43.8591,43.8591,0,0,0,249.1,132.3137a24.1671,24.1671,0,0,0,3.595-6.2039A19.0113,19.0113,0,0,0,254,119.24V78.4648a10.9938,10.9938,0,0,0-.1571-1.7548,4,4,0,0,0-7.9231.1631,12.6862,12.6862,0,0,1-1.9414,5.2413c-1.9473,3.1484-5.4982,6.4534-10.4886,9.4961-7.4738,4.58-18.0836,8.5592-30.6927,11.33A201.3629,201.3629,0,0,1,160,107.3164v8c24.5628-.0079,46.8729-3.806,63.6395-10.1564,8.386-3.1871,15.4022-7.0029,20.6623-11.4938a32.1222,32.1222,0,0,0,6.4676-7.3229,20.682,20.682,0,0,0,3.096-8.5388l-3.9728-.4656-3.95.6287a3.5327,3.5327,0,0,1,.0577.4973V119.24a11.5326,11.5326,0,0,1-1.3825,5.3507c-1.6353,3.1963-4.9467,6.6135-9.8319,9.7883-7.31,4.7782-18.0168,8.9727-30.876,11.8939A200.2253,200.2253,0,0,1,160,150.8975a209.3929,209.3929,0,0,1-34.371-2.7471c-15.7961-2.6377-29.1515-7.084-38.235-12.4242a36.0818,36.0818,0,0,1-10.2015-8.3525,16.1966,16.1966,0,0,1-2.4235-4.1425A10.9945,10.9945,0,0,1,74,119.24V78.4648a3.5352,3.5352,0,0,1,.0577-.4973l-3.95-.6287-3.9728.4656a20.68,20.68,0,0,0,3.096,8.5388c2.8954,4.6284,7.4067,8.5979,13.1058,12.0923,8.5605,5.2258,19.8964,9.3929,33.1457,12.3176A209.2787,209.2787,0,0,0,160,115.3163ZM160,40V36a217.3328,217.3328,0,0,0-35.6931,2.8572c-16.5063,2.7755-30.6348,7.3718-40.96,13.4138A43.8563,43.8563,0,0,0,70.9,62.5846a24.1664,24.1664,0,0,0-3.595,6.2039A19.01,19.01,0,0,0,66,75.6582a18.3618,18.3618,0,0,0,.1348,2.1476,20.6791,20.6791,0,0,0,3.0959,8.5375c2.8954,4.6284,7.4067,8.5979,13.1058,12.0923,8.5605,5.2258,19.8964,9.3929,33.1457,12.3176A209.2787,209.2787,0,0,0,160,115.3163c24.5628-.0079,46.8729-3.806,63.6395-10.1564,8.386-3.1871,15.4022-7.0029,20.6623-11.4938a32.1222,32.1222,0,0,0,6.4676-7.3229,20.682,20.682,0,0,0,3.096-8.5388A18.3539,18.3539,0,0,0,254,75.6582a19.5508,19.5508,0,0,0-2.2745-9.022c-2.5609-4.928-6.9323-9.1318-12.57-12.8187-8.475-5.5144-19.9436-9.9038-33.4686-12.9933A208.1292,208.1292,0,0,0,160,36v8a209.3652,209.3652,0,0,1,34.3709,2.7473c15.7961,2.6377,29.1514,7.0842,38.2349,12.4246a36.0843,36.0843,0,0,1,10.2016,8.3528,16.1978,16.1978,0,0,1,2.4235,4.1426A10.9955,10.9955,0,0,1,246,75.6582a10.45,10.45,0,0,1-.08,1.2136,12.6876,12.6876,0,0,1-1.9416,5.2427c-1.9473,3.1484-5.4982,6.4534-10.4886,9.4961-7.4738,4.58-18.0836,8.5592-30.6927,11.33A201.3629,201.3629,0,0,1,160,107.3164c-23.7194.0079-45.2472-3.7262-60.8022-9.6364-7.7747-2.9431-14.04-6.44-18.2988-10.0927a24.2083,24.2083,0,0,1-4.8775-5.4729A12.6857,12.6857,0,0,1,74.08,76.8732a10.4519,10.4519,0,0,1-.08-1.215,11.5319,11.5319,0,0,1,1.3825-5.3508c1.6353-3.1964,4.9467-6.6138,9.832-9.7887,7.31-4.7783,18.0168-8.9729,30.876-11.8943A200.2093,200.2093,0,0,1,160,44Z"/>
  </g>
</svg>
