<svg xmlns="http://www.w3.org/2000/svg" viewBox="0 0 320 320">
  <defs>
    <style>
      .cls-1 {
        fill: #1a1a1a;
      }
    </style>
  </defs>
  <title>flat-arrow-right-outline</title>
  <g id="Layer_16" data-name="Layer 16">
    <path class="cls-1" d="M169.1968,246.1211l1.4144,1.4138L247.6287,170.5l-1.4144-1.4138,1.2437,1.5662a11.2648,11.2648,0,0,0,2.3528-2.8088A15.2235,15.2235,0,0,0,252,159.7813a14.0642,14.0642,0,0,0-2.2853-7.5737,13.8968,13.8968,0,0,0-2.3416-2.8306l-1.314,1.5078,1.4144-1.4141L170.4559,72.4355A15.03,15.03,0,0,0,159.8111,68,14.8914,14.8914,0,0,0,144.96,82.9087a15.0233,15.0233,0,0,0,4.413,10.6406l51.4383,51.4355-117.82-.0093a14.81,14.81,0,0,0-10.62,4.5291,15.2906,15.2906,0,0,0,.0043,21.4131A14.8222,14.8222,0,0,0,83,175.448l117.8154-.0017-51.3962,51.1555-.0034.0034a14.855,14.855,0,0,0,10.4554,25.394,15.1794,15.1794,0,0,0,10.74-4.4639l-1.4141-1.4143-1.4141-1.4146a11.1793,11.1793,0,0,1-7.912,3.293,10.7244,10.7244,0,0,1-7.6336-3.1511,10.8321,10.8321,0,0,1,.0069-15.4148l54.8266-54.57L205.66,171.446l-122.66.002a10.8179,10.8179,0,0,1-7.76-3.323,11.291,11.291,0,0,1-.0036-15.8284,10.8078,10.8078,0,0,1,7.7551-3.3213l122.6488.01,1.4143-3.4141-54.8525-54.85a11.0181,11.0181,0,0,1-3.2419-7.8127,10.8782,10.8782,0,0,1,3.2-7.729,10.7555,10.7555,0,0,1,7.6513-3.18,11.0277,11.0277,0,0,1,7.8161,3.2644l77.0666,77.084.0513.0447.5231-.6-.5306.5938.0075.0066.5231-.6-.5306.5938a10.441,10.441,0,0,1,1.6857,2.1011A10.0284,10.0284,0,0,1,248,159.7813a11.2062,11.2062,0,0,1-1.5964,5.9666,8.9144,8.9144,0,0,1-1.06,1.4053c-.1383.1482-.2482.2529-.3152.3142l-.0666.0591-.0058.0046.72.8774-.7059-.8889-.0144.0115.72.8774-.7059-.8889-.0895.071L167.7824,244.707Z"/>
  </g>
</svg>
