<svg xmlns="http://www.w3.org/2000/svg" viewBox="0 0 320 320">
  <defs>
    <style>
      .cls-1 {
        fill: #1a1a1a;
      }
    </style>
  </defs>
  <title>flat-person-outline</title>
  <g id="Layer_16" data-name="Layer 16">
    <path class="cls-1" d="M227.1753,125.2539h-2a65.1756,65.1756,0,1,1-19.09-46.0856,64.9632,64.9632,0,0,1,19.09,46.0856h4A69.1752,69.1752,0,1,0,160,194.4294a69.1757,69.1757,0,0,0,69.1752-69.1755Zm-14.5864,58.52-1.3461-1.4795a76.079,76.079,0,0,1-102.4857,0l-1.0443-.95-1.2446.6658a113.7677,113.7677,0,0,0-59.6449,88.9792l-.2184,2.1975h226.79l-.2183-2.1975A113.7679,113.7679,0,0,0,213.5317,182.01l-1.2451-.6655-1.0438.95,1.3461,1.4795-.943,1.7637a109.7684,109.7684,0,0,1,57.55,85.8469l1.99-.1975v-2H48.8135v2l1.99.1975a109.7682,109.7682,0,0,1,57.55-85.8469l-.9429-1.7637-1.3461,1.4792a80.08,80.08,0,0,0,107.87,0l-1.3459-1.4792-.943,1.7637Z"/>
  </g>
</svg>
