<svg xmlns="http://www.w3.org/2000/svg" viewBox="0 0 320 320"><defs><style>.a{fill:#1a1a1a;}</style></defs><title>flat-camera-outline</title><path class="a" d="M160,99.5884h1.8526V79.6122H74.7792V97.7357H46.99v142.652H273.01V97.7357H160v1.8526h0v1.8526H269.3051V236.6825H50.6949V101.441h27.79V83.3175h79.6629V101.441H160Zm-32.8779,40.2271v-1.8526h-36.59V122.9293h34.7376v16.8861h1.8526v0h1.8526V119.224H86.8266v22.444h42.1481v-1.8526Zm65.2988,66.5v-1.8526a39.8315,39.8315,0,1,1,28.1653-11.6665,39.6986,39.6986,0,0,1-28.1653,11.6665v3.7052a43.5369,43.5369,0,1,0-43.5367-43.5367,43.5373,43.5373,0,0,0,43.5367,43.5367Z"/><path class="a" d="M224.8418,164.6318h-1.8526a30.5685,30.5685,0,1,1-8.9532-21.6154,30.4646,30.4646,0,0,1,8.9532,21.6154h3.7052a34.2735,34.2735,0,1,0-34.2735,34.2735,34.2743,34.2743,0,0,0,34.2735-34.2735Z"/></svg>