<svg xmlns="http://www.w3.org/2000/svg" viewBox="0 0 320 320"><defs><style>.a{fill:#1a1a1a;}</style></defs><title>flat-camera</title><path class="a" d="M160,99.3105h3.7223V81.1035A3.7223,3.7223,0,0,0,160,77.3812H76.2485a3.7223,3.7223,0,0,0-3.7223,3.7223V95.5882H48.3311a3.7223,3.7223,0,0,0-3.7223,3.7223V238.8965a3.7223,3.7223,0,0,0,3.7223,3.7223H271.6689a3.7224,3.7224,0,0,0,3.7223-3.7223V99.3105a3.7224,3.7224,0,0,0-3.7223-3.7223H160v3.7223h0v3.7223H267.9465V235.1742H52.0533V103.0328H76.2485a3.7223,3.7223,0,0,0,3.7223-3.7223V84.8258h76.3069V99.3105A3.7223,3.7223,0,0,0,160,103.0328Zm-33.0288,40.4121V136H92.0733V124.62h31.1755v15.1029h3.7223v0h3.7223V120.8975a3.7223,3.7223,0,0,0-3.7223-3.7223h-38.62a3.7223,3.7223,0,0,0-3.7223,3.7223v18.8252a3.7223,3.7223,0,0,0,3.7223,3.7223h38.62a3.7223,3.7223,0,0,0,3.7223-3.7223ZM192.57,206.5288v-3.7223a38.1533,38.1533,0,1,1,26.9784-11.1749A38.0177,38.0177,0,0,1,192.57,202.8065v7.4446a45.598,45.598,0,1,0-32.243-13.3554,45.4715,45.4715,0,0,0,32.243,13.3554Z"/><path class="a" d="M215.8345,164.6528h-3.7224a19.5419,19.5419,0,1,1-5.7238-13.8183,19.464,19.464,0,0,1,5.7238,13.8183h7.4446a26.9866,26.9866,0,1,0-7.9043,19.0824,26.9185,26.9185,0,0,0,7.9043-19.0824Z"/></svg>