<svg xmlns="http://www.w3.org/2000/svg" viewBox="0 0 320 320">
  <defs>
    <style>
      .cls-1 {
        fill: #1a1a1a;
      }
    </style>
  </defs>
  <title>flat-database-filled</title>
  <g id="Layer_16" data-name="Layer 16">
    <g>
      <path  d="M249.8926,202.4414a7.1173,7.1173,0,0,1,.1074,1.125v40.7754C250,264.0352,209.7056,280,160,280s-90-15.9648-90-35.6582V203.5664a7.1173,7.1173,0,0,1,.1074-1.125c2.2168,18.9121,41.61,33.9766,89.8926,33.9766S247.6753,221.3535,249.8926,202.4414ZM160,174.708c-48.2822,0-87.6758-15.0645-89.8926-33.9766A7.1062,7.1062,0,0,0,70,141.8564v40.7754c0,19.6934,40.2944,35.6582,90,35.6582s90-15.9648,90-35.6582V141.8564a7.1062,7.1062,0,0,0-.1074-1.125C247.6753,159.6436,208.2822,174.708,160,174.708Zm0-63.3916c-48.2822,0-87.6758-15.0645-89.8926-33.9775A7.1186,7.1186,0,0,0,70,78.4648V119.24c0,19.6934,40.2944,35.6572,90,35.6572s90-15.9639,90-35.6572V78.4648a7.1186,7.1186,0,0,0-.1074-1.126C247.6758,96.252,208.2822,111.3164,160,111.3164ZM160,40c-49.7056,0-90,15.9648-90,35.6582a14.3947,14.3947,0,0,0,.1074,1.6807c2.2168,18.9131,41.61,33.9775,89.8926,33.9775s87.6758-15.0645,89.8926-33.9775A14.3947,14.3947,0,0,0,250,75.6582C250,55.9648,209.7056,40,160,40Z"/>
      <path  d="M249.8926,202.4414l-1.9752.3143a5.24,5.24,0,0,1,.0826.8107v40.7754a13.5356,13.5356,0,0,1-1.6055,6.2686c-1.8666,3.6293-5.4431,7.2432-10.5165,10.5461-7.6011,4.9623-18.4985,9.2057-31.5241,12.1691A202.195,202.195,0,0,1,160,278c-24.6354.0046-46.9356-3.9714-62.903-10.3036-7.9825-3.1587-14.3706-6.9127-18.6572-10.9346a23.1335,23.1335,0,0,1-4.8345-6.1515A13.5355,13.5355,0,0,1,72,244.3418V203.5664a5.2328,5.2328,0,0,1,.0826-.8107l-1.9751-.3143-1.9865.2328a18.6786,18.6786,0,0,0,2.8074,7.7141c2.6584,4.2583,6.93,8.0615,12.4515,11.4429,8.2888,5.0642,19.4432,9.1843,32.5325,12.07A207.31,207.31,0,0,0,160,238.4178c24.3519-.0039,46.4663-3.786,62.93-10.0262,8.2332-3.1261,15.0616-6.8619,20.0714-11.1432a30.1387,30.1387,0,0,0,6.07-6.86,18.6808,18.6808,0,0,0,2.8076-7.7141l-1.9864-.2328-1.9752.3143,1.9752-.3143-1.9865-.2329a14.6826,14.6826,0,0,1-2.23,6.0654c-2.1843,3.5182-5.9754,6.9891-11.1429,10.1447-7.7455,4.7412-18.5368,8.7676-31.3059,11.5767A203.3459,203.3459,0,0,1,160,234.418c-23.93.0039-45.6537-3.7462-61.5115-9.7662-7.9276-3.004-14.3807-6.58-18.89-10.4427a26.1811,26.1811,0,0,1-5.275-5.9351,14.68,14.68,0,0,1-2.23-6.0654l-3.9615-.0815A9.0359,9.0359,0,0,0,68,203.5664v40.7754a17.5438,17.5438,0,0,0,2.0515,8.104c2.3295,4.4951,6.4359,8.5023,11.8857,12.0613,8.1837,5.33,19.4619,9.6711,32.82,12.7185A206.15,206.15,0,0,0,160,282c25.07-.0046,47.77-4.011,64.3762-10.5846,8.3043-3.2942,15.0964-7.2239,19.9184-11.7341a27.091,27.091,0,0,0,5.6539-7.2354A17.5446,17.5446,0,0,0,252,244.3418V203.5664a9.0431,9.0431,0,0,0-.1323-1.4395l-3.9615.0815ZM160,174.708v-2c-23.93.0039-45.6537-3.7462-61.5115-9.7662-7.9276-3.004-14.3807-6.58-18.89-10.4427a26.1811,26.1811,0,0,1-5.275-5.9351,14.68,14.68,0,0,1-2.23-6.0654l-3.9615-.0815A9.0348,9.0348,0,0,0,68,141.8564v40.7754a17.5438,17.5438,0,0,0,2.0515,8.104c2.3295,4.4951,6.4359,8.5023,11.8857,12.0613,8.1837,5.33,19.4619,9.6711,32.82,12.7185A206.15,206.15,0,0,0,160,220.29c25.07-.0046,47.77-4.011,64.3762-10.5846,8.3043-3.2942,15.0964-7.2239,19.9184-11.7341a27.091,27.091,0,0,0,5.6539-7.2354A17.5446,17.5446,0,0,0,252,182.6318V141.8564a9.0348,9.0348,0,0,0-.1323-1.4395l-3.9615.0815a14.6826,14.6826,0,0,1-2.23,6.0654c-2.1843,3.5182-5.9754,6.9891-11.1429,10.1447-7.7455,4.7412-18.5368,8.7676-31.3059,11.5767A203.3459,203.3459,0,0,1,160,172.708v4c24.3519-.0039,46.4663-3.786,62.93-10.0262,8.2332-3.1261,15.0616-6.8619,20.0714-11.1432a30.1387,30.1387,0,0,0,6.07-6.86,18.6808,18.6808,0,0,0,2.8076-7.7141l-1.9864-.2328-1.9752.3143a5.2182,5.2182,0,0,1,.0826.8107v40.7754a13.5356,13.5356,0,0,1-1.6055,6.2686c-1.8666,3.6293-5.4431,7.2432-10.5165,10.5461-7.6011,4.9623-18.4985,9.2057-31.5241,12.1691A202.195,202.195,0,0,1,160,216.29c-24.6354.0046-46.9356-3.9714-62.903-10.3036-7.9825-3.1587-14.3706-6.9127-18.6572-10.9346A23.1335,23.1335,0,0,1,73.6054,188.9,13.5355,13.5355,0,0,1,72,182.6318V141.8564a5.2182,5.2182,0,0,1,.0826-.8107l-1.9751-.3143-1.9865.2328a18.6786,18.6786,0,0,0,2.8074,7.7141c2.6584,4.2583,6.93,8.0615,12.4515,11.4429,8.2888,5.0642,19.4432,9.1843,32.5325,12.07A207.31,207.31,0,0,0,160,176.7079Zm0-63.3916v-2c-23.93.0039-45.6537-3.7462-61.5115-9.7664-7.9276-3.0042-14.3807-6.58-18.89-10.443a26.1834,26.1834,0,0,1-5.275-5.9353,14.6823,14.6823,0,0,1-2.23-6.0658l-3.9615-.0815A9.0408,9.0408,0,0,0,68,78.4648V119.24a17.5438,17.5438,0,0,0,2.0515,8.104c2.3295,4.4951,6.4359,8.5022,11.8857,12.061,8.1837,5.33,19.4619,9.6708,32.82,12.7181A206.1669,206.1669,0,0,0,160,156.8973c25.07-.0046,47.77-4.0107,64.3762-10.5841,8.3043-3.2941,15.0964-7.2236,19.9183-11.7339a27.0891,27.0891,0,0,0,5.6539-7.2351A17.5446,17.5446,0,0,0,252,119.24V78.4648a9.0408,9.0408,0,0,0-.1323-1.44l-3.9615.0815a14.6831,14.6831,0,0,1-2.23,6.0658c-2.1843,3.5184-5.9753,6.99-11.1429,10.145-7.7454,4.7412-18.5368,8.7677-31.306,11.5768A203.34,203.34,0,0,1,160,109.3164v4c24.3519-.004,46.4664-3.786,62.93-10.0264,8.2332-3.1261,15.0617-6.8621,20.0714-11.1434a30.1419,30.1419,0,0,0,6.07-6.86,18.6818,18.6818,0,0,0,2.8074-7.7145l-1.9864-.2328-1.9752.3143a5.2371,5.2371,0,0,1,.0826.8116V119.24a13.5358,13.5358,0,0,1-1.6055,6.2684c-1.8667,3.6293-5.4432,7.2432-10.5165,10.5459-7.6011,4.9623-18.4985,9.2054-31.5242,12.1687A202.2027,202.2027,0,0,1,160,152.8975c-24.6354.0046-46.9356-3.9712-62.903-10.3031-7.9825-3.1586-14.3706-6.9125-18.6572-10.9342a23.1316,23.1316,0,0,1-4.8345-6.1515A13.5358,13.5358,0,0,1,72,119.24V78.4648a5.2371,5.2371,0,0,1,.0826-.8116l-1.9751-.3143-1.9865.2328a18.68,18.68,0,0,0,2.8074,7.7145c2.6584,4.2584,6.93,8.0616,12.4515,11.4431,8.2888,5.0643,19.4432,9.1846,32.5325,12.0707A207.3015,207.3015,0,0,0,160,113.3163ZM160,40V38c-25.07.0046-47.77,4.011-64.3763,10.5846-8.3044,3.2942-15.0964,7.2239-19.9184,11.7341a27.09,27.09,0,0,0-5.6539,7.2354A17.544,17.544,0,0,0,68,75.6582a16.3735,16.3735,0,0,0,.1211,1.9141,18.6787,18.6787,0,0,0,2.8073,7.7139c2.6584,4.2584,6.93,8.0616,12.4515,11.4431,8.2888,5.0643,19.4432,9.1846,32.5325,12.0707A207.3015,207.3015,0,0,0,160,113.3163c24.3519-.004,46.4664-3.786,62.93-10.0264,8.2332-3.1261,15.0617-6.8621,20.0714-11.1434a30.1419,30.1419,0,0,0,6.07-6.86,18.6818,18.6818,0,0,0,2.8074-7.7145A16.3815,16.3815,0,0,0,252,75.6582a17.544,17.544,0,0,0-2.0515-8.1041c-2.3295-4.4951-6.4359-8.5023-11.8857-12.0613-8.1837-5.33-19.4619-9.6711-32.82-12.7185A206.1509,206.1509,0,0,0,160,38v4c24.6353-.0046,46.9355,3.9714,62.9029,10.3036,7.9824,3.1587,14.3705,6.9127,18.6572,10.9346a23.1325,23.1325,0,0,1,4.8344,6.1515A13.5364,13.5364,0,0,1,248,75.6582a12.4191,12.4191,0,0,1-.0937,1.4471,14.6845,14.6845,0,0,1-2.23,6.0664c-2.1843,3.5184-5.9753,6.99-11.1429,10.145-7.7454,4.7412-18.5368,8.7677-31.306,11.5768A203.34,203.34,0,0,1,160,109.3164c-23.93.0039-45.6537-3.7462-61.5115-9.7664-7.9276-3.0042-14.3807-6.58-18.89-10.443a26.1834,26.1834,0,0,1-5.275-5.9353,14.6823,14.6823,0,0,1-2.23-6.0658A12.412,12.412,0,0,1,72,75.6582,13.5364,13.5364,0,0,1,73.6054,69.39c1.8667-3.6293,5.4432-7.2432,10.5166-10.5461,7.6011-4.9623,18.4985-9.2057,31.5241-12.1691A202.1944,202.1944,0,0,1,160,42Z"/>
    </g>
  </g>
</svg>
