<svg xmlns="http://www.w3.org/2000/svg" viewBox="0 0 320 320"><defs><style>.a{fill:#1a1a1a;}</style></defs><title>flat-align-right-filled</title><rect  x="50" y="80" width="220" height="12.3076"/><rect  x="110" y="129.231" width="160" height="12.3076"/><rect  x="80" y="178.4614" width="190" height="12.3076"/><rect  x="230" y="227.6924" width="40" height="12.3076"/><polygon  points="50 80 50 82 268 82 268 90.308 52 90.308 52 80 50 80 50 82 50 80 48 80 48 94.308 272 94.308 272 78 48 78 48 80 50 80"/><polygon  points="110 129.231 108 129.231 108 143.539 272 143.539 272 127.231 108 127.231 108 129.231 110 129.231 110 131.231 268 131.231 268 139.539 112 139.539 112 129.231 110 129.231 110 131.231 110 129.231"/><polygon  points="80 178.461 78 178.461 78 192.769 272 192.769 272 176.461 78 176.461 78 178.461 80 178.461 80 180.461 268 180.461 268 188.769 82 188.769 82 178.461 80 178.461 80 180.461 80 178.461"/><polygon  points="230 227.692 228 227.692 228 242 272 242 272 225.692 228 225.692 228 227.692 230 227.692 230 229.692 268 229.692 268 238 232 238 232 227.692 230 227.692 230 229.692 230 227.692"/></svg>