<svg xmlns="http://www.w3.org/2000/svg" viewBox="0 0 320 320"><defs><style>.a{fill:#1a1a1a;}</style></defs><title>flat-female</title><path class="a" d="M197.5205,57.9287h4A42.0136,42.0136,0,0,0,189.37,28.2969a41.2274,41.2274,0,0,0-58.7454.0011,42.1951,42.1951,0,0,0,.0007,59.243,41.24,41.24,0,0,0,58.7439.001A41.9775,41.9775,0,0,0,201.52,57.9287h-8a33.97,33.97,0,0,1-9.8363,23.9845,33.24,33.24,0,0,1-47.3723.001,34.195,34.195,0,0,1,.0007-47.9911,33.2273,33.2273,0,0,1,47.3708.0011,34.0051,34.0051,0,0,1,9.837,24.0045Z"/><path class="a" d="M212.875,205.2939v4h2.3179a18.6714,18.6714,0,0,0,13.3635-5.6113A18.9671,18.9671,0,0,0,234,190.3837a19.3089,19.3089,0,0,0-.1833-2.6511c-1.7164-12.385-4.1718-29.4836-6.6036-44.2611-1.2167-7.3914-2.4258-14.1979-3.5444-19.5853-.56-2.6964-1.0963-5.0352-1.614-6.9546-.26-.9613-.5144-1.8175-.7782-2.5851a14.1228,14.1228,0,0,0-.9017-2.1356l-.0022-.004q-.1276-.2338-.2554-.4648A32.9249,32.9249,0,0,0,191.29,94.75H128.71a32.9253,32.9253,0,0,0-28.828,16.9926q-.1273.23-.255.4642l-.0022.004a14.1228,14.1228,0,0,0-.9017,2.1356c-.4918,1.4344-.965,3.2035-1.4686,5.34-.8761,3.7278-1.82,8.5405-2.7985,14.0186-2.9319,16.4186-6.1605,38.7855-8.2731,54.0272A19.2905,19.2905,0,0,0,86,190.3835a18.9673,18.9673,0,0,0,5.4436,13.2988,18.6719,18.6719,0,0,0,13.3639,5.6115h2.3179a11.805,11.805,0,0,0,7.707-2.8634,11.9564,11.9564,0,0,0,4.0073-7.1842l10.4761-65.4707-3.95-.632h-4v3.3051L110.0811,239.0774a6.1494,6.1494,0,0,0,5.4423,6.7952l11.3284,1.215.2-1.8632-1.3777,1.2722a1.8834,1.8834,0,0,0,1.1777.5908l.2-1.863-1.3777,1.2722,1.3485-1.245-1.8356.0653a1.8426,1.8426,0,0,0,.4871,1.18l1.3485-1.245-1.8356.0653,1.5483,43.4408a15.8352,15.8352,0,0,0,4.77,10.7966,15.598,15.598,0,0,0,21.6466.1576,15.8332,15.8332,0,0,0,4.9122-10.4979l2.8007-43.5474,2.0216,0v-4l-3.9918.2567,3.0415,47.29a15.8333,15.8333,0,0,0,4.9122,10.4982,15.598,15.598,0,0,0,21.6466-.1576,15.8354,15.8354,0,0,0,4.77-10.7969l1.5483-43.44-1.8354-.0657,1.3484,1.245a1.8426,1.8426,0,0,0,.4871-1.18l-1.8354-.0653,1.3484,1.245-1.3777-1.2719.2,1.8627a1.8834,1.8834,0,0,0,1.1777-.5908l-1.3777-1.2719.2,1.8627,11.3268-1.2147a6.1475,6.1475,0,0,0,5.48-6.1179,6.2915,6.2915,0,0,0-.0353-.6633l-.0016-.014-11.2847-102.63v-3.3042h-4l-3.95.632,10.4761,65.4707a11.9564,11.9564,0,0,0,4.0073,7.1842,11.8051,11.8051,0,0,0,7.7072,2.8634v-8a3.797,3.797,0,0,1-2.49-.9283,3.9492,3.9492,0,0,1-1.325-2.3834L198.584,132.5115a4,4,0,0,0-7.95.6321v3.5234a3.4888,3.4888,0,0,0,.0239.4371l11.3086,102.8477-.0016-.014,1.72-.1831h-1.73l.0094.183,1.72-.1831h.1049l-1.3746-1.215a1.836,1.836,0,0,0-.46,1.215H203.79l-1.3746-1.215,1.4065,1.243-.2-1.8646a1.8911,1.8911,0,0,0-1.2065.6216l1.4065,1.243-.2-1.8646-11.3271,1.2148a6.1455,6.1455,0,0,0-5.4767,5.9l-1.5483,43.44a7.8274,7.8274,0,0,1-2.36,5.3533,7.5977,7.5977,0,0,1-10.5614.0773,7.8251,7.8251,0,0,1-2.43-5.2032l-3.0415-47.29a3.9963,3.9963,0,0,0-3.9917-3.7432h-5.7725a3.9962,3.9962,0,0,0-3.9918,3.7432L150.08,288.7a7.8251,7.8251,0,0,1-2.43,5.203,7.5977,7.5977,0,0,1-10.5614-.0773,7.8273,7.8273,0,0,1-2.36-5.353l-1.5483-43.4407a6.1454,6.1454,0,0,0-5.4763-5.899l-11.3275-1.215-.1992,1.8632,1.405-1.2422a1.8888,1.8888,0,0,0-1.2046-.6208l-.2,1.863,1.405-1.2422-1.3751,1.2156h1.8352a1.8367,1.8367,0,0,0-.46-1.2156l-1.3751,1.2156h.0232l1.8013.1989.0107-.1989h-1.812l1.8013.1989,11.3088-102.8495a3.5121,3.5121,0,0,0,.0239-.4371v-3.5234a4,4,0,0,0-7.95-.6321L110.94,197.9822a3.9492,3.9492,0,0,1-1.325,2.3834,3.7969,3.7969,0,0,1-2.49.9283h-2.3179a10.6554,10.6554,0,0,1-7.657-3.218A10.9638,10.9638,0,0,1,94,190.3835a11.3175,11.3175,0,0,1,.108-1.5531c1.7109-12.3461,4.1609-29.4027,6.5731-44.06,1.2054-7.3259,2.4031-14.0565,3.4835-19.2578.5392-2.598,1.0509-4.8165,1.5046-6.4962.2261-.8383.4384-1.5421.6194-2.0675a7.2632,7.2632,0,0,1,.3638-.9139l-.0022.004q.117-.2144.2339-.4258A24.9242,24.9242,0,0,1,128.71,102.75H191.29a24.9242,24.9242,0,0,1,21.8263,12.8629q.1174.2122.2343.4264l-.0022-.004a7.2724,7.2724,0,0,1,.3638.9139c.3422.99.7805,2.5841,1.2457,4.5684.82,3.483,1.7477,8.2,2.7107,13.5939,2.8934,16.1979,6.12,38.5306,8.2242,53.719A11.3442,11.3442,0,0,1,226,190.3837a10.9647,10.9647,0,0,1-3.1505,7.6924,10.6558,10.6558,0,0,1-7.6567,3.2179H212.875Z"/></svg>