<svg xmlns="http://www.w3.org/2000/svg" viewBox="0 0 320 320"><defs><style>.a{fill:#1a1a1a;}</style></defs><title>flat-undo-filled</title><path  d="M268.9419,185.53h0a75.4245,75.4245,0,0,0-17.6479-23.0264,81.8532,81.8532,0,0,0-17.3086-11.6353,110.9327,110.9327,0,0,0-29.7544-9.7339,174.6111,174.6111,0,0,0-31.9131-2.7324,278.4252,278.4252,0,0,0-42.1631,3.4922,412.9865,412.9865,0,0,0-50.5762,11.3071l9.3633-18.7275A10,10,0,0,0,71.0537,125.53l-20,40c-.1372.2734-.2559.5522-.3657.834-.0381.0967-.0713.1938-.106.2915q-.0989.2769-.18.5576c-.0337.1157-.0679.231-.0972.3472-.0469.1851-.085.3721-.1206.5591-.0391.2021-.07.4048-.0967.6079-.02.1577-.0405.3149-.0532.4731-.0122.1538-.0176.3071-.0229.46q-.0066.1985-.0059.396c.001.1548.0034.3086.0112.4624.0073.1411.0215.2817.0352.4224.019.2026.0425.4033.0742.6035.03.1948.063.3892.105.5815.0269.1235.06.2446.0918.3672.0415.1616.0859.3223.1353.4824.0366.1167.0742.2329.1152.3481.061.1748.1294.3472.2007.5186.0391.0942.0752.19.1172.2832q.1707.3779.373.7432l.146.2417c.0986.1665.2007.3315.31.4932.07.1035.1436.2041.2173.3052.0986.1348.2012.2666.3066.397.083.1021.166.2041.2529.3032l.0693.083c.1.1108.2056.2129.3091.3184.0938.0952.186.1914.2842.2832q.2776.26.5708.4961c.0889.0713.1821.1382.2739.207.1548.1157.3115.2275.4722.3335.0933.062.1865.123.2822.1821q.3127.1919.6382.36l.1294.0728,40,20a10,10,0,0,0,8.9443-17.8882L86.4341,172.04c3.7168-1.06,7.79-2.166,12.1553-3.27,10.3408-2.6162,22.3027-5.2178,34.9194-7.1562a258.1333,258.1333,0,0,1,38.8091-3.2114,159.3257,159.3257,0,0,1,25.2476,1.8721c12.08,1.9438,23.0371,5.5239,32.0713,11.0405a57.8894,57.8894,0,0,1,12.1621,9.8086,55.8519,55.8519,0,0,1,9.2549,13.3506,10,10,0,1,0,17.8882-8.9438Z"/><path  d="M268.9419,185.53l1.7894-.8934a77.4286,77.4286,0,0,0-18.1151-23.6335,83.8513,83.8513,0,0,0-17.7286-11.92,112.9216,112.9216,0,0,0-30.2892-9.9149,176.5988,176.5988,0,0,0-32.28-2.7665,280.4084,280.4084,0,0,0-42.4687,3.5157A414.9683,414.9683,0,0,0,79.0241,151.28l.5545,1.9216,1.7888.8944,9.3633-18.7275A12,12,0,1,0,69.2648,124.636l-20,40,.0013-.0026c-.1743.3475-.3168.6847-.4415,1.0044l-.0064.0163.0089-.0228c-.06.1533-.1.2728-.13.3555l.0012-.0036q-.1195.3346-.2176.6736l.0007-.0023c-.0317.1093-.0732.2475-.1162.4173l.0005-.0022c-.0623.246-.1076.4722-.1465.6757l-.0045.0237.0055-.0286c-.0486.2515-.0859.4951-.1164.73l-.0007.0056c-.0192.1531-.0446.3409-.0627.565-.0169.214-.0226.3972-.0281.55v.0034q-.007.2112-.0071.423l0,.0673,0-.0151c.0011.1674.0037.351.0138.5512v.0022c.0109.2057.0288.3762.0418.5122l-.0006-.0064c.0219.2323.05.4756.09.73l-.001-.0061c.033.2114.0717.4458.1273.701.0419.1913.083.3378.11.4421l-.001-.0039c.0477.1855.1.3768.161.5735l.0049.0162-.0018-.006c.04.1279.0853.2683.1393.42l-.004-.0114c.0794.2273.1625.4355.2422.6274l-.0009-.0023c.0233.0546.0657.17.1411.3385l.0009.002q.2032.45.448.8923l.0178.032.1641.2715-.0088-.0147c.1116.1883.2338.3867.3716.5913l.0042.0063c.0948.1394.1816.2581.256.36l.0113.0155-.0095-.013c.1216.1662.2442.3235.3657.4737l.0034.0041c.0831.102.1814.2236.3007.36l1.5038-1.3186-1.535,1.2821.0693.083.0237.0284.0236.0262c.1637.1811.2926.3033.3693.3824l.0022.0023c.0818.0826.1929.2.3431.3406q.33.3091.6829.5934l.0026.0021c.1455.1161.2565.1948.3254.2469l.0024.0018c.1785.1335.3672.2684.5686.4012l-.0062-.0041c.1013.0673.2136.1411.339.2185l.0046.0029q.3752.23.7642.4315l.92-1.7758-.98,1.7433.1294.0728.0427.024,40.043,20.0215a12,12,0,1,0,10.7332-21.4659l-18.0361-9.0181-.8944,1.7889.5483,1.9234c3.6993-1.0546,7.7529-2.1558,12.0973-3.2545,10.291-2.6037,22.1939-5.192,34.7328-7.1184a256.2163,256.2163,0,0,1,38.4755-3.1883h.0518a157.3093,157.3093,0,0,1,24.907,1.8466c11.8893,1.9118,22.6014,5.43,31.3476,10.773a55.8883,55.8883,0,0,1,11.7463,9.4705,53.8432,53.8432,0,0,1,8.9245,12.8768,12,12,0,1,0,21.4655-10.7335l-1.7888.8945-1.7888.8945a7.9553,7.9553,0,0,1,.8468,3.57,8.0464,8.0464,0,0,1-1.162,4.1588,8.015,8.015,0,0,1-6.8325,3.851,8.046,8.046,0,0,1-4.1588-1.162,7.95,7.95,0,0,1-3.004-3.2625,57.8605,57.8605,0,0,0-9.585-13.8244,59.8926,59.8926,0,0,0-12.5793-10.1478c-9.3215-5.69-20.5244-9.3318-32.7951-11.3078a161.2761,161.2761,0,0,0-25.5434-1.8975h-.03l.0084,2,.0121-2h-.0419a260.1535,260.1535,0,0,0-39.0833,3.2347c-12.6942,1.9505-24.7151,4.5653-35.106,7.1941-4.3868,1.1093-8.4788,2.221-12.213,3.2856l-.3461,3.7122,18.0361,9.0181a7.95,7.95,0,0,1,3.2621,3.004A8.0469,8.0469,0,0,1,108,190.01a8.0144,8.0144,0,0,1-3.8511,6.8325,8.0457,8.0457,0,0,1-4.1587,1.1621,7.956,7.956,0,0,1-3.57-.8468L56.4638,177.1792l-.0872-.049-.03-.0166-.0307-.0159q-.2617-.1355-.5121-.2892l.0046.0029-.2255-.1458-.0062-.0041c-.12-.0791-.2448-.1678-.3757-.2658l.0024.0018c-.1147-.0855-.19-.1407-.2224-.1671l-.0139-.0111.0165.0132q-.2337-.1882-.4577-.3978c-.0471-.0436-.1205-.1189-.2263-.2267l.0022.0023c-.13-.1318-.2133-.2137-.2488-.2543l-1.4875,1.3369,1.5349-1.2822-.0693-.083-.0155-.0186L54,175.2913c-.0545-.062-.1222-.1445-.2051-.2466l.0034.0041c-.0895-.1106-.172-.217-.2476-.32l.0018.0025c-.0731-.1-.1328-.1826-.1786-.25l.0042.0063c-.08-.1186-.1618-.25-.2475-.395l-.0037-.0062-.1511-.25L51.2642,174.87l1.7478-.9722q-.16-.2882-.2981-.5941l.0009.002c-.0086-.0176-.0385-.094-.0933-.2279l-.0009-.0023c-.0629-.1509-.1165-.2874-.1591-.41l-.004-.0114c-.0281-.0788-.0581-.1708-.0912-.2763l.0032.01c-.038-.1236-.0742-.2535-.1095-.3913l-.001-.0039c-.0368-.1408-.0621-.2365-.0735-.2906-.0287-.1313-.0555-.2856-.0831-.4638l-.001-.0061c-.0232-.1464-.0421-.3045-.0583-.4775l-.0006-.0064c-.0143-.1452-.0247-.256-.0285-.3325v.0022c-.0055-.1074-.0078-.2314-.0087-.3736v-.0151l-.4418.0061.4418,0v-.0056l-.4418.0061.4418,0v-.0175c0-.096.0016-.1924.0049-.29v.0034c.0052-.1534.01-.2769.0179-.3723.0071-.0905.0228-.2172.0436-.38l-.0007.0056c.0222-.1715.0474-.3332.077-.4859l.001-.005c.0324-.1705.0632-.3184.0947-.4425l.0132-.0524-.0127.05c.0156-.0626.0424-.1549.0781-.277l.0007-.0023q.0645-.2223.1428-.4417l.0012-.0036c.04-.1127.066-.1875.082-.2275l.0025-.0064c.095-.2438.19-.4643.29-.6636l20.0013-40.0026a7.95,7.95,0,0,1,3.004-3.2627A8.0458,8.0458,0,0,1,80.0054,122a8.0155,8.0155,0,0,1,6.8324,3.851A8.0459,8.0459,0,0,1,88,130.01a7.9562,7.9562,0,0,1-.8468,3.57L77.79,152.3073l2.3433,2.816a411.0069,411.0069,0,0,1,50.3275-11.2523,276.4422,276.4422,0,0,1,41.8575-3.4687,172.6242,172.6242,0,0,1,31.5461,2.6985,108.9431,108.9431,0,0,1,29.2191,9.5528,79.8525,79.8525,0,0,1,16.8873,11.35,73.4219,73.4219,0,0,1,17.1819,22.42Z"/></svg>