<svg xmlns="http://www.w3.org/2000/svg" viewBox="0 0 320 320">
  <defs>
    <style>
      .cls-1 {
        fill: #1a1a1a;
      }
    </style>
  </defs>
  <title>flat-picture</title>
  <g id="Layer_16" data-name="Layer 16">
    <path class="cls-1" d="M95.6436,170.23,92.4143,167.87,89.9,171.3091l3.2292,2.3608,3.3191,2.2322c.2917-.4342,1.1345-1.6566,2.3477-3.2094L95.6436,170.23,92.4143,167.87l3.2292,2.3608-3.1523-2.4624c-1.3591,1.74-2.3,3.1018-2.6816,3.67a4,4,0,0,0,6.5483,4.593l2.5146-3.4395a4,4,0,0,0-6.3813-4.8231ZM76.7012,60H75.1931l-2.4919-.0192V60h2.4919l-2.4919-.0192,0,.028a33.8926,33.8926,0,0,1-2.01,9.51A52.9315,52.9315,0,0,1,58.27,89.14a50.7483,50.7483,0,0,1-19.8342,12.9775,35.8309,35.8309,0,0,1-6.34,1.5735c-.7432.1089-1.31.1608-1.6694.1853-.18.0123-.3076.0178-.38.02l-.0662.0018h-.001l.021,2.606v-2.606h-.021l.021,2.606v-2.606a4,4,0,0,0-4,4V260a4,4,0,0,0,4,4H290a4,4,0,0,0,4-4V60a4,4,0,0,0-4-4H76.7012a4,4,0,0,0-4,4h4v4H286V256H34V107.8984H30v4a36.906,36.906,0,0,0,11.0234-2.2107A58.7674,58.7674,0,0,0,63.9978,94.725a60.613,60.613,0,0,0,14.5615-23.51A39.3427,39.3427,0,0,0,80.7009,60h-4v0Zm36.58,97.9375-.2922,3.9893a16.0179,16.0179,0,0,1,8.16,2.6769,10.6666,10.6666,0,0,1,1.6836,1.437c.1646.1759.2727.308.3267.3768l.0408.0533,1.53-1.1078-1.5684,1.0514.0386.0564,1.53-1.1078-1.5684,1.0514,3.3228-2.2269-3.467,1.9949a68.2732,68.2732,0,0,0,6.7329,9.3911,40.1589,40.1589,0,0,0,7.176,6.7042,21.3872,21.3872,0,0,0,4.4626,2.439,14.2616,14.2616,0,0,0,5.1824,1.0273,12.1225,12.1225,0,0,0,4.3687-.8092,21.1724,21.1724,0,0,0,9.6492-6.8859,15.3356,15.3356,0,0,0,2.94-6.9456,4.009,4.009,0,0,0-.7673-2.9917l-33.1641-43.8574a4,4,0,0,0-6.458.1052L92.376,167.923a4,4,0,0,0,6.4192,4.7705,49.0209,49.0209,0,0,1,6.9011-7.3129,20.0294,20.0294,0,0,1,3.8936-2.6085,7.2828,7.2828,0,0,1,3.1084-.8561c.1025,0,.1956.0035.2822.01l.0085.0006.2922-3.9893.3005-3.9888c-.302-.0227-.5972-.0327-.8835-.0326a15.149,15.149,0,0,0-6.6128,1.6643,31.9162,31.9162,0,0,0-7.9,5.8016,62.5029,62.5029,0,0,0-5.6941,6.3853l3.1519,2.4631,3.2673,2.3074,27.6064-39.0929,29.8633,39.4921,3.1907-2.4126-3.958-.5791a7.3278,7.3278,0,0,1-1.4312,3.313,13.2078,13.2078,0,0,1-6.1128,4.2092,4.0964,4.0964,0,0,1-1.498.2766,6.3042,6.3042,0,0,1-2.2776-.4814,17.3414,17.3414,0,0,1-4.9795-3.2977,48.0475,48.0475,0,0,1-6.6731-7.6721c-.8542-1.1959-1.5391-2.2417-2.0037-2.9779-.2324-.368-.41-.6588-.5261-.8525-.0581-.0968-.1011-.1693-.1279-.2151l-.0283-.0483-.0051-.0087-.99.5721.9907-.57-.0012-.0022-.99.5721.9907-.57-.1443-.2321a16.1459,16.1459,0,0,0-4.0811-3.9185,24.0417,24.0417,0,0,0-12.1526-4.0939l.0085.0006Zm36.2236,23.2637-1.436-3.7334a4.0939,4.0939,0,0,1-1.4978.2762,6.3042,6.3042,0,0,1-2.2776-.4814,17.3414,17.3414,0,0,1-4.9795-3.2977,48.04,48.04,0,0,1-6.6729-7.6721c-.8542-1.1958-1.5391-2.2416-2.0037-2.9777-.2324-.3682-.41-.6589-.5261-.8525-.0581-.0969-.1011-.1694-.1279-.2152l-.0283-.0483-.0051-.0085-.9619.5562.9634-.5541-.0015-.0021-.9619.5562.9634-.5541-.1445-.2321a16.1459,16.1459,0,0,0-4.0811-3.9185,24.0417,24.0417,0,0,0-12.1526-4.0939c-.2908-.0215-.5835-.0321-.875-.032a15.1506,15.1506,0,0,0-6.6128,1.6642,31.9193,31.9193,0,0,0-7.9,5.8016,62.4316,62.4316,0,0,0-5.6941,6.3855l-.0774.1022L89.9,171.3091l-.0889.1267c-.11.1631-.1794.2693-.1863.28a4,4,0,1,0,6.6882,4.3893l.0059-.0087c.0161-.0245.0625-.0947.1282-.1921A4,4,0,0,0,89.9,171.3088l-63.1289,86.33A4,4,0,0,0,30,264h96.4072a4.0022,4.0022,0,0,0,3.2195-1.6263l50.375-68.333a4.0013,4.0013,0,0,0-.1174-4.8988l-17.2109-21.1426a4,4,0,0,0-7.06,1.9462,7.3278,7.3278,0,0,1-1.4312,3.313,13.2078,13.2078,0,0,1-6.1128,4.2092l1.4355,3.7336,1.4353,3.7335a21.1719,21.1719,0,0,0,9.6489-6.8857,15.3356,15.3356,0,0,0,2.94-6.9456l-3.9578-.579L156.469,173.05l15.2539,18.7386L124.3862,256H37.88l58.4775-79.969-3.2288-2.361-3.3181-2.2341c-.11.1631-.1794.2693-.1863.28a4,4,0,1,0,6.6882,4.3893l.0059-.0087c.0161-.0245.0625-.0947.1282-.1921l-3.3179-2.234,3.229,2.3607,2.5146-3.4395-3.229-2.3607,3.1516,2.4629a49.0121,49.0121,0,0,1,6.9009-7.3127,20.0306,20.0306,0,0,1,3.8938-2.6085,7.2828,7.2828,0,0,1,3.1084-.8561c.0979,0,.1938.0037.2891.0106a16.02,16.02,0,0,1,8.1619,2.677,10.6666,10.6666,0,0,1,1.6836,1.437c.1646.1759.2727.308.3267.3768l.0408.0533,1.53-1.1078-1.5684,1.0514.0386.0564,1.53-1.1078-1.5684,1.0514,3.3228-2.2269-3.4673,1.9949a68.2828,68.2828,0,0,0,6.7332,9.391,40.1572,40.1572,0,0,0,7.1758,6.7042,21.3872,21.3872,0,0,0,4.4626,2.439,14.2616,14.2616,0,0,0,5.1824,1.0273,12.118,12.118,0,0,0,4.37-.8094Zm80.5732-5.5264,1.1687,3.8253a130.6,130.6,0,0,0,18.8816-7.6228c5.3862-2.641,9.5615-5.0525,11.5635-6.2482a4,4,0,0,0,.8125-6.2263l-34.6406-35.5283a4,4,0,0,0-6.0928.4314l-28.8672,39.4766a4.0039,4.0039,0,0,0,.7993,5.5386A65.0881,65.0881,0,0,0,203.77,175.516a54.7315,54.7315,0,0,0,8.92,3.5439,37.4306,37.4306,0,0,0,10.4814,1.6071,27.57,27.57,0,0,0,8.075-1.1665l-1.1677-3.8257-1.168-3.8258a19.5732,19.5732,0,0,1-5.7393.8181,29.4991,29.4991,0,0,1-8.2314-1.2843,50.4136,50.4136,0,0,1-10.8066-4.7512,54.46,54.46,0,0,1-5.5706-3.6656l-2.4294,3.1776,3.2288,2.361,26.0757-35.6593,31.3394,32.1425,2.864-2.7924-2.0515-3.434c-1.8594,1.111-5.8569,3.42-10.9824,5.9327a122.7674,122.7674,0,0,1-17.6975,7.1553Zm29.5625-13.4795-2.0515-3.434c-1.8594,1.111-5.8569,3.42-10.9824,5.9327a122.7674,122.7674,0,0,1-17.6975,7.1553,19.5654,19.5654,0,0,1-5.738.8177,29.5008,29.5008,0,0,1-8.2317-1.2843,50.4159,50.4159,0,0,1-10.8069-4.7513,54.4961,54.4961,0,0,1-5.57-3.6655,4,4,0,0,0-5.6584.8164L124.271,257.6388A4,4,0,0,0,127.5,264H290a4,4,0,0,0,4-4V193.333a4.02,4.02,0,0,0-1.136-2.7925l-30.3594-31.1377a4.0057,4.0057,0,0,0-4.9153-.6415l2.0515,3.434-2.864,2.7924L286,194.96V256H135.38l63.9812-87.4952-3.2288-2.3611-2.43,3.1775a65.101,65.101,0,0,0,10.0664,6.1948,54.74,54.74,0,0,0,8.92,3.5439,37.43,37.43,0,0,0,10.4819,1.6072,27.55,27.55,0,0,0,8.0754-1.1667,130.6054,130.6054,0,0,0,18.8818-7.6229c5.3862-2.641,9.5615-5.0525,11.5635-6.2482l-2.0513-3.4338-2.864,2.7924Z"/>
  </g>
</svg>
