<svg xmlns="http://www.w3.org/2000/svg" viewBox="0 0 320 320">
  <defs>
    <style>
      .cls-1 {
        fill: #1a1a1a;
      }
    </style>
  </defs>
  <title>flat-arrow-down-filled</title>
  <g id="Layer_16" data-name="Layer 16">
    <g>
      <path class="cls-1" d="M73.8789,169.1973l77.0352,77.0176S153.92,250,160.2188,250a12.7066,12.7066,0,0,0,8.8965-3.94L246.15,169.041a12.9188,12.9188,0,1,0-18.2861-18.2529l-54.85,54.8516.0107-122.6484a13.2391,13.2391,0,0,0-26.4736.0078l.002,122.6611L91.98,150.8291a12.8317,12.8317,0,0,0-18.2432-.0059A12.989,12.989,0,0,0,73.8789,169.1973Z"/>
      <path class="cls-1" d="M73.8789,169.1973l-1.4141,1.4143L149.5,247.6292l1.4141-1.4143-1.5664,1.2437a11.2707,11.2707,0,0,0,2.8088,2.3525A15.2242,15.2242,0,0,0,160.2188,252a14.0629,14.0629,0,0,0,7.5735-2.2849,13.9049,13.9049,0,0,0,2.8306-2.3413l-1.5076-1.314,1.4138,1.4143,77.0352-77.0186A15.03,15.03,0,0,0,252,159.8108,14.8918,14.8918,0,0,0,237.09,144.9595,15.0144,15.0144,0,0,0,226.45,149.374l-51.4353,51.4368.0107-117.82a14.8122,14.8122,0,0,0-4.5291-10.62,15.2923,15.2923,0,0,0-21.4141.0044,14.8213,14.8213,0,0,0-4.53,10.623l.0015,117.8162-51.1553-51.397-.0037-.0037A14.856,14.856,0,0,0,68,159.8706a15.1785,15.1785,0,0,0,4.4648,10.7407l1.4143-1.4141,1.4141-1.4143A11.1768,11.1768,0,0,1,72,159.8706a10.7225,10.7225,0,0,1,3.1516-7.6331,10.8308,10.8308,0,0,1,15.4153.0059l-.0037-.0037,54.5732,54.8311,3.4177-1.4109-.002-122.6611a10.8175,10.8175,0,0,1,3.323-7.7593,11.2916,11.2916,0,0,1,15.8291-.0034,10.8065,10.8065,0,0,1,3.3215,7.7551l-.0107,122.6482,3.4141,1.4143,54.85-54.8516a11.0121,11.0121,0,0,1,7.812-3.2429,10.88,10.88,0,0,1,7.73,3.2009,10.757,10.757,0,0,1,3.18,7.6506,11.0271,11.0271,0,0,1-3.2637,7.8159l-77.0854,77.0686-.0432.05.5928.5166-.5862-.5242-.0066.0076.5928.5166-.5862-.5242a10.4429,10.4429,0,0,1-2.1011,1.6853A10.03,10.03,0,0,1,160.2188,248a11.2085,11.2085,0,0,1-5.9668-1.5964,8.91,8.91,0,0,1-1.4053-1.06c-.1482-.1382-.2532-.248-.3142-.3152l-.0591-.0664-.0049-.0059-.89.73.9019-.7161-.0117-.0144-.89.73.9019-.7161-.0713-.09L75.2927,167.7827Z"/>
    </g>
  </g>
</svg>
