<svg xmlns="http://www.w3.org/2000/svg" viewBox="0 0 320 320">
  <defs>
    <style>
      .cls-1 {
        fill: #1a1a1a;
      }
    </style>
  </defs>
  <title>flat-arrow-right-filled</title>
  <g id="Layer_16" data-name="Layer 16">
    <g>
      <path class="cls-1" d="M169.1973,246.1211l77.0176-77.0352S250,166.08,250,159.7813a12.7066,12.7066,0,0,0-3.94-8.8965L169.041,73.85a12.9188,12.9188,0,1,0-18.2529,18.2861l54.8516,54.85-122.6484-.01a13.2386,13.2386,0,0,0,.0078,26.4727l122.6611-.002L150.8291,228.02a12.8317,12.8317,0,0,0-.0059,18.2432A12.989,12.989,0,0,0,169.1973,246.1211Z"/>
      <path class="cls-1" d="M169.1973,246.1211l1.4143,1.4138L247.6292,170.5l-1.4143-1.4138,1.2437,1.5662a11.2707,11.2707,0,0,0,2.3525-2.8088A15.2239,15.2239,0,0,0,252,159.7813a14.0631,14.0631,0,0,0-2.2849-7.5737,13.9049,13.9049,0,0,0-2.3413-2.8306l-1.314,1.5078,1.4143-1.4141L170.4553,72.4355A15.0292,15.0292,0,0,0,159.8108,68a14.8927,14.8927,0,0,0-14.8513,14.9094A15.0194,15.0194,0,0,0,149.3735,93.55l51.437,51.4351-117.8193-.0093a14.81,14.81,0,0,0-10.6194,4.5291,15.2908,15.2908,0,0,0,.0042,21.4131,14.8213,14.8213,0,0,0,10.623,4.53l117.8159-.0017-51.3967,51.1555-.0037.0037a14.8554,14.8554,0,0,0,10.4561,25.3938,15.1826,15.1826,0,0,0,10.74-4.4639l-1.4138-1.4143-1.4141-1.4146A11.1814,11.1814,0,0,1,159.8706,248a10.7222,10.7222,0,0,1-7.6331-3.1511,10.8305,10.8305,0,0,1,.0059-15.415l-.0037.0037,54.8311-54.5732L205.66,171.446l-122.6611.002a10.8175,10.8175,0,0,1-7.7593-3.323,11.291,11.291,0,0,1-.0037-15.8284,10.8082,10.8082,0,0,1,7.7554-3.3213l122.6482.01,1.4143-3.4141-54.8516-54.85a11.0157,11.0157,0,0,1-3.2429-7.8125A10.8785,10.8785,0,0,1,152.16,75.18a10.7537,10.7537,0,0,1,7.6506-3.18,11.0263,11.0263,0,0,1,7.8157,3.2644l77.0674,77.0837.0515.0449.5229-.6-.5305.5938.0076.0066.5229-.6-.5305.5938a10.4429,10.4429,0,0,1,1.6853,2.1011A10.03,10.03,0,0,1,248,159.7813a11.2082,11.2082,0,0,1-1.5964,5.9666,8.8949,8.8949,0,0,1-1.06,1.4053c-.1382.1482-.248.2532-.3152.3142l-.0664.0591-.0059.0049.7271.8855-.7126-.8972-.0144.0117.7271.8855-.7126-.8972-.0906.0715-77.0977,77.116Z"/>
    </g>
  </g>
</svg>
