<svg xmlns="http://www.w3.org/2000/svg" viewBox="0 0 320 320"><defs><style>.a{fill:#1a1a1a;}</style></defs><title>flat-leaves-filled</title><path  d="M50,197.3936s39.1768,10.4531,75.1367,5.35a78.3034,78.3034,0,0,0,35.6816-14.9463,73.8685,73.8685,0,0,0,9.1147,36.749C187.293,255.6787,219.3511,280,219.3511,280s10.2988-25.9082,2.3481-54.8574-43.1157-71.9883-43.1157-71.9883l-.085.0508c-1.9751-.0537-56.86-1.458-84.8735,9.4814C65.0967,173.8271,50,197.3936,50,197.3936Z"/><path  d="M206,40s-23.855,18.9248-36.6294,44.1943a64.8254,64.8254,0,0,0-6.543,30.3838A60.4325,60.4325,0,0,0,135.98,100.54c-27.0176-5.8545-56.3237,1.1582-56.3237,1.1582s11.5137,20.374,33.0044,30.95,63.792,11.6748,63.792,11.6748l.0063-.08c.9092-1.208,26.1118-34.8369,31.7417-58.2637C213.9341,62.1211,206,40,206,40Z"/><path  d="M252.2417,209.2158S249.499,185.8916,237.793,167.02A52.577,52.577,0,0,0,220,150a47.2747,47.2747,0,0,0,20.8154-11.3516c15.3516-14.9111,22.9648-36.72,22.9648-36.72s-18.5522-1.293-34.7666,8.0723-34.71,36.0029-34.71,36.0029l.0518.0381c.8164.5938,12.47,31.5947,25.9424,45.0938C234.0176,204.8828,252.2417,209.2158,252.2417,209.2158Z"/><path  d="M50,197.3936l-.5156,1.9324a237.1186,237.1186,0,0,0,54.4333,6.8206,153.8,153.8,0,0,0,21.5-1.4233,80.3055,80.3055,0,0,0,36.5917-15.32l-1.1909-1.6067-2-.0146q-.002.2831-.0021.5691a75.7428,75.7428,0,0,0,9.37,37.1685c8.8293,15.8264,21.2987,29.7991,31.5665,39.8569a215.4828,215.4828,0,0,0,18.3894,16.2166l2.0957,1.59.9717-2.4443a96.6428,96.6428,0,0,0,5.5024-32.6111,88.7812,88.7812,0,0,0-3.0844-23.5149c-2.0559-7.4741-5.8051-15.6973-10.2634-23.8877-13.3739-24.5442-33.1946-48.7844-33.2321-48.8364l-1.0927-1.3372-1.5671.9368,1.0261,1.7168.0549-1.9993c-.4407-.0122-3.3406-.0872-7.9021-.0872-8.3062,0-22.1187.2463-36.6528,1.5732-7.2678.6641-14.7163,1.5979-21.7583,2.9124a109.3954,109.3954,0,0,0-19.3429,5.2192,98.6558,98.6558,0,0,0-33.1918,21.9746,88.6543,88.6543,0,0,0-11.39,13.5166L46.839,198.62l2.6454.7061L50,197.3936l1.6841,1.0786.0055-.0085a86.1706,86.1706,0,0,1,11.1736-13.1624,94.5394,94.5394,0,0,1,31.4893-20.752,105.5563,105.5563,0,0,1,18.6219-5.0129c20.6434-3.8582,45.3446-4.4209,57.677-4.418,4.5179,0,7.3815.0745,7.7921.0857l.5815.0159.5845-.3491-1.026-1.7166-1.5488,1.2654.0967.1189c1.0114,1.2461,9.81,12.165,19.29,26.23,4.74,7.0315,9.65,14.85,13.8379,22.6216,4.1891,7.7683,7.6517,15.5,9.5116,22.2815a84.7993,84.7993,0,0,1,2.9415,22.4556,98.2666,98.2666,0,0,1-2.627,22.37c-.6562,2.7761-1.3114,4.9851-1.7992,6.491-.2439.7529-.4458,1.33-.5851,1.7144-.07.1921-.1235.3362-.1592.43l-.0393.1025-.01.0254,1.8586.739,1.2087-1.5935-.0835-.0637A216.7893,216.7893,0,0,1,201.5983,261.58c-9.91-9.8083-21.6544-23.1807-29.9185-38.0085a71.7433,71.7433,0,0,1-8.8636-35.22q0-.27.0021-.54l-3.1909-1.6213a76.302,76.302,0,0,1-34.7717,14.573,149.862,149.862,0,0,1-20.9379,1.3838,226.9178,226.9178,0,0,1-37.35-3.3481c-4.9126-.8376-8.937-1.6748-11.7275-2.3013-1.3953-.3135-2.4819-.574-3.217-.7554-.3677-.0908-.6472-.1619-.8336-.21-.0931-.0239-.163-.042-.2089-.0542l-.0648-.0171L50,197.3936l1.6841,1.0786Z"/><path  d="M206,40l-1.243-1.5669a152.381,152.381,0,0,0-13.7253,12.8042c-7.6462,7.9833-16.9208,19.1547-23.4459,32.0547a66.3277,66.3277,0,0,0-6.7684,30.0255q0,.6515.0106,1.2939l2-.0333,1.3184-1.5039a62.4221,62.4221,0,0,0-27.7429-14.4889,114.6809,114.6809,0,0,0-24.0817-2.3778,158.0853,158.0853,0,0,0-33.1312,3.5455l-2.5815.6178,1.3059,2.3113a80.7216,80.7216,0,0,0,8.6735,11.8356,82.0243,82.0243,0,0,0,25.189,19.9252,90.8724,90.8724,0,0,0,19.4733,6.4412,234.6742,234.6742,0,0,0,30.51,4.5259c8.6251.7559,14.61.9116,14.64.9126l1.8959.0491.1561-1.97-1.9937-.158,1.5979,1.2026c.4779-.6355,7.035-9.3833,14.2026-20.949,3.5841-5.7841,7.3212-12.2725,10.53-18.82a96.8367,96.8367,0,0,0,7.3556-19.23A80.2264,80.2264,0,0,0,212.281,67.73a92.4461,92.4461,0,0,0-4.3979-28.4048L206.9417,36.7l-2.1842,1.733L206,40l-1.8827.675.0078.0222A89.0246,89.0246,0,0,1,208.2811,67.73a76.2359,76.2359,0,0,1-2.0251,17.7825,93.0339,93.0339,0,0,1-7.0582,18.4042c-9.3872,19.1675-23.6914,38.2727-24.3368,39.124l-.35.4644-.0524.66,1.9938.1582.0519-2s-.1552-.0039-.4647-.0144c-2.3215-.0781-13.061-.5129-25.6821-2.1562a194.7026,194.7026,0,0,1-19.5076-3.4687,84.2586,84.2586,0,0,1-17.3065-5.8306A78.0711,78.0711,0,0,1,89.61,111.8967a87.79,87.79,0,0,1-6.1669-7.9767c-.6892-1.0106-1.2067-1.8226-1.5488-2.3766-.171-.2771-.2983-.49-.3813-.63l-.0912-.1561-.0206-.036-.004-.0068-1.7411.984.4655,1.9451.0337-.0081a154.8326,154.8326,0,0,1,32.1665-3.4279,110.7321,110.7321,0,0,1,23.2345,2.2872A58.4422,58.4422,0,0,1,161.51,116.0819l3.3181-1.5372q-.01-.6081-.01-1.2272a62.3477,62.3477,0,0,1,6.3383-28.2209c6.2493-12.37,15.2894-23.2953,22.7643-31.0918,3.7367-3.9,7.08-7.02,9.4833-9.1593,1.2015-1.07,2.1678-1.8945,2.8307-2.4493.3314-.2773.5869-.4872.7579-.6265l.1923-.1555.0591-.0474L206,40l-1.8827.675Z"/><path  d="M252.2417,209.2158l1.9862-.2336a115.288,115.288,0,0,0-2.8864-14.2952c-2.1842-8.3145-5.8418-19.0308-11.849-28.7219a54.5648,54.5648,0,0,0-18.4614-17.679L220,150l.5206,1.9309a49.2608,49.2608,0,0,0,21.6884-11.8481c7.9032-7.6819,13.73-17.0248,17.6183-24.46a108.2472,108.2472,0,0,0,5.8412-13.0352l.8628-2.4722-2.6117-.1821c-.0406-.0028-.955-.0654-2.5336-.0654a75.0543,75.0543,0,0,0-13.87,1.35,62.7658,62.7658,0,0,0-19.5023,7.0509,70.0918,70.0918,0,0,0-12.6412,9.8584,175.9679,175.9679,0,0,0-15.9285,17.7112c-4.1425,5.2219-6.7655,8.999-6.7832,9.0244l-1.11,1.5981,1.6191,1.1917.009.0066,1.04-1.4307-1.416,1.0654a1.6834,1.6834,0,0,0,.3756.3652l1.04-1.4307-1.416,1.0654.7078-.5327-.7577.4612.05.0715.7078-.5327-.7577.4612c.01.012.1343.2461.2839.5657.5853,1.2354,1.7343,3.9143,3.2849,7.3562,2.3317,5.1743,5.5968,12.1277,9.454,18.9773,3.8641,6.8523,8.2958,13.5986,13.1058,18.4265a72.828,72.828,0,0,0,21.717,14.6086,69.9423,69.9423,0,0,0,11.18,4.0044l2.7832.6616-.3344-2.8408-1.9862.2336.4625-1.9458-.0049-.0012a67.2229,67.2229,0,0,1-10.757-3.8933,68.71,68.71,0,0,1-20.2295-13.6526,70.5872,70.5872,0,0,1-9.34-12.3022,197.7593,197.7593,0,0,1-11.1862-21.2461c-1.4307-3.1055-2.6017-5.7781-3.46-7.7168-.43-.9709-.7794-1.7551-1.0548-2.3394-.1388-.2939-.2566-.5349-.3739-.7517-.06-.11-.1179-.2124-.2-.3376a2.6655,2.6655,0,0,0-.1649-.2244,2.1361,2.1361,0,0,0-.4015-.38l.009.0066-.0518-.0381-1.1853,1.6111,1.6427,1.1406.0491-.07c.5254-.751,5.2327-7.4211,11.73-14.9951a149.8236,149.8236,0,0,1,10.772-11.4019,65.2423,65.2423,0,0,1,11.5166-8.9445,58.8,58.8,0,0,1,18.2555-6.5863,71.1016,71.1016,0,0,1,13.1166-1.2786c.7362,0,1.31.0146,1.6948.0291.1924.0071.3375.0142.4319.0193l.1034.006.0248.0016.1394-1.9951-1.8883-.6592-.0179.0505a107.1516,107.1516,0,0,1-5.95,13.13c-3.7533,7.0792-9.2869,15.76-16.5021,22.7631a45.2883,45.2883,0,0,1-19.9426,10.8552l-.51,3.6448a50.5911,50.5911,0,0,1,17.1246,16.36c5.6987,9.1809,9.2655,19.5627,11.3792,27.6284,1.0582,4.033,1.7563,7.4866,2.1884,9.9236.2161,1.2183.3657,2.1826.4607,2.8379.0476.3279.0815.5784.1033.7449l.0238.186.0067.0547,1.9863-.2334.4625-1.9458Z"/></svg>