<svg xmlns="http://www.w3.org/2000/svg" viewBox="0 0 320 320">
  <defs>
    <style>
      .cls-1 {
        fill: #1a1a1a;
      }
    </style>
  </defs>
  <title>flat-lock-outline</title>
  <g id="Layer_16" data-name="Layer 16">
    <g>
      <path class="cls-1" d="M131.5752,185.6h2c.0088-6.0331,1.6462-10.3506,4.0491-13.61a21.225,21.225,0,0,1,6.5146-5.7029,33.2148,33.2148,0,0,1,10.7278-3.7479c1.5378-.2711,2.8428-.4065,3.7522-.4734.4546-.0335.8105-.05,1.0474-.058.1187-.004.2073-.006.2637-.0069l.06-.0008h.0161a36.793,36.793,0,0,1,13.6965,3.1661,22.1972,22.1972,0,0,1,8.7856,6.9773c2.34,3.2415,3.9285,7.5178,3.9365,13.4566-.0007,6.1714-1.0688,10.6707-2.59,13.9606a17.6134,17.6134,0,0,1-3.9922,5.6163,15.3936,15.3936,0,0,1-6.2947,3.5287,14.1474,14.1474,0,0,1-2.16.437c-.2571.03-.4541.0447-.5784.0515l-.13.0056-.0215,0,.01.7546V209.2h-.01l.01.7546V209.2h-2.3447l8,50.1332h-32.645l8-50.1332h-2.344v.8723l.01-.8723h-.01v.8723l.01-.8723a11.8319,11.8319,0,0,1-2.5273-.3967,15.4877,15.4877,0,0,1-3.9319-1.6082,16.2428,16.2428,0,0,1-6.2126-6.6142c-1.7866-3.3651-3.0947-8.1455-3.0962-14.981h-4c-.0007,6.6286,1.1509,11.7294,2.9592,15.6395a21.6191,21.6191,0,0,0,4.9041,6.8712,19.3945,19.3945,0,0,0,7.9275,4.4448,15.7841,15.7841,0,0,0,3.967.6446v-2l-1.9751-.3152-8.37,52.4484H181.011l-8.3691-52.4484-1.9749.3152v2a14.9628,14.9628,0,0,0,3.2417-.4553,19.4758,19.4758,0,0,0,4.959-1.9438,20.18,20.18,0,0,0,7.8909-8.1521c2.2078-4.0655,3.6675-9.5929,3.666-17.0488.0088-6.7671-1.907-12.05-4.8337-15.99a25.2243,25.2243,0,0,0-7.7256-6.7847A37.153,37.153,0,0,0,165.8276,158.6,36.7774,36.7774,0,0,0,160,158a40.5768,40.5768,0,0,0-15.0337,3.3764,26.4133,26.4133,0,0,0-10.5574,8.2337c-2.9268,3.94-4.8425,9.2229-4.8337,15.99Z"/>
      <path class="cls-1" d="M231.0625,134.4h2c-.0007-12.8007.0027-25.655-1.1187-37.7841a117.5753,117.5753,0,0,0-4.9319-25.7525,63.15,63.15,0,0,0-8.04-16.5135A51.05,51.05,0,0,0,196.9507,36.521C187.2966,32.3061,175.1892,30,160,30c-17.9993,0-31.6819,3.2405-42.0608,9.0553A50.3216,50.3216,0,0,0,99.9023,56.0316c-6.5635,10.2261-9.7664,22.647-11.37,36.0708-1.6,13.4289-1.5937,27.8964-1.595,42.2976h2v-2H58.5137V290H261.4861V132.4H231.0625v2h0v2h26.4236V286H62.5134V136.4H90.9373v-2c-.0007-12.7992.0027-25.5449,1.1021-37.4156a113.6578,113.6578,0,0,1,4.749-24.8725,59.16,59.16,0,0,1,7.521-15.4753,47.0186,47.0186,0,0,1,20.3406-16.45C133.6614,36.25,145.21,33.9995,160,34c17.532,0,30.4978,3.1595,40.1052,8.5448a46.2971,46.2971,0,0,1,16.627,15.6488c6.0842,9.4614,9.2051,21.2841,10.7634,34.3823,1.5623,13.093,1.5681,27.4252,1.5669,41.824v2h2Zm-113.6992,0h2c0-12.7992.002-23.9678.6616-33.4614a92.2749,92.2749,0,0,1,2.8333-18.4932A35.9143,35.9143,0,0,1,127.271,72.37a24.7232,24.7232,0,0,1,11.7927-9.5c5.2639-2.1447,12.1082-3.2717,20.9363-3.27,10.4668-.0027,18.13,1.5822,23.7075,4.5645a24.3087,24.3087,0,0,1,9.6274,9.1674c3.5474,5.8719,5.4316,13.9124,6.3613,24.1256.937,10.2071.9414,22.5435.94,36.9423h2v-2H117.3633v2h0v2h87.2732v-2c0-12.8007.002-24.032-.6709-33.7383A96.1137,96.1137,0,0,0,200.99,81.3548a39.8763,39.8763,0,0,0-4.9231-11.1874,28.7657,28.7657,0,0,0-13.624-11.0027C176.5083,56.7531,169.1594,55.602,160,55.6c-10.8516.0027-19.1768,1.6177-25.5911,5.0356a28.3464,28.3464,0,0,0-11.1707,10.6326c-4.041,6.7281-5.9509,15.3375-6.9182,25.8243-.96,10.4929-.9558,22.9061-.9568,37.3074v2h2Z"/>
    </g>
  </g>
</svg>
