<svg xmlns="http://www.w3.org/2000/svg" viewBox="0 0 320 320">
  <defs>
    <style>
      .cls-1 {
        fill: #1a1a1a;
      }
    </style>
  </defs>
  <title>flat-pencil-tip-outline</title>
  <g id="Layer_16" data-name="Layer 16">
    <path class="cls-1" d="M250,123.8047l-1.661-1.1141q-33.07,49.3066-66.143,98.6108l1.6609,1.1141-.9028-1.7847-17.8662,9.0381.9028,1.7847h2v-3.2543l-44.6123,22.562v0L69.0974,278.2152,70,280l1.9945.1478q3.9412-53.1555,7.8823-106.3105l-2.889-1.9368-.001,0,.8944,1.7889,1.9945.1479,1.43-19.2649,65.4772-97.62,37.1716-13.0709-72.061,107.433L84.5018,167.4647l-3.7347,50.38,2.5883-.5261a27.2,27.2,0,0,1,5.4184-.5333c7.5743-.0079,15.5189,2.9884,21.8846,7.8647,6.3755,4.8713,11.1227,11.5774,12.5687,18.79l.5193,2.5747L169.19,223.0323l.1456-1.0343q2.1578-15.3235,4.3087-30.6493l-1.9806-.278,1.661,1.114q37.83-56.4053,75.6645-112.8086l-1.661-1.114-1.9966.1171,2.6719,45.5425L250,123.8047l-1.661-1.1141L250,123.8047l1.9966-.1172L249.3247,78.145l-3.6575-.9969q-37.8325,56.4045-75.6646,112.8086l-.2557.3811-.0639.455q-2.1511,15.3241-4.3085,30.6476l1.98.2789-.9026-1.7848L124.2849,241.26l.9026,1.7848,1.9605-.3955c-1.7027-8.3966-7.0643-15.82-14.0595-21.1763a40.9007,40.9007,0,0,0-24.3148-8.6876,31.1728,31.1728,0,0,0-6.2151.6134l.3984,1.96,1.9945.1478,3.3846-45.6592,26.3723-15.5482L190.6277,41.1141l-2.3244-3.0009L144.2015,53.6208,77.3947,153.2227l-1.5079,20.3192,2.8889,1.9369.001,0-.8944-1.7888-1.9945-.1479q-3.9412,53.1555-7.8823,106.3105l2.8972,1.9326,56.4758-28.5635v0l39.5149-19.984-.9026-1.7847h-2v3.2543l21.2359-10.7426.2913-.4343q33.0725-49.3052,66.1431-98.6108l.375-.5592-.0394-.672ZM132.2773,187.1519l1.223,1.5824L160.2132,168.09l.1807-.2688c24.4913-36.4443,46.9691-74.4482,61.8976-115.7195l-3.4687-1.8961L139.2145,154.1716l-8.8664,32.4531,3.1523,2.1095-1.223-1.5824,1.9293.527,8.66-31.6974,79.132-103.3442-1.5879-1.2159-1.8808-.68c-14.7552,40.8-37.0479,78.5324-61.456,114.8488l1.66,1.1156-1.223-1.5825-26.4565,20.4463,1.223,1.5825,1.9293.527Z"/>
  </g>
</svg>
