<svg xmlns="http://www.w3.org/2000/svg" viewBox="0 0 320 320"><defs><style>.a{fill:#1a1a1a;}</style></defs><title>flat-earth-filled</title><path class="a" d="M259.7349,150.2466c-.1216-.7109-.2734-1.4126-.4385-2.1108q.4343,3.679.6011,7.436A21.1406,21.1406,0,0,0,259.7349,150.2466Z"/><path class="a" d="M259.8975,155.5718c-.4023,4.8408-1.98,9.5513-1.98,13.519-4.918-2.4585-7.752-4.9175-12.6694-7.376-4.29-2.145-7.6265-1.7148-12.52-1.7148-6.0991,0-9.0913-2.15-9.0913,4.2168,0,3.92,1.4663,11.0332-.3115,14.5884q-13.48,26.9612-26.9609,53.9219c-2.44-2.44-7.8208-5.9448-9.0913-9.0908-1.2783-3.1655.9473-7.1963-.6729-10.4375-4.5923-9.1841-7.9463-16.3638-15.1519-23.5688-2.5054-2.5059-12.7974-19.1895-11.269-20.7178l18.0029-18.0029c2.1123,2.1118,6.2979,8.3809,9.0908,9.0908,2.54.6455,8.4512-2.1128,10.9287-2.7319,2.9365-.7344,25.4351-4.6519,25.4351-7.14v-16.62c0-2.4771-7.8.5093-9.27-.96l-18.0029-18.0029c0,4.3687,2.0562,14.4771,0,18.1816-.8228,1.4819-6.1069,3.0532-7.582,3.791q-4.9885,2.4946-9.9761,4.9883c-1.3184.6592-10.062-8.0845-9.4033-9.4028q4.39-8.7788,8.7793-17.5581l-9.0908-9.0908q4.2085-4.2092,8.4175-8.4175c1.8345-1.8345,7.3394-.6733,9.7642-.6733s7.93,1.1606,9.7646-.6733q4.2085-4.2092,8.4175-8.418c-1.5645,0-8.1021.9893-9.0908,0s0-7.5264,0-9.0908l-8.4175,8.4175c-1.0664,1.0664-8.8066,1.6313-9.7646.6733-.7959-.7959-.4023-8.8892.624-9.4023q5.7231-2.8623,11.4473-5.7241c1.7354-.8677,5.1123-3.7207,6.9258-2.5117q5.3569,3.5713,10.7129,7.1421c5.3506,3.5669,12.0234,6.7749,16.5918,11.3438,5.45,5.4492,1.251,5.4819,5.5166,11.88,3.62,5.43,17.2012,18.9121,19.6143,24.9448,3.1055,7.7646,7.7666,15.09,9.6821,23.1909A100.0013,100.0013,0,1,0,160,260c-5.416,0-12.13-3.0322-17.3555-4.3389l-19.0083-4.752q9.6072-3.2021,19.2144-6.4048c7.832-2.6108,8.2031-2.6138,15.6406,1.105,6.062,3.0308,9.5933,5.3,16.2065,5.3h21.666l-17.356,4.3389C173.2813,256.68,165.9326,260,160,260A99.9993,99.9993,0,0,0,260,160C260,158.5156,259.9609,157.0405,259.8975,155.5718ZM78.1816,105.4546c1.24-2.936,6.2734-6.2734,8.4985-8.4985q4.842-4.8413,9.6836-9.6836l12.0713,6.0361c3.48,1.74,6.8359,1.604,4.9634,5.35q-3.6357,7.27-7.2705,14.5405c-1.36,2.72-6.5605,1.3467-9.3027,1.3467-5.541,0-22.9507,12.1211-28.4922,12.1211C65.0176,126.6665,77.0278,108.1875,78.1816,105.4546Zm42.9189,79.3608c0,6.2051-15.6416,25.5718-12.8892,31.0767q3.635,7.2708,7.27,14.5405c1.7969,3.5933,1.1475,7.3862,1.1475,11.3857q-4.5454-2.2734-9.0908-4.5459c-2.0942-1.0469-7.8291-2.6523-9.1543-4.64q-6.9763-10.4641-13.9521-20.9277a93.2837,93.2837,0,0,0-12.584-14.6675c-4.5059-4.5059-6.9111-13.1484-9.7646-18.8555,2.4365,0,3.0391-6.3564,4.7549-8.8525-1.18-.0889-2.4346-.2383-3.7109-.2383-3.6826,0,3.5391-20.8818,3.8818-21.91q2.228-6.6848,4.457-13.37c.8164-2.4507,7.1094-1.084,9.4521-1.084,0,6.3384,15.293,4.8506,12.415,10.6064C91.0679,147.8643,87.2656,155.4692,85,160c-.4395.8784,9.0278,6.5972,8.333,8.3335C106.1807,174.9307,105.1387,160.6943,110,160c-.7061.1011,11.1006,8.0723,11.1006,8.5156Zm29.8086-88.4517V87.2725L160,78.1816c0,2.5342,1.1738,7.9175-.6733,9.7646Q155.1174,92.1548,150.9092,96.3638Z"/><path class="a" d="M259.7349,150.2466l1.9713-.3371c-.1313-.7682-.2927-1.5109-.4635-2.2337l-3.9326.6945q.4259,3.6066.5892,7.2888l3.9913.0779c.0629-.7595.1-1.53.1-2.31a20.8346,20.8346,0,0,0-.2844-3.5169l-1.9713.3369-1.9714.3369a16.8464,16.8464,0,0,1,.2273,2.843c0,.653-.0312,1.3137-.0865,1.98l1.9933.1652,1.998-.0873q-.1674-3.8306-.6129-7.5833l-1.9862.2345-1.9464.46c.1593.6736.3016,1.3342.4135,1.9879Z"/><path class="a" d="M259.8975,155.5718l-1.9932-.1657a63.6605,63.6605,0,0,1-1.111,6.8694,36.5456,36.5456,0,0,0-.8763,6.8153h2l.8942-1.7889a66.294,66.294,0,0,1-6.1577-3.5879,70.1426,70.1426,0,0,0-6.5116-3.788,17.5271,17.5271,0,0,0-4.8911-1.63,26.491,26.491,0,0,0-4.6445-.3311c-1.244,0-2.512.0355-3.8787.0353-1.135,0-2.17-.0807-3.1326-.1668-.9642-.0847-1.85-.1807-2.7365-.1826a6.5373,6.5373,0,0,0-2.0321.2772,4.1321,4.1321,0,0,0-1.5243.8771,4.223,4.223,0,0,0-.8477,1.0885,6.2382,6.2382,0,0,0-.6469,1.9633,14.042,14.042,0,0,0-.1714,2.36c.0017,1.37.1511,2.927.2915,4.5586.1418,1.6268.2773,3.3175.2767,4.8469a16.81,16.81,0,0,1-.1649,2.5293,6.085,6.085,0,0,1-.5039,1.7594q-13.48,26.9607-26.9608,53.9216l1.7889.8944,1.4142-1.4142c-.6995-.6981-1.527-1.399-2.4072-2.1314-1.3173-1.0936-2.7511-2.2516-3.9244-3.3751a16.4586,16.4586,0,0,1-1.5056-1.6154,5.5665,5.5665,0,0,1-.8138-1.3037,4.5527,4.5527,0,0,1-.2714-1.7171,21.561,21.561,0,0,1,.1694-2.2565,25.1123,25.1123,0,0,0,.1926-2.7121,8.5691,8.5691,0,0,0-.8289-3.8967c-2.29-4.5787-4.2957-8.7146-6.6715-12.664a57.9162,57.9162,0,0,0-8.8553-11.4252,12.7,12.7,0,0,1-.9744-1.19,105.5494,105.5494,0,0,1-6.231-9.7781c-1.0564-1.8609-2.0071-3.67-2.6721-5.1346a19.5777,19.5777,0,0,1-.7555-1.8713,5.9664,5.9664,0,0,1-.17-.6022l-.03-.1692-.0039-.0388,0,0h-.9064l.8635.2527a.9111.9111,0,0,0,.0428-.2527h-.9064l.8635.2527-1.46-.4274,1.0692,1.073a1.5289,1.5289,0,0,0,.3911-.6455l-1.46-.4274,1.0692,1.073.0024-.0025,18.0029-18.0029-1.4142-1.4142-1.4141,1.4144c.4186.4158,1.0632,1.18,1.785,2.0638,1.0918,1.3327,2.3837,2.9528,3.7256,4.3613a18.6955,18.6955,0,0,0,2.0808,1.9158,6.8451,6.8451,0,0,0,2.4207,1.2739,5.6118,5.6118,0,0,0,1.3827.1588,12.58,12.58,0,0,0,2.9316-.4221c1.4811-.3659,3.0085-.8985,4.3739-1.384,1.3529-.4844,2.5782-.9268,3.218-1.0827.29-.073.965-.2165,1.85-.3961,3.1226-.6353,9.0226-1.776,14.18-3.0418a67.2941,67.2941,0,0,0,6.8237-1.9768,13.6,13.6,0,0,0,2.4-1.1055,4.4726,4.4726,0,0,0,.9976-.8125,2.89,2.89,0,0,0,.4612-.6933,2.4914,2.4914,0,0,0,.2379-1.0547v-16.62a2.811,2.811,0,0,0-1.3868-2.4589,3.8317,3.8317,0,0,0-1.3319-.4735,7.0776,7.0776,0,0,0-1.2057-.0922,26.2731,26.2731,0,0,0-3.0592.2616,23.3288,23.3288,0,0,1-2.5737.2314,2.86,2.86,0,0,1-.5773-.0433l-.02-.0052-.2557.7617.5558-.5555a.8388.8388,0,0,0-.3-.2062l-.2557.7617.5558-.5555L197.778,113.1312l-3.4142,1.4142c.0034,1.6508.2407,3.7519.4667,6.0313.228,2.2687.448,4.6877.447,6.7609a18.33,18.33,0,0,1-.1761,2.752,5.2414,5.2414,0,0,1-.4865,1.6671l.6106.3384-.5627-.414-.0476.0751.61.3389-.5627-.414.1827.1344-.1689-.1521-.0138.0177.1827.1344-.1689-.1521a4.274,4.274,0,0,1-.94.613,30.1975,30.1975,0,0,1-3.0632,1.3276c-.5415.2093-1.0647.4064-1.5332.59-.4722.1859-.8763.3486-1.2528.5354q-4.9882,2.4945-9.9758,4.9882l.0018-.0009.7208,1.4452v-1.62a1.62,1.62,0,0,0-.7208.1748l.7208,1.4452v-.43l.26-1.1636a1.1889,1.1889,0,0,0-.26-.0265v1.19l.26-1.1636-.0967.4315.1544-.4159-.0577-.0156-.0967.4315.1544-.4159a3.6806,3.6806,0,0,1-.5972-.3484,21.0552,21.0552,0,0,1-2.173-1.7632,39.2934,39.2934,0,0,1-3.5223-3.6344,14.5487,14.5487,0,0,1-1.1122-1.4761,3.107,3.107,0,0,1-.2148-.3857l-.0081-.02-.8973.3187h.94a.9547.9547,0,0,0-.0422-.3187l-.8973.3187h-.6862l1.4454.7325a1.6251,1.6251,0,0,0,.18-.7325h-1.6257l1.4454.7325.0048-.0094q4.39-8.7789,8.7794-17.5583l.6445-1.2893-1.0192-1.0193L170.505,104.04l-1.4142,1.4142,1.4143,1.4141q4.2081-4.209,8.4174-8.4174a1.6119,1.6119,0,0,1,.71-.286,8.7231,8.7231,0,0,1,1.8691-.1639c.9364-.0006,1.9878.0832,2.9865.1732,1.0056.0885,1.938.1867,2.7848.1892.5084-.0025,1.4115.08,2.4276.1731,1.0231.0911,2.18.1885,3.3433.1891a12.5416,12.5416,0,0,0,2.761-.2645,5.36,5.36,0,0,0,2.6464-1.3563l.0007-.0007q4.2083-4.2091,8.4174-8.4178l-1.4142-3.4142c-.3916.0014-.806.0337-1.3163.0758-1.4987.1284-3.7369.3662-5.3259.3639a8.24,8.24,0,0,1-1.2211-.07l-.1421-.0279-.0385-.0105-.1671.502.2522-.4623-.0851-.04-.1671.502.2522-.4623-.5972,1.0948.88-.879a1.2476,1.2476,0,0,0-.2827-.2158l-.5972,1.0948.88-.879-.0009-.0008-.7269.7272.9812-.3626a1.0475,1.0475,0,0,0-.2543-.3646l-.7269.7272.9812-.3626-.0239.0088.0244-.0077,0-.0011-.0239.0088.0244-.0077a2.5757,2.5757,0,0,1-.0717-.4513c-.0239-.2522-.0369-.5806-.0367-.9487-.0009-1.0524.103-2.4143.212-3.6327.0542-.6111.1093-1.1887.1519-1.6933.042-.51.0743-.9246.0757-1.3161l-3.4142-1.4142-8.4175,8.4175.7277.7275-.561-.8657-.1665.1381.7275.7276-.561-.8657.1952.3013-.1743-.3141-.0209.0127.1952.3013-.1743-.3141-.0448.0209a5.1378,5.1378,0,0,1-.8243.2426,23.5972,23.5972,0,0,1-4.6576.4651,11.57,11.57,0,0,1-1.626-.0942,2.2883,2.2883,0,0,1-.3378-.07l-.0026-.0008-.3788,1.01.7488-.748a1.0645,1.0645,0,0,0-.37-.2617l-.3788,1.01.7488-.748-.0007-.0007-1.0243,1.0244,1.3109-.63a1.43,1.43,0,0,0-.2866-.3943l-1.0243,1.0244,1.3109-.63-.7239.3479.7511-.2852-.0272-.0627-.7239.3479.7511-.2852-.2177.0826.2225-.0693-.0049-.0133-.2177.0826.2225-.0693a4.2879,4.2879,0,0,1-.1035-.7068c-.0341-.3905-.0529-.887-.0527-1.4249a27.1391,27.1391,0,0,1,.2578-3.7323,8.5119,8.5119,0,0,1,.2566-1.23l.0436-.1227.0067-.0156-.2632-.1212.2506.1443.0126-.0231-.2632-.1212.2506.1443-.9431-.5431.806.7273a1.0815,1.0815,0,0,0,.1371-.1842l-.9431-.5431.806.7273-1.186-1.07.7126,1.4255a1.592,1.592,0,0,0,.4734-.3553l-1.186-1.07.7126,1.4255q5.7233-2.8624,11.4476-5.7243c.4883-.2458.948-.5344,1.4321-.8372.7185-.4526,1.4771-.935,2.1511-1.2741a3.7892,3.7892,0,0,1,1.4-.4833l.0348.0016.0038-.0312-.0068.03.0031.0008.0038-.0312-.0068.03.0653-.2806-.1586.2381.0933.0425.0653-.2806-.1586.2381Q201.4262,74.87,206.782,78.44c2.7639,1.8411,5.7816,3.54,8.6382,5.3277a43.1221,43.1221,0,0,1,7.6489,5.7661,11.42,11.42,0,0,1,2.1906,2.7434,3.7713,3.7713,0,0,1,.3781,1.1867c.0509.3129.0826.6931.1353,1.1732a11.6266,11.6266,0,0,0,.6023,2.72,17.0682,17.0682,0,0,0,1.9607,3.7514,65.2346,65.2346,0,0,0,4.3986,5.5328c2.7524,3.2084,6.132,6.97,9.0273,10.4662,1.4467,1.7465,2.7714,3.4265,3.8236,4.9145a19.7906,19.7906,0,0,1,2.1718,3.6646c1.6014,4.0005,3.5629,7.8057,5.3342,11.5774A58.6723,58.6723,0,0,1,257.35,148.596l3.9325-.6951A102.0012,102.0012,0,1,0,160,262v-4a29.5254,29.5254,0,0,1-8.1636-1.5918c-2.9471-.9005-5.9421-1.9935-8.7068-2.6873l-19.0084-4.752-.485,1.94.6323,1.8974q9.6074-3.2022,19.2144-6.4048c1.7817-.5945,3.1542-1.0437,4.243-1.3293a10.0743,10.0743,0,0,1,2.5636-.4073,7.285,7.285,0,0,1,2.698.5828c1.1284.4278,2.5941,1.1414,4.6093,2.15,2.9894,1.4918,5.4257,2.8458,8.0748,3.865a24.16,24.16,0,0,0,9.0261,1.646h21.666v-2l-.4851-1.94-17.356,4.3389c-3.0151.7564-6.2942,1.9526-9.5272,2.9408A32.494,32.494,0,0,1,160,258v4A102,102,0,0,0,262,160c0-1.5195-.04-3.0235-.1044-4.5146l-3.9912-.0793,1.9932.1657-1.9982.0863c.0625,1.4464.1007,2.8926.1007,4.3419a97.9994,97.9994,0,0,1-98,98v4a36.0716,36.0716,0,0,0,10.1667-1.9268c3.3561-1.03,6.6146-2.21,9.326-2.8849l17.356-4.3389-.485-3.94h-21.666a20.0925,20.0925,0,0,1-7.594-1.3808c-2.2853-.873-4.6456-2.169-7.7183-3.7079-2.03-1.0137-3.5645-1.7722-4.9751-2.3108a11.2817,11.2817,0,0,0-4.1208-.8445,13.9627,13.9627,0,0,0-3.5809.5388c-1.276.3362-2.7.8066-4.4906,1.4031q-9.6072,3.2021-19.2142,6.4048l.1473,3.8377,19.0083,4.7519c2.4608.6127,5.4355,1.6892,8.5057,2.6315A33.1044,33.1044,0,0,0,160,262v-4a97.9962,97.9962,0,1,1,97.31-109.6294l1.9862-.2348,1.9463-.46a62.4668,62.4668,0,0,0-4.5311-12.1119c-1.8145-3.8574-3.7363-7.5974-5.24-11.3614a18.1489,18.1489,0,0,0-1.5573-2.913,65.3042,65.3042,0,0,0-4.3384-5.84c-2.53-3.105-5.4541-6.4047-8.0333-9.3649-1.2889-1.4791-2.4912-2.8727-3.5072-4.1034-1.0149-1.2282-1.8469-2.3027-2.371-3.09a12.0266,12.0266,0,0,1-1.641-3.2454,8.3657,8.3657,0,0,1-.2892-1.5844c-.0439-.4074-.0811-.8676-.1761-1.4036a7.9231,7.9231,0,0,0-1.0229-2.72,16.81,16.81,0,0,0-2.6373-3.2307,46.8779,46.8779,0,0,0-8.3561-6.3289c-2.96-1.85-5.9536-3.5387-8.5405-5.2646q-5.356-3.5713-10.7128-7.1421a3.8548,3.8548,0,0,0-2.1571-.63,6.1582,6.1582,0,0,0-2.2362.4758,17.2848,17.2848,0,0,0-2.6967,1.4264c-.7833.4891-1.4847.942-1.84,1.1148q-5.723,2.8623-11.4474,5.7242a2.3944,2.3944,0,0,0-.7151.5512,3.23,3.23,0,0,0-.5548.9,7.6788,7.6788,0,0,0-.4247,1.4475,28.3172,28.3172,0,0,0-.4581,5.2166,18.3754,18.3754,0,0,0,.1185,2.2509,6.5688,6.5688,0,0,0,.1952.9927,3.52,3.52,0,0,0,.2052.5449,2.5226,2.5226,0,0,0,.49.7015l-.0007-.0007a2.9746,2.9746,0,0,0,1.1863.7029,7.0822,7.0822,0,0,0,1.5381.2991c.5323.0525,1.1028.0744,1.7017.0746a29.2008,29.2008,0,0,0,4.4226-.35,14.7881,14.7881,0,0,0,1.9426-.43,6.3581,6.3581,0,0,0,.87-.3311,3.311,3.311,0,0,0,.932-.6374l8.4176-8.4176-1.4142-1.4142h-2c.0013.13-.0214.5134-.0616.98-.1189,1.4313-.3757,3.7327-.3779,5.6624a11.9224,11.9224,0,0,0,.1218,1.86,4.9353,4.9353,0,0,0,.2339.9249,2.938,2.938,0,0,0,.67,1.078l-.0009-.0008a2.9375,2.9375,0,0,0,1.0782.67,5.6659,5.6659,0,0,0,1.3765.2931,13.9033,13.9033,0,0,0,1.4088.0627c1.2935-.0009,2.7311-.1168,3.9866-.2277.6259-.0556,1.2037-.1106,1.6758-.15.4664-.04.85-.063.98-.0616v-2L204.04,85.8582q-4.2092,4.2092-8.4176,8.4181l.0007-.0007a1.6157,1.6157,0,0,1-.7106.2864,8.7277,8.7277,0,0,1-1.87.1639c-.9365.0006-1.9878-.0832-2.9863-.1731-1.0056-.0884-1.938-.1866-2.7845-.1891-.5084.0025-1.4116-.0805-2.4277-.1732-1.0232-.0912-2.18-.1886-3.3435-.1892a12.5371,12.5371,0,0,0-2.761.2646,5.3572,5.3572,0,0,0-2.6462,1.3569q-4.2083,4.2083-8.4176,8.4176l-1.4139,1.4141,1.4141,1.4142,9.0908,9.0908,1.4143-1.4142-1.7889-.8944q-4.3894,8.7795-8.7792,17.5579l.0048-.0094a2.3686,2.3686,0,0,0-.2516,1.0755,3.0764,3.0764,0,0,0,.2126,1.0867,7.1053,7.1053,0,0,0,.7861,1.4418,24.8632,24.8632,0,0,0,2.1151,2.6185,43.142,43.142,0,0,0,4.0247,3.8959,18.2488,18.2488,0,0,0,1.9094,1.4276,6.8736,6.8736,0,0,0,.9392.5057,3.22,3.22,0,0,0,1.28.29,2.3761,2.3761,0,0,0,1.0645-.2456l.0018-.0009q4.9878-2.4939,9.9762-4.9883c.1-.05.31-.1433.5724-.2493.9351-.3805,2.5066-.9371,3.9716-1.5809a17.2258,17.2258,0,0,0,2.1046-1.0748,7.1173,7.1173,0,0,0,.9382-.6828,3.8685,3.8685,0,0,0,.8492-1.0212,9.0417,9.0417,0,0,0,.9414-2.9928,22.1882,22.1882,0,0,0,.2236-3.3674c-.001-2.3432-.2378-4.8641-.4667-7.1593-.231-2.2845-.45-4.3714-.447-5.6329h-2l-1.4143,1.4142,18.0029,18.0029a3.3552,3.3552,0,0,0,1.6511.8688,6.6051,6.6051,0,0,0,1.4752.1454,26.297,26.297,0,0,0,3.0645-.2616,23.321,23.321,0,0,1,2.5685-.2314,3.49,3.49,0,0,1,.4866.0277l.0826.0152.0146.0037.2848-.841-.6605.5554a.9241.9241,0,0,0,.3757.2856l.2848-.841-.6605.5554.9458-.7953-1.1689.4011a1.25,1.25,0,0,0,.2231.3942l.9458-.7953-1.1689.4011.9967-.342h-1.0571a1.066,1.066,0,0,0,.06.342l.9967-.342h-1.0571q0,8.31,0,16.62h1.488l-1.3195-.7a1.5025,1.5025,0,0,0-.1686.7h1.488l-1.3195-.7.8535.4529-.6921-.6825a.9784.9784,0,0,0-.1614.23l.8535.4529-.6921-.6825.2124.2095-.2018-.22-.0106.01.2124.2095-.2018-.22-.0145.0117a3.0673,3.0673,0,0,1-.4524.2682,16.2236,16.2236,0,0,1-2.03.8119,123.17,123.17,0,0,1-12.3218,3.0987c-2.1864.4627-4.2456.8753-5.901,1.2077-.828.1663-1.5548.3124-2.15.4357-.5984.1241-1.0538.2218-1.3912.3058-.69.1739-1.4458.4341-2.2882.7309-1.2556.4444-2.68.9715-4.0107,1.3765-.6639.2025-1.3029.3736-1.8673.4894a7.2265,7.2265,0,0,1-1.3873.1726,1.7232,1.7232,0,0,1-.3972-.0355,2.0737,2.0737,0,0,1-.5312-.2609,10.8378,10.8378,0,0,1-1.7714-1.514c-1.0073-1.019-2.0969-2.3288-3.1056-3.5646-.5056-.6187-.9928-1.22-1.452-1.7669-.4608-.548-.8883-1.0387-1.3093-1.46l-1.4144-1.4139-1.4138,1.414-18.0029,18.0029.0024-.0025a2.4782,2.4782,0,0,0-.6241,1.0642,3.08,3.08,0,0,0-.1182.8709,5.2339,5.2339,0,0,0,.1558,1.1918,15.0762,15.0762,0,0,0,.7886,2.2907,85.1172,85.1172,0,0,0,5.5894,10.3232c1.0852,1.7572,2.1588,3.4039,3.0959,4.7518.4691.6744.9036,1.2738,1.2958,1.7825a13.6511,13.6511,0,0,0,1.0834,1.2733,53.88,53.88,0,0,1,8.2567,10.66c2.2506,3.7378,4.2184,7.7837,6.5206,12.39a4.6135,4.6135,0,0,1,.407,2.1084,21.6881,21.6881,0,0,1-.1694,2.281,24.96,24.96,0,0,0-.1926,2.6877,8.49,8.49,0,0,0,.5624,3.215,10.5953,10.5953,0,0,0,1.9749,2.9864,38.6288,38.6288,0,0,0,4.0784,3.7742c1.3846,1.1488,2.6948,2.2078,3.4783,2.9955l1.962,1.9622,1.2411-2.482q13.48-26.96,26.9609-53.9219a9.9769,9.9769,0,0,0,.8789-2.9358,20.6969,20.6969,0,0,0,.2119-3.1415c-.0006-1.7572-.1493-3.5489-.2915-5.193-.1437-1.6393-.2784-3.1422-.2767-4.2125a9.1044,9.1044,0,0,1,.1534-1.8862,1.8439,1.8439,0,0,1,.1807-.5285l.0287-.0422.0009-.0018a.5687.5687,0,0,1,.1779-.0557,3.516,3.516,0,0,1,.6809-.0517c.57-.0019,1.3893.0768,2.3806.1668.9934.0886,2.1646.1826,3.4884.1826,1.4342,0,2.7131-.0355,3.8787-.0353a22.6293,22.6293,0,0,1,3.9529.2708,13.4934,13.4934,0,0,1,3.7939,1.2681,66.3048,66.3048,0,0,1,6.1576,3.588,70.1067,70.1067,0,0,0,6.5121,3.7881l2.8942,1.4469v-3.2358a33.1439,33.1439,0,0,1,.8024-6.049,67.012,67.012,0,0,0,1.1713-7.3044l-1.993-.1656-1.9982.0863ZM78.1816,105.4546l1.8424.778a6.681,6.681,0,0,1,1.1855-1.6974,34.0656,34.0656,0,0,1,3.4138-3.1523c1.262-1.0581,2.5067-2.0525,3.4709-3.0126q4.842-4.8414,9.6836-9.6836l-1.4142-1.4142-.8945,1.7888q6.0359,3.0183,12.0713,6.0361a23.3864,23.3864,0,0,0,2.2238.9484,13.9839,13.9839,0,0,1,2.1008.8822l.1416.1026.0106.01.2281-.2122-.2844.1142.0563.098.2281-.2122-.2844.1142.37-.1485-.3922.0728.0225.0757.37-.1485-.3922.0728.2271-.0421-.23.02.0031.0216.2271-.0421-.23.02.0253-.0023h-.0255l0,.0023.0253-.0023h-.0255a2.5594,2.5594,0,0,1-.326.9212l0-.0008q-3.6359,7.27-7.2706,14.5407l-.1393.1723a1.7373,1.7373,0,0,1-.7023.2848,6.9472,6.9472,0,0,1-1.476.1306c-.7844.0007-1.682-.0777-2.5723-.1642-.895-.0848-1.7722-.1805-2.624-.1826a10.6856,10.6856,0,0,0-3.2075.6192,51.43,51.43,0,0,0-6.6471,2.9054c-3.6267,1.821-7.6,4.0223-11.0767,5.7461-1.7352.8612-3.3467,1.6018-4.687,2.1078a16.2031,16.2031,0,0,1-1.7671.5705,4.8809,4.8809,0,0,1-1.1068.172v1.3729l.5591-1.2474a1.3807,1.3807,0,0,0-.5591-.1255v1.3729l.5591-1.2474-.6334,1.4131,1.1194-1.07a1.56,1.56,0,0,0-.486-.3434l-.6334,1.4131,1.1194-1.07-1.02.9743,1.3611-.3956a1.4256,1.4256,0,0,0-.3414-.5788l-1.02.9743,1.3611-.3956-.7095.2062h.7458a.7723.7723,0,0,0-.0364-.2062l-.7095.2062h.7458l.0084-.0859a7.4962,7.4962,0,0,1,.4484-1.4722,46.8911,46.8911,0,0,1,2.1958-4.6031c1.4009-2.644,3.1135-5.5863,4.5591-8.06.7233-1.238,1.38-2.3591,1.9038-3.28.2623-.4612.4913-.8722.6826-1.23.1921-.3616.3431-.6576.47-.9555l-1.8424-.7781-1.8425-.7781c-.0569.1416-.304.6252-.6436,1.23C74.49,108.07,72.053,112.0946,69.9178,115.96c-1.07,1.9378-2.0674,3.8388-2.82,5.5025a23.797,23.797,0,0,0-.9282,2.3251,7.04,7.04,0,0,0-.4138,2.1332,3.3075,3.3075,0,0,0,.0924.7985,2.7011,2.7011,0,0,0,.2814.7039,2.4755,2.4755,0,0,0,.9862.9511,2.6047,2.6047,0,0,0,1.217.2925,10.6868,10.6868,0,0,0,3.2075-.6192,51.4316,51.4316,0,0,0,6.6472-2.9054c3.6268-1.821,7.6-4.0223,11.0767-5.7461,1.7352-.8612,3.3467-1.6018,4.687-2.1078a16.2031,16.2031,0,0,1,1.7671-.5705,4.8776,4.8776,0,0,1,1.1067-.172c.5256-.002,1.3364.0756,2.24.1642.9084.0869,1.92.1819,2.9561.1826a9.4627,9.4627,0,0,0,3.1438-.4542,5.23,5.23,0,0,0,1.5435-.846,4.5,4.5,0,0,0,1.208-1.4988q3.635-7.2707,7.27-14.54l0-.0008a6.1168,6.1168,0,0,0,.7477-2.7088,3.7148,3.7148,0,0,0-.2706-1.4116,3.9608,3.9608,0,0,0-1.4338-1.7327,11.0721,11.0721,0,0,0-2.464-1.1738,24.9881,24.9881,0,0,1-2.4374-1.0054l-12.0712-6.036-1.29-.6448-1.0192,1.0194Q90.1074,90.7,85.266,95.5417c-.4678.4692-1.168,1.0723-1.96,1.733-1.1914.9961-2.593,2.13-3.8607,3.3431a20.0059,20.0059,0,0,0-1.77,1.9023,9.2874,9.2874,0,0,0-1.3357,2.1564Zm42.9189,79.3608h-2a6.5255,6.5255,0,0,1-.453,1.9508,45.33,45.33,0,0,1-2.9114,6.0581c-1.928,3.5162-4.3356,7.5123-6.2887,11.2557a50.406,50.406,0,0,0-2.4827,5.3859,14.24,14.24,0,0,0-1.0785,4.833,5.511,5.511,0,0,0,.5369,2.489l-.0007-.0014q3.635,7.2708,7.27,14.5406a11.9987,11.9987,0,0,1,1.0505,5.5658c.0013,1.5111-.1129,3.1568-.1141,4.9255h2l.8947-1.7887q-4.546-2.2737-9.0908-4.5459c-.6615-.3286-1.4371-.6294-2.3029-.9645-1.29-.4962-2.7567-1.05-3.9557-1.625a11.7578,11.7578,0,0,1-1.5062-.8376,2.5611,2.5611,0,0,1-.62-.5336q-6.9763-10.4642-13.9521-20.9277a95.2248,95.2248,0,0,0-12.834-14.9724c-1.9355-1.9192-3.61-5.0138-5.0872-8.3724-1.49-3.36-2.802-6.9543-4.3027-9.9632l-1.7888.8944v2a3.4355,3.4355,0,0,0,1.9872-.6443,4.6682,4.6682,0,0,0,1.0854-1.1041,10.16,10.16,0,0,0,1.1293-2.1841c.4489-1.1381.8093-2.3468,1.1736-3.4119a10.8324,10.8324,0,0,1,1.0275-2.3752l-1.4979-3.1273c-1.12-.0825-2.43-.2422-3.8611-.2439v1.2209l.7373-.9647a1.2623,1.2623,0,0,0-.7373-.2562v1.2209l.7373-.9647-.6113.8.8848-.496a1.0284,1.0284,0,0,0-.2734-.3036l-.6113.8.8848-.496-.3959.2219.4185-.1768-.0226-.0451-.3959.2219.4185-.1768-.0063.0026.0067-.0022,0,0-.0063.0026.0067-.0022a3.16,3.16,0,0,1-.0774-.83,25.4391,25.4391,0,0,1,.6859-4.8192c.6385-2.9538,1.6232-6.3735,2.4713-9.1118.4242-1.37.8143-2.5721,1.1108-3.4686.298-.9007.4961-1.4778.5544-1.6523l0-.0011q2.228-6.6846,4.457-13.37v-.0005l-.3975-.1324.2705.33.127-.1978-.3975-.1324.2705.33-.01-.012.0089.0129.001-.0009-.01-.012.0089.0129a1.8313,1.8313,0,0,1,.611-.19,8.4035,8.4035,0,0,1,1.4529-.1048c.9032-.0007,1.9449.0867,2.9244.1809.9891.0924,1.8856.1957,2.6943.1991v-2h-2a5.4248,5.4248,0,0,0,.8676,2.9715,6.8061,6.8061,0,0,0,1.7264,1.7857A15.1457,15.1457,0,0,0,85.2,139.3351c1.9043.7,3.8459,1.2354,5.1283,1.8109a4.5851,4.5851,0,0,1,1.2616.7461l.1106.1313.068-.0325-.073.0166.005.0158.068-.0325-.073.0166.084-.0191-.0857.01.0017.01.084-.0191-.0857.01V142a1.1291,1.1291,0,0,1-.15.44l0-.0005c-2.2651,4.5307-6.0674,12.1357-8.3329,16.6664l-.03.06.0315-.0628a2.154,2.154,0,0,0-.2278.9649,2.2779,2.2779,0,0,0,.1648.8457,3.0291,3.0291,0,0,0,.4808.7962,8.264,8.264,0,0,0,.9478.95c.6128.5389,1.3677,1.1308,2.1752,1.762,1.2064.9411,2.5275,1.9661,3.4833,2.8329a9.751,9.751,0,0,1,1.0587,1.0806,1.6171,1.6171,0,0,1,.1487.2132l.8356-.4138h-.9105a.9544.9544,0,0,0,.075.4138l.8356-.4138h.551l-1.3569-.5382a1.47,1.47,0,0,0-.1046.5382h1.4615l-1.3569-.5382-.6693,1.6873,1.6147.8292a15.1277,15.1277,0,0,0,6.8,1.9611,8.0283,8.0283,0,0,0,2.9851-.5508,8.7065,8.7065,0,0,0,3.6268-2.8381,37.8342,37.8342,0,0,0,2.9009-4.9013,7.2925,7.2925,0,0,1,1.016-1.4614,1.5689,1.5689,0,0,1,.3348-.2707l.2-.0715-.5657-3.96a2.0337,2.0337,0,0,0-1.5566,2.8738,2.3079,2.3079,0,0,0,.3606.5539,4.798,4.798,0,0,0,.4766.47c.2993.2625.6653.553,1.108.893,1.5369,1.1783,3.9791,2.9143,6.0481,4.4077,1.0316.7444,1.9689,1.4274,2.6244,1.9268.3259.2478.5851.4541.7223.5721l.0732.0646.01.01.2612-.2722-.2742.2588.0129.0134.2612-.2722-.2742.2588,1.0493-.99-1.1892.8138a1.3869,1.3869,0,0,0,.14.1762l1.0493-.99-1.1892.8138,1.5234-1.0427-1.6882.7456a1.8152,1.8152,0,0,0,.1648.297l1.5234-1.0427-1.6882.7456,1.7872-.7893h-1.9529a1.92,1.92,0,0,0,.1656.7893l1.7872-.7893h-1.9529q0,8.15,0,16.3h4v-16.3a2.0048,2.0048,0,0,0-.2391-.9588,2.2825,2.2825,0,0,0-.3661-.5078,5.165,5.165,0,0,0-.455-.4225c-.29-.2437-.6516-.5236-1.0907-.8543-1.5258-1.1475-3.9659-2.8759-6.0289-4.3732-1.0288-.7464-1.9631-1.4354-2.6117-1.9407-.3223-.25-.577-.46-.7051-.5755l-.0651-.06-.001,0-.9482.8733,1.0746-.7081a1.235,1.235,0,0,0-.1263-.1651l-.9482.8733,1.0746-.7081-1.4972.9867,1.6527-.6939a1.7722,1.7722,0,0,0-.1555-.2927l-1.4972.9867,1.6527-.6939-1.7827.7485h1.9324a1.9077,1.9077,0,0,0-.15-.7485l-1.7827.7485h-.0389l1.8317.7283a1.971,1.971,0,0,0,.14-.7283H109.998l1.8317.7283-1.8358-.73,1.0389,1.6807a1.9962,1.9962,0,0,0,.7969-.9507l-1.8358-.73,1.0389,1.6807-1.0262-1.66.2762,1.9328a1.94,1.94,0,0,0,.75-.2726l-1.0262-1.66.2762,1.9328-.5657-3.96a4.71,4.71,0,0,0-2.2858,1.0126,9.9259,9.9259,0,0,0-2.3026,2.9971,29.3837,29.3837,0,0,1-2.5779,4.3518,4.9431,4.9431,0,0,1-1.4426,1.246,3.844,3.844,0,0,1-1.8892.4461,11.3037,11.3037,0,0,1-4.9725-1.5193l-.9136,1.7791,1.859.7374a2.5388,2.5388,0,0,0,.1771-.9365,2.9742,2.9742,0,0,0-.2588-1.1856,5.5825,5.5825,0,0,0-.9513-1.4237,20.8457,20.8457,0,0,0-2.2788-2.1362c-1.274-1.06-2.69-2.1248-3.7518-2.9771-.5276-.4223-.9695-.7974-1.2153-1.0378l-.14-.1428-.0385-.0443-.6243.49.7046-.3563a.79.79,0,0,0-.08-.1341l-.6243.49.7046-.3563-1.476.7464h1.6454a1.6252,1.6252,0,0,0-.1694-.7464l-1.476.7464h-.2059l1.6536.8305a1.8594,1.8594,0,0,0,.1978-.8305H85.1335l1.6536.8305.0016-.0032c2.2657-4.5309,6.068-12.1359,8.3331-16.6667A4.9855,4.9855,0,0,0,95.6934,142a3.9257,3.9257,0,0,0-.2932-1.496,4.7226,4.7226,0,0,0-1.6-1.97,13.7909,13.7909,0,0,0-3.6682-1.7479c-.9745-.3386-1.9723-.6487-2.9067-.9742a13.107,13.107,0,0,1-3.3838-1.58,2.6812,2.6812,0,0,1-.7284-.7566,1.3965,1.3965,0,0,1-.1952-.7484v-2h-2c-.427.0034-1.3151-.0834-2.3138-.1809-1.0087-.0958-2.1584-.1984-3.3049-.1991a10.1317,10.1317,0,0,0-3.0795.3955,4.6347,4.6347,0,0,0-1.5178.8036,3.5617,3.5617,0,0,0-1.1337,1.6328v-.0005q-2.2286,6.6855-4.457,13.37l-.07.2108.0707-.2119c-.061.1829-.4127,1.206-.89,2.6769-.7192,2.2153-1.7391,5.4866-2.5875,8.75-.4243,1.6325-.8059,3.2625-1.0861,4.7731a23.6409,23.6409,0,0,0-.4645,4.1192,6.0972,6.0972,0,0,0,.4093,2.4258,3.08,3.08,0,0,0,.9425,1.2329,2.7831,2.7831,0,0,0,1.6918.5658c1.1212-.0017,2.32.1374,3.5607.2326l.15-1.9943L65.19,168.1962a12.6762,12.6762,0,0,0-1.361,2.9007c-.53,1.5053-.983,3.086-1.4515,4.1319a4.0073,4.0073,0,0,1-.5732,1l-.0443.0437.2148.2682-.1216-.3162-.0933.048.2148.2682-.1216-.3162.23.5984v-.641l-.23.0425.23.5984v-.641H58.8467l1.4474,2.8944c1.3528,2.6982,2.67,6.2789,4.2227,9.7932,1.5653,3.5158,3.3464,6.9955,5.9166,9.5821,4.8093,4.8089,8.6918,8.9,12.3341,14.3626Q89.743,223.2774,96.72,233.7417a5.409,5.409,0,0,0,1.0831,1.1636,12.3445,12.3445,0,0,0,2.2888,1.4227c1.2317.6154,2.5741,1.1423,3.7739,1.6057.5989.2308,1.1606.4445,1.6423.6367s.885.3647,1.136.4908q4.5452,2.2734,9.09,4.5457l2.8947,1.448v-3.2367c-.0012-1.5875.1128-3.2251.1141-4.9255a15.92,15.92,0,0,0-1.4728-7.3547q-3.6348-7.27-7.27-14.54L110,214.9963a1.6171,1.6171,0,0,1-.1133-.6975,8.4885,8.4885,0,0,1,.4739-2.4249,42.0793,42.0793,0,0,1,2.9045-6.4591c1.9187-3.6256,4.3152-7.5992,6.2594-11.1815a54.9583,54.9583,0,0,0,2.475-5.043,18.7221,18.7221,0,0,0,.7805-2.2382,8.2993,8.2993,0,0,0,.3209-2.1367Zm29.8086-88.4517h2V87.2725h-2l1.4142,1.4142,9.0908-9.0908L160,78.1816h-2c.0022.8743.1019,1.8265.1919,2.837.0914,1.0042.1763,2.05.1757,2.9756a8.407,8.407,0,0,1-.1635,1.8325,1.5741,1.5741,0,0,1-.2919.7055q-4.2089,4.2082-8.4175,8.4174l1.4144,1.4141h0l1.4143,1.4141q4.2083-4.2091,8.4172-8.4172A5.3623,5.3623,0,0,0,162.1,86.7334a12.2268,12.2268,0,0,0,.2675-2.7391c-.0006-1.158-.0995-2.31-.1919-3.3361-.0939-1.02-.1779-1.9326-.1757-2.4765l-3.4142-1.4142-9.0908,9.0908-.5857.5857v.8285q0,4.5461,0,9.0913l3.4143,1.4141Z"/></svg>