<svg xmlns="http://www.w3.org/2000/svg" viewBox="0 0 320 320">
  <defs>
    <style>
      .cls-1 {
        fill: #1a1a1a;
      }
    </style>
  </defs>
  <title>flat-music-play-pause-filled</title>
  <g id="Layer_16" data-name="Layer 16">
    <g>
      <polygon  points="35 60 205 160 35 260 35 60"/>
      <rect  x="225" y="60" width="20" height="200"/>
      <rect  x="265" y="60" width="20" height="200"/>
      <polygon  points="35 60 33.986 61.724 201.055 160 37 256.503 37 60 35 60 33.986 61.724 35 60 33 60 33 260 36.014 261.724 208.944 160 36.014 58.276 33 60 35 60"/>
      <polygon  points="225 60 223 60 223 262 247 262 247 58 223 58 223 60 225 60 225 62 243 62 243 258 227 258 227 60 225 60 225 62 225 60"/>
      <polygon  points="265 60 263 60 263 262 287 262 287 58 263 58 263 60 265 60 265 62 283 62 283 258 267 258 267 60 265 60 265 62 265 60"/>
    </g>
  </g>
</svg>
