<svg xmlns="http://www.w3.org/2000/svg" viewBox="0 0 320 320"><defs><style>.a{fill:#1a1a1a;}</style></defs><title>flat-leaves</title><path  d="M50,197.3936l-1.0312,3.8647c.0911.0239,6.53,1.74,16.59,3.4548a232.7665,232.7665,0,0,0,38.3586,3.4333,155.8016,155.8016,0,0,0,21.7808-1.4431A82.3045,82.3045,0,0,0,163.2,191.01l-2.3818-3.2134-4-.0293q-.002.29-.0021.5837a77.7448,77.7448,0,0,0,9.6232,38.1426c8.9788,16.0862,21.563,30.1682,31.9141,40.3118a217.265,217.265,0,0,0,18.58,16.3809,4,4,0,0,0,6.1348-1.709,98.5078,98.5078,0,0,0,5.6439-33.35,90.7826,90.7826,0,0,0-3.1558-24.0447c-2.124-7.7112-5.9338-16.0393-10.4355-24.3145a323.42,323.42,0,0,0-21.7548-33.82c-6.6625-9.1772-11.65-15.2827-11.6849-15.3257a4.0061,4.0061,0,0,0-5.15-.9026l-.085.0508,2.0522,3.4336.11-3.9985c-.4558-.0127-3.3738-.0879-7.9572-.0879-8.3466,0-22.2095.2466-36.8347,1.5815-7.3142.6682-14.82,1.6084-21.9435,2.938A111.3288,111.3288,0,0,0,92.17,158.96a100.6461,100.6461,0,0,0-33.873,22.418,90.4793,90.4793,0,0,0-11.665,13.8574,4,4,0,0,0,2.337,6.0225L50,197.3936l3.3682,2.1575a84.34,84.34,0,0,1,10.8972-12.8235A92.5487,92.5487,0,0,1,95.08,166.4124a103.6306,103.6306,0,0,1,18.2614-4.91,264.8028,264.8028,0,0,1,31.71-3.6272c10.2433-.6191,19.4608-.7568,25.6-.7568,4.4961,0,7.3416.0742,7.7371.085a4,4,0,0,0,2.1622-.5649l.085-.0508-2.0521-3.4333-3.0977,2.5308.0923.1133c.9877,1.2166,9.7562,12.0994,19.1847,26.0884,4.7135,6.9924,9.5912,14.7615,13.7356,22.4526,4.1462,7.6843,7.55,15.3113,9.3436,21.8625a82.7981,82.7981,0,0,1,2.87,21.9258,96.2725,96.2725,0,0,1-2.5734,21.91c-.6422,2.717-1.2826,4.8748-1.7555,6.3345-.2365.73-.4309,1.2856-.5627,1.65-.066.1819-.1162.3159-.1482.4l-.0339.0884-.0061.0154,1.0679.42-1.0663-.4238-.0016.0039,1.0679.42-1.0663-.4238L219.3511,280l2.4176-3.1868-.0144-.011a212.3991,212.3991,0,0,1-18.2749-16.1753c-9.925-9.7639-21.8025-23.218-30.0527-38.0293a69.7416,69.7416,0,0,1-8.61-34.2463q0-.2622.0021-.5254a4,4,0,0,0-6.3818-3.2427,74.303,74.303,0,0,1-33.8619,14.1995,147.8557,147.8557,0,0,1-20.6567,1.364,224.9224,224.9224,0,0,1-37.0143-3.32c-4.8732-.8308-8.8644-1.6611-11.6255-2.2812-1.38-.31-2.4536-.5671-3.1758-.7454-.3612-.0894-.6346-.1587-.8149-.2051-.09-.0232-.157-.0405-.2-.0518l-.0463-.0122-.01-.0027L50,197.3936l3.3682,2.1575Z"/><path  d="M206,40l-2.4861-3.1337A154.2043,154.2043,0,0,0,189.588,49.8535C181.8561,57.93,172.4644,69.2246,165.8013,82.39a68.32,68.32,0,0,0-6.9835,30.9279q0,.6676.0109,1.3273l4-.0667,2.6368-3.0078a71.0814,71.0814,0,0,0-12.4817-8.8229,59.5336,59.5336,0,0,0-16.1561-6.1167,116.6562,116.6562,0,0,0-24.5052-2.4232,159.9354,159.9354,0,0,0-33.5967,3.6,4,4,0,0,0-2.5514,5.8582,82.547,82.547,0,0,0,8.9038,12.162,84,84,0,0,0,25.8168,20.4092,92.7731,92.7731,0,0,0,19.9125,6.5969,236.61,236.61,0,0,0,30.7788,4.5681c8.6813.76,14.7032.9177,14.7629.9194a4.0036,4.0036,0,0,0,4.0914-3.6826l.0063-.08-3.9874-.3159,3.1959,2.4053c.5011-.667,7.0875-9.4531,14.3047-21.0981,3.609-5.8248,7.3766-12.364,10.626-18.9937A98.74,98.74,0,0,0,212.09,86.9141,82.2141,82.2141,0,0,0,214.281,67.73a94.31,94.31,0,0,0-4.5154-29.08,4,4,0,0,0-6.2512-1.7833L206,40l-3.7653,1.35,1.1156-.4-1.1169.3965.0013.0037,1.1156-.4-1.1169.3965A87.0022,87.0022,0,0,1,206.2811,67.73a74.2424,74.2424,0,0,1-1.97,17.3152,91.1459,91.1459,0,0,1-6.9094,17.9915,241.9712,241.9712,0,0,1-15.3174,26.2062c-4.8,7.2334-8.5151,12.1882-8.8215,12.5952a3.9947,3.9947,0,0,0-.7915,2.0894l-.0063.08,3.9875.3162.1039-3.9988-.1068-.0029c-1.1688-.0342-11.78-.3884-24.5881-1.9927a198.3771,198.3771,0,0,1-19.9158-3.4417,83.7718,83.7718,0,0,1-17.5192-5.8279,76.0963,76.0963,0,0,1-23.3055-18.473,85.797,85.797,0,0,1-6.0254-7.793c-.6708-.9838-1.172-1.7705-1.5-2.3008-.1637-.2651-.2841-.4662-.36-.5957l-.0817-.14-.016-.0278-.2347.134.2352-.1331,0-.001-.2347.134.2352-.1331-3.4823,1.968.9309,3.89.0021,0a152.71,152.71,0,0,1,31.7327-3.38,108.758,108.758,0,0,1,22.8109,2.2418,51.533,51.533,0,0,1,13.9874,5.3037,63.11,63.11,0,0,1,11.0709,7.8329,4,4,0,0,0,6.6364-3.0745q-.01-.5909-.01-1.1938a60.3561,60.3561,0,0,1,6.1232-27.3186c6.1113-12.1045,15.0343-22.9073,22.4235-30.61,3.693-3.8541,6.9993-6.9392,9.3693-9.0494,1.1849-1.0551,2.1359-1.8666,2.7843-2.4093.3241-.2712.5726-.4755.7369-.6091l.1823-.1475.0417-.0334.0077-.0062L206,40l-3.7653,1.35Z"/><path  d="M257.9385,210l3.9725-.4673a117.1371,117.1371,0,0,0-2.9381-14.5691c-2.22-8.4387-5.9225-19.3225-12.084-29.2686a56.5408,56.5408,0,0,0-19.13-18.3384l-2.0623,3.4275,1.0414,3.8618a51.2536,51.2536,0,0,0,22.5609-12.3442c8.131-7.9087,14.0441-17.4146,17.9977-24.9685a110.0879,110.0879,0,0,0,5.9568-13.3021,4,4,0,0,0-3.4978-5.3086c-.0813-.0056-1.0414-.07-2.673-.07a77.04,77.04,0,0,0-14.2473,1.386,64.7468,64.7468,0,0,0-20.1257,7.2832,72.005,72.005,0,0,0-13.0186,10.14A177.8753,177.8753,0,0,0,203.5736,135.38c-4.1786,5.2676-6.8239,9.0759-6.8593,9.1267a4.0079,4.0079,0,0,0,.9149,5.5032l.0518.0381.0205.0149,2.264-3.1182-2.8291,2.6172a3.7967,3.7967,0,0,0,.5651.501l2.264-3.1182-2.8291,2.6172,2.5286-2.3394-2.8717,1.9055a3.3365,3.3365,0,0,0,.3431.4338l2.5286-2.3394-2.8717,1.9055,1.7017-1.1292-1.7737,1.0139.072.1152,1.7017-1.1292-1.7737,1.0139.0316-.0183-.032.0176,0,.0007.0316-.0183-.032.0176c.0239.0417.1527.2988.3132.6472.3082.6643.7665,1.7019,1.3364,2.9924,2.0033,4.5334,5.4008,12.2148,9.6619,20.1479,2.1327,3.97,4.4833,8.0078,7.0093,11.7749a68.5269,68.5269,0,0,0,8.1211,10.1709A74.8,74.8,0,0,0,245.48,209.7671a71.7738,71.7738,0,0,0,11.5334,4.1243,4,4,0,0,0,4.8978-4.3586L257.9385,210l.9252-3.8916-.189.7947.1924-.7939-.0034-.0007-.189.7947.1924-.7939a65.4012,65.4012,0,0,1-10.4048-3.7722,66.74,66.74,0,0,1-19.637-13.2427,68.6893,68.6893,0,0,1-9.0587-11.9473A195.8689,195.8689,0,0,1,208.7,156.1216c-1.422-3.0867-2.587-5.7456-3.4473-7.6895-.4315-.9749-.7836-1.7649-1.0747-2.3828-.1478-.3125-.2755-.5759-.4253-.853-.0779-.1418-.1567-.2842-.2908-.488a4.6685,4.6685,0,0,0-.2883-.3911,4.0777,4.0777,0,0,0-.7714-.7278l.0205.0149-.0518-.0381L200,146.7881l3.2855,2.2813.009-.0129c.233-.3354,4.8575-6.9407,11.3358-14.5291a149.9578,149.9578,0,0,1,10.7529-11.4382,63.8749,63.8749,0,0,1,11.3278-8.84,56.8188,56.8188,0,0,1,17.6321-6.354,69.127,69.127,0,0,1,12.74-1.2427c.71,0,1.2589.0142,1.6206.0276.1808.0067.3147.0133.3983.0178l.0873.005.0145.001.0878-1.3306-.093,1.33.0052,0,.0878-1.3306-.093,1.33.2788-3.99L265.7,101.3945l1.3287.4639-1.3279-.4661-.0009.0022,1.3287.4639-1.3279-.4661a103.4431,103.4431,0,0,1-5.5822,12.4026c-3.6909,7.05-9.23,15.8206-16.3939,22.7683a43.318,43.318,0,0,1-19.07,10.3589,4,4,0,0,0-1.0209,7.2893A48.5976,48.5976,0,0,1,240.09,169.9121c5.5446,8.926,9.066,19.14,11.1443,27.0818,1.042,3.9707,1.73,7.373,2.1537,9.7651.212,1.196.3584,2.14.4507,2.7759.0461.3181.0789.56.0994.717l.0221.1729.0046.0378.0006.0044,3.9727-.467.9252-3.8916Z"/></svg>