<svg xmlns="http://www.w3.org/2000/svg" viewBox="0 0 320 320"><defs><style>.a{fill:#1a1a1a;}</style></defs><title>flat-infinity-outline</title><path class="a" d="M194.4824,217.0654a73.053,73.053,0,0,0,78.0749.7029,63.876,63.876,0,0,0,22.1422-24.3745,66.6831,66.6831,0,0,0,7.3245-30.5662,68.7075,68.7075,0,0,0-8.3756-32.9136,66.3323,66.3323,0,0,0-59.0045-34.6649c-18.9084.0056-37.9171,7.3407-50.8072,21.2468a89.651,89.651,0,0,0-15.4041,23.5524c-5.7794,12.4258-9.4281,25.4834-14.1482,37.89-4.7188,12.4153-10.4724,24.1479-20.35,34.144a51.3636,51.3636,0,0,1-18.8614,11.9922A65.5594,65.5594,0,0,1,92.35,227.9756,77.3206,77.3206,0,0,1,44.366,211.1985a61.2865,61.2865,0,0,1-16.16-19.801,58.0555,58.0555,0,0,1-6.1819-26.4751v-.0215c.0076-21.8772,7.7945-39.66,20.2076-52.0334C54.6509,100.5,71.7382,93.5321,90.4987,93.5287c15.483.0011,32.1067,4.7533,48.1481,15.2134a2.0239,2.0239,0,0,0,2.2112-3.39C124.2163,94.4967,106.8127,89.48,90.4987,89.481,70.7359,89.4775,52.574,96.8486,39.3748,110c-13.2055,13.1447-21.4064,32.06-21.3988,54.9012v.0225a62.1171,62.1171,0,0,0,6.6181,28.302c6.2965,12.4385,16.5544,22.1372,28.5528,28.7207A82.3856,82.3856,0,0,0,92.35,232.0232a69.591,69.591,0,0,0,24.1292-4.1528,55.41,55.41,0,0,0,20.3352-12.9431,84.9076,84.9076,0,0,0,15.9332-23.0715c5.9565-12.2747,9.6489-25.3062,14.2927-37.8105,4.6414-12.5129,10.2031-24.4714,19.7668-34.7991C198.8,106.28,216.769,99.2913,234.6439,99.2969a62.2854,62.2854,0,0,1,55.4531,32.56,64.6631,64.6631,0,0,1,7.8792,30.9712,62.6371,62.6371,0,0,1-6.8741,28.71,59.8169,59.8169,0,0,1-20.75,22.8362,66.8782,66.8782,0,0,1-36.2613,10.3037c-13.2741.002-26.5547-3.6719-37.3416-10.9661a2.024,2.024,0,1,0-2.2666,3.354Z"/></svg>