<svg xmlns="http://www.w3.org/2000/svg" viewBox="0 0 320 320">
  <defs>
    <style>
      .cls-1 {
        fill: #1a1a1a;
      }
    </style>
  </defs>
  <title>flat-home</title>
  <g id="Layer_16" data-name="Layer 16">
    <path class="cls-1" d="M161.3525,36.522l-2.8148-2.842-141.3525,140A4,4,0,0,0,20,180.522H48.2451V280a4,4,0,0,0,4,4h75.4282a4,4,0,0,0,4-4V180.522H190.63V280a4,4,0,0,0,4,4h73.125a4,4,0,0,0,4-4V180.522H300a4,4,0,0,0,2.8421-6.8147l-138.6475-140a4,4,0,0,0-5.6569-.0273l2.8148,2.842L158.51,39.3366,290.409,172.522H267.7549a4,4,0,0,0-4,4V276H198.63V176.522a4,4,0,0,0-4-4H127.6733a4,4,0,0,0-4,4V276H56.2451V176.522a4,4,0,0,0-4-4H29.7229L164.1673,39.364l-2.8148-2.842L158.51,39.3366Z"/>
  </g>
</svg>
