<svg xmlns="http://www.w3.org/2000/svg" viewBox="0 0 320 320"><defs><style>.a{fill:#1a1a1a;}</style></defs><title>flat-shrink-filled</title><polygon class="a" points="149.964 150.144 137.143 98.859 125.925 116.488 52.524 43.088 66.249 29.364 56.381 20 20 56.381 29.688 65.926 42.909 52.704 116.309 126.104 98.68 137.323 149.964 150.144"/><polygon class="a" points="175.606 175.786 188.428 227.071 199.646 209.442 273.046 282.842 259.322 296.565 269.189 305.93 305.57 269.549 295.883 260.004 282.662 273.226 209.262 199.826 226.892 188.607 175.606 175.786"/><path class="a" d="M149.9639,150.1436l1.94-.4851L139.0828,98.3738a2,2,0,0,0-3.6277-.5886l-9.8794,15.5258L55.3525,43.0883l12.3105-12.31a2,2,0,0,0-.0376-2.865l-9.8682-9.3643a1.997,1.997,0,0,0-2.7908.0366L18.5857,54.9671a2,2,0,0,0,.01,2.8389L28.2837,67.35a2,2,0,0,0,2.8179-.01L42.9089,55.5324l70.2222,70.2227-15.5254,9.88a2,2,0,0,0,.5889,3.6276l51.2842,12.8208a2,2,0,0,0,2.4253-2.4254l-1.94.4851.4849-1.94L103.68,136.5113l13.7024-8.72a2,2,0,0,0,.34-3.1015L44.3232,51.29a2,2,0,0,0-2.8284,0L29.6768,63.1078l-6.8379-6.737L56.4172,22.7916l6.9656,6.61L51.11,41.6741a2,2,0,0,0,0,2.8284l73.4,73.4a2,2,0,0,0,3.1016-.3405l8.719-13.7028,11.6924,46.7694,1.94-.485.4849-1.94Z"/><path class="a" d="M175.6064,175.7861l-1.94.485,12.8213,51.2847a2,2,0,0,0,3.6277.5887l9.88-15.5255,70.2222,70.2227L257.908,295.1512a2,2,0,0,0,.0374,2.8649l9.8672,9.3647a1.9973,1.9973,0,0,0,2.791-.0364l36.3809-36.3813a2,2,0,0,0-.01-2.8389l-9.6875-9.5444a2,2,0,0,0-2.8179.01l-11.8066,11.807L212.4387,200.175l15.5266-9.88a2,2,0,0,0-.5889-3.6276l-51.2852-12.8213a2,2,0,0,0-2.4253,2.4254l1.94-.485-.4851,1.94,46.7693,11.6923-13.7029,8.72a2,2,0,0,0-.34,3.1016l73.4,73.3994a2,2,0,0,0,2.8284,0l11.8169-11.8175,6.8379,6.737-33.5781,33.5788-6.9651-6.61L274.46,284.256a2,2,0,0,0,0-2.8284l-73.3994-73.4a2,2,0,0,0-3.1016.34l-8.72,13.7021L177.5466,175.301l-1.94.4851-.4851,1.94Z"/></svg>