<svg xmlns="http://www.w3.org/2000/svg" viewBox="0 0 320 320"><defs><style>.a{fill:#1a1a1a;}</style></defs><title>flat-display-filled</title><rect class="a" x="150" y="230" width="20" height="20"/><path class="a" d="M280,70V200H40V70ZM40,230H280V70H40Z"/><polygon class="a" points="150 230 148 230 148 252 172 252 172 228 148 228 148 230 150 230 150 232 168 232 168 248 152 248 152 230 150 230 150 232 150 230"/><polygon class="a" points="120 250 120 252 200 252 200 248 120 248 120 252 120 250 120 252 200 252 200 248 120 248 120 252 120 250"/><path class="a" d="M280,70h-2V198H42V72H280V70h0V68H38V202H282V68h-2ZM40,230v2H282V68H38V232h2v-2h2V72H278V228H40v2h0Z"/></svg>