<svg xmlns="http://www.w3.org/2000/svg" viewBox="0 0 320 320"><defs><style>.a{fill:#1a1a1a;}</style></defs><title>flat-hammer-filled</title><path class="a" d="M149.0908,138.1816l32.7275,32.7275L76.584,276.1431a13.168,13.168,0,0,1-18.6226,0L43.8569,262.0386a13.168,13.168,0,0,1,0-18.6226Z"/><path class="a" d="M160,127.2729,192.7271,160l21.8184-21.8184s12.2729,10,10.9092,21.8184,0,10.9092,0,10.9092L244.5454,190A3.8568,3.8568,0,0,0,250,190l27.5723-27.5723A8.2878,8.2878,0,0,0,280,156.5669V141.6152a8.289,8.289,0,0,0-2.4277-5.8613l-8.4814-8.481s-15,2.2725-21.8179,0-10.9092-10.9092-10.9092-10.9092V94.5454L192.7271,50.9092S170.4546,40,149.0908,40H94.5454s30,8.1816,54.5454,21.8184S176.3638,90,170.9092,105.4546,160,127.2729,160,127.2729Z"/><path class="a" d="M149.0908,138.1816l-1.4143,1.4142L178.99,170.9091,75.17,274.7288a11.1677,11.1677,0,0,1-15.7939,0L45.2711,260.6243a11.1677,11.1677,0,0,1,0-15.7939L150.505,139.5958l-1.4142-1.4142-1.4143,1.4142,1.4143-1.4142-1.4143-1.4143L42.4426,242.0017a15.1683,15.1683,0,0,0,0,21.4512l14.1044,14.1044a15.1683,15.1683,0,0,0,21.4512,0L184.6467,170.9091l-35.556-35.5559-1.4142,1.4142Z"/><path class="a" d="M160,127.2729l-1.4143,1.4142,34.1412,34.1414L215.96,139.5958l-1.4142-1.4142-1.2634,1.55.0006,0a36.1675,36.1675,0,0,1,5.3008,5.6833,28.5868,28.5868,0,0,1,3.4644,5.8732,17.5249,17.5249,0,0,1,1.5125,6.861,14.2325,14.2325,0,0,1-.0927,1.6219,76.3479,76.3479,0,0,0-.6193,8.3087,10.7178,10.7178,0,0,0,.2975,2.9663,2.9059,2.9059,0,0,0,.6084,1.135,2.27,2.27,0,0,0,.7092.5325,2.1677,2.1677,0,0,0,.9277.21,2.137,2.137,0,0,0,.7209-.125,2.0811,2.0811,0,0,0,.4265-.21l-1.084-1.6807-1.4143,1.4142,19.0908,19.0908a5.8571,5.8571,0,0,0,8.283,0l27.5724-27.5724A10.2876,10.2876,0,0,0,282,156.5669V141.6152a10.2893,10.2893,0,0,0-3.0134-7.2756l-9.1964-9.1957-.9988.1515-.0673.01a99.065,99.065,0,0,1-12.7644.9774,43.1807,43.1807,0,0,1-4.4917-.21,17.4375,17.4375,0,0,1-3.5627-.6975,12.1765,12.1765,0,0,1-3.9258-2.2965,23.4024,23.4024,0,0,1-4.2914-4.9629c-.5044-.7657-.8914-1.4333-1.1479-1.9017-.1284-.2341-.2242-.4186-.2863-.5405l-.0673-.1346-.0142-.0293-.0022-.0046-.7289.348.73-.3457-.001-.0023-.7289.348.73-.3457-1.8074.8562h2V93.7167L193.9058,49.26l-.2991-.1465a122.98,122.98,0,0,0-14.0579-5.5571c-8.3636-2.7645-19.4381-5.5508-30.458-5.5559H94.5454l-.5262,3.93s.1083.03.3295.0915c1.6578.4645,9.4126,2.6865,19.6,6.3778A242.3942,242.3942,0,0,1,148.12,63.5667c8.7693,4.87,14.5731,9.7985,18.15,14.69a24.3286,24.3286,0,0,1,5,14.799,35.3889,35.3889,0,0,1-2.2465,11.7336,96.9383,96.9383,0,0,1-7.3436,16.3658c-.9915,1.7075-1.81,2.934-2.3713,3.7223-.2806.3942-.4968.6788-.6382.8595-.0707.09-.1226.1544-.1544.1934l-.0326.0394-.0046.0056.6957.59-.6925-.5934-.0032.0038.6957.59-.6925-.5934-1.2053,1.4061,1.31,1.31L160,127.2729l1.5184,1.3015c.1538-.1779,5.741-6.767,11.2766-22.4543a39.3373,39.3373,0,0,0,2.4744-13.0647,28.37,28.37,0,0,0-5.7725-17.1615c-4.0442-5.521-10.33-10.7635-19.4349-15.8239a250.7723,250.7723,0,0,0-36.78-16.1595c-10.6329-3.7728-18.1759-5.83-18.2108-5.84L94.5454,40v2h54.5454c10.3439-.0051,21.0873,2.6631,29.2009,5.3533,4.0581,1.3434,7.4619,2.6882,9.8433,3.6938,1.1907.5028,2.1259.9208,2.76,1.2114.317.1453.5586.2587.7192.335l.18.0858.0537.026.88-1.7961-1.4143,1.4142,43.0509,43.05v21.44l.1925.4064a30.332,30.332,0,0,0,3.1185,4.9637,25.34,25.34,0,0,0,3.7295,3.9563,16.14,16.14,0,0,0,5.2361,3.03,21.27,21.27,0,0,0,4.4044.88,47.0264,47.0264,0,0,0,4.9148.2322A102.849,102.849,0,0,0,269.39,129.25l-.2994-1.9774-1.4142,1.4142,8.4814,8.481A6.2892,6.2892,0,0,1,278,141.6152v14.9517a6.288,6.288,0,0,1-1.842,4.4465l-27.5723,27.5723a1.8565,1.8565,0,0,1-2.6261,0l-20.2325-20.2324-1.3566.8751L225.41,170.84l-.6471-1.8057a1.9076,1.9076,0,0,0-.3923.1942L225.41,170.84l-.6471-1.8057.6283,1.7533v-1.8625a1.8631,1.8631,0,0,0-.6283.1093l.6283,1.7533v-.0216l.7919-1.663a1.8552,1.8552,0,0,0-.7919-.178v1.8409l.7919-1.663-.75,1.5743,1.2467-1.2214a1.75,1.75,0,0,0-.4971-.3529l-.75,1.5743,1.2467-1.2214-.9307.9119,1.219-.493a1.3213,1.3213,0,0,0-.2883-.4188l-.9307.9119,1.219-.493-.2587.1045.2676-.0808-.0089-.0237-.2587.1045.2676-.0808a7.9535,7.9535,0,0,1-.1292-1.8176,72.9479,72.9479,0,0,1,.5931-7.8514,18.1848,18.1848,0,0,0,.1188-2.0792,21.5664,21.5664,0,0,0-1.8854-8.552,35.412,35.412,0,0,0-6.1558-9.3329,36.5508,36.5508,0,0,0-3.71-3.634l-1.4005-1.1411-21.6813,21.6814-31.3127-31.3127L160,127.2729l1.5184,1.3015Z"/></svg>