<svg xmlns="http://www.w3.org/2000/svg" viewBox="0 0 320 320"><defs><style>.a{fill:#1a1a1a;}</style></defs><title>flat-male</title><path class="a" d="M197.8184,57.9287h4a41.8748,41.8748,0,1,0-12.25,29.6245,41.8626,41.8626,0,0,0,12.25-29.6245h-8a33.8842,33.8842,0,1,1-9.9133-23.9933,33.8174,33.8174,0,0,1,9.9133,23.9933Z"/><path class="a" d="M191.5376,98.75v-4H128.4624A33.1913,33.1913,0,0,0,99.44,111.7308l.0037-.0065q-.1342.24-.2622.4736A60.11,60.11,0,0,0,92,141.124v53.2344a14.9216,14.9216,0,0,0,14.9077,14.9354h4.7578A14.9629,14.9629,0,0,0,126.6031,194.92l2.4844-61.6152-3.9967-.1611h-4V289.9014A14.1148,14.1148,0,0,0,135.1631,304h9.3276a14.0389,14.0389,0,0,0,14.0187-13.575l2.479-73.0139-.9167-.0317.64.6511a.9255.9255,0,0,0,.2766-.62l-.9167-.031.64.6511L160,217.3062v1.0111a1.03,1.03,0,0,0,.7118-.2869L160,217.3062v0l-.7119.7242a1.03,1.03,0,0,0,.7119.2869v-1.0111l-.7119.7242.64-.651-.9164.0309a.9255.9255,0,0,0,.2766.62l.64-.651-.9164.0309,2.479,73.0144A14.0389,14.0389,0,0,0,175.5093,304h9.3721a14.0405,14.0405,0,0,0,14.0277-14.0536V133.1436h-4l-3.9968.1611,2.4858,61.6582a14.9182,14.9182,0,0,0,14.8938,14.3309h4.7563A14.9982,14.9982,0,0,0,228,194.3135V141.124a60.1087,60.1087,0,0,0-7.181-28.9249c-.0862-.157-.1733-.3149-.2628-.4747l.0037.0065A33.1912,33.1912,0,0,0,191.5376,94.75v8a25.1912,25.1912,0,0,1,22.0334,12.8746l.0037.0065q.1133.2027.231.417A52.1233,52.1233,0,0,1,220,141.124v53.1895a6.9988,6.9988,0,0,1-6.9517,6.98H208.292a6.9186,6.9186,0,0,1-6.9-6.6533l-2.4858-61.6583a4,4,0,0,0-7.9967.1613V289.9463A6.041,6.041,0,0,1,184.8813,296h-9.3721a6.0389,6.0389,0,0,1-6.0233-5.8469L167.007,217.14a7.0817,7.0817,0,0,0-2.1107-4.8145,6.974,6.974,0,0,0-9.7926,0,7.082,7.082,0,0,0-2.1107,4.8152l-2.479,73.0129A6.0389,6.0389,0,0,1,144.4907,296h-9.3276a6.1152,6.1152,0,0,1-6.0724-6.0986V133.1436a4,4,0,0,0-7.9967-.1613L118.61,194.5975a6.963,6.963,0,0,1-6.9441,6.6964h-4.7578A6.922,6.922,0,0,1,100,194.3584V141.124a52.1243,52.1243,0,0,1,6.1949-25.0771q.1168-.2128.23-.4159l.0037-.0065A25.1912,25.1912,0,0,1,128.4624,102.75h63.0752Z"/></svg>