<svg xmlns="http://www.w3.org/2000/svg" viewBox="0 0 320 320">
  <defs>
    <style>
      .cls-1 {
        fill: #1a1a1a;
      }
    </style>
  </defs>
  <title>flat-note</title>
  <g id="Layer_16" data-name="Layer 16">
    <path class="cls-1" d="M50,290h4V74H177.8591L276,221.2111V286H50v4h0v4H280a4,4,0,0,0,4-4V220a3.9539,3.9539,0,0,0-.6718-2.2189l-100-150A4,4,0,0,0,180,66H50a4,4,0,0,0-4,4V290a4,4,0,0,0,4,4ZM160,150l-2.0155,3.4551,120,70a4,4,0,0,0,5.3436-5.674l-100-150a4,4,0,0,0-7.2087,1.2487l-20,80a4.0054,4.0054,0,0,0,1.8651,4.4253L160,150l3.88.97,17.8069-71.2278,85.3942,128.0912L162.0154,146.5448,160,150l3.88.97Z"/>
  </g>
</svg>
