<svg xmlns="http://www.w3.org/2000/svg" viewBox="0 0 320 320">
  <defs>
    <style>
      .cls-1 {
        fill: #1a1a1a;
      }
    </style>
  </defs>
  <title>flat-tag-outline</title>
  <g id="Layer_16" data-name="Layer 16">
    <path class="cls-1" d="M184,280l1.4141-1.4142L42,135.1715V42h93.1715l142,142-94.5857,94.5858L184,280l1.4141-1.4142L184,280l1.4141,1.4142L282.8281,184l-146-146H38v98.8286l146,146,1.4146-1.4141ZM74.3828,54.1914v-2A22.1916,22.1916,0,1,0,96.5741,74.3833,22.1921,22.1921,0,0,0,74.3828,52.1914v4A18.1918,18.1918,0,1,1,61.52,61.52a18.1256,18.1256,0,0,1,12.8633-5.3282Z"/>
  </g>
</svg>
