<svg xmlns="http://www.w3.org/2000/svg" viewBox="0 0 320 320"><defs><style>.a{fill:#1a1a1a;}</style></defs><title>flat-pie-chart</title><path  d="M253.0771,151.5381h4A105.5386,105.5386,0,1,0,151.5381,257.0769a3.9994,3.9994,0,0,0,4-4v-97.54l97.5393,0a3.9994,3.9994,0,0,0,4-4h-4v-4H151.5381a3.9994,3.9994,0,0,0-4,4V253.0771h4v-4a97.5384,97.5384,0,1,1,97.5391-97.5391h4v0Z"/><path  d="M270,168.4619v-4H168.4619a3.9994,3.9994,0,0,0-4,4V270a4,4,0,0,0,4,4A105.5372,105.5372,0,0,0,274,168.4619a4,4,0,0,0-4-4v4h-4A97.5385,97.5385,0,0,1,168.4619,266v4h4V172.4614l97.5383,0v-4h0Z"/></svg>