<svg xmlns="http://www.w3.org/2000/svg" viewBox="0 0 320 320">
  <defs>
    <style>
      .cls-1 {
        fill: #1a1a1a;
      }
    </style>
  </defs>
  <title>flat-lock</title>
  <g id="Layer_16" data-name="Layer 16">
    <g>
      <path  d="M131.0615,185.6h4a23.8092,23.8092,0,0,1,1.0342-7.2405,17.3557,17.3557,0,0,1,5.3408-8.0912,22.8257,22.8257,0,0,1,5.7708-3.55,34.1115,34.1115,0,0,1,8.5437-2.3794c1.1721-.1723,2.1433-.2577,2.8025-.2993.33-.0208.5813-.0308.7415-.0355l.17-.0039.03,0-.0083-1.1478,0,1.1478h.0081l-.0083-1.1478,0,1.1478v-1.094L159.4783,164h.0081v-1.094L159.4783,164a30.672,30.672,0,0,1,4.1995.4089,35.0761,35.0761,0,0,1,6.3752,1.6267,26.168,26.168,0,0,1,5.0818,2.46,18.2977,18.2977,0,0,1,6.1523,6.2512,21.0874,21.0874,0,0,1,2.625,10.8529c-.0012,5.9428-1.0278,10.1412-2.4055,13.121A15.6108,15.6108,0,0,1,177.97,203.71a13.3922,13.3922,0,0,1-5.4785,3.0708,12.1548,12.1548,0,0,1-1.8521.3757c-.2122.025-.3674.036-.4529.0407l-.074.0032.0408,1.5529V207.2l-.0408,0,.0408,1.5529V207.2a4,4,0,0,0-3.95,4.63l7.261,45.503H145.509l7.2612-45.503a4,4,0,0,0-3.95-4.63v1.8057l.042-1.8055-.042,0v1.8057l.042-1.8055a10.4581,10.4581,0,0,1-2.2522-.3842,13.4847,13.4847,0,0,1-3.4131-1.4559,14.3271,14.3271,0,0,1-5.35-5.863c-1.5674-3.0192-2.7837-7.4188-2.7861-13.8973h-8c-.0012,6.8572,1.1919,12.2588,3.144,16.4791a23.63,23.63,0,0,0,5.36,7.4987A21.3982,21.3982,0,0,0,144.31,214.48a17.6723,17.6723,0,0,0,4.51.72v-4l-3.95-.63-8,50.1333a4,4,0,0,0,3.95,4.63h37.333a4,4,0,0,0,3.95-4.63l-8-50.1333-3.95.63v4a16.8558,16.8558,0,0,0,3.7092-.5106,21.4745,21.4745,0,0,0,5.47-2.144,22.19,22.19,0,0,0,8.6709-8.9424c2.3967-4.4115,3.9116-10.2913,3.9087-18.0031a31.79,31.79,0,0,0-1.4087-9.66,25.4065,25.4065,0,0,0-7.751-11.7386,30.8006,30.8006,0,0,0-7.7861-4.8156,42.0271,42.0271,0,0,0-10.5808-2.9622,28.6329,28.6329,0,0,0-9.9341.02,43.4155,43.4155,0,0,0-7.8486,1.9243,34.6,34.6,0,0,0-6.7332,3.174,26.4384,26.4384,0,0,0-8.9868,8.9925,29.0076,29.0076,0,0,0-3.821,15.065Z"/>
      <path  d="M230.5488,134.4h4c-.0015-12.8015.0054-25.71-1.1272-37.9684a119.5427,119.5427,0,0,0-5.0232-26.1925A65.152,65.152,0,0,0,220.1,53.2065a53.069,53.069,0,0,0-22.8621-18.5183c-9.9756-4.354-22.3623-6.6872-37.7512-6.6881a113.0427,113.0427,0,0,0-24.3176,2.3939C122.69,33.1367,113.011,38.2462,105.75,45.174A56.0133,56.0133,0,0,0,93.2412,63.2824c-4.4973,10.15-6.6558,21.64-7.7415,33.7242-1.08,12.0865-1.0737,24.7919-1.075,37.3933h4v-4H60a4,4,0,0,0-4,4V288a4,4,0,0,0,4,4H258.9736a4,4,0,0,0,4-4V134.4a4,4,0,0,0-4-4H230.5488v4h0v4h24.4246V284H64V138.4H88.4248a4,4,0,0,0,4-4c-.0015-12.7985.0054-25.49,1.0935-37.2313a111.7234,111.7234,0,0,1,4.6575-24.4325,57.1738,57.1738,0,0,1,7.262-14.9561,45.0023,45.0023,0,0,1,19.5-15.76c8.69-3.7975,19.9587-6.0206,34.5493-6.02a105.1192,105.1192,0,0,1,22.5945,2.2061c11.3242,2.5071,19.4973,6.9352,25.6252,12.7606A48.0062,48.0062,0,0,1,218.42,66.527c3.9756,8.9451,6.0535,19.603,7.0859,31.1925,1.0383,11.5872,1.0444,24.0818,1.0432,36.68a4,4,0,0,0,4,4Zm-113.6992,0h4c-.001-12.7985.0037-23.9356.6567-33.3229a90.388,90.388,0,0,1,2.7622-18.0864,33.9367,33.9367,0,0,1,4.1584-9.519,22.2724,22.2724,0,0,1,4.5662-5.0793,27.1558,27.1558,0,0,1,10.3259-5.0065A62.9233,62.9233,0,0,1,159.4863,61.6a69.5764,69.5764,0,0,1,13.3042,1.1253,35.0609,35.0609,0,0,1,8.4666,2.6994,23.3191,23.3191,0,0,1,5.4,3.541,24.8034,24.8034,0,0,1,6.3745,9.2042c2.4316,5.7282,3.7734,13.3515,4.4265,22.77.6624,9.4159.6672,20.5994.6663,33.46h4v-4H116.85v4h0v4H202.124a4,4,0,0,0,4-4c-.001-12.8015.0037-24.0642-.6758-33.8768A98.011,98.011,0,0,0,202.4019,80.81a41.8734,41.8734,0,0,0-5.1777-11.7435,30.2961,30.2961,0,0,0-6.197-6.8809,35.145,35.145,0,0,0-13.3015-6.5265A70.737,70.737,0,0,0,159.4863,53.6a77.4464,77.4464,0,0,0-14.8433,1.2747,43.0088,43.0088,0,0,0-10.39,3.3381,31.3245,31.3245,0,0,0-7.2327,4.7565,32.8146,32.8146,0,0,0-8.4478,12.0868c-2.9763,7.0714-4.3389,15.4791-5.0376,25.3232-.69,9.8464-.6848,21.1564-.6858,34.02a4,4,0,0,0,4,4Z"/>
    </g>
  </g>
</svg>
