<svg xmlns="http://www.w3.org/2000/svg" viewBox="0 0 320 320">
  <defs>
    <style>
      .cls-1 {
        fill: #1a1a1a;
      }
    </style>
  </defs>
  <title>flat-plus</title>
  <g id="Layer_16" data-name="Layer 16">
    <path class="cls-1" d="M241.625,142.9863v-4H182.8569V78.4819A22.27,22.27,0,0,0,176.11,62.557a22.8067,22.8067,0,0,0-32.0059,0,22.27,22.27,0,0,0-6.7466,15.9249v60.5044H78.5889a22.7031,22.7031,0,0,0-15.8511,6.3261,21.9723,21.9723,0,0,0,0,31.4583,22.7029,22.7029,0,0,0,15.8511,6.3264h58.7681l0,58.4209a22.27,22.27,0,0,0,6.7466,15.9249,22.8068,22.8068,0,0,0,32.0059,0,22.27,22.27,0,0,0,6.7471-15.9249V183.0972H241.625a22.7037,22.7037,0,0,0,15.8511-6.3263,21.9713,21.9713,0,0,0,0-31.4584,22.7039,22.7039,0,0,0-15.8511-6.326v8a14.6963,14.6963,0,0,1,10.2866,4.0739,13.97,13.97,0,0,1,0,19.963,14.696,14.696,0,0,1-10.2866,4.0741H178.8574a4,4,0,0,0-4,4v62.4209A14.2642,14.2642,0,0,1,170.51,251.73a14.8073,14.8073,0,0,1-20.8052,0,14.2639,14.2639,0,0,1-4.3477-10.2123V179.0972a4,4,0,0,0-4-4H78.5889a14.6955,14.6955,0,0,1-10.2861-4.074,13.9706,13.9706,0,0,1,0-19.9631,14.695,14.695,0,0,1,10.2861-4.0738h62.7686a4,4,0,0,0,4-4V78.4819A14.2639,14.2639,0,0,1,149.7046,68.27a14.8073,14.8073,0,0,1,20.8052,0,14.2641,14.2641,0,0,1,4.3477,10.2123v64.5044a4,4,0,0,0,4,4H241.625Z"/>
  </g>
</svg>
