<svg xmlns="http://www.w3.org/2000/svg" viewBox="0 0 320 320">
  <defs>
    <style>
      .cls-1 {
        fill: #1a1a1a;
      }
    </style>
  </defs>
  <title>flat-plus-filled</title>
  <g id="Layer_16" data-name="Layer 16">
    <g>
      <path class="cls-1" d="M242.7676,142.9863H179.999V78.4819a18.7519,18.7519,0,0,0-37.5,0v64.5044H79.7314a18.06,18.06,0,1,0,0,36.1108H142.499v62.4209a18.7519,18.7519,0,0,0,37.5,0V179.0972h62.7686a18.06,18.06,0,1,0,0-36.1108Z"/>
      <path class="cls-1" d="M242.7676,142.9863v-2h-60.77l0-62.5044a20.27,20.27,0,0,0-6.1465-14.4967,20.8073,20.8073,0,0,0-29.2061,0,20.2682,20.2682,0,0,0-6.147,14.4968v62.5044H79.7314a20.7017,20.7017,0,0,0-14.46,5.763,19.9713,19.9713,0,0,0,0,28.5846,20.7016,20.7016,0,0,0,14.46,5.7633h60.7671l0,60.4209a20.2683,20.2683,0,0,0,6.147,14.4968,20.8074,20.8074,0,0,0,29.2061,0,20.27,20.27,0,0,0,6.1465-14.4967V181.0972h60.769a20.7018,20.7018,0,0,0,14.4595-5.7633,19.9724,19.9724,0,0,0,0-28.5845,20.702,20.702,0,0,0-14.4595-5.763v4a16.696,16.696,0,0,1,11.6768,4.6369,15.97,15.97,0,0,1,0,22.8369,16.6958,16.6958,0,0,1-11.6768,4.6371H177.999v64.4209a16.2652,16.2652,0,0,1-4.9473,11.64,16.8073,16.8073,0,0,1-23.6055,0,16.2658,16.2658,0,0,1-4.9478-11.64V177.0972H79.7314A16.6985,16.6985,0,0,1,68.0532,172.46a15.97,15.97,0,0,1,0-22.8368,16.6988,16.6988,0,0,1,11.6782-4.6369h64.7671V78.4819a16.2658,16.2658,0,0,1,4.9478-11.64,16.8073,16.8073,0,0,1,23.6055,0,16.2652,16.2652,0,0,1,4.9473,11.64v66.5044h64.7686Z"/>
    </g>
  </g>
</svg>
