<svg xmlns="http://www.w3.org/2000/svg" viewBox="0 0 320 320"><defs><style>.a{fill:#1a1a1a;}</style></defs><title>flat-checkmark-filled</title><path class="a" d="M120.4854,207.7637,228.6216,74.0322A109.9967,109.9967,0,0,0,50,160a110.95,110.95,0,0,0,.9482,14.4692L60,162.4Z"/><path class="a" d="M249.5342,96.0874,126.8,250,56.4756,197.2568A110.0135,110.0135,0,1,0,249.5342,96.0874Z"/><path class="a" d="M120.4854,207.7637l1.5552,1.2575L231.4414,73.7257,229.87,72.47A111.9966,111.9966,0,0,0,48,160a112.9394,112.9394,0,0,0,.9652,14.73l3.583.9393L60.4,165.2l60.428,45.3208,1.2126-1.5-1.5552-1.2575,1.2-1.6L59.6,159.6,49.3481,173.2693l1.6,1.2,1.9829-.2607A108.96,108.96,0,0,1,52,160,107.9967,107.9967,0,0,1,227.3728,75.5945l1.2488-1.5623-1.5553-1.2575L118.93,206.5061l1.5553,1.2575,1.2-1.6Z"/><path class="a" d="M249.5342,96.0874,247.97,94.84,126.4465,247.2351l-68.771-51.5782-3.0818,2.2774A112.0134,112.0134,0,1,0,251.1609,94.924l-1.54-2.1534-1.65,2.07,1.5637,1.2469-1.6268,1.1634a108.0109,108.0109,0,1,1-189.55,99.3287l-1.8817.6774-1.2,1.6,71.8772,53.9081L251.0978,97.3343l-1.5636-1.2469-1.6268,1.1634Z"/></svg>