<svg xmlns="http://www.w3.org/2000/svg" viewBox="0 0 320 320"><defs><style>.a{fill:#1a1a1a;}</style></defs><title>flat-bell</title><path class="a" d="M270,214.6l1.7853-3.5795-.721,1.4455.7256-1.4432-.0046-.0023-.721,1.4455.7256-1.4432a75.6229,75.6229,0,0,1-17.5017-13.1753,62.3835,62.3835,0,0,1-11.7239-16.0519,48.9943,48.9943,0,0,1-5.23-22.0623V123.1558a80.3864,80.3864,0,0,0-1.2005-12.09A97.044,97.044,0,0,0,230.92,91.9476,79.4533,79.4533,0,0,0,222.4611,75.81a65.363,65.363,0,0,0-23.2727-20.9475C188.935,49.3887,176.0251,45.9948,160,46a91.9873,91.9873,0,0,0-25.3024,3.2966,66.105,66.105,0,0,0-30.1958,17.9281,72.2305,72.2305,0,0,0-12.69,18.4625,94.2887,94.2887,0,0,0-8,25.7119,79.7583,79.7583,0,0,0-1.1454,11.7567s0,18.289,0,36.5776a49.0148,49.0148,0,0,1-5.3051,22.212c-4.7868,9.5685-12.1063,16.9129-18.2547,21.8127a78.5627,78.5627,0,0,1-7.8152,5.5042c-.9889.6071-1.78,1.0579-2.3134,1.3513-.2665.1467-.4685.254-.5982.322l-.1394.0722-.0273.0139.2009.398-.199-.3989-.0019.0009.2009.398-.199-.3989A4,4,0,0,0,50,218.6H270a4,4,0,0,0,1.7853-7.5794L270,214.6v-4H50v4l1.7854,3.5794A82.8419,82.8419,0,0,0,71.158,203.7153,70.5813,70.5813,0,0,0,84.5129,185.53a57.0469,57.0469,0,0,0,6.1531-25.7966V123.1558h-.619l.619.0024v-.0024h-.619l.619.0024a74.56,74.56,0,0,1,1.17-11.24,88.7055,88.7055,0,0,1,4.8756-17.5178,71.02,71.02,0,0,1,7.6507-14.393A57.258,57.258,0,0,1,124.788,61.8089C133.7652,57.0731,145.2038,54.0049,160,54a84.0088,84.0088,0,0,1,23.11,2.99A58.0558,58.0558,0,0,1,209.718,72.7555,64.2438,64.2438,0,0,1,220.9923,89.183a86.3592,86.3592,0,0,1,7.3011,23.5078c.5238,3.2011.7846,5.8588.9137,7.6953.0646.9182.0963,1.6312.1119,2.1044.0078.2365.0115.4131.0132.5255l.0015.12v.0227l.668-.0026h-.6679v.0026l.668-.0026h-.6679s0,18.289,0,36.5776a57.0457,57.0457,0,0,0,6.1531,25.7966c5.5255,11.0066,13.6744,19.0933,20.4164,24.4809a76.7643,76.7643,0,0,0,12.3111,8.1686L270,214.6v0Z"/><path class="a" d="M111.3851,222.2415c-.0643,1.0074-.1116,2.0533-.1116,3.14a48.7266,48.7266,0,0,0,97.4531,0c0-1.0871-.0473-2.133-.1116-3.14l-7.9836.51c.0577.9027.0954,1.7767.0953,2.63a40.7267,40.7267,0,0,1-81.4532,0c0-.8534.0376-1.7274.0954-2.63l-7.9837-.51Z"/></svg>