<svg xmlns="http://www.w3.org/2000/svg" viewBox="0 0 320 320">
  <defs>
    <style>
      .cls-1 {
        fill: #1a1a1a;
      }
    </style>
  </defs>
  <title>flat-arrow-right</title>
  <g id="Layer_16" data-name="Layer 16">
    <path class="cls-1" d="M169.1968,246.1211l2.8287,2.8279,77.0181-77.0352-2.8287-2.8279,2.4874,3.1323a13.179,13.179,0,0,0,2.8124-3.3274,17.2336,17.2336,0,0,0,2.4852-9.11,15.4731,15.4731,0,0,0-.8274-4.9785,17.2049,17.2049,0,0,0-2.7076-4.9973,14.3355,14.3355,0,0,0-1.7777-1.9363l-2.6281,3.0156,2.8287-2.8281L171.87,71.0215A17.0324,17.0324,0,0,0,159.811,66,16.8917,16.8917,0,0,0,142.96,82.9082a17.024,17.024,0,0,0,4.9991,12.0552l48.0232,48.021-112.99-.0088A16.8144,16.8144,0,0,0,70.94,148.1084a17.29,17.29,0,0,0,.0048,24.2058A16.8247,16.8247,0,0,0,83,177.448l112.9706-.0017-47.9624,47.738-.0068.0068a16.8551,16.8551,0,0,0,11.87,28.8081,17.1826,17.1826,0,0,0,12.1541-5.0493l-2.8279-2.8289-2.828-2.8291A9.178,9.178,0,0,1,159.8706,246a8.72,8.72,0,0,1-6.2187-2.5652,8.8314,8.8314,0,0,1,.0063-12.5867l-.0068.0068,54.83-54.5732a4,4,0,0,0-2.8219-6.8352l-122.66.002a8.8159,8.8159,0,0,1-6.3279-2.7195,9.2906,9.2906,0,0,1-.0034-13.0356,8.8067,8.8067,0,0,1,6.3236-2.7175l122.6481.01a4,4,0,0,0,2.8286-6.8284l-54.8521-54.85a9.0153,9.0153,0,0,1-2.6566-6.3989,8.8745,8.8745,0,0,1,2.6143-6.3142,8.7512,8.7512,0,0,1,6.2371-2.5947,9.0253,9.0253,0,0,1,6.4017,2.6785L243.23,153.7126l.2007.1875,1.1013-1.2637-1.1335,1.2351.0322.0286,1.1013-1.2637-1.1335,1.2351a9.1893,9.1893,0,0,1,2.2424,3.637A7.4373,7.4373,0,0,1,246,159.7813a9.2016,9.2016,0,0,1-1.3,4.9189,6.9215,6.9215,0,0,1-.8181,1.0884c-.0991.1062-.1709.1738-.2015.2017l-.0149.0134,0,0,1.39,1.6211-1.3275-1.6716-.062.0505,1.39,1.6211-1.3275-1.6716a3.586,3.586,0,0,0-.3413.3044L166.3679,243.293Z"/>
  </g>
</svg>
