<svg xmlns="http://www.w3.org/2000/svg" viewBox="0 0 320 320"><defs><style>.a{fill:#1a1a1a;}</style></defs><title>flat-phone-outline</title><path class="a" d="M101.4834,137.4019l.9222,2.3236a25.53,25.53,0,0,0,6.4918-4.19c3.2074-2.6641,6.4773-5.9574,9.5941-8.7689a53.6464,53.6464,0,0,1,4.4666-3.6916,14.8649,14.8649,0,0,1,3.7064-2.07,74.7233,74.7233,0,0,1,14.6836-2.9427,173.9711,173.9711,0,0,1,37.3035,0,74.7256,74.7256,0,0,1,14.6836,2.9427,18.5656,18.5656,0,0,1,5.1414,3.1624c2.9424,2.3475,6.1892,5.5788,9.4058,8.5355,1.6121,1.48,3.2214,2.8936,4.8264,4.11a21.5068,21.5068,0,0,0,4.8855,2.9132,16.2378,16.2378,0,0,0,3.9993.9273,38.5029,38.5029,0,0,0,4.5293.2388,85.907,85.907,0,0,0,12.2852-1.02c1.9075-.2989,5.0154-.7744,8.0464-1.5617a29.4433,29.4433,0,0,0,4.3989-1.4734,10.5384,10.5384,0,0,0,3.6672-2.4665,16.9523,16.9523,0,0,0,2.8252-4.76,41.7961,41.7961,0,0,0,2.4409-9.1048,60.9012,60.9012,0,0,0,.7866-9.5751,34.2652,34.2652,0,0,0-.6-6.8906l0-.0011a22.8766,22.8766,0,0,0-3.1106-7,63.8257,63.8257,0,0,0-8.4119-10.423,52.833,52.833,0,0,0-9.115-7.6405,40.3142,40.3142,0,0,0-8.8235-3.7608,135.0167,135.0167,0,0,0-16.5706-3.8466c-5.5886-.9833-10.8616-1.6842-14.637-2.1314C189.4424,68.0711,174.7368,67.5017,160,67.5c-14.7378.0017-29.4434.5711-39.3048,1.7371-5.0348.5966-12.7283,1.6427-20.2888,3.2107-3.7817.7849-7.53,1.6994-10.9187,2.7673a40.3055,40.3055,0,0,0-8.8235,3.7608,43.4752,43.4752,0,0,0-5.9585,4.6117,73.0839,73.0839,0,0,0-9.099,9.881,44.066,44.066,0,0,0-3.5089,5.3458,19.8565,19.8565,0,0,0-2.071,5.2246,34.2,34.2,0,0,0-.6007,6.8917,59.9763,59.9763,0,0,0,1.4053,12.7735,36.6788,36.6788,0,0,0,1.8224,5.9065,16.9541,16.9541,0,0,0,2.8258,4.76,10.5392,10.5392,0,0,0,3.6671,2.4662,35.49,35.49,0,0,0,6.6671,2.0076c2.2378.4785,4.3506.8043,5.7781,1.0274a85.88,85.88,0,0,0,12.285,1.02,38.5,38.5,0,0,0,4.5291-.2388,16.2463,16.2463,0,0,0,4-.9273l-.9222-2.3236-.9224-2.3237a11.5157,11.5157,0,0,1-2.7518.61,33.6177,33.6177,0,0,1-3.9324.2031,81.1409,81.1409,0,0,1-11.5138-.96c-1.8981-.2954-4.8527-.7556-7.5588-1.4605a24.6349,24.6349,0,0,1-3.64-1.2091,5.9836,5.9836,0,0,1-1.9465-1.2117,12.156,12.156,0,0,1-1.9464-3.3573,36.9794,36.9794,0,0,1-2.1239-7.9907,55.9225,55.9225,0,0,1-.7214-8.7719,29.4709,29.4709,0,0,1,.49-5.8474A18.2459,18.2459,0,0,1,67.38,99.6853a59.0082,59.0082,0,0,1,7.7373-9.5662A48.2757,48.2757,0,0,1,83.2908,83.23a35.6973,35.6973,0,0,1,7.7-3.2466,130.3053,130.3053,0,0,1,15.9337-3.6909c5.46-.9608,10.65-1.6514,14.3585-2.09C130.78,73.0753,145.406,72.4983,160,72.5c14.593-.0017,29.219.5753,38.7166,1.7024,4.9438.585,12.5256,1.6188,19.8611,3.1411,3.6663.76,7.271,1.6435,10.4312,2.64a35.6978,35.6978,0,0,1,7.7,3.2466,38.74,38.74,0,0,1,5.238,4.0718,68.1715,68.1715,0,0,1,8.4561,9.18,39.19,39.19,0,0,1,3.11,4.7277,15.074,15.074,0,0,1,1.57,3.8738l0-.0011a29.52,29.52,0,0,1,.49,5.8484,55.0654,55.0654,0,0,1-1.2815,11.67,31.8105,31.8105,0,0,1-1.5635,5.0931,12.1551,12.1551,0,0,1-1.946,3.357,5.9829,5.9829,0,0,1-1.9465,1.2118,30.8936,30.8936,0,0,1-5.6951,1.693c-2.0659.442-4.0769.7541-5.5037.9767a81.16,81.16,0,0,1-11.5139.96,33.6241,33.6241,0,0,1-3.9326-.2031,11.51,11.51,0,0,1-2.7512-.61,21.0582,21.0582,0,0,1-5.1443-3.3916c-2.9382-2.434-6.188-5.6961-9.4355-8.6316a58.3732,58.3732,0,0,0-4.8975-4.0393,19.5976,19.5976,0,0,0-5.0276-2.7489,79.4,79.4,0,0,0-15.71-3.1723,178.9515,178.9515,0,0,0-38.4485,0,79.3975,79.3975,0,0,0-15.71,3.1723,23.0825,23.0825,0,0,0-6.6637,3.9939c-3.26,2.6087-6.5464,5.8973-9.6661,8.7585-1.5559,1.4292-3.0654,2.7488-4.4636,3.8072a16.7982,16.7982,0,0,1-3.7112,2.2516Z"/><path class="a" d="M160,170.2427v-2.5a22.3375,22.3375,0,0,0-15.5205,6.2,20.7421,20.7421,0,0,0,0,30.1321,22.5256,22.5256,0,0,0,31.0408,0,20.7421,20.7421,0,0,0,0-30.1321,22.3374,22.3374,0,0,0-15.52-6.2v5a17.335,17.335,0,0,1,12.0537,4.8036,15.7433,15.7433,0,0,1,0,22.9257,17.5259,17.5259,0,0,1-24.1077,0,15.7433,15.7433,0,0,1,0-22.9257A17.3351,17.3351,0,0,1,160,172.7427Z"/><path class="a" d="M238.0225,155.07l1.5791-1.938a6.8687,6.8687,0,0,0-2.7891-1.3164,12.7639,12.7639,0,0,0-2.93-.3014,46.87,46.87,0,0,0-6.8652.73,42.6831,42.6831,0,0,1-5.9438.6709,5.6,5.6,0,0,1-1.7341-.2063,21.64,21.64,0,0,1-6.29-4.0835c-3.5352-3.0119-7.3838-7.131-11.2239-10.8421a68.9063,68.9063,0,0,0-5.79-5.1011,22.0552,22.0552,0,0,0-5.9548-3.4314,66.4441,66.4441,0,0,0-13.5408-2.817,149.8348,149.8348,0,0,0-33.0811,0,66.4228,66.4228,0,0,0-13.54,2.817,26.1385,26.1385,0,0,0-7.89,5.0013c-3.8544,3.2933-7.7328,7.4626-11.4513,11.0484a64.1738,64.1738,0,0,1-5.3574,4.7286,17.3231,17.3231,0,0,1-4.56,2.68,5.6052,5.6052,0,0,1-1.7352.2065,42.68,42.68,0,0,1-5.9441-.671,46.8664,46.8664,0,0,0-6.865-.73,12.76,12.76,0,0,0-2.93.3014,6.8663,6.8663,0,0,0-2.7894,1.3169,39.793,39.793,0,0,0-7.9114,9.8167A113.3866,113.3866,0,0,0,62.127,185.7034c-2.7712,8.35-4.6191,16.9017-4.627,24.21a25.1292,25.1292,0,0,0,2.1934,11.21A32.5883,32.5883,0,0,0,68.5358,231.66a68.79,68.79,0,0,0,17.8054,9.8693c5.9139,2.3339,11.3047,3.8383,14.443,4.7531a154.4132,154.4132,0,0,0,26.61,4.6758c10.1962,1.03,21.4,1.542,32.6056,1.5422s22.4092-.5127,32.6055-1.5422a154.4152,154.4152,0,0,0,26.61-4.6758c2.0879-.6084,5.1895-1.4831,8.7673-2.6868a90.0742,90.0742,0,0,0,17.7742-7.956,47.9312,47.9312,0,0,0,8.3149-6.27,30.4589,30.4589,0,0,0,6.2344-8.2456,25.1361,25.1361,0,0,0,2.1929-11.21,67.9513,67.9513,0,0,0-2.1975-15.8465,120.0652,120.0652,0,0,0-9-24.2717,82.5076,82.5076,0,0,0-5.7385-9.8423,33.3653,33.3653,0,0,0-5.9612-6.8206l-1.5793,1.9379-1.58,1.9378a35.3479,35.3479,0,0,1,6.8108,8.5593,108.5393,108.5393,0,0,1,9.8745,21.7143c2.6641,7.9882,4.3789,16.1692,4.3711,22.6317a20.3648,20.3648,0,0,1-1.66,8.9634,27.6424,27.6424,0,0,1-7.5176,8.8935,63.9744,63.9744,0,0,1-16.4988,9.1078c-5.6431,2.2271-10.8337,3.68-14.0059,4.6034a149.7382,149.7382,0,0,1-25.7144,4.5016c-9.9973,1.01-21.051,1.5171-32.103,1.5169s-22.106-.507-32.1031-1.5169a149.7339,149.7339,0,0,1-25.7142-4.5016c-2.119-.617-5.1227-1.4651-8.5718-2.6253a85.2276,85.2276,0,0,1-16.7745-7.4916,42.9761,42.9761,0,0,1-7.449-5.6056,25.4778,25.4778,0,0,1-5.2272-6.8824,20.3566,20.3566,0,0,1-1.66-8.9633,63.0959,63.0959,0,0,1,2.0521-14.65,115.1307,115.1307,0,0,1,8.615-23.2264,77.5953,77.5953,0,0,1,5.3807-9.2386,28.7059,28.7059,0,0,1,5.0089-5.79,1.9627,1.9627,0,0,1,.7834-.3271,7.9061,7.9061,0,0,1,1.7764-.1665,42.9588,42.9588,0,0,1,6.0969.671,46.34,46.34,0,0,0,6.7122.73,10.318,10.318,0,0,0,3.38-.4847,26.1389,26.1389,0,0,0,7.89-5.0016c3.8544-3.2934,7.7328-7.4627,11.4513-11.0484a64.1619,64.1619,0,0,1,5.3573-4.7285,17.3221,17.3221,0,0,1,4.56-2.68A61.76,61.76,0,0,1,144.0476,131.4a144.8575,144.8575,0,0,1,31.9045,0,61.7735,61.7735,0,0,1,12.4841,2.5735,21.6353,21.6353,0,0,1,6.2891,4.0831c3.5352,3.0118,7.3838,7.1309,11.2239,10.842a68.9138,68.9138,0,0,0,5.79,5.1012,22.0585,22.0585,0,0,0,5.9548,3.4317,10.3122,10.3122,0,0,0,3.3794.4847,46.3429,46.3429,0,0,0,6.7119-.73,42.9616,42.9616,0,0,1,6.0972-.6709,7.9107,7.9107,0,0,1,1.7766.1665,1.9676,1.9676,0,0,1,.7839.3271ZM160,226.542v-2.5a37.17,37.17,0,0,1-25.8386-10.3072,33.9786,33.9786,0,0,1,0-49.4511,37.5408,37.5408,0,0,1,51.6775,0,33.9774,33.9774,0,0,1,0,49.451A37.1711,37.1711,0,0,1,160,224.042v5a42.1745,42.1745,0,0,0,29.3057-11.704,38.9766,38.9766,0,0,0,0-56.6574,42.5408,42.5408,0,0,0-58.6111,0,38.9779,38.9779,0,0,0,0,56.6573A42.1725,42.1725,0,0,0,160,229.042Z"/></svg>