<svg xmlns="http://www.w3.org/2000/svg" viewBox="0 0 320 320">
  <defs>
    <style>
      .cls-1 {
        fill: #1a1a1a;
      }
    </style>
  </defs>
  <title>flat-message-outline</title>
  <g id="Layer_16" data-name="Layer 16">
    <path class="cls-1" d="M70,285h2V253H70v.5625L70.0023,253H70v.5625L70.0023,253A35.4911,35.4911,0,0,1,55.73,249.3782a24.2464,24.2464,0,0,1-9.4387-8.235C43.7465,237.277,42.0055,232.1145,42,225V105h-.61l.61.0024V105h-.61l.61.0024A35.4937,35.4937,0,0,1,45.6217,90.73a24.2475,24.2475,0,0,1,8.235-9.4387C57.7229,78.7465,62.8855,77.0056,70,77H250v-.5625L249.9976,77H250v-.5625L249.9976,77A35.4909,35.4909,0,0,1,264.27,80.6218a24.2471,24.2471,0,0,1,9.4387,8.235C276.2534,92.723,277.9944,97.8855,278,105c0,30,0,120,0,120h.6084L278,224.9976V225h.6084L278,224.9976a35.4961,35.4961,0,0,1-3.6218,14.2725,24.2481,24.2481,0,0,1-8.2351,9.4387C262.2769,251.2535,257.1143,252.9944,250,253H129.5271L69.1055,283.2111,70,285h0l.8944,1.7888,60-30L130,255v2H250c7.8293.0058,13.8916-1.9763,18.4531-5.0234a27.5032,27.5032,0,0,0,7.89-8.0972,36.7143,36.7143,0,0,0,4.9524-12.711A35.1368,35.1368,0,0,0,282,225V105c.0059-7.8295-1.9761-13.8918-5.0232-18.4532a27.506,27.506,0,0,0-8.0974-7.89,36.717,36.717,0,0,0-12.7109-4.9524A35.1585,35.1585,0,0,0,250,73H70c-7.8295-.0058-13.8918,1.9763-18.4532,5.0234a27.505,27.505,0,0,0-7.89,8.0972,36.7166,36.7166,0,0,0-4.9524,12.711A35.1505,35.1505,0,0,0,38,105s0,90,0,120c-.0059,7.8295,1.9762,13.8918,5.0233,18.4531a27.5044,27.5044,0,0,0,8.0973,7.89,36.7179,36.7179,0,0,0,12.7111,4.9524A35.163,35.163,0,0,0,70,257v-2H68v33.236l2.8944-1.4472Z"/>
  </g>
</svg>
