<svg xmlns="http://www.w3.org/2000/svg" viewBox="0 0 320 320"><defs><style>.a{fill:#1a1a1a;}</style></defs><title>flat-pie-chart-outline</title><path class="a" d="M253.0771,151.5381h2.0811a103.62,103.62,0,1,0-103.62,103.62h2.0811V153.6189l101.5391,0v-2.0811h-2.0811v-2.0813h-103.62v103.62h2.0813v-2.0813a99.4571,99.4571,0,1,1,99.4578-99.4578h2.0813v0Z"/><path class="a" d="M270,168.4619v-2.0813H166.3806v105.7h2.0813A103.6194,103.6194,0,0,0,272.0811,168.4619v-2.0813H270v2.0813h-2.0813a99.4573,99.4573,0,0,1-99.4568,99.4568V270h2.0811V170.5427l99.457,0v-2.0811h0Z"/></svg>