<svg xmlns="http://www.w3.org/2000/svg" viewBox="0 0 320 320">
  <defs>
    <style>
      .cls-1 {
        fill: #1a1a1a;
      }
    </style>
  </defs>
  <title>flat-message</title>
  <g id="Layer_16" data-name="Layer 16">
    <path class="cls-1" d="M70,285h4V255a4,4,0,0,0-4-4v1.2308L70.01,251H70v1.2308L70.01,251a29.0592,29.0592,0,0,1-4.4009-.4764,33.9377,33.9377,0,0,1-6.7061-1.9,26.6128,26.6128,0,0,1-5.3762-2.8914,21.0435,21.0435,0,0,1-6.6406-7.5128A27.9983,27.9983,0,0,1,44,225V105H42.74l1.26.01V105H42.74l1.26.01a29.063,29.063,0,0,1,.4766-4.401,33.9283,33.9283,0,0,1,1.9-6.7062,26.6041,26.6041,0,0,1,2.8914-5.376,21.04,21.04,0,0,1,7.5127-6.6407A27.9968,27.9968,0,0,1,70,79H250V77.7384L249.99,79H250V77.7384L249.99,79a29.0592,29.0592,0,0,1,4.4009.4764,33.9372,33.9372,0,0,1,6.7061,1.9,26.6117,26.6117,0,0,1,5.3762,2.8914,21.0435,21.0435,0,0,1,6.6406,7.5128A27.9983,27.9983,0,0,1,276,105c0,30,0,120,0,120h1.2588L276,224.99V225h1.2588L276,224.99a29.0633,29.0633,0,0,1-.4766,4.401,33.9289,33.9289,0,0,1-1.9,6.7062,26.604,26.604,0,0,1-2.8914,5.376,21.04,21.04,0,0,1-7.5127,6.6407A27.9967,27.9967,0,0,1,250,251H130a3.929,3.929,0,0,0-1.7891.4223l-60,30L70,285h0l1.7888,3.5777,60-30L130,255v4H250a39.9085,39.9085,0,0,0,11.0012-1.443,29.4088,29.4088,0,0,0,13.4133-7.9927,31.9816,31.9816,0,0,0,5.6079-8.1714,41.0661,41.0661,0,0,0,3.478-11.1922A34.8861,34.8861,0,0,0,284,225V105a39.9052,39.9052,0,0,0-1.4429-11.0012,29.4121,29.4121,0,0,0-7.9927-13.4135,31.9794,31.9794,0,0,0-8.1714-5.6079A41.0719,41.0719,0,0,0,255.2,71.4994,34.9465,34.9465,0,0,0,250,71H70a39.9093,39.9093,0,0,0-11.0015,1.443,29.4089,29.4089,0,0,0-13.4133,7.9928,31.9813,31.9813,0,0,0-5.6079,8.1714,41.066,41.066,0,0,0-3.478,11.1922A34.8858,34.8858,0,0,0,36,105s0,90,0,120a39.9051,39.9051,0,0,0,1.4429,11.0012,29.4121,29.4121,0,0,0,7.9927,13.4135,31.98,31.98,0,0,0,8.1714,5.6079,41.0735,41.0735,0,0,0,11.1924,3.478A34.9437,34.9437,0,0,0,70,259v-4H66v30a4,4,0,0,0,5.7888,3.5777Z"/>
  </g>
</svg>
