<svg xmlns="http://www.w3.org/2000/svg" viewBox="0 0 320 320">
  <defs>
    <style>
      .cls-1 {
        fill: #1a1a1a;
      }
    </style>
  </defs>
  <title>flat-flag</title>
  <g id="Layer_16" data-name="Layer 16">
    <path class="cls-1" d="M64,280V40H56V280ZM60,160v4H180a4,4,0,0,0,4-4V40a4,4,0,0,0-4-4H60a4,4,0,0,0-4,4V160a4,4,0,0,0,4,4v-4h4V44H176V156H60v4h0Zm120,0-2.8286-2.8285-40,40A4,4,0,0,0,140,204H260a4,4,0,0,0,4-4V80a4,4,0,0,0-4-4H180a4,4,0,0,0-4,4v80h4l-2.8286-2.8285L180,160h4V84h72V196H149.6563l33.1721-33.1715A4.0272,4.0272,0,0,0,184,160Zm0,0v-4H140a4,4,0,0,0-4,4v40a4,4,0,0,0,6.8284,2.8284l40-40A4,4,0,0,0,180,156v4l-2.8286-2.8285L144,190.3429V164h36v-4l-2.8286-2.8285Z"/>
  </g>
</svg>
