<svg xmlns="http://www.w3.org/2000/svg" viewBox="0 0 320 320">
  <defs>
    <style>
      .cls-1 {
        fill: #1a1a1a;
      }
    </style>
  </defs>
  <title>flat-cloud</title>
  <g id="Layer_16" data-name="Layer 16">
    <path class="cls-1" d="M21.4346,220.6172l-3.8989-.8943A58.9555,58.9555,0,0,0,16,232.845a44.6213,44.6213,0,0,0,1.45,11.6039,32.0485,32.0485,0,0,0,3.1208,7.6572,23.6208,23.6208,0,0,0,8.3562,8.65A24.0464,24.0464,0,0,0,41.3887,264H257.0605v-4l-.0452,4,.1406.0006a50.1751,50.1751,0,0,0,8.3372-.8315,55.8062,55.8062,0,0,0,11.55-3.3428,46.1638,46.1638,0,0,0,9.5649-5.3319,40.01,40.01,0,0,0,12.2883-14.5062c3.1812-6.3385,5.1072-14.2347,5.1033-23.8931q0-2.2932-.1453-4.7239c-.7512-12.4578-3.8147-22.1124-8.1567-29.4918a45.1755,45.1755,0,0,0-11.3127-12.9409,47.0666,47.0666,0,0,0-17.6731-8.4154,42.636,42.636,0,0,0-9.5679-1.2987l-.1709.0015.0879,3.9991,4-.0529a81.5033,81.5033,0,0,0-5.854-26.37,78.6664,78.6664,0,0,0-13.4211-22.4,75.3682,75.3682,0,0,0-25.8484-19.3257C201.6829,88.4923,189.52,85.998,179.3367,86a54.7729,54.7729,0,0,0-17.7739,2.8346,47.3253,47.3253,0,0,0-16.5493,9.6677,33.8247,33.8247,0,0,0-5.4485,6.1013l3.3608,2.1692,2.0735-3.4207a53.3667,53.3667,0,0,0-9.0569-4.0831,67.95,67.95,0,0,0-22.6462-3.9674,62.7341,62.7341,0,0,0-25.0073,5.1809c-8.854,3.8158-17.9827,10.0825-26.7842,19.7223-8.604,9.4181-14.2056,18.0574-17.6614,25.8716a51.2115,51.2115,0,0,0-4.7478,20.7723,37.4213,37.4213,0,0,0,3.9854,17.12,26.611,26.611,0,0,0,4.2607,6.2585l2.8489-2.8079-.1292-3.9979a20.0994,20.0994,0,0,0-4.2805.7334,32.8753,32.8753,0,0,0-14.5149,8.5936c-5.3606,5.301-10.46,13.54-13.4941,25.978-.0823.3365-.1609.6694-.2358.9961l3.8987.895,3.8984.8949c.0676-.2944.1375-.59.2095-.8851a52.5888,52.5888,0,0,1,7.15-17.08A28.5193,28.5193,0,0,1,44.8071,192.96,20.4778,20.4778,0,0,1,49,191.6122c.4961-.0986.8728-.1492,1.1023-.1741.1147-.0126.1924-.0186.23-.0211l.0254-.0017-.1064-2.1125.0684,2.114.0381-.0015-.1064-2.1125.0684,2.114a4,4,0,0,0,2.72-6.8058l-1.436,1.4154,1.4568-1.394-.0208-.0214-1.436,1.4154,1.4568-1.394s-.0925-.0967-.2576-.2921a22.7946,22.7946,0,0,1-3.2966-5.4918,29.8463,29.8463,0,0,1-2.41-12A43.2268,43.2268,0,0,1,51.16,149.3115c3.0417-6.88,8.1216-14.8129,16.2515-23.7113,8.12-8.8848,16.2781-14.4186,24.0461-17.7722a54.7136,54.7136,0,0,1,21.8389-4.5269,59.9911,59.9911,0,0,1,19.9622,3.5038,54.5714,54.5714,0,0,1,5.7075,2.39c.6531.3208,1.147.5836,1.4663.76.16.088.2756.1542.3464.1951l.0715.0419.01.0059.9395-1.5671-.9473,1.5625.0078.0046.9395-1.5671-.9473,1.5625a4.0065,4.0065,0,0,0,5.4343-1.2515l-1.917-1.2373,1.9065,1.2535.01-.0162-1.917-1.2373,1.9065,1.2535.0239-.0354a32.4581,32.4581,0,0,1,8.3162-7.8035A40.2583,40.2583,0,0,1,164.7354,96.21,47.014,47.014,0,0,1,179.3367,94c8.8708.0016,19.8542,2.1584,33.2461,8.34A67.3378,67.3378,0,0,1,235.7209,119.62a73.369,73.369,0,0,1,15.0549,29.3386A76.7447,76.7447,0,0,1,252.7537,159.4c.1472,1.272.2244,2.27.2646,2.9363.02.3329.0308.5826.0366.7419l.0051.17.0007.0325v.0027l2.3108-.0369-2.3108.0305v.0063l2.3108-.0369-2.3108.0305a4,4,0,0,0,4.0874,3.9463l-.0461-2.1.0232,2.1.0229,0-.0461-2.1.0232,2.1h.0183a33.33,33.33,0,0,1,6.3025.7618,40.9091,40.9091,0,0,1,9.2507,3.1056,36.6246,36.6246,0,0,1,14.7021,12.6255c4.3127,6.3558,7.6843,15.29,8.4695,28.1373q.1329,2.1964.1311,4.2406c-.009,10.21-2.3652,17.5466-5.772,23.0111a32.1528,32.1528,0,0,1-9.1941,9.5336,43.077,43.077,0,0,1-15.46,6.3668A44.3759,44.3759,0,0,1,257.156,256h-.0505l-.0449,0H41.3887a16.4017,16.4017,0,0,1-7.606-1.6962,14.3129,14.3129,0,0,1-4.1177-3.1906,20.5109,20.5109,0,0,1-4.1851-7.6974A35.6943,35.6943,0,0,1,24,232.845a51.0127,51.0127,0,0,1,1.3335-11.3336Z"/>
  </g>
</svg>
