<svg xmlns="http://www.w3.org/2000/svg" viewBox="0 0 320 320">
  <defs>
    <style>
      .cls-1 {
        fill: #1a1a1a;
      }
    </style>
  </defs>
  <title>flat-trash-outline</title>
  <g id="Layer_16" data-name="Layer 16">
    <g>
      <path class="cls-1" d="M97.7773,288v2H222.2227a14.4454,14.4454,0,0,0,14.4441-14.4443V104.6665H83.333V275.5557A14.4455,14.4455,0,0,0,97.7773,290v-4a10.4452,10.4452,0,0,1-10.4445-10.4443V108.6664H232.6667l0,166.8892A10.4454,10.4454,0,0,1,222.2227,286H97.7773Z"/>
      <path class="cls-1" d="M64,70.4443H62v29.7778a8.4452,8.4452,0,0,0,8.4443,8.4443H249.5557A8.4451,8.4451,0,0,0,258,100.2222V70.4443A8.4451,8.4451,0,0,0,249.5557,62H70.4443A8.4452,8.4452,0,0,0,62,70.4443h4A4.4447,4.4447,0,0,1,70.4443,66H249.5557A4.4449,4.4449,0,0,1,254,70.4443v29.7778a4.4449,4.4449,0,0,1-4.4443,4.4443H70.4443A4.4447,4.4447,0,0,1,66,100.2222V70.4443Z"/>
      <path class="cls-1" d="M130,64V54.4443A20.4449,20.4449,0,0,1,150.4443,34h19.1113A20.4449,20.4449,0,0,1,190,54.4443V64h4l0-9.5557A24.445,24.445,0,0,0,169.5557,30H150.4443A24.445,24.445,0,0,0,126,54.4443V64h4Z"/>
      <polyline class="cls-1" points="120.667 128 120.667 266.667 124.667 266.667 124.667 128"/>
      <polyline class="cls-1" points="162 266.667 162 128 158 128 158 266.667"/>
      <polyline class="cls-1" points="195.333 128 195.333 266.667 199.333 266.667 199.333 128"/>
    </g>
  </g>
</svg>
