<svg xmlns="http://www.w3.org/2000/svg" viewBox="0 0 320 320">
  <defs>
    <style>
      .cls-1 {
        fill: #1a1a1a;
      }
    </style>
  </defs>
  <title>flat-cog-outline</title>
  <g id="Layer_16" data-name="Layer 16">
    <path class="cls-1" d="M253.6548,170.332l-1.8684-.7138-17.38,45.492,17.85,21.9719-35.7025,29.0057-19.6705-24.2126-46.3777,7.4211-11.1328,29.1415L96.4023,262.0212l10.1025-26.4447L75.0691,196.8826l-27.9528,4.4729L39.848,155.9333,62.1,152.373l19.8525-51.9646L67.743,82.9177,103.4456,53.912l12.3892,15.25,57.7794-9.2457,7.0125-18.3545,42.9708,16.4167L215.5549,79.03l35.0762,43.1753,22.2523-3.5607,7.2684,45.4223-27.9535,4.473-.412,1.0786,1.8684.7138.3159,1.9749,30.7629-4.9224-8.5325-53.3219L252.28,117.8905,220.1158,78.3,228.7617,55.67,178.3175,36.3979l-7.6157,19.9337-53.2185,8.516L104.0278,48.2851l-41.9116,34.05,15.2756,18.8031-18.2041,47.65-23.9216,3.8275,8.5324,53.3219,29.6222-4.74,28.5233,35.109L91.238,264.33l50.4442,19.272,11.7363-30.7209,41.8168-6.6913,20.7365,25.5248,41.9119-34.05-18.9164-23.284,16.5558-43.3349-1.8683-.7137.3159,1.9749ZM151.1123,104.4565l-.316-1.9749a54.5046,54.5046,0,0,0,8.547,108.3231,54.8923,54.8923,0,0,0,8.6752-.6922,54.5135,54.5135,0,0,0,45.8965-53.7515,54.9039,54.9039,0,0,0-.692-8.6749,54.5138,54.5138,0,0,0-53.7516-45.8969,54.8653,54.8653,0,0,0-8.6752.6924l.3162,1.9749.316,1.9749A50.373,50.373,0,0,1,192.0217,117.74a50.2922,50.2922,0,0,1,17.2513,30.5779,50.376,50.376,0,0,1-11.3088,40.5935,50.2917,50.2917,0,0,1-30.5776,17.2513,50.3757,50.3757,0,0,1-40.5938-11.3088,50.2922,50.2922,0,0,1-17.2511-30.5778A50.3707,50.3707,0,0,1,120.85,123.6827a50.2927,50.2927,0,0,1,30.5779-17.2513Z"/>
  </g>
</svg>
