<svg xmlns="http://www.w3.org/2000/svg" viewBox="0 0 320 320">
  <defs>
    <style>
      .cls-1 {
        fill: #1a1a1a;
      }
    </style>
  </defs>
  <title>flat-star</title>
  <g id="Layer_16" data-name="Layer 16">
    <path  d="M160,26.8521l-3.587,1.77,43.2622,87.6592a4.0159,4.0159,0,0,0,3.0118,2.1882l88.7171,12.8912-64.1962,62.5761a4.0156,4.0156,0,0,0-1.15,3.5405l15.1548,88.3584-79.351-41.7172a4.0158,4.0158,0,0,0-3.7227,0l-79.351,41.7172,15.1548-88.3584a4.0158,4.0158,0,0,0-1.15-3.5405L28.5957,131.3607,117.313,118.47a4.016,4.016,0,0,0,3.0118-2.1882l43.2622-87.6592L160,26.8521l-3.587,1.77,3.587-1.77-3.587-1.77-42.3316,85.7734L19.4248,124.6094a4,4,0,0,0-2.2169,6.8228l68.4941,66.7655-16.1694,94.274a4,4,0,0,0,5.8038,4.2167L160,252.1782l84.6635,44.51a4,4,0,0,0,5.8038-4.2167l-16.1694-94.2741,68.4941-66.7654a4,4,0,0,0-2.2169-6.8228l-94.6567-13.7543L163.5869,25.0818a4,4,0,0,0-7.1739,0Z"/>
  </g>
</svg>
