<svg xmlns="http://www.w3.org/2000/svg" viewBox="0 0 320 320">
  <defs>
    <style>
      .cls-1 {
        fill: #1a1a1a;
      }
    </style>
  </defs>
  <title>flat-picture-filled</title>
  <g id="Layer_16" data-name="Layer 16">
    <g>
      <path  d="M149.5049,181.2012c-10.833,4.167-23.0205-17.0137-23.0205-17.0137s-3.7236-5.5557-13.2031-6.25c-6.5947-.4834-13.8359,7.4287-17.6377,12.293L93.1289,173.67c-.0986.1465-.16.24-.16.24s.0615-.0937.16-.24L30,260h96.4072l50.375-68.333-17.2109-21.1426C159.2051,173.0273,157.4648,178.1406,149.5049,181.2012Z"/>
      <path  d="M149.5049,181.2012l-.718-1.8667a6.101,6.101,0,0,1-2.2158.41,8.2869,8.2869,0,0,1-3.0037-.6179,19.2556,19.2556,0,0,1-5.5867-3.67,49.9655,49.9655,0,0,1-6.967-8c-.8806-1.2329-1.5859-2.31-2.0676-3.0726-.2407-.3816-.4258-.6848-.5491-.89-.0618-.1027-.1079-.1808-.1379-.2319l-.033-.0564-.0083-.0142-.0349-.06-.0374-.0555a14.2512,14.2512,0,0,0-3.564-3.3916,22.0331,22.0331,0,0,0-11.1543-3.74q-.3636-.0267-.729-.0266a13.1724,13.1724,0,0,0-5.7368,1.4622,29.9918,29.9918,0,0,0-7.3862,5.4423,60.4824,60.4824,0,0,0-5.5076,6.1783l-.0188.0239L91.4917,172.52l-.022.0328c-.1042.1548-.17.2548-.1731.26l3.344,2.1947.0374-.0565.11-.1641-3.2734-2.2975-63.1289,86.33L30,262h97.4172l51.8943-70.3937-18.1892-22.3445-3.53.9731a9.3294,9.3294,0,0,1-1.8083,4.2211,15.19,15.19,0,0,1-6.9968,4.8784l.7178,1.8668.7175,1.8667a19.1737,19.1737,0,0,0,8.7649-6.2166,13.3313,13.3313,0,0,0,2.5627-6.0375l-1.9788-.2894L158.02,171.787l16.2324,19.9406L125.3967,258H33.94l60.8032-83.15-1.6143-1.18L91.47,172.5529c-.1042.1548-.17.2548-.1731.26l3.344,2.1947.0374-.0565.11-.1641L93.1289,173.67l1.6145,1.18,2.5146-3.4395-1.6145-1.18,1.5757,1.2314a50.9257,50.9257,0,0,1,7.1995-7.62,21.9877,21.9877,0,0,1,4.2949-2.8674,9.2325,9.2325,0,0,1,3.9846-1.0581q.2194,0,.436.016a18.0245,18.0245,0,0,1,9.1592,3.0313,12.6424,12.6424,0,0,1,2,1.7113c.2065.2209.3521.3967.4392.5078l.0876.1155.0117.0165.7532-.5245-.7622.5111.009.0134.7532-.5245-.7622.5111,1.6614-1.1134-1.7336.9974a66.4488,66.4488,0,0,0,6.5159,9.0846,38.2257,38.2257,0,0,0,6.8064,6.37,19.4024,19.4024,0,0,0,4.0417,2.2139,12.267,12.267,0,0,0,4.4563.8909,10.11,10.11,0,0,0,3.6516-.6761Z"/>
      <path  d="M76.7012,60H75.1931l-.4922-.0038,0,.0038h.4919l-.4922-.0038a34.5155,34.5155,0,0,1-1.9368,9.6348A54.7091,54.7091,0,0,1,59.7017,90.5364,52.7523,52.7523,0,0,1,39.0823,104.01a37.8265,37.8265,0,0,1-6.6968,1.66c-.7971.1168-1.415.174-1.8228.2018-.2039.0139-.3552.0206-.45.0238l-.1.0026-.0173,0,.0049.606v-.606h-.0049l.0049.606v-.606H28V262H292V58H74.7012v2h2v2H288V258H32l0-150.1014H30v2a35.0827,35.0827,0,0,0,10.3765-2.1031A56.7621,56.7621,0,0,0,62.5657,93.3287,58.6065,58.6065,0,0,0,76.6572,70.5969,37.5215,37.5215,0,0,0,78.7009,60h-2v0ZM95.6436,170.23l-1.6147-1.18L91.5142,172.49l1.6147,1.18,1.6594,1.1161c.3145-.4677,1.1816-1.7249,2.4312-3.3245L95.6436,170.23l-1.6147-1.18,1.6147,1.18-1.5762-1.2312c-1.3228,1.6934-2.2388,3.02-2.5981,3.5544l3.2742,2.2965,2.5146-3.4395-3.1907-2.4115Zm17.6377-12.293-.1462,1.9946a18.023,18.023,0,0,1,9.1584,3.0311,12.6424,12.6424,0,0,1,2,1.7113c.2065.2209.3521.3967.4392.5078l.0876.1155.0117.0165.7532-.5245-.7622.5111.009.0134.7532-.5245-.7622.5111,1.6614-1.1134-1.7336.9974a66.4437,66.4437,0,0,0,6.5161,9.0847,38.2257,38.2257,0,0,0,6.8064,6.37,19.3962,19.3962,0,0,0,4.0417,2.2139,12.267,12.267,0,0,0,4.4563.8909,10.1162,10.1162,0,0,0,3.6511-.676,19.1747,19.1747,0,0,0,8.7649-6.2167,13.3313,13.3313,0,0,0,2.5627-6.0375l.1208-.8282-35.3193-46.7075L94.01,169.0767l3.2095,2.3853a50.9462,50.9462,0,0,1,7.2-7.62,21.9872,21.9872,0,0,1,4.2947-2.8676,9.2325,9.2325,0,0,1,3.9846-1.0581c.1484,0,.292.0051.4326.0157l.0042,0,.1462-1.9946.15-1.9944c-.248-.0187-.4927-.0271-.7332-.027a13.1705,13.1705,0,0,0-5.7366,1.4622,29.992,29.992,0,0,0-7.3865,5.4424,60.5116,60.5116,0,0,0-5.5076,6.1782l1.5759,1.2316,1.6335,1.1537,29.1851-41.3282,31.5137,41.6748,1.5955-1.2063-1.979-.29a9.3294,9.3294,0,0,1-1.8083,4.2211,15.19,15.19,0,0,1-6.9968,4.8784,6.1044,6.1044,0,0,1-2.2158.41,8.2869,8.2869,0,0,1-3.0037-.6179,19.2556,19.2556,0,0,1-5.5867-3.67,49.9735,49.9735,0,0,1-6.9673-8.0006c-.8806-1.2329-1.5859-2.31-2.0676-3.0726-.2407-.3816-.4258-.6848-.5491-.89-.0618-.1027-.1079-.1808-.1382-.2319l-.0327-.0564-.0083-.0142-.0349-.06-.0374-.0555a14.2512,14.2512,0,0,0-3.564-3.3916,22.0331,22.0331,0,0,0-11.1543-3.74l.0042,0Zm116.7969,17.7373.5842,1.9126c13.4988-4.13,26.0645-11.3269,30.0039-13.6752l2.1748-1.2994-38.06-39.035-31.4185,42.9655,1.5554,1.1891a63.1448,63.1448,0,0,0,9.7429,5.9932c5.0979,2.53,11.6416,4.9325,18.51,4.9415a25.5674,25.5674,0,0,0,7.491-1.0793l-.5837-1.9128-.584-1.913a21.5746,21.5746,0,0,1-6.3232.9053c-5.9116.009-11.9631-2.1442-16.7275-4.5226a59.26,59.26,0,0,1-9.0959-5.59l-1.2146,1.5889,1.6143,1.18,27.4714-37.5679,32.99,33.8353,1.4321-1.3961-1.0259-1.717c-3.7832,2.265-16.1863,9.3376-29.1211,13.2838Z"/>
      <path  d="M259.6406,162.1953c-3.8613,2.3066-16.3457,9.4414-29.5625,13.4795-14.8545,4.5381-31.7637-7.8633-33.9453-9.5312L127.5,260H290V193.333Z"/>
      <path  d="M259.6406,162.1953l-1.0259-1.717c-3.7832,2.265-16.1863,9.3376-29.1211,13.2838a21.5654,21.5654,0,0,1-6.3225.905c-5.9119.009-11.9636-2.1442-16.728-4.5227a59.2521,59.2521,0,0,1-9.0957-5.59l-1.6233-1.241-69.8386,95.5056L127.5,262H292V192.519l-32.03-32.8506-1.3552.81,1.0259,1.717-1.4321,1.3961L288,194.1466V258H131.44l66.3074-90.6758-1.6143-1.1805-1.2148,1.5887a63.1477,63.1477,0,0,0,9.7427,5.993c5.0979,2.53,11.6418,4.9326,18.51,4.9417a25.5518,25.5518,0,0,0,7.4912-1.0795c13.4988-4.13,26.0645-11.327,30.0039-13.6753l-1.0256-1.7169-1.4321,1.3961Z"/>
    </g>
  </g>
</svg>
