<svg xmlns="http://www.w3.org/2000/svg" viewBox="0 0 320 320">
  <defs>
    <style>
      .cls-1 {
        fill: #1a1a1a;
      }
    </style>
  </defs>
  <title>flat-arrow-cw</title>
  <g id="Layer_16" data-name="Layer 16">
    <g>
      <path class="cls-1" d="M282.0049,140.93l-.2026-1.99-21.8,2.2178a8.4653,8.4653,0,0,0-5.5081,2.825,8.6906,8.6906,0,0,0-2.1143,6.6418l-.001-.0078.0068.0674a83.646,83.646,0,0,1,.4341,8.499c.0046,42.4468-32.5806,79.0811-76.11,83.5059a86.0473,86.0473,0,0,1-8.6992.4426,84.827,84.827,0,0,1-56.416-21.5046,83.0518,83.0518,0,0,1-5.6482-118.94l-1.4695-1.3566-1.2546,1.5575L138.9172,131.64l3.2441-1.7607-9.4036-92.0718-92.96,9.4534L38.7422,50.806,75.9307,80.8822l1.2578-1.5551L75.697,77.9944a121.6862,121.6862,0,0,0,9.7275,172.5588A124.04,124.04,0,0,0,167.938,281.999a125.9152,125.9152,0,0,0,12.73-.647c63.6853-6.4846,111.3264-59.9956,111.3308-122.1819a122.6361,122.6361,0,0,0-.6353-12.4514,8.7412,8.7412,0,0,0-8.676-7.8242,8.4628,8.4628,0,0,0-.8931.0461l.0078-.0007.2026,1.99.21,1.9888a4.5184,4.5184,0,0,1,.4724-.0242,4.7267,4.7267,0,0,1,3.1506,1.2136,4.676,4.676,0,0,1,1.5461,3.0176,118.72,118.72,0,0,1,.6147,12.0447c.0042,60.1152-46.0952,111.9353-107.7358,118.2024a121.9781,121.9781,0,0,1-12.3252.6267,120.04,120.04,0,0,1-79.8538-30.4338A117.6668,117.6668,0,0,1,78.68,80.66l1.4-1.5668L45.0332,50.7493l84.1516-8.5575,8.51,83.3282L104.2759,98.6l-1.2681,1.3735a87.0615,87.0615,0,0,0,5.928,124.6416,88.8271,88.8271,0,0,0,59.0754,22.5164,89.7843,89.7843,0,0,0,9.1042-.4631c45.575-4.6431,79.6995-42.9663,79.7043-87.4851a87.5811,87.5811,0,0,0-.4543-8.9041l-.0066-.0659-.001-.0078a4.786,4.786,0,0,1-.0254-.4927,4.6483,4.6483,0,0,1,1.1594-3.0815,4.46,4.46,0,0,1,2.9153-1.4941l21.8-2.2178.0078-.0007Z"/>
      <path class="cls-1" d="M282.0049,140.93,281.6,136.95l-21.8,2.2178a10.47,10.47,0,0,0-6.8044,3.49,10.6907,10.6907,0,0,0-2.6045,8.1755l-.0017-.0154.0068.0674,0,.0027a81.0974,81.0974,0,0,1-20.7891,62.9644,82.6861,82.6861,0,0,1-53.0994,26.8462,84.041,84.041,0,0,1-8.4968.4324,82.827,82.827,0,0,1-55.0864-20.9985,81.0522,81.0522,0,0,1-5.5083-116.09l-2.939-2.7131-2.5093,3.115,35.6943,28.7529a4,4,0,0,0,6.4885-3.5215l-9.2-90.083a3.9991,3.9991,0,0,0-4.384-3.573l-90.9717,9.251a4,4,0,0,0-2.1106,7.09L74.6731,82.4373l2.5154-3.11-2.9827-2.6654a123.6864,123.6864,0,0,0,9.8889,175.3854A126.04,126.04,0,0,0,167.938,283.999a127.91,127.91,0,0,0,12.9321-.6572A125.8848,125.8848,0,0,0,261.697,242.49a123.6975,123.6975,0,0,0,31.6563-95.9746,10.741,10.741,0,0,0-10.6658-9.6213,10.5044,10.5044,0,0,0-1.1035.0571l.0159-.0015.405,3.9795.4207,3.9778a2.4746,2.4746,0,0,1,.262-.0132,2.7277,2.7277,0,0,1,1.8169.7039,2.6742,2.6742,0,0,1,.89,1.7312,117.3952,117.3952,0,0,1-105.334,128.0535,119.9717,119.9717,0,0,1-12.1228.6165,118.0379,118.0379,0,0,1-78.5239-29.9275A115.6673,115.6673,0,0,1,80.1709,81.9924a4,4,0,0,0-.4673-5.7755L50.0664,52.2478l77.3318-7.864,7.8206,76.5731L106.9866,98.215a4.0063,4.0063,0,0,0-5.4482.4019,89.0609,89.0609,0,0,0,6.0679,127.4921,90.8265,90.8265,0,0,0,60.405,23.0225,91.7906,91.7906,0,0,0,9.3066-.4734A90.6917,90.6917,0,0,0,235.54,219.22a89.1054,89.1054,0,0,0,22.8157-69.1443l0,.0027-.0068-.0674-.0017-.0154a2.8126,2.8126,0,0,1-.0144-.2832,2.6465,2.6465,0,0,1,.6584-1.7573,2.4532,2.4532,0,0,1,1.6187-.8286l21.8-2.2178.0159-.0015Z"/>
    </g>
  </g>
</svg>
