<svg xmlns="http://www.w3.org/2000/svg" viewBox="0 0 320 320">
  <title>_.arrow-down</title>
  <g id="camera">
    <path d="M237.0911,144.9595a15.0172,15.0172,0,0,0-10.6414,4.4143l-51.4353,51.437.0107-117.82a14.8122,14.8122,0,0,0-4.5291-10.62,15.2923,15.2923,0,0,0-21.4141.0044,14.8213,14.8213,0,0,0-4.53,10.623l.0015,117.8162-51.1553-51.397-.0037-.0037A14.856,14.856,0,0,0,68,159.87a15.1769,15.1769,0,0,0,4.4648,10.74l1.4143-1.4143-1.4141,1.4143,76.9771,76.9607a11.7028,11.7028,0,0,0,2.7146,2.24A15.2242,15.2242,0,0,0,160.2188,252a14.7084,14.7084,0,0,0,10.3428-4.5583l77.0027-76.9861A15.03,15.03,0,0,0,252,159.8105a14.89,14.89,0,0,0-14.9084-14.8511Zm7.645,22.6672L167.7012,244.645l-.0869.093,0,0a10.4429,10.4429,0,0,1-2.1011,1.6853A10.03,10.03,0,0,1,160.2188,248a11.2085,11.2085,0,0,1-5.9668-1.5964,8.91,8.91,0,0,1-1.4053-1.06c-.1482-.1382-.2532-.248-.3142-.3152l-.0591-.0664-.0049-.0059-.0007,0-.14-.1567L75.293,167.7817h0A11.1733,11.1733,0,0,1,72,159.87a10.7224,10.7224,0,0,1,3.1516-7.6328,10.8308,10.8308,0,0,1,15.415.0056l54.57,54.8276a2,2,0,0,0,3.4177-1.4109l-.002-122.6611a10.8175,10.8175,0,0,1,3.323-7.7593,11.2916,11.2916,0,0,1,15.8291-.0034,10.8065,10.8065,0,0,1,3.3215,7.7551l-.0107,122.6482a2,2,0,0,0,3.4141,1.4143l54.85-54.8516a11.0133,11.0133,0,0,1,7.8127-3.2429,10.88,10.88,0,0,1,7.729,3.2,10.7591,10.7591,0,0,1,3.18,7.6511A11.0273,11.0273,0,0,1,244.7361,167.6267Z" class="fill"/>
  </g>
</svg>
