<svg xmlns="http://www.w3.org/2000/svg" viewBox="0 0 320 320">
  <title>_.arrow-right</title>
  <g id="camera">
    <path d="M247.44,149.4377,170.4558,72.4355A15.03,15.03,0,0,0,159.811,68,14.8919,14.8919,0,0,0,144.96,82.9082,15.0222,15.0222,0,0,0,149.3735,93.55l51.4377,51.4353-117.8195-.0093a14.8114,14.8114,0,0,0-10.62,4.5291,15.29,15.29,0,0,0,.0045,21.4131A14.822,14.822,0,0,0,83,175.448l117.8153-.0017-51.3962,51.1555-.0034.0034a14.8551,14.8551,0,0,0,10.4554,25.394,15.1812,15.1812,0,0,0,10.74-4.4639l-1.4139-1.4143,1.4143,1.4138,76.96-76.9771a11.6988,11.6988,0,0,0,2.24-2.7146A15.2238,15.2238,0,0,0,252,159.7813a14.7086,14.7086,0,0,0-4.5594-10.3435Zm-1.0367,16.31a8.91,8.91,0,0,1-1.06,1.4053c-.1383.1482-.2482.2532-.3152.3142l-.0665.0591-.0059.0049.0006.0007-.1567.14-77.0177,77.0347h0A11.1794,11.1794,0,0,1,159.8706,248a10.7228,10.7228,0,0,1-7.6331-3.1511,10.831,10.831,0,0,1,.0062-15.4146l54.8268-54.57a2,2,0,0,0-1.411-3.4177l-122.66.002a10.8183,10.8183,0,0,1-7.76-3.323,11.2907,11.2907,0,0,1-.0037-15.8284,10.8093,10.8093,0,0,1,7.7556-3.3213l122.6482.01a2,2,0,0,0,1.4143-3.4141l-54.8521-54.85a11.0179,11.0179,0,0,1-3.2424-7.8132,10.8781,10.8781,0,0,1,3.2-7.7285,10.7547,10.7547,0,0,1,7.6512-3.18,11.0276,11.0276,0,0,1,7.816,3.2644l77.0176,77.0349.093.0869,0,0a10.4414,10.4414,0,0,1,1.6857,2.1011A10.029,10.029,0,0,1,248,159.7813,11.2083,11.2083,0,0,1,246.4037,165.7478Z" class="fill"/>
  </g>
</svg>
