<svg xmlns="http://www.w3.org/2000/svg" viewBox="0 0 320 320">
  <title>_.arrow-down-filled</title>
  <g id="camera">
    <path d="M237.09,144.9595A15.0144,15.0144,0,0,0,226.45,149.374l-51.4353,51.4368.0107-117.82a14.8122,14.8122,0,0,0-4.5291-10.62,15.2923,15.2923,0,0,0-21.4141.0044,14.8213,14.8213,0,0,0-4.53,10.623l.0015,117.8162-51.1553-51.397-.0037-.0037A14.856,14.856,0,0,0,68,159.8706a15.1785,15.1785,0,0,0,4.4648,10.7407l1.4143-1.4141-1.4141,1.4143,76.9771,76.96a11.7028,11.7028,0,0,0,2.7146,2.24A15.2242,15.2242,0,0,0,160.2188,252a14.7084,14.7084,0,0,0,10.3428-4.5583l77.0027-76.9861A15.03,15.03,0,0,0,252,159.8108,14.8918,14.8918,0,0,0,237.09,144.9595Z" class="fill"/>
  </g>
</svg>
