<svg xmlns="http://www.w3.org/2000/svg" viewBox="0 0 320 320">
  <title>_.arrow-right-filled</title>
  <g id="camera">
    <path d="M247.4414,149.4382,170.4553,72.4355A15.0292,15.0292,0,0,0,159.8108,68a14.8927,14.8927,0,0,0-14.8513,14.9094A15.0194,15.0194,0,0,0,149.3735,93.55l51.437,51.4351-117.8193-.0093a14.81,14.81,0,0,0-10.6194,4.5291,15.2908,15.2908,0,0,0,.0042,21.4131,14.8213,14.8213,0,0,0,10.623,4.53l117.8159-.0017-51.3967,51.1555-.0037.0037a14.8554,14.8554,0,0,0,10.4561,25.3938,15.1826,15.1826,0,0,0,10.74-4.4639l-1.4138-1.4143,1.4143,1.4138,76.96-76.9773a11.6935,11.6935,0,0,0,2.24-2.7144A15.2239,15.2239,0,0,0,252,159.7813a14.7084,14.7084,0,0,0-4.5583-10.343Z" class="fill"/>
  </g>
</svg>
