<svg xmlns="http://www.w3.org/2000/svg" viewBox="0 0 320 320">
  <title>_.arrow-cw-filled</title>
  <g id="camera">
    <path d="M278.6492,141.1548a8.3147,8.3147,0,0,0-5.6687-2.26,7.9354,7.9354,0,0,0-.874.0471l.0078-.001-20.9287,2.2178a8.13,8.13,0,0,0-5.3579,2.8552,8.8081,8.8081,0,0,0-2.0686,5.7,8.9056,8.9056,0,0,0,.0449.9031l.0068.0671q.4193,4.2814.4163,8.5a85.4746,85.4746,0,0,1-20.8665,56.042,80.12,80.12,0,0,1-52.135,27.4644,78.8162,78.8162,0,0,1-62.4106-21.0354,84.3685,84.3685,0,0,1-26.5044-53.8271q-.4167-4.2528-.4141-8.4429a85.59,85.59,0,0,1,20.241-55.2429l32.7419,27.4736a2,2,0,0,0,3.2759-1.7273l-8.833-90.0829,0-.0031-.1965-2.0031L39.7893,47.2621a2,2,0,0,0-1.0781,3.5184l34.1738,28.79a124.9447,124.9447,0,0,0-28.7371,79.7949q0,6.1538.6086,12.4106c6.18,63.0432,57.8474,110.2161,118.0642,110.2227a116.208,116.208,0,0,0,12.2373-.6479,117.4633,117.4633,0,0,0,76.4338-40.2327A124.9676,124.9676,0,0,0,282,159.17q0-6.1718-.61-12.4434A8.7777,8.7777,0,0,0,278.6492,141.1548Z" class="fill"/>
  </g>
</svg>
