<svg xmlns="http://www.w3.org/2000/svg" viewBox="0 0 320 320">
  <title>_.arrow-up-outline</title>
  <g id="camera">
    <path d="M247.5351,149.3882,170.5562,72.4268a11.6958,11.6958,0,0,0-2.7127-2.238A15.224,15.224,0,0,0,159.7813,68,14.7108,14.7108,0,0,0,149.44,72.5571L72.436,149.5444A15.0284,15.0284,0,0,0,68,160.1885,14.8912,14.8912,0,0,0,82.91,175.04a15.02,15.02,0,0,0,10.64-4.4133l51.4357-51.4373-.01,117.82a14.8126,14.8126,0,0,0,4.5292,10.62,15.2918,15.2918,0,0,0,21.4136-.0044,14.8224,14.8224,0,0,0,4.53-10.6228l-.0014-117.8167,51.1556,51.3972.0036.0037A14.8558,14.8558,0,0,0,252,160.1287a15.176,15.176,0,0,0-4.465-10.74Zm.465,10.74a10.723,10.723,0,0,1-3.1515,7.6335,10.8318,10.8318,0,0,1-15.4146-.0059l.0036.0037L174.8643,112.929a2,2,0,0,0-3.4175,1.4109l.0015,122.6611a10.8179,10.8179,0,0,1-3.3231,7.7593,11.291,11.291,0,0,1-15.8287.0034,10.8059,10.8059,0,0,1-3.3214-7.7549l.0107-122.6484a2,2,0,0,0-3.4142-1.4143l-54.85,54.8516A11.0176,11.0176,0,0,1,82.91,171.04a10.8807,10.8807,0,0,1-7.73-3.2A10.76,10.76,0,0,1,72,160.1885a11.0238,11.0238,0,0,1,3.264-7.8152l77.0347-77.0186.0868-.093v0a10.4433,10.4433,0,0,1,2.1013-1.6853A10.03,10.03,0,0,1,159.7813,72a11.2081,11.2081,0,0,1,5.9669,1.5964,8.8918,8.8918,0,0,1,1.4051,1.06c.1481.1382.2529.248.3141.3149l.059.0667.0048.0059.0009-.0007.14.157L244.707,152.217l1.4141-1.4143-1.414,1.4143A11.1743,11.1743,0,0,1,248,160.1287Z" class="fill"/>
  </g>
</svg>
