<svg xmlns="http://www.w3.org/2000/svg" viewBox="0 0 320 320">
  <title>_.arrow-right-outline</title>
  <g id="camera">
    <path d="M247.4406,149.4377,170.4559,72.4355A15.0294,15.0294,0,0,0,159.8111,68,14.8913,14.8913,0,0,0,144.96,82.9087a15.023,15.023,0,0,0,4.413,10.6406l51.4384,51.4355-117.82-.0093a14.8105,14.8105,0,0,0-10.62,4.5291,15.2906,15.2906,0,0,0,.0043,21.4131A14.8222,14.8222,0,0,0,83,175.448l117.8154-.0017-51.3962,51.1555-.0035.0034a14.855,14.855,0,0,0,10.4554,25.394,15.1794,15.1794,0,0,0,10.74-4.4639l-1.4141-1.4143,1.4144,1.4138,76.96-76.9775a11.6843,11.6843,0,0,0,2.24-2.7141A15.2236,15.2236,0,0,0,252,159.7813a14.7086,14.7086,0,0,0-4.5594-10.3435Zm-1.037,16.31a8.9126,8.9126,0,0,1-1.06,1.4053c-.1383.1482-.2482.2529-.3152.3142l-.0666.0591-.0057.0046.0007.0007-.157.14-77.0172,77.0347h0a11.1794,11.1794,0,0,1-7.912,3.293,10.7243,10.7243,0,0,1-7.6336-3.1511,10.8321,10.8321,0,0,1,.0069-15.4148l-.0035.0034,54.83-54.5732a2,2,0,0,0-1.4109-3.4177l-122.66.002a10.8179,10.8179,0,0,1-7.76-3.323,11.291,11.291,0,0,1-.0036-15.8284,10.8079,10.8079,0,0,1,7.7551-3.3213l122.6487.01a2,2,0,0,0,1.4144-3.4141l-54.8525-54.85a11.0182,11.0182,0,0,1-3.2419-7.8127,10.8783,10.8783,0,0,1,3.2-7.729,10.7554,10.7554,0,0,1,7.6512-3.18,11.0277,11.0277,0,0,1,7.8161,3.2644l77.0175,77.0349.093.0869,0,0a10.4389,10.4389,0,0,1,1.6857,2.1011A10.0279,10.0279,0,0,1,248,159.7813,11.206,11.206,0,0,1,246.4036,165.7478Z" class="fill"/>
  </g>
</svg>
