<svg xmlns="http://www.w3.org/2000/svg" viewBox="0 0 320 320">
  <title>_.arrow-cw</title>
  <g id="camera">
    <g>
      <path d="M288.5059,141.1274a8.7266,8.7266,0,0,0-5.8184-2.2329,8.5057,8.5057,0,0,0-.8918.0461l-21.7932,2.217a8.4653,8.4653,0,0,0-5.5081,2.825,8.6906,8.6906,0,0,0-2.1143,6.6418l-.001-.0078.0068.0674a83.646,83.646,0,0,1,.4341,8.499c.0046,42.4468-32.5806,79.0811-76.11,83.5059a86.0473,86.0473,0,0,1-8.6992.4426,84.827,84.827,0,0,1-56.416-21.5046,82.9924,82.9924,0,0,1-6.8835-117.54L138.9172,131.64a2,2,0,0,0,3.2441-1.7607l-9.2-90.0829,0-.0023-.2029-1.9866-92.96,9.4534a2,2,0,0,0-1.0554,3.5448l35.5728,28.77a121.6636,121.6636,0,0,0,11.11,170.9777A124.04,124.04,0,0,0,167.938,281.999a125.9152,125.9152,0,0,0,12.73-.647c63.6853-6.4846,111.3264-59.9956,111.3308-122.1819a122.6361,122.6361,0,0,0-.6353-12.4514A8.6788,8.6788,0,0,0,288.5059,141.1274ZM180.2632,277.3726a121.9781,121.9781,0,0,1-12.3252.6267,120.04,120.04,0,0,1-79.8538-30.4338A117.6668,117.6668,0,0,1,78.68,80.66l1.4-1.5668L45.0332,50.7493l84.1516-8.5575,8.51,83.3282L105.7319,99.7725l-.002-.0012L104.2759,98.6l-1.2681,1.3735a87.0615,87.0615,0,0,0,5.928,124.6416,88.8271,88.8271,0,0,0,59.0754,22.5164,89.7843,89.7843,0,0,0,9.1042-.4631c45.575-4.6431,79.6995-42.9663,79.7043-87.4851a87.5811,87.5811,0,0,0-.4543-8.9041l-.0066-.0659-.001-.0078a4.786,4.786,0,0,1-.0254-.4927,4.6483,4.6483,0,0,1,1.1594-3.0815,4.46,4.46,0,0,1,2.9153-1.4941l21.8-2.2178.0078-.0007a4.5184,4.5184,0,0,1,.4724-.0242,4.7267,4.7267,0,0,1,3.1506,1.2136,4.676,4.676,0,0,1,1.5461,3.0176,118.72,118.72,0,0,1,.6147,12.0447C288.0032,219.2854,241.9038,271.1055,180.2632,277.3726Z" class="fill"/>
      <polygon points="281.794 138.941 281.796 138.941 281.802 138.94 281.794 138.941" class="fill"/>
    </g>
  </g>
</svg>
