<svg xmlns="http://www.w3.org/2000/svg" viewBox="0 0 320 320">
  <title>_.arrow-up-filled</title>
  <g id="camera">
    <path d="M246.1211,150.8027l1.4138-1.4146L170.5586,72.4294a11.6948,11.6948,0,0,0-2.7151-2.2407A15.2235,15.2235,0,0,0,159.7813,68a14.0631,14.0631,0,0,0-7.5737,2.2849,14.2115,14.2115,0,0,0-2.7671,2.2708L72.4363,149.5444A15.0275,15.0275,0,0,0,68,160.1885,14.8906,14.8906,0,0,0,82.91,175.04a15.0216,15.0216,0,0,0,10.64-4.4131l51.4365-51.4377-.01,117.82a14.81,14.81,0,0,0,4.5291,10.6194,15.2908,15.2908,0,0,0,21.4131-.0042,14.8211,14.8211,0,0,0,4.53-10.6228l-.0007-117.8164,51.1555,51.397.0034.0037a14.855,14.855,0,0,0,25.3931-10.4565,15.1778,15.1778,0,0,0-4.4641-10.74Z" class="fill"/>
  </g>
</svg>
