<svg xmlns="http://www.w3.org/2000/svg" viewBox="0 0 320 320">
  <title>_.arrow-left</title>
  <g id="camera">
    <path d="M237.001,144.5518l-117.8167.0015L170.5818,93.397l.0034-.0037A14.8556,14.8556,0,0,0,160.1289,68a15.17,15.17,0,0,0-10.74,4.4651h0l0,0h0l-76.96,76.9768a11.7021,11.7021,0,0,0-2.24,2.7146A15.2241,15.2241,0,0,0,68,160.2188a14.7075,14.7075,0,0,0,4.5608,10.344l76.9836,77a15.0275,15.0275,0,0,0,10.6448,4.436,14.8885,14.8885,0,0,0,14.85-14.9087A15.0182,15.0182,0,0,0,170.626,226.45l-51.4371-51.4365,117.82.0107a14.81,14.81,0,0,0,10.6194-4.5291,15.2908,15.2908,0,0,0-.0042-21.4131A14.8211,14.8211,0,0,0,237.001,144.5518Zm7.7629,23.1514a10.8091,10.8091,0,0,1-7.7551,3.3213L114.36,171.0137a2,2,0,0,0-1.4144,3.4141l54.8516,54.8506a11.0162,11.0162,0,0,1,3.2422,7.8123,10.8813,10.8813,0,0,1-3.1995,7.73A10.7621,10.7621,0,0,1,160.1892,248a11.0254,11.0254,0,0,1-7.8159-3.2642L75.3557,167.7012l-.0931-.0872,0,0a10.4269,10.4269,0,0,1-1.6859-2.1008A10.0288,10.0288,0,0,1,72,160.2188a11.2086,11.2086,0,0,1,1.5963-5.9668,8.91,8.91,0,0,1,1.06-1.4053c.1383-.1482.2482-.2532.3152-.3142l.0665-.0591.0059-.0049-.0006-.0007.1567-.14L152.218,75.2927l-1.4143-1.4138,1.4146,1.4136A11.1709,11.1709,0,0,1,160.1289,72a10.7237,10.7237,0,0,1,7.6333,3.1519,10.8308,10.8308,0,0,1-.0034,15.4114l-54.83,54.5732a2,2,0,0,0,1.411,3.4177l122.6611-.002a10.8175,10.8175,0,0,1,7.7593,3.323,11.291,11.291,0,0,1,.0037,15.8284Z" class="fill"/>
  </g>
</svg>
