<svg xmlns="http://www.w3.org/2000/svg" viewBox="0 0 320 320">
  <title>_.cloud-filled</title>
  <g id="camera">
    <g>
      <polygon points="19.714 219.201 19.715 219.2 19.715 219.199 19.714 219.201" class="fill"/>
      <path d="M293.9736,182.8926A43.174,43.174,0,0,0,283.16,170.519a45.0722,45.0722,0,0,0-16.9221-8.0532,44.5857,44.5857,0,0,0-7.2772-1.1663,83.2392,83.2392,0,0,0-5.6141-23.7612,76.6678,76.6678,0,0,0-13.0778-21.8318,73.36,73.36,0,0,0-25.171-18.8143C201.06,90.4087,189.192,87.9988,179.3371,88c-13.2366-.006-22.7839,4.3627-28.9583,8.7557a40.2859,40.2859,0,0,0-8.0177,7.4319,58.8884,58.8884,0,0,0-7.09-3.0345,65.9609,65.9609,0,0,0-21.9753-3.8514,60.7283,60.7283,0,0,0-24.2152,5.0173c-8.5827,3.7-17.4686,9.7837-26.1,19.2347-8.485,9.2882-13.9557,17.7509-17.308,25.3312a49.2179,49.2179,0,0,0-4.5766,19.9631,35.419,35.419,0,0,0,3.7664,16.21,29.948,29.948,0,0,0,1.7292,2.9546,29.024,29.024,0,0,0-8.88,4.0271,36.6347,36.6347,0,0,0-9.9943,10.1533A58.55,58.55,0,0,0,19.7148,219.2c-.0805.3271-.157.6514-.23.9695l1.9493.4475-1.9494-.4473A56.9806,56.9806,0,0,0,18,232.8445c.0054,7.7905,1.79,14.9775,5.6586,20.3625a20.769,20.769,0,0,0,7.3853,6.4351A22.4042,22.4042,0,0,0,41.3882,262H257.0455l.1108,0a48.2251,48.2251,0,0,0,7.9874-.8008c6.4-1.1426,15.5532-3.8843,23.2183-10.6855a38.08,38.08,0,0,0,9.7111-13.4912A52.21,52.21,0,0,0,302,216.0938q0-2.2317-.1422-4.6023C301.12,199.2937,298.136,189.97,293.9736,182.8926Z" class="fill"/>
    </g>
  </g>
</svg>
