<svg xmlns="http://www.w3.org/2000/svg" viewBox="0 0 320 320">
  <title>_.cog-filled</title>
  <g id="camera">
    <path d="M39.8759,140.6909a2,2,0,0,0-1.8721,2.12l3.07,49.3608a2,2,0,0,0,2.12,1.872l27.6285-1.7184,24.72,37.264L83.2159,254.376a2,2,0,0,0,.9,2.6813l44.2822,22.022a2,2,0,0,0,2.6814-.9l13.5975-27.343,41.7817-2.5984,16.881,25.4474a2,2,0,0,0,2.7722.5611l41.2124-27.3389a2,2,0,0,0,.5612-2.7722L232.5836,221.067l19.9117-40.04,27.6287-1.7179a2,2,0,0,0,1.8721-2.12l-3.07-49.3608a2,2,0,0,0-2.12-1.872L254.8771,127.32,227.0006,85.297l9.7833-19.6731a2,2,0,0,0-.9-2.6813l-44.2822-22.022a2,2,0,0,0-2.6814.9l-8.5117,17.1164-53.1813,3.3074L116.66,46.3148a2,2,0,0,0-2.7722-.5611L72.6752,73.0926a2,2,0,0,0-.5612,2.7722L84.2593,94.174,61.8048,139.3274Zm116.7948-34.2255q1.5826-.0985,3.1477-.098a49.9322,49.9322,0,0,1,49.7836,46.8315q.0981,1.5835.0979,3.1489A49.9313,49.9313,0,0,1,162.8689,206.13q-1.5844.0983-3.149.098a49.931,49.931,0,0,1-49.7823-46.8314q-.0991-1.584-.0983-3.149a49.9314,49.9314,0,0,1,46.8313-49.7825l-.1241-1.9961Z" class="fill"/>
  </g>
</svg>
