<svg xmlns="http://www.w3.org/2000/svg" viewBox="0 0 320 320">
  <title>_.database-outline</title>
  <g id="camera">
    <g>
      <path d="M68,244.3418a17.5432,17.5432,0,0,0,2.0515,8.104c2.3294,4.4951,6.4359,8.5023,11.8857,12.0613,8.1837,5.33,19.4619,9.6711,32.82,12.7185A206.1511,206.1511,0,0,0,160,282c25.07-.0046,47.77-4.011,64.3763-10.5846,8.3043-3.2942,15.0964-7.2239,19.9183-11.7341a27.09,27.09,0,0,0,5.6539-7.2354A17.5447,17.5447,0,0,0,252,244.3418V203.5664a9.05,9.05,0,0,0-.1323-1.4395,2,2,0,0,0-3.9615.0815,14.6834,14.6834,0,0,1-2.23,6.0654c-2.1844,3.5182-5.9754,6.9891-11.143,10.1447-7.7454,4.7412-18.5367,8.7676-31.3059,11.5767A203.3459,203.3459,0,0,1,160,234.418c-23.93.0039-45.6536-3.7462-61.5115-9.7662-7.9276-3.004-14.3807-6.58-18.89-10.4427a26.1826,26.1826,0,0,1-5.275-5.9351,14.6808,14.6808,0,0,1-2.23-6.0654,2,2,0,0,0-3.9615-.0815A9.05,9.05,0,0,0,68,203.5664Zm15.38-22.5106c8.2888,5.0642,19.4432,9.1843,32.5324,12.07A207.31,207.31,0,0,0,160,238.4178c24.352-.0039,46.4664-3.786,62.93-10.0262,8.2332-3.1261,15.0616-6.8619,20.0714-11.1432A31.9816,31.9816,0,0,0,248,211.9463v32.3955a13.5363,13.5363,0,0,1-1.6055,6.2686c-1.8666,3.6293-5.4432,7.2432-10.5165,10.5461-7.6011,4.9623-18.4985,9.2057-31.5242,12.1691A202.1946,202.1946,0,0,1,160,278c-24.6354.0046-46.9355-3.9714-62.9029-10.3036-7.9825-3.1587-14.3706-6.9127-18.6572-10.9346a23.1322,23.1322,0,0,1-4.8345-6.1515A13.5348,13.5348,0,0,1,72,244.3418V211.9636A39.64,39.64,0,0,0,83.38,221.8312Z" class="fill"/>
      <path d="M68,119.24a17.5432,17.5432,0,0,0,2.0515,8.104c2.3294,4.4951,6.4359,8.5022,11.8857,12.061,8.1837,5.33,19.4619,9.6708,32.82,12.7181A206.1669,206.1669,0,0,0,160,156.8973c25.07-.0046,47.77-4.0107,64.3763-10.5841,8.3043-3.2941,15.0963-7.2236,19.9183-11.7339a27.09,27.09,0,0,0,5.6539-7.2351A17.5447,17.5447,0,0,0,252,119.24V78.4648a8.042,8.042,0,0,0-.0954-1.168A15.7222,15.7222,0,0,0,252,75.6582a17.5448,17.5448,0,0,0-2.0515-8.1041c-2.3294-4.4951-6.4359-8.5023-11.8857-12.0613-8.1838-5.33-19.462-9.6711-32.82-12.7185A206.1515,206.1515,0,0,0,160,38c-25.07.0046-47.77,4.011-64.3763,10.5846-8.3043,3.2942-15.0964,7.2239-19.9183,11.7341a27.0873,27.0873,0,0,0-5.6539,7.2354A17.5433,17.5433,0,0,0,68,75.6582a15.7261,15.7261,0,0,0,.0954,1.6387A8.042,8.042,0,0,0,68,78.4648Zm178.3945,6.2684c-1.8666,3.6293-5.4431,7.2432-10.5165,10.5459-7.6011,4.9623-18.4985,9.2054-31.5241,12.1687A202.2037,202.2037,0,0,1,160,152.8975c-24.6354.0046-46.9355-3.9712-62.9029-10.3031-7.9825-3.1586-14.3707-6.9125-18.6572-10.9342a23.13,23.13,0,0,1-4.8345-6.1515A13.5343,13.5343,0,0,1,72,119.24V86.8616a39.6417,39.6417,0,0,0,11.38,9.8677c8.2888,5.0643,19.4432,9.1846,32.5325,12.0707A207.3019,207.3019,0,0,0,160,113.3163c24.352-.004,46.4665-3.786,62.93-10.0264,8.2332-3.1261,15.0616-6.8621,20.0714-11.1434A31.9955,31.9955,0,0,0,248,86.8442V119.24A13.5358,13.5358,0,0,1,246.3945,125.5087ZM73.6055,69.39c1.8666-3.6293,5.4431-7.2432,10.5165-10.5461,7.6011-4.9623,18.4985-9.2057,31.5242-12.1691A202.1942,202.1942,0,0,1,160,42c24.6354-.0046,46.9355,3.9714,62.9029,10.3036,7.9825,3.1587,14.3706,6.9127,18.6572,10.9346a23.1328,23.1328,0,0,1,4.8345,6.1515A13.5364,13.5364,0,0,1,248,75.6582a12.4191,12.4191,0,0,1-.0937,1.4471,14.6843,14.6843,0,0,1-2.23,6.0664c-2.1843,3.5184-5.9753,6.99-11.1429,10.145-7.7455,4.7412-18.5369,8.7677-31.306,11.5768A203.3392,203.3392,0,0,1,160,109.3164c-23.93.0039-45.6536-3.7462-61.5115-9.7664-7.9276-3.0042-14.3807-6.58-18.89-10.443a26.1823,26.1823,0,0,1-5.275-5.9353,14.6831,14.6831,0,0,1-2.23-6.0658A12.4249,12.4249,0,0,1,72,75.6582,13.5349,13.5349,0,0,1,73.6055,69.39Z" class="fill"/>
      <path d="M68,182.6318a17.5432,17.5432,0,0,0,2.0515,8.104c2.3294,4.4951,6.4359,8.5023,11.8857,12.0613,8.1837,5.33,19.4619,9.6711,32.82,12.7185A206.1511,206.1511,0,0,0,160,220.29c25.07-.0046,47.77-4.011,64.3763-10.5846,8.3043-3.2942,15.0964-7.2239,19.9183-11.7341a27.09,27.09,0,0,0,5.6539-7.2354A17.5447,17.5447,0,0,0,252,182.6318V141.8564a9.0348,9.0348,0,0,0-.1323-1.4395,2,2,0,0,0-3.9615.0815,14.6834,14.6834,0,0,1-2.23,6.0654c-2.1844,3.5182-5.9754,6.9891-11.143,10.1447-7.7454,4.7412-18.5367,8.7676-31.3059,11.5767A203.3459,203.3459,0,0,1,160,172.708c-23.93.0039-45.6536-3.7462-61.5115-9.7662-7.9276-3.004-14.3807-6.58-18.89-10.4427a26.1826,26.1826,0,0,1-5.275-5.9351,14.6808,14.6808,0,0,1-2.23-6.0654,2,2,0,0,0-3.9615-.0815A9.0348,9.0348,0,0,0,68,141.8564Zm15.38-22.5106c8.2888,5.0642,19.4432,9.1843,32.5324,12.07A207.31,207.31,0,0,0,160,176.7079c24.352-.0039,46.4664-3.786,62.93-10.0262,8.2332-3.1261,15.0616-6.8619,20.0714-11.1432A31.9816,31.9816,0,0,0,248,150.2363v32.3955a13.5363,13.5363,0,0,1-1.6055,6.2686c-1.8666,3.6293-5.4432,7.2432-10.5165,10.5461-7.6011,4.9623-18.4985,9.2057-31.5242,12.1691A202.1946,202.1946,0,0,1,160,216.29c-24.6354.0046-46.9355-3.9714-62.9029-10.3036-7.9825-3.1587-14.3706-6.9127-18.6572-10.9346A23.1322,23.1322,0,0,1,73.6055,188.9,13.5348,13.5348,0,0,1,72,182.6318V150.2537A39.64,39.64,0,0,0,83.38,160.1212Z" class="fill"/>
    </g>
  </g>
</svg>
