<svg xmlns="http://www.w3.org/2000/svg" viewBox="0 0 320 320">
  <title>_.envelope</title>
  <g id="camera">
    <path d="M301.9156,75.4254c-.0066-.0219-.022-.0385-.0292-.06a2.012,2.012,0,0,0-.2439-.5c-.0144-.0209-.0322-.0378-.0474-.058a1.285,1.285,0,0,0-.356-.3643c-.0266-.0211-.05-.0438-.0778-.0636a2.0079,2.0079,0,0,0-.48-.2515c-.0382-.0139-.0765-.0236-.1157-.0352A1.98,1.98,0,0,0,300,74H20a1.9813,1.9813,0,0,0-.5652.0923c-.0393.0117-.0779.0214-.1162.0354a2.0079,2.0079,0,0,0-.48.2515c-.0275.02-.0509.0422-.0773.0632a1.2881,1.2881,0,0,0-.3569.3654c-.0149.02-.0322.0364-.0464.0568a2.0093,2.0093,0,0,0-.2444.5012c-.0072.0213-.0225.0378-.0289.0594s-.0026.0415-.0081.0621A1.9812,1.9812,0,0,0,18,76V244a2,2,0,0,0,2,2H300a2,2,0,0,0,2-2V76a1.9819,1.9819,0,0,0-.076-.512C301.9182,75.4672,301.9219,75.446,301.9156,75.4254ZM293.3334,78,160,165.912,26.6666,78ZM22,242V79.7142L158.899,169.9774a1.9945,1.9945,0,0,0,2.2018,0L298,79.7143V242Z" class="fill"/>
  </g>
</svg>
