<svg xmlns="http://www.w3.org/2000/svg" viewBox="0 0 320 320">
  <title>_.envelope-outline</title>
  <g id="camera">
    <path d="M301.9156,75.4254c-.0066-.0219-.022-.0385-.0292-.06a2.012,2.012,0,0,0-.2439-.5c-.0144-.0209-.0322-.0378-.0474-.058a1.285,1.285,0,0,0-.356-.3643c-.0266-.0211-.05-.0438-.0778-.0636a2.0079,2.0079,0,0,0-.48-.2515c-.0382-.0139-.0765-.0236-.1157-.0352A1.98,1.98,0,0,0,300,74H20a1.9817,1.9817,0,0,0-.5652.0923c-.0393.0117-.0778.0214-.1162.0355a2.0073,2.0073,0,0,0-.48.2514c-.0274.02-.0509.0422-.0773.0632a1.2869,1.2869,0,0,0-.3566.3651c-.0151.02-.0326.0367-.0469.0574a2.01,2.01,0,0,0-.2442.501c-.0072.0213-.0224.0378-.0289.0594s-.0026.0415-.0081.0621A1.9785,1.9785,0,0,0,18,76V244a2,2,0,0,0,2,2H300a2,2,0,0,0,2-2V76a1.9819,1.9819,0,0,0-.076-.512C301.9182,75.4672,301.9219,75.446,301.9156,75.4254ZM293.3333,78,160,165.912,26.6667,78ZM22,242V79.7143L158.899,169.9774a1.9945,1.9945,0,0,0,2.2018,0L298,79.7143V242Z" class="fill"/>
  </g>
</svg>
