<svg xmlns="http://www.w3.org/2000/svg" viewBox="0 0 320 320">
  <title>_.filesystem.file-text-outline</title>
  <g id="save">
    <path d="M78,274H242a2,2,0,0,0,2-2V89.1714a2.0132,2.0132,0,0,0-.5858-1.4142L192.2428,36.5858A2.0129,2.0129,0,0,0,190.8286,36H78a2,2,0,0,0-2,2V272a2,2,0,0,0,2,2ZM201.698,87.9481l-5.8054-36.3989,35.5067,35.5072ZM84,44H186.5l7.5177,56.2649a2,2,0,0,0,2.3389,1.7031L236,94.7855V266H84Z" class="fill"/>
    <path d="M110,94h60a4,4,0,1,0,0-8H110a4,4,0,1,0,0,8Z" class="fill"/>
    <path d="M200,116H110a4,4,0,1,0,0,8h90a4,4,0,1,0,0-8Z" class="fill"/>
    <path d="M110,154h30a4,4,0,1,0,0-8H110a4,4,0,1,0,0,8Z" class="fill"/>
    <path d="M190,176H110a4,4,0,1,0,0,8h80a4,4,0,1,0,0-8Z" class="fill"/>
    <path d="M160,206H110a4,4,0,1,0,0,8h50a4,4,0,1,0,0-8Z" class="fill"/>
  </g>
</svg>
