<svg xmlns="http://www.w3.org/2000/svg" viewBox="0 0 320 320">
  <title>_.filesystem.phone-landscape</title>
  <g id="save">
    <path d="M255.9746,88H64.0254A26.026,26.026,0,0,0,38,114.0254v91.9492A26.0259,26.0259,0,0,0,64.0254,232H255.9746A26.0259,26.0259,0,0,0,282,205.9746V114.0254A26.0259,26.0259,0,0,0,255.9746,88ZM268,114.5991v90.8018A12.5991,12.5991,0,0,1,255.4014,218H84.5986A12.5991,12.5991,0,0,1,72,205.4009V114.5991A12.5991,12.5991,0,0,1,84.5986,102H255.4014A12.5991,12.5991,0,0,1,268,114.5991Z" class="fill"/>
  </g>
</svg>
