<svg xmlns="http://www.w3.org/2000/svg" viewBox="0 0 320 320">
  <title>_.filesystem.pen</title>
  <g id="save">
    <path d="M227.1718,54.8616c-11.3678-6.72-20.7928-9.1483-28.4425-9.1475a30.2426,30.2426,0,0,0-19.06,6.3576,25.3559,25.3559,0,0,0-5.9869,6.5L88.27,205.9546a1.99,1.99,0,0,0-.267,1.0543c0,.01-.0026.0208-.0024.0313l.9175,82.9819a2,2,0,0,0,2.967,1.7284l72.0947-39.8364a1.996,1.996,0,0,0,.8981-1.0291l.01-.0273L250.6945,104.05l.0255-.0452a27.6664,27.6664,0,0,0,2.7631-12.4589,32.8,32.8,0,0,0-5.14-17.369C244.418,67.8042,237.8179,61.1514,227.1718,54.8616ZM92.01,207.8772a8.667,8.667,0,0,1,1.6511-1.0007,17.083,17.083,0,0,1,7.3844-1.4219c6.3624-.0054,16.63,2.3588,32.1615,11.54,12.8033,7.564,19.8665,14.2521,23.6908,19.51,3.8019,5.2365,4.4415,9.0209,4.4561,11.1a7.9638,7.9638,0,0,1-.0935,1.2419L92.88,286.63Z" class="fill"/>
  </g>
</svg>
