<svg xmlns="http://www.w3.org/2000/svg" viewBox="0 0 320 320">
  <title>_.filesystem.paper-empty</title>
  <g id="save">
    <path d="M241.7908,79.13c-.0208-.043-.0426-.0836-.0665-.125a1.9734,1.9734,0,0,0-.31-.4192l-40-40a1.9778,1.9778,0,0,0-.4194-.31c-.0413-.0238-.0818-.0456-.1245-.0663a2.0151,2.0151,0,0,0-.4711-.1677l-.0214-.0038A1.977,1.977,0,0,0,200,38H80a2,2,0,0,0-2,2V280a2,2,0,0,0,2,2H240a2,2,0,0,0,2-2V80a1.98,1.98,0,0,0-.0378-.3767l-.0045-.0242A2.0106,2.0106,0,0,0,241.7908,79.13ZM202,44.8284,235.1715,78H202ZM82,278V42H198V80a2,2,0,0,0,2,2h38V278Z" class="fill"/>
  </g>
</svg>
