<svg xmlns="http://www.w3.org/2000/svg" viewBox="0 0 320 320">
  <title>_.filesystem.file-empty-outline</title>
  <g id="save">
    <path d="M78,274H242a2,2,0,0,0,2-2V89.1714a1.9873,1.9873,0,0,0-.5864-1.4148l-.5859-.5854L192.8289,37.1723l-.5854-.5859A1.9876,1.9876,0,0,0,190.8286,36H78a2,2,0,0,0-2,2V272a2,2,0,0,0,2,2Zm162-4h-2a2,2,0,0,0,2-2ZM186.6114,44l9.7991,58.7946a2,2,0,0,0,2.4578,1.6115L236,95.123V266H84V44Zm45.5645,43.8329-28.9426,7.2355-7.2355-43.4141ZM240,90v2.5613a2,2,0,0,0-2.485-1.94l-.9418.2355a2,2,0,0,0,.9294-3.3539L240,90ZM190,40h0l4.4112,4.4112a2,2,0,0,0-3.3848,1.7446l8.6177,51.707a2,2,0,0,0,2.4578,1.6115l29.7537-7.4383L200,100l-9.7215-58.3289A2,2,0,0,0,188.3057,40ZM80,40h2a2,2,0,0,0-2,2Zm0,228a2,2,0,0,0,2,2H80Z" class="fill"/>
  </g>
</svg>
