<svg xmlns="http://www.w3.org/2000/svg" viewBox="0 0 320 320">
  <title>_.filesystem.empty_9</title>
  <g id="save">
    <path d="M34.288,241.8689l104.9146,39.9675a55.5929,55.5929,0,0,0,6.4149,2.5609A46.8734,46.8734,0,0,0,160,287a46.8733,46.8733,0,0,0,14.3824-2.6025,54.3931,54.3931,0,0,0,6.512-2.6085l.0658-.0345,95-52c.042-.0231.0773-.0551.1173-.0809s.0756-.05.1124-.0774a1.9946,1.9946,0,0,0,.3953-.38c.0149-.0193.0244-.0415.0386-.0614a1.9877,1.9877,0,0,0,.2336-.442c.0156-.0408.0325-.0793.0454-.1211.0092-.0293.0243-.0559.0321-.0858a1.99,1.99,0,0,0,.059-.4689c0-.0127.006-.024.006-.0369V52a1.9855,1.9855,0,0,0-.1538-.7693l-5-11.999c-.0255-.061-.06-.1155-.09-.1729-.0139-.0259-.0255-.0522-.0405-.0775a1.9935,1.9935,0,0,0-.28-.3683c-.0164-.0171-.0352-.0315-.0522-.0481a1.9884,1.9884,0,0,0-.33-.2568c-.0159-.01-.0276-.0247-.0438-.0341-.0081-.0048-.0172-.006-.0254-.0106a1.9906,1.9906,0,0,0-.4257-.1783c-.0283-.0082-.0566-.0135-.0852-.02a1.9767,1.9767,0,0,0-.4165-.0571c-.019-.0006-.0376-.0037-.0566-.0037a2.0006,2.0006,0,0,0-.3918.0359c-.0234.0046-.0444.0144-.0675.02-.0325.0076-.0634.0187-.0956.028a1.9875,1.9875,0,0,0-.376.1508c-.0164.0085-.0345.0112-.0507.02L222,64.7585V20a2,2,0,0,0-3.645-1.1375L175.3754,81.03c-.4246.436-2.4576,2.4926-5.3279,4.9038a51.9658,51.9658,0,0,1-10.4821,7.0537,43.6123,43.6123,0,0,1-12.683-2.3845c-1.8119-.6039-3.3245-1.209-4.376-1.66-.5256-.2253-.9363-.412-1.2115-.54-.1377-.0643-.2416-.114-.3091-.1467l-.0739-.036-.0176-.0087L140.71,88.13,40.731,50.1382l-.0027-.001L40.71,50.13c-.0108-.0042-.0223-.0043-.0332-.0082a1.99,1.99,0,0,0-.285-.0834c-.0333-.0066-.0662-.0061-.0994-.011-.04-.0059-.0785-.01-.1182-.0131a1.9857,1.9857,0,0,0-.3644,0c-.0228.0022-.0453.0015-.0679.0044a1.9959,1.9959,0,0,0-.4218.103c-.0267.01-.0515.0227-.0778.0334a1.9879,1.9879,0,0,0-.3217.1681c-.0181.0116-.0388.0172-.0566.03-.0107.0074-.0182.0179-.0287.0255a1.9839,1.9839,0,0,0-.3251.2888c-.0117.0129-.02.0278-.0317.0411a1.9948,1.9948,0,0,0-.2164.3143c-.0189.0337-.0363.0671-.0533.1017s-.04.0682-.0552.1056l-5,12A1.9833,1.9833,0,0,0,33,64V240c0,.0232.01.0436.0109.0665a1.9875,1.9875,0,0,0,.0932.57l.0007.0013c.0031.0093.0088.0168.012.026a1.9891,1.9891,0,0,0,.2512.4755c.03.0425.06.0813.0931.1211a1.9768,1.9768,0,0,0,.3548.3411c.0209.0154.0377.0345.0592.0493A2.0055,2.0055,0,0,0,34.288,241.8689ZM268,218.824l-11.0184,6.1213-77.9077,43.2813a51.917,51.917,0,0,1-6.2994,2.4891c-1.119.3662-2.3531.7225-3.6477,1.0455,1.3724-1.0215,2.6561-2.0544,3.802-3.0247,3.25-2.7579,5.4067-5.0123,5.44-5.0466l-.0179-.0171a1.9446,1.9446,0,0,0,.2178-.2269l43.0767-62.3086A1.9884,1.9884,0,0,0,222,200V69.35L268,43.424ZM172.9286,88.7357c3.25-2.7581,5.4067-5.0125,5.44-5.0468l-.0179-.0171a1.9446,1.9446,0,0,0,.2178-.2269L218,26.41V199.3761l-42.6246,61.6544c-.4246.436-2.4576,2.4924-5.3279,4.9036A58.9645,58.9645,0,0,1,162,271.7085V96.2456A58.2439,58.2439,0,0,0,172.9286,88.7357Zm-27.3112,5.6616A49.2182,49.2182,0,0,0,158,96.9387V272.927a45.753,45.753,0,0,1-11.1176-2.3245c-1.8119-.6039-3.3245-1.209-4.376-1.66-.5256-.2253-.9363-.412-1.2115-.54-.1377-.0643-.2416-.114-.3091-.1467l-.0739-.036-.0176-.0087-.1841-.0807L42,230.62V54.8993l97.2034,36.9374A55.578,55.578,0,0,0,145.6174,94.3973Z" class="fill"/>
  </g>
</svg>
