<svg xmlns="http://www.w3.org/2000/svg" viewBox="0 0 320 320">
  <title>_.filesystem.upload-filled</title>
  <g id="save">
    <path d="M120,173l-58,0V155a2,2,0,0,0-2-2H40a2,2,0,0,0-2,2v40a2,2,0,0,0,2,2h80a2,2,0,0,0,2-2V175a2,2,0,0,0-2-2Z" class="fill"/>
    <path d="M280,153H260a2,2,0,0,0-2,2v18l-58,0a2,2,0,0,0-2,2v20a2,2,0,0,0,2,2h80a2,2,0,0,0,2-2V155a2,2,0,0,0-2-2Z" class="fill"/>
    <path d="M202,95a11.9716,11.9716,0,0,0-3.5144-8.4855l-30-30a11.965,11.965,0,0,0-7.6633-3.4865q-.392-.0267-.793-.0274V53l-.0428,0A11.9965,11.9965,0,0,0,152.16,55.914q-.368.3183-.71.6655l.0107-.0109L121.5144,86.5145a12.0015,12.0015,0,0,0,0,16.9709l1.4143-1.4141-1.4143,1.4142a12.0006,12.0006,0,0,0,16.9711,0L148,93.97V255a12,12,0,0,0,24,0V93.971l9.5145,9.515A12,12,0,0,0,202,95Z" class="fill"/>
  </g>
</svg>
