<svg xmlns="http://www.w3.org/2000/svg" viewBox="0 0 320 320">
  <title>_.filesystem.folder-open-variant</title>
  <g id="save">
    <polygon points="28.3 78.031 28.3 78.03 28.299 78.027 28.3 78.031" class="fill"/>
    <path d="M279.5674,95.0967H227.8257l-2.2214-7.754a12.36,12.36,0,0,0-11.8435-9.02H128.2253l-6.4495-6.5616a6.0849,6.0849,0,0,0-4.3394-1.8256H34.123a6.0566,6.0566,0,0,0-4.3845,1.8708A6.2248,6.2248,0,0,0,28.3,78.03L81.7859,245.774a6.127,6.127,0,0,0,5.8245,4.29H259.7891a5.6642,5.6642,0,0,0,5.541-4.6053l26.43-135.3012a12.91,12.91,0,0,0,.24-2.4733,12.6872,12.6872,0,0,0-3.5791-8.829A12.2817,12.2817,0,0,0,279.5674,95.0967ZM87.61,246.0645a2.1258,2.1258,0,0,1-2.0134-1.5054L32.1094,76.8123l-.001-.0031a2.2242,2.2242,0,0,1,.5146-2.2318,2.0459,2.0459,0,0,1,1.5-.642h83.3135a2.0847,2.0847,0,0,1,1.4863.6293l7.0374,7.16,15.2822,15.5465.0061.0056,1.2012,1.222a2.0067,2.0067,0,0,0,1.4263.5979h64.999a2.1265,2.1265,0,0,1,2.0134,1.508l46.1672,145.46ZM287.8337,109.3918l-26.43,135.3008a1.7089,1.7089,0,0,1-.3557.728L213.78,96.4916a2.0033,2.0033,0,0,0-1.9062-1.395H145.582a2.0826,2.0826,0,0,1-1.4866-.6293L132.1572,82.3226h81.6035a8.3581,8.3581,0,0,1,7.998,6.1216l2.6367,9.2032a1.9972,1.9972,0,0,0,1.9229,1.4491h53.249a8.273,8.273,0,0,1,5.9819,2.5436A8.6893,8.6893,0,0,1,288,107.6846,8.945,8.945,0,0,1,287.8337,109.3918Z" class="fill"/>
  </g>
</svg>
