<svg xmlns="http://www.w3.org/2000/svg" viewBox="0 0 320 320">
  <title>_.filesystem.paper-text</title>
  <g id="save">
    <path d="M100,202H220a2,2,0,0,0,0-4H100a2,2,0,0,0,0,4Z" class="fill"/>
    <path d="M100,122H220a2,2,0,0,0,0-4H100a2,2,0,0,0,0,4Z" class="fill"/>
    <path d="M80,282H240a2,2,0,0,0,2-2V80a1.98,1.98,0,0,0-.0378-.3767l-.0045-.0242a2.0106,2.0106,0,0,0-.167-.4692c-.0208-.043-.0427-.0836-.0666-.125a1.9749,1.9749,0,0,0-.31-.4192l-40-40a1.9788,1.9788,0,0,0-.4195-.31c-.0413-.0237-.0817-.0456-.1244-.0662a2.0171,2.0171,0,0,0-.4706-.1675l-.0219-.004A1.9762,1.9762,0,0,0,200,38H80a2,2,0,0,0-2,2V280a2,2,0,0,0,2,2ZM202,44.8284,235.1714,78H202ZM198,42V80a2,2,0,0,0,2,2h38V278H82V42Z" class="fill"/>
    <path d="M100,242h80a2,2,0,0,0,0-4H100a2,2,0,0,0,0,4Z" class="fill"/>
    <path d="M100,82h80a2,2,0,0,0,0-4H100a2,2,0,0,0,0,4Z" class="fill"/>
    <path d="M100,162H220a2,2,0,0,0,0-4H100a2,2,0,0,0,0,4Z" class="fill"/>
  </g>
</svg>
