<svg xmlns="http://www.w3.org/2000/svg" viewBox="0 0 320 320">
  <title>_.filesystem.phone</title>
  <g id="save">
    <path d="M205.9746,38H114.0254A26.026,26.026,0,0,0,88,64.0254V255.9746A26.0259,26.0259,0,0,0,114.0254,282h91.9492A26.0259,26.0259,0,0,0,232,255.9746V64.0254A26.0259,26.0259,0,0,0,205.9746,38ZM218,64.5991V235.4009A12.5991,12.5991,0,0,1,205.4014,248H114.5986A12.5991,12.5991,0,0,1,102,235.4009V64.5991A12.5991,12.5991,0,0,1,114.5986,52h90.8027A12.5991,12.5991,0,0,1,218,64.5991Z" class="fill"/>
  </g>
</svg>
