<svg xmlns="http://www.w3.org/2000/svg" viewBox="0 0 320 320">
  <title>_.filesystem.save-alt-filled</title>
  <g id="save">
    <path d="M201.4142,38.5857A2.0131,2.0131,0,0,0,200,38H40a2,2,0,0,0-2,2V280a2,2,0,0,0,2,2H280a2,2,0,0,0,2-2V120a2.0135,2.0135,0,0,0-.5857-1.4143ZM82,258V142H238V258ZM234.3311,118H82V52H195.8647L234.3311,90.823Z" class="fill"/>
    <path d="M200,228H100a2,2,0,0,0,0,4H200a2,2,0,0,0,0-4Z" class="fill"/>
    <path d="M220,198H100a2,2,0,0,0,0,4H220a2,2,0,0,0,0-4Z" class="fill"/>
    <path d="M220,168H100a2,2,0,0,0,0,4H220a2,2,0,0,0,0-4Z" class="fill"/>
  </g>
</svg>
