<svg xmlns="http://www.w3.org/2000/svg" viewBox="0 0 320 320">
  <title>_.filesystem.paper-landscape</title>
  <g id="save">
    <path d="M281.9749,99.75a1.9881,1.9881,0,0,0-.053-.2683c-.015-.0552-.03-.1093-.05-.1631a2.0109,2.0109,0,0,0-.1168-.255c-.0241-.0453-.0443-.0917-.0719-.135a1.9816,1.9816,0,0,0-.2693-.3427l-30-30a1.9817,1.9817,0,0,0-.4728-.3386c-.0367-.02-.0713-.0408-.1091-.0581a2.0067,2.0067,0,0,0-.5172-.1575c-.04-.0063-.0794-.0081-.12-.012A1.9377,1.9377,0,0,0,250,68H40a2,2,0,0,0-2,2V250a2,2,0,0,0,2,2H280a2,2,0,0,0,2-2V100c0-.03-.0075-.0586-.0089-.0881C281.9887,99.8569,281.9819,99.804,281.9749,99.75Zm-20.6393,7.3463L253.6915,76.52l17.13,17.13,5.8018,5.8018ZM42,72H248.4384L258.06,110.485a2,2,0,0,0,2.8347,1.3038L278,103.2361V248H42Z" class="fill"/>
  </g>
</svg>
