<svg xmlns="http://www.w3.org/2000/svg" viewBox="0 0 320 320">
  <title>_.filesystem.tablet-landscape</title>
  <g id="save">
    <path d="M274,78H46a8.0162,8.0162,0,0,0-8,8V234a8.0162,8.0162,0,0,0,8,8H274a8.0161,8.0161,0,0,0,8-8V86A8.0161,8.0161,0,0,0,274,78Zm-15.6,27.6V214.4a4.0177,4.0177,0,0,1-4,4H85.2a4.0177,4.0177,0,0,1-4-4V105.6a4.0177,4.0177,0,0,1,4-4H254.4a4.0177,4.0177,0,0,1,4,4ZM53.2292,159.1492a7.5113,7.5113,0,0,1,7.5115-7.5117,7.95,7.95,0,0,1,1.2871.1061,7.5113,7.5113,0,0,1,6.1184,6.1176,7.9839,7.9839,0,0,1,.106,1.2883,7.5118,7.5118,0,0,1-7.512,7.5115,7.9458,7.9458,0,0,1-1.2856-.1058,7.5127,7.5127,0,0,1-6.1187-6.1176l-1.9736.3237,1.9734-.3244A7.9676,7.9676,0,0,1,53.2292,159.1492Z" class="fill"/>
  </g>
</svg>
