<svg xmlns="http://www.w3.org/2000/svg" viewBox="0 0 320 320">
  <title>_.filesystem.files</title>
  <g id="save">
    <path d="M60,287H200a2,2,0,0,0,2-2V247h58a2,2,0,0,0,2-2V80.6523a2.0029,2.0029,0,0,0-.0555-.4476c-.0081-.0348-.02-.0676-.03-.1019a1.9614,1.9614,0,0,0-.1355-.3469c-.0179-.0356-.0347-.0708-.0547-.1054a1.9968,1.9968,0,0,0-.28-.3821l-43.75-45.6523a1.9785,1.9785,0,0,0-.4492-.3392c-.04-.0234-.0792-.0462-.121-.0665a2.0078,2.0078,0,0,0-.5046-.1724c-.0317-.006-.0635-.0054-.0957-.01A1.9622,1.9622,0,0,0,216.25,33H120a2,2,0,0,0-2,2V73H60a2,2,0,0,0-2,2V285a2,2,0,0,0,2,2Zm138-4H62V77h92.5442l8.481,53.0981a2,2,0,0,0,2.48,1.62L198,123.241V283Zm-1.8009-163.423-29.5719,7.7144-7.3928-46.2864,20.26,21.1406Zm60-40-29.5719,7.7144-7.3928-46.2864,20.26,21.1406ZM122,37h92.5442l8.481,53.0981a2,2,0,0,0,2.48,1.62L258,83.241V243H202V120.6523h0V120a2.0064,2.0064,0,0,0-.5659-1.3942l-43.75-45a1.996,1.996,0,0,0-.2284-.1923c-.0247-.0187-.0457-.0424-.071-.06-.0469-.0323-.0989-.0549-.1479-.083-.0356-.02-.07-.04-.1069-.0583a1.98,1.98,0,0,0-.5144-.1758c-.0277-.0052-.0554-.0043-.0835-.0084A1.9954,1.9954,0,0,0,156.25,73H122Z" class="fill"/>
  </g>
</svg>
