<svg xmlns="http://www.w3.org/2000/svg" viewBox="0 0 320 320">
  <title>_.filesystem.file-code</title>
  <g id="save">
    <path d="M80,272H240a2,2,0,0,0,2-2V90a1.9786,1.9786,0,0,0-.0589-.4555c-.0117-.05-.0289-.0971-.0445-.146a2.0083,2.0083,0,0,0-.1235-.3018c-.0236-.0463-.0455-.0922-.0728-.1367a1.9772,1.9772,0,0,0-.286-.3742l-50-50a1.98,1.98,0,0,0-.4546-.3289c-.0383-.0211-.0748-.0424-.1142-.0609a2.0079,2.0079,0,0,0-.5043-.1619c-.0344-.006-.0684-.0062-.103-.01A1.9587,1.9587,0,0,0,190,38H80a2,2,0,0,0-2,2V270a2,2,0,0,0,2,2Zm2-4V42H188.3057l9.7214,58.3289a2,2,0,0,0,2.4579,1.6115L238,92.5615V268ZM201.6166,97.5342l-8.6178-51.707,43.0891,43.0891Z" class="fill"/>
    <path d="M112.8284,160l28.5858-28.5858a2,2,0,0,0-2.8284-2.8284h0l-30,30a2,2,0,0,0,0,2.8284l30,30a2,2,0,0,0,2.8284-2.8284Z" class="fill"/>
    <path d="M171.4142,128.5858a2,2,0,1,0-2.8284,2.8285L197.1715,160l-28.5857,28.5858a2,2,0,1,0,2.8284,2.8285h0l30-30a2,2,0,0,0,0-2.8284Z" class="fill"/>
  </g>
</svg>
