<svg xmlns="http://www.w3.org/2000/svg" viewBox="0 0 320 320">
  <title>_.filesystem.folder-open-alt-outline</title>
  <g id="save">
    <path d="M284.0742,93h-50.37a12.1581,12.1581,0,0,0-11.488-8.125h-35.65L175.5271,72.1328a10.182,10.182,0,0,0-7.698-3.5078h-54.792l-6.4133-5.2472A12.7491,12.7491,0,0,0,98.5488,60.5H35.5918a7.5266,7.5266,0,0,0-7.4229,9.1144L67.01,250.9165A10.9,10.9,0,0,0,77.6875,259.5H263.9238a4.2958,4.2958,0,0,0,4.25-3.5607,2.5209,2.5209,0,0,0,.46-1.0951l.001-.0068L291.91,102.0511A7.8924,7.8924,0,0,0,284.0742,93ZM167.8291,72.6249a6.1843,6.1843,0,0,1,4.6746,2.1267l8.77,10.1234H132.8962l-14.9709-12.25ZM70.9214,250.0784,32.08,68.7733l-.0007-.0035a3.4761,3.4761,0,0,1,.9534-3.2123,3.5742,3.5742,0,0,1,2.56-1.0576h62.957a8.751,8.751,0,0,1,5.5417,1.9735l6.9661,5.6995,19.8594,16.25a1.9974,1.9974,0,0,0,1.2666.452h90.0332a8.1507,8.1507,0,0,1,7.9934,6.407l.0273.1278h0L263.634,254.9746a2.3942,2.3942,0,0,0,.1772.5254H77.6875A6.8989,6.8989,0,0,1,70.9214,250.0784ZM287.9551,101.45,266.124,244.7612,234.6648,97h49.4094a3.9149,3.9149,0,0,1,2.7922,1.1515,3.8309,3.8309,0,0,1,1.1333,2.71A3.9382,3.9382,0,0,1,287.9551,101.45Z" class="fill"/>
    <polygon points="28.169 69.615 28.169 69.614 28.168 69.611 28.169 69.615" class="fill"/>
  </g>
</svg>
