<svg xmlns="http://www.w3.org/2000/svg" viewBox="0 0 320 320">
  <title>_.filesystem.download</title>
  <g id="save">
    <path d="M280.6835,165.62a2,2,0,0,0-2.563,1.196L268.599,193H190a2,2,0,0,0,0,4h80a2.0032,2.0032,0,0,0,1.88-1.3165l10-27.5A2,2,0,0,0,280.6835,165.62Z" class="fill"/>
    <path d="M48.12,195.6835A2.0031,2.0031,0,0,0,50,197h80a2,2,0,0,0,0-4H51.4008L41.88,166.8165a2,2,0,1,0-3.759,1.367Z" class="fill"/>
    <path d="M160,63a2,2,0,0,0-2,2h0V250.1716l-26.5858-26.5859a2,2,0,0,0-2.8285,2.8284l30,30a1.9749,1.9749,0,0,0,.4192.31c.0414.0239.082.0458.125.0666a2.0106,2.0106,0,0,0,.4692.167l.0242.0045A1.98,1.98,0,0,0,160,257c.0415,0,.0819-.01.1233-.0123.0452-.0027.0891-.0076.1343-.0135a2.0069,2.0069,0,0,0,.4871-.1213c.0068-.0027.0139-.0024.0206-.0051s.0114-.008.0179-.0108a2.0057,2.0057,0,0,0,.4307-.2589c.036-.0278.07-.0552.1041-.0852.0311-.0274.0668-.0492.0962-.0786l30-30a2,2,0,0,0-2.8284-2.8284L162,250.1715V65A2,2,0,0,0,160,63Z" class="fill"/>
  </g>
</svg>
