<svg xmlns="http://www.w3.org/2000/svg" viewBox="0 0 320 320">
  <title>_.filesystem.file-empty</title>
  <g id="save">
    <path d="M80,272H240a2,2,0,0,0,2-2V90a1.9776,1.9776,0,0,0-.0589-.4554c-.0117-.05-.0291-.0972-.0446-.1462a2.0133,2.0133,0,0,0-.1234-.3015c-.0236-.0464-.0456-.0923-.0729-.137a1.9739,1.9739,0,0,0-.2859-.3741l-50-50a1.9811,1.9811,0,0,0-.4543-.3287c-.0385-.0212-.0751-.0426-.1147-.0611a2.0085,2.0085,0,0,0-.504-.1618c-.0343-.0059-.0682-.006-.1028-.01A1.9616,1.9616,0,0,0,190,38H80a2,2,0,0,0-2,2V270a2,2,0,0,0,2,2Zm2-4V42H188.3057l9.7214,58.3288a2,2,0,0,0,2.4579,1.6115L238,92.5615V268ZM236.088,88.9164l-34.4714,8.6178-8.6178-51.707,41.2783,41.2784Z" class="fill"/>
  </g>
</svg>
