<svg xmlns="http://www.w3.org/2000/svg" viewBox="0 0 320 320">
  <title>_.filesystem.file-code-outline</title>
  <g id="save">
    <path d="M78,274H242a2,2,0,0,0,2-2V89.1714a2.0131,2.0131,0,0,0-.5858-1.4142L192.2428,36.5858A2.0129,2.0129,0,0,0,190.8286,36H78a2,2,0,0,0-2,2V272a2,2,0,0,0,2,2ZM203.2333,95.0684l-7.2355-43.414,36.1781,36.1785ZM84,44H186.6114l9.7991,58.7947a2,2,0,0,0,2.4578,1.6115L236,95.123V266H84Z" class="fill"/>
    <path d="M143.4141,131.414A2.013,2.013,0,0,0,142.8282,130L140,127.1717a2,2,0,0,0-2.8284,0l-31.4146,31.4141a2,2,0,0,0,0,2.8284l31.4146,31.4141a2,2,0,0,0,2.8284,0L142.8282,190a2,2,0,0,0,0-2.8284L115.657,160l27.1713-27.1717A2.0134,2.0134,0,0,0,143.4141,131.414Z" class="fill"/>
    <path d="M172.8282,127.1717a2,2,0,0,0-2.8284,0L167.1718,130a2,2,0,0,0,0,2.8284L194.343,160l-27.1713,27.1718a2,2,0,0,0,0,2.8284L170,192.8282a2,2,0,0,0,2.8284,0l31.4146-31.4141a2,2,0,0,0,0-2.8284Z" class="fill"/>
  </g>
</svg>
