<svg xmlns="http://www.w3.org/2000/svg" viewBox="0 0 320 320">
  <title>_.filesystem.file-text</title>
  <g id="save">
    <path d="M80,272H240a2,2,0,0,0,2-2V90a1.9786,1.9786,0,0,0-.0589-.4555c-.0117-.05-.0289-.0971-.0445-.146a2.0083,2.0083,0,0,0-.1235-.3018c-.0236-.0463-.0455-.0922-.0728-.1367a1.9772,1.9772,0,0,0-.286-.3742l-50-50a1.9811,1.9811,0,0,0-.4543-.3287c-.0385-.0212-.0751-.0426-.1147-.0611a2.0091,2.0091,0,0,0-.5038-.1617c-.0346-.006-.0688-.0062-.1036-.01A1.9528,1.9528,0,0,0,190,38H80a2,2,0,0,0-2,2V270a2,2,0,0,0,2,2Zm2-4V42H188.3057l9.7214,58.3289a2,2,0,0,0,2.4579,1.6115L238,92.5615V268ZM236.0879,88.9163l-34.4713,8.6179-8.6178-51.7071Z" class="fill"/>
    <path d="M110,92h60a2,2,0,0,0,0-4H110a2,2,0,0,0,0,4Z" class="fill"/>
    <path d="M200,118H110a2,2,0,0,0,0,4h90a2,2,0,0,0,0-4Z" class="fill"/>
    <path d="M110,152h30a2,2,0,0,0,0-4H110a2,2,0,0,0,0,4Z" class="fill"/>
    <path d="M190,178H110a2,2,0,0,0,0,4h80a2,2,0,0,0,0-4Z" class="fill"/>
    <path d="M160,208H110a2,2,0,0,0,0,4h50a2,2,0,0,0,0-4Z" class="fill"/>
  </g>
</svg>
