<svg xmlns="http://www.w3.org/2000/svg" viewBox="0 0 320 320">
  <title>_.filesystem.file-image</title>
  <g id="save">
    <path d="M281.9749,99.75a1.9881,1.9881,0,0,0-.053-.2683c-.015-.0552-.03-.1093-.05-.1631a2.0109,2.0109,0,0,0-.1168-.255c-.0241-.0453-.0443-.0917-.0719-.135a1.9816,1.9816,0,0,0-.2693-.3427l-30-30a1.9817,1.9817,0,0,0-.4728-.3386c-.0367-.02-.0713-.0408-.1091-.0581a2.0067,2.0067,0,0,0-.5172-.1575c-.04-.0063-.0794-.0081-.12-.012A1.9377,1.9377,0,0,0,250,68H40a2,2,0,0,0-2,2V250a1.9725,1.9725,0,0,0,.03.3032c.004.0256.0027.0513.0077.0767a2.0128,2.0128,0,0,0,.1542.4583c.0084.0183.01.0381.0189.0562.0131.0261.0347.0457.0489.071a1.99,1.99,0,0,0,.2187.3179c.0262.031.0487.0642.0766.0935.0111.0117.0191.0259.0305.0374a1.9725,1.9725,0,0,0,.3359.2656c.036.0232.075.0391.1124.06a2.0146,2.0146,0,0,0,.334.1477c.0488.0164.0964.032.1465.0447A1.9832,1.9832,0,0,0,40,252H280a2,2,0,0,0,2-2V100c0-.03-.0075-.0586-.0089-.0881C281.9887,99.8569,281.9819,99.804,281.9749,99.75ZM176.6,191.2l0,0,15.9778-21.304a59.3565,59.3565,0,0,0,7.4318,4.5176c4.8636,2.4868,11.4035,5.0308,18.3046,5.0417a24.2679,24.2679,0,0,0,6.9433-.9756c12.7068-3.7925,24.5516-10.4614,27.9443-12.449L278,190.8281V248H134Zm18.3787-24.5051,25.2377-33.65,30.06,30.06c-4.16,2.38-14.953,8.21-26.1594,11.5413a20.2787,20.2787,0,0,1-5.8021.81c-5.8906.011-11.9454-2.2664-16.4786-4.6008a57.3673,57.3673,0,0,1-5.468-3.2017C195.7816,167.2634,195.3177,166.9385,194.9786,166.6948Zm26.4355-38.1091A2,2,0,0,0,218.4,128.8L175,186.6665l-13.3188-17.7583-.0012-.019a1.9941,1.9941,0,0,0-1.2787-1.6875L131.6,128.8a2,2,0,0,0-3.2,0L42,244V114.9607a38.477,38.477,0,0,0,7.6135-1.7511,52.7292,52.7292,0,0,0,20.54-13.0562A52.7316,52.7316,0,0,0,83.21,79.6132,38.4733,38.4733,0,0,0,84.9608,72H248.4384L258.06,110.485a2,2,0,0,0,2.8347,1.3038L278,103.2361v81.9353Zm-94.04,31.87a20.8042,20.8042,0,0,0-10.3571-3.3879l.002,0q-.3388-.0245-.6817-.0247a11.5748,11.5748,0,0,0-3.9375.7378c-.3681.1338-.7249.3022-1.0839.4639L130,133.3333l27.6194,36.8259a7.8257,7.8257,0,0,1-1.0046,2.72c-1.0091,1.69-2.9208,3.7051-7.0046,5.2483a5.65,5.65,0,0,1-2.0053.3611,7.7125,7.7125,0,0,1-2.7327-.5486,17.6881,17.6881,0,0,1-5.1133-3.2766,45.1626,45.1626,0,0,1-6.4042-7.17c-.81-1.106-1.459-2.0718-1.9019-2.7559-.2214-.342-.3914-.6135-.5045-.7971-.0565-.0918-.0989-.1616-.1263-.207l-.03-.05-.0071-.012-.0743-.1167A13.1679,13.1679,0,0,0,127.3746,160.4553Zm133.9609-53.3593L253.6915,76.52,276.6237,99.452ZM80.929,72A35.3833,35.3833,0,0,1,79.3334,78.59,48.8353,48.8353,0,0,1,67.325,97.3251a48.72,48.72,0,0,1-18.9764,12.09,35.5511,35.5511,0,0,1-6.1616,1.4891c-.0661.0094-.1235.0162-.187.0248V72Zm17.5166,103.406a1.9885,1.9885,0,0,0,1.3436-.8589l.02-.03a56.1292,56.1292,0,0,1,5.9443-7.21,30.463,30.463,0,0,1,5.36-4.4429,10.27,10.27,0,0,1,5.2243-1.821q.1958,0,.3926.0144l.002,0a16.7905,16.7905,0,0,1,8.3929,2.7058,11.4417,11.4417,0,0,1,1.82,1.5176c.1868.1948.3174.3491.3947.4451l.0586.0752a60.2877,60.2877,0,0,0,5.9786,8.11,35.1,35.1,0,0,0,6.3145,5.76,18.1839,18.1839,0,0,0,3.76,2.0076,11.6807,11.6807,0,0,0,4.1534.8093,9.6547,9.6547,0,0,0,3.41-.6155c4.8054-1.7905,7.585-4.4668,9.045-6.9607.1747-.2966.3284-.5881.4682-.875L172.5,190,129,248H44Z" class="fill"/>
    <path d="M76.1415,109.8767a2,2,0,1,0-2.9081,2.7465L97.14,137.9355a2,2,0,0,0,2.9081-2.7463Z" class="fill"/>
    <path d="M59.6479,121.2367a2,2,0,0,0-3.6709,1.589l13.5938,31.4062a2,2,0,0,0,3.6709-1.5891Z" class="fill"/>
    <path d="M135.1689,77.07l-36.875-3.125a2,2,0,1,0-.3378,3.9857l36.875,3.125a2,2,0,1,0,.3378-3.9857Z" class="fill"/>
    <path d="M119.4553,110.7783,91.174,94.06a2,2,0,1,0-2.0355,3.4432L117.42,114.2216a2,2,0,1,0,2.0355-3.4432Z" class="fill"/>
  </g>
</svg>
