<svg xmlns="http://www.w3.org/2000/svg" viewBox="0 0 320 320">
  <title>_.filesystem.display-glossy</title>
  <g id="save">
    <path d="M291.4141,78.5859A2.0128,2.0128,0,0,0,290,78H30a2,2,0,0,0-2,2V253.3335a2,2,0,0,0,2,2H147.167V273H105.833a1.9938,1.9938,0,0,0-1.3018.4815l-5.833,5A2,2,0,0,0,100,282H220a2,2,0,0,0,1.3015-3.5184l-5.833-5A1.9944,1.9944,0,0,0,214.167,273H172.8328V255.3335H290a2,2,0,0,0,2-2V80A2.0124,2.0124,0,0,0,291.4141,78.5859ZM42.7747,92H58.36L81.7388,208.8924,61.8972,149.3676Z" class="fill"/>
  </g>
</svg>
