<svg xmlns="http://www.w3.org/2000/svg" viewBox="0 0 320 320">
  <title>_.filesystem.paper-pile</title>
  <g id="save">
    <path d="M32.4126,188.478l137.1787.9009.1121-.0024,59.0391-2.9258a1.9945,1.9945,0,0,0,1.43-.7084L285.8015,119.76a2.0052,2.0052,0,0,0,.4707-1.2891V114.292a2,2,0,0,0-3.5078-1.314l-53.0552,60.8851-.0547.0283-59.96,4.496-.0759.0026-135.7457-.8553a1.999,1.999,0,0,0-1.9713,1.5953l-1.4346,6.9434a2,2,0,0,0,1.9456,2.4046Zm137.186-6.088.0371.0006h.001l.07-.0012.168-.0059.08-.0044,60-4.499a4.0812,4.0812,0,0,0,2.7681-1.3858l.0015-.0017.4629-.5312-5.5115,6.5372-58.1135,2.88L34.8779,184.494l.6093-2.9491Z" class="fill"/>
    <path d="M171.5786,132.9312l59.5654-8.478a1.9948,1.9948,0,0,0,1.2361-.6779l48.2666-56.2671a2.01,2.01,0,0,0,.4495-1.662l-.7773-4.25a2,2,0,0,0-3.4343-1l-47.1174,50.8372-.0071.005-.0889.0607-.033.0239-.0479.0134-58.1152,10.776-.0139.0024v-.0009l-135.4075,2.64a2.0018,2.0018,0,0,0-1.77,1.1462l-2.9131,6.1743a2,2,0,0,0,1.84,2.8531l138.1172-2.1772Zm-135.22-1.8531,1.0137-2.1485,134.1677-2.616a3.9968,3.9968,0,0,0,.6648-.0679l58.1882-10.7895a1.7967,1.7967,0,0,0,.3054-.0821l.0388-.0138a4.04,4.04,0,0,0,.6067-.2208l.001.0026.0078-.0029c.012-.0045.0208-.0135.0325-.0181.0725-.0339.145-.0574.2175-.0971l-.01-.0187a1.9716,1.9716,0,0,0,.2844-.1589l.103-.08a3.8586,3.8586,0,0,0,.468-.3676,1.7632,1.7632,0,0,0,.1919-.18l35.8311-38.66-38.6362,45.04-58.6953,8.3541Z" class="fill"/>
    <polygon points="26.452 137.469 26.451 137.469 26.451 137.468 26.452 137.469" class="fill"/>
    <path d="M36.7854,155.8921l132.7332.0547.25-.0157,59.125-7.439a1.9881,1.9881,0,0,0,1.2119-.6191l55.6289-59.5508a2.0135,2.0135,0,0,0,.5383-1.3652V82.5063a2,2,0,0,0-3.4351-1.3929l-53.0713,54.6821.0044-.0046-.0278.0284-.0632.0393-.0405.0268-59.908,9.06-.1553.0121L33.8535,145.68a2,2,0,0,0-1.9893,2.022l.0684,6.2129a1.9964,1.9964,0,0,0,1.9993,1.978l2.8105.001Zm-.8992-6.2227,133.7844-.712.1453-.006.3-.0234.1433-.0164,60-9.0742.0029,0a4.0914,4.0914,0,0,0,1.2537-.4062,1.8527,1.8527,0,0,0,.2769-.1724l.061-.0452a3.622,3.622,0,0,0,.7192-.5647l.0039-.0049.0562-.0575.0044-.0046L250.63,120.0428l-22.9529,24.571-58.2825,7.3329-132.6289-.0546-.0432.002-.8114,0Z" class="fill"/>
    <path d="M37.3545,166.2514l132.1846.8389.2124-.01,59.0918-5.9331a2.0068,2.0068,0,0,0,1.2854-.6507l55.63-61.6948a1.9986,1.9986,0,0,0,.5146-1.3393V93.0439a2,2,0,0,0-3.4614-1.3653l-53.1055,56.8491-.0479.024-59.9395,7.5417-.1345.0086L38.4968,156.05a2.0011,2.0011,0,0,0-1.9685,1.6418l-1.1289,6.2017a2,2,0,0,0,1.9551,2.3582Zm2.81-6.201,129.4828.0516.1284-.0041.26-.0166.1221-.0116,60-7.5493a4.0713,4.0713,0,0,0,2.4714-1.2619L245.3972,137.59l-17.7219,19.654L169.4578,163.09l-129.6965-.8231Z" class="fill"/>
    <path d="M41.6793,124.6715l129.0292-2.502a2.0147,2.0147,0,0,0,.9407-.2559L209.6111,100.59l.0007,0,.0369-.01.0388.0111-.0015-.0008,18.583,10.0254a2,2,0,0,0,2.4165-.4006l45.6006-49.2a2,2,0,0,0-1.4988-3.3593L145.0227,59.7263a1.9815,1.9815,0,0,0-.9836.2767L40.6251,120.9489a2,2,0,0,0,1.0542,3.7227ZM145.6147,63.7174,270.17,61.7292l-41.365,44.6295-17.2195-9.29-.0015-.0008a4.07,4.07,0,0,0-3.9321.0347l.0007,0L170.1284,118.18,49.2236,120.5244Z" class="fill"/>
    <path d="M210.6194,101.2691a1.9921,1.9921,0,0,0-1.929.0164l-26.5137,14.8926a2,2,0,0,0,1.3425,3.7105l40.3164-7.4463a2,2,0,0,0,.5864-3.7269Zm-15.9841,12.4988,15.054-8.4557,7.8367,4.2278Z" class="fill"/>
    <polygon points="26.19 133.519 26.191 133.517 26.191 133.517 26.19 133.519" class="fill"/>
    <path d="M33.5917,177.3637l135.9735.8711.1624-.0056,59.0654-4.4287a1.9989,1.9989,0,0,0,1.3584-.68L285.78,109.2812a1.9852,1.9852,0,0,0,.4919-1.3139v-4.3a2,2,0,0,0-3.4851-1.3393l-53.08,58.8682-.0491.025L169.7085,167.24l-.1145.0056-131.6733-.8239a2.0038,2.0038,0,0,0-1.7124.9462L31.9045,174.31a2,2,0,0,0,1.6871,3.0538Zm5.4254-6.9349,130.6069.8172.11-.0023.2207-.0107.1025-.0076,60-6.0239a4.08,4.08,0,0,0,2.6206-1.3265l6.6658-7.3926-11.6687,13.3908-58.1655,4.3613-132.3259-.8477Z" class="fill"/>
    <path d="M33.778,145.5156l135.72-.7124.2888-.0225,59.1572-8.9468a2.0081,2.0081,0,0,0,1.1372-.5857L286.2339,77.3l.0825-.0555a1.9253,1.9253,0,0,0,.3181-.2661l1.7207-1.7734a1.9989,1.9989,0,0,0,.4211-2.1366l-1.2725-3.1758a2,2,0,0,0-3.3276-.611l-52.47,56.9707.0012-.0013-.0508.0262-60.1382,6.8206-.104.0066L37.8555,135.3176a2.0067,2.0067,0,0,0-1.6323.8924l-4.1211,6.1982a2,2,0,0,0,1.6759,3.1073ZM38.9722,139.3l132.5559-2.1965.0935-.0037.2-.0127.0989-.0087,57.0911-6.475-1.334,1.3767-58.3464,8.8242-131.8195.692Z" class="fill"/>
    <path d="M285.5625,144.2324a1.9954,1.9954,0,0,0-2.2236.6374l-53.5583,66.9125-.0769.0762-.0024.0024-.0266.0266-.0281.0123-59.9956-.0767-137.7291-.0605a2,2,0,0,0-2,2.0395l.1465,7.41a1.9984,1.9984,0,0,0,2.0048,1.9605L169.63,222.812l.031,0L228.6,224.386a2.0042,2.0042,0,0,0,1.6328-.7724L286.48,151.2a1.9973,1.9973,0,0,0,.42-1.2269V146.12A1.9955,1.9955,0,0,0,285.5625,144.2324ZM227.6946,220.36l-57.9363-1.5467-.0215,0-.0615-.001-.0371,0-135.61.3557-.0674-3.4042,135.6868.06,59.9963.0767a4.0584,4.0584,0,0,0,1.8743-.462Z" class="fill"/>
    <path d="M169.62,200.5234l.0552-.0006,22.1309-.5342,36.8867-.89a1.9933,1.9933,0,0,0,1.501-.7344L285.8215,130.24a1.9957,1.9957,0,0,0,.4507-1.265V124.918a2,2,0,0,0-3.5291-1.2892L229.708,186.5331l-.0557.028-59.9709,2.9722-.06.0013L31.7816,188.63a2,2,0,0,0-2.0127,2.0395l.1465,7.4111a2,2,0,0,0,1.9926,1.9605Zm.0027-6.9888.0552,0,.1162-.0024.0569-.002,60-2.9736a4.0644,4.0644,0,0,0,2.2009-.7921l-4.375,5.3578-35.9673.8679-22.1028.5335-135.7308-.475-.0673-3.4045Z" class="fill"/>
    <path d="M285.5488,154.8541a1.9942,1.9942,0,0,0-2.228.6651l-53.61,69.02.0024-.0032-.0647.0331h-.0012l-59.97-1.6011-.0586-.0007-137.7031.3618a2,2,0,0,0-1.9943,2.0395l.1465,7.4092a2.0014,2.0014,0,0,0,2.011,1.96l137.54-.7816.0627.0015,58.87,3.0679a2.0062,2.0062,0,0,0,1.7007-.7928l56.2451-74.5557a1.9933,1.9933,0,0,0,.4033-1.2045v-3.7271A1.9943,1.9943,0,0,0,285.5488,154.8541Zm-57.8506,78.1221-57.8364-3.014-.0554-.0021-.12-.0029-.06-.0005-135.5984.7706-.0673-3.4034,135.64-.3564,59.94,1.6.1079.0014a4.0689,4.0689,0,0,0,1.65-.3644Z" class="fill"/>
    <path d="M292.3232,123.9885l-.9678,1.75.9673-1.75a4.0712,4.0712,0,0,0-1.8953-.5047V79.0361l1.8491-1.9048.0007-.0007a4.0806,4.0806,0,0,0,.86-4.3527l-.0015-.0035-3-7.4849,0-.0015a4.078,4.078,0,0,0-3.0476-2.4919l-.002,0a4.1,4.1,0,0,0-.7375-.067,4.0563,4.0563,0,0,0-1.5405.312l-1.1467-6.2739,0-.0017a2.7831,2.7831,0,0,0-.1338-.4753l-.0173-.045-.0366-.131a1.9205,1.9205,0,0,0-.1528-.342l.0137-.0065c-.0278-.0579-.0525-.0909-.08-.1414-.009-.0147-.011-.031-.0205-.0458l-.0215-.0337-.0022.0014c-.1006-.1745-.1877-.31-.25-.3948h0l-.1035-.1519-.1541-.1982a3.6159,3.6159,0,0,0-.5632-.51l-.0867-.0732-.2263-.1655a4.1126,4.1126,0,0,0-1.0347-.4662l-.2324-.0531-.0029,0-.0386-.0061-.1218-.0179a4.1907,4.1907,0,0,0-.5417-.0671l0-.004-.0176-.002-.1787-.0085-.0244-.0018v.0006l-.05-.0023L144.4075,55.5808a4.0635,4.0635,0,0,0-2.0066.5651L31.6935,121.3892a4.022,4.022,0,0,0-1.8866,4.464l-3.6158,7.6637a4.0667,4.0667,0,0,0,3.0077,5.7542l-2.7158,4.085a4.0758,4.0758,0,0,0-.1945,4.1934l0,.001a4.0092,4.0092,0,0,0,1.4352,1.5119l.0767,6.9524a4.0759,4.0759,0,0,0,4.0752,4.0327h.0006l-1.01,5.5471a4.0138,4.0138,0,0,0,.2035,2.1761l-4.6576,7.5131a4.0824,4.0824,0,0,0-.1033,4.12,3.964,3.964,0,0,0,1.0476,1.19L26.1357,186.5a4.03,4.03,0,0,0-.5642,2.04l.002.08h-.0009l.2285,11.5728a4.058,4.058,0,0,0,.8541,2.4008c-.0242.1261-.054.25-.0659.3806l-.71,7.6672a3.968,3.968,0,0,0-.1558,1.0485s0,.0306.0013.0754h0l.2032,10.2565a3.9707,3.9707,0,0,0-.2041,1.2371l.0012.0787h0l.2032,10.2562a3.9765,3.9765,0,0,0-.2041,1.2374l.0012.0787h0l.2032,10.2556a3.9762,3.9762,0,0,0-.2041,1.2379l.0012.0788h0l.2295,11.5723A4.0772,4.0772,0,0,0,30.03,262.05h.0492l139.3842-1.6481,59.7681,6.1538a4.0778,4.0778,0,0,0,3.7354-1.6849l.002-.0029,57.3291-80.3618.0007-.0007a4.0728,4.0728,0,0,0,.7568-2.3673V140.2a3.7467,3.7467,0,0,0-.127-.9531l3.3093-10.46,0-.0006a4.0777,4.0777,0,0,0-1.9148-4.7977Zm-5.0847.9335.0017-.0018-.0007.0008Zm-3.8892-60.8759.0017-.0016-.0007.0007Zm-253.5083,61.97,0-.001,0,.001Zm257.2146,35.1531v20.9692l-.0146.0458.0007-.0007L229.7126,262.545l.002-.0029-.064.0353-.01,0L169.76,256.4114l-.2285-.01L30.032,258.05H30.03l-.0764-.0755-.2292-11.5633.0148-.0386a1.9785,1.9785,0,0,0,.1959-.9039L29.7244,234.84l.0154-.04a1.9762,1.9762,0,0,0,.1953-.9026l-.2107-10.6291.0154-.04a1.9762,1.9762,0,0,0,.1953-.9026l-.2108-10.6338.0085-.0291a2.1145,2.1145,0,0,0,.1171-.5131l.7227-7.8081v-.001l.0221-.0388a2,2,0,0,0-.7469-3.12l-.0475-.0685-.2285-11.5728v-.0017l.0228-.0393a2.0252,2.0252,0,0,0,.3834-.8276l1.61-7.7905a2,2,0,0,0-1.713-2.39l-.0608-.02-.0055-.0042h0l-.0079-.0347.011-.0415,5.3027-8.5537a1.998,1.998,0,0,0-.3075-2.4892l-.0077-.02.0017-.0159v-.001l1.4395-7.9048a2,2,0,0,0-1.9668-2.3583l-2.3965-.001-.0771-.077-.0917-8.325a2,2,0,0,0-1.835-1.9711l-.0651-.0244-.009-.0353.0138-.0435,4.7708-7.1757a2,2,0,0,0-1.6969-3.1071l-3.002.0472h-.0078l-.0652-.0355,0-.0008-.0115-.0421.0063-.03.0009-.0018,3.9756-8.4263a1.9923,1.9923,0,0,0-.0814-1.8615l-.0154-.0286-.0015-.01.04-.064L144.4333,59.5912l.0017-.001.0366-.01L279.59,57.4235l.0754.0151.0122.0023.0076.006.0085.012.0051.0071.002.0065c.0193.0585.0337.097.0464.1315l1.6772,9.1755,0,.0112-.0007.027a2,2,0,0,0,3.4685,1.4571l1.4-1.5205.0017-.0017.053-.0238.0159.0015.06.049,0-.0015,3,7.4849-.0015-.0035.0066.032-.022.0547.0007-.0006-2.4141,2.4868a2.0038,2.0038,0,0,0-.5649,1.3931v48.3872a2,2,0,0,0,3.5251,1.2935l.3379-.3984.0017-.0018.0576-.0269.0374.01.0405.0665-.0042.0253,0-.0006-3.5127,11.1025a1.9945,1.9945,0,0,0,.1155,1.4927l.0288.0676v20.9258Z" class="fill"/>
    <path d="M285.5354,165.4761a2.0038,2.0038,0,0,0-2.2317.692l-53.5928,71.04-.0635.031h-.0032l-59.94-3.124-.1155-.0027-137.68.7837a2,2,0,0,0-1.9882,2.04l.1465,7.4082a1.9966,1.9966,0,0,0,2.0171,1.96l137.5494-1.203h.0154l62.1123.3218a1.9975,1.9975,0,0,0,1.6233-.8173l53.1279-72.4492a1.9912,1.9912,0,0,0,.387-1.1827v-3.6006A2.0041,2.0041,0,0,0,285.5354,165.4761ZM169.67,241.1006h-.0571L34.0278,242.2865l-.0674-3.4026,135.5933-.7719,59.8831,3.121.2107.0055a4.0679,4.0679,0,0,0,1.4663-.3l-.3513.4789Z" class="fill"/>
    <path d="M32.1553,211.6074l137.4961.0605,58.9915.0757a1.9935,1.9935,0,0,0,1.5706-.7586l55.8389-70.5342a2.0527,2.0527,0,0,0,.3389-.6382l.7676-2.4268a2,2,0,0,0-3.4324-1.8965l-53.949,63.6324-.084.08-.0039.0037-.0078.0049-.0049.003-.0166.0061-.0317.0112-59.9775,1.4477-.0151.0006L32.5073,203.39a1.9971,1.9971,0,0,0-1.952,1.8152l-.3906,4.2183a2,2,0,0,0,1.9906,2.1844Zm137.5745-6.93.0183-.0007,59.9993-1.4482a4.045,4.045,0,0,0,.8638-.1141l.1924-.0571.1953-.0688.0178-.0064.2178-.0791a1.8836,1.8836,0,0,0,.366-.1768l.0962-.0592-4.0178,5.0751-58.0239-.0744-135.3049-.06.0236-.2549Z" class="fill"/>
    <path d="M285.5071,176.2739a2.0019,2.0019,0,0,0-2.2388.75L234.7126,245.56l.0015-.0021-.0654.0348h-.0012l-.7661-.0044a1.9974,1.9974,0,0,0-1.624.8171l-2.5459,3.4712.001-.0013-.0618.0333-.0088,0-59.9092-4.6454-.1721-.0059L31.9023,246.462a2,2,0,0,0-1.9821,2.04l.1475,7.41a2,2,0,0,0,2.0232,1.96l137.5006-1.6258.1228.0056,58.741,6.0479a1.9957,1.9957,0,0,0,1.8328-.828l56.24-78.8364a1.9917,1.9917,0,0,0,.3718-1.1615V178.18A2.0021,2.0021,0,0,0,285.5071,176.2739Zm-57.8,81.927-57.6406-5.9346-.1143-.0085-.2373-.0107-.114-.0019-135.574,1.603-.0677-3.4042L169.509,249.257l59.8245,4.6389c.1064.0082.2117.0122.3171.0122a4.031,4.031,0,0,0,1.2678-.2079Z" class="fill"/>
    <path d="M228.5022,249.6639a1.9967,1.9967,0,0,0,1.7705-.8151l.0791-.1084a2,2,0,0,0-1.6052-3.1789l-1.582-.0083a2,2,0,0,0-.1653,3.994Z" class="fill"/>
    <polygon points="142.401 56.146 142.401 56.146 142.402 56.145 142.401 56.146" class="fill"/>
    <polygon points="26.589 202.974 26.589 202.974 26.589 202.973 26.589 202.974" class="fill"/>
    <polygon points="30.866 165.595 30.866 165.594 30.866 165.594 30.866 165.595" class="fill"/>
    <polygon points="26.31 179.406 26.309 179.404 26.309 179.403 26.31 179.406" class="fill"/>
  </g>
</svg>
