<svg xmlns="http://www.w3.org/2000/svg" viewBox="0 0 320 320">
  <title>_.filesystem.folder-open</title>
  <g id="save">
    <path d="M83.937,237.5681a1.9957,1.9957,0,0,0,1.83,1.2764L269.4919,242c.0208,0,.04-.0059.0608-.0061.0352,0,.0693.0044.1047.0021a2,2,0,0,0,.2429-.037c.0261-.0049.0527-.006.0786-.012a1.99,1.99,0,0,0,.3877-.1351c.0327-.0151.063-.0337.0947-.0505a1.9732,1.9732,0,0,0,.2778-.1782c.0266-.02.0537-.0392.0793-.061a1.997,1.997,0,0,0,.2959-.3082l.0063-.0066c.0066-.0088.01-.0192.0164-.028a1.9913,1.9913,0,0,0,.1917-.3264c.0178-.0373.0342-.0742.05-.1124a2.0181,2.0181,0,0,0,.0938-.308c.0076-.0341.0193-.0668.0251-.1013l.0039-.0159,20.4736-128.3511a2,2,0,0,0-1.9307-2.3145l-81.42-1.8013-19.481-19.2357a1.9965,1.9965,0,0,0-1.4038-.5768L137.4866,88a1.9956,1.9956,0,0,0-1.9673,1.6326l-3.7373,20.0029L115.2185,93.7218a2.014,2.014,0,0,0-1.3342-.5571l-83.833-2.1572a2,2,0,0,0-1.916,2.7227Zm3.2429-2.7L32.9507,95.0834l63.2424,1.6274,16.8132.4326,37.2153,35.7548a1.9546,1.9546,0,0,0,.1555.1237c.0427.0336.0823.0715.1272.1014.0486.032.1021.0551.1531.0828a1.9837,1.9837,0,0,0,.3813.1584c.0493.0147.0964.0352.1467.0461.0413.0089.0842.0092.126.0154a1.9735,1.9735,0,0,0,.24.0292l84.564,2.38,30.707,102.1177ZM139.1458,92.0011l47.7708.0339L206.38,111.2532a1.9981,1.9981,0,0,0,1.3608.5764l79.9229,1.7681-18.729,117.4144L239.53,132.3307a2.0045,2.0045,0,0,0-1.8831-1.4286l-85.199-1.4323L135.3325,112.411Z" class="fill"/>
  </g>
</svg>
