<svg xmlns="http://www.w3.org/2000/svg" viewBox="0 0 320 320">
  <title>_.filesystem.folder-open-alt-filled</title>
  <g id="save">
    <path d="M167.8291,68.625H112.3232a2,2,0,0,0-1.2666,3.5479l19.8594,16.25a1.9974,1.9974,0,0,0,1.2666.452h53.47a2,2,0,0,0,1.5115-3.3094L175.5271,72.1328A10.182,10.182,0,0,0,167.8291,68.625Z" class="fill"/>
    <path d="M284.0742,93h-51.88a2,2,0,0,0-1.9578,2.41L263.634,254.9746a2.5416,2.5416,0,0,0,5-.13l.001-.0068L291.91,102.0511A7.8924,7.8924,0,0,0,284.0742,93ZM264.6819,254.228h0l-.001.0068Z" class="fill"/>
    <polygon points="28.167 76.859 28.167 76.863 28.167 76.861 28.167 76.859" class="fill"/>
    <path d="M76.4258,259.5h181.31a4.2753,4.2753,0,0,0,3.02-1.24,4.1777,4.1777,0,0,0,1.15-3.8518l-.0007-.0039L228.8,100.8285h0l-.0281-.13-.001-.004a11.8547,11.8547,0,0,0-11.64-9.2565H130.1865L111.4026,76.257l-6.7815-5.48A12.5482,12.5482,0,0,0,96.7354,68H35.4434a7.4668,7.4668,0,0,0-5.2815,2.1649,7.2179,7.2179,0,0,0-1.9949,6.6962L65.981,251.1906A10.6385,10.6385,0,0,0,76.4258,259.5Z" class="fill"/>
  </g>
</svg>
