<svg xmlns="http://www.w3.org/2000/svg" viewBox="0 0 320 320">
  <title>_.filesystem.folder-open-outline</title>
  <g id="save">
    <polygon points="133.553 89.268 133.553 89.267 133.553 89.265 133.553 89.268" class="fill"/>
    <path d="M293.0718,109.0876a3.9956,3.9956,0,0,0-2.9841-1.4377l-80.6245-1.7836L190.5486,87.1891a4.0017,4.0017,0,0,0-2.8076-1.1535L137.4875,86a3.9971,3.9971,0,0,0-3.9343,3.267l-3.0569,16.36L116.6042,92.2794a4.0117,4.0117,0,0,0-2.6682-1.1143l-83.834-2.1572L30,89.0066a4,4,0,0,0-3.7283,5.45l-.0012-.0028L82.0728,238.2912l-.0007-.0021a3.995,3.995,0,0,0,3.6619,2.5549l183.7239,3.1553.12-.0048.0422.0008a1.9308,1.9308,0,0,0,.3391-.0226l.2432-.0371-.0049.0008.0781-.0117.1519-.0289a3.9992,3.9992,0,0,0,.7769-.2677l.1086-.0541.0938-.05-.0093.0049a3.9468,3.9468,0,0,0,.562-.3607l.002-.0015.0791-.061.0679-.0548a4.23,4.23,0,0,0,.4121-.4308l.0083.0084.0068-.0068c.0254-.0255.04-.0576.0635-.0837.0337-.04.0723-.0671.1047-.1095l-.0137-.01c.0168-.0219.0344-.044.0505-.0666l.0112.0083c.0261-.0357.0388-.0707.063-.1065.0149-.0239.0366-.0416.0505-.0666l.0156-.0278-.0076-.0043a4.4618,4.4618,0,0,0,.2627-.444l.0215-.0467.05-.1123.0313-.0744a4.0589,4.0589,0,0,0,.1768-.5753l.0015,0,.0244-.1011.0037-.0145.0313-.1562,20.4736-128.3511a3.9976,3.9976,0,0,0-.8777-3.1912ZM186.0942,94.0345l18.88,18.6416a3.9947,3.9947,0,0,0,2.7214,1.153l77.6318,1.7173L268.343,222.0236l-26.8972-90.2642a4.0009,4.0009,0,0,0-3.7668-2.8568l-84.3916-1.4191L137.4917,111.74l3.3142-17.7379Zm-73.915,5.0884,36.6567,35.2177.14.1229.1553.1235-.0042-.0034.127.1016a2.0381,2.0381,0,0,0,.3015.1994l.1533.0825-.0078-.0043a3.9831,3.9831,0,0,0,.74.3077l-.0007.0026.1465.0459a2.03,2.03,0,0,0,.3518.0763l.126.0156.0071.0009.2393.0288.1829.0135,83.1213,2.34,29.5024,98.1124-175.56-3.0149L35.9019,97.16Z" class="fill"/>
  </g>
</svg>
