<svg xmlns="http://www.w3.org/2000/svg" viewBox="0 0 320 320">
  <title>_.filesystem.folder-open-variant-filled</title>
  <g id="save">
    <path d="M289.5674,82.0322H237.7156l-2.156-5.8906-.0022.0008a7.8881,7.8881,0,0,0-1.9-3.3262,7.3228,7.3228,0,0,0-2.2463-1.536,11.9823,11.9823,0,0,0-3.7661-.8973c-1.2822-.1206-2.5852-.1244-3.8845-.1251h-86.374a2,2,0,0,0-1.4321,3.3961l10.2822,10.5469.0054.0056a2.7975,2.7975,0,0,0,.6892.5061,5.3505,5.3505,0,0,0,1.0627.4069,17.4675,17.4675,0,0,0,2.0247.4111c1.0894.1661,2.2705.2886,3.281.3723.5049.0417.9658.0735,1.3511.0952.3892.0215.6873.0337.9312.0341H220.41l.4783,1.5081L267.8826,235.605A2.0031,2.0031,0,0,0,269.7891,237a5.666,5.666,0,0,0,5.5417-4.6043L301.76,97.0933A12.8946,12.8946,0,0,0,302,94.62,12.6862,12.6862,0,0,0,298.42,85.791,12.2817,12.2817,0,0,0,289.5674,82.0322Z" class="fill"/>
    <path d="M81.7859,245.774a6.1267,6.1267,0,0,0,5.8235,4.29h172.18c.0322,0,.0625-.01.0947-.0113a1.9876,1.9876,0,0,0,.2759-.0331c.0513-.01.1018-.0182.1519-.032.0273-.0073.0557-.0088.0825-.0173a1.9389,1.9389,0,0,0,.21-.0906c.0376-.017.0767-.03.113-.0488a2.0082,2.0082,0,0,0,.36-.2388c.0129-.0108.0227-.025.0354-.0362a2.0075,2.0075,0,0,0,.2622-.2812c.0083-.0108.02-.0185.0276-.0295.0212-.029.0327-.0629.0522-.0928a1.9839,1.9839,0,0,0,.11-.1681c.0149-.029.0225-.0609.0359-.0905.022-.0479.04-.0961.0579-.1454a1.9921,1.9921,0,0,0,.0776-.2717c.011-.052.0217-.103.0286-.1556a1.9976,1.9976,0,0,0,.0137-.291c-.0007-.0482.0024-.0955-.0017-.1437a1.98,1.98,0,0,0-.0813-.4271L214.7012,99.395a6.1275,6.1275,0,0,0-5.8262-4.2983H144.7136l-.6182-.6293L128.813,78.9207l-7.0371-7.16a6.0871,6.0871,0,0,0-4.34-1.8256H34.123a6.057,6.057,0,0,0-4.3848,1.8707,6.2264,6.2264,0,0,0-1.4392,6.2232Z" class="fill"/>
  </g>
</svg>
