<svg xmlns="http://www.w3.org/2000/svg" viewBox="0 0 320 320">
  <title>_.filesystem.upload-outline</title>
  <g id="save">
    <path d="M48.12,195.6835A2.0031,2.0031,0,0,0,50,197h80a2,2,0,0,0,0-4H51.4008L41.88,166.8165a2,2,0,0,0-3.7592,1.3671Z" class="fill"/>
    <path d="M271.88,195.6835l10-27.5a2,2,0,0,0-3.759-1.3669L268.599,193H190a2,2,0,0,0,0,4h80A2.0032,2.0032,0,0,0,271.88,195.6835Z" class="fill"/>
    <path d="M160,257a2,2,0,0,0,2-2h0V69.8284l26.5858,26.5858a2,2,0,1,0,2.8285-2.8284l-30-30a1.9792,1.9792,0,0,0-.42-.31c-.0413-.0237-.0818-.0456-.1243-.0662a2.0141,2.0141,0,0,0-.4712-.1677l-.0214-.0038A1.9769,1.9769,0,0,0,160,63c-.0415,0-.082.01-.1235.0123-.0452.0027-.0889.0075-.134.0134a2.006,2.006,0,0,0-.4882.1215c-.0065.0026-.0133.0023-.02.0049s-.0111.0078-.0175.0106a2.0024,2.0024,0,0,0-.4312.2592c-.036.0276-.07.0552-.1041.0851-.0311.0274-.0667.0492-.0961.0786l-30,30a2,2,0,1,0,2.8286,2.8285L158,69.8282V255A2,2,0,0,0,160,257Z" class="fill"/>
  </g>
</svg>
