<svg xmlns="http://www.w3.org/2000/svg" viewBox="0 0 320 320">
  <title>_.filesystem.folder-outline</title>
  <g id="save">
    <path d="M47.2976,247.7023A3.829,3.829,0,0,0,50,248.8213H270a3.8288,3.8288,0,0,0,2.7021-1.119l.001-.001A3.8286,3.8286,0,0,0,273.821,245V110.2383a3.8286,3.8286,0,0,0-1.1179-2.7013l-.001-.001A3.8285,3.8285,0,0,0,270,106.417H170.8206L138.873,72.3846l-.0007-.0008a3.8275,3.8275,0,0,0-2.7854-1.2051H50a3.8286,3.8286,0,0,0-2.7024,1.119l-.001.001a3.8134,3.8134,0,0,0-1.0789,2.31A1.9949,1.9949,0,0,0,46.1787,75V245a3.8286,3.8286,0,0,0,1.1179,2.7013ZM53.821,78.8213h80.6108l31.9487,34.0324.0007.0008a3.8269,3.8269,0,0,0,2.7856,1.2051h97.0115V241.1787H53.8208Z" class="fill"/>
  </g>
</svg>
