<svg xmlns="http://www.w3.org/2000/svg" viewBox="0 0 320 320">
  <title>_.filesystem.download-filled</title>
  <g id="save">
    <path d="M40,197h80a2,2,0,0,0,2-2V175a2,2,0,0,0-2-2l-58,0V155a2,2,0,0,0-2-2H40a2,2,0,0,0-2,2v40a2,2,0,0,0,2,2Z" class="fill"/>
    <path d="M280,153H260a2,2,0,0,0-2,2v18l-58,0a2,2,0,0,0-2,2v20a2,2,0,0,0,2,2h80a2,2,0,0,0,2-2V155a2,2,0,0,0-2-2Z" class="fill"/>
    <path d="M190,213a11.9708,11.9708,0,0,0-8.4856,3.5148L172,226.0291V65a12,12,0,1,0-24,0V226.029l-9.5145-9.5145a12,12,0,0,0-16.9712,16.9708l30,30a11.97,11.97,0,0,0,7.663,3.4864q.4122.0281.8246.0281a12.1045,12.1045,0,0,0,1.467-.09,11.9522,11.9522,0,0,0,6.3707-2.8248q.3657-.3161.712-.6671l-.0126.0127,29.9463-29.9453a12.0015,12.0015,0,0,0,0-16.9709l-1.4142,1.4142,1.4142-1.4142A11.9721,11.9721,0,0,0,190,213Z" class="fill"/>
  </g>
</svg>
