<svg xmlns="http://www.w3.org/2000/svg" viewBox="0 0 320 320">
  <title>_.filesystem.files-filled</title>
  <g id="save">
    <path d="M59,287H199a2,2,0,0,0,2-2V120.6523a2.0029,2.0029,0,0,0-.0555-.4476c-.0081-.0348-.02-.0676-.03-.1019a1.9614,1.9614,0,0,0-.1355-.3469c-.0179-.0356-.0347-.0708-.0547-.1054a1.9968,1.9968,0,0,0-.28-.3821l-43.75-45.6523a1.9785,1.9785,0,0,0-.4492-.3392c-.04-.0234-.0792-.0462-.121-.0665a2.0078,2.0078,0,0,0-.5046-.1724c-.0317-.006-.0635-.0054-.0957-.01A1.9622,1.9622,0,0,0,155.25,73H59a2,2,0,0,0-2,2V285a2,2,0,0,0,2,2ZM165.6273,127.2912l-7.3929-46.2861,36.9647,38.5718Z" class="fill"/>
    <path d="M121,67h37.16L207,116.8168V245a2,2,0,0,0,2,2h52a2,2,0,0,0,2-2V80.6523a2.0029,2.0029,0,0,0-.0555-.4476c-.0081-.0348-.02-.0676-.03-.1019a1.9614,1.9614,0,0,0-.1355-.3469c-.0179-.0356-.0347-.0708-.0547-.1054a1.9968,1.9968,0,0,0-.28-.3821l-43.75-45.6523a1.9785,1.9785,0,0,0-.4492-.3392c-.04-.0234-.0792-.0462-.121-.0665a2.0078,2.0078,0,0,0-.5046-.1724c-.0317-.006-.0635-.0054-.0957-.01A1.9622,1.9622,0,0,0,217.25,33H121a2,2,0,0,0-2,2V65a2,2,0,0,0,2,2ZM227.6272,87.2913l-7.3928-46.2861L257.199,79.5769Z" class="fill"/>
  </g>
</svg>
