<svg xmlns="http://www.w3.org/2000/svg" viewBox="0 0 320 320">
  <title>_.filesystem.tablet</title>
  <g id="save">
    <path d="M234,38H86a8.0162,8.0162,0,0,0-8,8V274a8.0162,8.0162,0,0,0,8,8H234a8.0161,8.0161,0,0,0,8-8V46A8.0161,8.0161,0,0,0,234,38ZM166.5554,260.5453a7.5143,7.5143,0,0,1-6.1177,6.1187,7.9627,7.9627,0,0,1-1.2891.1061,7.5118,7.5118,0,0,1-7.5125-7.5117,7.9255,7.9255,0,0,1,.1064-1.2845,7.5158,7.5158,0,0,1,6.1182-6.121,7.9488,7.9488,0,0,1,1.2874-.1061,7.5126,7.5126,0,0,1,7.5127,7.5125A8.0391,8.0391,0,0,1,166.5554,260.5453ZM218.4,234.8a4.0184,4.0184,0,0,1-4,4H105.6a4.0184,4.0184,0,0,1-4-4V65.6a4.0184,4.0184,0,0,1,4-4H214.4a4.0184,4.0184,0,0,1,4,4Z" class="fill"/>
  </g>
</svg>
