<svg xmlns="http://www.w3.org/2000/svg" viewBox="0 0 320 320">
  <title>_.filesystem.files-outline</title>
  <g id="save">
    <path d="M56.5858,288.4142A2.0133,2.0133,0,0,0,58,289H198a2.0134,2.0134,0,0,0,1.4142-.5858l2-2A2.0136,2.0136,0,0,0,202,285V249h56a2.0135,2.0135,0,0,0,1.4142-.5858l2-2A2.0135,2.0135,0,0,0,262,245V80.6523a2.0272,2.0272,0,0,0-.1442-.7458L261.3,78.5227a2.0272,2.0272,0,0,0-.4117-.638l-43.75-45.6523a2.0273,2.0273,0,0,0-.6589-.4556l-1.4438-.6162A2.0271,2.0271,0,0,0,214.25,31H118a2.013,2.013,0,0,0-1.4143.5858l-2,2A2.0131,2.0131,0,0,0,114,35V71H58a2.0133,2.0133,0,0,0-1.4142.5858l-2,2A2.0132,2.0132,0,0,0,54,75V285a2.0131,2.0131,0,0,0,.5858,1.4142Zm142-42.8284A2.0131,2.0131,0,0,0,198,247v37.1714l-.8286.8285H196a2,2,0,0,0,2-2V123.2412a2,2,0,0,0-2.5048-1.9352l-.7908.2063a2,2,0,0,0,.9388-3.3189l-16.7051-17.4316-20.26-21.1407a2,2,0,0,0-3.4189,1.6993l7.3931,46.2861a2,2,0,0,0,2.48,1.62l17.5944-4.59-18.87,4.9223-.9968-.6511-8.3412-52.2234A1.9982,1.9982,0,0,0,152.5439,75h1.3008l.6875.29,43.1958,44.43.2719.67V243a2,2,0,0,0,2,2A2.0135,2.0135,0,0,0,198.5857,245.5858ZM62,79h88.838l8.212,51.4136a1.9991,1.9991,0,0,0,.8813,1.3591l2.48,1.62a1.9992,1.9992,0,0,0,1.5984.2607L194,125.83V281H62Zm60-40h88.8381l8.212,51.4136a1.9991,1.9991,0,0,0,.8813,1.3591l2.48,1.62a1.9992,1.9992,0,0,0,1.5984.2607L254,85.83V241H202V120a2.0446,2.0446,0,0,0-.1469-.7523l-.5659-1.394a2.0465,2.0465,0,0,0-.4191-.6418l-43.75-45a2.0092,2.0092,0,0,0-.6556-.4481l-1.4341-.606A2.0094,2.0094,0,0,0,154.25,71H122ZM236.05,63.5293l14.3484,14.9724L226.2546,84.8l-6.036-37.79Zm-45.6516,54.9724L166.2546,124.8l-6.036-37.79,15.8314,16.52ZM258,244.1715l-.8286.8285H256a2,2,0,0,0,2-2V83.2412a2,2,0,0,0-2.5048-1.9352l-.7908.2063a2,2,0,0,0,.9388-3.3189l-3.4071-3.5554,5.4961,5.7352.2678.6663ZM213.8409,35l.6915.2951,4.1451,4.3254a2,2,0,0,0-3.4182,1.7l7.3931,46.2861a2,2,0,0,0,2.48,1.62l17.5944-4.59-18.87,4.9223-.9968-.6511-8.3412-52.2234A1.9982,1.9982,0,0,0,212.5439,35ZM117.4142,74.4142A2.0131,2.0131,0,0,0,118,73V35.8285L118.8284,35H120a2,2,0,0,0-2,2V73a2,2,0,0,0,2,2h-4A2.0135,2.0135,0,0,0,117.4142,74.4142ZM58,75.8285,58.8284,75H60a2,2,0,0,0-2,2V283a2,2,0,0,0,2,2H58.8284L58,284.1715Z" class="fill"/>
  </g>
</svg>
