<svg xmlns="http://www.w3.org/2000/svg" viewBox="0 0 320 320">
  <title>_.filesystem.file-text-landscape</title>
  <g id="save">
    <path d="M70,162H210a2,2,0,0,0,0-4H70a2,2,0,0,0,0,4Z" class="fill"/>
    <path d="M70,102H230a2,2,0,0,0,0-4H70a2,2,0,0,0,0,4Z" class="fill"/>
    <path d="M70,132H230a2,2,0,0,0,0-4H70a2,2,0,0,0,0,4Z" class="fill"/>
    <path d="M250,188H70a2,2,0,0,0,0,4H250a2,2,0,0,0,0-4Z" class="fill"/>
    <path d="M281.9749,99.75a1.9881,1.9881,0,0,0-.053-.2683c-.015-.0553-.03-.1094-.05-.1631a2.01,2.01,0,0,0-.1165-.2544c-.0243-.0457-.0446-.092-.0724-.1359a1.9785,1.9785,0,0,0-.269-.3424l-30-30a1.9824,1.9824,0,0,0-.4729-.3386c-.0367-.02-.0713-.0408-.1091-.0581a2.007,2.007,0,0,0-.5172-.1575c-.04-.0063-.0794-.0079-.12-.012A1.9377,1.9377,0,0,0,250,68H40a2,2,0,0,0-2,2V250a2,2,0,0,0,2,2H280a2,2,0,0,0,2-2V100c0-.03-.0075-.0586-.0089-.0881C281.9886,99.8569,281.9818,99.804,281.9749,99.75Zm-20.6393,7.3463L253.6915,76.52,276.6236,99.452ZM42,72H248.4384L258.06,110.485a2,2,0,0,0,2.8347,1.3038L278,103.2361V248H42Z" class="fill"/>
    <path d="M140,218H70a2,2,0,0,0,0,4h70a2,2,0,0,0,0-4Z" class="fill"/>
  </g>
</svg>
