<svg xmlns="http://www.w3.org/2000/svg" viewBox="0 0 320 320">
  <title>_.flag-filled</title>
  <g id="camera">
    <g>
      <path d="M181.4141,161.4141A2.0125,2.0125,0,0,0,182,160V40a2,2,0,0,0-2-2H60a1.9943,1.9943,0,0,0-1.09.3262l-.021.0115a1.999,1.999,0,0,0-.2874.2351l-.0159.0129-.0129.0159a1.999,1.999,0,0,0-.2351.2874l-.0117.0215A1.9943,1.9943,0,0,0,58,40V280a2,2,0,0,0,4,0V162H180A2.0127,2.0127,0,0,0,181.4141,161.4141Z" class="fill"/>
      <path d="M140,212H251a2,2,0,0,0,2-2.0159l-1-126A2,2,0,0,0,250,82H189a2,2,0,0,0-2,2v79.1343l-48.3689,45.4075A2,2,0,0,0,140,212Z" class="fill"/>
      <path d="M126.2119,210.8383a1.9949,1.9949,0,0,0,2.1672-.39l42-40A2,2,0,0,0,169,167H127a2,2,0,0,0-2,2v40A1.9948,1.9948,0,0,0,126.2119,210.8383Z" class="fill"/>
    </g>
  </g>
</svg>
