<svg xmlns="http://www.w3.org/2000/svg" viewBox="0 0 320 320">
  <title>_.folder-outline</title>
  <g id="camera">
    <path d="M288.7646,90.2583H232.9274l-2.4242-8.4624a13.1577,13.1577,0,0,0-12.6068-9.6025h-92.18l-6.9913-7.1121a6.3985,6.3985,0,0,0-4.5635-1.92H24.44a6.3679,6.3679,0,0,0-4.6106,1.9676,6.5517,6.5517,0,0,0-1.5151,6.5462l57.6016,180.65a6.4454,6.4454,0,0,0,6.1257,4.5135H267.4653a5.9474,5.9474,0,0,0,5.8165-4.835l28.4619-145.7094A13.7383,13.7383,0,0,0,302,103.66a13.5073,13.5073,0,0,0-3.8112-9.4006A13.073,13.073,0,0,0,288.7646,90.2583ZM79.7268,251.11,22.1252,70.46A2.5982,2.5982,0,0,1,22,69.6675,2.5647,2.5647,0,0,1,22.7142,67.9a2.3563,2.3563,0,0,1,1.7258-.7385h89.7222a2.3972,2.3972,0,0,1,1.7107.7241l7.5793,7.71h0l.1864.19,16.2706,16.553.001.0009,1.2988,1.3214a2.0073,2.0073,0,0,0,1.4263.598h69.748a2.7559,2.7559,0,0,1,2.6271,1.9211l38.1207,120.1075,11.6011,36.5519H82.0415A2.4442,2.4442,0,0,1,79.7268,251.11Zm218.091-145.5824L269.356,251.2372a2.0073,2.0073,0,0,1-.5944,1.0746L218.8233,94.97l0-.0012-.06-.1893a6.4461,6.4461,0,0,0-6.1285-4.5214H144.4731a2.3993,2.3993,0,0,1-1.7114-.7244L130.784,77.3483l-1.1353-1.155h88.2478a9.1564,9.1564,0,0,1,8.7615,6.7043l2.8393,9.9114a1.9973,1.9973,0,0,0,1.9227,1.4492h57.3447a9.0637,9.0637,0,0,1,6.5527,2.7858A9.5085,9.5085,0,0,1,298,103.66,9.7422,9.7422,0,0,1,297.8178,105.5278Z" class="fill"/>
  </g>
</svg>
