<svg xmlns="http://www.w3.org/2000/svg" viewBox="0 0 320 320">
  <title>_.folder</title>
  <g id="camera">
    <path d="M80.0415,256.8388H265.4653a5.9474,5.9474,0,0,0,5.8164-4.835l28.4619-145.7094A13.7431,13.7431,0,0,0,300,103.66a13.5073,13.5073,0,0,0-3.8112-9.4006,13.0728,13.0728,0,0,0-9.424-4.0009H230.9274l-2.4243-8.4624a13.1577,13.1577,0,0,0-12.6067-9.6025h-92.18l-6.9913-7.1121a6.3985,6.3985,0,0,0-4.5635-1.92H22.44a6.3679,6.3679,0,0,0-4.6107,1.9676,6.5517,6.5517,0,0,0-1.515,6.5466l57.6015,180.65A6.4454,6.4454,0,0,0,80.0415,256.8388ZM224.6579,82.8976l2.8394,9.9114a1.9973,1.9973,0,0,0,1.9227,1.4492h57.3447a9.0636,9.0636,0,0,1,6.5526,2.7858A9.5083,9.5083,0,0,1,296,103.66a9.748,9.748,0,0,1-.1821,1.868L267.3559,251.2372a2.0069,2.0069,0,0,1-.5944,1.0746L216.7627,94.78l-.0016-.0041-.991-3.1224a2.0032,2.0032,0,0,0-1.9062-1.395H142.4731a2.3993,2.3993,0,0,1-1.7114-.7244L128.784,77.3483l-1.1353-1.155h88.2478A9.1563,9.1563,0,0,1,224.6579,82.8976ZM20,69.6675A2.5645,2.5645,0,0,1,20.7141,67.9a2.3564,2.3564,0,0,1,1.7258-.7386h89.7222a2.3972,2.3972,0,0,1,1.7107.7241l7.5793,7.71h0l.1864.19,16.2706,16.553.001.0009,1.2988,1.3214a2.0073,2.0073,0,0,0,1.4263.598h69.999a2.4443,2.4443,0,0,1,2.3141,1.7272l46.7578,147.319,3.0261,9.5344H80.0415a2.4442,2.4442,0,0,1-2.3147-1.7286L20.1252,70.46A2.5959,2.5959,0,0,1,20,69.6675Z" class="fill"/>
  </g>
</svg>
