<svg xmlns="http://www.w3.org/2000/svg" viewBox="0 0 320 320">
  <title>_.home</title>
  <g id="camera">
    <path d="M20,178.522H50.2451V280a2,2,0,0,0,2,2h75.4282a2,2,0,0,0,2-2V178.522H192.63V280a2,2,0,0,0,2,2h73.125a2,2,0,0,0,2-2V178.522H300a2,2,0,0,0,1.421-3.4073l-138.6474-140a2,2,0,0,0-2.8285-.0137l-141.3525,140A2,2,0,0,0,20,178.522ZM161.3389,39.35,295.2045,174.522h-27.45a2,2,0,0,0-2,2V278H196.63V176.522a2,2,0,0,0-2-2H127.6733a2,2,0,0,0-2,2V278H54.2451V176.522a2,2,0,0,0-2-2H24.8615Z" class="fill"/>
  </g>
</svg>
