<svg xmlns="http://www.w3.org/2000/svg" viewBox="0 0 320 320">
  <title>_.interface.type-outline</title>
  <g id="plus">
    <path d="M39.275,241.864a2,2,0,0,0,2.589-1.1391h0l26.8977-69.1656A1.9811,1.9811,0,0,0,70,172h80a1.9813,1.9813,0,0,0,1.2383-.4407l26.8977,69.1655a2,2,0,0,0,3.728-1.45l-70-180a2,2,0,0,0-3.7279,0l-70,180A2,2,0,0,0,39.275,241.864ZM110,65.5179,149.854,168H70.1458Z" class="fill"/>
    <path d="M240,108a41.0182,41.0182,0,0,0-10.6372,1.6339,97.7119,97.7119,0,0,0-20.37,8.6383,2,2,0,1,0,2.0151,3.4557h0l.0405-.0235a99.098,99.098,0,0,1,10.4609-5.0926,74.7252,74.7252,0,0,1,9.2224-3.2046A36.6521,36.6521,0,0,1,240,112c9.8352-.002,17.0984,1.2367,22.4,3.3015a23.623,23.623,0,0,1,9.0132,5.8668,20.3555,20.3555,0,0,1,3.748,5.8157,35.1708,35.1708,0,0,1,2.4719,10.733C277.9973,141.62,278,145.7816,278,150v17.426a126.2667,126.2667,0,0,0-28.0688-3.3766c-10.3491.006-21.7512,1.5529-31.4492,6.8a38.9436,38.9436,0,0,0-12.7932,10.9286,43.5549,43.5549,0,0,0-7.65,17.83,41.8589,41.8589,0,0,0-.83,8.2217,34.863,34.863,0,0,0,9.364,24.306A32.02,32.02,0,0,0,230,242a93.74,93.74,0,0,0,20.9185-2.0825,49.5862,49.5862,0,0,0,12.8428-4.7458A32.92,32.92,0,0,0,277.24,221.7326c.27-.5038.5129-1.0313.76-1.5553V230a12.1689,12.1689,0,0,0,1.8982,6.8906,10.5054,10.5054,0,0,0,3.0876,3.0119,13.5573,13.5573,0,0,0,4.7019,1.8378A12.9547,12.9547,0,0,0,290,242a2,2,0,0,0,.0085-3.999V238s-.1326-.001-.3718-.02a10.1753,10.1753,0,0,1-4.5674-1.4937,6.3963,6.3963,0,0,1-2.1248-2.28A8.57,8.57,0,0,1,282,230V150a114.7661,114.7661,0,0,0-.6423-14.9518,35.235,35.235,0,0,0-2.8994-10.4792,24.0107,24.0107,0,0,0-4.7759-6.809,29.8974,29.8974,0,0,0-12.7537-7.1921C255.4229,108.9008,248.5771,108.001,240,108Zm34.5854,110.0786a28.2771,28.2771,0,0,1-6.5906,9.181c-4.093,3.7856-9.3987,6.4719-15.803,8.215A85.4273,85.4273,0,0,1,230,238a28.0046,28.0046,0,0,1-20.5339-8.627,30.86,30.86,0,0,1-8.2573-21.5436,37.92,37.92,0,0,1,.7522-7.4371,39.5569,39.5569,0,0,1,6.9307-16.218c4.748-6.3428,11.2095-10.355,18.4277-12.8137a71.0339,71.0339,0,0,1,22.6118-3.3115,119.42,119.42,0,0,1,20.7705,1.9437c2.7012.4862,4.9011.9722,6.4192,1.335.3276.0782.6167.1494.8792.215,0,.0146,0,.0262,0,.0412v.429q0,2.1333,0,4.2665v1.3685c0,.6706,0,1.3923,0,2.1859v20.1746C277.9983,207.2852,276.7859,213.2378,274.5854,218.0786Z" class="fill"/>
  </g>
</svg>
