<svg xmlns="http://www.w3.org/2000/svg" viewBox="0 0 320 320">
  <title>_.interfaces.align-left</title>
  <g id="plus">
    <path d="M50,94.3076H270a2,2,0,0,0,2-2V80a2,2,0,0,0-2-2H50a2,2,0,0,0-2,2V92.3076a2,2,0,0,0,2,2Zm218-4H52V82H268Z" class="fill"/>
    <path d="M50,143.5386H210a2,2,0,0,0,2-2V129.231a2,2,0,0,0-2-2H50a2,2,0,0,0-2,2v12.3076a2,2,0,0,0,2,2Zm158-4H52V131.231H208Z" class="fill"/>
    <path d="M50,192.769H240a2,2,0,0,0,2-2V178.4614a2,2,0,0,0-2-2H50a2,2,0,0,0-2,2V190.769a2,2,0,0,0,2,2Zm188-4H52v-8.3076H238Z" class="fill"/>
    <path d="M50,242H90a2,2,0,0,0,2-2V227.6924a2,2,0,0,0-2-2H50a2,2,0,0,0-2,2V240a2,2,0,0,0,2,2Zm38-4H52v-8.3076H88Z" class="fill"/>
  </g>
</svg>
