<svg xmlns="http://www.w3.org/2000/svg" viewBox="0 0 320 320">
  <title>_.interfaces.enlarge</title>
  <g id="plus">
    <path d="M61.2178,103.12a2,2,0,0,0,3.6277.5887l10.176-15.99,52.2234,52.2242,0,35.4645A17.4462,17.4462,0,0,0,144.69,192.853h35.4644l52.1257,52.1257-15.9893,10.1752a2,2,0,0,0,.5889,3.6276L269.5149,271.94a2,2,0,0,0,2.4253-2.4254L258.782,216.88a2,2,0,0,0-3.6277-.5887l-10.1763,15.99L193.2468,180.55V144.2964a17.4457,17.4457,0,0,0-17.4451-17.4453H139.5481L87.719,75.0211l15.99-10.1751a2,2,0,0,0-.5889-3.6276L50.4849,48.06A2,2,0,0,0,48.06,50.485Zm36.416-39.15L83.468,72.985a2,2,0,0,0-.34,3.1016l54.1777,54.1787a2.013,2.013,0,0,0,1.4143.5858h37.082a13.4457,13.4457,0,0,1,13.4453,13.4454v37.082a2.0126,2.0126,0,0,0,.5857,1.4142l54.08,54.08a2,2,0,0,0,3.1016-.34l9.0156-14.1666,11.2212,44.8856L222.3652,256.03l14.1665-9.0148a2,2,0,0,0,.34-3.1016l-54.4746-54.4746a2.0133,2.0133,0,0,0-1.4141-.5858H144.69a13.446,13.446,0,0,1-13.4456-13.4458v-36.293a1.9871,1.9871,0,0,0-.5857-1.4142L76.0869,83.1273a2,2,0,0,0-3.1016.34L63.97,97.6339,52.7485,52.7487Z" class="fill"/>
  </g>
</svg>
