<svg xmlns="http://www.w3.org/2000/svg" viewBox="0 0 320 320">
  <title>_.interfaces.undo-outline</title>
  <g id="plus">
    <path d="M80.8944,118.2111a2,2,0,0,0-2.6833.8944l-20,40a1.9782,1.9782,0,0,0-.1631.5056c-.0089.0447-.0168.0881-.0226.1332a2.0111,2.0111,0,0,0-.0066.5163c.0016.0125.0064.0242.0082.0366a1.9746,1.9746,0,0,0,.0756.3352c.0157.0473.0416.09.0609.1357.0167.04.0334.0787.0528.1177a2.0079,2.0079,0,0,0,.2869.4363l.01.0159c.0135.015.0318.0229.0457.0374a2,2,0,0,0,.3634.2977c.0349.0225.0678.0455.1039.0657.0273.0153.051.0359.079.05l40,20a2,2,0,1,0,1.7888-3.5777L65.1019,160.3149c6.05-2.0737,17.9282-5.9186,33.0325-9.68,20.8824-5.2033,47.933-10.2374,74.1856-10.2347,18.0662-.003,35.74,2.3873,50.7507,8.6462,15.0184,6.2706,27.3636,16.3172,35.14,31.8483a2,2,0,1,0,3.5778-1.7888h0c-8.2234-16.469-21.4781-27.2224-37.18-33.7518C208.9,138.8127,190.7337,136.4029,172.32,136.4c-27.62.003-55.8312,5.4383-77.1729,10.8616-14.1235,3.5909-25.2292,7.1788-31.1424,9.201l17.7841-35.5682A2,2,0,0,0,80.8944,118.2111Z" class="fill"/>
  </g>
</svg>
