<svg xmlns="http://www.w3.org/2000/svg" viewBox="0 0 320 320">
  <title>_.interface.drag-outline</title>
  <g id="plus">
    <path d="M60,92H90a2,2,0,0,0,2-2V60a2,2,0,0,0-2-2H60a2,2,0,0,0-2,2V90a2,2,0,0,0,2,2Zm28-4H62l0-26H88Z" class="fill"/>
    <path d="M73,210a2,2,0,0,0,4,0V190a2,2,0,0,0-4,0Z" class="fill"/>
    <path d="M73,180a2,2,0,0,0,4,0V160a2,2,0,0,0-4,0Z" class="fill"/>
    <path d="M73,150a2,2,0,0,0,4,0V130a2,2,0,0,0-4,0Z" class="fill"/>
    <path d="M75,122a2,2,0,0,0,2-2V100a2,2,0,0,0-4,0v20A2,2,0,0,0,75,122Z" class="fill"/>
    <path d="M233,210a2,2,0,0,0,4,0V190a2,2,0,0,0-4,0Z" class="fill"/>
    <path d="M233,180a2,2,0,0,0,4,0V160a2,2,0,0,0-4,0Z" class="fill"/>
    <path d="M233,150a2,2,0,0,0,4,0V130a2,2,0,0,0-4,0Z" class="fill"/>
    <path d="M235,122a2,2,0,0,0,2-2V100a2,2,0,0,0-4,0v20A2,2,0,0,0,235,122Z" class="fill"/>
    <path d="M190,77h20a2,2,0,0,0,0-4H190a2,2,0,0,0,0,4Z" class="fill"/>
    <path d="M160,77h20a2,2,0,0,0,0-4H160a2,2,0,0,0,0,4Z" class="fill"/>
    <path d="M130,77h20a2,2,0,0,0,0-4H130a2,2,0,0,0,0,4Z" class="fill"/>
    <path d="M100,77h20a2,2,0,0,0,0-4H100a2,2,0,0,0,0,4Z" class="fill"/>
    <path d="M190,237h20a2,2,0,0,0,0-4H190a2,2,0,0,0,0,4Z" class="fill"/>
    <path d="M160,237h20a2,2,0,0,0,0-4H160a2,2,0,0,0,0,4Z" class="fill"/>
    <path d="M130,237h20a2,2,0,0,0,0-4H130a2,2,0,0,0,0,4Z" class="fill"/>
    <path d="M100,237h20a2,2,0,0,0,0-4H100a2,2,0,0,0,0,4Z" class="fill"/>
    <path d="M228.5857,228.5858a2.0022,2.0022,0,0,0-.5261,1.8992l10,40a2,2,0,0,0,3.3545.9291L250,262.8283l8.5859,8.5859a2,2,0,0,0,2.8284,0l10-10a2,2,0,0,0,0-2.8284L262.8281,250l8.5859-8.5858a2,2,0,0,0-.9292-3.3545l-40-10A2.0021,2.0021,0,0,0,228.5857,228.5858Zm30,20a2,2,0,0,0,0,2.8284L267.1714,260,260,267.1715l-8.5857-8.5858a2,2,0,0,0-2.8284,0l-7.5024,7.5023-8.3347-33.3394,33.3394,8.3349Z" class="fill"/>
    <path d="M73.5857,236.4142A2.0128,2.0128,0,0,0,75,237H90a2,2,0,0,0,0-4H77l0-13a2,2,0,1,0-4,0l0,15A2.0134,2.0134,0,0,0,73.5857,236.4142Z" class="fill"/>
    <path d="M220,77h13l0,13a2,2,0,0,0,4,0l0-15a2,2,0,0,0-2-2H220a2,2,0,0,0,0,4Z" class="fill"/>
  </g>
</svg>
