<svg xmlns="http://www.w3.org/2000/svg" viewBox="0 0 320 320">
  <title>_.interface.arrow-right-circled</title>
  <g id="plus">
    <path d="M160,38a122,122,0,1,0,86.2672,35.7332A121.6258,121.6258,0,0,0,160,38Zm83.4388,205.4382A118,118,0,1,1,278,160,117.623,117.623,0,0,1,243.4388,243.4382Z" class="fill"/>
    <path d="M231.9584,160.3987l.0032-.0107a2.0018,2.0018,0,0,0,.0262-.5151c-.0026-.0417-.0066-.082-.0118-.1235a1.9864,1.9864,0,0,0-.1273-.5112l-.0009-.0037-.0083-.0139a1.9883,1.9883,0,0,0-.26-.4331c-.0283-.0369-.0563-.0718-.087-.1064-.0274-.031-.0482-.0657-.0778-.0952l-70-70a2,2,0,0,0-2.8284,2.8284L225.1718,158H70a2,2,0,0,0,0,4l155.1719,0-66.5861,66.5859a2,2,0,0,0,2.8284,2.8286v0l70-70a1.9822,1.9822,0,0,0,.3163-.4277c.0209-.0366.04-.0728.058-.11A1.989,1.989,0,0,0,231.9584,160.3987Z" class="fill"/>
  </g>
</svg>
