<svg xmlns="http://www.w3.org/2000/svg" viewBox="0 0 320 320">
  <title>_.interfaces.shrink</title>
  <g id="plus">
    <path d="M298.0088,261.7446l1.4141-1.4144a8.8,8.8,0,0,0-12.4448,0l-7.1013,7.1017L209.6536,197.21l15.5264-9.88a2,2,0,0,0-.5886-3.6276L173.3062,170.881a2,2,0,0,0-2.4253,2.4254l12.8213,51.2847a2,2,0,0,0,3.6277.5887l9.88-15.526,70.2222,70.2227-7.1013,7.102a8.7992,8.7992,0,1,0,12.4438,12.444l26.6482-26.6478a8.8,8.8,0,0,0,0-12.4441Zm-1.4143,8.2015L269.946,296.5941a4.7991,4.7991,0,1,1-6.7871-6.7869l8.5159-8.5165a2,2,0,0,0,0-2.8284l-73.3994-73.4a2,2,0,0,0-3.1016.34l-8.72,13.7026L175.57,175.57l43.5359,10.884-13.7029,8.72a2,2,0,0,0-.3406,3.1016l73.4,73.4a2,2,0,0,0,2.8284,0l8.5156-8.5161a4.8,4.8,0,0,1,6.7878,0h0a4.7992,4.7992,0,0,1,0,6.7873Z" class="fill"/>
    <path d="M136.2976,95.4089A2,2,0,0,0,132.67,94.82l-9.88,15.5255L52.5674,40.1234l7.1016-7.1019A8.7992,8.7992,0,1,0,47.2249,20.5778L20.5769,47.2254A8.8,8.8,0,0,0,33.0215,59.67l7.1013-7.102L110.3459,122.79,94.82,132.67a2,2,0,0,0,.5886,3.6276l51.2852,12.8213a2,2,0,0,0,2.4253-2.4254Zm-21.7007,29.4175a2,2,0,0,0,.3406-3.1016l-73.4-73.4a2,2,0,0,0-2.8284,0l-8.5156,8.5161a4.8,4.8,0,1,1-6.7878-6.7872L50.0537,23.4059a4.7992,4.7992,0,1,1,6.7871,6.787L48.325,38.7094a2,2,0,0,0,0,2.8284l73.3994,73.3994a2,2,0,0,0,3.1016-.34l8.72-13.7021L144.43,144.43l-43.5359-10.884Z" class="fill"/>
  </g>
</svg>
