<svg xmlns="http://www.w3.org/2000/svg" viewBox="0 0 320 320">
  <title>_.interface.plus-circled-filled</title>
  <g id="plus">
    <path d="M254.796,254.796A134.212,134.212,0,1,0,160,294,133.6545,133.6545,0,0,0,254.796,254.796ZM94.6135,154.6414a9.966,9.966,0,0,1,7.075-2.9305h50.0224V101.6885a10.0056,10.0056,0,1,1,20.0113,0l0,50.0223h50.022a10.0059,10.0059,0,0,1,0,20.0117l-50.0223,0,0,50.0223a10.0059,10.0059,0,0,1-20.0117,0V171.7225l-50.0224,0a10.0054,10.0054,0,0,1-7.075-17.0807Z" class="fill"/>
  </g>
</svg>
