<svg xmlns="http://www.w3.org/2000/svg" viewBox="0 0 320 320">
  <title>_.interface.arrow-down-circled</title>
  <g id="plus">
    <path d="M160,38a122,122,0,1,0,86.2672,35.7332A121.6257,121.6257,0,0,0,160,38Zm83.4387,205.4382A117.9994,117.9994,0,1,1,278,160,117.6233,117.6233,0,0,1,243.4387,243.4382Z" class="fill"/>
    <path d="M228.5857,158.5857,162,225.1714V70a2,2,0,1,0-4,0V225.1714L91.4142,158.5857a2,2,0,1,0-2.8284,2.8286v0l70,70a1.9826,1.9826,0,0,0,.4276.3162c.0367.0208.0728.04.11.0583a1.9925,1.9925,0,0,0,.4753.1689l.0132.0039a2.0049,2.0049,0,0,0,.5142.0264c.0419-.0027.0823-.0068.124-.012a1.9935,1.9935,0,0,0,.5114-.1272l.0034-.001.0126-.0076a1.9955,1.9955,0,0,0,.4353-.2617c.0363-.0281.0708-.0557.105-.0857.0313-.0278.0662-.0488.0961-.0786l70-70a2,2,0,0,0-2.8285-2.8284Z" class="fill"/>
  </g>
</svg>
