<svg xmlns="http://www.w3.org/2000/svg" viewBox="0 0 320 320">
  <title>_.interface.undo-filled</title>
  <g id="plus">
    <polygon points="48.689 173.995 48.687 173.989 48.685 173.984 48.689 173.995" class="fill"/>
    <polygon points="48.215 167.769 48.22 167.744 48.219 167.745 48.215 167.769" class="fill"/>
    <polygon points="48.697 165.987 48.698 165.985 48.698 165.983 48.697 165.987" class="fill"/>
    <polygon points="48.818 165.654 48.825 165.638 48.825 165.636 48.827 165.631 48.818 165.654" class="fill"/>
    <polygon points="48.365 167.072 48.366 167.07 48.366 167.069 48.365 167.072" class="fill"/>
    <polygon points="48.22 167.744 48.22 167.742 48.22 167.74 48.22 167.744" class="fill"/>
    <polygon points="48.481 166.657 48.481 166.656 48.482 166.654 48.481 166.657" class="fill"/>
    <polygon points="48.061 171.135 48.061 171.131 48.06 171.129 48.061 171.135" class="fill"/>
    <polygon points="48.006 170.085 48.005 170.075 48.005 170.07 48.006 170.085" class="fill"/>
    <polygon points="48.151 171.859 48.15 171.856 48.15 171.852 48.151 171.859" class="fill"/>
    <polygon points="49.265 164.636 49.266 164.633 49.266 164.633 49.265 164.636" class="fill"/>
    <path d="M133.8125,163.5905a256.2163,256.2163,0,0,1,38.4755-3.1882h.0518a157.3094,157.3094,0,0,1,24.907,1.8466c11.8893,1.9118,22.6014,5.43,31.3476,10.773a55.8864,55.8864,0,0,1,11.7463,9.4705,53.8426,53.8426,0,0,1,8.9245,12.8768,12,12,0,1,0,21.466-10.7322h0l-.0006-.0011h0a77.4287,77.4287,0,0,0-18.1144-23.6324,83.8513,83.8513,0,0,0-17.7286-11.92,112.9216,112.9216,0,0,0-30.2892-9.9149,176.6014,176.6014,0,0,0-32.28-2.7665,280.4084,280.4084,0,0,0-42.4687,3.5157,410.29,410.29,0,0,0-46.4567,10.1276l7.3381-14.6771A12,12,0,1,0,69.2648,124.636L49.2661,164.6332c-.174.3469-.3162.6835-.4407,1.0025-.0586.15-.0985.2681-.1277.35q-.119.3333-.2167.6708c-.0316.1086-.0727.2457-.1154.4141-.0619.2445-.1068.4691-.1456.6716-.0484.251-.0857.494-.1161.7282l-.0007.0056c-.0192.1531-.0446.3409-.0627.565-.0169.214-.0226.3972-.0281.55v.0034q-.007.2112-.0071.423l0,.0578c.0011.166.0037.3474.0137.5457v.0022c.0107.204.0286.3724.0414.5079.0217.231.05.473.09.7254.0329.21.0712.4433.1265.697.0416.19.0822.335.1089.4391.0476.1851.1.3761.1608.5726l.0049.0162-.0018-.006c.04.1259.0844.2645.1371.4134.0788.2252.1613.4322.24.6226l-.0009-.0023c.0233.0546.0657.17.1411.3385l.0009.002q.2032.45.448.8923l.0178.032.1641.2715-.0088-.0148c.1116.1884.2338.3867.3716.5913l.0042.0063c.0948.1394.1816.2581.256.36l.0113.0155-.0095-.013c.1216.1663.2442.3235.3657.4737l.0034.0041c.0746.0916.1666.2034.27.323l0,0,.0693.083.0237.0284.0236.0262c.1637.1812.2926.3033.3693.3824l.0022.0023c.0818.0826.1929.2.3431.3406q.33.3091.6829.5934l.0026.0021c.1455.1161.2565.1948.3254.2469l.0024.0018c.1782.1331.3663.2678.5673.4.1.0666.21.139.334.2153l.0046.0029c.2306.1415.4662.2727.7046.3979l-.0006.0011.1294.0728.0427.024,40.043,20.0215a12,12,0,1,0,10.7332-21.4659l-13.3883-6.6942q3.4052-.9258,7.1033-1.8661C109.3707,168.1052,121.2736,165.517,133.8125,163.5905Z" class="fill"/>
    <polygon points="48.387 172.995 48.386 172.993 48.386 172.992 48.387 172.995" class="fill"/>
    <polygon points="53.375 180.001 53.374 180 53.369 179.996 53.375 180.001" class="fill"/>
  </g>
</svg>
