<svg xmlns="http://www.w3.org/2000/svg" viewBox="0 0 320 320">
  <title>_.interfaces.hourglass-filled</title>
  <g id="plus">
    <polygon points="228.623 42.432 228.629 42.433 228.629 42.433 228.623 42.432" class="fill"/>
    <polygon points="241.279 46.644 241.282 46.647 241.282 46.647 241.279 46.644" class="fill"/>
    <polygon points="92.793 42.159 92.793 42.159 92.796 42.159 92.793 42.159" class="fill"/>
    <polygon points="230.371 42.795 230.372 42.795 230.378 42.797 230.371 42.795" class="fill"/>
    <polygon points="89.633 277.206 89.628 277.205 89.622 277.203 89.633 277.206" class="fill"/>
    <polygon points="225.174 278.202 225.17 278.202 225.169 278.202 225.174 278.202" class="fill"/>
    <polygon points="87.499 276.711 87.495 276.71 87.494 276.71 87.499 276.711" class="fill"/>
    <polygon points="232.5 43.288 232.505 43.29 232.506 43.29 232.5 43.288" class="fill"/>
    <path d="M121.1812,280.9674c.4849.03.9763.0575,1.4629.0862l.0039,0c.4609.0262.9224.0532,1.4.0793.5012.0276,1.0134.0536,1.52.0795.4854.0248.9707.05,1.4736.0746.52.0251,1.0508.0486,1.5745.0725.5112.0228,1.02.0464,1.5479.0686.55.0232,1.1123.0447,1.6672.0667.5161.02,1.0308.041,1.5654.06.5835.0211,1.18.04,1.7671.06.5376.0176,1.071.0361,1.6235.0535.6125.0182,1.2371.0349,1.8538.0519.5449.0151,1.0867.0313,1.6511.0455.6616.0164,1.3381.0305,2.0068.0452.5449.0126,1.0859.0253,1.6482.0366.7017.0138,1.4194.025,2.1282.0367.552.01,1.1.02,1.6707.0284.7415.0107,1.501.0187,2.2493.0273.5608.0068,1.1145.0146,1.6941.02.8806.0083,1.7827.0137,2.6794.02.4619.0029.9158.0073,1.3933.01q2.0834.01,4.238.01,2.1566,0,4.2366-.01c.4189-.0024.8137-.0063,1.2148-.0088.9648-.0059,1.9319-.0117,2.8767-.0205.4963-.005.968-.0118,1.446-.0172.8315-.01,1.6692-.0186,2.4871-.03.5469-.0079,1.07-.0182,1.5969-.027.7317-.0122,1.4719-.0239,2.1938-.0382.5591-.0109,1.0955-.024,1.6362-.0363.67-.0145,1.35-.0288,2.0154-.0455.5442-.0138,1.0674-.0289,1.5947-.0436.6431-.0179,1.2937-.0352,1.93-.0543.5227-.0164,1.0239-.0339,1.5276-.05.6167-.0205,1.24-.0406,1.85-.0627.5081-.0188.9976-.0383,1.489-.0574.59-.0234,1.1831-.0459,1.7651-.0706.4834-.02.95-.0419,1.4189-.0634.5669-.0253,1.14-.0508,1.7014-.0779.4717-.0227.926-.0468,1.3809-.07.5332-.0269,1.0725-.0543,1.6-.0834.4636-.0251.9111-.0518,1.3584-.0775.502-.0287,1.0088-.0576,1.5059-.0884.4363-.0265.8613-.0541,1.2859-.0813.4924-.0317.9868-.0637,1.4722-.0967.4114-.0282.8115-.0566,1.2107-.085.4717-.0338.9414-.0676,1.4028-.1021.4019-.03.7935-.0607,1.1838-.0916.4429-.0347.8845-.07,1.3181-.1053.3872-.0317.7634-.0642,1.1345-.0958l.0029,0c.4214-.0366.8416-.0729,1.2578-.11.3677-.033.7266-.0664,1.0823-.1q.6039-.0566,1.1951-.114c.3494-.0341.6926-.0686,1.0332-.1035l-.0027,0c.3835-.0388.7651-.0782,1.14-.1183l-.0044,0c.3423-.0359.6763-.0724,1.0046-.1088.3511-.0387.7-.0775,1.0439-.1172q.4977-.0568.9817-.1145c.3289-.0394.6526-.0782.9734-.1179.3191-.04.63-.079.9373-.1183.312-.04.6191-.08.9233-.1206.2974-.0394.5967-.0795.8926-.12q.4376-.06.8555-.12.438-.0624.8618-.1245l.0029,0c.27-.04.5344-.08.7957-.12.2766-.0425.5518-.085.8228-.1277.252-.04.4961-.0795.7371-.1187l.0044-.0007c.2622-.0433.5291-.0867.7959-.132.229-.0386.4475-.0767.6592-.1135l.0037-.0006c.261-.0458.5237-.0917.7827-.1383.2048-.0371.4-.0734.5913-.109l-.0029,0c.2581-.0476.5142-.0958.7634-.1434l.0042-.0007c.1833-.0355.3582-.07.53-.1042.2468-.049.4958-.0983.7432-.1493l-.0051.001c.1614-.0328.3154-.0653.4673-.0975l-.0037.0007c.2412-.0508.4875-.1027.73-.1559.1331-.0293.2612-.0579.39-.0867.2415-.054.4829-.1086.7173-.1627l.0051-.0012c.115-.0269.2168-.0516.3115-.0741.2407-.057.4824-.1149.7166-.1725l.0168-.0043.23-.0581-.0039.0009c.2429-.0609.4868-.1228.7249-.1858l.0059-.0015.1406-.0376-.0027.0006c.2432-.0646.4819-.13.7124-.1935l.01-.0026.0315-.0085c.2312-.0649.4658-.1311.6956-.1991,4.5352-1.342,5.8721-2.4067,6.218-2.7137l.647-.5944V245.2729h-6.3469c-.0425-.35-.0769-.6852-.1223-1.0406-.0171-.1329-.0339-.2771-.0562-.4424l.0007.0048q-.1912-1.4557-.4331-2.9879c-.022-.14-.0435-.27-.0623-.39l-.0015-.0094c-.5415-3.3635-1.2791-6.9939-2.2832-10.7893l-.0007-.0024-.0225-.0845a99.2414,99.2414,0,0,0-4.0144-12.0179l-.0056-.0137a109.2274,109.2274,0,0,0-18.4175-33.4,74.6535,74.6535,0,0,0-26.4275-20.8542c-1.3667-1.3717-2.4514-2.4662-3.2219-3.246.7705-.78,1.8552-1.8744,3.2219-3.2461a74.6567,74.6567,0,0,0,26.4285-20.8547,109.2675,109.2675,0,0,0,18.45-33.4888,99.1281,99.1281,0,0,0,3.9883-11.9495l.022-.0845-.0029.0112c1.0061-3.8009,1.7446-7.4363,2.2864-10.8041l-.0007.0038q.0308-.1877.0625-.389c.1611-1.0233.3074-2.0269.4351-3.0039l-.0015.01c.0215-.1586.0376-.2948.0535-.4164l0-.0033c.0461-.3612.0813-.7023.1243-1.0579H242V47.2539l-.7178-.6074c-.447-.3713-1.8208-1.3419-5.8459-2.5618l-.0032-.001c-.1165-.0349-.22-.064-.2981-.0871-.1218-.0359-.2295-.0655-.3076-.0884l-.0093-.0027-.0029-.0008c-.1072-.03-.2273-.0667-.38-.1093l-.0068-.002-.0889-.0244.0032.0009c-.1033-.0286-.2048-.0557-.2944-.08l.0024.0007c-.1829-.05-.375-.1027-.5872-.1581l-.0049-.0013c-.1208-.0312-.2432-.0623-.3586-.0919l-.0044-.0011c-.1843-.0468-.3787-.0968-.5906-.1489-.146-.0362-.2849-.0686-.408-.0983-.197-.0475-.4006-.0967-.6169-.1472l-.0088-.002c-.1541-.0353-.3118-.0708-.4639-.1052-.2061-.0463-.4148-.0933-.6357-.1414-.1777-.0392-.3523-.0757-.5164-.11l.0054.0012c-.2224-.0476-.4438-.094-.6721-.1411l-.0029-.0006c-.1851-.038-.3723-.075-.5562-.1113-.23-.0461-.4658-.093-.7122-.14-.2031-.039-.4062-.0766-.6021-.1133-.2422-.0451-.4868-.0909-.7458-.1374-.22-.04-.4417-.0779-.6567-.1159-.2551-.0446-.5115-.0892-.7751-.134l-.0046-.0008c-.2351-.0393-.4717-.0781-.7063-.1169l-.0032-.0005c-.2642-.0432-.5332-.0869-.8105-.13-.2517-.04-.5107-.08-.7732-.12l.0029,0c-.2759-.0422-.5566-.0849-.8467-.1274-.2686-.04-.5449-.08-.8245-.12l.0044.0006c-.2922-.0421-.5881-.0838-.8906-.1251l.0037,0c-.2883-.04-.5789-.0788-.87-.1178l-.0039-.0005c-.3069-.0405-.6211-.0821-.9446-.123l.0042,0q-.4537-.0583-.9233-.1165-.4863-.06-.9829-.1188-.48-.0575-.9751-.1141-.51-.0584-1.0354-.1164-.51-.0566-1.0369-.1125-.5358-.0564-1.0813-.1122c-.3547-.0359-.7117-.0718-1.0759-.1074-.3845-.038-.7766-.0749-1.1692-.1116-.3628-.0341-.7312-.0687-1.1089-.1024-.4026-.0364-.812-.0717-1.22-.1073-.3911-.0336-.7808-.0665-1.1785-.0994-.4158-.0345-.8394-.0681-1.2632-.1009-.4067-.032-.8181-.0645-1.241-.0965l-.0027,0c-.4375-.0325-.8838-.0644-1.3281-.0961-.4258-.0308-.8552-.0612-1.2942-.0912-.46-.0312-.9275-.0611-1.3923-.0909-.4426-.0287-.8884-.0577-1.3472-.0858-.4849-.03-.9771-.0576-1.4648-.0859-.4622-.0268-.9243-.0538-1.4019-.08-.5012-.0276-1.0134-.0536-1.52-.08-.4854-.0248-.9707-.05-1.4736-.0745-.52-.0251-1.0508-.0486-1.5745-.0725-.5112-.0229-1.02-.0464-1.5479-.0687-.55-.0231-1.1123-.0447-1.6672-.0666-.5161-.02-1.0308-.041-1.5654-.06-.5835-.0212-1.18-.04-1.7671-.06-.5376-.0175-1.071-.0361-1.6235-.0534-.6125-.0182-1.2371-.0349-1.8538-.0519-.5449-.0151-1.0867-.0312-1.6511-.0455-.6616-.0163-1.3376-.03-2.0054-.0455-.5464-.0117-1.0864-.0249-1.65-.0363-.7017-.0138-1.4194-.025-2.1282-.0367-.552-.01-1.1-.02-1.6707-.0284-.7415-.0108-1.501-.0187-2.2493-.0274-.5608-.0068-1.1145-.0146-1.6941-.02-.8806-.0084-1.7827-.0137-2.6794-.02-.4619-.0029-.9158-.0073-1.3933-.01Q162.1544,38,160,38q-2.157,0-4.2368.01c-.42.002-.8152.0064-1.2148.0088-.9648.0059-1.9319.0117-2.8767.0206-.4963.0049-.968.0118-1.446.0172-.8315.01-1.6692.0186-2.4871.03-.5469.0079-1.07.0182-1.5969.0269-.7317.0122-1.4719.0239-2.1938.0382-.5591.0109-1.0955.0241-1.6362.0363-.67.0146-1.35.0288-2.0154.0455-.5442.0138-1.0674.029-1.5947.0436-.6431.018-1.2942.0352-1.9314.0549-.5205.0158-1.0225.0334-1.5261.05-.6167.0205-1.24.0406-1.85.0627-.5081.0187-.9983.0384-1.491.0579-.5872.0228-1.1812.0454-1.7632.07-.4834.02-.9492.0418-1.4167.0627-.57.0259-1.1426.0514-1.7036.0785-.4717.0227-.926.0468-1.3809.07-.5325.0272-1.0713.0542-1.6.0834-.4636.0251-.9111.0517-1.3584.0775-.502.0287-1.0088.0577-1.5059.0884-.4363.0266-.8613.0541-1.2859.0814-.4924.0317-.9868.0637-1.4722.0967-.4114.0281-.8115.0566-1.2107.0849-.4717.0338-.9414.0676-1.4028.1021-.4036.03-.7944.0612-1.1814.0913-.4429.0348-.8857.07-1.3228.1058-.385.0316-.7612.064-1.1323.0956q-.6372.0552-1.2632.1107c-.365.0326-.7209.066-1.0718.0986l-.0042,0c-.4.038-.8022.0758-1.2.1149q-.524.0515-1.04.1037-.5691.0582-1.1262.1171-.51.054-1.0034.1087-.5277.0582-1.0447.1173-.4977.0569-.9817.1146-.4948.0586-.9736.1178l-.0029,0c-.3142.0391-.6257.0781-.9373.1183q-.4633.0594-.917.1193l-.0049.0007c-.2969.04-.595.08-.8909.1205q-.4343.06-.8589.1206c-.2886.0411-.5757.0825-.8584.124l-.0029,0c-.27.04-.5344.08-.7957.12-.2766.0425-.5518.0849-.8228.1277-.252.04-.4961.0794-.7371.1186l-.0044.0007c-.2659.0438-.5327.0876-.7961.132-.2285.0385-.447.0767-.6589.1135l-.0037.0006c-.261.0458-.5237.0917-.7827.1384-.2046.037-.4.0733-.5908.1089-.2549.0471-.5112.0947-.7649.1437-.1853.0356-.36.0706-.53.1042-.2468.049-.4946.098-.7393.1481l-.0046.001c-.1577.0326-.31.0646-.4614.0969l.0037-.0008c-.2412.0508-.4875.1027-.73.1559-.1331.0292-.2612.0578-.39.0867-.24.0537-.4834.1085-.719.1631l-.0034.0008c-.1179.0275-.2173.0519-.3074.0731-.2424.0574-.4851.115-.7246.1744l-.2432.0615.0039-.0009c-.2429.061-.4868.1229-.7249.1858l-.0059.0015-.1406.0376.0027-.0007c-.2407.064-.4771.1283-.7056.1918l-.021.0052-.0271.0076c-.2312.065-.4658.1311-.6956.1991-4.5352,1.3421-5.8721,2.4068-6.218,2.7138L78,47.3027V74.7269h6.3472c.042.35.0767.6852.1221,1.0406.0171.1329.0339.2771.0562.4424l-.0007-.0048q.1912,1.4557.4331,2.9879c.022.14.0435.27.0623.39l.0015.0094c.5415,3.3635,1.2791,6.9939,2.2832,10.7893l.0007.0024.0225.0845a99.1506,99.1506,0,0,0,4.0007,11.98A109.2488,109.2488,0,0,0,109.7654,135.9a74.6548,74.6548,0,0,0,26.4275,20.8542c1.3667,1.3717,2.4514,2.4663,3.2219,3.2461-.7705.78-1.8552,1.8743-3.2219,3.246a74.6532,74.6532,0,0,0-26.4285,20.8547,109.27,109.27,0,0,0-18.45,33.4888,99.0852,99.0852,0,0,0-3.9883,11.9495l-.0034.0127-.0186.0718.0029-.0112c-1.0061,3.8009-1.7446,7.4363-2.2864,10.8041l.0007-.0038q-.0308.1877-.0625.389l0-.0027q-.2424,1.539-.4348,3.0007c-.02.1493-.0369.2874-.054.42-.0457.36-.0808.6993-.1233,1.0536H78v27.473l.7207.61-.0034-.0029c.4465.371,1.82,1.3419,5.8464,2.5623l.0032.001c.1165.0349.22.064.2981.087.1218.036.231.0659.3137.09l.0032.001c.1084.0311.23.0679.3828.11l.0068.002.0889.0244-.0032-.0009c.11.03.208.056.2852.0774l.0042.0011c.1855.0508.3794.1039.59.1589.1262.0328.25.0641.3635.0931l.0044.0011c.1841.0468.3784.0968.5906.1488.1436.0355.2805.068.4045.0979l.0068.0017c.1951.0466.3972.0953.6135.1459l.0088.0021c.1582.0361.3137.0707.458.1038l.0081.0018c.2.0449.4087.0925.6338.1411.1775.0393.3521.0757.5161.11l-.0054-.0012c.2224.0476.4438.094.6721.1411l.0029.0006c.187.0383.3748.0756.5571.1119l.0029.0006c.228.045.4634.0919.7122.1394l-.0073-.0015c.2051.04.41.0778.6055.1145.2417.0452.489.0912.75.1376l-.0083-.0015c.22.04.4451.0795.6655.1179.251.0438.5073.0884.771.1332l.0046.0009c.2351.0393.4717.0781.7063.1168l.0032.0006c.2642.0432.5332.0869.8105.13.2517.04.5107.08.7732.12l-.0029,0c.2759.0422.5566.0848.8467.1273.2686.04.5449.08.8245.12l-.0044-.0006c.2922.0421.5881.0839.8906.1251l-.0037,0c.2883.04.58.079.8728.1177.3091.0414.624.0824.9417.1232q.4563.0588.92.1161l.0032,0q.4863.06.98.1189l.0042,0q.48.0568.9739.1135.51.0584,1.0354.1165.51.0566,1.0369.1124c.3564.0377.7156.0746,1.0752.1116l.0039,0c.3582.0363.72.0726,1.0889.1086.376.0369.759.0734,1.1431.1093.3687.0345.7424.0695,1.1255.104.4021.036.8105.0719,1.2209.1072.3875.0333.7781.0668,1.179.0994l-.0032,0c.4165.0347.84.0681,1.2639.101.4067.0321.8181.0645,1.241.0966.44.0327.8865.0646,1.3308.0963.4258.0308.856.0613,1.2964.0909l-.0032,0c.46.0316.9285.0616,1.3933.0914C120.2766,280.91,120.7224,280.9392,121.1812,280.9674ZM91.3123,102.4048l-.002-.0055,0,0Z" class="fill"/>
  </g>
</svg>
