<svg xmlns="http://www.w3.org/2000/svg" viewBox="0 0 320 320">
  <title>_.interfaces.checkmark</title>
  <g id="plus">
    <path d="M61.28,176.4636a2,2,0,1,0-2.5605,3.0729l60,50a2,2,0,0,0,2.8242-.265l140-170a2,2,0,0,0-3.0876-2.5428h0L119.7347,225.1757Z" class="fill"/>
    <path d="M160,264A101.996,101.996,0,0,0,239.5781,98.1986a2,2,0,0,0-3.1191,2.5041A98.0082,98.0082,0,0,1,109.3845,245.9314a2,2,0,1,0-2.0688,3.4233h0A101.5348,101.5348,0,0,0,160,264Z" class="fill"/>
    <path d="M60,164a2,2,0,0,0,2-2A97.9975,97.9975,0,0,1,222.6865,86.6743a2,2,0,0,0,2.5605-3.0732h0A101.9975,101.9975,0,0,0,58,162,2,2,0,0,0,60,164Z" class="fill"/>
  </g>
</svg>
