<svg xmlns="http://www.w3.org/2000/svg" viewBox="0 0 320 320">
  <title>_.interfaces.hamburger-menu-filled</title>
  <g id="plus">
    <path d="M63.37,109.9833a14.9349,14.9349,0,0,0,5.794,2.811,13.1364,13.1364,0,0,0,2.8892.4038H247.47a12.496,12.496,0,0,0,2.3641-.2854,14.7578,14.7578,0,0,0,7.6412-4.1351,14.9764,14.9764,0,0,0,3.2435-5.2515A22.6884,22.6884,0,0,0,262,95.5986a20.8241,20.8241,0,0,0-2.1946-9.9622,14.1894,14.1894,0,0,0-3.652-4.4219,14.9359,14.9359,0,0,0-5.7939-2.8108A13.1282,13.1282,0,0,0,247.47,78H72.0537a12.4959,12.4959,0,0,0-2.3641.2854A14.7586,14.7586,0,0,0,62.0485,82.42a14.975,14.975,0,0,0-3.2435,5.2513,22.6852,22.6852,0,0,0-1.281,7.9271,20.8261,20.8261,0,0,0,2.1946,9.9625A14.189,14.189,0,0,0,63.37,109.9833Z" class="fill"/>
    <path d="M59.7186,169.962a14.1894,14.1894,0,0,0,3.652,4.4219,14.9359,14.9359,0,0,0,5.7939,2.8108,13.1368,13.1368,0,0,0,2.8892.4038H247.47a12.496,12.496,0,0,0,2.3641-.2854,14.7586,14.7586,0,0,0,7.6411-4.1348,14.975,14.975,0,0,0,3.2435-5.2513A22.685,22.685,0,0,0,262,160a20.8241,20.8241,0,0,0-2.1946-9.9622,14.1894,14.1894,0,0,0-3.652-4.4219,14.9359,14.9359,0,0,0-5.7939-2.8108,13.1282,13.1282,0,0,0-2.8892-.4038H72.0537a12.4958,12.4958,0,0,0-2.3641.2854,14.7586,14.7586,0,0,0-7.6411,4.1348,14.975,14.975,0,0,0-3.2435,5.2513A22.6852,22.6852,0,0,0,57.5239,160,20.824,20.824,0,0,0,59.7186,169.962Z" class="fill"/>
    <path d="M59.7186,234.3634a14.1894,14.1894,0,0,0,3.652,4.4219,14.9359,14.9359,0,0,0,5.7939,2.8108A13.1368,13.1368,0,0,0,72.0537,242H247.47a12.496,12.496,0,0,0,2.3641-.2854,14.7586,14.7586,0,0,0,7.6411-4.1348,14.975,14.975,0,0,0,3.2435-5.2513,22.685,22.685,0,0,0,1.281-7.927,20.8262,20.8262,0,0,0-2.1946-9.9626,14.189,14.189,0,0,0-3.6519-4.4221,14.9349,14.9349,0,0,0-5.794-2.811,13.1278,13.1278,0,0,0-2.8892-.4038H72.0537a12.4959,12.4959,0,0,0-2.3641.2854,14.7578,14.7578,0,0,0-7.6412,4.1351,14.9755,14.9755,0,0,0-3.2435,5.2515,22.6886,22.6886,0,0,0-1.281,7.9276A20.824,20.824,0,0,0,59.7186,234.3634Z" class="fill"/>
  </g>
</svg>
