<svg xmlns="http://www.w3.org/2000/svg" viewBox="0 0 320 320">
  <title>_.interface.arrow-left-circled</title>
  <g id="plus">
    <path d="M161.4142,91.4141a2,2,0,1,0-2.8284-2.8281v0l-70,70a1.98,1.98,0,0,0-.316.4272c-.0211.0369-.04.0735-.0586.1113a1.9945,1.9945,0,0,0-.1691.4751l-.0038.0129a2,2,0,0,0-.0261.5149c.0026.0415.0066.0815.0118.1228a1.9877,1.9877,0,0,0,.1274.5117l.0009.0037.0081.0134a1.99,1.99,0,0,0,.2611.4341c.0281.0364.0558.0713.0862.1055.0275.0313.0484.0659.0782.0957l70,70a2,2,0,1,0,2.8284-2.8284L94.8282,162H250a2,2,0,0,0,0-4L94.8281,158Z" class="fill"/>
    <path d="M160,38a122,122,0,1,0,86.2672,35.7332A121.6256,121.6256,0,0,0,160,38Zm83.4388,205.4382A118,118,0,1,1,278,160,117.6232,117.6232,0,0,1,243.4388,243.4382Z" class="fill"/>
  </g>
</svg>
