<svg xmlns="http://www.w3.org/2000/svg" viewBox="0 0 320 320">
  <title>_.interfaces.cross-circled-filled</title>
  <g id="plus">
    <path d="M160,26C86.1064,26.0037,26.0037,86.1063,26,160c.0037,73.8936,60.1063,133.9962,134,134,73.8936-.0037,133.9962-60.1064,134-134C293.9962,86.1064,233.8936,26.0037,160,26Zm51.9241,98.645L176.5685,160l35.3556,35.355a10,10,0,0,1-14.1422,14.1423l-35.3552-35.3551-35.3556,35.3551a10,10,0,0,1-14.1422-14.1423L148.2844,160l-35.3556-35.3551a10,10,0,1,1,14.1423-14.1423l35.3556,35.3552,35.3552-35.3552a10,10,0,0,1,14.1422,14.1424Z" class="fill"/>
  </g>
</svg>
