<svg xmlns="http://www.w3.org/2000/svg" viewBox="0 0 320 320">
  <title>_.interface.keyboard</title>
  <g id="plus">
    <path d="M310,89.7861H10a2,2,0,0,0-2,2V240a2,2,0,0,0,2,2H310a2,2,0,0,0,2-2V91.7861a2,2,0,0,0-2-2ZM12,238V93.7859H308V238Z" class="fill"/>
    <path d="M226.4424,193.406H253.7a2.8766,2.8766,0,0,0,1.9634-.7683,2.766,2.766,0,0,0,.884-2.0215V172.4014a2.7646,2.7646,0,0,0-.8848-2.0215,2.8264,2.8264,0,0,0-.6443-.4373,1.9788,1.9788,0,0,0-1.8613-1.2834H227.4424a2.0122,2.0122,0,0,0-1.4143.5857,1.9759,1.9759,0,0,0-.3423.48,2.8528,2.8528,0,0,0-1.2063.6553,2.7646,2.7646,0,0,0-.8848,2.0215v18.2148a2.766,2.766,0,0,0,.884,2.0215A2.8768,2.8768,0,0,0,226.4424,193.406Zm25.3005-20.38a1.9964,1.9964,0,0,0,.8049.48v15.9H227.5945V173.5972a2.0087,2.0087,0,0,0,1.262-.5708,1.9677,1.9677,0,0,0,.2825-.3674H251.46A1.9805,1.9805,0,0,0,251.7429,173.0264Z" class="fill"/>
    <path d="M298.5193,192.6387a2.7645,2.7645,0,0,0,.8857-2.0225V172.4014a2.7648,2.7648,0,0,0-.8862-2.0225,2.8337,2.8337,0,0,0-.6438-.4365,1.9791,1.9791,0,0,0-1.8613-1.2832H270.3a2.0122,2.0122,0,0,0-1.4143.5857,1.9812,1.9812,0,0,0-.3423.4795,2.8529,2.8529,0,0,0-1.2073.6555,2.7646,2.7646,0,0,0-.8848,2.0215v18.2148a2.766,2.766,0,0,0,.884,2.0215,2.8768,2.8768,0,0,0,1.9636.7683h27.2578A2.8766,2.8766,0,0,0,298.5193,192.6387Zm-28.0684-19.0415a1.977,1.977,0,0,0,1.2629-.5708,1.9972,1.9972,0,0,0,.2842-.3674h22.3188a1.9805,1.9805,0,0,0,.2825.3674,2.0021,2.0021,0,0,0,.8059.48v15.9H270.4509Z" class="fill"/>
    <path d="M224.405,138.2832a2.7647,2.7647,0,0,0-.8857-2.0227,2.8766,2.8766,0,0,0-1.9626-.7673H194.2988a2.8768,2.8768,0,0,0-1.9636.7683,2.7661,2.7661,0,0,0-.884,2.0217V156.498a2.7645,2.7645,0,0,0,.8853,2.0222,2.8774,2.8774,0,0,0,1.9624.7666h27.2578a2.8779,2.8779,0,0,0,1.9614-.7656,2.7645,2.7645,0,0,0,.887-2.0232Zm-28.9541,1.21h24.9543v15.7942H195.4509Z" class="fill"/>
    <path d="M299.0857,204.2256v-.833a2,2,0,0,0-2-2H279.9434a2,2,0,0,0-2,2v.5557a2.8327,2.8327,0,0,0-.7048.4668,2.7647,2.7647,0,0,0-.887,2.0234v18.2158a2.7645,2.7645,0,0,0,.887,2.0232,2.8781,2.8781,0,0,0,1.9617.7656h18.1709a2.8779,2.8779,0,0,0,1.9614-.7656,2.7645,2.7645,0,0,0,.887-2.0232V206.4385a2.7647,2.7647,0,0,0-.887-2.0234A2.851,2.851,0,0,0,299.0857,204.2256Zm-17.1426,1.4238v-.2571h13.1426l0,.2571a2.0131,2.0131,0,0,0,.5857,1.4141,1.993,1.993,0,0,0,.5481.3787v16.0012H280.3513V207.6064a1.998,1.998,0,0,0,1.5918-1.957Z" class="fill"/>
    <path d="M297.3711,135.4932H279.2a2.8768,2.8768,0,0,0-1.9629.7673,2.7647,2.7647,0,0,0-.8857,2.0227V156.498a2.7645,2.7645,0,0,0,.887,2.0232,2.8781,2.8781,0,0,0,1.9617.7656h18.1709a2.8779,2.8779,0,0,0,1.9614-.7656,2.7645,2.7645,0,0,0,.887-2.0232V138.2832a2.7647,2.7647,0,0,0-.8857-2.0227A2.8766,2.8766,0,0,0,297.3711,135.4932Zm-17.02,4H296.22v15.7942H280.3513Z" class="fill"/>
    <path d="M264.8,203.9194v-.5269a2,2,0,0,0-2-2H228.5137a2,2,0,0,0-2,2v.3652a2.8521,2.8521,0,0,0-1.2192.6582,2.7647,2.7647,0,0,0-.8853,2.0225v18.2158a2.7645,2.7645,0,0,0,.8853,2.0222,2.8774,2.8774,0,0,0,1.9624.7666H263.6a2.8772,2.8772,0,0,0,1.9622-.7666,2.7645,2.7645,0,0,0,.8853-2.0222V206.4385a2.7647,2.7647,0,0,0-.8853-2.0225A2.8376,2.8376,0,0,0,264.8,203.9194Zm-34.8718,3.144a1.9857,1.9857,0,0,0,.5857-1.4141v-.2573H260.8l0,.2573a1.99,1.99,0,0,0,1.6475,1.9644v15.83H228.4089V207.6492h.1047A1.9857,1.9857,0,0,0,229.9277,207.0635Z" class="fill"/>
    <path d="M183.585,124.9442h27.2578a2.8772,2.8772,0,0,0,1.9626-.7677,2.7643,2.7643,0,0,0,.8848-2.0212V103.9395a2.7658,2.7658,0,0,0-.884-2.0216,2.8767,2.8767,0,0,0-1.9634-.7684H183.585a2.8769,2.8769,0,0,0-1.9636.7684,2.7658,2.7658,0,0,0-.884,2.0216v18.2158a2.7643,2.7643,0,0,0,.8848,2.0212A2.8774,2.8774,0,0,0,183.585,124.9442Zm26.1055-4H184.7371v-15.795H209.69Z" class="fill"/>
    <path d="M149.4788,136.2615a2.7661,2.7661,0,0,0-.884,2.0217V156.498a2.7645,2.7645,0,0,0,.8853,2.0222,2.8774,2.8774,0,0,0,1.9624.7666H178.7a2.8772,2.8772,0,0,0,1.9622-.7666,2.7645,2.7645,0,0,0,.8853-2.0222V138.2832a2.7661,2.7661,0,0,0-.884-2.0217,2.8766,2.8766,0,0,0-1.9634-.7683H151.4424A2.8768,2.8768,0,0,0,149.4788,136.2615Zm28.0691,19.0256H152.5945V139.4929h24.9534Z" class="fill"/>
    <path d="M168.8564,169.2449a2.0131,2.0131,0,0,0-1.4141-.5857H141.7285a2.0122,2.0122,0,0,0-1.4143.5857,1.9812,1.9812,0,0,0-.3423.4795,2.8529,2.8529,0,0,0-1.2073.6555,2.7646,2.7646,0,0,0-.8848,2.0215v18.2148a2.766,2.766,0,0,0,.884,2.0215,2.8768,2.8768,0,0,0,1.9636.7683h27.2578a2.8766,2.8766,0,0,0,1.9634-.7683,2.766,2.766,0,0,0,.884-2.0215V172.4014a2.7646,2.7646,0,0,0-.8848-2.0215,2.8264,2.8264,0,0,0-.6443-.4373A1.9973,1.9973,0,0,0,168.8564,169.2449ZM141.88,173.5972a1.977,1.977,0,0,0,1.2629-.5708,1.9972,1.9972,0,0,0,.2842-.3674h22.3188a1.8691,1.8691,0,0,0,1.0874.8474v15.9H141.88Z" class="fill"/>
    <path d="M140.7275,124.9442h27.2578a2.8772,2.8772,0,0,0,1.9626-.7677,2.7643,2.7643,0,0,0,.8848-2.0212V103.9395a2.7658,2.7658,0,0,0-.884-2.0216,2.8767,2.8767,0,0,0-1.9634-.7684H140.7275a2.8769,2.8769,0,0,0-1.9636.7684,2.7658,2.7658,0,0,0-.884,2.0216v18.2158a2.7643,2.7643,0,0,0,.8848,2.0212A2.8774,2.8774,0,0,0,140.7275,124.9442Zm26.1055-4H141.88v-15.795H166.833Z" class="fill"/>
    <path d="M106.6213,136.2615a2.7661,2.7661,0,0,0-.884,2.0217V156.498a2.7645,2.7645,0,0,0,.8853,2.0222,2.8774,2.8774,0,0,0,1.9624.7666h27.2578a2.8772,2.8772,0,0,0,1.9622-.7666,2.7645,2.7645,0,0,0,.8853-2.0222V138.2832a2.7661,2.7661,0,0,0-.884-2.0217,2.8766,2.8766,0,0,0-1.9634-.7683H108.585A2.8768,2.8768,0,0,0,106.6213,136.2615ZM134.69,155.2871H109.7371V139.4929H134.69Z" class="fill"/>
    <path d="M212.1611,169.9426a1.9788,1.9788,0,0,0-1.8613-1.2834H184.5859a2.0122,2.0122,0,0,0-1.4143.5857,1.9812,1.9812,0,0,0-.3423.4795,2.8529,2.8529,0,0,0-1.2073.6555,2.7646,2.7646,0,0,0-.8848,2.0215v18.2148a2.766,2.766,0,0,0,.884,2.0215,2.8768,2.8768,0,0,0,1.9636.7683h27.2578a2.8766,2.8766,0,0,0,1.9634-.7683,2.766,2.766,0,0,0,.884-2.0215V172.4014a2.7646,2.7646,0,0,0-.8848-2.0215A2.8264,2.8264,0,0,0,212.1611,169.9426Zm-27.4241,3.6545A1.977,1.977,0,0,0,186,173.0264a1.9972,1.9972,0,0,0,.2842-.3674H208.603a1.8691,1.8691,0,0,0,1.0874.8474v15.9H184.7371Z" class="fill"/>
    <path d="M97.8711,124.9442h27.2578a2.8772,2.8772,0,0,0,1.9626-.7677,2.7643,2.7643,0,0,0,.8848-2.0212V103.9395a2.7658,2.7658,0,0,0-.884-2.0216,2.8767,2.8767,0,0,0-1.9634-.7684H97.8711a2.8779,2.8779,0,0,0-1.9629.7673,2.7649,2.7649,0,0,0-.8857,2.0227v18.2158a2.7649,2.7649,0,0,0,.8862,2.0223A2.88,2.88,0,0,0,97.8711,124.9442Zm26.1055-4H99.0222v-15.795h24.9543Z" class="fill"/>
    <path d="M226.4424,124.9442H253.7a2.8772,2.8772,0,0,0,1.9626-.7677,2.7643,2.7643,0,0,0,.8848-2.0212V103.9395a2.7658,2.7658,0,0,0-.884-2.0216,2.8767,2.8767,0,0,0-1.9634-.7684H226.4424a2.8769,2.8769,0,0,0-1.9636.7684,2.7658,2.7658,0,0,0-.884,2.0216v18.2158a2.7643,2.7643,0,0,0,.8848,2.0212A2.8774,2.8774,0,0,0,226.4424,124.9442Zm26.1055-4H227.5945v-15.795h24.9534Z" class="fill"/>
    <path d="M269.2988,124.9442h27.2578a2.8793,2.8793,0,0,0,1.9622-.7666,2.7649,2.7649,0,0,0,.8862-2.0223V103.9395a2.7649,2.7649,0,0,0-.8857-2.0227,2.8778,2.8778,0,0,0-1.9626-.7673H269.2988a2.8769,2.8769,0,0,0-1.9636.7684,2.7658,2.7658,0,0,0-.884,2.0216v18.2158a2.7643,2.7643,0,0,0,.8848,2.0212A2.8774,2.8774,0,0,0,269.2988,124.9442Zm26.1064-4H270.4509v-15.795h24.9543Z" class="fill"/>
    <path d="M235.1926,136.2615a2.7661,2.7661,0,0,0-.884,2.0217V156.498a2.7645,2.7645,0,0,0,.8853,2.0222,2.8774,2.8774,0,0,0,1.9624.7666h27.2578a2.8772,2.8772,0,0,0,1.9622-.7666,2.7645,2.7645,0,0,0,.8853-2.0222V138.2832a2.7661,2.7661,0,0,0-.884-2.0217,2.8766,2.8766,0,0,0-1.9634-.7683H237.1563A2.8768,2.8768,0,0,0,235.1926,136.2615Zm28.0691,19.0256H238.3083V139.4929h24.9534Z" class="fill"/>
    <path d="M84.2349,192.6377a2.766,2.766,0,0,0,.884-2.0215V172.4014a2.7646,2.7646,0,0,0-.8848-2.0215,2.8264,2.8264,0,0,0-.6443-.4373,1.9788,1.9788,0,0,0-1.8613-1.2834H56.0146a2.0122,2.0122,0,0,0-1.4143.5857,1.9812,1.9812,0,0,0-.3423.4795,2.8529,2.8529,0,0,0-1.2073.6555,2.7646,2.7646,0,0,0-.8848,2.0215v18.2148a2.766,2.766,0,0,0,.884,2.0215,2.8768,2.8768,0,0,0,1.9636.7683H82.2715A2.8766,2.8766,0,0,0,84.2349,192.6377ZM56.1658,173.5972a1.977,1.977,0,0,0,1.2629-.5708,1.9972,1.9972,0,0,0,.2842-.3674H80.0317a1.8691,1.8691,0,0,0,1.0874.8474v15.9H56.1658Z" class="fill"/>
    <path d="M51.5857,204.0493v-.6567a2,2,0,0,0-2-2H23.8711a2,2,0,0,0-2,2v.4392a2.8513,2.8513,0,0,0-.9617.5833,2.7647,2.7647,0,0,0-.887,2.0234v18.2158a2.7645,2.7645,0,0,0,.887,2.0232,2.8781,2.8781,0,0,0,1.9617.7656H50.1289a2.8772,2.8772,0,0,0,1.9622-.7666,2.7645,2.7645,0,0,0,.8853-2.0222V206.4385a2.7647,2.7647,0,0,0-.8853-2.0225A2.8268,2.8268,0,0,0,51.5857,204.0493Zm-25.7148,1.6v-.2573H47.5857l0,.2573a1.9662,1.9662,0,0,0,1.3906,1.894v15.9H24.0222V207.6343a1.9819,1.9819,0,0,0,1.8486-1.9849Z" class="fill"/>
    <path d="M94.4421,204.0493v-.6567a2,2,0,0,0-2-2H66.7285a2,2,0,0,0-2,2v.439a2.8492,2.8492,0,0,0-.9634.5845,2.7647,2.7647,0,0,0-.8853,2.0225v18.2158a2.7645,2.7645,0,0,0,.8853,2.0222,2.8774,2.8774,0,0,0,1.9624.7666H92.9854a2.8772,2.8772,0,0,0,1.9622-.7666,2.7645,2.7645,0,0,0,.8853-2.0222V206.4385a2.7647,2.7647,0,0,0-.8853-2.0225A2.8268,2.8268,0,0,0,94.4421,204.0493Zm-25.7139,1.6v-.2571H90.4421l0,.2571a1.9662,1.9662,0,0,0,1.3906,1.894v15.9H66.88V207.6343a1.9819,1.9819,0,0,0,1.8486-1.9849Z" class="fill"/>
    <path d="M127.0923,192.6377a2.766,2.766,0,0,0,.884-2.0215V172.4014a2.7646,2.7646,0,0,0-.8848-2.0215,2.8264,2.8264,0,0,0-.6443-.4373,1.9788,1.9788,0,0,0-1.8613-1.2834H98.8711a2.0122,2.0122,0,0,0-1.4143.5857,1.9759,1.9759,0,0,0-.3423.48,2.8562,2.8562,0,0,0-1.2058.6543,2.7648,2.7648,0,0,0-.8862,2.0225v18.2148a2.7645,2.7645,0,0,0,.8857,2.0225,2.8768,2.8768,0,0,0,1.9629.7673h27.2578A2.8766,2.8766,0,0,0,127.0923,192.6377Zm-28.07-19.0405a2.0073,2.0073,0,0,0,1.2629-.5708,1.9677,1.9677,0,0,0,.2825-.3674h22.3215a1.8691,1.8691,0,0,0,1.0874.8474v15.9H99.0222Z" class="fill"/>
    <path d="M63.7639,136.2615a2.7661,2.7661,0,0,0-.884,2.0217V156.498a2.7645,2.7645,0,0,0,.8853,2.0222,2.8774,2.8774,0,0,0,1.9624.7666H92.9854a2.8772,2.8772,0,0,0,1.9622-.7666,2.7645,2.7645,0,0,0,.8853-2.0222V138.2832a2.7661,2.7661,0,0,0-.884-2.0217,2.8766,2.8766,0,0,0-1.9634-.7683H65.7275A2.8768,2.8768,0,0,0,63.7639,136.2615ZM91.833,155.2871H66.88V139.4929H91.833Z" class="fill"/>
    <path d="M205.1426,203.6494H204.8v-.2568a2,2,0,0,0-2-2H117.0859a2,2,0,0,0-2,2v.2568h-.8008a2.8774,2.8774,0,0,0-1.9624.7666,2.7647,2.7647,0,0,0-.8853,2.0225v18.2158a2.7645,2.7645,0,0,0,.8853,2.0222,2.8774,2.8774,0,0,0,1.9624.7666h90.8574a2.8772,2.8772,0,0,0,1.9622-.7666,2.7645,2.7645,0,0,0,.8853-2.0222V206.4385a2.7647,2.7647,0,0,0-.8853-2.0225A2.8772,2.8772,0,0,0,205.1426,203.6494Zm-88.0566,4a2,2,0,0,0,2-2v-.2571H200.8l0,.2571a2,2,0,0,0,2,2h1.19v15.7942h-88.553V207.6492Z" class="fill"/>
    <path d="M20.9082,136.26a2.7647,2.7647,0,0,0-.8857,2.0227V156.498a2.7645,2.7645,0,0,0,.887,2.0232,2.8781,2.8781,0,0,0,1.9617.7656H50.1289a2.8772,2.8772,0,0,0,1.9622-.7666,2.7645,2.7645,0,0,0,.8853-2.0222V138.2832a2.7661,2.7661,0,0,0-.884-2.0217,2.8766,2.8766,0,0,0-1.9634-.7683H22.8711A2.8768,2.8768,0,0,0,20.9082,136.26Zm28.0684,19.0266H24.0222V139.4929H48.9766Z" class="fill"/>
    <path d="M55.0137,124.9442H82.2715a2.8772,2.8772,0,0,0,1.9626-.7677,2.7643,2.7643,0,0,0,.8848-2.0212V103.9395a2.7658,2.7658,0,0,0-.884-2.0216,2.8767,2.8767,0,0,0-1.9634-.7684H55.0137a2.8769,2.8769,0,0,0-1.9636.7684,2.7658,2.7658,0,0,0-.884,2.0216v18.2158a2.7643,2.7643,0,0,0,.8848,2.0212A2.8774,2.8774,0,0,0,55.0137,124.9442Zm26.1055-4H56.1658v-15.795H81.1191Z" class="fill"/>
    <path d="M22.0566,193.406H40.2275a2.8766,2.8766,0,0,0,1.9626-.7673,2.7645,2.7645,0,0,0,.8857-2.0225V172.4014a2.7648,2.7648,0,0,0-.8862-2.0225,2.8165,2.8165,0,0,0-.33-.2537,1.97,1.97,0,0,0-1.917-1.4661H22.8a2.0122,2.0122,0,0,0-1.4143.5857,1.9876,1.9876,0,0,0-.3889.5674,2.8552,2.8552,0,0,0-.9023.5667,2.7648,2.7648,0,0,0-.8862,2.0225v18.2148a2.7645,2.7645,0,0,0,.8857,2.0225A2.8768,2.8768,0,0,0,22.0566,193.406Zm16.4714-20.38a1.993,1.993,0,0,0,.5481.3787v16.0012H23.2078V173.5693a1.9469,1.9469,0,0,0,1.29-.91H38.2456A1.9805,1.9805,0,0,0,38.5281,173.0264Z" class="fill"/>
    <path d="M22.0566,124.9442H40.2275a2.8793,2.8793,0,0,0,1.9622-.7666,2.7649,2.7649,0,0,0,.8862-2.0223V103.9395a2.7649,2.7649,0,0,0-.8857-2.0227,2.8778,2.8778,0,0,0-1.9626-.7673H22.0566a2.8779,2.8779,0,0,0-1.9629.7673,2.7649,2.7649,0,0,0-.8857,2.0227v18.2158a2.7649,2.7649,0,0,0,.8862,2.0223A2.88,2.88,0,0,0,22.0566,124.9442Zm17.02-4H23.2078v-15.795H39.0762Z" class="fill"/>
  </g>
</svg>
