<svg xmlns="http://www.w3.org/2000/svg" viewBox="0 0 320 320">
  <title>_.interfaces.mouse-scroll</title>
  <g id="plus">
    <path d="M268.1926,301.0569a2,2,0,0,0,2.7578-.6294,21.9958,21.9958,0,0,0,3.7-11.7983,21.393,21.393,0,0,0-2.554-9.86c-2.8179-5.45-7.5906-10.402-13.2229-15.2308-5.075-4.34-10.8738-8.5779-16.6443-12.84a64.286,64.286,0,0,0,8.5471-6.4244,42.684,42.684,0,0,0,9.1433-11.3325,29.0992,29.0992,0,0,0,3.6072-13.8833,30.5313,30.5313,0,0,0-1.63-9.69A27.4345,27.4345,0,0,0,250.44,194.54a31.3563,31.3563,0,0,0-16.71-4.6537,31.0385,31.0385,0,0,0-18.5071,5.8252,21.817,21.817,0,0,0-6.1809,7.0991,20.1115,20.1115,0,0,0-2.3567,9.5823,26.0242,26.0242,0,0,0,1.418,8.24c2.3826,7.1083,7.6421,13.354,14.0408,19.2119,3.9441,3.6,8.3457,7.0614,12.8408,10.446-.917.4847-1.84.9537-2.77,1.3989-8.5911,4.131-17.5764,6.55-23.9265,6.9811-.9333.0642-1.9136.098-2.9319.098a52.9605,52.9605,0,0,1-14.4392-2.0795,43.3409,43.3409,0,0,1-20.9517-12.8383c-5.7048-6.5953-9.5837-15.72-9.5959-28.4708a75.3181,75.3181,0,0,1,1.3142-13.42c9.4128-.2013,16.7253-2.0527,22.3359-4.8588a32.8533,32.8533,0,0,0,10.38-8.002,32.1445,32.1445,0,0,0,6.646-12.81A27.1544,27.1544,0,0,0,202,170V100a51.6907,51.6907,0,0,0-5.2109-20.8945,37.1093,37.1093,0,0,0-12.5544-14.52C178.2666,60.6012,170.3293,57.9941,160,58c-10.33-.0059-18.2668,2.6012-24.2346,6.5858A36.0044,36.0044,0,0,0,125.4368,75.188a48.2982,48.2982,0,0,0-6.51,16.7156A46.2642,46.2642,0,0,0,118,100v70a25.7108,25.7108,0,0,0,.6726,5.1213,33,33,0,0,0,2.9015,8.0013A31.6,31.6,0,0,0,133.84,195.94c5.7285,3.3643,13.45,5.707,23.7607,6.0205a78.2282,78.2282,0,0,0-1.2312,13.4192,49.8126,49.8126,0,0,0,5.0068,22.7988,42.698,42.698,0,0,0,20.2866,19.288,56.6143,56.6143,0,0,0,23.6931,5.3016c1.1064,0,2.1775-.0365,3.2068-.1073a65.4577,65.4577,0,0,0,16.3552-3.6434,86.2249,86.2249,0,0,0,13.5959-6.0923c5.3149,3.9368,10.6316,7.7891,15.3643,11.6528a70.7982,70.7982,0,0,1,12.136,12.0133,26.4854,26.4854,0,0,1,3.4365,6.01,16.3557,16.3557,0,0,1,1.2,6.0277,17.9925,17.9925,0,0,1-3.0876,9.67A2,2,0,0,0,268.1926,301.0569ZM157,87.5h0a11.4267,11.4267,0,0,1,.57-3.2568,4.3851,4.3851,0,0,1,.99-1.6927,1.9086,1.9086,0,0,1,.5984-.3987,2.4027,2.4027,0,0,1,1.7041.0089,2.3574,2.3574,0,0,1,1.0369.9625,7.7853,7.7853,0,0,1,.95,2.8057c.0759.465.1143.8768.1331,1.1624.0093.1429.0137.2543.0159.3253l.0017.0752,0,.0129V102.5h0a11.4267,11.4267,0,0,1-.57,3.2568,4.3851,4.3851,0,0,1-.99,1.6927,1.9086,1.9086,0,0,1-.5984.3987,2.4027,2.4027,0,0,1-1.7041-.0089,2.3574,2.3574,0,0,1-1.0369-.9625,7.7853,7.7853,0,0,1-.95-2.8057c-.0759-.465-.1143-.8768-.1331-1.1624-.0093-.1429-.0137-.2543-.0159-.3253L157,102.5083l0-.0129Zm73.9651,154.615A95.3272,95.3272,0,0,1,219.03,231.0133a34.8338,34.8338,0,0,1-7.1331-11.6459,22.0286,22.0286,0,0,1-1.2129-6.975,16.0938,16.0938,0,0,1,1.8838-7.6951,19.2256,19.2256,0,0,1,8.53-7.9318,28.4463,28.4463,0,0,1,12.6311-2.88,27.3725,27.3725,0,0,1,14.575,4.036,23.4079,23.4079,0,0,1,9.7983,12.7107,25.3693,25.3693,0,0,1-3.9817,24.0377c-3.76,5.2249-9.2468,9.7817-15.3347,13.47C236.1162,246.1465,233.4814,244.1432,230.9648,242.115Z" class="fill"/>
  </g>
</svg>
