<svg xmlns="http://www.w3.org/2000/svg" viewBox="0 0 320 320">
  <title>_.interfaces.arrow-refresh-ccw</title>
  <g id="plus">
    <path d="M39.5932,172.2612c.0045.0139.012.026.0168.04.0168.0481.0392.094.06.1409a2.0063,2.0063,0,0,0,.0994.2024c.023.04.0488.0774.0748.1157a1.979,1.979,0,0,0,.1558.202c.0154.0175.026.0376.0422.0547.0123.0131.0272.0219.04.0345a1.9836,1.9836,0,0,0,.21.1812c.0274.0208.0532.0439.0814.063a1.9927,1.9927,0,0,0,.2973.1672l.0236.0127a1.9975,1.9975,0,0,0,.351.1147c.0314.0072.0633.0088.0948.0145a1.9693,1.9693,0,0,0,.2637.0327c.0486.0022.0966-.0016.1452-.0029.0534-.0015.1061.0026.16-.0033.02-.0022.0389-.0088.059-.0116.0519-.0072.1025-.0189.1539-.03a1.967,1.967,0,0,0,.2081-.0554c.0466-.0156.092-.0337.1377-.0527a1.9919,1.9919,0,0,0,.2106-.1035c.0378-.0214.0751-.0424.1118-.0664a1.9885,1.9885,0,0,0,.2265-.1748c.017-.015.0364-.0251.053-.0409l.0443-.0419.0015-.0015,45.2715-42.8151a2,2,0,1,0-2.7484-2.9061L44.0958,166.43c.12-.9832.2394-1.9677.37-2.9381C49.9768,122.489,64.512,92.74,83.8079,72.9572A100.9008,100.9008,0,0,1,157.1526,42c25.8329-.0045,52.283,9.2592,74.7976,26.6273A140.4855,140.4855,0,0,1,248.027,83.1548q4.559,4.8032,8.76,10.13a149.94,149.94,0,0,1,10.4552,15.1068,2,2,0,1,0,3.4216-2.072c-.6188-1.0216-1.2567-2.0219-1.8944-3.0223q-.9758-1.5311-1.9832-3.0255A152.244,152.244,0,0,0,256.608,86.7549C230.006,55.2959,193.14,38.0059,157.1525,38A104.9237,104.9237,0,0,0,80.9443,70.1641c-19.9138,20.4148-34.703,50.8477-40.3606,92.2129l-18.1023-55.64a2,2,0,0,0-3.8037,1.2375h0Z" class="fill"/>
    <path d="M280.9863,147.7386c-.0029-.0093-.01-.0162-.0129-.0254a1.984,1.984,0,0,0-.2531-.493c-.0226-.0325-.0469-.0615-.0713-.0924-.0377-.048-.0687-.0995-.1116-.1447a2.0128,2.0128,0,0,0-.26-.2246c-.0093-.0067-.0165-.0154-.0256-.0221a1.97,1.97,0,0,0-.4958-.254c-.0339-.0122-.0669-.0229-.1016-.0333a1.9944,1.9944,0,0,0-.5508-.0885c-.0068,0-.0128-.0032-.02-.0032h0c-.0575,0-.1121.0111-.1685.0159-.0612.0051-.1221.0066-.1826.0173a1.9583,1.9583,0,0,0-.2134.0566c-.05.0149-.1016.0248-.1509.0437a1.9846,1.9846,0,0,0-.29.1426c-.0232.0134-.0466.0255-.0695.04a1.9994,1.9994,0,0,0-.2819.2175l-.0171.0132-45.3174,42.8584a2,2,0,1,0,2.7484,2.9061L276.4832,153.57c-.12.983-.2394,1.9673-.37,2.9376q-1.1616,8.6428-2.8507,16.6162-1.0071,4.7889-2.1918,9.3419-1.6408,6.3162-3.6052,12.1849-.8276,2.4769-1.71,4.8745-.9278,2.5219-1.9144,4.9568c-7.057,17.4242-16.3224,31.5416-27.07,42.56A100.9013,100.9013,0,0,1,163.4265,278c-19.739.0033-39.8339-5.4171-58.2625-15.7167q-2.4959-1.3951-4.9486-2.9106c-1.5858-.9788-3.1627-1.981-4.7189-3.0337a143.5454,143.5454,0,0,1-42.16-44.73,2,2,0,0,0-3.4214,2.0721h0c.3353.5536.6857,1.09,1.0266,1.6378q1.1695,1.8781,2.3809,3.7086a145.5472,145.5472,0,0,0,47.22,45.2322c2.0856,1.2283,4.1987,2.3816,6.3273,3.4866.3851.2.7665.4116,1.153.6074.1917.0972.386.1853.5779.2815q2.0625,1.0327,4.1489,1.9846A121.9916,121.9916,0,0,0,163.4268,282a104.9238,104.9238,0,0,0,76.208-32.1642,126.6913,126.6913,0,0,0,20.4275-27.9814q.6837-1.2535,1.35-2.5339,3.2014-6.1593,5.9784-12.9537A183.129,183.129,0,0,0,275.644,180.72q.913-3.7284,1.7126-7.6021t1.4806-7.8931q.633-3.7357,1.1581-7.6027l18.1027,55.6412a2,2,0,1,0,3.804-1.2373Z" class="fill"/>
  </g>
</svg>
