<svg xmlns="http://www.w3.org/2000/svg" viewBox="0 0 320 320">
  <title>_.interfaces.align-right</title>
  <g id="plus">
    <path d="M50,94.3076H270a2,2,0,0,0,2-2V80a2,2,0,0,0-2-2H50a2,2,0,0,0-2,2V92.3076a2,2,0,0,0,2,2Zm218-4H52L52,82H268Z" class="fill"/>
    <path d="M270,143.5386a2,2,0,0,0,2-2V129.231a2,2,0,0,0-2-2H110a2,2,0,0,0-2,2v12.3076a2,2,0,0,0,2,2Zm-2-4H112V131.231H268Z" class="fill"/>
    <path d="M78.5857,177.0472A2.0126,2.0126,0,0,0,78,178.4614V190.769a2,2,0,0,0,2,2H270a2,2,0,0,0,2-2V178.4614a2,2,0,0,0-2-2H80A2.013,2.013,0,0,0,78.5857,177.0472ZM268,188.769H82l0-8.3076H268Z" class="fill"/>
    <path d="M270,225.6924H230a2,2,0,0,0-2,2V240a2,2,0,0,0,2,2h40a2,2,0,0,0,2-2V227.6924a2,2,0,0,0-2-2ZM268,238H232v-8.3076h36Z" class="fill"/>
  </g>
</svg>
