<svg xmlns="http://www.w3.org/2000/svg" viewBox="0 0 320 320">
  <title>_.interfaces.no-parking-sign</title>
  <g id="plus">
    <path d="M93.0314,238.1154a1.9921,1.9921,0,0,0,.7173,1.4457A103.5646,103.5646,0,0,0,255.405,200.2994l-1.842-.7789,1.842.7789A103.2852,103.2852,0,0,0,239.56,93.75a2,2,0,0,0-2.9505-.1337L93.6151,236.6107A1.9921,1.9921,0,0,0,93.0314,238.1154ZM242.5452,104.3547A99.5072,99.5072,0,0,1,98.02,237.8625L237.8516,98.0309C239.4907,100.0829,241.075,102.1779,242.5452,104.3547Z" class="fill"/>
    <path d="M74.14,217.8838a103.7727,103.7727,0,0,0,6.3006,8.3657,2,2,0,0,0,2.95.1335L226.3849,83.3893a2,2,0,0,0-.1336-2.95A103.4971,103.4971,0,0,0,56.4614,160l2,0-2,0A103.0137,103.0137,0,0,0,74.14,217.8838Zm-5.8607-96.6254A99.4111,99.4111,0,0,1,221.98,82.1374L82.1483,221.9686c-1.639-2.0518-3.2233-4.1465-4.6935-6.3234a99.7225,99.7225,0,0,1-9.1757-94.3869Z" class="fill"/>
    <path d="M47.5922,207.4917A122.03,122.03,0,0,0,159.9717,282h.0422A121.9689,121.9689,0,0,0,281.9991,160.0575h0l0-.0121,0-.0262v-.0084h0v-.0331h0A121.9707,121.9707,0,0,0,160.0192,38h-.03A121.9709,121.9709,0,0,0,38,159.9808v.03A121.6581,121.6581,0,0,0,47.5922,207.4917ZM42,159.981v0A117.9078,117.9078,0,0,1,159.9892,42h.03A117.9077,117.9077,0,0,1,278,159.9891v.03A117.9077,117.9077,0,0,1,160.0107,278h-.03A117.908,117.908,0,0,1,42,160.0108Z" class="fill"/>
  </g>
</svg>
