<svg xmlns="http://www.w3.org/2000/svg" viewBox="0 0 320 320">
  <title>_.interface.arrow-refresh-cw</title>
  <g id="plus">
    <path d="M211.1969,267.0114h0a145.1089,145.1089,0,0,1-50.2216,9.1237c-31.2448.0009-60.2452-10.6067-81.3921-29.2756-21.1444-18.68-34.4857-45.3625-34.4969-77.8639,0-25.5565,8.2908-54.761,27.7566-86.433l7.9684,56.3436a2,2,0,1,0,3.9606-.56l-8.7344-61.76c-.0031-.0214-.0115-.04-.0151-.0615-.0062-.036-.0176-.0695-.0258-.105a1.99,1.99,0,0,0-.18-.4906c-.0106-.02-.0172-.0408-.0284-.06a1.9807,1.9807,0,0,0-.3662-.4526c-.0148-.0139-.0221-.0327-.0374-.0463-.0127-.0114-.0291-.0155-.042-.0264a1.9993,1.9993,0,0,0-.4834-.3033c-.0321-.014-.0642-.0237-.0969-.036a1.9751,1.9751,0,0,0-.54-.1279c-.01-.0009-.0194-.004-.0293-.0048a2.0065,2.0065,0,0,0-.4153.0145c-.0519.0073-.099.0255-.1493.0367-.0419.0092-.082.0183-.1235.03a1.9781,1.9781,0,0,0-.5234.2328c-.0081.0052-.0176.006-.0255.0114L16.5358,112.4421a2,2,0,0,0,2.2039,3.3384L67.5752,83.5416c-18.4521,31.0035-26.4888,59.8666-26.4889,85.4537-.0112,33.6149,13.897,61.5021,35.85,80.8627,21.95,19.3717,51.894,30.2758,84.0392,30.2767a149.1072,149.1072,0,0,0,51.6062-9.3707,2,2,0,0,0-1.3845-3.7527Z" class="fill"/>
    <path d="M300.6814,204.22h0l-48.837,32.24c18.4524-31.0042,26.489-59.8674,26.4891-85.4548.0112-33.615-13.8971-61.5023-35.85-80.8629C220.5333,50.77,190.59,39.8656,158.4446,39.8646a149.0941,149.0941,0,0,0-51.6057,9.3713,2,2,0,1,0,1.3848,3.7527,145.0974,145.0974,0,0,1,50.2209-9.1241c31.2445-.001,60.245,10.6066,81.392,29.2756,21.1443,18.68,34.4856,45.3624,34.4969,77.864,0,25.5564-8.2905,54.76-27.7556,86.4326l-7.9687-56.3429a2,2,0,0,0-3.9606.56l8.7349,61.76c.0084.06.0289.1151.0426.1731.01.0444.0188.0881.0322.1313a1.9776,1.9776,0,0,0,.489.818c.0291.0294.06.0555.0911.0831a2,2,0,0,0,.3176.2317c.0216.0127.0378.0319.06.0438.0094.005.02.0061.0294.011a1.9876,1.9876,0,0,0,.4535.1693c.0305.0072.0613.009.092.0149a1.9724,1.9724,0,0,0,.3906.0344c.0465,0,.0916-.0018.1379-.0055.0416-.0033.0823.0009.1243-.005a1.9685,1.9685,0,0,0,.262-.0645c.0309-.0085.062-.0125.0925-.0227a1.97,1.97,0,0,0,.4382-.21c.0093-.0059.02-.0079.0291-.0139l56.4194-37.2451a2,2,0,0,0-2.2036-3.3381Z" class="fill"/>
  </g>
</svg>
