<svg xmlns="http://www.w3.org/2000/svg" viewBox="0 0 320 320">
  <title>_.interface.cross-circled-outline</title>
  <g id="plus">
    <path d="M118.5858,203.84a2,2,0,0,0,2.8284,0l41.0123-41.0121L203.4388,203.84a2,2,0,1,0,2.8284-2.8284L165.2549,160l41.0123-41.012a2,2,0,1,0-2.8284-2.8284l-41.0123,41.0121-41.0123-41.0121a2,2,0,1,0-2.8284,2.8284L159.5981,160,118.5858,201.012A2,2,0,0,0,118.5858,203.84Z" class="fill"/>
    <path d="M160,282A122,122,0,1,0,38,160,122,122,0,0,0,160,282ZM76.5613,76.5613A118.0005,118.0005,0,1,1,42,160,117.6215,117.6215,0,0,1,76.5613,76.5613Z" class="fill"/>
  </g>
</svg>
