<svg xmlns="http://www.w3.org/2000/svg" viewBox="0 0 320 320">
  <title>_.interface.mouse-buttons</title>
  <g id="plus">
    <path d="M269.6626,301.5547a2,2,0,0,0,2.813-.2964,11.5119,11.5119,0,0,0,1.3167-2.182,12.2681,12.2681,0,0,0-1.5654-13.2367c-2.07-2.679-5.38-5.2736-10.4585-7.6511-10.4424-4.8829-22.8184-12.318-32.4646-20.9016-.2881-.2561-.5652-.5164-.8484-.7744a68.7915,68.7915,0,0,0,13.1628-4.4139,46.3314,46.3314,0,0,0,13.02-8.681,31.7977,31.7977,0,0,0,8.18-12.785,23.1787,23.1787,0,0,0,1.2266-7.3508,21.987,21.987,0,0,0-2.6284-10.3732,28.4924,28.4924,0,0,0-11.2073-11.1719,31.8,31.8,0,0,0-15.5-4.1919,25.4975,25.4975,0,0,0-9.6,1.81,23.3679,23.3679,0,0,0-11.6062,10.3461c-2.8967,5.0819-4.5825,11.7858-4.5823,20.2992.0024,5.49,1.97,10.849,5.1367,15.9156a57.5081,57.5081,0,0,0,6.1543,8.02,82.8054,82.8054,0,0,1-10.865.7306,70.162,70.162,0,0,1-15.5979-1.6586,35.9915,35.9915,0,0,1-11.7187-4.6715c-8.7166-5.8165-13.8447-12.4067-16.8489-18.8049a41.57,41.57,0,0,1-3.8608-17.691,43.7321,43.7321,0,0,1,.7642-8.1823c.1316-.6836.2612-1.2562.3755-1.7208a52.3,52.3,0,0,0,19.355-5.1479,37.1076,37.1076,0,0,0,14.52-12.5544c3.9846-5.9677,6.5916-13.9049,6.5857-24.2344V100c.0059-10.33-2.6011-18.2668-6.5857-24.2345a34.9448,34.9448,0,0,0-5.1387-6.0662,34.9252,34.9252,0,0,0-6.041-5.1135c-5.9167-3.9506-13.7725-6.5433-23.9731-6.5818-.1523-.0033-.2471-.0039-.2612-.004-10.33-.0059-18.2668,2.6012-24.2346,6.5858a34.936,34.936,0,0,0-6.0659,5.1383,34.92,34.92,0,0,0-5.1138,6.0414c-3.95,5.9159-6.5427,13.7709-6.5818,23.97-.0034.1545-.0039.25-.0039.2646v3.75q0,11.25,0,56.25c-.0059,10.3293,2.6011,18.2667,6.5857,24.2344a36.0066,36.0066,0,0,0,10.6023,10.3287,48.2973,48.2973,0,0,0,16.7156,6.51,52.9608,52.9608,0,0,0,5.5476.7886,47.015,47.015,0,0,0-1.0513,9.9784,45.571,45.571,0,0,0,4.2388,19.3888c3.2959,7.0417,8.9678,14.2516,18.2517,20.4354a39.8706,39.8706,0,0,0,13.0374,5.2406,74.1107,74.1107,0,0,0,16.4983,1.7611,86.8743,86.8743,0,0,0,14.2908-1.19A107.3373,107.3373,0,0,0,234.6,266.7037a153.4012,153.4012,0,0,0,25.4731,15.1077c4.6772,2.1874,7.4309,4.4508,8.9866,6.4714a8.6066,8.6066,0,0,1,1.99,5.3644,8.7578,8.7578,0,0,1-.8716,3.7162,9.0675,9.0675,0,0,1-.5974,1.0719c-.0784.12-.1409.2076-.1794.26l-.0383.0513-.0039.0048.001.0007A1.9993,1.9993,0,0,0,269.6626,301.5547ZM127.9363,80.4481a35.0378,35.0378,0,0,1,5.6-7.9723,33.7859,33.7859,0,0,1,4.7358-3.6744,44.3455,44.3455,0,0,1,15.3206-5.9487,48.7775,48.7775,0,0,1,5.3286-.7469v45.8588a90.6082,90.6082,0,0,1-24.8677-4.8619c-3.6868-1.2289-6.762-2.459-8.9072-3.3784-.9006-.386-1.626-.7124-2.1755-.9657A48.3478,48.3478,0,0,1,127.9363,80.4481Zm34.9844-18.3429a48.2635,48.2635,0,0,1,17.552,4.91,35.0444,35.0444,0,0,1,7.9719,5.5992,33.7928,33.7928,0,0,1,3.6748,4.7363,44.3446,44.3446,0,0,1,5.9487,15.3206,48.8125,48.8125,0,0,1,.748,5.3409c.0227.2771.04.5229.0535.7468a111.7484,111.7484,0,0,1-11.78,4.5736,89.8353,89.8353,0,0,1-24.1694,4.6093ZM141.3689,192.9845a32.8908,32.8908,0,0,1-12.6982-11.2179c-3.4248-5.2548-5.7444-12.2473-5.75-21.7666V103.1191c2.241.979,5.6633,2.3765,9.8677,3.7782,7.6284,2.5391,17.8005,5.098,28.1326,5.1025,10.3315-.0045,20.5039-2.5635,28.1323-5.1025,4.2041-1.4017,7.6267-2.7992,9.8677-3.7782,0,35.8311,0,17.9666,0,56.8809-.0059,9.67-2.3989,16.733-5.9143,22.0155a31.9978,31.9978,0,0,1-9.4368,9.183,44.3455,44.3455,0,0,1-15.3206,5.9487,48.8457,48.8457,0,0,1-5.3411.7482c-.6484.053-1.157.0792-1.4976.092-.17.0065-.2986.01-.3813.0111l-.09.0012-.0186,0h-.0132A47.93,47.93,0,0,1,141.3689,192.9845Zm76.0806,50.8108c-2.8975-4.6339-4.5312-9.2852-4.5288-13.7953a42.9168,42.9168,0,0,1,1.9063-13.4185c1.81-5.476,4.7009-9.1685,8.1479-11.559a20.4162,20.4162,0,0,1,11.7346-3.478,28.1082,28.1082,0,0,1,17.4031,6.3251,22.9891,22.9891,0,0,1,5.7712,6.9154,17.9837,17.9837,0,0,1,2.1611,8.4966,19.1791,19.1791,0,0,1-1.0215,6.0861,27.7931,27.7931,0,0,1-7.1738,11.1816c-4.897,4.7661-11.6128,8.3206-19.0764,10.6563a72.4326,72.4326,0,0,1-7.7944,1.9509A56.6636,56.6636,0,0,1,217.4495,243.7953Z" class="fill"/>
  </g>
</svg>
