<svg xmlns="http://www.w3.org/2000/svg" viewBox="0 0 320 320">
  <title>_.interface.arrow-up-circled</title>
  <g id="plus">
    <path d="M231.4142,158.5857l-70-70a1.9716,1.9716,0,0,0-.4276-.3162c-.0367-.021-.073-.04-.1108-.0583a1.989,1.989,0,0,0-.4736-.1687l-.0149-.0044a2.01,2.01,0,0,0-.5134-.0261c-.0422.0027-.0829.0068-.1251.012a1.9885,1.9885,0,0,0-.51.1272l-.0037.001-.0138.0083a1.9808,1.9808,0,0,0-.4335.2607c-.0366.0281-.0715.0559-.106.0867-.0311.0273-.0657.0481-.0955.0779l-70,70a2,2,0,0,0,2.8284,2.8284L158,94.8281V250a2,2,0,0,0,4,0V94.8281l66.5858,66.5859a2,2,0,0,0,2.8285-2.8281Z" class="fill"/>
    <path d="M160,38a122,122,0,1,0,86.2672,35.7332A121.6258,121.6258,0,0,0,160,38ZM278,160a118.0005,118.0005,0,1,1-34.5613-83.4385A117.6215,117.6215,0,0,1,278,160Z" class="fill"/>
  </g>
</svg>
