<svg xmlns="http://www.w3.org/2000/svg" viewBox="0 0 320 320">
  <title>_.interface.share</title>
  <g id="plus">
    <path d="M80,202a41.8761,41.8761,0,0,0,31.0183-13.7118l86.9684,44.7969a41.966,41.966,0,1,0,16.2469-25.0708c-1.0044.7349-1.943,1.517-2.8535,2.3171L121.7634,164.17A41.169,41.169,0,0,0,122,160a41.9382,41.9382,0,0,0-.8536-8.3369l87.4912-43.7458A41.9868,41.9868,0,1,0,198,80c0,1.2446.0774,2.464.1858,3.6711l-90.155,45.0773A41.992,41.992,0,1,0,80,202Zm136.5953,9.2427a37.9927,37.9927,0,1,1-15.57,30.7043,38.2308,38.2308,0,0,1,1.1848-9.44,2.0033,2.0033,0,0,0-1.0222-2.2721l-87.561-45.1023a41.32,41.32,0,0,0,7.521-16.7793l89.6156,46.16a1.999,1.999,0,0,0,2.2817-.317A38.36,38.36,0,0,1,216.5953,211.2426ZM213.13,53.13a37.9994,37.9994,0,1,1-2.4587,51.0339l0,0a37.8236,37.8236,0,0,1-8.3821-19.5548A38.361,38.361,0,0,1,202,80,37.8727,37.8727,0,0,1,213.13,53.13Zm-160,80a37.9807,37.9807,0,0,1,53.1791-.5345,2.001,2.001,0,0,0,2.28.3463L198.755,87.8588a41.3472,41.3472,0,0,0,7.3112,16.8719l-88.09,44.0453a2.0026,2.0026,0,0,0-1.0494,2.259,37.6981,37.6981,0,0,1,.7277,14.0255h0A37.9965,37.9965,0,1,1,53.13,133.13Z" class="fill"/>
  </g>
</svg>
