<svg xmlns="http://www.w3.org/2000/svg" viewBox="0 0 320 320">
  <title>_.interfaces.hamburger-menu</title>
  <g id="plus">
    <path d="M50.1946,169.962a14.19,14.19,0,0,0,3.652,4.4219,14.9355,14.9355,0,0,0,5.7939,2.8108,13.1361,13.1361,0,0,0,2.8892.4038H237.9463a12.496,12.496,0,0,0,2.3641-.2854,14.7586,14.7586,0,0,0,7.6411-4.1348,14.975,14.975,0,0,0,3.2435-5.2513A22.685,22.685,0,0,0,252.476,160a20.8241,20.8241,0,0,0-2.1946-9.9622,14.1894,14.1894,0,0,0-3.652-4.4219,14.9359,14.9359,0,0,0-5.7939-2.8108,13.1282,13.1282,0,0,0-2.8892-.4038H62.53a12.495,12.495,0,0,0-2.3641.2854,14.7588,14.7588,0,0,0-7.6412,4.1348,14.9758,14.9758,0,0,0-3.2435,5.2513A22.6852,22.6852,0,0,0,48,160,20.8247,20.8247,0,0,0,50.1946,169.962Zm3.5262-18.0359a10.1735,10.1735,0,0,1,2.6251-3.1871,11.27,11.27,0,0,1,5.7128-2.3046c.1741-.0178.3064-.0261.3879-.03l.0831-.0031v0H237.9356s.1667.0016.4672.0317a11.2121,11.2121,0,0,1,5.8323,2.3914,10.4051,10.4051,0,0,1,2.9182,3.92A17.8413,17.8413,0,0,1,248.4761,160a16.862,16.862,0,0,1-1.7209,8.0737,10.1727,10.1727,0,0,1-2.6251,3.1871,11.27,11.27,0,0,1-5.7128,2.3046c-.174.0178-.3064.0261-.3879.03l-.0831.0031v0H62.54s-.1667-.0016-.4673-.0317a11.2123,11.2123,0,0,1-5.8323-2.3914,10.4057,10.4057,0,0,1-2.9182-3.92A17.8412,17.8412,0,0,1,52,160,16.8616,16.8616,0,0,1,53.7209,151.9261Z" class="fill"/>
    <path d="M50.1946,234.3634a14.19,14.19,0,0,0,3.652,4.4219,14.9355,14.9355,0,0,0,5.7939,2.8108A13.1361,13.1361,0,0,0,62.53,242H237.9463a12.496,12.496,0,0,0,2.3641-.2854,14.7586,14.7586,0,0,0,7.6411-4.1348,14.975,14.975,0,0,0,3.2435-5.2513,22.685,22.685,0,0,0,1.281-7.927,20.8262,20.8262,0,0,0-2.1946-9.9626,14.189,14.189,0,0,0-3.6519-4.4221,14.9349,14.9349,0,0,0-5.794-2.811,13.1278,13.1278,0,0,0-2.8892-.4038H62.53a12.4959,12.4959,0,0,0-2.3641.2854,14.7582,14.7582,0,0,0-7.6412,4.1351,14.9764,14.9764,0,0,0-3.2435,5.2515A22.69,22.69,0,0,0,48,224.4014,20.8247,20.8247,0,0,0,50.1946,234.3634Zm3.5262-18.0365a10.1748,10.1748,0,0,1,2.6252-3.1874,11.27,11.27,0,0,1,5.7128-2.3047c.174-.0178.3063-.0261.3879-.03l.0831-.0031v0H237.9356s.1667.0016.4672.0317a11.2113,11.2113,0,0,1,5.8322,2.3915,10.4057,10.4057,0,0,1,2.9182,3.92,17.8435,17.8435,0,0,1,1.3228,7.2563,16.862,16.862,0,0,1-1.7209,8.0737,10.1727,10.1727,0,0,1-2.6251,3.1871,11.27,11.27,0,0,1-5.7128,2.3046c-.174.0178-.3064.0261-.3879.03l-.0831.0031v0H62.54s-.1667-.0016-.4673-.0317a11.2123,11.2123,0,0,1-5.8323-2.3914,10.4057,10.4057,0,0,1-2.9182-3.92A17.8412,17.8412,0,0,1,52,224.4014,16.8643,16.8643,0,0,1,53.7209,216.3269Z" class="fill"/>
    <path d="M53.8466,109.9833a14.9351,14.9351,0,0,0,5.7939,2.811,13.1368,13.1368,0,0,0,2.8892.4038H237.9463a12.496,12.496,0,0,0,2.3641-.2854,14.7578,14.7578,0,0,0,7.6412-4.1351,14.9764,14.9764,0,0,0,3.2435-5.2515,22.6884,22.6884,0,0,0,1.281-7.9275,20.8241,20.8241,0,0,0-2.1946-9.9622,14.1894,14.1894,0,0,0-3.652-4.4219,14.9359,14.9359,0,0,0-5.7939-2.8108A13.1282,13.1282,0,0,0,237.9463,78H62.53a12.495,12.495,0,0,0-2.3641.2854A14.7588,14.7588,0,0,0,52.5245,82.42a14.9758,14.9758,0,0,0-3.2435,5.2513A22.6852,22.6852,0,0,0,48,95.5986a20.8268,20.8268,0,0,0,2.1946,9.9625A14.1883,14.1883,0,0,0,53.8466,109.9833Zm-.1257-22.4585a10.1735,10.1735,0,0,1,2.6251-3.1871,11.27,11.27,0,0,1,5.7128-2.3046c.1741-.0178.3064-.0261.3879-.03L62.53,82v0H237.9356s.1667.0016.4672.0317a11.2121,11.2121,0,0,1,5.8323,2.3914,10.4051,10.4051,0,0,1,2.9182,3.92,17.8413,17.8413,0,0,1,1.3228,7.2559,16.864,16.864,0,0,1-1.7209,8.0743A10.174,10.174,0,0,1,244.13,106.86a11.2693,11.2693,0,0,1-5.7127,2.3047c-.174.0178-.3064.0261-.3879.03l-.083.0031v0H62.54s-.1667-.0016-.4672-.0317a11.2117,11.2117,0,0,1-5.8323-2.3915,10.4057,10.4057,0,0,1-2.9182-3.92A17.8422,17.8422,0,0,1,52,95.5986,16.8616,16.8616,0,0,1,53.7209,87.5248Z" class="fill"/>
  </g>
</svg>
