<svg xmlns="http://www.w3.org/2000/svg" viewBox="0 0 320 320">
  <title>_.interfaces.keyboard-outline</title>
  <g id="plus">
    <path d="M8,242H312V88H8Zm289.2861-34.6155v19.0776h-17.429V207.3843ZM22.7137,122.6151V103.538H40.1426v19.0771Zm274.5721,15.5387V157.23H279.8572V138.1538Zm0,34.6155v19.0764H269.1423V172.7693Zm-32.1436,34.6152v19.0774H226.2859V207.3845Zm-38.8569-84.7694V103.538h28.1431v19.0771Zm0,69.2306V172.7693h28.1431v19.0764ZM237,157.23V138.1541h28.1426V157.23Zm-14.7136-19.0764V157.23H194.1423V138.1541Zm-10.7148,34.6152v19.0764H183.4282V172.7693Zm0,34.615v19.0776H108.4286V207.3843Zm-117.8574,0v19.0774l-28.1427,0V207.3843Zm-71-15.5388V172.7693h17.429v19.0762Zm0-34.615V138.1541H50.8574V157.23Zm32.1436-34.6154V103.538H83v19.0771Zm0,50.1542H83v19.0764H54.8572ZM65.5712,157.23V138.1541H93.7137V157.23Zm32.1426-34.6152V103.538h28.1437v19.0774Zm42.8571,0V103.538h28.1431v19.0771Zm0,69.2306V172.7693h28.1428v19.0764Zm-4-34.6152H108.4286V138.1541H136.571ZM97.7136,172.7693h28.1438v19.0764H97.7136ZM151.2859,157.23V138.1541h28.1428V157.23Zm32.1423-34.6154V103.538h28.1431v19.0771ZM50.8573,207.3845v19.0774H22.7137V207.3845ZM297.2861,103.538v19.0774h-28.144V103.538Z" class="fill"/>
  </g>
</svg>
