<svg xmlns="http://www.w3.org/2000/svg" viewBox="0 0 320 320">
  <title>_.interfaces.keyboard-filled</title>
  <g id="plus">
    <path d="M302.0156,85.542H17.9844a5.7152,5.7152,0,0,0-4.1169,1.7594,5.982,5.982,0,0,0-1.67,4.1625V238.5361a5.9821,5.9821,0,0,0,1.67,4.1624,5.7146,5.7146,0,0,0,4.1169,1.7593H302.0156a5.7145,5.7145,0,0,0,4.1167-1.7593,5.9821,5.9821,0,0,0,1.67-4.1624V91.4639a5.982,5.982,0,0,0-1.67-4.1625A5.715,5.715,0,0,0,302.0156,85.542Zm-5.7874,11.8436V232.614l-272.457,0V97.3857Z" class="fill"/>
    <polygon points="138.473 170.258 138.473 193.286 140.473 193.286 171.763 193.286 171.763 168.258 169.764 168.258 138.473 168.258 138.473 170.258" class="fill"/>
    <polygon points="109.183 161.742 111.183 161.742 142.472 161.742 142.472 159.742 142.472 136.714 109.183 136.714 109.183 161.742" class="fill"/>
    <polygon points="93.655 105.17 91.655 105.17 60.364 105.17 60.364 107.17 60.364 130.199 93.655 130.199 93.655 105.17" class="fill"/>
    <polygon points="70.128 136.714 70.128 161.742 72.128 161.742 103.419 161.742 103.419 136.714 101.419 136.714 70.128 136.714" class="fill"/>
    <polygon points="54.6 105.17 52.601 105.17 31.073 105.17 31.073 107.17 31.073 130.199 54.6 130.199 54.6 105.17" class="fill"/>
    <polygon points="171.763 105.17 169.764 105.17 138.473 105.17 138.473 107.17 138.473 130.199 171.763 130.199 171.763 105.17" class="fill"/>
    <polygon points="249.872 105.17 247.872 105.17 216.581 105.17 216.581 107.17 216.581 130.199 249.872 130.199 249.872 105.17" class="fill"/>
    <polygon points="216.581 193.286 218.581 193.286 249.872 193.286 249.872 168.258 247.872 168.258 216.581 168.258 216.581 193.286" class="fill"/>
    <polygon points="259.635 136.714 257.636 136.714 226.345 136.714 226.345 161.742 228.345 161.742 259.635 161.742 259.635 136.714" class="fill"/>
    <polygon points="187.291 161.742 189.291 161.742 220.581 161.742 220.581 159.742 220.581 136.714 187.291 136.714 187.291 161.742" class="fill"/>
    <polygon points="181.527 136.714 179.527 136.714 148.236 136.714 148.236 161.742 150.236 161.742 181.527 161.742 181.527 136.714" class="fill"/>
    <polygon points="210.817 105.17 208.817 105.17 177.527 105.17 177.527 107.17 177.527 130.199 210.817 130.199 210.817 105.17" class="fill"/>
    <polygon points="132.709 105.17 130.709 105.17 99.419 105.17 99.419 107.17 99.419 130.199 132.709 130.199 132.709 105.17" class="fill"/>
    <polygon points="265.399 224.83 267.399 224.83 288.927 224.83 288.927 222.83 288.927 199.801 265.399 199.801 265.399 224.83" class="fill"/>
    <polygon points="216.581 224.83 218.581 224.83 259.635 224.83 259.635 222.83 259.635 199.801 216.581 199.801 216.581 224.83" class="fill"/>
    <polygon points="255.636 193.286 257.636 193.286 288.927 193.286 288.927 191.286 288.927 168.258 255.636 168.258 255.636 193.286" class="fill"/>
    <polygon points="288.927 130.199 288.927 128.199 288.927 105.17 255.636 105.17 255.636 130.199 257.636 130.199 288.927 130.199" class="fill"/>
    <polygon points="265.399 161.742 267.399 161.742 288.927 161.742 288.927 159.742 288.927 136.714 265.399 136.714 265.399 161.742" class="fill"/>
    <polygon points="177.527 193.286 179.527 193.286 210.817 193.286 210.817 191.286 210.817 168.258 177.527 168.258 177.527 193.286" class="fill"/>
    <polygon points="64.364 224.83 64.364 222.83 64.364 199.801 31.073 199.801 31.073 224.83 33.073 224.83 64.364 224.83" class="fill"/>
    <polygon points="109.183 224.83 111.183 224.83 210.817 224.83 210.817 222.83 210.817 199.801 109.183 199.801 109.183 224.83" class="fill"/>
    <polygon points="54.6 168.258 52.601 168.258 31.073 168.258 31.073 170.258 31.073 193.286 54.6 193.286 54.6 168.258" class="fill"/>
    <polygon points="60.364 170.258 60.364 193.286 93.655 193.286 93.655 168.258 91.655 168.258 60.364 168.258 60.364 170.258" class="fill"/>
    <polygon points="64.364 136.714 62.364 136.714 31.073 136.714 31.073 138.714 31.073 161.742 64.364 161.742 64.364 136.714" class="fill"/>
    <polygon points="99.419 170.258 99.419 193.286 132.709 193.286 132.709 168.258 130.709 168.258 99.419 168.258 99.419 170.258" class="fill"/>
    <polygon points="70.128 224.83 72.128 224.83 103.419 224.83 103.419 222.83 103.419 199.801 70.128 199.801 70.128 224.83" class="fill"/>
  </g>
</svg>
