<svg xmlns="http://www.w3.org/2000/svg" viewBox="0 0 320 320">
  <title>_.interfaces.align-center</title>
  <g id="plus">
    <path d="M50,94.3076H270a2,2,0,0,0,2-2V80a2,2,0,0,0-2-2H50a2,2,0,0,0-2,2V92.3076a2,2,0,0,0,2,2Zm218-4H52L52,82H268Z" class="fill"/>
    <path d="M240,143.5386a2,2,0,0,0,2-2V129.231a2,2,0,0,0-2-2H80a2,2,0,0,0-2,2v12.3076a2,2,0,0,0,2,2Zm-2-4H82l0-8.3076H238Z" class="fill"/>
    <path d="M63.5857,177.0472A2.0126,2.0126,0,0,0,63,178.4614V190.769a2,2,0,0,0,2,2H255a2,2,0,0,0,2-2V178.4614a2,2,0,0,0-2-2H65A2.013,2.013,0,0,0,63.5857,177.0472ZM253,188.769H67l0-8.3076H253Z" class="fill"/>
    <path d="M140,225.6924a2,2,0,0,0-2,2V240a2,2,0,0,0,2,2h40a2,2,0,0,0,2-2V227.6924a2,2,0,0,0-2-2ZM178,238H142l0-8.3076h36Z" class="fill"/>
  </g>
</svg>
