<svg xmlns="http://www.w3.org/2000/svg" viewBox="0 0 320 320">
  <title>_.interfaces.checkmark-filled</title>
  <g id="plus">
    <path d="M49.6044,179.5939l5.7876-7.7168a8.3444,8.3444,0,0,1,11.6848-1.6692l44.2275,33.17a12.3453,12.3453,0,0,0,17.0081-2.1139l-1.5551-1.2576,1.5552,1.2575L231.4414,73.7256,229.87,72.47A111.9966,111.9966,0,0,0,48,160a112.94,112.94,0,0,0,.9652,14.73Z" class="fill"/>
    <path d="M124.9661,244.0435a8.3,8.3,0,0,1-5.0009-1.67L52.3317,191.649l2.2626,6.2851A112.04,112.04,0,0,0,160,272h.144A112.8428,112.8428,0,0,0,271.999,159.9283q0-1.1988-.0259-2.402A111.4607,111.4607,0,0,0,251.1609,94.924l-1.54-2.1533-1.65,2.07-116.4722,146.06A8.3284,8.3284,0,0,1,124.9661,244.0435Z" class="fill"/>
  </g>
</svg>
