<svg xmlns="http://www.w3.org/2000/svg" viewBox="0 0 320 320">
  <title>_.interface.hourglass</title>
  <g id="plus">
    <polygon points="228.623 42.432 228.629 42.433 228.629 42.433 228.623 42.432" class="fill"/>
    <polygon points="84.525 76.21 84.525 76.206 84.525 76.205 84.525 76.21" class="fill"/>
    <polygon points="85.02 240.416 85.021 240.416 85.021 240.412 85.02 240.416" class="fill"/>
    <polygon points="230.371 42.795 230.372 42.795 230.378 42.797 230.371 42.795" class="fill"/>
    <polygon points="241.279 46.644 241.282 46.647 241.282 46.647 241.279 46.644" class="fill"/>
    <polygon points="232.5 43.288 232.505 43.29 232.506 43.29 232.5 43.288" class="fill"/>
    <polygon points="225.174 278.202 225.17 278.202 225.169 278.202 225.174 278.202" class="fill"/>
    <polygon points="93.434 277.958 93.432 277.958 93.426 277.956 93.434 277.958" class="fill"/>
    <polygon points="87.499 276.711 87.498 276.711 87.494 276.71 87.499 276.711" class="fill"/>
    <path d="M114.5758,280.5066c.4067.0321.818.0645,1.2408.0966h.0028c.4375.0326.8837.0645,1.328.0962.4259.0308.8561.0613,1.2964.0909l-.0031,0c.46.0316.9283.0616,1.3932.0914.4426.0287.8884.0576,1.3473.0858.4847.03.9763.0575,1.4628.0862l.0039,0c.4609.0262.9225.0532,1.4.0793.5012.0276,1.0135.0536,1.52.0795.4854.0248.9708.05,1.4736.0746.52.0251,1.0508.0486,1.5745.0725.5112.0228,1.02.0464,1.5479.0686.55.0232,1.1123.0447,1.6672.0667.5161.02,1.0308.041,1.5654.06.5835.0211,1.18.04,1.7671.06.5376.0176,1.071.0361,1.6235.0535.6125.0182,1.2371.0349,1.8538.0519.5449.0151,1.0867.0313,1.6511.0455.6616.0164,1.3381.0305,2.0068.0452.5449.0126,1.0859.0253,1.6482.0366.7017.0138,1.4194.025,2.1282.0367.552.01,1.1.02,1.6707.0284.7415.0107,1.501.0187,2.2493.0273.5608.0068,1.1145.0146,1.6941.02.8806.0083,1.7827.0137,2.6794.02.4619.0029.9158.0073,1.3933.01q2.0834.01,4.238.01,2.1566,0,4.2366-.01c.4189-.0024.8137-.0063,1.2148-.0088.9648-.0059,1.9319-.0117,2.8767-.0205.4963-.005.968-.0118,1.446-.0172.8315-.01,1.6692-.0186,2.4871-.03.5469-.0079,1.07-.0182,1.5969-.027.7317-.0122,1.4719-.0239,2.1938-.0382.5591-.0109,1.0955-.024,1.6362-.0363.67-.0145,1.35-.0288,2.0154-.0455.5442-.0138,1.0674-.0289,1.5947-.0436.6431-.0179,1.2937-.0352,1.93-.0543.5227-.0164,1.0239-.0339,1.5276-.05.6167-.0205,1.24-.0406,1.85-.0627.5081-.0188.9976-.0383,1.489-.0574.59-.0234,1.1831-.0459,1.7651-.0706.4834-.02.95-.0419,1.4189-.0634.5669-.0253,1.14-.0508,1.7014-.0779.4717-.0227.926-.0468,1.3809-.07.5332-.0269,1.0725-.0543,1.6-.0834.4636-.0251.9111-.0518,1.3584-.0775.502-.0287,1.0088-.0576,1.5059-.0884.4363-.0265.8613-.0541,1.2859-.0813.4924-.0317.9868-.0637,1.4722-.0967.4114-.0282.8115-.0566,1.2107-.085.4717-.0338.9414-.0676,1.4028-.1021.4019-.03.7935-.0607,1.1838-.0916.4429-.0347.8845-.07,1.3181-.1053.3872-.0317.7634-.0642,1.1345-.0958l.0029,0c.4214-.0366.8416-.0729,1.2578-.11.3677-.033.7266-.0664,1.0823-.1q.6039-.0566,1.1951-.114c.3494-.0341.6926-.0686,1.0332-.1035l-.0027,0c.3835-.0388.7651-.0782,1.14-.1183l-.0044,0c.3423-.0359.6763-.0724,1.0046-.1088.3511-.0387.7-.0775,1.0439-.1172q.4977-.0568.9817-.1145c.3289-.0394.6526-.0782.9734-.1179.3191-.04.63-.079.9373-.1183.312-.04.6191-.08.9233-.1206.2974-.0394.5967-.0795.8926-.12q.4376-.06.8555-.12.438-.0624.8618-.1245l.0029,0c.27-.04.5344-.08.7957-.12.2766-.0425.5518-.085.8228-.1277.252-.04.4961-.0795.7371-.1187l.0044-.0007c.2622-.0433.5291-.0867.7959-.132.229-.0386.4475-.0767.6592-.1135l.0037-.0006c.261-.0458.5237-.0917.7827-.1383.2048-.0371.4-.0734.5913-.109l-.0029,0c.2581-.0476.5142-.0958.7634-.1434l.0042-.0007c.1833-.0355.3582-.07.53-.1042.2468-.049.4958-.0983.7432-.1493l-.0051.001c.1614-.0328.3154-.0653.4673-.0975l-.0037.0007c.2412-.0508.4875-.1027.73-.1559.1331-.0293.2612-.0579.39-.0867.2415-.054.4829-.1086.7173-.1627l.0051-.0012c.115-.0269.2168-.0516.3115-.0741.2407-.057.4824-.1149.7166-.1725l.0137-.0033.2334-.0591-.0039.0009c.2429-.0609.4868-.1228.7249-.1858l.0059-.0015.1406-.0376-.0027.0006c.249-.0662.4946-.1327.73-.1984l.0232-.0062c.2312-.0649.4658-.1311.6956-.1991,4.5352-1.342,5.8721-2.4067,6.218-2.7137a2.011,2.011,0,0,0,.647-1.473V247.2729a2,2,0,0,0-2-2h-4.3472c-.0425-.35-.0769-.6852-.1223-1.0406-.0171-.1329-.0339-.2771-.0562-.4424l.0007.0048q-.1912-1.4557-.4331-2.9879c-.022-.14-.0435-.27-.0623-.39l-.0015-.0094c-.5415-3.3635-1.2791-6.9939-2.2832-10.7893l-.0007-.0024-.0225-.0845a99.2414,99.2414,0,0,0-4.0144-12.0179l-.0032-.0072a109.2237,109.2237,0,0,0-18.42-33.406,74.6535,74.6535,0,0,0-26.4275-20.8542c-.5344-.5365-1.0215-1.0262-1.4678-1.4756l-.5168-2.9592-.0364-.0243q.873-.88,2.021-2.033a74.6567,74.6567,0,0,0,26.4285-20.8547,109.2675,109.2675,0,0,0,18.45-33.4888,99.1281,99.1281,0,0,0,3.9883-11.9495l.0034-.0127.0186-.0718-.0029.0112c1.0061-3.8009,1.7446-7.4363,2.2864-10.8041l-.0007.0038q.0308-.1877.0625-.389c.1611-1.0233.3074-2.0269.4351-3.0039l-.0015.01c.0215-.1586.0376-.2948.0535-.4164l0-.0033c.0461-.3612.0813-.7023.1243-1.0579H240a2,2,0,0,0,2-2V48.1816a2.0073,2.0073,0,0,0-.708-1.5268l-.01-.0083c-.447-.3713-1.8208-1.3419-5.8459-2.5618l-.0032-.001c-.1165-.0349-.22-.064-.2981-.0871-.1218-.0359-.2295-.0655-.3076-.0884l-.0122-.0035c-.1072-.03-.2273-.0667-.38-.1093l-.0068-.002-.0889-.0244.0032.0009c-.1033-.0286-.2048-.0557-.2944-.08l.0024.0007c-.1829-.05-.375-.1027-.5872-.1581l-.0049-.0013c-.1208-.0312-.2432-.0623-.3586-.0919l-.0044-.0011c-.1843-.0468-.3787-.0968-.5906-.1489-.146-.0362-.2849-.0686-.408-.0983-.197-.0475-.4006-.0967-.6169-.1472l-.0088-.002c-.1541-.0353-.3118-.0708-.4639-.1052-.2061-.0463-.4148-.0933-.6357-.1414-.1777-.0392-.3523-.0757-.5164-.11l.0054.0012c-.2224-.0476-.4438-.094-.6721-.1411l-.0029-.0006c-.1851-.038-.3723-.075-.5562-.1113-.23-.0461-.4658-.093-.7122-.14-.2031-.039-.4062-.0766-.6021-.1133-.2422-.0451-.4868-.0909-.7458-.1374-.22-.04-.4417-.0779-.6567-.1159-.2551-.0446-.5115-.0892-.7751-.134l-.0046-.0008c-.2351-.0393-.4717-.0781-.7063-.1169l-.0032-.0005c-.2642-.0432-.5332-.0869-.8105-.13-.2517-.04-.5107-.08-.7732-.12l.0029,0c-.2759-.0422-.5566-.0849-.8467-.1274-.2686-.04-.5449-.08-.8245-.12l.0044.0006c-.2922-.0421-.5881-.0838-.8906-.1251l.0037,0c-.2883-.04-.5789-.0788-.87-.1178l-.0039-.0005c-.3069-.0405-.6211-.0821-.9446-.123l.0042,0q-.4537-.0583-.9233-.1165-.4863-.06-.9829-.1188-.48-.0575-.9751-.1141-.51-.0584-1.0354-.1164-.51-.0566-1.0369-.1125-.5358-.0564-1.0813-.1122c-.3547-.0359-.7117-.0718-1.0759-.1074-.3845-.038-.7766-.0749-1.1692-.1116-.3628-.0341-.7312-.0687-1.1089-.1024-.4026-.0364-.812-.0717-1.22-.1073-.3911-.0336-.7808-.0665-1.1785-.0994-.4158-.0345-.8394-.0681-1.2632-.1009-.4067-.032-.8181-.0645-1.241-.0965l-.0027,0c-.4375-.0325-.8838-.0644-1.3281-.0961-.4258-.0308-.8552-.0612-1.2942-.0912-.46-.0312-.9275-.0611-1.3923-.0909-.4426-.0287-.8884-.0577-1.3472-.0858-.4849-.03-.9771-.0576-1.4648-.0859-.4622-.0268-.9243-.0538-1.4019-.08-.5012-.0276-1.0134-.0536-1.52-.08-.4854-.0248-.9707-.05-1.4736-.0745-.52-.0251-1.0508-.0486-1.5745-.0725-.5112-.0229-1.02-.0464-1.5479-.0687-.55-.0231-1.1123-.0447-1.6672-.0666-.5161-.02-1.0308-.041-1.5654-.06-.5835-.0212-1.18-.04-1.7671-.06-.5376-.0175-1.071-.0361-1.6235-.0534-.6125-.0182-1.2371-.0349-1.8538-.0519-.5449-.0151-1.0867-.0312-1.6511-.0455-.6616-.0163-1.3376-.03-2.0054-.0455-.5464-.0117-1.0864-.0249-1.65-.0363-.7017-.0138-1.4194-.025-2.1282-.0367-.552-.01-1.1-.02-1.6707-.0284-.7415-.0108-1.501-.0187-2.2493-.0274-.5608-.0068-1.1145-.0146-1.6941-.02-.8806-.0084-1.7827-.0137-2.6794-.02-.4619-.0029-.9158-.0073-1.3933-.01Q162.1544,38,160,38q-2.157,0-4.2368.01c-.42.002-.8152.0064-1.2148.0088-.9648.0059-1.9319.0117-2.8767.0206-.4963.0049-.968.0118-1.446.0172-.8315.01-1.6692.0186-2.4871.03-.5469.0079-1.07.0182-1.5969.0269-.7317.0122-1.4719.0239-2.1938.0382-.5591.0109-1.0955.0241-1.6362.0363-.67.0146-1.35.0288-2.0154.0455-.5442.0138-1.0674.029-1.5947.0436-.6431.018-1.2942.0352-1.9314.0549-.5205.0158-1.0225.0334-1.5261.05-.6167.0205-1.24.0406-1.85.0627-.5081.0187-.9983.0384-1.491.0579-.5872.0228-1.1812.0454-1.7632.07-.4834.02-.9492.0418-1.4167.0627-.57.0259-1.1426.0514-1.7035.0785-.4717.0227-.926.0468-1.381.07-.5325.0272-1.0712.0542-1.6.0834-.4635.0251-.9111.0517-1.3583.0775-.5021.0287-1.0088.0577-1.506.0884-.4362.0266-.8613.0541-1.2858.0814-.4924.0317-.9869.0637-1.4723.0967-.4113.0281-.8114.0566-1.2106.0849-.4718.0338-.9414.0676-1.403.1021-.4036.03-.7943.0612-1.1813.0913-.4429.0348-.8859.07-1.3228.1058-.3851.0316-.7614.064-1.1323.0956q-.6374.0552-1.2633.1107c-.365.0326-.7208.066-1.0718.0986l-.0042,0c-.4.038-.8021.0758-1.2.1149q-.5242.0515-1.04.1037-.5693.0582-1.1263.1171-.51.054-1.0034.1087-.5275.0582-1.0446.1173-.4979.0569-.9817.1146-.4949.0586-.9738.1178l-.0029,0c-.3141.0391-.6257.0781-.9371.1183q-.4633.0594-.917.1193l-.0049.0007c-.2969.04-.5951.08-.8909.1205q-.4343.06-.8589.1206c-.2887.0411-.5758.0825-.8584.124l-.0029,0c-.27.04-.5344.08-.7957.12-.2766.0425-.5519.0849-.8228.1277-.252.04-.4961.0794-.7372.1186l-.0043.0007c-.2659.0438-.5327.0876-.7963.132-.2284.0385-.4469.0767-.6589.1135l-.0035.0006c-.261.0458-.5237.0917-.7827.1384-.205.037-.4.0734-.5914.109l.0031-.0005c-.2557.0472-.5129.095-.7673.1442-.1854.0356-.36.0706-.53.1042-.2468.049-.4946.098-.7394.1481l-.0046.001c-.1576.0326-.31.0646-.4613.0969l.0035-.0008c-.2412.0508-.4875.1027-.73.1559-.1329.0292-.2612.0578-.39.0867-.24.0537-.4833.1085-.719.1631l-.0034.0008c-.1178.0275-.2172.0519-.3073.0731-.2426.0574-.4852.115-.7247.1744l-.01.0024-.2334.0591.0039-.0009c-.243.061-.4868.1229-.725.1858l-.0059.0015-.1406.0376.0027-.0007c-.2456.0652-.4871.1308-.72.1957l-.0336.0089c-.2312.065-.4658.1311-.6956.1991-4.5352,1.3421-5.8721,2.4068-6.218,2.7138A2.01,2.01,0,0,0,78,48.1816V72.7271a2,2,0,0,0,2,2h4.347c.0422.35.0768.6852.1222,1.0406.0168.1316.0339.2747.0557.438q.1912,1.4555.433,2.9875c.022.14.0433.27.0621.39l.0015.0094c.5416,3.3635,1.2792,6.9939,2.2832,10.7893l.0007.0024.0225.0845a99.1263,99.1263,0,0,0,3.9978,11.9723,119.5813,119.5813,0,0,0,6.4114,14.964,26.9661,26.9661,0,0,0,2.4049,5.851A66.8561,66.8561,0,0,0,110.95,137.2993a81.3737,81.3737,0,0,0,11.7321,11.2339c8.0144,7.1218,13.2234,10.5057,16.125,12.0813-.6975.7045-1.5789,1.5923-2.6143,2.6315a74.6538,74.6538,0,0,0-26.4283,20.8547A109.263,109.263,0,0,0,91.314,217.59a99.1337,99.1337,0,0,0-3.9883,11.9493l-.0033.0127-.0186.0718.0029-.0112c-1.0061,3.8009-1.7445,7.4362-2.2863,10.8038-.02.1241-.0413.2524-.062.3855l0-.0027q-.2426,1.539-.4349,3.0007c-.02.1493-.0369.2874-.0538.42-.0458.36-.0807.6993-.1234,1.0536H80a2,2,0,0,0-2,2v24.5454a2.0071,2.0071,0,0,0,.708,1.5267l.0127.0107-.0034-.0029c.4465.371,1.82,1.3419,5.8464,2.5623l.0032.001c.1166.0349.2206.064.2981.087.1219.036.231.0659.3137.09l.0032.001c.1085.0311.23.0679.3828.11l.007.002.0889.0244-.0033-.0009c.11.03.2081.056.2852.0774l.0043.0011c.1854.0508.3793.1039.59.1589.1262.0328.25.0641.3635.0931l.0043.0011c.1853.047.38.0973.5938.15.1423.0353.2786.0675.4014.0972l.0068.0017c.1952.0466.3972.0953.6135.1459l.0088.0021c.1582.0361.3138.0707.458.1038l.0082.0018c.2.0449.4087.0925.6337.1411.1776.0393.3523.0757.5162.11l-.0055-.0012c.2224.0476.444.094.6721.1411l.0029.0006c.1871.0383.3749.0756.5573.1119l.0029.0006c.2279.045.4633.0919.712.1394l-.0073-.0015c.2052.04.41.0778.6056.1145.2408.045.4875.0908.7469.1372.2188.04.4412.0786.66.1168.2509.0438.5072.0884.771.1332l.0046.0009c.235.0393.4716.0781.7062.1168l.0033.0006c.2642.0432.5332.0869.81.13.2517.04.5109.08.7733.12l-.0029,0c.2759.0422.5565.0848.8466.1273.2686.04.5449.08.8246.12l-.0044-.0006c.2922.0421.5881.0839.8906.1251l-.0037,0c.2882.04.58.079.8728.1177.3091.0414.624.0824.9415.1232q.4563.0588.92.1161l.0031,0q.4863.06.98.1189l.004,0q.48.0568.974.1135.51.0584,1.0353.1165.51.0566,1.037.1124c.3563.0377.7156.0746,1.0752.1116l.0038,0c.3582.0363.72.0726,1.0889.1086.376.0369.759.0734,1.1432.1093.3687.0345.7423.0695,1.1254.104.4022.036.8105.0719,1.2209.1072.3875.0333.7782.0668,1.1791.0994l-.0033,0C113.7284,280.44,114.1519,280.4738,114.5758,280.5066Zm92.5734-93.8606a105.2889,105.2889,0,0,1,17.7646,32.2748l.042.1029-.0022.0009a95.2534,95.2534,0,0,1,3.8525,11.5341l.0227.0852-.0007-.0024c.9666,3.6538,1.6782,7.1553,2.2012,10.4021l-.0015-.0094.0039.0238-22.5491-25.4042-.0413-.0411A94.5317,94.5317,0,0,1,184.91,176.491l-1.5818-9.0558A71.3012,71.3012,0,0,1,207.1492,186.646ZM82,49.3071a24.917,24.917,0,0,1,3.998-1.4761c.1959-.058.4125-.1191.6376-.1824l.0127-.0034c.22-.0613.454-.1248.6937-.1885l.0027-.0007.1384-.037c.212-.0559.44-.1138.6737-.1727l.0039-.0009.2285-.0579c.2124-.0526.4406-.1069.677-.1628.11-.026.2056-.0494.2964-.0706.2189-.0507.4517-.1031.689-.1562.1256-.0283.2473-.0554.3727-.0829.2195-.0482.4556-.0979.6968-.1486l.0035-.0008c.1471-.0312.292-.0617.441-.0926l-.0046.001c.2279-.0466.4684-.0943.715-.1432.1744-.0345.3417-.0679.51-.1.2375-.0459.4843-.0919.7363-.1384l.0031-.0005c.1914-.0356.3792-.0706.57-.105.244-.0439.5007-.0889.7631-.1349.2145-.0372.4247-.074.6357-.1094.2529-.0427.5154-.0858.7827-.13l-.0043.0007c.2394-.0389.4777-.0775.72-.1158.26-.0411.53-.0827.8027-.1246q.3834-.0583.7775-.117.4131-.0606.8406-.1215c.277-.04.5555-.0787.84-.1179s.5785-.0786.8773-.1188l-.0049.0007q.4464-.0589.9048-.1177c.3016-.039.6064-.0772.9186-.116q.4728-.0582.9547-.1155c.32-.038.6417-.0757.9667-.1129q.5052-.058,1.0275-.1154c.3264-.0359.6547-.0718.9872-.1069q.5466-.0581,1.11-.1155.505-.0514,1.0248-.1022c.3867-.0381.7838-.0755,1.1862-.1136l-.0042,0c.3541-.0328.7053-.0658,1.06-.0975q.6123-.0551,1.2483-.1094c.3706-.0316.7424-.0636,1.1179-.0944.4275-.0353.8654-.07,1.3065-.1044.3892-.03.7758-.0609,1.1677-.09.4539-.0339.92-.0674,1.3892-.1011.3979-.0283.7947-.0565,1.1984-.084.4751-.0323.965-.0639,1.4572-.0956.4249-.0274.8455-.0546,1.2732-.0806.4866-.03.9877-.0587,1.4907-.0875.452-.0261.895-.0522,1.3475-.0768.5165-.0285,1.05-.0552,1.5857-.0826.4594-.0236.9093-.0474,1.3691-.07.5505-.0266,1.12-.0519,1.6906-.0778.47-.0211.9324-.0424,1.405-.0622.5713-.0242,1.1609-.0466,1.752-.07.4951-.02.9814-.0391,1.48-.0575.5977-.0217,1.2168-.0417,1.8354-.0623.509-.0167,1.0071-.0342,1.5166-.05.6257-.0193,1.2734-.0364,1.92-.0545.5305-.0147,1.05-.03,1.5845-.0433.6531-.0165,1.3286-.0306,2.0027-.0452.5483-.0123,1.08-.0255,1.6262-.0361.7122-.014,1.4485-.0258,2.1819-.038.5352-.0089,1.0552-.0191,1.5884-.0268.8071-.0117,1.6414-.02,2.4751-.03.4856-.0054.9553-.0122,1.4387-.017.9348-.0087,1.8975-.0146,2.8623-.02.4128-.0025.8064-.0069,1.2092-.0088Q157.8541,42,160,42t4.2183.01c.4646.0024.917.0068,1.3872.01.8977.0059,1.7961.0112,2.6675.0195.5671.0053,1.1169.0131,1.6841.02.7527.0089,1.5088.0166,2.2383.0273.56.0082,1.1038.0184,1.6611.0282.7131.0118,1.427.023,2.1167.0366.5513.0111,1.0894.0243,1.6411.0361.67.0151,1.3433.0293,1.9937.0453.5513.0139,1.09.03,1.64.0452.62.0172,1.2412.0337,1.8423.0516.5405.0168,1.0715.0353,1.6125.053.59.02,1.1831.039,1.7554.06.5225.0188,1.0332.04,1.554.06.5566.022,1.1155.0434,1.6553.0661.5171.0218,1.022.0451,1.5354.0682.5259.0239,1.0532.0473,1.5625.0719.4917.0237.9731.049,1.4622.074.5073.0259,1.0146.0516,1.5049.0787.4685.0256.9263.0524,1.39.0792.491.0284.9792.0562,1.4517.0851.4492.0275.89.0562,1.3345.085.4666.03.929.06,1.3782.09.4309.0294.855.06,1.2791.09.446.0319.8884.0635,1.3181.0954l-.0027,0c.415.0314.822.0635,1.2312.0957.4224.0328.8386.0657,1.2444.0994.394.0326.78.0651,1.1646.0981.4077.0355.8127.07,1.2065.1061.3689.033.731.0668,1.0935.1009.3918.0367.7771.073,1.1521.11.3586.035.7107.07,1.061.1059.3589.0368.7153.0737,1.0657.1105q.516.0549,1.019.1107c.345.0379.6838.0761,1.0186.1144q.486.0558.9575.1121c.3289.039.65.0777.9663.1168q.4567.0563.9028.114l.0042,0c.3093.0392.6162.08.9226.12l-.0039-.0005c.2913.0391.5769.0774.853.1156l.0037,0c.2913.04.5774.08.8613.121l.0044.0006c.2712.0385.54.0775.804.1165.2788.0409.5508.0822.8237.124l.0029,0c.2532.0383.5039.0772.75.1161.2661.0418.5264.084.7876.1268l-.0032-.0005c.2378.0393.4714.0776.6968.1154.2529.0429.5012.086.7493.1295.22.0388.438.0766.6414.1132.2412.0433.4771.0873.7192.1325.1987.0372.396.0738.5808.1093.229.0441.4546.0891.6831.1347l.0061.0012c.1812.0356.3606.0714.531.1061.22.0455.4314.09.6418.1348l.0054.0012c.1719.0363.3369.0707.4832.1031l.0068.0015c.2046.0446.4041.0894.6082.1353.15.0339.302.0681.4451.1008.197.046.3894.0925.5869.14.1416.034.2737.0649.3833.0922l.0054.0013c.1846.0452.3679.0925.5632.142l-.0044-.0011c.12.0307.2388.0608.3477.0891.18.0469.356.0954.5454.1469l.0024.0007c.0979.0266.1936.0521.2739.0743l.0032.0009.0876.0241c.1021.0284.21.0609.3508.101l-.0122-.0035c.1191.0347.2244.0638.2939.0845.1135.0335.2144.062.2834.0827a24.6945,24.6945,0,0,1,3.66,1.3627c.0232.0113.0352.0187.0571.03v21.42h-4.0454C232.3115,70.5972,199.1018,68,160,68s-72.3118,2.5972-73.9546,2.7271H82Zm9.3124,53.0977-.002-.0055,0,.0007Zm3.7719-1.3312-.0029-.0083-.0343-.09a95.0922,95.0922,0,0,1-3.8531-11.5337l-.0227-.0852.0007.0024c-.9667-3.6538-1.6783-7.1553-2.2012-10.4021l.0015.0094c-.0222-.1425-.0438-.2736-.0629-.3943q-.2336-1.4859-.4185-2.8872L88.49,75.68c-.017-.1267-.0332-.2628-.0533-.42-.03-.235-.057-.4633-.0854-.6949C96.2429,73.9868,125.8979,72,160,72c19.9546,0,38.3923.6805,51.8357,1.3611,6.7219.34,12.1953.68,15.9861.9354,1.5884.1068,2.8613.1973,3.8271.2681-.0293.2378-.0571.4719-.0879.7131l0-.0033c-.0193.15-.0344.2773-.05.3922l-.0015.01q-.1835,1.4055-.42,2.902c-.0183.118-.0383.2394-.0588.3662l-.0007.0038c-.5227,3.25-1.2354,6.7566-2.2039,10.4156l-.0029.0112-.0168.0651a94.9883,94.9883,0,0,1-3.8542,11.5367c-.0142.0347-.0205.069-.032.1024l-.0054-.002A105.2889,105.2889,0,0,1,207.15,133.3533c-7.3452,8.902-15.946,15.73-25.325,19.9119a1.9433,1.9433,0,0,0-.6018.4144q-1.7076,1.7126-2.84,2.8586c-3.0535-2.0009-8.42-5.4825-14.823-9.4843-10.0293-6.2672-22.5532-13.7854-32.6655-18.8429A145.7928,145.7928,0,0,1,108.7,114.65c-2.4574-1.843-4.2936-3.3737-5.5081-4.4364-.6072-.5312-1.059-.9457-1.3553-1.2234-.1482-.1389-.2574-.2437-.3279-.3119l-.0764-.0746-.0164-.0161-.0017-.0018-1.5925-1.5924-1.3931,1.7694a3.2253,3.2253,0,0,0-.2064.3021c-1.1223-2.5917-2.1787-5.2471-3.1361-7.9857ZM88.9105,241.4191c.0181-.1157.038-.2371.0586-.3639l.0006-.0038c.5227-3.25,1.2354-6.7566,2.2039-10.4156l.0029-.0112.0154-.06a95.0322,95.0322,0,0,1,3.8558-11.5421c.0142-.0347.02-.0691.0321-.1023l.0052.0018A105.2912,105.2912,0,0,1,112.85,186.6466c7.3453-8.9021,15.946-15.73,25.325-19.9119a1.9533,1.9533,0,0,0,.6018-.4144l.0693-.07c-2.1687,8.07-7.552,23.2-20.51,42.64-6.078,9.1219-14.4794,18.3787-21.3459,25.3162-3.19,3.224-6.0392,5.9418-8.1842,7.9359.0369-.2437.0657-.4741.1045-.7208Zm23.5681,34.9022c-.4055-.035-.81-.07-1.2058-.1058-.3733-.0337-.7418-.0681-1.11-.1028-.3806-.0355-.7573-.0713-1.1263-.1075-.3625-.0354-.72-.0713-1.0763-.1073l.0038,0c-.3611-.0372-.7167-.0736-1.0627-.11s-.6849-.0736-1.02-.1108c-.345-.0378-.6837-.076-1.0184-.1144q-.4861-.0558-.9606-.1119-.4909-.0591-.9633-.1169l.0031,0q-.4629-.0579-.906-.1144-.4706-.06-.9236-.1207-.4374-.058-.8523-.115l-.0037,0c-.2913-.04-.5774-.08-.8613-.121l-.0044-.0006c-.2711-.0385-.54-.0775-.8038-.1165-.2788-.0409-.5509-.0823-.8239-.124l-.0029,0c-.2532-.0383-.5038-.0771-.75-.1161-.2661-.0419-.5264-.0841-.7876-.1268l.0033.0006c-.238-.0394-.4722-.0778-.6981-.1156l.0046.0009c-.2538-.0431-.5033-.0864-.7526-.13-.2187-.0381-.4337-.0758-.6371-.1129l-.0082-.0015c-.24-.0425-.4746-.0863-.7139-.131-.2-.0375-.3961-.0739-.5776-.1091l-.0073-.0015c-.2278-.0433-.4534-.0883-.6844-.134l.0029.0006c-.1846-.0369-.366-.0728-.536-.1077-.22-.0454-.4315-.09-.6418-.1348l-.0055-.0012c-.1719-.0363-.3369-.0707-.4832-.1031l-.0112-.0024c-.197-.0425-.3933-.0872-.5984-.1332-.1611-.0369-.3162-.0713-.4557-.1033-.1952-.0457-.3873-.0919-.5862-.1394l.0068.0017c-.1415-.0344-.2736-.0656-.3855-.0933l-.0055-.0013c-.1844-.0453-.3679-.0925-.5631-.1421l.0043.0011c-.1233-.0316-.2432-.0618-.3464-.0887-.181-.0472-.3583-.0957-.5439-.1465l.0043.0011c-.11-.03-.2092-.0563-.2832-.0769l-.0033-.0009-.0848-.0233c-.1027-.0286-.21-.0608-.3486-.1007l.0032.001c-.1165-.0337-.22-.0624-.29-.083-.1136-.0336-.2145-.0621-.2834-.0828a24.6961,24.6961,0,0,1-3.66-1.3627c-.0231-.0112-.0352-.0187-.057-.03v-21.42h3.1044c.0217.0137.0457.03.0664.0431a3.8129,3.8129,0,0,0,.7073.3134,11.5133,11.5133,0,0,0,1.6952.3973c2.5314.4338,7.657.9128,18.6808,1.3022,11.0144.3865,27.8882.671,53.7461.671,34.709,0,53.2256-.5121,63.1243-1.0969a89.2473,89.2473,0,0,0,9.4028-.894,9.3206,9.3206,0,0,0,1.8857-.4886,3.4472,3.4472,0,0,0,.4822-.2474H238v21.42a24.9342,24.9342,0,0,1-3.998,1.4761c-.1956.0579-.4116.1189-.636.1819l-.0144.0038c-.22.0614-.4539.1248-.6936.1886l-.0027.0006-.1406.0376.0059-.0015c-.2131.0562-.4419.1144-.6775.1736l-.0039.0009-.2327.0588c-.2153.0527-.4414.1072-.6729.1619-.1064.0254-.2.0481-.2927.07-.2227.0514-.4558.1041-.6926.1571-.1255.0283-.2473.0554-.3726.0829-.2195.0482-.4556.0979-.6968.1487l-.0037.0007c-.147.0313-.29.0613-.4351.0909l-.0051.001c-.2253.0466-.4646.094-.7112.1429-.1729.0342-.3418.0677-.512.1006l.0042-.0007c-.241.046-.4888.0927-.7385.1388l-.0029,0c-.1914.0356-.3792.0707-.57.1051-.2441.0439-.501.0889-.7634.1349l.0037-.0006c-.2158.0374-.427.0743-.6392.11l-.0044.0007c-.2473.0422-.5085.0846-.7783.1292l.0044-.0007c-.24.0389-.4778.0775-.72.1158-.26.0411-.53.0826-.8027.1245q-.3838.0584-.7781.1172l.0029,0q-.4138.0608-.8428.1218-.4175.0591-.84.1179c-.2849.0393-.5774.0784-.8743.1178s-.5972.0787-.9031.1179q-.4548.0582-.9209.1162t-.9553.1157q-.4761.0564-.9636.1124-.5054.058-1.0276.1154c-.3262.036-.6523.0718-.9819.1062l-.0044,0c-.3655.0391-.74.0778-1.1179.1161l-.0027,0c-.3352.0344-.6716.0682-1.0132.1016-.3862.0377-.78.0751-1.1794.1125-.3542.0331-.7083.066-1.0681.0984q-.61.0551-1.2451.1094l.0029,0c-.373.0319-.7449.0638-1.12.0946-.4287.0349-.866.07-1.3064.1045-.3884.0306-.7742.0608-1.168.09-.4539.0339-.92.0675-1.3892.1011-.3979.0283-.7947.0565-1.1982.0841-.4751.0323-.9651.0638-1.4573.0956-.4248.0275-.8455.0546-1.2732.0807-.4866.03-.9875.0586-1.4907.0874-.4519.0261-.895.0522-1.3474.0769-.5178.0286-1.0508.0558-1.584.0825-.4612.0237-.9111.0475-1.3708.07-.5505.0266-1.12.0519-1.689.0773-.4729.0216-.9341.043-1.4067.0627-.5713.0242-1.1614.0466-1.7537.07-.4927.019-.98.0386-1.4788.057-.5977.0217-1.2168.0416-1.8354.0623-.509.0166-1.0078.0342-1.5183.05-.6235.0189-1.2717.0359-1.9185.0541-.5305.0146-1.05.03-1.5845.0433-.6531.0164-1.3286.0305-2.0027.0452-.5483.0123-1.08.0255-1.6262.0361-.7122.014-1.4485.0258-2.1819.038-.5352.0088-1.0552.019-1.5884.0267-.8071.0117-1.6414.02-2.4751.03-.4856.0054-.9553.0122-1.4387.017-.9348.0088-1.8975.0146-2.8623.0205-.4114.0024-.8057.0063-1.2117.0088Q162.1469,278,160,278t-4.2185-.01c-.4646-.0024-.917-.0068-1.3872-.01-.8977-.0059-1.7964-.0112-2.6675-.02-.5671-.0052-1.1169-.0131-1.6841-.02-.7527-.0089-1.5088-.0166-2.2383-.0273-.56-.0082-1.1038-.0184-1.6611-.0282-.7131-.0117-1.427-.0229-2.1167-.0365-.5522-.0111-1.0894-.0238-1.6377-.0365-.6736-.0148-1.3467-.0289-1.9971-.0449-.5513-.0139-1.09-.03-1.64-.0452-.62-.0172-1.2412-.0337-1.8423-.0516-.5405-.0168-1.0715-.0354-1.6125-.0531-.59-.02-1.1831-.0389-1.7554-.06-.5225-.0188-1.0332-.04-1.554-.06-.5566-.022-1.1155-.0435-1.6553-.0662-.5171-.0217-1.022-.045-1.5354-.0681-.5259-.0239-1.0532-.0474-1.5624-.0719-.4918-.0237-.9731-.049-1.4623-.074-.5073-.0259-1.0145-.0516-1.5048-.0787-.4686-.0256-.927-.0524-1.3918-.0789l.0039,0c-.4921-.0289-.981-.0568-1.4534-.0857-.4492-.0275-.89-.0562-1.3346-.085-.4664-.03-.9282-.0594-1.376-.09l-.0031,0c-.4308-.0289-.8541-.059-1.2782-.09-.4459-.0319-.8884-.0635-1.3181-.0953h.0028c-.415-.0314-.8221-.0635-1.2313-.0957-.4222-.0327-.8386-.0657-1.2443-.0994l-.0033,0C113.25,276.3873,112.8651,276.3544,112.4786,276.3213Z" class="fill"/>
    <polygon points="89.633 277.206 89.628 277.205 89.622 277.203 89.633 277.206" class="fill"/>
  </g>
</svg>
