<svg xmlns="http://www.w3.org/2000/svg" viewBox="0 0 320 320">
  <title>_.interfaces.no-parking-sign-filled</title>
  <g id="plus">
    <path d="M160,282A122,122,0,1,0,38,160,122,122,0,0,0,160,282Zm55.6451-39.4547A99.2743,99.2743,0,0,1,98.02,237.8625L237.8516,98.0309c1.6391,2.0519,3.2234,4.1469,4.6935,6.3237a99.5034,99.5034,0,0,1-26.9,138.1906ZM60.4614,160A99.44,99.44,0,0,1,221.98,82.1374L82.1483,221.9686c-1.639-2.0517-3.2233-4.1464-4.6934-6.3232A99.0061,99.0061,0,0,1,60.4614,160Z" class="fill"/>
  </g>
</svg>
