<svg xmlns="http://www.w3.org/2000/svg" viewBox="0 0 320 320">
  <title>_.interfaces.undo</title>
  <g id="plus">
    <polygon points="48.151 171.854 48.15 171.851 48.15 171.848 48.151 171.854" class="fill"/>
    <polygon points="48.689 173.991 48.686 173.983 48.685 173.98 48.689 173.991" class="fill"/>
    <polygon points="48.061 171.131 48.061 171.127 48.061 171.125 48.061 171.131" class="fill"/>
    <path d="M48.1033,168.4713c-.0192.1531-.0446.3409-.0627.565-.0168.214-.0226.3972-.0281.55v.0034q-.007.2117-.007.423v.0522c.0011.1674.0036.351.0137.5513v.0022c.0107.2039.0286.3724.0415.5079.0217.2307.05.4724.0895.7244.0329.2108.0714.4439.1267.698.0419.1913.0829.3378.11.4421l-.001-.0039c.0476.1854.1.3768.1609.5735l.0032.01c.0394.1255.0841.2637.1367.4123.0789.2257.1616.433.2408.6237l-.001-.0023c.0233.0546.0657.17.1411.3385l.0009.002q.2032.45.448.8923l.0359.0619.146.2417-.0089-.0148c.1116.1884.2338.3867.3716.5913l.0043.0063c.0947.1394.1816.2581.2559.36l.0018.0025c.1217.1663.2443.3235.3657.4737l.0033.0041c.0746.0916.1666.2034.27.323l0,0,.0693.083.0474.0547c.1637.1812.2926.3033.3693.3824l.0023.0023c.0818.0826.1928.2.3431.3406q.33.3091.6829.5934l.0027.0021c.1454.1161.2565.1948.3254.2469l.0024.0018c.1779.133.3661.2675.5667.4.1.0666.2109.1393.3347.2158l.0046.0029c.2306.1415.4662.2728.7046.3978l-.0007.0012.1294.0728.0858.0455,40,20a12,12,0,1,0,10.7332-21.4659l-13.3883-6.6942q3.4052-.9258,7.1033-1.8661c10.2911-2.6037,22.194-5.192,34.7328-7.1184a256.2182,256.2182,0,0,1,38.4757-3.1882h.0518a157.3056,157.3056,0,0,1,24.9069,1.8466c11.8893,1.9118,22.6014,5.43,31.3476,10.773a55.8864,55.8864,0,0,1,11.7463,9.4705,53.8426,53.8426,0,0,1,8.9245,12.8768,12,12,0,1,0,21.466-10.7322h0l-.0006-.0011h0a77.4287,77.4287,0,0,0-18.1144-23.6324,83.8512,83.8512,0,0,0-17.7286-11.92,112.9216,112.9216,0,0,0-30.2892-9.9149,176.6012,176.6012,0,0,0-32.28-2.7665,280.4071,280.4071,0,0,0-42.4687,3.5157,410.2979,410.2979,0,0,0-46.4567,10.1276l7.3381-14.6771a12,12,0,1,0-21.466-10.7325L49.2661,164.6288c-.174.3469-.3162.6835-.4407,1.0025-.0583.1492-.098.2667-.1271.3481q-.119.334-.2172.6722c-.0316.1086-.0727.2457-.1154.4141-.0618.2445-.1068.4691-.1456.6716-.0483.251-.0857.494-.1161.7282Zm3.9068,1.2534c.0052-.1522.01-.2753.0178-.37.007-.09.0226-.2158.0432-.3759.0222-.1707.0473-.3318.0767-.4839l.001-.0049c.0324-.1705.0632-.3184.0947-.4425l.0005-.0021c.0156-.0626.0424-.1549.0781-.277l.0007-.0023q.0645-.2223.1427-.4417l.0013-.0036c.04-.1127.066-.1875.082-.2275l.0025-.0065c.095-.2438.19-.4642.29-.6636l.0013-.0026,20-40a7.9494,7.9494,0,0,1,3.004-3.2627,8.0452,8.0452,0,0,1,4.1588-1.162,8.0158,8.0158,0,0,1,6.8325,3.851A8.0452,8.0452,0,0,1,88,130.0054a7.9545,7.9545,0,0,1-.8469,3.57L77.79,152.3029a2,2,0,0,0,2.3433,2.816,411.0082,411.0082,0,0,1,50.3276-11.2523,276.4415,276.4415,0,0,1,41.8574-3.4686,172.6211,172.6211,0,0,1,31.5461,2.6985,108.9442,108.9442,0,0,1,29.2191,9.5528,79.8538,79.8538,0,0,1,16.8873,11.35,73.4222,73.4222,0,0,1,17.1819,22.42l1.7894-.8933-1.7888.8945A7.9554,7.9554,0,0,1,268,189.99a8.0465,8.0465,0,0,1-1.162,4.1588A8.015,8.015,0,0,1,260.0054,198a8.046,8.046,0,0,1-4.1588-1.162,7.95,7.95,0,0,1-3.004-3.2625,57.8607,57.8607,0,0,0-9.585-13.8244,59.8946,59.8946,0,0,0-12.5793-10.1478c-9.3215-5.69-20.5244-9.3317-32.7951-11.3077a161.2729,161.2729,0,0,0-25.5433-1.8975h-.0518a260.1591,260.1591,0,0,0-39.0834,3.2347c-12.6942,1.9505-24.7151,4.5654-35.1059,7.1941-4.3868,1.1094-8.4788,2.2211-12.213,3.2856a2,2,0,0,0-.3461,3.7122l18.0361,9.0181a7.95,7.95,0,0,1,3.2621,3.004A8.0457,8.0457,0,0,1,108,190.0053a8.0149,8.0149,0,0,1-3.8511,6.8325A8.0457,8.0457,0,0,1,99.99,198a7.9556,7.9556,0,0,1-3.57-.8468L56.4639,177.1747l-.0872-.049-.06-.0325q-.2608-.1351-.5106-.2883l-.2224-.1438-.0062-.0041c-.12-.0791-.2448-.1678-.3758-.2658l.0024.0018c-.1133-.0845-.1876-.1388-.2206-.1656q-.2335-.1878-.4569-.3972c-.0471-.0436-.1206-.1189-.2263-.2267l.0023.0023c-.12-.1216-.1956-.1965-.2352-.24l-.0356-.0427L54,175.2869c-.054-.0615-.1215-.1436-.2032-.2443-.0888-.11-.1706-.2153-.2455-.3177-.0715-.0977-.1294-.178-.1747-.2446-.0795-.118-.1609-.2488-.246-.3926l-.0089-.0148-.1174-.1945q-.1555-.2809-.29-.5782c-.0088-.0181-.0385-.094-.093-.2272l-.001-.0023c-.0629-.1509-.1165-.2874-.1591-.41l-.004-.0114c-.0275-.0771-.0569-.1677-.0892-.27-.0375-.1223-.0734-.2507-.1084-.3871l-.001-.0039c-.0368-.1409-.0621-.2365-.0736-.2906-.0287-.1313-.0554-.2856-.0831-.4638l-.0009-.006c-.0233-.1464-.0421-.3046-.0583-.4775l-.0006-.0064c-.0142-.1447-.0244-.2548-.0283-.3314-.0055-.1072-.0079-.2308-.0087-.3725v-.027C52.0053,169.9172,52.0069,169.8213,52.01,169.7247Z" class="fill"/>
    <polygon points="48.365 167.067 48.366 167.066 48.366 167.065 48.365 167.067" class="fill"/>
    <polygon points="48.219 167.741 48.22 167.737 48.22 167.736 48.219 167.741" class="fill"/>
    <polygon points="48.481 166.652 48.481 166.652 48.482 166.65 48.481 166.652" class="fill"/>
    <polygon points="48.697 165.982 48.698 165.979 48.699 165.979 48.697 165.982" class="fill"/>
    <polygon points="48.825 165.633 48.825 165.631 48.827 165.627 48.825 165.633" class="fill"/>
    <polygon points="53.375 179.996 53.373 179.995 53.369 179.992 53.375 179.996" class="fill"/>
  </g>
</svg>
