<svg xmlns="http://www.w3.org/2000/svg" viewBox="0 0 320 320">
  <title>_.interfaces.type-filled</title>
  <g id="plus">
    <path d="M70.4363,189.5024H139.56l20.6406,55.7769h21.0605L115.8857,71.772h-22.77l-62.89,173.5073H50.0425Zm5.8647-17.4794c13.1431-38.0377,23.2959-66.0984,27.936-80.7238,3.9631,12.9656,13.0562,36.5722,29.4231,80.7238Z" class="fill"/>
    <path d="M241.416,116.7373c-17.6321-.0081-29.0059,5.1764-36.0945,12.3684-7.09,7.1884-9.8511,16.2693-10.603,23.9165L194.61,154.12h18.1008l.1895-.7574c1.2217-4.9073,2.6711-10.1019,6.5046-14.043a19.8679,19.8679,0,0,1,7.92-4.8815,41.3331,41.3331,0,0,1,13.5994-1.9406,40.6858,40.6858,0,0,1,15.12,2.4547,19.3171,19.3171,0,0,1,10.93,10.0888A31.7758,31.7758,0,0,1,269.41,158.28v10.7944H248.0508c-18.5359.0049-33.2729,3.0727-43.4863,9.746a33.4415,33.4415,0,0,0-11.7217,12.7728,39.5008,39.5008,0,0,0-4.0264,18.2864c-.001,9.5513,3.1436,19.15,10.0444,26.3682,6.8979,7.2222,17.5288,11.9874,32.2358,11.98,12.5676.0027,21.5674-3.0574,27.9753-7.2585a36.0135,36.0135,0,0,0,10.7109-10.8588c.137,3.0082.3354,5.5787.5859,7.7414a35.01,35.01,0,0,0,1.3044,6.7436l.2278.6836h17.666l-.239-1.1961a93.6993,93.6993,0,0,1-1.12-9.647c-.3362-4.3986-.5811-9.72-.5811-15.2194V157.2974a49.27,49.27,0,0,0-3.0566-18.1585,31.4574,31.4574,0,0,0-15.6584-17.0342C261.6182,118.4412,252.39,116.7386,241.416,116.7373Zm17.501,107.7666a27.41,27.41,0,0,1-10.2466,5.8315,49.4951,49.4951,0,0,1-15.3628,2.1324c-8.0317-.003-14.3918-2.4485-18.7549-6.5756-4.36-4.1311-6.7771-9.9755-6.7825-16.9957a24.0939,24.0939,0,0,1,2.7019-11.8147c2.6448-4.7963,7.18-8.1434,13.5625-10.33,6.3748-2.18,14.56-3.1485,24.2612-3.1468h21.36v3.1773a107.9044,107.9044,0,0,1-1.1919,17.5988C267.09,212.574,264.2913,219.5616,258.917,224.5039Z" class="fill"/>
  </g>
</svg>
