<svg xmlns="http://www.w3.org/2000/svg" viewBox="0 0 320 320">
  <title>_.interface.mouse-buttons-filled</title>
  <g id="plus">
    <path d="M269.052,295.9835c-.06.0947-.1094.1659-.1416.2111l-.0444.0605-1.2029,1.5479,6.19,5.0121,1.2583-1.5594a13.557,13.557,0,0,0,1.5869-2.63,14.7409,14.7409,0,0,0,1.43-6.24,13.6973,13.6973,0,0,0-.35-3.074l-1.9492.4478,1.949-.4486a16.3745,16.3745,0,0,0-4.6711-7.9647,33.459,33.459,0,0,0-9.4119-6.2283A141.3079,141.3079,0,0,1,233.7026,256.25q1.91-.5413,3.769-1.1766a56.5706,56.5706,0,0,0,16.1128-8.3992,34.9779,34.9779,0,0,0,12.21-16.6675,25.3094,25.3094,0,0,0,1.3323-8.0173,23.773,23.773,0,0,0-2.2822-10.1522,28.0843,28.0843,0,0,0-6.6162-8.8016,33.7739,33.7739,0,0,0-22.4-8.7449,27.45,27.45,0,0,0-11.114,2.2584,25.2921,25.2921,0,0,0-10.7886,9.1927c-3.4048,5.0787-5.9307,12.4656-5.9255,23a29.6021,29.6021,0,0,0,3.3545,13.1873,49.9155,49.9155,0,0,0,5.9968,9.1416c-2.3413.2-4.6829.31-6.99.31a68.6171,68.6171,0,0,1-14.9229-1.5446,33.9885,33.9885,0,0,1-11.22-4.4225c-7.8379-5.2312-12.5164-11.2625-15.2925-17.2655a40.7132,40.7132,0,0,1-3.6223-17.1138,47.2137,47.2137,0,0,1,1.2166-10.627,49.2247,49.2247,0,0,0,21.541-7.8281,35.4685,35.4685,0,0,0,11.314-12.6237c2.9531-5.5524,4.7852-12.5385,4.7825-21.2147V104.4863c.002-10.2812-2.05-18.3378-5.314-24.5972a36.59,36.59,0,0,0-8.9368-11.1978,41.14,41.14,0,0,0-15.4817-7.9839,48.3838,48.3838,0,0,0-8.9832-1.61v-.1207l-1.9751-.0247q-.2589-.0033-.4834-.0032c-.45,0-.7786.0079-.9846.0148-.2034-.0066-.5327-.0149-.9839-.0148-.1462,0-.31.0006-.4875.0032l-1.97.0293v.1178a48.1419,48.1419,0,0,0-7.4058,1.1971A40.4249,40.4249,0,0,0,130.821,71.8112a38.31,38.31,0,0,0-7.8718,13.116,57.0588,57.0588,0,0,0-3.1064,19.5592c0,40,0,14.2538,0,54.2539-.0032,8.974,1.9578,16.14,5.09,21.7813a35.13,35.13,0,0,0,8.583,10.2379,43.6707,43.6707,0,0,0,15.0513,7.7754,54.27,54.27,0,0,0,8.9028,1.8719,50.2389,50.2389,0,0,0-1,10.0493,48.1318,48.1318,0,0,0,4.3845,20.2987c3.4121,7.3652,9.29,14.8955,18.9265,21.3146a41.7592,41.7592,0,0,0,13.6262,5.5183,75.6641,75.6641,0,0,0,16.9624,1.8232,89.1016,89.1016,0,0,0,13.76-1.089c11.1018,10.5284,25.592,19.0826,36.1746,24.0422a26.55,26.55,0,0,1,6.8518,4.376,8.9464,8.9464,0,0,1,2.8174,4.3285,5.7751,5.7751,0,0,1,.156,1.3348,6.6545,6.6545,0,0,1-.6313,2.7559A7.002,7.002,0,0,1,269.052,295.9835ZM182.4976,72.1375a27.4634,27.4634,0,0,1,7.7759,8.07A38.77,38.77,0,0,1,195.39,93.3512a42.82,42.82,0,0,1,.6672,4.5852c.009.1034.0137.1805.0212.2755-2.053.6846-6.166,2.0079-11.1562,3.3557a130.1429,130.1429,0,0,1-18.6016,3.77l-.3391-38.188C173.0891,67.4667,178.4229,69.3931,182.4976,72.1375Zm-24.479-4.989-.3389,38.1863a134.0535,134.0535,0,0,1-19.853-4.11c-3.2849-.91-6.1226-1.7865-8.1348-2.4338q-1.0459-.3364-1.771-.58a42.2767,42.2767,0,0,1,4.2817-15.35,28.3088,28.3088,0,0,1,9.51-10.864C145.759,69.3273,151.0315,67.46,158.0186,67.1484Zm99.5249,148.0159a16.0493,16.0493,0,0,1,1.5649,6.8944,17.1049,17.1049,0,0,1-.9036,5.4176,27.1868,27.1868,0,0,1-9.7253,13.026,48.8533,48.8533,0,0,1-13.6042,7.0043,67.4827,67.4827,0,0,1-8.145,2.2043,48.6492,48.6492,0,0,1-7.8972-10.6882A22.4072,22.4072,0,0,1,216,228.7412c-.0017-6.5083,1.1335-11.95,3.1875-16.1166a17.7309,17.7309,0,0,1,8.7632-8.76,19.5835,19.5835,0,0,1,7.9236-1.5937,25.7187,25.7187,0,0,1,16.9717,6.6818A19.9662,19.9662,0,0,1,257.5435,215.1643Z" class="fill"/>
  </g>
</svg>
