<svg xmlns="http://www.w3.org/2000/svg" viewBox="0 0 320 320">
  <title>_.landscape</title>
  <g id="camera">
    <path d="M267.62,141.2916,228.9819,98.6569a2,2,0,0,0-3.1362.2189l-32.1411,47.2882-21.8765,26.0237-15.688-20.734L119.1675,98.85a2,2,0,0,0-3.3083.0526L81.5457,151.1788l-.0022.004L78.7581,155.28,8.3457,258.8757A2,2,0,0,0,10,262H300a2,2,0,0,0,2-2V180a2.0048,2.0048,0,0,0-.5178-1.3431Zm-39.8948-38.0649,35.3318,38.9867c-5.6709,3.51-17.8633,10.5425-30.5173,14.6962-.0642.0211-.13.0341-.1941.0546a22.5458,22.5458,0,0,1-6.6553,1.0283c-.0769.0007-.1533.0082-.23.0082a27.3188,27.3188,0,0,1-3.0417-.1761q-1.1045-.1218-2.2029-.3214-1.0437-.1906-2.0767-.4423c-.0327-.0081-.0657-.0145-.0981-.0226a43.3421,43.3421,0,0,1-5.4207-1.7515q-.4332-.17-.86-.3469-.8306-.3448-1.6365-.7111c-.8069-.3674-1.595-.7474-2.3552-1.137q-.5156-.2642-1.0156-.5328a67.0814,67.0814,0,0,1-5.8115-3.5111q-.6925-.4669-1.2932-.8933c-.1208-.0856-.2412-.1708-.3562-.2533q-.4812-.3455-.89-.6509c-.0974-.0725-.19-.1417-.2805-.21-.0393-.03-.0774-.0583-.1152-.0872Zm-110.1375.3319,34.8215,49.543a12.2687,12.2687,0,0,1-1.9673,4.5414,17.2883,17.2883,0,0,1-7.9124,5.95,6.4746,6.4746,0,0,1-2.5073.5,8.7794,8.7794,0,0,1-3.3872-.75,21.6185,21.6185,0,0,1-6.2949-4.4484,59.2955,59.2955,0,0,1-7.82-9.6594c-.9873-1.4871-1.7778-2.7855-2.3184-3.707-.2705-.4607-.4783-.8273-.6172-1.076-.07-.1245-.1218-.2195-.156-.2821l-.0378-.0695-.01-.0186-.0659-.1144a16.253,16.253,0,0,0-3.8955-3.98,23.3486,23.3486,0,0,0-12.3716-4.4565q-.4036-.0319-.8074-.0316a13.77,13.77,0,0,0-6.35,1.7406c-.22.1156-.4353.2441-.6523.3683ZM298,258H13.7771L82.0662,157.5284,84.853,153.43a59.7577,59.7577,0,0,1,8.06-9.1743,27.4645,27.4645,0,0,1,3.6274-2.7758c.4043-.2539.8074-.4871,1.207-.6962A9.8389,9.8389,0,0,1,102.24,139.5q.2483,0,.4927.0194a19.3319,19.3319,0,0,1,10.2854,3.6682,14.774,14.774,0,0,1,2.2751,2.0952c.2371.2729.4058.4922.509.6335l.0991.1407a79.9661,79.9661,0,0,0,7.179,10.7507,43.7814,43.7814,0,0,0,7.5388,7.5911,21.0387,21.0387,0,0,0,4.4688,2.6333,12.7545,12.7545,0,0,0,4.9338,1.0608,10.4851,10.4851,0,0,0,4.0364-.8033,21.291,21.291,0,0,0,9.6682-7.3639,16.671,16.671,0,0,0,1.6145-2.8989l14.81,19.5736a2,2,0,0,0,3.1257.08L195.5876,150.14a71.6466,71.6466,0,0,0,9.2759,5.9452,58.1868,58.1868,0,0,0,8.2639,3.66l.0149.0049a43.5975,43.5975,0,0,0,5.2959,1.4834c.019.004.0383.0071.0571.011,1.123.2349,2.2649.4155,3.4187.5447q.858.0959,1.7246.149c.6045.036,1.2109.0613,1.8208.0621h0c.0916,0,.1843-.009.2761-.01a26.4444,26.4444,0,0,0,8.0527-1.2812c13.6868-4.5052,26.4937-12.0442,31.9958-15.4858L298,180.7714Z" class="fill"/>
  </g>
</svg>
