<svg xmlns="http://www.w3.org/2000/svg" viewBox="0 0 320 320">
  <title>_.landscape-outline</title>
  <g id="camera">
    <path d="M267.62,141.2916,228.9819,98.6569a2,2,0,0,0-3.1362.2189l-32.1411,47.2882-21.8765,26.0237-15.688-20.734L119.1675,98.85a2,2,0,0,0-3.3083.0526L81.5457,151.1788l-.0022.004L78.7581,155.28,8.3457,258.8757A2,2,0,0,0,10,262H300a2,2,0,0,0,2-2V180a2.0048,2.0048,0,0,0-.5178-1.3431Zm-39.8948-38.0651,35.3318,38.9868c-5.6709,3.51-17.8633,10.5425-30.5173,14.6962-.0642.0211-.13.0341-.1941.0546a22.5458,22.5458,0,0,1-6.6553,1.0283c-.0769.0007-.1533.0082-.23.0082a27.3188,27.3188,0,0,1-3.0417-.1761q-1.1045-.1218-2.2029-.3214-1.0437-.1906-2.0767-.4423c-.0327-.0081-.0657-.0145-.0981-.0226a43.3421,43.3421,0,0,1-5.4207-1.7515q-.4332-.17-.86-.3469-.8306-.3448-1.6365-.7111c-.8069-.3674-1.595-.7474-2.3552-1.137q-.5156-.2642-1.0156-.5328a67.0814,67.0814,0,0,1-5.8115-3.5111q-.6925-.4669-1.2932-.8933c-.1208-.0856-.2412-.1708-.3562-.2533q-.4812-.3455-.89-.6509c-.0974-.0725-.19-.1417-.2805-.21-.0393-.03-.0774-.0583-.1152-.0872Zm-110.1372.3319,34.8213,49.543a12.2691,12.2691,0,0,1-1.9673,4.5415,17.2883,17.2883,0,0,1-7.9124,5.95,6.4746,6.4746,0,0,1-2.5073.5,8.7794,8.7794,0,0,1-3.3872-.75,21.6185,21.6185,0,0,1-6.2949-4.4484,59.2955,59.2955,0,0,1-7.82-9.6594c-.9873-1.4871-1.7778-2.7855-2.3184-3.707-.2705-.4607-.4783-.8273-.6172-1.076-.07-.1245-.1218-.2195-.156-.2821l-.0378-.0695-.01-.0186-.0659-.1144a16.253,16.253,0,0,0-3.8955-3.98,23.3486,23.3486,0,0,0-12.3716-4.4565q-.4036-.0319-.8074-.0316a13.77,13.77,0,0,0-6.35,1.7406c-.22.1156-.4353.2443-.6523.3683Z" class="fill"/>
  </g>
</svg>
