<svg xmlns="http://www.w3.org/2000/svg" viewBox="0 0 320 320">
  <title>_.location-outline</title>
  <g id="camera">
    <g>
      <path d="M160,79.1338a45.75,45.75,0,1,0,45.75,45.75A45.7505,45.7505,0,0,0,160,79.1338Zm29.5217,75.2715A41.75,41.75,0,1,1,201.75,124.8838,41.6109,41.6109,0,0,1,189.5217,154.4053Z" class="fill"/>
      <path d="M218.012,63.0516A79.6655,79.6655,0,0,0,103.42,61.5953a86.751,86.751,0,0,0-25.3083,57.3693l-.0023.0784c0,.0035-.0339,3.3307-.0339,5.9388,0,.6223.002,1.2039.0068,1.6938.0031.293.0073.5377.0127.7582a2.0233,2.0233,0,0,0-.095.5779,138.0994,138.0994,0,0,0,1.2681,19.0513c4.0072,28.8121,12.9651,51.7938,25.8468,72.64,12.881,20.85,29.6447,39.5668,49.2867,60.0536l.0038.0032A7.2163,7.2163,0,0,0,159.63,282c.1217,0,.245-.0066.368-.0126.1224.0061.2446.0127.3715.0127a7.2169,7.2169,0,0,0,5.2239-2.24l.0049-.0042c19.642-20.4867,36.4058-39.2031,49.2867-60.0536,12.8817-20.8458,21.8395-43.8274,25.8468-72.64A138.0964,138.0964,0,0,0,242,128.0117a2.0167,2.0167,0,0,0-.0979-.5881c.0586-1.3236.098-2.6531.0979-3.9939A86.9952,86.9952,0,0,0,218.012,63.0516Zm-6.53,154.5491c-12.62,20.4346-29.1772,38.9553-48.7687,59.3849l-.0026.0022A3.2054,3.2054,0,0,1,160.37,278l-.2345-.0083-.2734,0L159.63,278a3.204,3.204,0,0,1-2.3406-1.0121l-.0033-.0028c-19.5913-20.4291-36.1484-38.95-48.7682-59.3844-12.62-20.44-21.3427-42.7924-25.2881-71.0895a133.847,133.847,0,0,1-1.2249-18.1705,1.9759,1.9759,0,0,0,.0985-.69c-.0088-.1724-.0171-.549-.0215-1.0151-.0048-.4691-.0067-1.04-.0067-1.6538,0-1.2877.0085-2.764.017-3.9166.0072-.9886.0144-1.7332.0164-1.9276a82.75,82.75,0,0,1,24.13-54.7047A75.666,75.666,0,0,1,215.1249,65.82,82.9947,82.9947,0,0,1,238,123.43q0,2.1238-.1036,4.2207a1.9692,1.9692,0,0,0,.0985.69,133.826,133.826,0,0,1-1.2249,18.1705C232.8246,174.8082,224.1016,197.1606,211.4819,217.6007Z" class="fill"/>
    </g>
  </g>
</svg>
