<svg xmlns="http://www.w3.org/2000/svg" viewBox="0 0 320 320">
  <title>_.location-filled</title>
  <g id="camera">
    <path d="M218.012,63.0516A79.6655,79.6655,0,0,0,103.42,61.5953a86.751,86.751,0,0,0-25.3083,57.3693l-.0023.0784c0,.0035-.0339,3.3307-.0339,5.9388,0,.6223.002,1.2039.0068,1.6938.0031.293.0073.5377.0127.7582a2.0233,2.0233,0,0,0-.095.5779,138.0994,138.0994,0,0,0,1.2681,19.0513c4.0072,28.8121,12.9651,51.7938,25.8468,72.64,12.881,20.85,29.6447,39.5668,49.2867,60.0536l.0038.0032A7.2163,7.2163,0,0,0,159.63,282c.1217,0,.245-.0066.368-.0126.1224.0061.2446.0127.3715.0127a7.2169,7.2169,0,0,0,5.2239-2.24l.0049-.0042c19.642-20.4867,36.4058-39.2031,49.2867-60.0536,12.8817-20.8458,21.8395-43.8274,25.8468-72.64A138.0964,138.0964,0,0,0,242,128.0117a2.0167,2.0167,0,0,0-.0979-.5881c.0586-1.3236.098-2.6531.0979-3.9939A86.9952,86.9952,0,0,0,218.012,63.0516ZM130.4781,95.3622A41.75,41.75,0,1,1,118.25,124.8838,41.611,41.611,0,0,1,130.4781,95.3622Z" class="fill"/>
  </g>
</svg>
