<svg xmlns="http://www.w3.org/2000/svg" viewBox="0 0 320 320">
  <title>_.message-outline</title>
  <g id="camera">
    <path d="M43.0233,243.4531a27.5038,27.5038,0,0,0,8.0973,7.89,36.7177,36.7177,0,0,0,12.7111,4.9524A40.0785,40.0785,0,0,0,68,256.8888V285a2,2,0,0,0,2.8944,1.7888L130.4722,257H250c7.8293.0059,13.8916-1.9763,18.4531-5.0234a27.5029,27.5029,0,0,0,7.89-8.0972,36.7143,36.7143,0,0,0,4.9524-12.711A35.1371,35.1371,0,0,0,282,225V105c.0059-7.8295-1.9761-13.8918-5.0232-18.4532a27.5064,27.5064,0,0,0-8.0974-7.89,36.7184,36.7184,0,0,0-12.7109-4.9524A35.1577,35.1577,0,0,0,250,73H70c-7.8295-.0058-13.8918,1.9763-18.4532,5.0234a27.5056,27.5056,0,0,0-7.89,8.0972,36.7165,36.7165,0,0,0-4.9524,12.7111A35.1508,35.1508,0,0,0,38,105s0,90,0,120C37.9941,232.8295,39.9762,238.8918,43.0233,243.4531ZM45.6217,90.73a24.2479,24.2479,0,0,1,8.235-9.4387C57.7229,78.7465,62.8855,77.0056,70,77H250a35.4859,35.4859,0,0,1,14.27,3.6218,24.2474,24.2474,0,0,1,9.4387,8.235C276.2534,92.723,277.9944,97.8855,278,105c0,29.9825,0,119.8926,0,119.9976V225h0a35.4938,35.4938,0,0,1-3.6218,14.27,24.2481,24.2481,0,0,1-8.2351,9.4387C262.2769,251.2535,257.1143,252.9944,250,253H130a1.9642,1.9642,0,0,0-.8945.2111L72,281.7639V255a1.9995,1.9995,0,0,0-1.9976-2v0H70a35.4874,35.4874,0,0,1-14.27-3.6218,24.2461,24.2461,0,0,1-9.4387-8.235C43.7465,237.277,42.0055,232.1144,42,225V105h0A35.4893,35.4893,0,0,1,45.6217,90.73Z" class="fill"/>
  </g>
</svg>
