<svg xmlns="http://www.w3.org/2000/svg" viewBox="0 0 320 320">
  <title>_.message-filled</title>
  <g id="camera">
    <path d="M43.0232,243.4531a27.5056,27.5056,0,0,0,8.0974,7.89,36.7172,36.7172,0,0,0,12.7109,4.9524A40.0828,40.0828,0,0,0,68,256.8889V285a2,2,0,0,0,2.8943,1.7888L130.4722,257H250c7.8293.0059,13.8916-1.9763,18.4531-5.0234a27.5029,27.5029,0,0,0,7.89-8.0972,36.7143,36.7143,0,0,0,4.9524-12.711A35.1371,35.1371,0,0,0,282,225V105c.0059-7.8295-1.9761-13.8918-5.0232-18.4532a27.5064,27.5064,0,0,0-8.0974-7.89,36.7184,36.7184,0,0,0-12.7109-4.9524A35.1577,35.1577,0,0,0,250,73H70c-7.83-.0058-13.8918,1.9763-18.4534,5.0234a27.5036,27.5036,0,0,0-7.89,8.0972,36.7141,36.7141,0,0,0-4.9524,12.7111A35.1366,35.1366,0,0,0,38,105s0,90,0,120C37.9941,232.8295,39.9761,238.8918,43.0232,243.4531Z" class="fill"/>
  </g>
</svg>
