<svg xmlns="http://www.w3.org/2000/svg" viewBox="0 0 320 320">
  <title>_.miscellaneous.grid</title>
  <g id="cat">
    <path d="M270,81a1,1,0,0,0,0-2H241V50a1,1,0,0,0-2,0V79H161V50a1,1,0,0,0-2,0V79H81V50a1,1,0,0,0-2,0V79H50a1,1,0,0,0,0,2H79v78H50a1,1,0,0,0,0,2H79v78H50a1,1,0,0,0,0,2H79v29a1,1,0,0,0,2,0V241h78v29a1,1,0,0,0,2,0V241h78v29a1,1,0,0,0,2,0V241h29a1,1,0,0,0,0-2H241V161h29a1,1,0,0,0,0-2H241V81ZM81,81h78v78H81Zm0,158V161h78v78Zm158,0H161V161h78Zm0-80H161V81h78Z" class="fill"/>
  </g>
</svg>
