<svg xmlns="http://www.w3.org/2000/svg" viewBox="0 0 320 320">
  <title>_.miscellaneous.hummingbird-filled</title>
  <g id="cat">
    <path d="M300.1218,116.8477a426.8264,426.8264,0,0,0-46.769-2.5071,322.9231,322.9231,0,0,0-44.704,2.8554c-5.5789.7931-10.9455,1.8657-16.1252,3.1221.2285-.282.4625-.5742.7073-.8881a31.6656,31.6656,0,0,0,3.9783-7.3126c.922-2.2789,1.4272-4.0178,1.4338-4.04a1.0013,1.0013,0,0,0-.5438-1.188l-.7145-.3273a18.6055,18.6055,0,0,0,2.0281-3.48,49.6549,49.6549,0,0,0,2.566-7.7556c.4069-1.5538.8406-3.7411,1.1781-5.5577.3368-1.8143.5742-3.2485.575-3.2527a1,1,0,0,0-.856-1.1547l-1.0218-.1346a21.1932,21.1932,0,0,0,1.4106-3.9495,99.2688,99.2688,0,0,0,1.7708-10.02,22.2046,22.2046,0,0,0,.2379-3.1575A10.8531,10.8531,0,0,0,204.36,63.13a.9982.9982,0,0,0-.8987-.5158l-.759.0179a19.92,19.92,0,0,0,.4384-4.7076c0-1.5086-.0876-3.3732-.3129-5.6821a30.5447,30.5447,0,0,0-2.4613-8.73,39.2624,39.2624,0,0,0-1.9952-4.0209,1.0022,1.0022,0,0,0-1.1647-.4441c-.1353.0416-31.7809,10.168-66.0471,51.36a199.0908,199.0908,0,0,0-18.3453,25.5789c-2.447-5.733-7.3505-10.71-14.3347-14.3894A22.55,22.55,0,0,0,87.798,98.8624c-5.4937.0035-10.3851,2.0043-14.7147,3.9346-2.165.9674-4.1932,1.9215-6.0714,2.6213a15.0776,15.0776,0,0,1-5.1374,1.1394,7.2311,7.2311,0,0,1-1.4731-.1453,52.7279,52.7279,0,0,1-7.85-2.5557c-3.0984-1.2181-6.5447-2.7286-9.9759-4.3129-5.2726-2.4337-10.512-5.0428-14.4307-7.0423-1.9594-1-3.5889-1.8473-4.7278-2.4446s-1.7838-.9421-1.7855-.9431a1.0014,1.0014,0,0,0-1.2845.2993l-1.1592,1.6177a1,1,0,0,0,.3517,1.47c.0017.0009.6224.3235,1.7136.9037,3.2731,1.7405,10.7455,5.7826,18.0629,10.2166,3.98,2.4086,8.132,4.96,11.5143,7.3155a52.8626,52.8626,0,0,1,4.3671,3.3305,12.0908,12.0908,0,0,1,2.431,2.6378,22.3086,22.3086,0,0,1,2.0089,6.8305c.8,4.2881,1.568,9.5566,3.996,14.5834a26.1384,26.1384,0,0,0,13.9063,12.9428c.3809.1639.7694.3123,1.1567.4633a.998.998,0,0,0,.5987.3792c.3442.0668.6718.1433,1.0335.2209a28.537,28.537,0,0,0,4.0092,1.0314c4.3047,1.3428,6.7522,3.0093,8.2529,4.9905a12.4931,12.4931,0,0,1,2.1727,5.2837c.6173,3.0884.6916,6.8911,1.256,11.3721a51.8507,51.8507,0,0,0,4.2988,15.4687A149.9865,149.9865,0,0,0,113.89,214.8279c3.7643,5.354,6.6912,8.4552,8.369,10.6319a7.9088,7.9088,0,0,1,1.5,3.007,38.776,38.776,0,0,1,.5251,5.0668,19.7968,19.7968,0,0,0,2.28,7.4014,1.0015,1.0015,0,0,0,1.3094.444l4.3608-2.0342a21.1337,21.1337,0,0,0-2.755,10.1968,18.3428,18.3428,0,0,0,2.7662,9.8768.9988.9988,0,0,0,.693.4175,2.7819,2.7819,0,0,0,.351.0217,4.1272,4.1272,0,0,0,2.0939-.673,21.1416,21.1416,0,0,0-.8338,5.9536,30.8575,30.8575,0,0,0,2.1371,10.7733,31.5766,31.5766,0,0,0,2.1489,4.6035,1.0005,1.0005,0,0,0,1.0792.46c4.2835-.9775,7.877-3.9026,10.8768-7.943,4.5021-6.0722,7.7708-14.7354,10.1164-23.8911A166.3749,166.3749,0,0,0,165.3,222.3426c.6943-8.46,1.1591-13.85,1.16-18.0461a32.7422,32.7422,0,0,0-.74-7.4436c9.8154,2.1973,19.0527,3.7963,19.0621,3.798a1,1,0,0,0,1.158-.8276l.2944-1.8433c.3724.0964.82.2057,1.3277.316a25.1953,25.1953,0,0,0,5.1425.6261,12.4826,12.4826,0,0,0,1.8293-.1248c1.6963-.2556,4.7858-1.0106,7.5051-1.7081,2.7112-.6967,5.0172-1.3322,5.0206-1.3331a1,1,0,0,0,.6738-1.3065l-.3749-1.0286c1.0306-.0757,2.5583-.1937,4.2157-.3409,1.4882-.1323,3.0792-.288,4.51-.4588,1.4338-.1718,2.6946-.3541,3.58-.5574a18.9367,18.9367,0,0,0,2.931-1.05c3.3088-1.4233,7.4389-3.6726,7.4528-3.6794a.998.998,0,0,0,.4847-1.1494l-.2061-.7324a26.09,26.09,0,0,0,2.8079-.2245,21.794,21.794,0,0,0,6.12-1.7737c1.2158-.5551,2.892-1.4608,4.7529-2.5185,5.5723-3.169,12.74-7.6866,12.7462-7.6906a1.0041,1.0041,0,0,0,.4667-.8339l.0292-2.409a14.5232,14.5232,0,0,0,6.412-2.0591c1.0408-.6546,2.4563-1.6824,4.0229-2.8713,4.69-3.5613,10.6776-8.5449,10.6834-8.55a1,1,0,0,0,.09-1.4526l-1.5789-1.6841c1.4535-.9274,4.1616-3.0426,8.3395-7.7957a49.7306,49.7306,0,0,0,4.1852-5.8486c1.2079-1.9156,2.0695-3.4357,2.0746-3.4447a.9982.9982,0,0,0-.2568-1.283l-.8192-.6359a43.2985,43.2985,0,0,0,5.8223-6.8892l-.8111-.5848.8113.5846a35.3721,35.3721,0,0,0,4.733-9.3587,1,1,0,0,0-.8356-1.2815Z" class="fill"/>
  </g>
</svg>
