<svg xmlns="http://www.w3.org/2000/svg" viewBox="0 0 320 320">
  <title>_.misc.bullet-outline</title>
  <g id="cat">
    <g>
      <path d="M105.5126,237.283c5.0728,5.35,13.8653,12.1055,28.7546,17.8989A81.0736,81.0736,0,0,0,163.7768,261c16.1476-.0016,25.8647-5.4782,25.966-5.5347a.9965.9965,0,0,0,.469-.595l25.0869-87.5459a1,1,0,0,0-.7091-1.2432L119.1624,141.209a1,1,0,0,0-1.2285.7515l-18.91,85.3843a1.0082,1.0082,0,0,0,.0281.534C99.0911,227.9984,100.4387,231.9341,105.5126,237.283Zm14.15-93.8768,93.4318,24.352-24.6869,86.15c-1.7858.9127-10.7241,5.0928-24.63,5.0916a79.07,79.07,0,0,1-28.7842-5.6818c-14.6487-5.7017-23.1711-12.2905-28.0288-17.4114a34.9148,34.9148,0,0,1-4.8436-6.2972,18.9558,18.9558,0,0,1-.9316-1.7833c-.0643-.1429-.11-.2514-.1471-.3432Z" class="fill"/>
      <path d="M121.7961,131.3358l95.4292,24.87a1.0018,1.0018,0,0,0,1.2188-.7115A78.3337,78.3337,0,0,0,221,135.3676c-.004-20.23-7.1411-39.2023-14.2548-53.1327a147.508,147.508,0,0,0-14.2548-22.8594,1.0016,1.0016,0,0,0-1.1552-.3029,154.7558,154.7558,0,0,0-30.3458,17.56c-15.9426,11.7515-33.5393,29.4836-39.9078,53.4793a1,1,0,0,0,.7144,1.2239Zm40.38-53.0931a162.3083,162.3083,0,0,1,20.876-13.0163c2.7576-1.4407,5.0217-2.5179,6.5933-3.2338.7467-.34,1.3314-.5961,1.7441-.7732a151.3951,151.3951,0,0,1,14.2336,23.2294c6.8046,13.6238,13.3807,31.7819,13.3771,50.9186a76.634,76.634,0,0,1-2.2509,18.6475l-93.462-24.3574C129.6774,106.8156,146.6431,89.6829,162.1759,78.2427Z" class="fill"/>
    </g>
  </g>
</svg>
