<svg xmlns="http://www.w3.org/2000/svg" viewBox="0 0 320 320">
  <title>_.miscellaneous.screw</title>
  <g id="cat">
    <g>
      <path d="M172.5626,268.3655l.0048.0026A5,5,0,0,0,180,264V234.5566a5,5,0,0,0-2.5676-4.3683l.005.0028-31-17.4951-.0048-.0027A5,5,0,0,0,139,217.0615v29.4438a5,5,0,0,0,2.5676,4.3683l-.005-.0028ZM141,246.5054V217.0615a2.9992,2.9992,0,0,1,4.4591-2.6211l30.9952,17.4924.005.0028A3,3,0,0,1,178,234.5566V264a3,3,0,0,1-4.4587,2.6212l-30.9956-17.4921-.005-.0028A3,3,0,0,1,141,246.5054Z" class="fill"/>
      <path d="M187.4575,230.835a5.0006,5.0006,0,0,0,5-5V196.3911a5,5,0,0,0-2.5676-4.3683l-52.8813-29.4434a5,5,0,0,0-7.4323,4.3683v29.4434a5,5,0,0,0,2.5676,4.3683l52.8813,29.4438A4.994,4.994,0,0,0,187.4575,230.835ZM131.576,196.3911V166.9478a2.9992,2.9992,0,0,1,4.4592-2.621L188.9167,193.77a3,3,0,0,1,1.5408,2.621V225.835a3,3,0,0,1-4.4591,2.6211l-52.8816-29.444A3,3,0,0,1,131.576,196.3911Z" class="fill"/>
      <path d="M123.6675,96.8569h5.9087v55.3691a5,5,0,0,0,2.5676,4.3683l52.8813,29.4434a5,5,0,0,0,7.4323-4.3683V96.8569H198.78a4.9973,4.9973,0,0,0,2.6469-.7583l21.2194-13.24A4.9985,4.9985,0,0,0,225,78.6172V63.8955a5,5,0,0,0-2.2607-4.1829l-21.22-13.8954A4.9983,4.9983,0,0,0,198.78,45H123.6675a4.9988,4.9988,0,0,0-2.532.6885L97.4683,59.5839A5,5,0,0,0,95,63.8955V78.6172a5,5,0,0,0,2.5592,4.3635l23.6674,13.24A4.9978,4.9978,0,0,0,123.6675,96.8569ZM97,78.6172V63.8955a3,3,0,0,1,1.4811-2.5869l23.6674-13.8954A2.9988,2.9988,0,0,1,123.6675,47H198.78a2.9986,2.9986,0,0,1,1.6433.49l21.22,13.8956A3,3,0,0,1,223,63.8955V78.6172a2.999,2.999,0,0,1-1.412,2.545l-21.22,13.24a2.9977,2.9977,0,0,1-1.5878.4548h-7.3228a1,1,0,0,0-1,1v85.8125a3,3,0,0,1-4.4591,2.6211L133.1168,154.847a3,3,0,0,1-1.5408-2.6209V95.8569a1,1,0,0,0-1-1h-6.9087a2.9978,2.9978,0,0,1-1.4642-.3819l-23.6677-13.24A3,3,0,0,1,97,78.6172Z" class="fill"/>
    </g>
  </g>
</svg>
