<svg xmlns="http://www.w3.org/2000/svg" viewBox="0 0 320 320">
  <title>_.miscellaneous.cat-filled</title>
  <g id="cat">
    <g>
      <path d="M268.9907,97.82l.733-.68a4.8821,4.8821,0,0,0-1.9024-1.2609,6.7166,6.7166,0,0,0-2.3462-.3857,14.9309,14.9309,0,0,0-4.7683.944c-4.3876,1.5229-9.8142,4.741-15.7884,8.944,2.5439-4.9792,4.733-9.6688,6.3782-13.851,2.0473-5.2215,3.2782-9.6348,3.2867-13.0017a8.7289,8.7289,0,0,0-.4979-3.1157,4.7281,4.7281,0,0,0-1.7159-2.2542,4.9845,4.9845,0,0,0-2.8885-.8631A11.1979,11.1979,0,0,0,244.14,74.03a49.7544,49.7544,0,0,0-9.5092,7.6835c-3.1318,3.0786-6.4644,6.7623-9.8792,10.81a37.7071,37.7071,0,0,0-34.1539-22.2084l-.0322.0007c-2.9989-4.4244-6.6256-9.5555-9.9638-13.663a52.2686,52.2686,0,0,0-4.8412-5.3239,13.9705,13.9705,0,0,0-2.09-1.6353A4.0185,4.0185,0,0,0,171.636,49a2.229,2.229,0,0,0-.39.0336,2.3023,2.3023,0,0,0-1.4865,1.0142,6.6188,6.6188,0,0,0-.9086,2.7205,25.7317,25.7317,0,0,0-.2347,3.7878,141.153,141.153,0,0,0,2.0513,19.6118q-.4637.2963-.9192.6047c-3.3746-1.4876-6.9736-2.9791-10.2427-4.1227-1.7156-.6-3.3383-1.1044-4.7969-1.463a16.8987,16.8987,0,0,0-3.8511-.5756,4.83,4.83,0,0,0-1.761.28,2.3074,2.3074,0,0,0-1.3069,1.1953,2.7017,2.7017,0,0,0-.2151,1.1055,8.5346,8.5346,0,0,0,.9531,3.3441,47.993,47.993,0,0,0,3.9189,6.5487c1.5554,2.2641,3.36,4.6809,5.212,7.063a39.1937,39.1937,0,0,0-4.7076,16.1477c-5.0588,1.044-11.7258,2.8464-22.1253,4.9786a48.2709,48.2709,0,0,0-22.4312,11.125c-9.2532,8.1094-15.6376,19.5382-19.72,32.2806a134.1677,134.1677,0,0,0-5.8657,40.2945c0,3.6272.14,7.2039.3894,10.7066a119.7449,119.7449,0,0,0-14.3361-20.6824,64.46,64.46,0,0,0-8.5953-8.3978,22.6263,22.6263,0,0,0-3.737-2.4257,7.6558,7.6558,0,0,0-3.3-.9249,3.6475,3.6475,0,0,0-1.4791.2936,3.2173,3.2173,0,0,0-1.2083.9291,6.4924,6.4924,0,0,0-1.1978,2.6555A15.797,15.797,0,0,0,49,180.6523a56.1157,56.1157,0,0,0,1.92,12.6495c3.6262,14.6995,11.7483,34.4589,19.2447,47.6315,6.5508,11.5044,15.6917,18.5864,24.2236,22.1685l.0013.01a2.0873,2.0873,0,0,0,.8,1.0931,9.6714,9.6714,0,0,0,2.6179,1.2543,61.7414,61.7414,0,0,0,8.0839,2.002A221.1485,221.1485,0,0,0,143.3985,271a78.1088,78.1088,0,0,0,13.9373-1.0148,20.2682,20.2682,0,0,0,4.8026-1.4424,5.7328,5.7328,0,0,0,2.8654-2.5155,5.5693,5.5693,0,0,0,.546-2.4235,8.5344,8.5344,0,0,0-1.3826-4.3343,26.96,26.96,0,0,0-5.5945-6.1784,70.1626,70.1626,0,0,0-6.2828-4.7144q1.6163-1.0226,3.2194-2.1357a122.2948,122.2948,0,0,0,12.3328,10.2556,39.2106,39.2106,0,0,0,5.4838,3.3108,11.0394,11.0394,0,0,0,4.5345,1.2771,4.2068,4.2068,0,0,0,1.7384-.3446A5.8325,5.8325,0,0,0,182.6,257.437a13.6765,13.6765,0,0,0,.8006-5.0247c-.0049-4.4761-1.288-9.9479-2.7888-14.9174-1.3969-4.6131-2.9829-8.7512-3.9546-11.1625a121.9425,121.9425,0,0,0,9.4831-13.4253,119.9442,119.9442,0,0,0,12.138-26.7194c7.9-7.3765,25.8979-24.4583,42.0012-41.75a304.3405,304.3405,0,0,0,21.3738-25.1035,82.9829,82.9829,0,0,0,6.7531-10.4592c1.62-3.1236,2.5826-5.82,2.5933-8.1179a5.1523,5.1523,0,0,0-1.2762-3.6168Z" class="fill"/>
      <polygon points="171.244 49.034 171.246 49.033 171.247 49.033 171.244 49.034" class="fill"/>
    </g>
  </g>
</svg>
