<svg xmlns="http://www.w3.org/2000/svg" viewBox="0 0 320 320">
  <title>_.misc.hummingbird</title>
  <g id="cat">
    <path d="M300.1218,116.8477a426.8264,426.8264,0,0,0-46.769-2.5071,322.9231,322.9231,0,0,0-44.704,2.8554c-5.5789.7931-10.9455,1.8657-16.1252,3.1221.2285-.282.4625-.5742.7073-.8881a31.6656,31.6656,0,0,0,3.9783-7.3126c.922-2.2789,1.4272-4.0178,1.4338-4.04a1.0013,1.0013,0,0,0-.5438-1.188l-.7145-.3273a18.6055,18.6055,0,0,0,2.0281-3.48,49.6549,49.6549,0,0,0,2.566-7.7556c.4069-1.5538.8406-3.7411,1.1781-5.5577.3368-1.8143.5742-3.2485.575-3.2527a1,1,0,0,0-.856-1.1547l-1.0218-.1346a21.1932,21.1932,0,0,0,1.4106-3.9495,99.2688,99.2688,0,0,0,1.7708-10.02,22.2046,22.2046,0,0,0,.2379-3.1575A10.8531,10.8531,0,0,0,204.36,63.13a.9982.9982,0,0,0-.8987-.5158l-.759.0179a19.92,19.92,0,0,0,.4384-4.7076c0-1.5086-.0876-3.3732-.3129-5.6821a30.5447,30.5447,0,0,0-2.4613-8.73,39.2624,39.2624,0,0,0-1.9952-4.0209,1.0022,1.0022,0,0,0-1.1647-.4441c-.1353.0416-31.7809,10.168-66.047,51.36a198.9753,198.9753,0,0,0-18.3405,25.5769,23.84,23.84,0,0,0-2.4106-4.3343A33.198,33.198,0,0,0,98.48,101.5968a22.5492,22.5492,0,0,0-10.682-2.7344c-5.4937.0035-10.3851,2.0043-14.7146,3.9346-2.165.9674-4.1932,1.9214-6.0714,2.6213a15.077,15.077,0,0,1-5.1373,1.1394,7.2292,7.2292,0,0,1-1.4733-.1453,52.7256,52.7256,0,0,1-7.85-2.5557c-3.0984-1.2181-6.5447-2.7286-9.976-4.3129-5.2726-2.4337-10.512-5.0428-14.4307-7.0423-1.9595-1-3.5889-1.8473-4.7279-2.4446s-1.7837-.9421-1.7855-.9431a1.0015,1.0015,0,0,0-1.2846.2993l-1.1592,1.6177a1,1,0,0,0,.3517,1.47c.0017.0009.6224.3235,1.7136.9037,3.2731,1.7405,10.7455,5.7826,18.0629,10.2166,3.98,2.4086,8.1321,4.96,11.5143,7.3155a52.8626,52.8626,0,0,1,4.3671,3.3305,12.0914,12.0914,0,0,1,2.431,2.6378,22.3075,22.3075,0,0,1,2.0091,6.8305c.8,4.2881,1.568,9.5566,3.9959,14.5834a26.1378,26.1378,0,0,0,13.9061,12.9428h0q.5782.2489,1.17.4789a.997.997,0,0,0,.5851.3635c.3437.0667.671.1431,1.032.2206.5917.1975,1.1927.3745,1.8.5363.1031.0275.2054.056.3089.0823.6307.1605,1.2679.3019,1.9133.4169,4.2973,1.342,6.7421,3.0073,8.2415,4.9867a12.4924,12.4924,0,0,1,2.1727,5.2837c.6172,3.0884.6916,6.8911,1.256,11.3721a51.847,51.847,0,0,0,4.2988,15.4687A149.9918,149.9918,0,0,0,113.89,214.8279c3.7643,5.354,6.6913,8.4552,8.369,10.6319a7.9106,7.9106,0,0,1,1.5,3.007,38.776,38.776,0,0,1,.5251,5.0668,19.7965,19.7965,0,0,0,2.28,7.4014,1.0015,1.0015,0,0,0,1.3094.444l4.3609-2.0342a21.1334,21.1334,0,0,0-2.755,10.1968,18.3439,18.3439,0,0,0,2.7662,9.8768.999.999,0,0,0,.6931.4175,2.7809,2.7809,0,0,0,.3509.0217,4.1271,4.1271,0,0,0,2.0938-.6729,21.1411,21.1411,0,0,0-.8337,5.9535,30.859,30.859,0,0,0,2.1371,10.7733,31.5648,31.5648,0,0,0,2.149,4.6035,1.0005,1.0005,0,0,0,1.0792.46c4.2834-.9775,7.8769-3.9026,10.8768-7.943,4.5021-6.0722,7.7708-14.7354,10.1163-23.8911A166.3686,166.3686,0,0,0,165.3,222.3426c.6943-8.46,1.1591-13.85,1.16-18.0461a32.7386,32.7386,0,0,0-.7405-7.4436c9.8154,2.1973,19.0528,3.7963,19.0622,3.798a1,1,0,0,0,1.158-.8276l.2944-1.8433c.3724.0964.82.2057,1.3277.316a25.1947,25.1947,0,0,0,5.1424.6261,12.4826,12.4826,0,0,0,1.8293-.1248c1.6963-.2556,4.7858-1.0106,7.5051-1.7081,2.7112-.6967,5.0172-1.3322,5.0206-1.3331a1,1,0,0,0,.6738-1.3065l-.3749-1.0286c1.0306-.0757,2.5583-.1937,4.2157-.3409,1.4882-.1323,3.0792-.288,4.51-.4588,1.4338-.1718,2.6946-.3541,3.58-.5574a18.9367,18.9367,0,0,0,2.931-1.05c3.3088-1.4233,7.4389-3.6726,7.4528-3.6794a.998.998,0,0,0,.4847-1.1494l-.2061-.7324a26.09,26.09,0,0,0,2.8079-.2245,21.794,21.794,0,0,0,6.12-1.7737c1.2158-.5551,2.892-1.4608,4.7529-2.5185,5.5723-3.169,12.74-7.6866,12.7462-7.6906a1.0041,1.0041,0,0,0,.4667-.8339l.0292-2.409a14.5232,14.5232,0,0,0,6.412-2.0591c1.0408-.6546,2.4563-1.6824,4.0229-2.8713,4.69-3.5613,10.6776-8.5449,10.6834-8.55a1,1,0,0,0,.09-1.4526l-1.5789-1.6841c1.4535-.9274,4.1616-3.0426,8.3395-7.7957a49.7306,49.7306,0,0,0,4.1852-5.8486c1.2079-1.9156,2.0695-3.4357,2.0746-3.4447a.9982.9982,0,0,0-.2568-1.283l-.8192-.6359a43.2985,43.2985,0,0,0,5.8223-6.8892l-.8111-.5848.8113.5846a35.3721,35.3721,0,0,0,4.733-9.3587,1,1,0,0,0-.8356-1.2815ZM77.9341,150.3428l.3954-.9186a25.1757,25.1757,0,0,1-10.08-7.4575c-3.4273-4.3193-4.855-9.3549-5.8005-14.0566-.4734-2.3493-.8255-4.608-1.2629-6.6487a18.3072,18.3072,0,0,0-1.8347-5.37,13.8276,13.8276,0,0,0-2.8431-3.1336c-3.7762-3.2772-10.1692-7.22-16.1575-10.8474-5.9645-3.614-12.0076-6.9564-15.8424-9.0287,3.9849,2.0641,10.5683,5.4042,17.2278,8.4783,3.4549,1.5953,6.9307,3.1193,10.0824,4.3584a54.4376,54.4376,0,0,0,8.176,2.6528,9.227,9.227,0,0,0,1.88.187,16.9784,16.9784,0,0,0,5.8362-1.2654c2.9842-1.1152,6.1211-2.7374,9.4651-4.0659a28.71,28.71,0,0,1,10.6219-2.364,20.5348,20.5348,0,0,1,9.75,2.5037,31.2148,31.2148,0,0,1,11.2232,9.4312,21.403,21.403,0,0,1,2.891,5.7883c.0014.0047,0,.01.0014.0143a19.8241,19.8241,0,0,1,.931,6.0241,24.96,24.96,0,0,1-3.8632,12.8222c-3.2841,5.4847-6.72,9.0515-10.1366,11.246a18.4313,18.4313,0,0,1-10.1675,3.0406c-.5643,0-1.126-.0305-1.6857-.0774-.1168-.01-.2332-.022-.35-.0337q-.7329-.0735-1.4594-.1942c-.0463-.0078-.093-.0137-.1392-.0218-1.1936-.3665-2.5023-.7039-3.94-1.0125-.1686-.0571-.3361-.1189-.504-.179-.6818-.2435-1.3568-.5047-2.019-.79Zm216.6677-24.0241h0a47.9366,47.9366,0,0,1-4.9471,6.0176,11.9775,11.9775,0,0,1-1.1026.9822c-.1111.0849-.1866.136-.227.1622l-.0345.0215.0012.002a.9975.9975,0,0,0-.1324,1.6642l1.1452.889c-.44.75-1.1787,1.9819-2.0508,3.3353a44.0473,44.0473,0,0,1-3.5375,4.8763,49.2247,49.2247,0,0,1-6.8311,6.67,13.5045,13.5045,0,0,1-1.5588,1.05c-.1606.09-.2722.1436-.3359.1724l-.06.0258-.0032.0012.0006.0016a.998.998,0,0,0-.39,1.6228l1.7333,1.8489q-.3794.3129-.9018.7418c-1.5857,1.3008-4.058,3.3112-6.4989,5.2249-2.436,1.911-4.8615,3.7365-6.2728,4.6215a13.591,13.591,0,0,1-6.4247,1.8442,1.001,1.001,0,0,0-.9123.9841l-.0334,2.764c-.3564.2232-.9013.5635-1.5969.995-1.8964,1.1762-4.8508,2.9908-7.76,4.7061-2.9037,1.7133-5.7842,3.3354-7.4464,4.0918a19.7864,19.7864,0,0,1-5.563,1.6119,31.2276,31.2276,0,0,1-3.8707.2382,1,1,0,0,0-.9377,1.2706l.3371,1.1979c-.87.4618-2.4431,1.283-4.1047,2.0843-.9724.469-1.9735.93-2.87,1.3037a15.34,15.34,0,0,1-2.2.7736c-.7372.1711-1.9716.3544-3.3685.5205-2.1.2507-4.5923.4725-6.5544.6307-.9813.0792-1.8306.1425-2.4343.1861s-.9588.0671-.96.0672a1,1,0,0,0-.8733,1.34l.4567,1.2531c-.1387.0375-.2748.0743-.4362.1176-1.3658.367-3.4906.929-5.5673,1.4426-2.0717.5131-4.1166.98-5.24,1.1464a10.5177,10.5177,0,0,1-1.5341.103,23.2875,23.2875,0,0,1-4.7183-.5806c-.6743-.1463-1.2453-.2929-1.645-.4022-.2-.0546-.3569-.1-.4626-.1312l-.1192-.0357-.036-.0111a1,1,0,0,0-1.2872.7963l-.3109,1.9462q-.33-.059-.7578-.1365c-3.3586-.6085-11.054-2.0494-18.7921-3.8239a1,1,0,0,0-1.1853,1.2485,29.2213,29.2213,0,0,1,1.07,8.5046c.001,4.0467-.4577,9.4213-1.1534,17.8829-.8583,10.5315-3.04,24.0071-6.9514,35.2169a54.8609,54.8609,0,0,1-7.1688,14.4434c-2.6453,3.5612-5.6459,5.9971-9.0046,6.98a31.2542,31.2542,0,0,1-3.6318-13.6814,17.6739,17.6739,0,0,1,2.879-9.9822,1,1,0,0,0-1.6508-1.1289l-.0271.038a18.5084,18.5084,0,0,1-1.8392,2.153,8.93,8.93,0,0,1-1.46,1.2011,3.05,3.05,0,0,1-.8521.39,16.9646,16.9646,0,0,1-2.12-8.2675,20.1583,20.1583,0,0,1,4.2078-11.9471,1,1,0,0,0-1.2333-1.4919l-6.53,3.0461a18.7206,18.7206,0,0,1-1.7892-7.6274,18.9692,18.9692,0,0,0-.4358-3.5413,9.9331,9.9331,0,0,0-1.8575-3.7427c-1.79-2.3143-4.6151-5.2966-8.3157-10.56a147.9994,147.9994,0,0,1-13.389-24.0364c-4.5406-9.9662-4.26-17.7759-5.0481-24.0964-.3972-3.1522-1.0769-5.9874-2.9042-8.405a13.472,13.472,0,0,0-4.0613-3.4812,20.522,20.522,0,0,0,9.5509-3.2823c3.7371-2.4008,7.3712-6.2211,10.7731-11.9026a26.9769,26.9769,0,0,0,4.1516-13.86,21.7607,21.7607,0,0,0-.9036-6.1781,193.5785,193.5785,0,0,1,19.0022-26.75c16.99-20.423,33.3017-33.1146,45.3506-40.6981a122.2388,122.2388,0,0,1,14.4272-7.87c1.722-.7819,3.0654-1.326,3.974-1.6734q.3389-.13.5959-.2231c.3927.7315,1.0253,1.9741,1.67,3.5178a27.9756,27.9756,0,0,1,2.1224,7.6982c.22,2.254.3034,4.0557.3034,5.4868a17.0046,17.0046,0,0,1-.4288,4.4209,3.0574,3.0574,0,0,1-.2345.6263l-.024.041-.0046.007.0071.0051a.9912.9912,0,0,0,.7762,1.6425l1.5813-.0373a11.4291,11.4291,0,0,1,.4594,3.4691,20.2181,20.2181,0,0,1-.2177,2.8734,97.7461,97.7461,0,0,1-1.7277,9.8047,20.2775,20.2775,0,0,1-1.8807,4.7972,1,1,0,0,0,.7572,1.4517l1.38.1818c-.3065,1.7673-.9758,5.4611-1.54,7.6094a47.8089,47.8089,0,0,1-2.4531,7.4379,16.7089,16.7089,0,0,1-2.5456,4.0465,1,1,0,0,0,.3517,1.5494l1.0663.4884c-.2531.772-.685,2.0148-1.2791,3.4426a28.9376,28.9376,0,0,1-3.5309,6.4175c-1.0565,1.3545-1.9442,2.3792-2.6742,3.16a1,1,0,0,0,.9829,1.6506A169.6089,169.6089,0,0,1,208.93,119.176a320.9782,320.9782,0,0,1,44.4225-2.8354c13.1064,0,24.7448.6236,33.1027,1.2471,4.179.3118,7.5378.6235,9.85.857.9756.0986,1.7524.182,2.3386.2468A33.8783,33.8783,0,0,1,294.6017,126.3187Z" class="fill"/>
  </g>
</svg>
