<svg xmlns="http://www.w3.org/2000/svg" viewBox="0 0 320 320">
  <title>_.misc.list-filled</title>
  <g id="cat">
    <g>
      <circle cx="60" cy="80" r="21" class="fill"/>
      <circle cx="60" cy="160" r="21" class="fill"/>
      <circle cx="60" cy="240" r="21" class="fill"/>
      <path d="M260,69H100a1,1,0,0,0-1,1V90a1,1,0,0,0,1,1H260a1,1,0,0,0,1-1V70a1,1,0,0,0-1-1Z" class="fill"/>
      <path d="M260,149H100a1,1,0,0,0-1,1v20a1,1,0,0,0,1,1H260a1,1,0,0,0,1-1V150a1,1,0,0,0-1-1Z" class="fill"/>
      <path d="M260,229H100a1,1,0,0,0-1,1v20a1,1,0,0,0,1,1H260a1,1,0,0,0,1-1V230a1,1,0,0,0-1-1Z" class="fill"/>
    </g>
  </g>
</svg>
