<svg xmlns="http://www.w3.org/2000/svg" viewBox="0 0 320 320">
  <title>_.miscellaneous.diamond-filled</title>
  <g id="cat">
    <path d="M49.0117,110.12a1.7529,1.7529,0,0,0,.0715.2671c.0056.0129.0061.027.0122.04.0129.0276.0342.049.05.0751a.9789.9789,0,0,0,.0483.09l110,150c.0125.0168.0308.026.0439.0419a.9752.9752,0,0,0,.0972.0994,1.0225,1.0225,0,0,0,.0933.0823c.0259.0181.0535.03.0808.0459.0178.01.03.0266.0483.0357s.0393.009.0583.017a.9793.9793,0,0,0,.1086.0413,1.6673,1.6673,0,0,0,.2231.0366c.0181.001.0344.0087.053.0087s.0347-.0077.053-.0087a1.682,1.682,0,0,0,.2227-.0365.9835.9835,0,0,0,.1089-.0413c.019-.008.04-.0077.0583-.017s.0308-.0257.0488-.0359c.0269-.0154.0542-.0276.08-.0456a1.021,1.021,0,0,0,.0933-.0822,1.0054,1.0054,0,0,0,.0974-.0995c.0132-.0159.0315-.025.0439-.0419l110-150a.9565.9565,0,0,0,.0476-.0884c.0156-.0266.0371-.0484.0505-.0766.0061-.0131.0068-.0275.0125-.0407a.9815.9815,0,0,0,.0437-.1429.6832.6832,0,0,0,.03-.274,1.255,1.255,0,0,0-.0874-.3888c-.0049-.01-.0059-.0217-.011-.0319a.9918.9918,0,0,0-.0671-.0964.9647.9647,0,0,0-.0535-.088l-33-40A.9954.9954,0,0,0,237,69H83a.995.995,0,0,0-.7715.3636l-33,40a1.7587,1.7587,0,0,1-.1206.1843c-.0051.01-.0061.0217-.011.0321a.9439.9439,0,0,0-.0417.1223,1.0046,1.0046,0,0,0-.0391.1437.9748.9748,0,0,0-.0066.1224A1.0076,1.0076,0,0,0,49.0117,110.12Zm2.9617.88H115.251L157.436,254.8132Zm65.3621,0h85.3289L160,256.447Zm64.073-40,20.9,38H117.6909l20.9-38ZM83.4712,71h52.8374l-20.9,38H52.1211Z" class="fill"/>
  </g>
</svg>
