<svg xmlns="http://www.w3.org/2000/svg" viewBox="0 0 320 320">
  <title>_.misc.box</title>
  <g id="cat">
    <path d="M262.0923,75.5042l-.0042-.01a.9836.9836,0,0,0-.1174-.2778c-.0149-.0247-.0337-.0453-.0505-.0685a1.0288,1.0288,0,0,0-.2231-.2227c-.0183-.0132-.0327-.03-.0522-.0424a.9977.9977,0,0,0-.1384-.0629c-.0249-.01-.0469-.0245-.0728-.033a.9892.9892,0,0,0-.2974-.0507l-.0171-.0029H126.2939a.9817.9817,0,0,0-.4473.1055L58.4336,108.546a.9886.9886,0,0,0-.2137.1566c-.0139.0125-.0328.0175-.0461.0308l-.004.006a.9906.9906,0,0,0-.2029.3046c-.0116.0267-.0139.0553-.0232.0829a.9773.9773,0,0,0-.0535.2676c-.0009.0158-.0093.03-.0093.046V244.2661a1,1,0,0,0,1,1H193.7061l.0171-.0034a.9866.9866,0,0,0,.3354-.0663c.0273-.01.0513-.025.0776-.0377a1,1,0,0,0,.1245-.0605l67.4131-44.9419a1,1,0,0,0,.4451-.832V75.7339a.9855.9855,0,0,0-.0239-.1862C262.0923,75.5331,262.0957,75.5188,262.0923,75.5042ZM192.7061,243.2661H59.8807V110.44H192.7061ZM126.53,76.7338H256.8831L193.47,108.44H63.1168Zm68.1759,165.6638V110.0585l65.4131-32.7065V198.7888Z" class="fill"/>
  </g>
</svg>
