<svg xmlns="http://www.w3.org/2000/svg" viewBox="0 0 320 320">
  <title>_.miscellaneous.eye</title>
  <g id="cat">
    <g>
      <path d="M270.5154,113.1439c-.082-.04-40.1191-24.1317-89.9688-24.144a139.9925,139.9925,0,0,0-40.7117,5.8677c-33.3745,10.1126-56.0674,30.96-70.4023,49.2531-14.3379,18.2974-20.342,34.0563-20.3672,34.12a1,1,0,1,0,1.8691.7119h0s.02-.0532.0659-.1683c.7053-1.7848,7.1382-17.4869,21.3584-35.13,11.281-13.997,27.4529-29.2018,49.5476-39.71a45.2892,45.2892,0,0,0-7.3328,6.2245,48.6249,48.6249,0,0,0,0,66.3113,43.126,43.126,0,0,0,63.1646,0,48.6255,48.6255,0,0,0,0-66.3113,43.45,43.45,0,0,0-31.5818-13.7591,42.8042,42.8042,0,0,0-5.8892.4192c.05-.0151.0979-.0316.1477-.0466A137.9924,137.9924,0,0,1,180.5466,91c24.6008-.0012,46.8564,5.9657,62.9512,11.9381a195.8488,195.8488,0,0,1,19.0437,8.2079c2.2449,1.1183,3.9856,2.0493,5.1626,2.6992.5884.325,1.0361.58,1.3354.7524.1494.0864.262.1522.3367.1962l.1084.0644a1,1,0,0,0,1.0308-1.7141Zm-94.2271-1.5978a46.6251,46.6251,0,0,1,0,63.5555,41.1264,41.1264,0,0,1-60.2654,0,46.6251,46.6251,0,0,1,0-63.5555,41.1265,41.1265,0,0,1,60.2654,0Z" class="fill"/>
      <path d="M117.3154,142.6191a1,1,0,0,0,1-1,44.155,44.155,0,0,1,1.3831-11.9546,20.8957,20.8957,0,0,1,7.9084-11.6426c3.9866-2.9778,9.5081-5.2456,16.8665-7.2132a1,1,0,0,0-.5171-1.9319h0a66.4485,66.4485,0,0,0-12.7427,4.6042c-5.3022,2.6758-9.0923,6.0906-11.49,10.6765-2.4,4.5838-3.4077,10.2562-3.4084,17.4617A1,1,0,0,0,117.3154,142.6191Z" class="fill"/>
      <polygon points="112.144 220.847 112.144 220.847 112.144 220.847 112.144 220.847" class="fill"/>
      <path d="M247.8667,106.6189a1,1,0,0,0-.88,1.1071l.01.0975c.0491.48.2546,2.7037.2546,6.2066a104.042,104.042,0,0,1-7.6729,38.8618c-6.583,15.9567-18.6162,33.0253-40.585,45.6839-31.9653,18.4206-67.1912,20.43-80.8521,20.4243-1.877,0-3.3467-.0375-4.3445-.0748-.4988-.0187-.88-.0373-1.1348-.0511s-.3784-.0226-.3784-.0226a1,1,0,0,0-.1406,1.9951c.0205.0015,2.1909.1534,5.9983.1534,13.8506-.0052,49.3782-1.9971,81.85-20.6912,22.3809-12.8873,34.7268-30.37,41.4358-46.6547a106.0167,106.0167,0,0,0,7.8235-39.6241,63.4329,63.4329,0,0,0-.2776-6.5316A1,1,0,0,0,247.8667,106.6189Z" class="fill"/>
    </g>
  </g>
</svg>
