<svg xmlns="http://www.w3.org/2000/svg" viewBox="0 0 320 320">
  <title>_.misc.diamond</title>
  <g id="cat">
    <path d="M270.9834,109.8461a2.1175,2.1175,0,0,0-.0806-.2662c-.0049-.01-.0059-.0217-.011-.0319a.9918.9918,0,0,0-.0671-.0964.9647.9647,0,0,0-.0535-.088l-33-40A.9954.9954,0,0,0,237,69H83a.995.995,0,0,0-.7715.3636l-33,40a1.7587,1.7587,0,0,1-.1206.1843c-.0051.01-.0061.0217-.011.0321a.9439.9439,0,0,0-.0417.1223,1.0046,1.0046,0,0,0-.0391.1437.9748.9748,0,0,0-.0066.1224.6773.6773,0,0,0,.0291.2723.9913.9913,0,0,0,.0447.1459c.0056.0129.0061.027.0122.04.0129.0276.0342.049.05.0751a.9789.9789,0,0,0,.0483.09l110,150a.99.99,0,0,0,.1895.1909c.0208.0164.0435.0286.0654.0434a.9968.9968,0,0,0,.1863.0979c.0271.0107.053.0214.0808.03a.8915.8915,0,0,0,.5691,0c.0281-.0084.054-.019.0808-.03a1.0033,1.0033,0,0,0,.1865-.0981c.0217-.0146.0444-.0268.0649-.0431a.9852.9852,0,0,0,.19-.191l110-150a.9565.9565,0,0,0,.0476-.0884c.0156-.0266.0371-.0484.0505-.0766.0061-.0131.0068-.0275.0125-.0407a.9815.9815,0,0,0,.0437-.1429.6832.6832,0,0,0,.03-.274A.9763.9763,0,0,0,270.9834,109.8461ZM117.3352,111h85.3291L160,256.4471Zm87.4136,0h63.2776L162.5637,254.8127Zm63.13-2H204.5911l-20.9-38h52.8372Zm-86.47-38,20.9,38H117.6909l20.9-38ZM83.4712,71h52.8374l-20.9,38H52.1211Zm31.78,40,42.1853,143.8132L51.9734,111Z" class="fill"/>
  </g>
</svg>
