<svg xmlns="http://www.w3.org/2000/svg" viewBox="0 0 320 320">
  <title>_.miscellaneous.eye-filled</title>
  <g id="cat">
    <path d="M271.0305,112.2869a173.0209,173.0209,0,0,0-26.4893-12.1616c-16.3279-6.056-38.907-12.123-63.9946-12.1254a140.9925,140.9925,0,0,0-41.0017,5.9107c-33.6252,10.189-56.48,31.1908-70.8994,49.5933-14.4253,18.411-20.4644,34.254-20.5146,34.38a2,2,0,1,0,3.7383,1.4236h0l.0129-.0335c.3181-.825,6.4707-16.3983,20.5776-34.1469a143.1346,143.1346,0,0,1,45.2739-37.9818q-1.6487,1.4322-3.16,3.0225a48.6249,48.6249,0,0,0,0,66.3113,43.1261,43.1261,0,0,0,63.1646,0,48.6255,48.6255,0,0,0,0-66.3113,43.45,43.45,0,0,0-31.5818-13.7592c-.2717,0-.54.0165-.81.0215A138.3047,138.3047,0,0,1,180.5466,92c24.4387-.0024,46.5864,5.9312,62.6033,11.8756,1.5874.589,3.0962,1.1763,4.56,1.7595a1.997,1.997,0,0,0-1.7158,2.2048l.0015.0155c.0232.214.2566,2.4636.2566,6.1749a103.0465,103.0465,0,0,1-7.5974,38.4807c-6.52,15.7925-18.397,32.6542-40.1594,45.1985-15.86,9.1367-32.55,14.22-46.98,17.0073A179.5665,179.5665,0,0,1,118.1418,218c-1.8638,0-3.321-.0372-4.3071-.0742-.4929-.0184-.8684-.0367-1.1177-.05-.1248-.0068-.2183-.0123-.2791-.0161l-.084-.0055a2,2,0,0,0-.28,3.99h0c.041.0029,2.2344.1559,6.0684.1559a183.5241,183.5241,0,0,0,34.1313-3.3562c14.752-2.8518,31.86-8.0478,48.218-17.4684,22.5872-13.0016,35.0894-30.6906,41.8613-47.14a107.012,107.012,0,0,0,7.8989-40.0052,64.2467,64.2467,0,0,0-.2842-6.6453,1.9839,1.9839,0,0,0-.4231-1.01c5.0967,2.089,9.35,4.0712,12.5515,5.6661,2.2312,1.1115,3.9595,2.0359,5.125,2.68.5828.3218,1.0249.5734,1.3188.743.147.0848.2568.1492.3289.1917l.0793.0469.0217.013a2,2,0,0,0,2.061-3.4282Zm-126.7937-.4441a23.8618,23.8618,0,0,0-17.0374,7.81c-4.7158,5.0551-7.8875,12.4857-7.884,21.9667a2,2,0,0,1-4,0c0-9.6013,3.1384-18.0126,8.3069-24.03a27.1963,27.1963,0,0,1,20.5688-9.7465h.0249a2,2,0,0,1,1.999,1.9781v.0229a2.0008,2.0008,0,0,1-1.978,1.9991Z" class="fill"/>
  </g>
</svg>
