<svg xmlns="http://www.w3.org/2000/svg" viewBox="0 0 320 320">
  <title>_.miscellaneous.box-filled</title>
  <g id="cat">
    <path d="M262.0923,75.5042l-.0042-.01a.9836.9836,0,0,0-.1174-.2778c-.0149-.0247-.0337-.0453-.0505-.0685a1.0288,1.0288,0,0,0-.2231-.2227c-.0183-.0132-.0327-.03-.0522-.0424a.9977.9977,0,0,0-.1384-.0629c-.0249-.01-.0469-.0245-.0728-.033a.9892.9892,0,0,0-.2974-.0507l-.0171-.0029H126.2939a.9817.9817,0,0,0-.4473.1055L58.4336,108.546a.9881.9881,0,0,0-.2131.1561c-.0142.0126-.0334.0178-.0469.0312l-.0042.006a.9946.9946,0,0,0-.2026.3046c-.0117.0266-.0139.055-.0229.0825a.9706.9706,0,0,0-.0537.2684c-.001.0156-.0093.03-.0093.0456V244.2661a1,1,0,0,0,1,1H193.7061l.0171-.0034a.9866.9866,0,0,0,.3354-.0663c.0273-.01.0513-.025.0776-.0377a1,1,0,0,0,.1245-.0605l67.4131-44.9419a1,1,0,0,0,.4451-.832V75.7339a.9855.9855,0,0,0-.0239-.1862C262.0923,75.5331,262.0957,75.5188,262.0923,75.5042ZM192.7061,243.2661H59.8806V110.44H192.7061Z" class="fill"/>
  </g>
</svg>
