<svg xmlns="http://www.w3.org/2000/svg" viewBox="0 0 320 320">
  <title>_.misc.cat-outline</title>
  <g id="cat">
    <g>
      <path d="M267.8214,95.8792a6.7163,6.7163,0,0,0-2.3461-.3857,14.9309,14.9309,0,0,0-4.7683.944c-4.3876,1.5229-9.8141,4.741-15.7884,8.9439,2.5439-4.9792,4.7329-9.6687,6.3782-13.8509,2.0474-5.2215,3.2782-9.6348,3.2867-13.0017a8.7275,8.7275,0,0,0-.498-3.1157,4.7276,4.7276,0,0,0-1.7159-2.2542,4.9841,4.9841,0,0,0-2.8884-.8631A11.1979,11.1979,0,0,0,244.14,74.03a49.7544,49.7544,0,0,0-9.5092,7.6835c-3.1318,3.0786-6.4644,6.7624-9.8793,10.81a37.707,37.707,0,0,0-34.1539-22.2084l-.0321.0007c-2.9989-4.4244-6.6256-9.5555-9.9638-13.663a52.2686,52.2686,0,0,0-4.8412-5.3239,13.9672,13.9672,0,0,0-2.09-1.6353A4.0185,4.0185,0,0,0,171.6362,49a2.2259,2.2259,0,0,0-.39.0336,2.3028,2.3028,0,0,0-1.4866,1.0142,6.6188,6.6188,0,0,0-.9084,2.7205,25.731,25.731,0,0,0-.2347,3.7878,141.1623,141.1623,0,0,0,2.0513,19.6118q-.4638.2963-.9192.6047c-3.3747-1.4876-6.9736-2.9791-10.2427-4.1227-1.7155-.6-3.3383-1.1044-4.7969-1.463a16.8953,16.8953,0,0,0-3.8512-.5756,4.83,4.83,0,0,0-1.7609.28,2.3076,2.3076,0,0,0-1.3069,1.1953,2.7027,2.7027,0,0,0-.2151,1.1055,8.5363,8.5363,0,0,0,.9531,3.3441,47.99,47.99,0,0,0,3.9189,6.5486c1.5554,2.2641,3.36,4.6809,5.2119,7.063a39.195,39.195,0,0,0-4.7075,16.1477c-5.0588,1.0441-11.7258,2.8465-22.1253,4.9786a48.2714,48.2714,0,0,0-22.4313,11.125c-9.2532,8.1094-15.6375,19.5382-19.72,32.2806a134.17,134.17,0,0,0-5.8657,40.2945c0,3.6273.14,7.2042.3894,10.7069a119.7514,119.7514,0,0,0-14.3362-20.6827,64.4637,64.4637,0,0,0-8.5952-8.3978,22.6289,22.6289,0,0,0-3.737-2.4257,7.656,7.656,0,0,0-3.3-.9249,3.6473,3.6473,0,0,0-1.4791.2936,3.2173,3.2173,0,0,0-1.2083.9289,6.4927,6.4927,0,0,0-1.1979,2.6557A15.8045,15.8045,0,0,0,49,180.6523a56.1163,56.1163,0,0,0,1.92,12.6495c3.6262,14.6995,11.7482,34.4589,19.2445,47.6315,6.5507,11.5043,15.6915,18.5862,24.2234,22.1684l.0011.0086a2.0874,2.0874,0,0,0,.8006,1.0947,9.6714,9.6714,0,0,0,2.6179,1.2543,61.7414,61.7414,0,0,0,8.0839,2.002A221.1485,221.1485,0,0,0,143.3986,271a78.1091,78.1091,0,0,0,13.9374-1.0148,20.2686,20.2686,0,0,0,4.8025-1.4424,5.7328,5.7328,0,0,0,2.8654-2.5155,5.5684,5.5684,0,0,0,.546-2.4235,8.5344,8.5344,0,0,0-1.3826-4.3343,26.96,26.96,0,0,0-5.5945-6.1784,70.1431,70.1431,0,0,0-6.2828-4.7144q1.6163-1.0226,3.2194-2.1357a122.295,122.295,0,0,0,12.3329,10.2556,39.2141,39.2141,0,0,0,5.4838,3.3108,11.0394,11.0394,0,0,0,4.5345,1.2771,4.2073,4.2073,0,0,0,1.7385-.3447A5.8324,5.8324,0,0,0,182.6,257.437a13.6752,13.6752,0,0,0,.8007-5.0247c-.0049-4.4761-1.288-9.9479-2.7888-14.9174-1.3969-4.6132-2.9828-8.751-3.9547-11.1625a121.9421,121.9421,0,0,0,9.483-13.4253,119.9442,119.9442,0,0,0,12.138-26.7194c7.9-7.3765,25.8979-24.4583,42.0012-41.75a304.3421,304.3421,0,0,0,21.3739-25.1035,82.9939,82.9939,0,0,0,6.7531-10.4592c1.62-3.1236,2.5825-5.82,2.5933-8.1179a5.152,5.152,0,0,0-1.2763-3.6169A4.8821,4.8821,0,0,0,267.8214,95.8792Zm-1.188,12.071c-2.7167,5.2156-7.6068,11.8856-13.6127,19.1-18.0245,21.663-46.0828,48.3229-56.2952,57.8514a.9984.9984,0,0,0-.2734.4366,117.9051,117.9051,0,0,1-12.0194,26.5281,119.9823,119.9823,0,0,1-9.6931,13.6669,1,1,0,0,0-.1527,1.0121c.9233,2.2618,2.6357,6.6553,4.1111,11.5291,1.4778,4.8684,2.7079,10.238,2.703,14.3378a11.7641,11.7641,0,0,1-.6573,4.2812,3.8239,3.8239,0,0,1-1.9659,2.2222,2.2214,2.2214,0,0,1-.9174.1685,9.2261,9.2261,0,0,1-3.6741-1.0826,47.7464,47.7464,0,0,1-8.1652-5.3466c-3.066-2.3856-6.3875-5.282-9.7335-8.42a.9982.9982,0,0,0-1.2635-.0855q-2.525,1.7953-5.086,3.3481a1,1,0,0,0-.0273,1.6918,62.1136,62.1136,0,0,1,9.4545,7.3385,20.0444,20.0444,0,0,1,3.0873,3.77,6.5891,6.5891,0,0,1,1.0973,3.3047,3.5592,3.5592,0,0,1-.3506,1.561,3.8469,3.8469,0,0,1-1.92,1.5718,24.6273,24.6273,0,0,1-7.198,1.7245,91.5829,91.5829,0,0,1-10.683.5391,222.5014,222.5014,0,0,1-31.0955-2.4756,110.8761,110.8761,0,0,1-11.6747-2.2964,23.0741,23.0741,0,0,1-3.3944-1.1428,4.4212,4.4212,0,0,1-.822-.4632l-.0731-.0663a.9866.9866,0,0,0-.6025-1.0527c-8.2959-3.3361-17.3586-10.1874-23.8336-21.5591a213.9389,213.9389,0,0,1-14.1662-31.3664,160.9543,160.9543,0,0,1-4.8744-15.754A54.3147,54.3147,0,0,1,51,180.6523a13.8642,13.8642,0,0,1,.293-3.0725,4.55,4.55,0,0,1,.8022-1.8464,1.2085,1.2085,0,0,1,.461-.3589,1.655,1.655,0,0,1,.6736-.1243,5.7793,5.7793,0,0,1,2.4128.7174,29.045,29.045,0,0,1,6.3481,4.7461c7.1942,6.7,16.1092,18.6066,21.7371,30.3473a1,1,0,0,0,1.8959-.5385,147.33,147.33,0,0,1-.8151-15.5482c-.0029-17.73,3.1442-36.509,10.5342-51.6477a61.1869,61.1869,0,0,1,14.37-19.4231,46.2594,46.2594,0,0,1,21.515-10.67c10.9643-2.2486,17.8337-4.1386,22.8544-5.127a1.001,1.001,0,0,0,.8055-.9325,37.2188,37.2188,0,0,1,4.8264-16.6326,1.0024,1.0024,0,0,0-.0814-1.1107c-2.6325-3.3654-5.1854-6.8253-7.0618-9.7792a35.3509,35.3509,0,0,1-2.2269-3.954,6.8836,6.8836,0,0,1-.7688-2.5054.7561.7561,0,0,1,.0423-.2924c.0185-.0288.0176-.0628.2131-.1478a2.9426,2.9426,0,0,1,1.0275-.1409,15.0809,15.0809,0,0,1,3.374.5179,104.2473,104.2473,0,0,1,15.2078,5.69,1.0019,1.0019,0,0,0,.9812-.0964q.9095-.64,1.8595-1.2232a1.0026,1.0026,0,0,0,.4641-1.0126c-1.0226-6.2875-2.13-14.4351-2.1278-19.9312a19.1086,19.1086,0,0,1,.3777-4.3291,3.3269,3.3269,0,0,1,.411-1.0424c.1389-.189.1773-.1755.1882-.1815l.0026,0,.04-.0027a2.2442,2.2442,0,0,1,.9915.4,18.5068,18.5068,0,0,1,3.3954,3.0145c3.9921,4.2532,9.213,11.5776,13.1937,17.4739a.9981.9981,0,0,0,.8419.44c.2183-.0034.3964-.0145.539-.0141a35.7689,35.7689,0,0,1,32.9588,22.4644,1,1,0,0,0,1.6934.26A138.0432,138.0432,0,0,1,239.3137,80.08a36.927,36.927,0,0,1,5.8161-4.3129,9.3346,9.3346,0,0,1,4.3513-1.4718,2.9737,2.9737,0,0,1,1.7509.5082,2.72,2.72,0,0,1,.9858,1.3246,6.78,6.78,0,0,1,.3657,2.4c.0085,2.8774-1.1356,7.17-3.1479,12.27a176.2216,176.2216,0,0,1-8.2242,17.3776,1,1,0,0,0,1.478,1.2727,114.0506,114.0506,0,0,1,13.2946-8.69,37.8072,37.8072,0,0,1,5.3766-2.4307,13.023,13.023,0,0,1,4.1147-.8343,4.7364,4.7364,0,0,1,1.65.2608,2.8722,2.8722,0,0,1,1.1322.7463A3.157,3.157,0,0,1,269,100.757C269.0107,102.4688,268.1915,104.9777,266.6334,107.95Z" class="fill"/>
      <polygon points="171.245 49.034 171.246 49.033 171.247 49.033 171.245 49.034" class="fill"/>
      <polygon points="50.542 174.473 50.542 174.473 50.543 174.473 50.542 174.473" class="fill"/>
    </g>
  </g>
</svg>
