<svg xmlns="http://www.w3.org/2000/svg" viewBox="0 0 320 320">
  <title>_.miscellaneous.screw-filled</title>
  <g id="cat">
    <g>
      <path d="M99.5117,79.49l23.6675,13.24a1.0092,1.0092,0,0,0,.4883.1273h9.9087v59.3691a.9979.9979,0,0,0,.5134.8737l52.8813,29.4434a1,1,0,0,0,1.4865-.8737V92.8569H198.78a1.011,1.011,0,0,0,.5293-.1516l21.22-13.24A1.0022,1.0022,0,0,0,221,78.6172V63.8955a.999.999,0,0,0-.4521-.8366l-21.22-13.8955A.9982.9982,0,0,0,198.78,49H123.6675a.9892.9892,0,0,0-.5063.1376L99.4937,63.0331A1.0012,1.0012,0,0,0,99,63.8955V78.6172A1.0037,1.0037,0,0,0,99.5117,79.49Z" class="fill"/>
      <path d="M188.4574,196.3911a.998.998,0,0,0-.5134-.8737L135.0626,166.074a1,1,0,0,0-1.4865.8737v29.4434a.9979.9979,0,0,0,.5134.8737l52.8813,29.4438a1,1,0,0,0,1.4865-.8737Z" class="fill"/>
      <path d="M187.944,239.6829l-52.8813-29.4438a1,1,0,0,0-1.4865.8737v29.4438a.9979.9979,0,0,0,.5134.8737l52.8813,29.4434A1,1,0,0,0,188.4574,270V240.5566A.998.998,0,0,0,187.944,239.6829Z" class="fill"/>
    </g>
  </g>
</svg>
