<svg xmlns="http://www.w3.org/2000/svg" viewBox="0 0 320 320">
  <title>_.microphone-filled</title>
  <g id="camera">
    <g>
      <path d="M160,188.0868a35.2175,35.2175,0,0,0,26.2365-12.0734A43.1468,43.1468,0,0,0,197,147.1309V78.9561a43.1465,43.1465,0,0,0-10.7634-28.8827,34.5439,34.5439,0,0,0-52.4731,0A43.1465,43.1465,0,0,0,123,78.9561v68.1748a43.1465,43.1465,0,0,0,10.7634,28.8826A35.2175,35.2175,0,0,0,160,188.0868Z" class="fill"/>
      <path d="M205.5859,193.0464A72.7837,72.7837,0,0,0,222,146.4346a2,2,0,0,0-2-2H210a2,2,0,0,0-2,2A56.7891,56.7891,0,0,1,193.8676,184.45c-8.7195,9.6968-20.6736,15.6346-33.8676,15.6371-13.194-.0023-25.1481-5.94-33.8676-15.6371A56.7888,56.7888,0,0,1,112,146.4346a2,2,0,0,0-2-2H100a2,2,0,0,0-2,2,72.7836,72.7836,0,0,0,16.414,46.6118c9.8094,11.7991,23.3546,19.7971,38.586,21.6981v52.1246H139.0767a22.8518,22.8518,0,0,0-16.9828,7.8077,4.4271,4.4271,0,0,0-1.131,2.9706,4.542,4.542,0,0,0,1.0448,2.9119,4.0606,4.0606,0,0,0,1.3093,1.0347,3.9341,3.9341,0,0,0,1.7486.4059h69.8691a3.9348,3.9348,0,0,0,1.7484-.4058,4.15,4.15,0,0,0,1.7632-1.69,4.5942,4.5942,0,0,0,.5908-2.2563,4.4279,4.4279,0,0,0-1.131-2.9709,22.8515,22.8515,0,0,0-16.9825-7.8075H167V214.7445C182.2313,212.8435,195.7765,204.8455,205.5859,193.0464Z" class="fill"/>
    </g>
  </g>
</svg>
