<svg xmlns="http://www.w3.org/2000/svg" viewBox="0 0 320 320">
  <title>_.misc.hummingbird-outline</title>
  <g id="cat">
    <path d="M300.1218,116.8477a426.8245,426.8245,0,0,0-46.7689-2.5071,322.9257,322.9257,0,0,0-44.7041,2.8554c-5.5789.7931-10.9455,1.8657-16.1252,3.1221.2285-.282.4625-.5742.7074-.8881a31.6679,31.6679,0,0,0,3.9783-7.3126c.9219-2.2789,1.4271-4.0178,1.4338-4.04a1.0012,1.0012,0,0,0-.5439-1.188l-.7145-.3273a18.6089,18.6089,0,0,0,2.0282-3.48,49.6613,49.6613,0,0,0,2.566-7.7556c.4069-1.5538.8405-3.7411,1.1781-5.5577.3368-1.8143.5742-3.2485.5749-3.2527a1,1,0,0,0-.856-1.1547l-1.0217-.1345a21.1983,21.1983,0,0,0,1.4106-3.95,99.2734,99.2734,0,0,0,1.7708-10.02,22.2063,22.2063,0,0,0,.238-3.1575A10.8518,10.8518,0,0,0,204.36,63.13a.998.998,0,0,0-.8987-.5158l-.759.0179a19.9223,19.9223,0,0,0,.4385-4.7076c0-1.5085-.0876-3.3732-.313-5.6821a30.5467,30.5467,0,0,0-2.4612-8.73,39.2542,39.2542,0,0,0-1.9953-4.0209,1.0021,1.0021,0,0,0-1.1647-.4441c-.1354.0416-31.781,10.168-66.0471,51.36a199.0848,199.0848,0,0,0-18.3453,25.5789c-2.447-5.733-7.3505-10.71-14.3347-14.3894a22.55,22.55,0,0,0-10.6819-2.7344c-5.4937.0035-10.3851,2.0043-14.7147,3.9346-2.165.9674-4.1932,1.9215-6.0714,2.6213a15.077,15.077,0,0,1-5.1373,1.1394,7.2347,7.2347,0,0,1-1.4734-.1453,52.7275,52.7275,0,0,1-7.85-2.5557c-3.0984-1.2181-6.5447-2.7286-9.976-4.3129-5.2726-2.4337-10.512-5.0428-14.4307-7.0423-1.9595-1-3.5889-1.8473-4.7279-2.4446s-1.7837-.9421-1.7855-.9431a1.0015,1.0015,0,0,0-1.2846.2993l-1.1592,1.6177a1,1,0,0,0,.3517,1.47c.0017.0009.6224.3235,1.7136.9037,3.2731,1.7405,10.7455,5.7826,18.0629,10.2166l0,0c3.98,2.4083,8.1316,4.96,11.5138,7.3152a52.8626,52.8626,0,0,1,4.3671,3.3305,12.0914,12.0914,0,0,1,2.431,2.6378,22.312,22.312,0,0,1,2.0089,6.8305c.8,4.2881,1.568,9.5566,3.996,14.5834a26.1383,26.1383,0,0,0,13.9062,12.9428c.3809.1639.7695.3123,1.1567.4633a.9982.9982,0,0,0,.5987.3792c.3442.0668.6719.1434,1.0337.2209a28.537,28.537,0,0,0,4.0092,1.0314c4.3047,1.3426,6.752,3.0092,8.2527,4.99a12.4924,12.4924,0,0,1,2.1727,5.2837c.6172,3.0884.6916,6.8911,1.256,11.3721a51.847,51.847,0,0,0,4.2988,15.4687A149.9918,149.9918,0,0,0,113.89,214.8279c3.7643,5.354,6.6913,8.4552,8.369,10.6319a7.9106,7.9106,0,0,1,1.5,3.007,38.776,38.776,0,0,1,.5251,5.0668,19.7965,19.7965,0,0,0,2.28,7.4014,1.0015,1.0015,0,0,0,1.3094.444l4.3609-2.0342a21.134,21.134,0,0,0-2.7549,10.1968,18.3438,18.3438,0,0,0,2.7661,9.8768.999.999,0,0,0,.6931.4175,2.7819,2.7819,0,0,0,.351.0217,4.1269,4.1269,0,0,0,2.0938-.6729,21.1411,21.1411,0,0,0-.8337,5.9535,30.8582,30.8582,0,0,0,2.1371,10.7732,31.5679,31.5679,0,0,0,2.1489,4.6036,1.0005,1.0005,0,0,0,1.0792.46c4.2834-.9775,7.8769-3.9026,10.8768-7.943,4.5021-6.0722,7.7708-14.7354,10.1163-23.8911A166.3686,166.3686,0,0,0,165.3,222.3426c.6943-8.46,1.1591-13.85,1.16-18.0461a32.7384,32.7384,0,0,0-.7406-7.4436c9.8154,2.1973,19.0528,3.7963,19.0622,3.798a1,1,0,0,0,1.158-.8276l.2944-1.8433c.3724.0964.82.2057,1.3277.316a25.1953,25.1953,0,0,0,5.1425.6261,12.4806,12.4806,0,0,0,1.8292-.1248c1.6963-.2556,4.7858-1.0106,7.5051-1.7081,2.7112-.6967,5.0172-1.3322,5.0206-1.3331a1,1,0,0,0,.6739-1.3065l-.3749-1.0286c1.0306-.0757,2.5583-.1937,4.2156-.3409,1.4882-.1323,3.0792-.288,4.51-.4588,1.4338-.1718,2.6946-.3541,3.58-.5574l-.0009,0a18.9317,18.9317,0,0,0,2.9319-1.0505c3.3089-1.4233,7.4389-3.6726,7.4529-3.6794a.998.998,0,0,0,.4847-1.1494l-.2061-.7324a26.09,26.09,0,0,0,2.8079-.2245,21.7934,21.7934,0,0,0,6.12-1.7737c1.2158-.5551,2.892-1.4608,4.7529-2.5185,5.5723-3.169,12.74-7.6866,12.7462-7.6906a1.004,1.004,0,0,0,.4668-.8339l.0292-2.409a14.5227,14.5227,0,0,0,6.412-2.0591c1.0408-.6546,2.4563-1.6824,4.0229-2.8713,4.69-3.5613,10.6776-8.5449,10.6835-8.55a1,1,0,0,0,.09-1.4526l-1.5789-1.6842c1.4535-.9274,4.1616-3.0425,8.3395-7.7957a49.7231,49.7231,0,0,0,4.1851-5.8486c1.208-1.9156,2.07-3.4357,2.0746-3.4447a.9982.9982,0,0,0-.2568-1.283l-.8192-.6359a43.2966,43.2966,0,0,0,5.8223-6.8892l-.8111-.5848.8113.5846a35.3677,35.3677,0,0,0,4.733-9.3587,1,1,0,0,0-.8356-1.2815Zm-5.52,9.4709h0a47.9354,47.9354,0,0,1-4.9471,6.0176,11.971,11.971,0,0,1-1.1025.9822c-.1112.0849-.1866.136-.2271.1622l-.0345.0215.0012.002a.9975.9975,0,0,0-.1324,1.6642l1.1452.889c-.44.75-1.1786,1.9819-2.0508,3.3353a44.0551,44.0551,0,0,1-3.5375,4.8763,49.2282,49.2282,0,0,1-6.8311,6.67,13.4983,13.4983,0,0,1-1.5589,1.05c-.1606.09-.2722.1436-.3359.1724l-.06.0258-.0032.0012.0006.0017a.998.998,0,0,0-.39,1.6227l1.7333,1.8489q-.3794.3129-.9017.7418c-1.5857,1.3008-4.058,3.3112-6.4989,5.2249-2.436,1.911-4.8615,3.7365-6.2728,4.6215a13.5912,13.5912,0,0,1-6.4247,1.8442,1.001,1.001,0,0,0-.9124.9841l-.0334,2.764c-.3564.2232-.9013.5636-1.5969.995-1.8963,1.1762-4.8508,2.9908-7.76,4.7061-2.9037,1.7133-5.7842,3.3354-7.4464,4.0918a19.787,19.787,0,0,1-5.563,1.6119,31.2282,31.2282,0,0,1-3.8707.2382,1,1,0,0,0-.9377,1.2706l.3371,1.1979c-.87.4618-2.4432,1.283-4.1048,2.0843-.9724.469-1.9734.93-2.87,1.3037a15.3378,15.3378,0,0,1-2.2.7736l-.0009,0c-.7363.1709-1.9707.3542-3.3675.52-2.1.2507-4.5923.4725-6.5545.6307-.9813.0792-1.8306.1425-2.4342.1861s-.9589.0671-.96.0672a1,1,0,0,0-.8734,1.34l.4567,1.2531c-.1387.0375-.2748.0743-.4362.1176-1.3657.367-3.4905.929-5.5673,1.4426-2.0718.5131-4.1166.98-5.24,1.1464a10.5171,10.5171,0,0,1-1.5341.103,23.2876,23.2876,0,0,1-4.7183-.5806c-.6743-.1463-1.2453-.2929-1.645-.4022-.2-.0546-.3569-.1-.4626-.1312l-.1192-.0357-.036-.0111a1,1,0,0,0-1.2872.7963l-.3109,1.9462q-.33-.059-.7578-.1365c-3.3586-.6085-11.054-2.0494-18.7921-3.8239a1,1,0,0,0-1.1853,1.2485,29.2213,29.2213,0,0,1,1.07,8.5046c.001,4.0467-.4577,9.4213-1.1534,17.8829-.8583,10.5315-3.04,24.0071-6.9514,35.2169a54.8609,54.8609,0,0,1-7.1688,14.4434c-2.6453,3.5612-5.6459,5.9971-9.0046,6.98a31.2544,31.2544,0,0,1-3.6317-13.6814,17.6738,17.6738,0,0,1,2.8789-9.9822,1,1,0,0,0-1.6508-1.1289l-.0271.038a18.5054,18.5054,0,0,1-1.8391,2.153,8.9323,8.9323,0,0,1-1.46,1.2011,3.051,3.051,0,0,1-.8521.39,16.9642,16.9642,0,0,1-2.12-8.2675,20.1581,20.1581,0,0,1,4.2077-11.9471,1,1,0,0,0-1.2333-1.4919l-6.53,3.0461a18.7206,18.7206,0,0,1-1.7892-7.6274,18.9692,18.9692,0,0,0-.4358-3.5413,9.9331,9.9331,0,0,0-1.8575-3.7427c-1.79-2.3143-4.6151-5.2966-8.3157-10.56a147.9994,147.9994,0,0,1-13.389-24.0364c-4.5406-9.9662-4.26-17.7759-5.0481-24.0964-.3972-3.1522-1.0769-5.9874-2.9042-8.405s-4.73-4.2932-9.28-5.7023l-.1244-.03a26.5363,26.5363,0,0,1-3.8917-1.0013l-.11-.03c-.1753-.0374-.3517-.0769-.5349-.1171a.9876.9876,0,0,0-.3035-.19q-.8177-.3047-1.61-.645a25.177,25.177,0,0,1-10.08-7.4576c-3.4274-4.3193-4.8552-9.355-5.8007-14.0566-.4734-2.3493-.8254-4.608-1.2629-6.6487a18.3079,18.3079,0,0,0-1.8345-5.37,13.8265,13.8265,0,0,0-2.8431-3.1337c-3.7762-3.2772-10.1692-7.22-16.1575-10.8474l0,0c-5.965-3.6143-12.0084-6.9568-15.8432-9.0292,3.9849,2.0641,10.5684,5.4043,17.2281,8.4784,3.4549,1.5953,6.9307,3.1193,10.0824,4.3584a54.4376,54.4376,0,0,0,8.176,2.6528,9.2323,9.2323,0,0,0,1.88.1869,16.9777,16.9777,0,0,0,5.8362-1.2654c2.9843-1.1152,6.1212-2.7374,9.4652-4.0659a28.71,28.71,0,0,1,10.622-2.364,20.5359,20.5359,0,0,1,9.7494,2.5037c7.4454,3.9271,12.2191,9.2625,14.1147,15.2292a1,1,0,0,0,1.8206.1946,192.92,192.92,0,0,1,19.2148-27.1036c16.99-20.4231,33.3017-33.1146,45.3506-40.6982a122.2338,122.2338,0,0,1,14.4272-7.87c1.722-.7819,3.0654-1.326,3.974-1.6734q.3389-.13.5958-.223c.3927.7315,1.0254,1.9741,1.67,3.5178a27.9735,27.9735,0,0,1,2.1223,7.6982c.22,2.254.3035,4.0557.3035,5.4868a17.0017,17.0017,0,0,1-.4288,4.4209,3.0547,3.0547,0,0,1-.2345.6263l-.0241.0411-.0046.007.0071.0052a.9912.9912,0,0,0,.7762,1.6425l1.5814-.0373a11.4291,11.4291,0,0,1,.4594,3.4691,20.218,20.218,0,0,1-.2177,2.8734,97.7592,97.7592,0,0,1-1.7277,9.8047,20.28,20.28,0,0,1-1.8807,4.7972,1,1,0,0,0,.7572,1.4517l1.38.1818c-.3065,1.7673-.9758,5.4611-1.54,7.6094a47.8078,47.8078,0,0,1-2.4531,7.4379,16.7088,16.7088,0,0,1-2.5455,4.0465,1,1,0,0,0,.3517,1.5494l1.0663.4884c-.2531.772-.6851,2.0148-1.2791,3.4426a28.9351,28.9351,0,0,1-3.5309,6.4175c-1.0565,1.3545-1.9442,2.3792-2.6742,3.16a1,1,0,0,0,.9829,1.6506A169.6117,169.6117,0,0,1,208.93,119.176a320.9809,320.9809,0,0,1,44.4225-2.8354c13.1064,0,24.7448.6236,33.1027,1.2471,4.179.3118,7.5379.6235,9.85.857.9756.0986,1.7524.182,2.3386.2468A33.8749,33.8749,0,0,1,294.6018,126.3187Z" class="fill"/>
  </g>
</svg>
