<svg xmlns="http://www.w3.org/2000/svg" viewBox="0 0 320 320">
  <title>_.miscellaneous.bullet-filled</title>
  <g id="cat">
    <g>
      <path d="M105.5126,237.283c5.0727,5.35,13.8652,12.1055,28.7546,17.8989A81.0727,81.0727,0,0,0,163.7767,261c16.1476-.0016,25.8648-5.4782,25.9661-5.5347a.9967.9967,0,0,0,.469-.595l25.0869-87.5459a1,1,0,0,0-.7091-1.2432L119.1624,141.209a1,1,0,0,0-1.2286.7515l-18.91,85.3843a1.0076,1.0076,0,0,0,.0282.534C99.091,227.9984,100.4387,231.9341,105.5126,237.283Z" class="fill"/>
      <path d="M121.7961,131.3358l95.4292,24.87a1.0019,1.0019,0,0,0,1.2188-.7115A78.3362,78.3362,0,0,0,221,135.3676c-.004-20.23-7.141-39.2023-14.2547-53.1327A147.5025,147.5025,0,0,0,192.49,59.3755a1.0015,1.0015,0,0,0-1.1552-.3029,154.7565,154.7565,0,0,0-30.3458,17.56c-15.9426,11.7515-33.5393,29.4836-39.9078,53.4793a1,1,0,0,0,.7145,1.2239Z" class="fill"/>
    </g>
  </g>
</svg>
