<svg xmlns="http://www.w3.org/2000/svg" viewBox="0 0 320 320">
  <title>_.miscellaneous.cat</title>
  <g id="cat">
    <path d="M267.8207,95.8787a6.72,6.72,0,0,0-2.347-.3859,19.7787,19.7787,0,0,0-7.863,2.21,86.9922,86.9922,0,0,0-12.688,7.6695c2.5423-4.9763,4.73-9.6628,6.3743-13.8427,2.0472-5.2211,3.278-9.634,3.2865-13.0008a8.7275,8.7275,0,0,0-.498-3.1157,4.7278,4.7278,0,0,0-1.7159-2.2542h0a4.9858,4.9858,0,0,0-2.8893-.8633,11.2,11.2,0,0,0-5.3412,1.7333,49.74,49.74,0,0,0-9.5093,7.6822c-3.1318,3.0783-6.4644,6.7618-9.8793,10.8094a37.7072,37.7072,0,0,0-34.1528-22.206l-.0322.0006c-2.999-4.4244-6.6256-9.5555-9.9638-13.663a52.2811,52.2811,0,0,0-4.8412-5.3238,13.9705,13.9705,0,0,0-2.09-1.6353A4.0183,4.0183,0,0,0,171.6362,49a2.2366,2.2366,0,0,0-.39.0334,2.3018,2.3018,0,0,0-1.4868,1.0143,6.6188,6.6188,0,0,0-.9085,2.7206,25.74,25.74,0,0,0-.2347,3.7878,141.1013,141.1013,0,0,0,2.0494,19.6c-.312.1994-.62.4048-.9253.6132-3.3724-1.4865-6.9682-2.9765-10.2347-4.1191-1.7155-.6-3.3383-1.1044-4.7969-1.463a16.8982,16.8982,0,0,0-3.8511-.5756,4.83,4.83,0,0,0-1.761.28,2.3074,2.3074,0,0,0-1.3069,1.1953,2.7019,2.7019,0,0,0-.2151,1.1055,8.5351,8.5351,0,0,0,.9531,3.3441,47.9965,47.9965,0,0,0,3.9189,6.5486c1.5554,2.2642,3.36,4.6811,5.2121,7.0632a39.2182,39.2182,0,0,0-4.692,16.1445c-5.0607,1.0433-11.73,2.8477-22.141,4.9817a48.2713,48.2713,0,0,0-22.4313,11.125c-9.2532,8.1094-15.6376,19.5382-19.72,32.2806a134.1677,134.1677,0,0,0-5.8657,40.2945c0,3.6273.14,7.204.3894,10.7067a119.75,119.75,0,0,0-14.3362-20.6825,64.46,64.46,0,0,0-8.5952-8.3978,22.6286,22.6286,0,0,0-3.7369-2.4257,7.6562,7.6562,0,0,0-3.3-.9249,3.6473,3.6473,0,0,0-1.4791.2936,3.2171,3.2171,0,0,0-1.2083.929,6.4915,6.4915,0,0,0-1.1978,2.6556A15.8009,15.8009,0,0,0,49,180.6523a56.1157,56.1157,0,0,0,1.92,12.6495c3.6262,14.6995,11.7482,34.4589,19.2446,47.6315,6.5507,11.5043,15.6916,18.5864,24.2235,22.1685l.0012.0093a2.0872,2.0872,0,0,0,.8,1.0939,9.6709,9.6709,0,0,0,2.6179,1.2543,61.7452,61.7452,0,0,0,8.084,2.002A221.1479,221.1479,0,0,0,143.3986,271a78.1088,78.1088,0,0,0,13.9373-1.0148,20.2682,20.2682,0,0,0,4.8026-1.4424,5.7328,5.7328,0,0,0,2.8654-2.5155,5.5684,5.5684,0,0,0,.546-2.4235,8.535,8.535,0,0,0-1.3826-4.3343,26.9612,26.9612,0,0,0-5.5945-6.1784,70.1545,70.1545,0,0,0-6.2849-4.7157q1.6157-1.026,3.2158-2.1395a122.3322,122.3322,0,0,0,12.3356,10.2588,39.2332,39.2332,0,0,0,5.4854,3.3122,11.0408,11.0408,0,0,0,4.5357,1.2776,4.207,4.207,0,0,0,1.7386-.3447,5.8325,5.8325,0,0,0,3.0014-3.3026,13.677,13.677,0,0,0,.8006-5.0248c-.0049-4.4732-1.2862-9.9407-2.7858-14.9075-1.3959-4.6112-2.9813-8.7488-3.9543-11.1634a121.7975,121.7975,0,0,0,9.48-13.4341,119.9426,119.9426,0,0,0,12.138-26.7193c7.9-7.3765,25.8979-24.4583,42.0012-41.75a304.3405,304.3405,0,0,0,21.3738-25.1035,82.9829,82.9829,0,0,0,6.7531-10.4592c1.62-3.1236,2.5826-5.82,2.5933-8.1179a5.1523,5.1523,0,0,0-1.2762-3.6168A4.8839,4.8839,0,0,0,267.8207,95.8787Zm-28.5082-15.8a36.9175,36.9175,0,0,1,5.8161-4.312,9.3365,9.3365,0,0,1,4.3516-1.4714,2.9756,2.9756,0,0,1,1.7517.5084l.5688-.8224-.5688.8225a2.7208,2.7208,0,0,1,.9858,1.3245,6.78,6.78,0,0,1,.3657,2.4c.0085,2.8772-1.1355,7.17-3.1478,12.2687a175.2685,175.2685,0,0,1-8.121,17.18c-.1193.0884-.24.1807-.36.27-.4559.3394-.9121.68-1.3724,1.0281-.2136.1617-.4288.3271-.6433.4907-.5129.3911-1.0265.7838-1.5439,1.1849-.1306.1012-.262.2048-.3928.3066-3.2868,2.5577-6.6526,5.3008-10.0234,8.1422.1412-.5213.2741-1.0462.3943-1.5761.0112-.0493.0194-.1.03-.1492.115-.5157.2229-1.0344.3176-1.5577.01-.0571.0172-.1154.0273-.1725.0912-.5172.1758-1.0368.2468-1.5609.0091-.0671.0141-.1356.0228-.2028.0671-.5155.1282-1.033.1752-1.5547.0386-.4279.0624-.86.0872-1.292.0094-.1635.0256-.3251.033-.489q.04-.8964.0405-1.803a39.475,39.475,0,0,0-2.7289-14.452A135.87,135.87,0,0,1,239.3125,80.0789ZM170.9942,52.2268a3.3268,3.3268,0,0,1,.411-1.0424c.1389-.189.1772-.1755.1881-.1814L171.6362,51a2.2451,2.2451,0,0,1,.9915.4,18.51,18.51,0,0,1,3.3953,3.0145c3.6623,3.9019,8.3563,10.3859,12.1807,15.9836a36.7482,36.7482,0,0,0-8.061,1.43l-.0449.0135a36.89,36.89,0,0,0-4.4933,1.6569c-.0361.0161-.0729.0309-.109.0471-.6747.3027-1.3375.6277-1.9909.9689-.1.0523-.2006.1045-.3.1577q-.3467.185-.6895.3764a135.3277,135.3277,0,0,1-1.8981-18.4921A19.113,19.113,0,0,1,170.9942,52.2268Zm-11.28,38.3146a1.0025,1.0025,0,0,0-.0815-1.1107c-2.6325-3.3654-5.1854-6.8253-7.0618-9.7792a35.3509,35.3509,0,0,1-2.2269-3.954,6.8836,6.8836,0,0,1-.7688-2.5054.7554.7554,0,0,1,.0424-.2923c.0185-.0289.0176-.0629.2131-.1478a2.9424,2.9424,0,0,1,1.0275-.1409,15.0819,15.0819,0,0,1,3.374.5179,104.2473,104.2473,0,0,1,15.2078,5.69,1.0016,1.0016,0,0,0,.981-.0963c.6656-.4681,1.3508-.9082,2.0474-1.33.254-.1539.5164-.2941.7744-.4416.4564-.2612.915-.5187,1.3834-.76.313-.1608.632-.3108.95-.4624.4229-.2018.8488-.3978,1.28-.5828q.5334-.2283,1.0757-.4385c.402-.1567.8083-.3038,1.2171-.4459.3939-.1366.7884-.2717,1.1882-.3944.3792-.1168.7642-.2192,1.1485-.3232.4349-.1173.8685-.2385,1.31-.3392.3316-.076.6694-.1337,1.0045-.2a35.0134,35.0134,0,0,1,5.5483-.6414c.4169-.0148.8288-.0493,1.2493-.0493a35.7687,35.7687,0,0,1,32.9577,22.4618v0a37.4719,37.4719,0,0,1,2.7986,14.2656q0,.8614-.0386,1.7131c-.0045.0984-.0146.1953-.02.2935-.0247.468-.0527.9352-.0944,1.3982-.035.389-.0837.7736-.1306,1.1589-.0206.1695-.0346.3411-.0574.51-.0512.3781-.1157.7517-.178,1.1261-.0288.1729-.0511.348-.0823.52-.0643.3556-.1415.7064-.2158,1.0583-.0395.187-.0724.3763-.1147.5622-.0947.4169-.202.8287-.31,1.24-.0308.1169-.0565.2361-.0883.3526-.1193.4356-.2507.8658-.3849,1.2947-.028.0895-.0516.1809-.08.27q-.2488.7745-.53,1.5338l-.0035.01A35.813,35.813,0,0,1,190.5977,145.77a35.1727,35.1727,0,0,1-25.2742-10.7484,37.1144,37.1144,0,0,1-10.4822-25.98c0-.6122.03-1.2327.0618-1.87A37.2485,37.2485,0,0,1,159.7139,90.5414ZM181.401,252.412a11.7663,11.7663,0,0,1-.6573,4.2814,3.8242,3.8242,0,0,1-1.9658,2.2224,2.2219,2.2219,0,0,1-.9175.1685,9.2285,9.2285,0,0,1-3.6752-1.0831,47.7607,47.7607,0,0,1-8.1678-5.3489c-2.7959-2.1756-5.8062-4.7875-8.8516-7.608a98.8909,98.8909,0,0,0,9.3959-7.8051,110.52,110.52,0,0,0,8.6427-9.1488c.9612,2.4418,2.3032,6.05,3.4966,9.9935C180.1774,242.95,181.4059,248.3149,181.401,252.412ZM266.6332,107.95c-2.7167,5.2156-7.6068,11.8856-13.6127,19.1-18.0245,21.663-46.0828,48.3229-56.2952,57.8514a.9984.9984,0,0,0-.2734.4366,117.9048,117.9048,0,0,1-12.0193,26.5281,119.7189,119.7189,0,0,1-9.6895,13.6754h0c-.8354,1.0176-1.6843,2.0084-2.5414,2.9815q-2.2331,2.5354-4.5529,4.87a98.0646,98.0646,0,0,1-12.631,10.75c-1.6837,1.1967-3.3784,2.32-5.08,3.3542a1,1,0,0,0-.0272,1.6918,62.116,62.116,0,0,1,9.4544,7.3385,20.042,20.042,0,0,1,3.0873,3.77,6.5885,6.5885,0,0,1,1.0973,3.3047,3.5591,3.5591,0,0,1-.3505,1.561,3.8472,3.8472,0,0,1-1.92,1.5718,24.6283,24.6283,0,0,1-7.198,1.7245,91.5837,91.5837,0,0,1-10.683.5391,222.5014,222.5014,0,0,1-31.0955-2.4756,110.8761,110.8761,0,0,1-11.6747-2.2964,23.0741,23.0741,0,0,1-3.3944-1.1428,4.4212,4.4212,0,0,1-.822-.4632l-.0731-.0663a.9867.9867,0,0,0-.6025-1.0527c-8.2959-3.3361-17.3586-10.1874-23.8336-21.5591a213.9325,213.9325,0,0,1-14.1662-31.3664,160.9389,160.9389,0,0,1-4.8745-15.754A54.3147,54.3147,0,0,1,51,180.6523a13.8669,13.8669,0,0,1,.293-3.0724,4.55,4.55,0,0,1,.8022-1.8465,1.2091,1.2091,0,0,1,.4611-.3589,1.6546,1.6546,0,0,1,.6736-.1243,5.7791,5.7791,0,0,1,2.4128.7174,29.0435,29.0435,0,0,1,6.3481,4.7461c7.1943,6.7,16.1093,18.6066,21.7372,30.3473a1,1,0,0,0,1.8959-.5386,147.3277,147.3277,0,0,1-.8151-15.5481c-.0029-17.73,3.1442-36.509,10.5342-51.6477a61.1869,61.1869,0,0,1,14.37-19.4231,46.2594,46.2594,0,0,1,21.515-10.67c10.1068-2.0723,16.729-3.8386,21.636-4.8765-.0065.23-.0223.4491-.0223.685a39.116,39.116,0,0,0,11.05,27.3753A37.1756,37.1756,0,0,0,190.5977,147.77a37.8013,37.8013,0,0,0,35.2061-24.7436q1.9752-1.69,3.9519-3.3415.2457-.2051.4913-.4089,2.6815-2.2312,5.33-4.346.6587-.5256,1.3145-1.0439.6025-.4752,1.2014-.9423.8532-.6649,1.6971-1.31c.2749-.2105.5523-.4263.8257-.6337,2.8314-2.1475,5.58-4.1288,8.1854-5.871a74.6153,74.6153,0,0,1,9.6523-5.613,17.9946,17.9946,0,0,1,7.02-2.0236,4.7379,4.7379,0,0,1,1.6511.261,2.8728,2.8728,0,0,1,1.1329.7467A3.1574,3.1574,0,0,1,269,100.757C269.0106,102.4688,268.1914,104.9777,266.6332,107.95Z" class="fill"/>
  </g>
</svg>
