<svg xmlns="http://www.w3.org/2000/svg" viewBox="0 0 320 320">
  <title>_.music-play-pause-outline</title>
  <g id="camera">
    <g>
      <path d="M220,262h20a2,2,0,0,0,2-2V60a2,2,0,0,0-2-2H220a2,2,0,0,0-2,2V260a2,2,0,0,0,2,2Zm18-4H222l0-196h16Z" class="fill"/>
      <path d="M258.5857,58.5858A2.0126,2.0126,0,0,0,258,60V260a2,2,0,0,0,2,2h20a2,2,0,0,0,2-2V60a2,2,0,0,0-2-2H260A2.0128,2.0128,0,0,0,258.5857,58.5858ZM278,258H262l0-196h16Z" class="fill"/>
      <path d="M29.0068,261.7361a2.0075,2.0075,0,0,0,2.0071-.0123l170-100a2,2,0,0,0,0-3.4476l-170-100A2,2,0,0,0,28,60V260A2.0071,2.0071,0,0,0,29.0068,261.7361ZM32,256.5031V63.4967L196.0552,160Z" class="fill"/>
    </g>
  </g>
</svg>
