<svg xmlns="http://www.w3.org/2000/svg" viewBox="0 0 320 320">
  <title>_.note</title>
  <g id="camera">
    <path d="M281.9229,219.4734a1.9763,1.9763,0,0,0-.2588-.5829l-100-150a1.9868,1.9868,0,0,0-.3633-.4027c-.0427-.0366-.0908-.063-.1362-.0958a1.9825,1.9825,0,0,0-.3132-.1912c-.0591-.028-.1194-.048-.1809-.07a1.9552,1.9552,0,0,0-.5332-.1138c-.0464-.0032-.09-.0171-.1372-.0171H50a2,2,0,0,0-2,2V290a2,2,0,0,0,2,2H280a2,2,0,0,0,2-2V220a1.9787,1.9787,0,0,0-.0475-.325A1.9112,1.9112,0,0,0,281.9229,219.4734ZM52,288V72H177.4385L158.06,149.5149a2.0026,2.0026,0,0,0,.9325,2.2126L278,221.1487V288Z" class="fill"/>
  </g>
</svg>
