<svg xmlns="http://www.w3.org/2000/svg" viewBox="0 0 320 320">
  <title>_.note-filled</title>
  <g id="camera">
    <path d="M281.9667,159.6689a2.0058,2.0058,0,0,0-.16-.5094c-.0179-.0387-.0392-.0742-.06-.1118a1.9813,1.9813,0,0,0-.3328-.462l-100-100a1.98,1.98,0,0,0-.4191-.31c-.0415-.024-.0825-.0459-.1254-.0668a2.0132,2.0132,0,0,0-.4681-.1665l-.0262-.0049A1.972,1.972,0,0,0,180,58H50a2,2,0,0,0-2,2V280a2,2,0,0,0,2,2H280a2,2,0,0,0,2-2V160a1.9525,1.9525,0,0,0-.0221-.22C281.9736,159.7427,281.9729,159.7062,281.9667,159.6689ZM182,138.36V64.8282l91.9149,91.915Z" class="fill"/>
  </g>
</svg>
