<svg xmlns="http://www.w3.org/2000/svg" viewBox="0 0 320 320">
  <title>_.pencil-tip-outline</title>
  <g id="camera">
    <g>
      <path d="M68.89,281.6637a2.0006,2.0006,0,0,0,2.0125.121l55.3784-28.0083.0027-.002,40.6-20.5328.01-.0034L184.76,224.2a2.0253,2.0253,0,0,0,.7581-.6705q33.0725-49.3052,66.1431-98.6108a2.0027,2.0027,0,0,0,.3356-1.2312L249.3247,78.145a2,2,0,0,0-3.6575-.9969q-37.8325,56.4045-75.6646,112.8086a1.9847,1.9847,0,0,0-.32.8361Q167.6046,205.6,165.52,220.406l-39.0087,19.7283c-2.1774-7.36-7.1353-13.8472-13.4226-18.6611a40.9009,40.9009,0,0,0-24.3148-8.6876,31.9077,31.9077,0,0,0-3.6364.214l3.1987-43.152,25.98-15.3171a1.97,1.97,0,0,0,.6452-.6088l75.666-112.8076a2,2,0,0,0-2.3244-3.0009L144.8287,53.4a2.0179,2.0179,0,0,0-.9975.7726L77.6891,152.7838a1.9823,1.9823,0,0,0-.3336.9661l-1.4687,19.792,0,.0072q-3.9409,53.1517-7.8818,106.303A2,2,0,0,0,68.89,281.6637Zm77.8926-224.71,37.1716-13.0709-72.061,107.433-26.49,15.6178a2,2,0,0,0-.9788,1.575l-3.4619,46.7026a2,2,0,0,0,2.3929,2.1078,27.2,27.2,0,0,1,5.4183-.5333c7.5743-.0079,15.5189,2.9884,21.8846,7.8647,6.3755,4.8713,11.1227,11.5774,12.5687,18.79A2,2,0,0,0,126.09,244.83l42.1675-21.3257a1.9978,1.9978,0,0,0,1.0779-1.5059q2.1258-15.0961,4.2448-30.1943Q209.6279,138.056,245.68,84.3105L247.964,123.25q-32.7363,48.81-65.4766,97.6173l-17.39,8.797-.01.0034-40.6123,20.5391-.0024.0016-52.2171,26.41q3.81-51.39,7.6205-102.78l0-.007,1.4291-19.2573Z" class="fill"/>
      <path d="M139.1112,154.55l-8.7632,32.0752a2,2,0,0,0,3.1523,2.1095l26.4565-20.4463a1.938,1.938,0,0,0,.437-.4669c24.4913-36.4443,46.9691-74.4482,61.8975-115.7195a2,2,0,0,0-3.4687-1.8961l-79.37,103.6553A2.0479,2.0479,0,0,0,139.1112,154.55ZM213.544,63.6787c-14.5232,35.7854-34.5549,69.2819-56.2924,101.6448l-21.4706,16.593,7.0856-25.9351Z" class="fill"/>
    </g>
  </g>
</svg>
