<svg xmlns="http://www.w3.org/2000/svg" viewBox="0 0 320 320">
  <title>_.pencil-tip-filled</title>
  <g id="camera">
    <g>
      <path d="M139.1112,154.55l-8.7632,32.0752a2,2,0,0,0,3.1523,2.1095l26.4565-20.4463a1.938,1.938,0,0,0,.437-.4669c24.4913-36.4443,46.9691-74.4482,61.8976-115.7195a2,2,0,0,0-3.4687-1.8961l-79.37,103.6553A2.0479,2.0479,0,0,0,139.1112,154.55Z" class="fill"/>
      <path d="M68.89,281.6637a2.0006,2.0006,0,0,0,2.0125.121l55.3784-28.0083.0026-.0017,40.6-20.5332.0095-.0033L184.76,224.2a2.0257,2.0257,0,0,0,.7581-.6705q33.0725-49.3052,66.1431-98.6108a2.0031,2.0031,0,0,0,.3356-1.2312L249.3246,78.145a2,2,0,0,0-3.6575-.9969q-37.8325,56.4045-75.6646,112.8086a1.9838,1.9838,0,0,0-.32.8361Q167.6045,205.6,165.52,220.406l-39.0088,19.7283c-2.1774-7.36-7.1354-13.8472-13.4227-18.6611a40.9005,40.9005,0,0,0-24.3147-8.6876,31.9077,31.9077,0,0,0-3.6364.214l3.1987-43.152,25.98-15.3171a1.9707,1.9707,0,0,0,.6453-.6088l75.666-112.8076a2,2,0,0,0-2.3244-3.0009L144.8287,53.4a2.0181,2.0181,0,0,0-.9976.7726L77.6891,152.7838a1.9817,1.9817,0,0,0-.3336.9661l-1.4687,19.792,0,.0072q-3.9409,53.1517-7.8818,106.303A2,2,0,0,0,68.89,281.6637Z" class="fill"/>
    </g>
  </g>
</svg>
