<svg xmlns="http://www.w3.org/2000/svg" viewBox="0 0 320 320">
  <title>_.picture-outline</title>
  <g id="camera">
    <path d="M290,58H76.7012a1.9991,1.9991,0,0,0-2,1.9962h0a34.5151,34.5151,0,0,1-1.9368,9.6346A54.7075,54.7075,0,0,1,59.7018,90.5354,52.755,52.755,0,0,1,39.0824,104.01a37.8315,37.8315,0,0,1-6.6968,1.66c-.7972.1168-1.415.174-1.8228.2018-.204.0139-.3553.0206-.45.0238l-.1.0026-.0175,0v0a1.9989,1.9989,0,0,0-1.9951,2V260c0,.0513.02.0977.0238.1483a1.78,1.78,0,0,0,.1364.5929c.0217.0542.03.1116.0564.1641.0281.0552.0715.0977.104.1493a1.7317,1.7317,0,0,0,.39.45,1.9218,1.9218,0,0,0,.1726.1414,1.9821,1.9821,0,0,0,.3635.187c.0466.0192.0842.0522.1327.0681.0115.0038.0233.002.0349.0055A1.99,1.99,0,0,0,30,262H290a2,2,0,0,0,2-2V60a2,2,0,0,0-2-2ZM125.3967,258H33.94l60.5736-82.8357a1.9292,1.9292,0,0,0,.127-.1567l.0374-.0565.0895-.1338,2.4668-3.374a57.8862,57.8862,0,0,1,4.6306-5.2578c.8184-.8162,1.6724-1.6127,2.5543-2.3436a21.9891,21.9891,0,0,1,4.2952-2.8674,9.2339,9.2339,0,0,1,3.9849-1.0581q.2188,0,.4357.016h0a21.0242,21.0242,0,0,1,4.326.76,16.4327,16.4327,0,0,1,4.8323,2.2711,12.65,12.65,0,0,1,2,1.7113c.2065.2209.3519.3967.4391.5078l.0735.0968a66.7544,66.7544,0,0,0,6.46,8.99,38.2257,38.2257,0,0,0,6.8064,6.37c.5164.3613,1.0471.6948,1.5862,1.0088a17.6153,17.6153,0,0,0,2.4558,1.2052,12.267,12.267,0,0,0,4.4563.8909,10.15,10.15,0,0,0,2.5154-.3221c.11-.0281.2195-.0542.3289-.0861.27-.0787.54-.1649.8069-.2678a22.607,22.607,0,0,0,5.3479-2.8647,16.23,16.23,0,0,0,3.417-3.3519,13.9365,13.9365,0,0,0,1.3525-2.2147l13.9126,17.0911Zm104.0974-84.238h0c-.022.0067-.0442.0107-.0662.0173a21.6026,21.6026,0,0,1-6.2566.8878,29.4737,29.4737,0,0,1-6.6343-.8c-1.1951-.2754-2.3665-.6228-3.5156-1.0027-.4773-.1577-.948-.32-1.4143-.4919a50.8986,50.8986,0,0,1-4.8237-2.0664c-.1111-.0546-.23-.1069-.34-.1617a61.3885,61.3885,0,0,1-5.94-3.39c-.2227-.1442-.4382-.285-.6414-.42-.34-.2256-.6482-.4362-.9294-.6312l26.2859-35.9467,31.2021,32.0017a141.0814,141.0814,0,0,1-26.9265,12.0042Zm-81.81,5.8831a6.2366,6.2366,0,0,1-1.1133.0991,8.2869,8.2869,0,0,1-3.0037-.6179,12.6215,12.6215,0,0,1-1.3892-.6431,22.02,22.02,0,0,1-4.1973-3.0272,48.0469,48.0469,0,0,1-6.2751-7.0492q-.3622-.488-.6921-.9514c-.8806-1.2329-1.5859-2.31-2.0676-3.0726-.2407-.3816-.4258-.6848-.5491-.89-.0618-.1027-.1079-.1808-.1379-.2319l-.033-.0564-.0083-.0142-.0723-.116a14.2493,14.2493,0,0,0-3.5638-3.3916,22.0335,22.0335,0,0,0-11.1516-3.7393h.0017l-.0045,0c-.1693-.0123-.3391-.0148-.5088-.0184-.073-.0016-.1479-.0083-.22-.0082a12.9468,12.9468,0,0,0-5.4391,1.3328l19.203-27.1931,30.9742,40.9617a9.5366,9.5366,0,0,1-1.6526,3.4385,15.19,15.19,0,0,1-6.9968,4.8784A6.1617,6.1617,0,0,1,147.6843,179.6449ZM288,258H131.44l65.1306-89.0673c.55.3828,1.2124.8286,1.9661,1.312q.6438.4131,1.3777.8595.7738.47,1.64.9635c.96.546,1.9966,1.1052,3.106,1.6577h0a51.0886,51.0886,0,0,0,10.3542,3.8776c.3225.08.6438.1592.97.231a33.621,33.621,0,0,0,7.1855.833h0a25.5518,25.5518,0,0,0,7.4912-1.0795,125.0258,125.0258,0,0,0,16.5371-6.5189c5.2463-2.48,9.5281-4.8608,12.1025-6.3556L288,194.1466Z" class="fill"/>
  </g>
</svg>
