<svg xmlns="http://www.w3.org/2000/svg" viewBox="0 0 320 320">
  <title>_.picture</title>
  <g id="camera">
    <path d="M290,58H76.7012a1.9989,1.9989,0,0,0-2,1.9962h-.0007a34.5155,34.5155,0,0,1-1.9368,9.6348A54.7091,54.7091,0,0,1,59.7017,90.5364,52.7523,52.7523,0,0,1,39.0823,104.01a37.8265,37.8265,0,0,1-6.6968,1.66c-.7971.1168-1.415.174-1.8228.2018-.2039.0139-.3552.0206-.45.0238l-.1.0026-.0173,0v0a1.9989,1.9989,0,0,0-1.9951,2V260a1.9648,1.9648,0,0,0,.0347.3448c.0024.0145.0015.0292.0044.0436a2.0144,2.0144,0,0,0,.1567.4562c.0093.02.0107.0413.0208.0607.0129.0256.0344.0447.0486.07a1.9936,1.9936,0,0,0,.2227.32c.0239.0277.0439.058.0691.0842.01.0111.0181.0244.0288.0353a1.9852,1.9852,0,0,0,.3423.269c.0339.0215.07.0365.1052.056a2.0042,2.0042,0,0,0,.3406.15c.0471.0157.093.031.1414.0432A1.9787,1.9787,0,0,0,30,262H290a2,2,0,0,0,2-2V60a2,2,0,0,0-2-2ZM40.3765,107.7952A56.7621,56.7621,0,0,0,62.5657,93.3287,58.6065,58.6065,0,0,0,76.6572,70.5969,43.1131,43.1131,0,0,0,78.564,62H288V188.4166l-26.9272-27.6176-34.6406-35.5283a2,2,0,0,0-3.0464.2157l-28.8667,39.476,0,0-17.4595,23.876L161.1453,169.29l-33.1428-43.8295a2,2,0,0,0-3.229.0526l-30.74,43.5308c-1.2791,1.64-2.17,2.926-2.54,3.4742L32,253.8772l0-144.1243A40.4216,40.4216,0,0,0,40.3765,107.7952ZM229.4941,173.762h0a21.5746,21.5746,0,0,1-6.3232.9053,29.4737,29.4737,0,0,1-6.6343-.8c-1.1951-.2754-2.3665-.6228-3.5156-1.0027-.4773-.1577-.948-.32-1.4143-.4919a50.8986,50.8986,0,0,1-4.8237-2.0664c-.1111-.0546-.23-.1069-.34-.1617a61.3885,61.3885,0,0,1-5.94-3.39c-.2227-.1442-.4382-.285-.6414-.42-.34-.2256-.6482-.4362-.9294-.6312l26.2859-35.9467,31.2021,32.0017A141.0814,141.0814,0,0,1,229.4941,173.762Zm-80.707,5.5724a6.1,6.1,0,0,1-1.2671.3326,6.2717,6.2717,0,0,1-.949.077,8.2869,8.2869,0,0,1-3.0037-.6179,12.6215,12.6215,0,0,1-1.3892-.6431,22.02,22.02,0,0,1-4.1973-3.0272,48.0469,48.0469,0,0,1-6.2751-7.0492q-.3622-.488-.6921-.9514c-.8806-1.2329-1.5859-2.31-2.0676-3.0726-.2407-.3816-.4258-.6848-.5491-.89-.0618-.1027-.1079-.1808-.1379-.2319l-.033-.0564-.0083-.0142-.0723-.116a14.2512,14.2512,0,0,0-3.564-3.3916,22.0337,22.0337,0,0,0-11.1514-3.7393h.0012l-.0042,0q-.3636-.0267-.729-.0266a10.8467,10.8467,0,0,0-1.4893.106,13.9987,13.9987,0,0,0-3.95,1.2267l19.2029-27.193,30.9744,40.9617a9.5366,9.5366,0,0,1-1.6526,3.4385A15.19,15.19,0,0,1,148.7871,179.3344ZM33.94,258l60.5752-82.8378a1.8843,1.8843,0,0,0,.1255-.1547l.0374-.0565.0894-.1333,2.4695-3.3779a50.9,50.9,0,0,1,7.1821-7.598,21.9872,21.9872,0,0,1,4.2947-2.8676,9.2325,9.2325,0,0,1,3.9846-1.0581q.219,0,.4351.0159l.0017,0q.8188.0608,1.5708.17c.4043.0582.7844.132,1.1609.2079.0908.0183.1907.0309.28.05.2388.0516.4561.1147.6836.1726a18.0252,18.0252,0,0,1,2.8984.9879,15.7438,15.7438,0,0,1,2.5649,1.4425,12.6424,12.6424,0,0,1,2,1.7113c.2065.2209.3521.3967.4392.5078l.0735.0968c.0977.1661.3284.5551.6855,1.1239.1877.2994.4092.6465.6624,1.0328a67.1457,67.1457,0,0,0,5.1125,6.8336,38.2257,38.2257,0,0,0,6.8064,6.37c.5164.3613,1.0471.6948,1.5862,1.0088a17.6153,17.6153,0,0,0,2.4558,1.2052,12.267,12.267,0,0,0,4.4563.8909,10.15,10.15,0,0,0,2.5154-.3221c.11-.0281.2195-.0542.3289-.0861.27-.0787.54-.1649.8069-.2678a22.607,22.607,0,0,0,5.3479-2.8647,16.23,16.23,0,0,0,3.417-3.3519,13.9365,13.9365,0,0,0,1.3525-2.2147l13.9126,17.0909L125.3967,258ZM288,258H131.44l65.1306-89.0673c.55.3828,1.2124.8286,1.9661,1.312q.6438.4131,1.3777.8595.7738.47,1.64.9635c.96.546,1.9966,1.1052,3.106,1.6577h0a51.0886,51.0886,0,0,0,10.3542,3.8776c.3225.08.6438.1592.97.231a33.621,33.621,0,0,0,7.1855.833h0a25.5518,25.5518,0,0,0,7.4912-1.0795,125.0258,125.0258,0,0,0,16.5371-6.5189c5.2463-2.48,9.5281-4.8608,12.1025-6.3556L288,194.1466Z" class="fill"/>
  </g>
</svg>
