<svg xmlns="http://www.w3.org/2000/svg" viewBox="0 0 320 320">
  <title>_.regular.database-filled</title>
  <g id="camera">
    <g>
      <path d="M252,141.8564a9.0348,9.0348,0,0,0-.1323-1.4395,2,2,0,0,0-3.9615.0815,14.6826,14.6826,0,0,1-2.23,6.0654c-2.1843,3.5182-5.9754,6.9891-11.1429,10.1447-7.7455,4.7412-18.5368,8.7676-31.3059,11.5767A203.3459,203.3459,0,0,1,160,172.708c-23.93.0039-45.6537-3.7462-61.5115-9.7662-7.9276-3.004-14.3807-6.58-18.89-10.4427a26.1811,26.1811,0,0,1-5.275-5.9351,14.68,14.68,0,0,1-2.23-6.0654,2,2,0,0,0-3.9615-.0815A9.0348,9.0348,0,0,0,68,141.8564v40.7754a17.5438,17.5438,0,0,0,2.0515,8.104c2.3295,4.4951,6.4359,8.5023,11.8857,12.0613,8.1837,5.33,19.4619,9.6711,32.82,12.7185A206.15,206.15,0,0,0,160,220.29c25.07-.0046,47.77-4.011,64.3762-10.5846,8.3043-3.2942,15.0964-7.2239,19.9184-11.7341a27.091,27.091,0,0,0,5.6539-7.2354A17.5446,17.5446,0,0,0,252,182.6318Z" class="fill"/>
      <path d="M249.9485,67.5541c-2.3295-4.4951-6.4359-8.5023-11.8857-12.0613-8.1837-5.33-19.4619-9.6711-32.82-12.7185A206.1509,206.1509,0,0,0,160,38c-25.07.0046-47.77,4.011-64.3763,10.5846-8.3044,3.2942-15.0964,7.2239-19.9184,11.7341a27.09,27.09,0,0,0-5.6539,7.2354A17.544,17.544,0,0,0,68,75.6582a15.7214,15.7214,0,0,0,.0954,1.6384A8.0314,8.0314,0,0,0,68,78.4648V119.24a17.5438,17.5438,0,0,0,2.0515,8.104c2.3295,4.4951,6.4359,8.5022,11.8857,12.061,8.1837,5.33,19.4619,9.6708,32.82,12.7181A206.1669,206.1669,0,0,0,160,156.8973c25.07-.0046,47.77-4.0107,64.3762-10.5841,8.3043-3.2941,15.0964-7.2236,19.9183-11.7339a27.0891,27.0891,0,0,0,5.6539-7.2351A17.5446,17.5446,0,0,0,252,119.24V78.4648a8.0269,8.0269,0,0,0-.0953-1.168A15.72,15.72,0,0,0,252,75.6582,17.544,17.544,0,0,0,249.9485,67.5541Z" class="fill"/>
      <path d="M244.2946,259.6812a27.091,27.091,0,0,0,5.6539-7.2354A17.5446,17.5446,0,0,0,252,244.3418V203.5664a9.0431,9.0431,0,0,0-.1323-1.4395,2,2,0,0,0-3.9615.0815,14.6826,14.6826,0,0,1-2.23,6.0654c-2.1843,3.5182-5.9754,6.9891-11.1429,10.1447-7.7455,4.7412-18.5368,8.7676-31.3059,11.5767A203.3459,203.3459,0,0,1,160,234.418c-23.93.0039-45.6537-3.7462-61.5115-9.7662-7.9276-3.004-14.3807-6.58-18.89-10.4427a26.1811,26.1811,0,0,1-5.275-5.9351,14.68,14.68,0,0,1-2.23-6.0654,2,2,0,0,0-3.9615-.0815A9.0359,9.0359,0,0,0,68,203.5664v40.7754a17.5438,17.5438,0,0,0,2.0515,8.104c2.3295,4.4951,6.4359,8.5023,11.8857,12.0613,8.1837,5.33,19.4619,9.6711,32.82,12.7185A206.15,206.15,0,0,0,160,282c25.07-.0046,47.77-4.011,64.3762-10.5846C232.6805,268.1211,239.4726,264.1914,244.2946,259.6812Z" class="fill"/>
    </g>
  </g>
</svg>
