<svg xmlns="http://www.w3.org/2000/svg" viewBox="0 0 320 320">
  <title>_.regular.camera-one</title>
  <g id="camera">
    <g>
      <circle cx="194.9999" cy="165" r="36.9999" class="fill"/>
      <path d="M281.4141,93.3687A1.9866,1.9866,0,0,0,280,92.7827H162V75.2173a2,2,0,0,0-2-2H70a1.9994,1.9994,0,0,0-2,2V92.7827H40a1.9994,1.9994,0,0,0-2,2v150a1.9995,1.9995,0,0,0,2,2H280a2,2,0,0,0,2-2v-150A1.9857,1.9857,0,0,0,281.4141,93.3687ZM152,165a43,43,0,1,1,12.5942,30.4055A42.86,42.86,0,0,1,152,165Zm-29.4927-28.79H85.0049V119.98h37.502Z" class="fill"/>
    </g>
  </g>
</svg>
