<svg xmlns="http://www.w3.org/2000/svg" viewBox="0 0 320 320">
  <title>_.regular.flag-outline</title>
  <g id="camera">
    <path d="M138.0581,200.3879a1.9657,1.9657,0,0,0,.071.2856c.011.03.01.062.0229.0918.0251.06.0686.1074.0989.1642a1.8033,1.8033,0,0,0,.82.82,1.9087,1.9087,0,0,0,.1638.0985c.03.0123.0615.012.0918.0228a3.1132,3.1132,0,0,0,.5811.1155c.0317.0016.0608.0139.0928.0139H260a2,2,0,0,0,2-2V80a2,2,0,0,0-2-2H182V40a2,2,0,0,0-2-2H60a1.9943,1.9943,0,0,0-1.09.3262l-.021.0115a1.999,1.999,0,0,0-.2874.2351l-.0159.0129-.0129.0159a1.999,1.999,0,0,0-.2351.2874l-.0117.0215A1.9943,1.9943,0,0,0,58,40V280a2,2,0,0,0,4,0V162h76v38c0,.0317.0122.0605.0137.092A1.9821,1.9821,0,0,0,138.0581,200.3879ZM258,82V198H144.8284l36.5857-36.5857a1.99,1.99,0,0,0,.3169-.4286c.02-.0343.0378-.0679.0552-.1031A1.9822,1.9822,0,0,0,182,160V82ZM62,42H178V158H62ZM175.1714,162,142,195.1715V162Z" class="fill"/>
  </g>
</svg>
