<svg xmlns="http://www.w3.org/2000/svg" viewBox="0 0 320 320">
  <title>_.regular.save-outline</title>
  <g id="camera">
    <g>
      <path d="M198.0807,48.5857A2.013,2.013,0,0,0,196.6665,48H50a2,2,0,0,0-2,2V270a2,2,0,0,0,2,2H270a2,2,0,0,0,2-2V123.333a2.0131,2.0131,0,0,0-.5858-1.4143ZM195.838,52l35.4955,35.4955v24.6718H88.6665V52ZM268,268,52,268V52H84.6665V114.167a2,2,0,0,0,2,2h146.667a2,2,0,0,0,2-2V91.495L268,124.1614Z" class="fill"/>
      <path d="M233.3335,138.5205H86.6665a2,2,0,0,0-2,2V251.667a2,2,0,0,0,2,2h146.667a2,2,0,0,0,2-2V140.5205a2,2,0,0,0-2-2ZM88.6665,249.667V142.52l142.667,0V249.667Z" class="fill"/>
    </g>
  </g>
</svg>
