<svg xmlns="http://www.w3.org/2000/svg" viewBox="0 0 320 320">
  <title>_.regular.layers-filled</title>
  <g id="camera">
    <g>
      <path d="M280.8943,98.2111l-120-60a2.0036,2.0036,0,0,0-1.7888,0l-120,60a2,2,0,0,0,0,3.5778l120,60a2.0044,2.0044,0,0,0,1.7888,0l120-60a2,2,0,0,0,0-3.5778Z" class="fill"/>
      <path d="M280.8943,158.2111l-45-22.5a2.0036,2.0036,0,0,0-1.7888,0L160,172.7639,85.8943,135.7111a2.0036,2.0036,0,0,0-1.7888,0l-45,22.5a2,2,0,0,0,0,3.5778l120,60a2.0044,2.0044,0,0,0,1.7888,0l120-60a2,2,0,0,0,0-3.5778Z" class="fill"/>
      <path d="M282,220a1.9964,1.9964,0,0,0-1.1055-1.7889l-45-22.5a2.0036,2.0036,0,0,0-1.7888,0L160,232.7638,85.8943,195.7111a2.0036,2.0036,0,0,0-1.7888,0l-45,22.5a2,2,0,0,0,0,3.5778l120,60a2.0044,2.0044,0,0,0,1.7888,0l120-60A1.9969,1.9969,0,0,0,282,220Z" class="fill"/>
    </g>
  </g>
</svg>
