<svg xmlns="http://www.w3.org/2000/svg" viewBox="0 0 320 320">
  <title>_.regular.trash-outline</title>
  <g id="camera">
    <g>
      <path d="M169.5557,30H150.4443A24.445,24.445,0,0,0,126,54.4443V62H70.4443A8.4452,8.4452,0,0,0,62,70.4443v29.7778a8.4452,8.4452,0,0,0,8.4443,8.4443H83.333V275.5557A14.4455,14.4455,0,0,0,97.7773,290H222.2227a14.4454,14.4454,0,0,0,14.4441-14.4443V108.6664h12.8889A8.4451,8.4451,0,0,0,258,100.2222V70.4443A8.445,8.445,0,0,0,249.5557,62H194V54.4443A24.445,24.445,0,0,0,169.5557,30ZM130,54.4443A20.445,20.445,0,0,1,150.4443,34h19.1113A20.445,20.445,0,0,1,190,54.4443V62H130ZM232.667,275.5557A10.4454,10.4454,0,0,1,222.2227,286H97.7773a10.4452,10.4452,0,0,1-10.4445-10.4443V108.6664H232.6667ZM252.698,67.3018A4.4229,4.4229,0,0,1,254,70.4443v29.7778a4.445,4.445,0,0,1-4.4443,4.4443H70.4443A4.4448,4.4448,0,0,1,66,100.2222V70.4443A4.4448,4.4448,0,0,1,70.4443,66H249.5557A4.4219,4.4219,0,0,1,252.698,67.3018Z" class="fill"/>
      <path d="M122.667,268.6665a2,2,0,0,0,2-2V128a2,2,0,0,0-4,0V266.6665A2,2,0,0,0,122.667,268.6665Z" class="fill"/>
      <path d="M197.333,268.6665a2,2,0,0,0,2-2V128a2,2,0,0,0-4,0V266.6665A2,2,0,0,0,197.333,268.6665Z" class="fill"/>
      <path d="M160,268.6665a2,2,0,0,0,2-2V128a2,2,0,0,0-4,0V266.6665A2,2,0,0,0,160,268.6665Z" class="fill"/>
    </g>
  </g>
</svg>
