<svg xmlns="http://www.w3.org/2000/svg" viewBox="0 0 320 320">
  <title>_.regular.tag-outline</title>
  <g id="camera">
    <g>
      <path d="M281.4141,182.5858l-144-144A2.0133,2.0133,0,0,0,136,38H40a2,2,0,0,0-2,2v96a2.0131,2.0131,0,0,0,.5857,1.4142l144,144a2,2,0,0,0,2.8284,0l96-96a2,2,0,0,0,0-2.8284ZM184,277.1716l-142-142V42h93.1715l142,142Z" class="fill"/>
      <path d="M74.3828,52.1914A22.1916,22.1916,0,1,0,96.5741,74.3833,22.1921,22.1921,0,0,0,74.3828,52.1914ZM87.246,87.2465a18.1916,18.1916,0,1,1,5.3282-12.8632A18.1258,18.1258,0,0,1,87.246,87.2465Z" class="fill"/>
    </g>
  </g>
</svg>
