<svg xmlns="http://www.w3.org/2000/svg" viewBox="0 0 320 320">
  <title>_.regular.heart-outline</title>
  <g id="camera">
    <path d="M266.8975,57.2288a48.9028,48.9028,0,0,0-18.271-13.825C240.91,39.9892,231.4788,37.9991,220,38c-15.3038-.0042-26.9581,3.5447-35.7357,8.9505a51.0533,51.0533,0,0,0-15.2268,14.4336A62.1648,62.1648,0,0,0,160,81.6248a59.748,59.748,0,0,0-13.1635-25.441,51.4225,51.4225,0,0,0-18.2349-12.9127C120.901,39.99,111.4792,37.999,100,38c-15.302-.0045-26.9771,3.5447-35.777,9.2651A49.5085,49.5085,0,0,0,48.9762,63.0234c-5.5371,8.988-8.257,19.0927-9.62,28.2433A149.8093,149.8093,0,0,0,38,113.8462q-.0033,28.239,15.2414,56.337,15.2018,28.0614,45.402,55.9016l60,55.3847a1.9982,1.9982,0,0,0,2.7131,0s20-18.4614,60-55.3848q30.1813-27.861,45.4021-55.9016Q281.9592,142.1284,282,113.8462a159.03,159.03,0,0,0-.9518-19.5659C279.6115,82.3978,276.0482,68.3957,266.8975,57.2288Zm-3.6561,111.0493q-14.7982,27.3232-44.5979,54.8674Q167.6334,270.2321,160,277.2781q-7.643-7.055-58.6436-54.1325-29.8187-27.5234-44.5979-54.8675Q41.9592,140.9484,42,113.8462a155.2166,155.2166,0,0,1,.9232-19.0879c1.3758-11.483,4.8438-24.74,13.2712-34.9919A44.8822,44.8822,0,0,1,72.9917,47.0618C80.1287,43.905,88.9785,42.0008,100,42c14.6962.0042,25.5419,3.3784,33.6393,8.3572A47.0433,47.0433,0,0,1,147.68,63.67a59.2719,59.2719,0,0,1,9.0286,21.4506,63.3209,63.3209,0,0,1,1.1323,7.4629c.08.9073.12,1.62.14,2.1.01.24.0146.4215.017.54l.0021.13,0,.0314a2,2,0,1,0,4,0l0-.0229a54.083,54.083,0,0,1,1.04-8.9952c1.47-7.6781,5.037-18.8162,13.4923-27.9388a47.5081,47.5081,0,0,1,16.7711-11.6187C200.397,43.8455,209.1515,42.0008,220,42c14.698.0045,25.5229,3.3784,33.598,8.62a45.4963,45.4963,0,0,1,14.0208,14.5031c5.1416,8.3333,7.761,17.9228,9.0681,26.7323A145.9968,145.9968,0,0,1,278,113.8462Q277.9967,140.9914,263.2413,168.2781Z" class="fill"/>
  </g>
</svg>
