<svg xmlns="http://www.w3.org/2000/svg" viewBox="0 0 320 320">
  <title>_.regular.cog-outline</title>
  <g id="camera">
    <g>
      <path d="M276.5173,116.0375a2,2,0,0,0-2.2909-1.6589L252.28,117.8905,220.1158,78.3,228.048,57.538a2,2,0,0,0-1.1545-2.5821L180.1859,37.1116a2,2,0,0,0-2.5822,1.1545l-6.902,18.0654-53.2185,8.516-12.1942-15.01a2,2,0,0,0-2.8135-.2912L63.6685,81.0742a2,2,0,0,0-.2911,2.8134l14.0145,17.2508-18.2041,47.65-21.9466,3.5115a2,2,0,0,0-1.6589,2.2909l7.9,49.3721a2,2,0,0,0,2.2909,1.6589l27.6473-4.424,28.5233,35.109L91.9519,262.462a2,2,0,0,0,1.1545,2.5821l46.7075,17.8442a2,2,0,0,0,2.5822-1.1545l11.0225-28.8525,41.8168-6.6913,19.4755,23.9724a2,2,0,0,0,2.8135.2912l38.8071-31.5278a2,2,0,0,0,.2911-2.8134l-17.6553-21.7318,16.1437-42.2562,27.6478-4.424a2,2,0,0,0,1.6589-2.2909Zm-23.1786,52.32a2,2,0,0,0-1.5524,1.2611l-16.9678,44.4136a2,2,0,0,0,.316,1.9749l17.1221,21.0756-35.7025,29.0057-18.9424-23.3163a2,2,0,0,0-1.8683-.7138l-44.0972,7.0562a2,2,0,0,0-1.5524,1.2611l-10.7208,28.0628L96.4023,262.0212l9.6906-25.366a2,2,0,0,0-.316-1.9749L75.7974,197.7789a2,2,0,0,0-1.8683-.7137l-26.8127,4.29L39.848,155.9332l21.112-3.3778a2,2,0,0,0,1.5524-1.2611l19.0283-49.8071a2,2,0,0,0-.316-1.9749L67.743,82.9177,103.4456,53.912l11.6613,14.3539a2,2,0,0,0,1.8683.7138l55.499-8.8809a2,2,0,0,0,1.5524-1.2611l6.6-17.2758,42.9708,16.4166-7.63,19.9726a2,2,0,0,0,.316,1.9749l33.62,41.3828a2,2,0,0,0,1.8683.7138l21.1119-3.3784,7.2684,45.4223Z" class="fill"/>
      <path d="M194.6036,114.6849a54.3737,54.3737,0,0,0-43.8075-12.2033h0a54.5046,54.5046,0,0,0,8.5471,108.3231,54.8923,54.8923,0,0,0,8.6752-.6922,54.5135,54.5135,0,0,0,45.8965-53.7515,54.9042,54.9042,0,0,0-.692-8.6749A54.2986,54.2986,0,0,0,194.6036,114.6849Zm3.3606,74.2266a50.2917,50.2917,0,0,1-30.5776,17.2513,50.3757,50.3757,0,0,1-40.5938-11.3088,50.2922,50.2922,0,0,1-17.2511-30.5778A50.3707,50.3707,0,0,1,120.85,123.6827a50.2927,50.2927,0,0,1,30.5779-17.2513l-.3159-1.9749.316,1.9749A50.373,50.373,0,0,1,192.0217,117.74a50.2921,50.2921,0,0,1,17.2513,30.5778,50.3761,50.3761,0,0,1-11.3088,40.5936Z" class="fill"/>
    </g>
  </g>
</svg>
