<svg xmlns="http://www.w3.org/2000/svg" viewBox="0 0 320 320">
  <title>_.regular.lock</title>
  <g id="camera">
    <g>
      <path d="M200.4775,81.3548a39.8825,39.8825,0,0,0-4.9229-11.1874A28.7668,28.7668,0,0,0,181.93,59.1647c-5.9353-2.4116-13.2844-3.5627-22.4438-3.5646-10.8516.0027-19.1768,1.6177-25.5911,5.0355a28.3467,28.3467,0,0,0-11.1707,10.6326c-4.041,6.7281-5.9509,15.3375-6.9182,25.8243-.96,10.4929-.9558,22.9061-.9568,37.3074a2,2,0,0,0,2,2H202.124a2,2,0,0,0,2-2c0-12.8007.002-24.032-.6709-33.7383A96.0953,96.0953,0,0,0,200.4775,81.3548Zm-78.1333,1.0905A35.9145,35.9145,0,0,1,126.7573,72.37a24.7232,24.7232,0,0,1,11.7927-9.5c5.2639-2.1447,12.1082-3.2717,20.9363-3.27,10.467-.0027,18.1309,1.5823,23.708,4.5645a24.308,24.308,0,0,1,9.6277,9.1674c3.5474,5.8719,5.4319,13.9124,6.3616,24.1257.8928,9.7259.9382,21.4078.94,34.9423H118.85c.0015-11.9581.0364-22.47.6611-31.4614A92.275,92.275,0,0,1,122.3442,82.4453Z" class="fill"/>
      <path d="M177.3523,162.8254A37.1562,37.1562,0,0,0,165.314,158.6a36.7731,36.7731,0,0,0-5.8276-.6,40.5764,40.5764,0,0,0-15.0337,3.3763,26.4134,26.4134,0,0,0-10.5574,8.2338c-2.9268,3.94-4.8425,9.2229-4.8337,15.99-.0007,6.6286,1.1509,11.7294,2.9595,15.64a21.6191,21.6191,0,0,0,4.9041,6.8712,19.3956,19.3956,0,0,0,7.9282,4.4447c.6113.1721,1.1667.2952,1.6636.3876l-7.6716,48.0751a2,2,0,0,0,1.9751,2.3151h37.333a2,2,0,0,0,1.9749-2.3151l-7.6716-48.076c.2939-.0546.6025-.1168.9387-.1975a19.48,19.48,0,0,0,4.9592-1.9438,20.18,20.18,0,0,0,7.8911-8.152c2.208-4.0656,3.6677-9.593,3.6663-17.0488.0088-6.7671-1.907-12.05-4.834-15.99A25.2237,25.2237,0,0,0,177.3523,162.8254Zm5.9695,36.7352a17.61,17.61,0,0,1-3.9924,5.6163,15.3938,15.3938,0,0,1-6.2949,3.5288,14.1627,14.1627,0,0,1-2.1606.437c-.2571.03-.4541.0447-.5784.0515l-.13.0056-.0215,0v.001a1.9983,1.9983,0,0,0-1.9653,2.3141l7.63,47.8182h-32.644l7.6306-47.8182a1.9985,1.9985,0,0,0-1.9651-2.3141V209.2a11.834,11.834,0,0,1-2.5273-.3967,15.489,15.489,0,0,1-3.9321-1.6082,16.2439,16.2439,0,0,1-6.2131-6.6142c-1.7866-3.3651-3.0947-8.1456-3.0962-14.981.0088-6.0331,1.6462-10.3506,4.0491-13.61a21.2258,21.2258,0,0,1,6.5146-5.7029,33.2147,33.2147,0,0,1,10.7278-3.7479c1.5378-.2711,2.8428-.4065,3.7522-.4734.4546-.0335.8105-.05,1.0474-.058.1187-.004.2073-.006.2637-.0069l.06-.0007h.0161a36.7959,36.7959,0,0,1,13.697,3.1661,22.196,22.196,0,0,1,8.7859,6.9774c2.3406,3.2415,3.9287,7.5178,3.9368,13.4566C185.9114,191.7715,184.8433,196.2707,183.3218,199.5606Z" class="fill"/>
      <path d="M60,290H258.9736a2,2,0,0,0,2-2V134.4a2,2,0,0,0-2-2h-26.426c-.0032-12.1375-.0547-24.2866-1.1177-35.7842a117.5751,117.5751,0,0,0-4.9319-25.7524,63.1493,63.1493,0,0,0-8.04-16.5135A51.05,51.05,0,0,0,196.437,36.5209C186.783,32.3061,174.6755,30,159.4863,30c-17.999,0-31.6814,3.2405-42.06,9.0553A50.3225,50.3225,0,0,0,99.3894,56.0316c-6.5632,10.2261-9.7661,22.647-11.37,36.0707C86.4941,104.91,86.43,118.6617,86.426,132.4H60a2,2,0,0,0-2,2V288a2,2,0,0,0,2,2Zm2-153.6H88.4248a2,2,0,0,0,2-2c-.0007-12.7993.0027-25.5449,1.1021-37.4156a113.6737,113.6737,0,0,1,4.7488-24.8725,59.1605,59.1605,0,0,1,7.5212-15.4752,47.0171,47.0171,0,0,1,20.34-16.45c9.0115-3.9366,20.56-6.1872,35.35-6.1867,17.532,0,30.4978,3.1595,40.1052,8.5448a46.2969,46.2969,0,0,1,16.627,15.6488c6.0842,9.4614,9.2051,21.2841,10.7634,34.3823,1.5623,13.093,1.5681,27.4252,1.5669,41.824a2,2,0,0,0,2,2h26.4248V286H62Z" class="fill"/>
    </g>
  </g>
</svg>
