<svg xmlns="http://www.w3.org/2000/svg" viewBox="0 0 320 320">
  <title>_.regular.person</title>
  <g id="camera">
    <g>
      <path d="M161.1865,194.4294a69.1752,69.1752,0,1,0-69.1753-69.1755A69.1755,69.1755,0,0,0,161.1865,194.4294ZM115.1007,79.1683a65.1748,65.1748,0,1,1-19.09,46.0856A64.9629,64.9629,0,0,1,115.1007,79.1683Z" class="fill"/>
      <path d="M214.7183,182.01a2.0013,2.0013,0,0,0-2.2889.2844,76.079,76.079,0,0,1-102.4857,0,2.0013,2.0013,0,0,0-2.2889-.2844A113.7676,113.7676,0,0,0,48.01,270.9888,2,2,0,0,0,50,273.1863H272.373a2,2,0,0,0,1.99-2.1975A113.7679,113.7679,0,0,0,214.7183,182.01Zm-106.376,4.1919a79.999,79.999,0,0,0,105.6885,0,109.7632,109.7632,0,0,1,56.0986,82.9851H52.2437A109.7632,109.7632,0,0,1,108.3423,186.2014Z" class="fill"/>
    </g>
  </g>
</svg>
