<svg xmlns="http://www.w3.org/2000/svg" viewBox="0 0 320 320">
  <title>_.regular.microphone-outline</title>
  <g id="camera">
    <g>
      <path d="M160,188.0868a35.2175,35.2175,0,0,0,26.2365-12.0734A43.1465,43.1465,0,0,0,197,147.1309V78.9561a43.1466,43.1466,0,0,0-10.7635-28.8827,34.5438,34.5438,0,0,0-52.473,0A43.1466,43.1466,0,0,0,123,78.9561v68.1748a43.1465,43.1465,0,0,0,10.7635,28.8826A35.2174,35.2174,0,0,0,160,188.0868ZM127,78.9561a39.1523,39.1523,0,0,1,9.739-26.2095,30.5474,30.5474,0,0,1,46.5221,0A39.1524,39.1524,0,0,1,193,78.9561v68.1748a39.1522,39.1522,0,0,1-9.739,26.2094,30.5474,30.5474,0,0,1-46.5221,0A39.1522,39.1522,0,0,1,127,147.1309Z" class="fill"/>
      <path d="M205.5859,193.0464A72.7837,72.7837,0,0,0,222,146.4346a2,2,0,0,0-2-2H210a2,2,0,0,0-2,2A56.789,56.789,0,0,1,193.8676,184.45c-8.72,9.6968-20.6736,15.6346-33.8676,15.6371-13.194-.0023-25.1481-5.94-33.8676-15.6371A56.7888,56.7888,0,0,1,112,146.4346a2,2,0,0,0-2-2H100a2,2,0,0,0-2,2,72.7836,72.7836,0,0,0,16.4141,46.6118c9.8094,11.7991,23.3546,19.7971,38.5859,21.6981v52.1246H139.0767a22.8519,22.8519,0,0,0-16.9828,7.8077,4.4274,4.4274,0,0,0-1.1309,2.9706,4.5424,4.5424,0,0,0,1.0448,2.9119,4.0606,4.0606,0,0,0,1.3093,1.0347,3.9336,3.9336,0,0,0,1.7485.4059h69.8691a3.9348,3.9348,0,0,0,1.7484-.4058,4.1505,4.1505,0,0,0,1.7633-1.69,4.5937,4.5937,0,0,0,.5909-2.2563,4.4274,4.4274,0,0,0-1.1313-2.9711,22.8513,22.8513,0,0,0-16.9824-7.8074H167V214.7445C182.2314,212.8435,195.7766,204.8455,205.5859,193.0464ZM180.9233,270.869a18.8481,18.8481,0,0,1,14.0074,6.4813.4181.4181,0,0,1,.1064.2972.571.571,0,0,1-.1091.3408l-.0114.0116H125.0829l-.0045-.0043a.5624.5624,0,0,1-.1155-.3483.418.418,0,0,1,.1061-.2969,18.8485,18.8485,0,0,1,14.0077-6.4816H155a2,2,0,0,0,2-2v-55.9a2.0024,2.0024,0,0,0-1.8169-1.9917c-14.8231-1.3633-28.0914-8.9482-37.6937-20.4884a68.5919,68.5919,0,0,1-15.4463-42.0542h6.0024a60.594,60.594,0,0,0,15.1114,38.6886c9.377,10.4454,22.4227,16.9661,36.8431,16.9637,14.42.0023,27.4661-6.5183,36.8431-16.9637a60.5943,60.5943,0,0,0,15.1114-38.6886h6.0024a68.5922,68.5922,0,0,1-15.4463,42.0542c-9.6023,11.54-22.8706,19.125-37.6937,20.4884A2.0024,2.0024,0,0,0,163,212.9688v55.9a2,2,0,0,0,2,2Z" class="fill"/>
    </g>
  </g>
</svg>
