<svg xmlns="http://www.w3.org/2000/svg" viewBox="0 0 320 320">
  <title>_.regular.lock-filled</title>
  <g id="camera">
    <path d="M60,290H258.9736a2,2,0,0,0,2-2V134.4a2,2,0,0,0-2-2h-26.426c-.0032-12.1375-.0547-24.2866-1.1177-35.7842a117.5751,117.5751,0,0,0-4.9319-25.7524,63.1493,63.1493,0,0,0-8.04-16.5135A51.05,51.05,0,0,0,196.437,36.5209C186.783,32.3061,174.6755,30,159.4863,30c-17.999,0-31.6814,3.2405-42.06,9.0553A50.3225,50.3225,0,0,0,99.3894,56.0316c-6.5632,10.2261-9.7661,22.647-11.37,36.0707C86.4941,104.91,86.43,118.6617,86.426,132.4H60a2,2,0,0,0-2,2V288a2,2,0,0,0,2,2Zm110.8738-80.8572c-.2571.03-.4541.0447-.5784.0515l-.13.0056-.0215,0v.001a1.9983,1.9983,0,0,0-1.9653,2.3141l7.63,47.8182h-32.644l7.6306-47.8182a1.9984,1.9984,0,0,0-1.9648-2.314V209.2a11.8319,11.8319,0,0,1-2.5273-.3967,15.4877,15.4877,0,0,1-3.9319-1.6082,16.2428,16.2428,0,0,1-6.2126-6.6142c-1.7866-3.3651-3.0947-8.1455-3.0962-14.981.0088-6.0331,1.646-10.3506,4.0488-13.61a21.2306,21.2306,0,0,1,6.5144-5.7029,33.2143,33.2143,0,0,1,10.7273-3.7479c1.5381-.2711,2.8428-.4065,3.7522-.4734.4546-.0335.8105-.05,1.0476-.058.1184-.004.207-.006.2634-.0069l.06-.0007h.0161a36.7959,36.7959,0,0,1,13.697,3.1661,22.196,22.196,0,0,1,8.7859,6.9774c2.3406,3.2415,3.9287,7.5178,3.9368,13.4566-.0007,6.1714-1.0688,10.6706-2.59,13.9605a17.61,17.61,0,0,1-3.9924,5.6163,15.3938,15.3938,0,0,1-6.2949,3.5288A14.1627,14.1627,0,0,1,170.8738,209.1428ZM159.4863,59.6c10.467-.0027,18.1309,1.5823,23.708,4.5645a24.308,24.308,0,0,1,9.6277,9.1674c3.5474,5.8719,5.4319,13.9124,6.3616,24.1257.8928,9.7259.9382,21.4078.94,34.9423H118.85c.0015-11.9581.0364-22.47.6611-31.4614a92.275,92.275,0,0,1,2.8333-18.4932A35.9145,35.9145,0,0,1,126.7573,72.37a24.7232,24.7232,0,0,1,11.7927-9.5C143.814,60.7252,150.6582,59.5981,159.4863,59.6Z" class="fill"/>
  </g>
</svg>
