<svg xmlns="http://www.w3.org/2000/svg" viewBox="0 0 320 320">
  <title>_.regular.music-play-pause</title>
  <g id="camera">
    <g>
      <path d="M225,262h20a2,2,0,0,0,2-2V60a2,2,0,0,0-2-2H225a2,2,0,0,0-2,2V260a2,2,0,0,0,2,2Zm18-4H227l0-196h16Z" class="fill"/>
      <path d="M34.0068,261.7361a2.0075,2.0075,0,0,0,2.0071-.0123l170-100a2,2,0,0,0,0-3.4476l-170-100A2,2,0,0,0,33,60V260A2.0071,2.0071,0,0,0,34.0068,261.7361ZM37,256.5031V63.4967L201.0552,160Z" class="fill"/>
      <path d="M265,262h20a2,2,0,0,0,2-2V60a2,2,0,0,0-2-2H265a2,2,0,0,0-2,2V260a2,2,0,0,0,2,2Zm18-4H267l0-196h16Z" class="fill"/>
    </g>
  </g>
</svg>
