<svg xmlns="http://www.w3.org/2000/svg" viewBox="0 0 320 320">
  <title>_.regular.cog</title>
  <g id="camera">
    <g>
      <path d="M196.4932,116.0688A54.3646,54.3646,0,0,0,159.7458,101.76q-2.2875,0-4.6084.1932h0a54.5051,54.5051,0,0,0-49.9537,54.2508q0,2.2873.1934,4.6089a54.5052,54.5052,0,0,0,54.2513,49.9531q2.287,0,4.6074-.1929A54.5056,54.5056,0,0,0,214.19,156.3214q0-2.2873-.1927-4.6071A54.317,54.317,0,0,0,196.4932,116.0688Zm.4371,74.3a50.31,50.31,0,0,1-33.028,16.2184q-2.1528.18-4.2739.179a50.5053,50.5053,0,0,1-50.2654-46.2875q-.1807-2.1529-.1794-4.2745a50.5054,50.5054,0,0,1,46.288-50.2648l-.1669-1.993.1671,1.993q2.1519-.18,4.274-.1793a50.5054,50.5054,0,0,1,50.265,46.2878q.18,2.152.179,4.2736A50.3638,50.3638,0,0,1,196.93,190.3686Z" class="fill"/>
      <path d="M278.7858,123.543a2.0128,2.0128,0,0,0-1.4581-.4657l-22.1487,1.8552L226.0765,83.041l9.4673-20.1086a2,2,0,0,0-.9575-2.6614L189.3495,38.9727a2,2,0,0,0-2.6615.9575L178.45,57.4271l-53.7075,4.4986L113.7089,46.0435a2,2,0,0,0-2.7836-.5015L69.8618,74.0688a2,2,0,0,0-.5015,2.7836l12.68,18.2532-21.7277,46.15L38.165,143.111a2,2,0,0,0-1.826,2.16l4.1733,49.8257a2,2,0,0,0,2.16,1.826l27.9021-2.3372,25.8083,37.15L84.4561,257.0674a2,2,0,0,0,.9575,2.6614L130.65,281.0272a2,2,0,0,0,2.6615-.9575l13.1565-27.9437,42.2006-3.5352,17.6221,25.3657a2,2,0,0,0,2.7836.5015l41.0635-28.5269a2,2,0,0,0,.5015-2.7836l-15.975-22.9951,19.2688-40.9262,27.9015-2.3372a2,2,0,0,0,1.826-2.16l-4.1733-49.8257A2.0136,2.0136,0,0,0,278.7858,123.543Zm-26.337,51.7936a2,2,0,0,0-1.6426,1.1411l-20.2524,43.0156a2,2,0,0,0,.167,1.993l15.4927,22.3008-37.7784,26.2448-17.14-24.6714a2,2,0,0,0-1.8094-.8519l-44.502,3.728a2,2,0,0,0-1.6426,1.1411l-12.7965,27.1788L88.9269,256.9618l11.5667-24.5669a2,2,0,0,0-.167-1.993L73.2006,191.355a2,2,0,0,0-1.8094-.8519l-27.06,2.2666-3.84-45.84,21.3059-1.7847a2,2,0,0,0,1.6426-1.1411L86.1517,95.765a2,2,0,0,0-.167-1.993L73.7864,76.2128l37.7784-26.2447,10.5514,15.188a2,2,0,0,0,1.8094.8519l56.0088-4.6914a2,2,0,0,0,1.6426-1.1411l7.8779-16.7321L231.0728,63.038,221.9658,82.382a2,2,0,0,0,.167,1.993l30.42,43.7881a2,2,0,0,0,1.8094.8519l21.3063-1.7847,3.8395,45.84Z" class="fill"/>
    </g>
  </g>
</svg>
