<svg xmlns="http://www.w3.org/2000/svg" viewBox="0 0 320 320">
  <title>_.regular.refresh-outline</title>
  <g id="camera">
    <g>
      <path d="M243.8762,135.1467l-.4685-1.34H195.36l29.4868-30.23-1.2322-1.3917a87.2087,87.2087,0,0,0-63.9417-29.54l-.0178,0h-.0234c-1.4094.0118-3.1133.0614-4.6221.14v-.1323l-2.1162.1234a85.0965,85.0965,0,0,0-57.7069,27.2968,88.183,88.183,0,0,0-23.371,60.09c.0013,8.5564,1.8568,16.1445,4.0449,24.4927l.3914,1.4924h48.3267L94.5431,216.376l1.2435,1.4048c15.61,17.6377,37.9543,29.1611,63.1631,29.5461h.0427c1.2815-.0076,2.4758-.0513,3.6033-.1179v.1147l2.1162-.123a87.3772,87.3772,0,0,0,82.2761-87.0132,122.243,122.243,0,0,0-.6379-13.11A54.9633,54.9633,0,0,0,243.8762,135.1467ZM220.1016,217.354a83.3721,83.3721,0,0,1-53.5061,25.6782v-.1853l-2.1938.2141c-1.5828.1543-3.3845.2524-5.4062.2656-23.334-.363-44.0884-10.7295-58.9541-26.8091l30.7622-30.9607-1.4187-3.4094H79.3428c-1.9958-7.6946-3.5288-14.51-3.5275-21.9854A84.18,84.18,0,0,1,98.1216,102.79,81.0836,81.0836,0,0,1,151.01,76.9448v.1808l2.189-.2079c1.5342-.1472,4.39-.2573,6.4395-.2729a83.1578,83.1578,0,0,1,59.7329,26.8168L189.1833,134.41l1.4319,3.3965h49.9172a55.1188,55.1188,0,0,1,1.8413,9.7063,118.429,118.429,0,0,1,.6145,12.6748A82.684,82.684,0,0,1,220.1016,217.354Z" class="fill"/>
      <path d="M247.6782,75.1052A120.4365,120.4365,0,0,0,160.8271,38c-1.2554,0-2.68.01-4.0134.06h0C91.0736,39.3422,38.0035,93.7125,38,160.1836a126.7405,126.7405,0,0,0,1.9772,21.9639H38.005L38,274.4431l3.4229,1.4058,30.5267-30.9006A119.6263,119.6263,0,0,0,158.5742,282c2.27,0,4.4517-.0791,6.1685-.2056l1.0549-.0779A121.2671,121.2671,0,0,0,281.4011,160.1289a129.8975,129.8975,0,0,0-1.52-22.3225h2.1143L282,45.5225,278.5837,44.11ZM164.5142,277.7788l-1.9185.0781v.0527c-1.2349.0552-2.606.09-4.0215.09a115.7022,115.7022,0,0,1-85.1359-37.2859l-1.421-1.5261L42,269.5725l.0045-83.4253h2.76l-.4375-2.3638a125.7625,125.7625,0,0,1-2.327-23.6C41.9962,95.8683,93.3827,43.2649,156.9277,42.0582l.0193,0,.0183-.0006C158.21,42.01,159.594,42,160.8271,42A116.5026,116.5026,0,0,1,246.186,79.3322l1.4141,1.516L278,50.3608l-.0046,83.4456-.5027,0h-2.4316l.469,2.3857c1.6013,8.1458,1.8716,15.5774,1.8718,23.9365A117.272,117.272,0,0,1,164.5142,277.7788Z" class="fill"/>
    </g>
  </g>
</svg>
