<svg xmlns="http://www.w3.org/2000/svg" viewBox="0 0 320 320">
  <title>_.regular.arrow-up</title>
  <g id="camera">
    <path d="M170.5574,72.4277a11.6934,11.6934,0,0,0-2.7137-2.239A15.225,15.225,0,0,0,159.7813,68,14.7081,14.7081,0,0,0,149.44,72.5571L72.436,149.5444A15.0283,15.0283,0,0,0,68,160.1885,14.8908,14.8908,0,0,0,82.9094,175.04a15.0207,15.0207,0,0,0,10.64-4.4131l51.436-51.4377-.01,117.82a14.8111,14.8111,0,0,0,4.5289,10.6194,15.2914,15.2914,0,0,0,21.4136-.0042,14.8223,14.8223,0,0,0,4.53-10.6228l-.0013-117.8167,51.1556,51.3972.0035.0037A14.8556,14.8556,0,0,0,252,160.1287a15.1769,15.1769,0,0,0-4.4648-10.74ZM248,160.1287a10.723,10.723,0,0,1-3.1515,7.6335,10.8317,10.8317,0,0,1-15.4146-.0059l.0035.0037L174.8643,112.929a2,2,0,0,0-3.4176,1.4109l.0015,122.6611a10.8175,10.8175,0,0,1-3.3229,7.7593,11.2913,11.2913,0,0,1-15.8286.0037,10.808,10.808,0,0,1-3.3212-7.7551l.01-122.6484a2,2,0,0,0-3.4142-1.4143l-54.85,54.8516a11.0181,11.0181,0,0,1-7.812,3.2422,10.8807,10.8807,0,0,1-7.73-3.2A10.7587,10.7587,0,0,1,72,160.1885a11.024,11.024,0,0,1,3.2642-7.8152l77.0352-77.0186.0868-.093,0,0a10.45,10.45,0,0,1,2.101-1.6855A10.0308,10.0308,0,0,1,159.7813,72a11.21,11.21,0,0,1,5.9672,1.5964,8.91,8.91,0,0,1,1.4053,1.06c.1482.1382.2531.248.3142.3152l.059.0664.0049.0059.0007-.0007.14.157L244.707,152.217A11.1749,11.1749,0,0,1,248,160.1287Z" class="fill"/>
  </g>
</svg>
