<svg xmlns="http://www.w3.org/2000/svg" viewBox="0 0 320 320">
  <title>_.regular.file</title>
  <g id="camera">
    <path d="M74.667,290H245.333a2,2,0,0,0,2-2V74.6665a1.9822,1.9822,0,0,0-.2136-.8825c-.0173-.0353-.0356-.0688-.0552-.1032a1.9925,1.9925,0,0,0-.3169-.4285l-42.666-42.6665a1.9777,1.9777,0,0,0-.4192-.31c-.0413-.0239-.082-.0458-.125-.0667a2.0126,2.0126,0,0,0-.47-.1674l-.0229-.0041A1.9753,1.9753,0,0,0,202.667,30h-128a2,2,0,0,0-2,2V288a2,2,0,0,0,2,2ZM240.5044,72.6665H204.6667V36.8284l31.0051,31.0053ZM200.667,34V74.6665a2,2,0,0,0,2,2h40.666V286H76.667V34Z" class="fill"/>
  </g>
</svg>
