<svg xmlns="http://www.w3.org/2000/svg" viewBox="0 0 320 320">
  <title>_.regular.arrow-left-filled</title>
  <g id="camera">
    <path d="M237.001,144.5518l-117.8164.0015,51.397-51.1553.0039-.0037A14.8562,14.8562,0,0,0,160.1289,68a15.17,15.17,0,0,0-10.74,4.4651h0l0,0h0l-76.96,76.9768a11.6949,11.6949,0,0,0-2.24,2.7146A15.2242,15.2242,0,0,0,68,160.2188a14.7074,14.7074,0,0,0,4.56,10.343l76.9849,77.0024A15.0284,15.0284,0,0,0,160.1887,252,14.8889,14.8889,0,0,0,175.04,237.0911a15.02,15.02,0,0,0-4.4133-10.6409L119.189,175.0146l117.82.01a14.81,14.81,0,0,0,10.6194-4.5291,15.2908,15.2908,0,0,0-.0042-21.4131A14.8211,14.8211,0,0,0,237.001,144.5518Z" class="fill"/>
  </g>
</svg>
