<svg xmlns="http://www.w3.org/2000/svg" viewBox="0 0 320 320">
  <title>_.regular.arrow-cw-outline</title>
  <g id="camera">
    <path d="M259.7175,158.02a2,2,0,0,0-1.6973,2.2622l0,0,0,.0024a33.0669,33.0669,0,0,1,.2,4.0491,74.6327,74.6327,0,0,1-4.8132,25.1855c-4.1025,11.262-11.5872,24.7773-25.199,38.7231-7.6709,7.8611-18.2378,14.3933-30.4128,18.938a115.3189,115.3189,0,0,1-40.0015,7.11,108.2053,108.2053,0,0,1-36.4592-6.1682,93.0109,93.0109,0,0,1-32.6892-19.9368,94.9225,94.9225,0,0,1-30.2341-69.7332C58.4055,132.9143,68.437,108.21,85.6553,91.4965l2.91,31.4009a2,2,0,0,0,3.9834-.3689h0l-3.2842-35.44c-.0012-.0117-.0054-.0225-.0066-.0342a1.9881,1.9881,0,0,0-.043-.219c-.0127-.0564-.021-.1143-.0381-.1685-.0188-.0592-.0474-.1152-.0718-.173a1.9964,1.9964,0,0,0-.0845-.1891c-.0244-.0442-.0569-.0846-.085-.1272a2.0343,2.0343,0,0,0-.1418-.1987c-.0068-.0079-.011-.0172-.0181-.0251-.0288-.033-.0635-.057-.094-.0875a2.0325,2.0325,0,0,0-.17-.1588c-.0479-.038-.0991-.0687-.15-.1018a1.9953,1.9953,0,0,0-.176-.1077c-.0549-.0283-.1118-.05-.1687-.0724a1.9929,1.9929,0,0,0-.1919-.0707c-.06-.0172-.1208-.027-.1821-.0386a1.3567,1.3567,0,0,0-.4109-.0337c-.0481.001-.0947-.0056-.1436-.0011L51.6484,88.5651a2,2,0,1,0,.3691,3.9832l29.6729-2.75C64.3511,107.31,54.4177,132.4634,54.4119,158.4524a98.9391,98.9391,0,0,0,31.4871,72.6411,97.0205,97.0205,0,0,0,34.0859,20.7942,112.2051,112.2051,0,0,0,37.8093,6.4026,119.2929,119.2929,0,0,0,41.4009-7.3625c12.6357-4.7214,23.6938-11.5146,31.8755-19.8911,14.0063-14.3447,21.8123-28.3809,26.0957-40.1487a78.6054,78.6054,0,0,0,5.0542-26.5542,35.7364,35.7364,0,0,0-.2407-4.6162A2,2,0,0,0,259.7175,158.02Z" class="fill"/>
  </g>
</svg>
