<svg xmlns="http://www.w3.org/2000/svg" viewBox="0 0 320 320">
  <title>_.regular.person-outline</title>
  <g id="camera">
    <g>
      <path d="M160,194.4294a69.1752,69.1752,0,1,0-69.1753-69.1755A69.1759,69.1759,0,0,0,160,194.4294ZM113.9142,79.1683a65.1748,65.1748,0,1,1-19.09,46.0856A64.9629,64.9629,0,0,1,113.9142,79.1683Z" class="fill"/>
      <path d="M213.5317,182.01a2.0013,2.0013,0,0,0-2.2889.2844,76.079,76.079,0,0,1-102.4857,0,2.0013,2.0013,0,0,0-2.2889-.2844,113.7677,113.7677,0,0,0-59.6449,88.9792,2,2,0,0,0,1.99,2.1975h222.373a2,2,0,0,0,1.99-2.1975A113.7679,113.7679,0,0,0,213.5317,182.01Zm-106.376,4.1919a79.999,79.999,0,0,0,105.6885,0,109.7632,109.7632,0,0,1,56.0986,82.9851H51.0571A109.7631,109.7631,0,0,1,107.1558,186.2014Z" class="fill"/>
    </g>
  </g>
</svg>
