<svg xmlns="http://www.w3.org/2000/svg" viewBox="0 0 320 320">
  <title>_.regular.picture-filled</title>
  <g id="camera">
    <path d="M290,58H76.7012a1.9989,1.9989,0,0,0-2,1.9962h-.0007a34.5155,34.5155,0,0,1-1.9368,9.6348A54.7091,54.7091,0,0,1,59.7017,90.5364,52.7523,52.7523,0,0,1,39.0823,104.01a37.8265,37.8265,0,0,1-6.6968,1.66c-.7971.1168-1.415.174-1.8228.2018-.2039.0139-.3552.0206-.45.0238l-.1.0026-.0173,0v0a1.9989,1.9989,0,0,0-1.9951,2V260a1.9648,1.9648,0,0,0,.0347.3448c.0024.0145.0015.0292.0044.0436a2.0144,2.0144,0,0,0,.1567.4562c.0093.02.0107.0413.0208.0607.0129.0256.0344.0447.0486.07a1.9936,1.9936,0,0,0,.2227.32c.0239.0277.0439.058.0691.0842.01.0111.0181.0244.0288.0353a1.9852,1.9852,0,0,0,.3423.269c.0339.0215.07.0365.1052.056a2.0042,2.0042,0,0,0,.3406.15c.0471.0157.093.031.1414.0432A1.9787,1.9787,0,0,0,30,262H290a2,2,0,0,0,2-2V60a2,2,0,0,0-2-2ZM40.3765,107.7952A56.7621,56.7621,0,0,0,62.5657,93.3287,58.6065,58.6065,0,0,0,76.6572,70.5969,43.1131,43.1131,0,0,0,78.564,62H288V188.4166l-26.9272-27.6176-34.6406-35.5283a2,2,0,0,0-3.0464.2157L194.55,164.92l-18.4485,22.7424L161.1453,169.29l-33.1428-43.8295a2,2,0,0,0-3.229.0526l-30.74,43.5308c-1.2766,1.6367-2.1665,2.9209-2.5374,3.4709L32,253.8772l0-144.1243A40.4216,40.4216,0,0,0,40.3765,107.7952ZM229.4941,173.762h0a21.5746,21.5746,0,0,1-6.3232.9053,29.4737,29.4737,0,0,1-6.6343-.8c-1.1951-.2754-2.3665-.6228-3.5156-1.0027-.4773-.1577-.948-.32-1.4143-.4919a50.8986,50.8986,0,0,1-4.8237-2.0664c-.1111-.0546-.23-.1069-.34-.1617a61.3885,61.3885,0,0,1-5.94-3.39c-.2227-.1442-.4382-.285-.6414-.42-.34-.2256-.6482-.4362-.9294-.6312l26.2859-35.9467,31.2021,32.0017A141.0814,141.0814,0,0,1,229.4941,173.762Zm-73.71.694a15.19,15.19,0,0,1-6.9968,4.8784,6.1617,6.1617,0,0,1-1.1028.3105,6.2366,6.2366,0,0,1-1.1133.0991,8.2869,8.2869,0,0,1-3.0037-.6179,12.6215,12.6215,0,0,1-1.3892-.6431,22.02,22.02,0,0,1-4.1973-3.0272,48.0469,48.0469,0,0,1-6.2751-7.0492q-.3622-.488-.6921-.9514c-.8806-1.2329-1.5859-2.31-2.0676-3.0726-.2407-.3816-.4258-.6848-.5491-.89-.0618-.1027-.1079-.1808-.1379-.2319l-.033-.0564-.0083-.0142-.0723-.116a14.2512,14.2512,0,0,0-3.564-3.3916,22.0337,22.0337,0,0,0-11.1514-3.7393h.001l-.0039,0c-.1729-.0126-.3457-.0153-.5188-.0189-.07-.0013-.1414-.0078-.21-.0077a12.95,12.95,0,0,0-5.4392,1.3326l19.2031-27.1929,30.9744,40.9615A9.5366,9.5366,0,0,1,155.7839,174.4559Z" class="fill"/>
  </g>
</svg>
