<svg xmlns="http://www.w3.org/2000/svg" viewBox="0 0 320 320">
  <title>_.regular.cloud</title>
  <g id="camera">
    <path d="M293.9731,182.8927A43.1732,43.1732,0,0,0,283.16,170.5192a45.0712,45.0712,0,0,0-16.9221-8.0532,44.5906,44.5906,0,0,0-7.2769-1.1661,83.2407,83.2407,0,0,0-5.6143-23.7614,76.6675,76.6675,0,0,0-13.0776-21.8319,73.3637,73.3637,0,0,0-25.1709-18.8143C201.06,90.4087,189.1917,87.9988,179.3367,88c-13.2368-.006-22.7839,4.3627-28.9583,8.7557a40.2811,40.2811,0,0,0-8.0173,7.4319,58.8727,58.8727,0,0,0-7.09-3.0345,65.9621,65.9621,0,0,0-21.9753-3.8514,60.7265,60.7265,0,0,0-24.2151,5.0173c-8.5828,3.7-17.4685,9.7837-26.1,19.2347-8.4854,9.2882-13.9565,17.7511-17.3088,25.3315a49.2144,49.2144,0,0,0-4.5769,19.9635,35.4133,35.4133,0,0,0,3.7664,16.21,29.9,29.9,0,0,0,1.7292,2.9542,29.0294,29.0294,0,0,0-8.88,4.0271,36.6312,36.6312,0,0,0-9.9939,10.1534,58.5507,58.5507,0,0,0-8.0029,19.0084c-.08.3259-.156.65-.2292.9683l1.9495.4475-1.9495-.4471A56.9547,56.9547,0,0,0,18,232.845c.0054,7.7905,1.79,14.9775,5.6584,20.3623a20.7677,20.7677,0,0,0,7.3855,6.4351A22.4061,22.4061,0,0,0,41.3887,262H257.0605l.0955,0a48.25,48.25,0,0,0,7.9873-.8007c6.4-1.1426,15.5532-3.8844,23.2183-10.6855a38.0762,38.0762,0,0,0,9.7109-13.4907,52.2034,52.2034,0,0,0,3.9268-20.9286q0-2.2311-.1416-4.6031C301.12,199.2937,298.1357,189.97,293.9731,182.8927Zm-2.05,57.2733a34.1613,34.1613,0,0,1-9.7593,10.1229,45.054,45.054,0,0,1-16.1819,6.675A46.2855,46.2855,0,0,1,257.156,258l-.06,0H41.3887a18.4039,18.4039,0,0,1-8.519-1.9166,18.083,18.083,0,0,1-8.09-8.8977A34.7187,34.7187,0,0,1,22,232.845a53.01,53.01,0,0,1,1.384-11.78h0c.0693-.3025.1414-.6077.2161-.9127a54.5759,54.5759,0,0,1,7.4338-17.7227,30.5264,30.5264,0,0,1,12.97-11.3007,22.47,22.47,0,0,1,4.6062-1.4779c.5579-.111.9927-.17,1.2761-.2008.1418-.0155.2458-.0238.3086-.0282l.0625-.0038v0a2,2,0,0,0,1.3582-3.4023h0a21.8272,21.8272,0,0,1-3.3464-5.0853,31.4944,31.4944,0,0,1-3.1733-14.0813,45.2216,45.2216,0,0,1,4.2354-18.3457c3.1453-7.1133,8.3555-15.223,16.604-24.2515,8.2905-9.0735,16.6909-14.7905,24.73-18.26a56.721,56.721,0,0,1,22.6311-4.69,61.9817,61.9817,0,0,1,20.6333,3.62,56.5684,56.5684,0,0,1,5.9182,2.4792c.6831.3354,1.2043.6128,1.55.803.1726.095.301.1683.3835.2161l.0891.0522.0183.0109.0007,0a2.003,2.003,0,0,0,2.7141-.6221l0,0s.0374-.0575.1182-.1726a35.0833,35.0833,0,0,1,9.1965-8.5076c5.6406-3.698,13.93-7.1763,25.4185-7.1813,9.199.0009,20.4773,2.2421,34.0845,8.5242a69.347,69.347,0,0,1,23.8159,17.792,75.3579,75.3579,0,0,1,15.4741,30.1388A78.7445,78.7445,0,0,1,254.74,159.17c.1516,1.3112.2319,2.3458.2742,3.0455.021.35.0327.6158.0388.7908l.0061.1931.001.0437v.0074a2,2,0,0,0,2.0427,1.9731h.001l.0393,0a35.2258,35.2258,0,0,1,6.71.8037,40.6052,40.6052,0,0,1,20.3438,10.7107,41.6266,41.6266,0,0,1,8.98,13.46,64.63,64.63,0,0,1,4.6877,21.5352q.1366,2.2553.1348,4.3616C297.9949,226.6134,295.5479,234.3606,291.9236,240.166Z" class="fill"/>
  </g>
</svg>
