<svg xmlns="http://www.w3.org/2000/svg" viewBox="0 0 320 320">
  <title>_.regular.person-filled</title>
  <g id="camera">
    <g>
      <path d="M212.9786,181.8274a2.003,2.003,0,0,0-2.3047.2874,74.6386,74.6386,0,0,1-101.348,0,2.0031,2.0031,0,0,0-2.3047-.2874A113.8009,113.8009,0,0,0,48.01,270.8044,2,2,0,0,0,50,273H270a2,2,0,0,0,1.99-2.1953A113.8009,113.8009,0,0,0,212.9786,181.8274Z" class="fill"/>
      <path d="M160,194.4294a67.9,67.9,0,0,0,48.415-20.2686,69.689,69.689,0,0,0,0-97.8134,67.9587,67.9587,0,0,0-96.83,0,69.689,69.689,0,0,0,0,97.8134A67.9,67.9,0,0,0,160,194.4294Z" class="fill"/>
    </g>
  </g>
</svg>
