<svg xmlns="http://www.w3.org/2000/svg" viewBox="0 0 320 320">
  <title>_.regular.pin-outline</title>
  <g id="camera">
    <path d="M170.5857,269.4142A2,2,0,0,0,174,268V196.8284L232.8284,138H280a2,2,0,0,0,1.4142-3.4142l-96-96A2,2,0,0,0,182,40V87.1715L123.1714,146H52a2,2,0,0,0-1.4142,3.4142l46.8019,46.8019L38.3725,278.8374a2,2,0,0,0,2.79,2.79l82.6212-59.0151ZM48.6025,271.3975l51.6526-72.3138,20.661,20.661ZM124,150a2.0136,2.0136,0,0,0,1.4142-.5857l60-60A2.0136,2.0136,0,0,0,186,88V44.8284L275.1714,134H232a2.0129,2.0129,0,0,0-1.4143.5857l-60,60A2.0129,2.0129,0,0,0,170,196v67.1716l-44.5854-44.5856,0,0-24-24,0,0L56.8284,150Z" class="fill"/>
  </g>
</svg>
