<svg xmlns="http://www.w3.org/2000/svg" viewBox="0 0 320 320">
  <title>_.refresh-filled</title>
  <g id="camera">
    <path d="M280.7639,43.6741a2.0011,2.0011,0,0,0-2.18.4362l-30.9055,30.995A120.4365,120.4365,0,0,0,160.8271,38c-1.2554,0-2.68.01-4.0134.06h0C91.0737,39.3422,38.0034,93.7125,38,160.1836A126.7139,126.7139,0,0,0,39.9775,182.15a1.9983,1.9983,0,0,0-1.9729,1.9971L38,274.4431a2,2,0,0,0,3.4229,1.4058l30.5269-30.9006A119.6272,119.6272,0,0,0,158.5742,282c2.27,0,4.4517-.0791,6.1685-.2056a1.8921,1.8921,0,0,0,.187-.032A121.2752,121.2752,0,0,0,281.4011,160.1289a129.8975,129.8975,0,0,0-1.52-22.3225h.1143a2,2,0,0,0,2-2L282,45.5225A2.0015,2.0015,0,0,0,280.7639,43.6741ZM165.2,243.1477a1.9962,1.9962,0,0,0-.7986-.0867c-1.5828.1543-3.3845.2524-5.4062.2656-23.334-.363-44.0884-10.7295-58.9541-26.8091l30.7622-30.9607a2,2,0,0,0-1.4187-3.4094H79.3428c-1.9958-7.6946-3.5288-14.51-3.5276-21.9854A84.18,84.18,0,0,1,98.1216,102.79,81.0857,81.0857,0,0,1,152.4,76.8293a1.9984,1.9984,0,0,0,.7988.0884c1.5342-.1472,4.39-.2573,6.4395-.2729a83.1578,83.1578,0,0,1,59.7329,26.8168L189.1833,134.41a2,2,0,0,0,1.4319,3.3965h49.9172a55.1188,55.1188,0,0,1,1.8413,9.7063,118.429,118.429,0,0,1,.6145,12.6748,83.3511,83.3511,0,0,1-77.7881,82.96Z" class="fill"/>
  </g>
</svg>
