<svg xmlns="http://www.w3.org/2000/svg" viewBox="0 0 320 320">
  <title>_.regular.plus-filled</title>
  <g id="camera">
    <path d="M242.7676,140.9863h-60.77l0-62.5044a20.27,20.27,0,0,0-6.1465-14.4968,20.8073,20.8073,0,0,0-29.2061,0,20.2682,20.2682,0,0,0-6.147,14.4968v62.5044H79.7314a20.7016,20.7016,0,0,0-14.46,5.763,19.9713,19.9713,0,0,0,0,28.5845,20.7016,20.7016,0,0,0,14.46,5.7633h60.7671l0,60.4209a20.2683,20.2683,0,0,0,6.147,14.4968,20.8074,20.8074,0,0,0,29.2061,0,20.27,20.27,0,0,0,6.1465-14.4967V181.0972h60.769a20.7018,20.7018,0,0,0,14.4595-5.7633,19.9724,19.9724,0,0,0,0-28.5845A20.7018,20.7018,0,0,0,242.7676,140.9863Z" class="fill"/>
  </g>
</svg>
