<svg xmlns="http://www.w3.org/2000/svg" viewBox="0 0 320 320">
  <title>_.regular.plus</title>
  <g id="camera">
    <path d="M241.625,140.9863H180.8569V78.4819a20.2682,20.2682,0,0,0-6.147-14.4968,20.8073,20.8073,0,0,0-29.2061,0,20.27,20.27,0,0,0-6.1465,14.4968v62.5044H78.5889a20.7021,20.7021,0,0,0-14.46,5.763,19.9724,19.9724,0,0,0,0,28.5845,20.7024,20.7024,0,0,0,14.46,5.7633h60.7681l0,60.4209a20.27,20.27,0,0,0,6.1465,14.4967,20.8074,20.8074,0,0,0,29.2061,0,20.2682,20.2682,0,0,0,6.147-14.4968V181.0972H241.625a20.7013,20.7013,0,0,0,14.46-5.7633,19.9713,19.9713,0,0,0,0-28.5845A20.7013,20.7013,0,0,0,241.625,140.9863ZM253.3027,172.46a16.6984,16.6984,0,0,1-11.6777,4.6371H178.8574a1.9994,1.9994,0,0,0-2,2v62.4209a16.2658,16.2658,0,0,1-4.9478,11.64,16.8073,16.8073,0,0,1-23.6055,0,16.2652,16.2652,0,0,1-4.9473-11.64V179.0972a2,2,0,0,0-2-2H78.5889A16.6963,16.6963,0,0,1,66.9116,172.46a15.97,15.97,0,0,1,0-22.8369,16.6964,16.6964,0,0,1,11.6772-4.6368h62.7686a2,2,0,0,0,2-2V78.4819a16.2653,16.2653,0,0,1,4.9473-11.6405,16.8074,16.8074,0,0,1,23.6055,0,16.2657,16.2657,0,0,1,4.9478,11.64v64.5044a1.9995,1.9995,0,0,0,2,2H241.625a16.6982,16.6982,0,0,1,11.6777,4.6369,15.97,15.97,0,0,1,0,22.8368Z" class="fill"/>
  </g>
</svg>
