<svg xmlns="http://www.w3.org/2000/svg" viewBox="0 0 320 320">
  <title>_.regular.refresh</title>
  <g id="camera">
    <g>
      <path d="M280.7639,43.6741a2.0011,2.0011,0,0,0-2.18.4362l-30.9055,30.995A120.4365,120.4365,0,0,0,160.8271,38c-1.2554,0-2.68.01-4.0134.06h0C91.0737,39.3422,38.0034,93.7125,38,160.1836A126.7139,126.7139,0,0,0,39.9775,182.15a1.9983,1.9983,0,0,0-1.9729,1.9971L38,274.4431a2,2,0,0,0,3.4229,1.4058l30.5269-30.9006A119.6272,119.6272,0,0,0,158.5742,282c2.27,0,4.4517-.0791,6.1685-.2056a1.8921,1.8921,0,0,0,.187-.032A121.2752,121.2752,0,0,0,281.4011,160.1289a129.8975,129.8975,0,0,0-1.52-22.3225h.1143a2,2,0,0,0,2-2L282,45.5225A2.0015,2.0015,0,0,0,280.7639,43.6741Zm-116.25,234.1047a1.9811,1.9811,0,0,0-.29.04c-1.5647.1091-3.57.1809-5.65.1809a115.7023,115.7023,0,0,1-85.136-37.2859,2,2,0,0,0-2.8865-.0427L42,269.5725l.0044-83.4253H42.36a2,2,0,0,0,1.9666-2.3638A125.7729,125.7729,0,0,1,42,160.1836C41.9961,95.8683,93.3826,43.2649,156.9277,42.0582l.0376-.0011C158.21,42.01,159.594,42,160.8271,42A116.5026,116.5026,0,0,1,246.186,79.3322a2,2,0,0,0,2.8784.0477L278,50.3607l-.0046,83.4457-.5027,0a2,2,0,0,0-1.9626,2.3857c1.6013,8.1458,1.8716,15.5774,1.8718,23.9365A117.272,117.272,0,0,1,164.5142,277.7788Z" class="fill"/>
      <path d="M243.8762,135.1467a1.9972,1.9972,0,0,0-1.8879-1.34H195.36l28.189-28.8994a1.9973,1.9973,0,0,0,.0657-2.7223,87.2087,87.2087,0,0,0-63.9417-29.54h-.0413c-1.8716.0156-4.2664.0973-6.0256.2266a1.9922,1.9922,0,0,0-.7126-.0953,85.0971,85.0971,0,0,0-57.707,27.2968,88.1835,88.1835,0,0,0-23.3708,60.09c.0012,8.5564,1.8567,16.1445,4.0449,24.4927a1.9948,1.9948,0,0,0,1.9346,1.4924h46.783L95.8652,215.0454a1.9982,1.9982,0,0,0-.0786,2.7354c15.61,17.6377,37.9543,29.1611,63.1631,29.5461h.0427c1.8342-.011,3.5-.092,5.02-.2185a1.9876,1.9876,0,0,0,.6995.0923,87.3772,87.3772,0,0,0,82.2761-87.0132,122.243,122.243,0,0,0-.6379-13.11A54.9633,54.9633,0,0,0,243.8762,135.1467ZM220.1016,217.354A83.3662,83.3662,0,0,1,165.2,243.1477a1.9962,1.9962,0,0,0-.7986-.0867c-1.5828.1543-3.3845.2524-5.4062.2656-23.334-.363-44.0884-10.7295-58.9541-26.8091l30.7622-30.9607a2,2,0,0,0-1.4187-3.4094H79.3428c-1.9958-7.6946-3.5288-14.51-3.5276-21.9854A84.18,84.18,0,0,1,98.1216,102.79,81.0857,81.0857,0,0,1,152.4,76.8293a1.9984,1.9984,0,0,0,.7988.0884c1.5342-.1472,4.39-.2573,6.4395-.2729a83.1578,83.1578,0,0,1,59.7329,26.8168L189.1833,134.41a2,2,0,0,0,1.4319,3.3965h49.9172a55.1188,55.1188,0,0,1,1.8413,9.7063,118.429,118.429,0,0,1,.6145,12.6748A82.684,82.684,0,0,1,220.1016,217.354Z" class="fill"/>
    </g>
  </g>
</svg>
