<svg xmlns="http://www.w3.org/2000/svg" viewBox="0 0 320 320">
  <title>_.regular.arrow-left-outline</title>
  <g id="camera">
    <path d="M237,144.5518l-117.8155.0015,51.3963-51.1553.0035-.0037A14.8556,14.8556,0,0,0,160.1292,68a15.1746,15.1746,0,0,0-10.74,4.4651h0l-76.96,76.9775a11.6966,11.6966,0,0,0-2.24,2.7141A15.2234,15.2234,0,0,0,68,160.2188a14.7091,14.7091,0,0,0,4.5594,10.3433l76.9847,77.0022A15.03,15.03,0,0,0,160.1888,252,14.89,14.89,0,0,0,175.04,237.0906a15.02,15.02,0,0,0-4.4131-10.64l-51.4381-51.4355,117.82.01a14.81,14.81,0,0,0,10.62-4.5291,15.2907,15.2907,0,0,0-.0043-21.4131A14.8223,14.8223,0,0,0,237,144.5518Zm7.7634,23.1514a10.8088,10.8088,0,0,1-7.7551,3.3213l-122.6488-.01a2,2,0,0,0-1.4143,3.4141l54.8525,54.85a11.0154,11.0154,0,0,1,3.2418,7.8123,10.88,10.88,0,0,1-3.2,7.7295,10.76,10.76,0,0,1-7.6513,3.18,11.0272,11.0272,0,0,1-7.816-3.2637L75.3553,167.7012l-.093-.0869,0,0a10.4414,10.4414,0,0,1-1.6857-2.1011A10.0288,10.0288,0,0,1,72,160.2188a11.2069,11.2069,0,0,1,1.5964-5.9668,8.9164,8.9164,0,0,1,1.06-1.4053c.1383-.1482.2482-.2529.3152-.3142l.0667-.0591.0057-.0046-.0007-.0007.157-.14,77.0176-77.0352-1.4144-1.4138,1.4144,1.4138A11.1743,11.1743,0,0,1,160.1292,72a10.7249,10.7249,0,0,1,7.6337,3.1519,10.8322,10.8322,0,0,1-.0057,15.4136l-54.8278,54.571a2,2,0,0,0,1.4109,3.4177l122.66-.002a10.8178,10.8178,0,0,1,7.76,3.323,11.291,11.291,0,0,1,.0037,15.8284Z" class="fill"/>
  </g>
</svg>
