<svg xmlns="http://www.w3.org/2000/svg" viewBox="0 0 320 320">
  <title>_.regular.lock-outline</title>
  <g id="camera">
    <g>
      <path d="M200.99,81.3548a39.8767,39.8767,0,0,0-4.9231-11.1874,28.7659,28.7659,0,0,0-13.624-11.0027C176.5083,56.7531,169.1594,55.602,160,55.6c-10.8516.0027-19.1768,1.6177-25.5911,5.0355a28.3467,28.3467,0,0,0-11.1707,10.6326c-4.041,6.7281-5.9509,15.3375-6.9182,25.8243-.96,10.4929-.9558,22.9061-.9568,37.3074a2,2,0,0,0,2,2h85.2734a2,2,0,0,0,2-2c0-12.8007.002-24.032-.6709-33.7383A96.1144,96.1144,0,0,0,200.99,81.3548Zm-78.1326,1.0905A35.9145,35.9145,0,0,1,127.271,72.37a24.7232,24.7232,0,0,1,11.7927-9.5c5.2639-2.1447,12.1082-3.2717,20.9363-3.27,10.4668-.0027,18.13,1.5823,23.7075,4.5645a24.309,24.309,0,0,1,9.6274,9.1674c3.5474,5.8719,5.4316,13.9124,6.3613,24.1257.8928,9.7259.9382,21.4078.94,34.9423H119.3635c.0015-11.9581.0364-22.47.6611-31.4614A92.2749,92.2749,0,0,1,122.8579,82.4453Z" class="fill"/>
      <path d="M60.5137,290H259.4863a2,2,0,0,0,2-2V134.4a2,2,0,0,0-2-2h-26.425c-.0032-12.1375-.0547-24.2866-1.1177-35.7842a117.5751,117.5751,0,0,0-4.9319-25.7524,63.1493,63.1493,0,0,0-8.04-16.5135,51.05,51.05,0,0,0-22.0215-17.8289C187.2966,32.3061,175.1892,30,160,30c-17.9993,0-31.6819,3.2405-42.0608,9.0553A50.3213,50.3213,0,0,0,99.9023,56.0316c-6.5635,10.2261-9.7664,22.647-11.37,36.0707-1.5256,12.8074-1.59,26.5594-1.5937,40.2976H60.5137a2,2,0,0,0-2,2V288a2,2,0,0,0,2,2Zm2-153.6H88.9375a2,2,0,0,0,2-2c-.0007-12.7992.0027-25.5449,1.1021-37.4156a113.6579,113.6579,0,0,1,4.749-24.8724,59.1594,59.1594,0,0,1,7.521-15.4753,47.0186,47.0186,0,0,1,20.3406-16.45C133.6614,36.25,145.21,33.9995,160,34c17.532,0,30.4978,3.1595,40.1052,8.5448a46.2969,46.2969,0,0,1,16.627,15.6488c6.0842,9.4614,9.2051,21.2841,10.7634,34.3823,1.5623,13.093,1.5681,27.4252,1.5669,41.824a2,2,0,0,0,2,2h26.4238V286H62.5134Z" class="fill"/>
      <path d="M177.8652,162.8254A37.1529,37.1529,0,0,0,165.8276,158.6,36.7731,36.7731,0,0,0,160,158a40.5764,40.5764,0,0,0-15.0337,3.3763,26.4134,26.4134,0,0,0-10.5574,8.2338c-2.9268,3.94-4.8425,9.2229-4.8337,15.99-.0007,6.6286,1.1509,11.7294,2.9592,15.6395a21.6191,21.6191,0,0,0,4.9041,6.8712,19.3945,19.3945,0,0,0,7.9275,4.4448c.6113.1721,1.1667.2952,1.6636.3876l-7.6716,48.0751a2,2,0,0,0,1.9751,2.3151h37.334a2,2,0,0,0,1.9749-2.3151l-7.6716-48.076c.2937-.0546.6023-.1168.9385-.1975a19.4758,19.4758,0,0,0,4.959-1.9438,20.18,20.18,0,0,0,7.8909-8.1521c2.2078-4.0655,3.6675-9.5929,3.666-17.0488.0088-6.7671-1.907-12.05-4.8337-15.99A25.2248,25.2248,0,0,0,177.8652,162.8254Zm5.9695,36.7353a17.6134,17.6134,0,0,1-3.9922,5.6163,15.3936,15.3936,0,0,1-6.2947,3.5287,14.1474,14.1474,0,0,1-2.16.437c-.2571.03-.4541.0447-.5784.0515l-.13.0056-.0215,0v.001a1.9983,1.9983,0,0,0-1.9653,2.3141l7.63,47.8181h-32.645l7.6306-47.8181a1.9984,1.9984,0,0,0-1.9648-2.314V209.2a11.8319,11.8319,0,0,1-2.5273-.3967,15.4877,15.4877,0,0,1-3.9319-1.6082,16.2428,16.2428,0,0,1-6.2126-6.6142c-1.7866-3.3651-3.0947-8.1455-3.0962-14.981.0088-6.0331,1.6462-10.3506,4.0491-13.61a21.2258,21.2258,0,0,1,6.5146-5.7029,33.2147,33.2147,0,0,1,10.7278-3.7479c1.5378-.2711,2.8428-.4065,3.7522-.4734.4546-.0335.8105-.05,1.0474-.058.1187-.004.2073-.006.2637-.0069l.06-.0007h.0161a36.7934,36.7934,0,0,1,13.6965,3.1661,22.1969,22.1969,0,0,1,8.7856,6.9773c2.34,3.2415,3.9285,7.5178,3.9365,13.4567C186.4241,191.7715,185.356,196.2708,183.8347,199.5607Z" class="fill"/>
    </g>
  </g>
</svg>
