<svg xmlns="http://www.w3.org/2000/svg" viewBox="0 0 320 320">
  <title>_.regular.folder-filled</title>
  <g id="camera">
    <g>
      <path d="M119.45,67.1018a6.3038,6.3038,0,0,0-4.4955-1.8914H27.1709a6.2737,6.2737,0,0,0-4.5422,1.9382,6.4534,6.4534,0,0,0-1.492,6.449L77.4934,250.3439a6.3488,6.3488,0,0,0,6.0344,4.4456H264.9453a2,2,0,0,0,1.9063-2.605L217.3359,96.1757a6.35,6.35,0,0,0-6.0371-4.454H144.61a2.3048,2.3048,0,0,1-1.6439-.6959l-16.1012-16.38Z" class="fill"/>
      <path d="M291.8345,85.1567H237.2358l-2.363-8.2477a12.9162,12.9162,0,0,0-12.3757-9.4261H134.49a2,2,0,0,0-1.4263,3.402l14.6274,14.88a4.156,4.156,0,0,0,2.9693,1.2512h66.6885a4.467,4.467,0,0,1,4.2646,3.1574l49.5254,156.04a2,2,0,0,0,2.99,1.0761,5.9,5.9,0,0,0,2.6-3.8306l27.8467-142.5613a13.4814,13.4814,0,0,0,.2514-2.5861,13.26,13.26,0,0,0-3.7411-9.228A12.8331,12.8331,0,0,0,291.8345,85.1567Z" class="fill"/>
    </g>
  </g>
</svg>
