<svg xmlns="http://www.w3.org/2000/svg" viewBox="0 0 320 320">
  <title>_.regular.heart-filled</title>
  <g id="camera">
    <path d="M266.8975,57.2288a48.9028,48.9028,0,0,0-18.271-13.825C240.91,39.9892,231.4788,37.9991,220,38c-15.3038-.0042-26.9581,3.5447-35.7357,8.9505a51.0533,51.0533,0,0,0-15.2268,14.4336A62.1648,62.1648,0,0,0,160,81.6248a59.748,59.748,0,0,0-13.1635-25.441,51.4225,51.4225,0,0,0-18.2349-12.9127C120.901,39.99,111.4792,37.999,100,38c-15.302-.0045-26.9771,3.5447-35.777,9.2651A49.5078,49.5078,0,0,0,48.9762,63.0234c-5.5371,8.988-8.2571,19.0927-9.62,28.2433A149.8012,149.8012,0,0,0,38,113.8462q-.0033,28.239,15.2413,56.337,15.2018,28.0614,45.4021,55.9016l60,55.3847a1.9982,1.9982,0,0,0,2.7131,0s20-18.4614,60-55.3848q30.1813-27.861,45.4021-55.9016Q281.9592,142.1284,282,113.8462a159.03,159.03,0,0,0-.9518-19.5659C279.6115,82.3978,276.0482,68.3957,266.8975,57.2288Z" class="fill"/>
  </g>
</svg>
