<svg xmlns="http://www.w3.org/2000/svg" viewBox="0 0 320 320">
  <title>_.regular.layers</title>
  <g id="camera">
    <g>
      <path d="M282,220a1.9964,1.9964,0,0,0-1.1055-1.7889l-45-22.5a2.0036,2.0036,0,0,0-1.7888,0L160,232.7638,85.8943,195.7111a2.0036,2.0036,0,0,0-1.7888,0l-45,22.5a2,2,0,0,0,0,3.5778l120,60a2.0044,2.0044,0,0,0,1.7888,0l120-60A1.9969,1.9969,0,0,0,282,220ZM160,277.7638,44.4719,220,85,199.736l74.1057,37.0529a2.0044,2.0044,0,0,0,1.7888,0L235,199.7361,275.5276,220Z" class="fill"/>
      <path d="M280.8943,158.2111l-45-22.5a2.0036,2.0036,0,0,0-1.7888,0L160,172.7639,85.8943,135.7111a2.0036,2.0036,0,0,0-1.7888,0l-45,22.5a2,2,0,0,0,0,3.5778l120,60a2.0044,2.0044,0,0,0,1.7888,0l120-60a2,2,0,0,0,0-3.5778ZM160,217.7638,44.4719,160,85,139.736l74.1057,37.0529a2.0044,2.0044,0,0,0,1.7888,0L235,139.736,275.5273,160Z" class="fill"/>
      <path d="M280.8943,98.2111l-120-60a2.0036,2.0036,0,0,0-1.7888,0l-120,60a2,2,0,0,0,0,3.5778l120,60a2.0044,2.0044,0,0,0,1.7888,0l120-60a2,2,0,0,0,0-3.5778ZM160,157.7638,44.4722,100,160,42.2361,275.5273,100Z" class="fill"/>
    </g>
  </g>
</svg>
