<svg xmlns="http://www.w3.org/2000/svg" viewBox="0 0 320 320">
  <title>_.star-outline</title>
  <g id="camera">
    <path d="M300.2876,126.5886,204.59,112.6832,161.7935,25.9669a2,2,0,0,0-3.5869,0L115.41,112.6832,19.7124,126.5886A2,2,0,0,0,18.604,130l69.247,67.4995L71.5039,292.81a2,2,0,0,0,2.9019,2.1083l85.5942-45,85.5942,45a2,2,0,0,0,2.9019-2.1083l-16.3472-95.31L301.396,130a2,2,0,0,0-1.1084-3.4114Zm-71.6836,68.78a2.0078,2.0078,0,0,0-.5752,1.77l15.84,92.3526-82.938-43.603a2.0076,2.0076,0,0,0-1.8613,0l-82.938,43.603,15.84-92.3525a2.0078,2.0078,0,0,0-.5752-1.77L24.298,129.9644l92.7274-13.474a2.0079,2.0079,0,0,0,1.5059-1.0941L160,31.3711l41.4688,84.0252a2.0079,2.0079,0,0,0,1.5059,1.0941l92.7275,13.4739Z" class="fill"/>
  </g>
</svg>
