<svg xmlns="http://www.w3.org/2000/svg" viewBox="0 0 320 320">
  <title>_.support.dots-horizontal</title>
  <g id="console">
    <g>
      <path d="M71.8187,124.9314l-.0006,0a35.0682,35.0682,0,0,0,0,70.1365l.0006,0a35.0685,35.0685,0,0,0,0-70.137Zm-.0006,66.1367.0006,0a31.0685,31.0685,0,1,1,0-62.137l-.0006,0a31.0682,31.0682,0,0,1,0,62.1365Z" class="fill"/>
      <path d="M160,124.9316H160a35.0682,35.0682,0,0,0,0,70.1365H160a35.0682,35.0682,0,0,0,0-70.1365Zm0,66.1367A31.0685,31.0685,0,1,1,191.0679,160,31.0687,31.0687,0,0,1,160,191.0684Z" class="fill"/>
      <path d="M248.1824,124.9316l0,2,0-2a35.0679,35.0679,0,1,0,.0006,0Zm-.0006,66.1367A31.0685,31.0685,0,1,1,279.25,160,31.0683,31.0683,0,0,1,248.1818,191.0684Z" class="fill"/>
    </g>
  </g>
</svg>
