<svg xmlns="http://www.w3.org/2000/svg" viewBox="0 0 320 320">
  <title>_.support.pie-chart</title>
  <g id="console">
    <g>
      <path d="M254.4912,152.9521a1.9857,1.9857,0,0,0,.5857-1.4141A103.5385,103.5385,0,1,0,151.5381,255.0769a2,2,0,0,0,2-2v-99.54l99.5393,0A1.9857,1.9857,0,0,0,254.4912,152.9521Zm-102.9531-3.4141a2,2,0,0,0-2,2v99.5137A99.5385,99.5385,0,1,1,251.0518,149.5381Z" class="fill"/>
      <path d="M168.4619,272A103.5382,103.5382,0,0,0,272,168.4619a2,2,0,0,0-2-2H168.4619a2,2,0,0,0-2,2V270a2,2,0,0,0,2,2Z" class="fill"/>
    </g>
  </g>
</svg>
