<svg xmlns="http://www.w3.org/2000/svg" viewBox="0 0 320 320">
  <title>_.support.leaves</title>
  <g id="console">
    <g>
      <path d="M48.3158,196.3147a2,2,0,0,0,1.1686,3.0112,237.1186,237.1186,0,0,0,54.4333,6.8206,153.8,153.8,0,0,0,21.5-1.4233,79.49,79.49,0,0,0,33.4679-13.1123,75.03,75.03,0,0,0,9.3008,33.9089c8.8293,15.8264,21.2987,29.7991,31.5665,39.8569a215.4828,215.4828,0,0,0,18.3894,16.2166,2,2,0,0,0,3.0674-.8545,96.6428,96.6428,0,0,0,5.5024-32.6111,88.7812,88.7812,0,0,0-3.0844-23.5149c-2.0559-7.4741-5.8051-15.6973-10.2634-23.8877-13.3739-24.5442-33.1946-48.7844-33.2321-48.8364a2.0009,2.0009,0,0,0-1.9413-.6921c-.9821-.0237-3.6552-.0779-7.54-.0779-8.3062,0-22.1187.2463-36.6528,1.5732-7.2678.6641-14.7163,1.5979-21.7583,2.9124a109.3954,109.3954,0,0,0-19.3429,5.2192,98.6558,98.6558,0,0,0-33.1918,21.9746A88.6543,88.6543,0,0,0,48.3158,196.3147Zm46.0366-31.7654a105.5563,105.5563,0,0,1,18.6219-5.0129c20.6434-3.8582,45.3446-4.4209,57.677-4.418,3.3572,0,5.7982.0413,7.0007.0669,2.2064,2.75,10.1986,12.8682,18.769,25.5837,4.74,7.0315,9.65,14.85,13.8379,22.6216,4.1891,7.7683,7.6517,15.5,9.5116,22.2815a84.7993,84.7993,0,0,1,2.9415,22.4556,98.2666,98.2666,0,0,1-2.627,22.37c-.6145,2.5991-1.2261,4.6931-1.7021,6.1865-3.165-2.56-9.468-7.8589-16.7848-15.1042-9.91-9.8083-21.6544-23.1807-29.9185-38.0085a71.7433,71.7433,0,0,1-8.8636-35.22q0-.27.0021-.54a2,2,0,0,0-3.1909-1.6213,76.302,76.302,0,0,1-34.7717,14.573,149.862,149.862,0,0,1-20.9379,1.3838,226.9178,226.9178,0,0,1-37.35-3.3481c-4.9126-.8376-8.937-1.6748-11.7275-2.3013-.56-.1257-1.0553-.24-1.5129-.3472a95.52,95.52,0,0,1,9.5363-10.8489A94.5394,94.5394,0,0,1,94.3524,164.5493Z" class="fill"/>
      <path d="M77.8225,100.9a2,2,0,0,0,.0925,1.7825,80.7216,80.7216,0,0,0,8.6735,11.8356,82.0243,82.0243,0,0,0,25.189,19.9252,90.8724,90.8724,0,0,0,19.4733,6.4412,234.6742,234.6742,0,0,0,30.51,4.5259c8.6251.7559,14.61.9116,14.64.9126a2,2,0,0,0,1.8552-1.1428c1.2195-1.6345,7.3442-9.9373,14.0037-20.6829,3.5841-5.7841,7.3212-12.2725,10.53-18.82a96.8367,96.8367,0,0,0,7.3556-19.23A80.2264,80.2264,0,0,0,212.281,67.73a92.4461,92.4461,0,0,0-4.3979-28.4048,2,2,0,0,0-3.1256-.8917,152.381,152.381,0,0,0-13.7253,12.8042c-7.6462,7.9833-16.9208,19.1547-23.4459,32.0547a65.2276,65.2276,0,0,0-6.7089,27.0833,60.8267,60.8267,0,0,0-24.4738-11.79,114.6809,114.6809,0,0,0-24.0817-2.3778,158.0853,158.0853,0,0,0-33.1312,3.5455A2,2,0,0,0,77.8225,100.9Zm57.7339,1.595A58.4422,58.4422,0,0,1,161.51,116.0819a2,2,0,0,0,3.3181-1.5372q-.01-.6081-.01-1.2272a62.3477,62.3477,0,0,1,6.3383-28.2209c6.2493-12.37,15.2894-23.2953,22.7643-31.0918,3.7367-3.9,7.08-7.02,9.4833-9.1593q.8752-.7793,1.5736-1.38A92.4012,92.4012,0,0,1,208.2811,67.73a76.2359,76.2359,0,0,1-2.0251,17.7825,93.0339,93.0339,0,0,1-7.0582,18.4042c-8.4749,17.3047-20.9542,34.554-23.7754,38.3706-3.2239-.1228-13.3256-.6052-25.0647-2.1338a194.7026,194.7026,0,0,1-19.5076-3.4687,84.2586,84.2586,0,0,1-17.3065-5.8306A78.0711,78.0711,0,0,1,89.61,111.8967a87.79,87.79,0,0,1-6.1669-7.9767c-.2092-.3068-.3972-.5885-.5747-.8571a159.1456,159.1456,0,0,1,29.4532-2.8556A110.7321,110.7321,0,0,1,135.5564,102.4946Z" class="fill"/>
      <path d="M265.524,116.4071a108.2472,108.2472,0,0,0,5.8412-13.0352,2,2,0,0,0-1.7489-2.6543c-.0406-.0028-.955-.0654-2.5336-.0654a75.0543,75.0543,0,0,0-13.87,1.35,62.7658,62.7658,0,0,0-19.5023,7.0509,70.0918,70.0918,0,0,0-12.6412,9.8584A175.9679,175.9679,0,0,0,205.14,136.6228c-4.1425,5.2219-6.7655,8.999-6.7832,9.0244a2.0047,2.0047,0,0,0,.1565,2.4778c.0522.1006.13.2546.22.4475.5853,1.2351,1.7343,3.9138,3.2849,7.356,2.3317,5.1741,5.5968,12.1274,9.454,18.9773,3.8641,6.8525,8.2958,13.5989,13.1058,18.4268a72.828,72.828,0,0,0,21.717,14.6086,69.9423,69.9423,0,0,0,11.18,4.0044,2,2,0,0,0,2.4489-2.1792,115.288,115.288,0,0,0-2.8864-14.2952c-2.1842-8.3145-5.8418-19.0308-11.849-28.7219a52.7408,52.7408,0,0,0-14.819-15.3184,47.4473,47.4473,0,0,0,17.5353-10.5637C255.809,133.1851,261.6361,123.8422,265.524,116.4071ZM225.176,148.853a2,2,0,0,0-.51,3.6448,50.5809,50.5809,0,0,1,17.1245,16.36c5.6989,9.1809,9.2656,19.5627,11.3793,27.6284,1.0582,4.033,1.7563,7.4866,2.1884,9.9236.05.28.0948.5427.1377.7952a75.899,75.899,0,0,1-7.8562-3.0454A68.71,68.71,0,0,1,227.41,190.5071a70.58,70.58,0,0,1-9.34-12.3025,197.7614,197.7614,0,0,1-11.1862-21.2463c-1.4307-3.1052-2.6017-5.7781-3.46-7.7168-.4292-.9695-.7783-1.7529-1.0535-2.3369,1.5994-2.2268,5.7206-7.8264,11.0522-14.0413a149.8236,149.8236,0,0,1,10.772-11.4019,65.2423,65.2423,0,0,1,11.5166-8.9445,58.8,58.8,0,0,1,18.2555-6.5863,71.1768,71.1768,0,0,1,12.618-1.2739c-.9631,2.3674-2.6183,6.1593-4.9635,10.578-3.7533,7.0792-9.2869,15.76-16.5021,22.7631A45.3,45.3,0,0,1,225.176,148.853Z" class="fill"/>
    </g>
  </g>
</svg>
