<svg xmlns="http://www.w3.org/2000/svg" viewBox="0 0 320 320">
  <title>_.support.cylinder-filled</title>
  <g id="console">
    <g>
      <path d="M56.2483,257.7943c10.8159,7.3452,25.7971,13.364,43.5586,17.5859A263.6112,263.6112,0,0,0,160,282c33.3633-.0049,63.5728-5.5691,85.6162-14.6663,11.0225-4.5557,20.0151-9.99,26.3508-16.17a36.7275,36.7275,0,0,0,7.387-9.8453A24.3289,24.3289,0,0,0,282,230.4434V107.6987a12.1961,12.1961,0,0,0-.1665-1.8652,2,2,0,0,0-3.9644.0786,21.8082,21.8082,0,0,1-3.0879,8.7731c-3.0029,5.036-8.14,9.9155-15.0876,14.34-10.4158,6.6437-24.8582,12.253-41.9314,16.1692A261.0863,261.0863,0,0,1,160,151.3555c-31.969.0042-60.99-5.2118-82.2261-13.6134-10.6174-4.1949-19.28-9.19-25.3782-14.6325a36.69,36.69,0,0,1-7.1772-8.4243,21.8071,21.8071,0,0,1-3.0876-8.773,2,2,0,0,0-3.9644-.0787A12.196,12.196,0,0,0,38,107.6987V230.4434a24.3289,24.3289,0,0,0,2.6458,10.8752C43.6611,247.3907,49.0437,252.893,56.2483,257.7943Z" class="fill"/>
      <path d="M46.6519,108.2267c3.3279,5.3961,8.7183,10.2667,15.7253,14.6063,10.5164,6.5019,24.7207,11.8158,41.4031,15.5363A261.4144,261.4144,0,0,0,160,144.1953c31.06-.004,59.2656-4.8892,80.2207-12.9262,10.4788-4.0245,19.1531-8.8325,25.4841-14.3078a38.2583,38.2583,0,0,0,7.6428-8.7344,23.7243,23.7243,0,0,0,3.5022-9.7251,20.9471,20.9471,0,0,0,.15-2.4041,22.2817,22.2817,0,0,0-2.5549-10.2c-2.9084-5.6827-8.0808-10.8083-14.9924-15.3731-10.3767-6.84-24.7368-12.4382-41.7612-16.3664A259.9655,259.9655,0,0,0,160,48c-31.9763.0048-60.9287,5.18-82.0615,13.6453-10.5674,4.24-19.1912,9.2963-25.2771,15.0574a34.3922,34.3922,0,0,0-7.1064,9.1953A22.2787,22.2787,0,0,0,43,96.0977,20.9584,20.9584,0,0,0,43.15,98.5,23.7268,23.7268,0,0,0,46.6519,108.2267Z" class="fill"/>
    </g>
  </g>
</svg>
