<svg xmlns="http://www.w3.org/2000/svg" viewBox="0 0 320 320">
  <title>_.support.pie-chart-filled</title>
  <g id="console">
    <g>
      <path d="M151.5381,48a103.5385,103.5385,0,0,0,0,207.0769,2,2,0,0,0,2-2v-99.54l99.5393,0a2,2,0,0,0,2-2A103.539,103.539,0,0,0,151.5381,48Z" class="fill"/>
      <path d="M167.0476,167.0476a2.0122,2.0122,0,0,0-.5857,1.4143V270a2,2,0,0,0,2,2A103.5382,103.5382,0,0,0,272,168.4619a2,2,0,0,0-2-2H168.4619A2.0122,2.0122,0,0,0,167.0476,167.0476Z" class="fill"/>
    </g>
  </g>
</svg>
