<svg xmlns="http://www.w3.org/2000/svg" viewBox="0 0 320 320">
  <title>_.support.earth</title>
  <g id="console">
    <g>
      <polygon points="176.768 88.688 176.767 88.687 176.767 88.687 176.768 88.688" class="fill"/>
      <polygon points="194.95 88.688 194.949 88.687 194.949 88.687 194.95 88.688" class="fill"/>
      <path d="M150.1438,98.2115a2,2,0,0,0,2.18-.4337q4.2081-4.209,8.4174-8.4174A5.3612,5.3612,0,0,0,162.1,86.7333a12.2263,12.2263,0,0,0,.2673-2.739c-.0006-1.158-.0995-2.31-.1918-3.3361-.0939-1.02-.1779-1.9326-.1757-2.4766a2,2,0,0,0-3.4142-1.4142q-4.5454,4.5454-9.0909,9.0914a2.0128,2.0128,0,0,0-.5856,1.4141q0,4.5454,0,9.0908A2,2,0,0,0,150.1438,98.2115Zm8.06-12.3846a1.5731,1.5731,0,0,1-.2916.7052l-5.0033,5.0032v-3.434q2.7054-2.7057,5.4108-5.411c.0269.4473.0479.89.0476,1.3039A8.408,8.408,0,0,1,158.204,85.8269Z" class="fill"/>
      <path d="M58.41,169.1091h0q.4512,5.0995,1.3944,10.0477v0q.7216,3.7943,1.7189,7.4858l.0006.0017A102.01,102.01,0,0,0,262,160c0-1.4629-.0382-2.9167-.0992-4.3647.0571-.7177.0925-1.444.0931-2.1793a21.0314,21.0314,0,0,0-.2875-3.546c-.1229-.7175-.2738-1.4237-.4374-2.1248A101.9954,101.9954,0,0,0,88.5011,87.2632v0a102.1256,102.1256,0,0,0-23.3295,35.1v0a101.4269,101.4269,0,0,0-6.5093,26.0034v0A103.0159,103.0159,0,0,0,58,160C58,163.0737,58.144,166.1108,58.41,169.1091ZM71.8529,137.382a13.3619,13.3619,0,0,0,1.4464-2.7741c.0276-.0126.06-.0268.1057-.0431a2.6291,2.6291,0,0,1,.4415-.1129,8.4051,8.4051,0,0,1,1.4529-.1049c.903-.0007,1.9447.0867,2.9241.1809.3639.034.702.0663,1.041.0978a5.2987,5.2987,0,0,0,.521,1.0729,6.8058,6.8058,0,0,0,1.7264,1.7856A15.1476,15.1476,0,0,0,85.2,139.3351c.4762.1749.9546.34,1.4244.4972.2349.0788.4678.1558.697.2315.4586.1514.9031.2972,1.3229.4408.63.2154,1.2032.4256,1.6841.6415a4.5847,4.5847,0,0,1,1.2617.7461l.1027.1219a1.2159,1.2159,0,0,1-.1487.4261c-1.4158,2.8314-3.4319,6.8635-5.2979,10.5955-1.1189,2.2379-2.1838,4.3677-3.0332,6.0662v0l-.0018.0037,0,0a2.0212,2.0212,0,0,0-.1284.3613c-.0125.0436-.0366.0875-.0463.13a1.9938,1.9938,0,0,0-.0323.29c-.0046.0588-.02.1255-.02.1791a2.2776,2.2776,0,0,0,.1649.8457,3.032,3.032,0,0,0,.4807.7962,8.2684,8.2684,0,0,0,.9479.95c.6128.5389,1.3678,1.1309,2.1753,1.762,1.2065.9411,2.5277,1.9662,3.4836,2.8331a9.7524,9.7524,0,0,1,1.0588,1.0807c.0192.024.0275.038.043.0589a1.9948,1.9948,0,0,0,1.0807,1.7186h0l.0236.0115a15.1038,15.1038,0,0,0,6.7761,1.95,8.4506,8.4506,0,0,0,1.5618-.1411,7.6309,7.6309,0,0,0,1.4233-.41,8.7071,8.7071,0,0,0,3.627-2.8381,37.8192,37.8192,0,0,0,2.9008-4.9013,8.1,8.1,0,0,1,.9064-1.3379c.1479.1172.2968.2347.4668.3652,1.5369,1.1783,3.9791,2.9143,6.0481,4.4077.5159.3722,1.0081.7291,1.4534,1.0553s.8434.6218,1.1711.8715c.1217.0925.2224.1714.3225.25q0,7.71,0,15.42a6.5252,6.5252,0,0,1-.453,1.9507,35.6971,35.6971,0,0,1-1.993,4.3485c-.29.5537-.5972,1.1254-.9183,1.71-1.928,3.5162-4.3356,7.5123-6.2887,11.2557a50.4072,50.4072,0,0,0-2.4827,5.3859,14.24,14.24,0,0,0-1.0785,4.833,5.6446,5.6446,0,0,0,.443,2.2621c.0325.075.0563.1514.0933.2256v0q3.635,7.2708,7.27,14.5406a9.3726,9.3726,0,0,1,.8566,2.7408,17.7826,17.7826,0,0,1,.194,2.825c0,.5511-.0217,1.14-.0409,1.7259q-3.1348-1.5675-6.2694-3.135c-.6615-.3286-1.4371-.6294-2.3029-.9645-1.29-.4962-2.7567-1.05-3.9557-1.625a11.76,11.76,0,0,1-1.5062-.8376,2.5607,2.5607,0,0,1-.62-.5337q-6.9763-10.4639-13.9521-20.9277h0a72.2866,72.2866,0,0,0-5.3293-7.0008c-1.2876-1.5035-2.6135-2.958-4.0013-4.4065-1.1281-1.1774-2.2935-2.3555-3.5033-3.5651a60.79,60.79,0,0,1-7.9467-10.3021q-.8036-3.0128-1.4115-6.1019c.3591-.5341.7032-1.092,1.0292-1.6891.7378-1.3575,1.42-2.8411,2.0353-4.146.307-.6513.5966-1.2568.858-1.7657a11.2909,11.2909,0,0,1,.66-1.1558,2,2,0,0,0-1.4978-3.1275c-.8682-.06-1.9834-.2584-3.2822-.2631-.233,0-.4723.007-.7173.024h0c-.2427.0168-.4714.0246-.6875.0247l-.017-.0008C62.1125,164.7644,62,162.3947,62,160a98.9318,98.9318,0,0,1,.5953-10.7668,27.578,27.578,0,0,1,2.1577-3.0212c1.4885-1.8626,3.3048-3.8964,4.9082-5.8811C70.4635,139.3364,71.2142,138.3528,71.8529,137.382Zm-8.5875,33.704h0c.1194-.0082.2451-.011.3726-.0122-.2617.5479-.5286,1.1151-.8,1.6893-.0715-.5507-.1443-1.101-.2067-1.6545.17-.0041.3387-.0076.5138-.0182C63.1863,171.0878,63.2241,171.0889,63.2654,171.086Zm115.2573,82.2217c-3.0154.7564-6.2944,1.9526-9.5275,2.9408A32.4918,32.4918,0,0,1,160,258a29.526,29.526,0,0,1-8.1636-1.592c-2.9471-.9006-5.9423-1.9935-8.7069-2.6872l-12.3453-3.0862,12.6984-4.2328c1.7817-.5944,3.1543-1.0436,4.2432-1.3293a10.0783,10.0783,0,0,1,2.564-.4073,7.2857,7.2857,0,0,1,2.6981.5828c1.1284.4278,2.594,1.1414,4.6089,2.15,2.99,1.4919,5.4258,2.8458,8.075,3.865a24.1609,24.1609,0,0,0,9.0261,1.646h5.4192Zm43.4049-84.5325c.1418,1.6267.2772,3.3174.2766,4.8469a16.83,16.83,0,0,1-.1648,2.53,6.0823,6.0823,0,0,1-.5037,1.7592q-12.897,25.7932-25.7931,51.5861c-.1262-.1058-.2432-.2083-.3718-.3154-1.3171-1.0936-2.7509-2.2516-3.9242-3.3751a16.4608,16.4608,0,0,1-1.5055-1.6154,5.5689,5.5689,0,0,1-.8138-1.3037,4.5481,4.5481,0,0,1-.2719-1.7181,21.5448,21.5448,0,0,1,.1694-2.2555,25.0613,25.0613,0,0,0,.1927-2.7112,8.5666,8.5666,0,0,0-.83-3.8981c-2.29-4.5781-4.295-8.7141-6.6708-12.6635a57.9265,57.9265,0,0,0-8.8552-11.4257,12.6489,12.6489,0,0,1-.9746-1.19,105.5139,105.5139,0,0,1-6.231-9.7776c-1.0563-1.861-2.007-3.67-2.672-5.1347a19.5794,19.5794,0,0,1-.7555-1.8713c-.0543-.1638-.0935-.3016-.1256-.4251q7.994-7.9942,15.9884-15.9885c.15.18.3025.3656.4611.56,1.0918,1.3327,2.3839,2.9528,3.7258,4.3613a18.6978,18.6978,0,0,0,2.0809,1.9157,6.8449,6.8449,0,0,0,2.4207,1.2739,5.6108,5.6108,0,0,0,1.3824.1588,12.5774,12.5774,0,0,0,2.9314-.4221c1.4811-.366,3.0085-.8985,4.3739-1.384,1.3529-.4844,2.5781-.9268,3.218-1.0827.29-.0731.965-.2166,1.85-.3961,3.1226-.6353,9.0226-1.776,14.18-3.0417a67.3023,67.3023,0,0,0,6.8237-1.9767,13.6039,13.6039,0,0,0,2.4-1.1055,4.4747,4.4747,0,0,0,.9976-.8125,2.8912,2.8912,0,0,0,.4612-.6933,2.4913,2.4913,0,0,0,.2379-1.0546v-16.62a2.8109,2.8109,0,0,0-1.3871-2.459,3.8314,3.8314,0,0,0-1.3319-.4734,7.0792,7.0792,0,0,0-1.2057-.0922,26.28,26.28,0,0,0-3.059.2617,23.3431,23.3431,0,0,1-2.5736.2315,3.11,3.11,0,0,1-.4857-.03L197.778,113.1312a2,2,0,0,0-3.4142,1.4142c.0034,1.6508.2407,3.7519.4667,6.0313.2279,2.2687.4479,4.6877.4469,6.7609a18.3494,18.3494,0,0,1-.176,2.7521,5.4259,5.4259,0,0,1-.4561,1.6029,4.7,4.7,0,0,1-.9089.584,30.1762,30.1762,0,0,1-3.0632,1.3276c-.5415.2093-1.0647.4064-1.5332.59-.472.1859-.8762.3484-1.2524.535q-4.654,2.3274-9.307,4.6535c-.07-.043-.1459-.092-.2258-.1471a21.0518,21.0518,0,0,1-2.1727-1.7631,39.2773,39.2773,0,0,1-3.522-3.6343,14.5633,14.5633,0,0,1-1.1121-1.476c-.0085-.0134-.0127-.0221-.0208-.0351q4.2217-8.4434,8.4434-16.8873a1.9947,1.9947,0,0,0-.3746-2.3086l-7.6766-7.6766q3.5021-3.5017,7.0033-7.0032a1.6115,1.6115,0,0,1,.7095-.286,8.7243,8.7243,0,0,1,1.8694-.1639c.9366-.0005,1.988.0832,2.9868.1732,1.0057.0885,1.9381.1866,2.7848.1892.5079-.0026,1.411.0805,2.4271.1732,1.0232.0912,2.18.1886,3.3438.1891a12.5378,12.5378,0,0,0,2.761-.2646,5.3576,5.3576,0,0,0,2.6464-1.3568q4.2085-4.2093,8.4176-8.4176a2,2,0,0,0-1.4142-3.4142c-.3916.0014-.806.0337-1.3164.0757-1.4988.1283-3.7369.366-5.326.3637-.3273.0008-.6184-.0115-.8571-.03-.0194-.24-.0311-.5287-.031-.8581-.0009-1.0525.103-2.4144.212-3.6328.0542-.6111.1093-1.1888.1519-1.6934.042-.51.0743-.9246.0757-1.3161a2,2,0,0,0-3.4142-1.4142l-8.2955,8.2955a5.2913,5.2913,0,0,1-.8041.2347,23.6,23.6,0,0,1-4.6583.4653,13.1082,13.1082,0,0,1-1.3729-.0632c-.0026-.0269-.0057-.05-.0079-.078-.0339-.3907-.0527-.8873-.0526-1.4254a27.1369,27.1369,0,0,1,.2578-3.7322,9.7967,9.7967,0,0,1,.2107-1.0688q5.46-2.73,10.9208-5.4606c.4884-.2459.9481-.5346,1.4321-.8373.7185-.4526,1.4769-.935,2.151-1.274a3.7894,3.7894,0,0,1,1.4-.4833h.0012q5.3247,3.55,10.65,7.1c2.7637,1.8411,5.7814,3.54,8.6381,5.3278a43.1242,43.1242,0,0,1,7.65,5.7662c2.8163,2.814,6.0992,5.5578,9.1755,8.3731a49.9377,49.9377,0,0,1,7.9092,8.6566,40.7239,40.7239,0,0,1,4.1254,9.066c1.177,3.3839,2.2227,6.9154,3.4775,10.0576,1.74,4.3458,3.9059,8.4612,5.7927,12.5518a55.5886,55.5886,0,0,1,3.7733,10.2463q.408,3.4865.5709,7.0442a54.78,54.78,0,0,1-.9015,5.7438c-.3,1.5435-.6025,3.0762-.8137,4.6-1.2247-.709-2.3674-1.4246-3.5256-2.1595a70.11,70.11,0,0,0-6.5115-3.788,17.5279,17.5279,0,0,0-4.8914-1.63,26.49,26.49,0,0,0-4.6445-.3311c-1.2439,0-2.5117.0355-3.8789.0353-1.1349,0-2.17-.0807-3.1322-.1667-.9642-.0847-1.85-.1807-2.7363-.1826a6.5381,6.5381,0,0,0-2.0321.2772,4.1341,4.1341,0,0,0-1.5243.8771,4.2255,4.2255,0,0,0-.8475,1.0885,6.2415,6.2415,0,0,0-.647,1.9633,14.0428,14.0428,0,0,0-.1714,2.36C221.6379,165.5871,221.7872,167.1436,221.9276,168.7752ZM209.0313,75.1318q2.5913,1.5,5.0785,3.1552C212.3348,77.22,210.6055,76.1808,209.0313,75.1318Zm-15.3782-7.2011a18.5619,18.5619,0,0,0-2.4552,1.3117c-.7833.4891-1.4847.942-1.84,1.1149q-5.7235,2.8621-11.4476,5.7241a2.3981,2.3981,0,0,0-.7156.5516,3.23,3.23,0,0,0-.5543.9,7.6825,7.6825,0,0,0-.4246,1.4472,28.3332,28.3332,0,0,0-.458,5.2163,18.4067,18.4067,0,0,0,.1184,2.2512,6.59,6.59,0,0,0,.1953.9932,3.51,3.51,0,0,0,.2053.5452,2.5259,2.5259,0,0,0,.49.7012,2.9767,2.9767,0,0,0,1.1855.7023,7.0838,7.0838,0,0,0,1.5376.299c.5322.0525,1.1024.0743,1.701.0746a29.1993,29.1993,0,0,0,4.4232-.35,14.7913,14.7913,0,0,0,1.943-.43,6.37,6.37,0,0,0,.87-.3312,3.3116,3.3116,0,0,0,.9319-.6373l4.604-4.6039c-.0238.481-.0393.9583-.04,1.4142a11.9232,11.9232,0,0,0,.1217,1.86,4.9378,4.9378,0,0,0,.2339.9252,2.7887,2.7887,0,0,0,1.7476,1.7476,5.6672,5.6672,0,0,0,1.3762.2929,13.907,13.907,0,0,0,1.4086.0627c.4586,0,.9364-.0184,1.4167-.0422q-2.3033,2.303-4.6062,4.6062a1.6141,1.6141,0,0,1-.71.2859,8.7246,8.7246,0,0,1-1.8693.1639c-.9366.0006-1.988-.0832-2.9867-.1732-1.0056-.0884-1.9377-.1866-2.7842-.1891-.5084.0025-1.4116-.0805-2.4277-.1732-1.0233-.0912-2.18-.1887-3.3439-.1892a12.5393,12.5393,0,0,0-2.7612.2646,5.3564,5.3564,0,0,0-2.6464,1.3572q-4.2081,4.2083-8.4171,8.4171a2,2,0,0,0,0,2.8286l8.0715,8.0715q-4.0671,8.1346-8.1342,16.2687l.0009-.0016a2.3743,2.3743,0,0,0-.2474,1.0677,3.0732,3.0732,0,0,0,.2126,1.0866,7.1049,7.1049,0,0,0,.786,1.4418,24.8422,24.8422,0,0,0,2.115,2.6185,43.1457,43.1457,0,0,0,4.0242,3.8958,18.25,18.25,0,0,0,1.9093,1.4275,6.8692,6.8692,0,0,0,.939.5057,3.2205,3.2205,0,0,0,1.28.2905,2.38,2.38,0,0,0,1.06-.2435l.0059-.0029q4.9885-2.4939,9.9768-4.9884c.0992-.05.31-.143.5723-.249.9353-.38,2.5068-.9371,3.9719-1.581a17.2089,17.2089,0,0,0,2.1046-1.075,7.1045,7.1045,0,0,0,.9382-.6829,3.8688,3.8688,0,0,0,.8492-1.0215,9.0387,9.0387,0,0,0,.9412-2.9925,22.1881,22.1881,0,0,0,.2235-3.3673c-.001-2.3432-.2378-4.864-.4667-7.1592l-.04-.3979,14.1821,14.1821a3.3555,3.3555,0,0,0,1.6511.8688,6.6038,6.6038,0,0,0,1.4753.1454,26.2728,26.2728,0,0,0,3.0643-.2617,24.48,24.48,0,0,1,2.493-.2289q0,7.4562,0,14.912c-.0437.0239-.0754.0441-.1263.07a16.2208,16.2208,0,0,1-2.03.812,123.17,123.17,0,0,1-12.3218,3.0988c-2.1864.4626-4.2456.8753-5.901,1.2078-.828.1663-1.5548.3124-2.15.4357-.5984.1241-1.0538.2218-1.3912.3058-.69.1739-1.4459.4341-2.2883.7308-1.2556.4445-2.68.9715-4.0106,1.3765-.6639.2025-1.3029.3737-1.8673.4893a7.2262,7.2262,0,0,1-1.3871.1727,1.7257,1.7257,0,0,1-.3967-.0355,2.0772,2.0772,0,0,1-.5316-.261,10.8458,10.8458,0,0,1-1.7715-1.5141c-1.0073-1.0189-2.097-2.3287-3.1058-3.5646-.5056-.6187-.9928-1.22-1.452-1.7669-.4608-.5479-.8884-1.0386-1.3093-1.46a2,2,0,0,0-2.8282,0l-18.0022,18.0022a2.48,2.48,0,0,0-.6222,1.0619,3.08,3.08,0,0,0-.1184.8715,5.2339,5.2339,0,0,0,.1558,1.1918,15.0738,15.0738,0,0,0,.7886,2.2907,85.11,85.11,0,0,0,5.5894,10.3233c1.0852,1.7572,2.1587,3.4039,3.0959,4.7517.4691.6744.9037,1.2737,1.2958,1.7824a13.6335,13.6335,0,0,0,1.0837,1.2733,53.8831,53.8831,0,0,1,8.2562,10.66c2.2506,3.7379,4.2183,7.7838,6.52,12.39a4.6128,4.6128,0,0,1,.4076,2.1094,21.67,21.67,0,0,1-.1694,2.28,24.9093,24.9093,0,0,0-.1927,2.6869,8.4869,8.4869,0,0,0,.5631,3.2168,10.5987,10.5987,0,0,0,1.9745,2.9855,38.6265,38.6265,0,0,0,4.0781,3.7742c1.3846,1.1488,2.6946,2.2078,3.4781,2.9955a2,2,0,0,0,3.2031-.52q13.48-26.96,26.9609-53.9219a9.9755,9.9755,0,0,0,.8789-2.9361,20.713,20.713,0,0,0,.2117-3.1414c-.0006-1.7571-.1492-3.5488-.2914-5.1929-.1437-1.6393-.2783-3.1421-.2766-4.2124a9.1034,9.1034,0,0,1,.1534-1.8862,1.8446,1.8446,0,0,1,.1807-.5285l.0287-.0422.0009-.0019a.5614.5614,0,0,1,.178-.0557,3.5192,3.5192,0,0,1,.6808-.0518c.57-.0019,1.389.0768,2.38.1668.9933.0886,2.1643.1826,3.4882.1826,1.4347,0,2.7135-.0355,3.8789-.0353a22.6285,22.6285,0,0,1,3.953.2708,13.4951,13.4951,0,0,1,3.7941,1.2681,66.2911,66.2911,0,0,1,6.1576,3.588,70.137,70.137,0,0,0,6.5115,3.788,1.9888,1.9888,0,0,0,.3593.1255,98.1239,98.1239,0,0,1-59.1321,79.2492,2.0017,2.0017,0,0,0-1.8855-1.3453h-21.666a20.0931,20.0931,0,0,1-7.594-1.3808c-2.2853-.873-4.6456-2.1689-7.7183-3.7079-2.03-1.0137-3.5642-1.7722-4.9749-2.3109a11.2836,11.2836,0,0,0-4.121-.8445,13.967,13.967,0,0,0-3.5812.5388c-1.2761.3362-2.7.8066-4.491,1.4031q-9.6064,3.2022-19.2137,6.4048a1.9909,1.9909,0,0,0-1.2363,1.2283,98.0887,98.0887,0,0,1-52.379-52.8782c.3467.3729.6948.7389,1.0449,1.0894,4.8093,4.8089,8.6918,8.9,12.3341,14.3626q6.9763,10.4635,13.9521,20.9279a5.4094,5.4094,0,0,0,1.0831,1.1636,12.3447,12.3447,0,0,0,2.2888,1.4228c1.2317.6154,2.5741,1.1423,3.7739,1.6057.5989.2308,1.1606.4445,1.6423.6367s.885.3647,1.136.4908q4.5452,2.2733,9.09,4.5457a2,2,0,0,0,2.8947-1.7887c-.0012-1.5873.1129-3.2249.1143-4.9255a22.8039,22.8039,0,0,0-.1749-2.9628,13.8021,13.8021,0,0,0-1.1216-4c-.06-.1306-.1111-.2612-.1763-.3916q-3.635-7.27-7.27-14.5405a1.6172,1.6172,0,0,1-.114-.6989,8.4889,8.4889,0,0,1,.4739-2.4249,42.0813,42.0813,0,0,1,2.9045-6.4591c1.9187-3.6256,4.3152-7.5992,6.2594-11.1815a54.9525,54.9525,0,0,0,2.475-5.043,18.718,18.718,0,0,0,.7805-2.2382,8.2991,8.2991,0,0,0,.3209-2.1367v-16.3a2.0315,2.0315,0,0,0-.1244-.695c-.0405-.1069-.0828-.1944-.1147-.2637a2.3736,2.3736,0,0,0-.2283-.3484c-.0522-.0648-.0967-.1111-.1378-.1594a5.1772,5.1772,0,0,0-.455-.4225c-.29-.2437-.6516-.5236-1.0907-.8543-.3815-.2869-.82-.61-1.2955-.9568-1.4268-1.04-3.1862-2.2933-4.7334-3.4164-1.0288-.7464-1.9631-1.4354-2.6117-1.9407-.2531-.1967-.4438-.3532-.5851-.4738l-.0037-.0056a1.9827,1.9827,0,0,0-.19-.26c-.0138-.0165-.0237-.0356-.0381-.0517a2.0034,2.0034,0,0,0-.6232-.4691c-.04-.0193-.0829-.03-.1239-.0464a1.9749,1.9749,0,0,0-.2334-.0861l-.0061-.0013a1.9773,1.9773,0,0,0-.1956-.0317c-.0616-.01-.1216-.0254-.1846-.0292l-.0078,0a2.0285,2.0285,0,0,0-.2612.01c-.0437.0032-.0862-.0012-.13.0049l-.006.0012h-.0032c-.0264.0041-.0612.0125-.0908.0181-.0414.0076-.08.0134-.1261.0251-.0129.0032-.0284.01-.0416.0133a4.5481,4.5481,0,0,0-.99.3123,4.8793,4.8793,0,0,0-.549.2963,4.9325,4.9325,0,0,0-.4878.3475,9.93,9.93,0,0,0-2.3024,2.9971,29.3719,29.3719,0,0,1-2.5779,4.3518,4.9408,4.9408,0,0,1-1.4425,1.246,3.6366,3.6366,0,0,1-1.3267.4133,5.0086,5.0086,0,0,1-.5625.0328,7.3736,7.3736,0,0,1-1.9369-.2943c-.0555-.0152-.1083-.0275-.165-.044a14.72,14.72,0,0,1-1.9969-.7578c-.0037-.0087-.0061-.02-.01-.0289-.033-.074-.07-.1384-.105-.2073-.06-.1173-.1216-.23-.1868-.3356a6.88,6.88,0,0,0-.66-.8807,14.6746,14.6746,0,0,0-1.0449-1.0587l-.0138-.0139c-.0565-.0522-.1221-.1045-.18-.1566-.3335-.3019-.6768-.6031-1.04-.9069-1.2742-1.06-2.69-2.1249-3.752-2.9773-.2936-.2349-.5557-.452-.7771-.6427,2.2927-4.585,5.6829-11.3656,7.7706-15.5409l.0007-.0013c.0487-.0975.0885-.1982.132-.2975A4.8078,4.8078,0,0,0,95.6937,142a3.9258,3.9258,0,0,0-.2932-1.496,4.15,4.15,0,0,0-.3143-.6109,5.0493,5.0493,0,0,0-1.2856-1.3587,8.5378,8.5378,0,0,0-.8588-.5519,17.6328,17.6328,0,0,0-2.81-1.196c-.9745-.3386-1.9723-.6487-2.9069-.9742-.7-.24-1.364-.4966-1.9438-.7621a7.7857,7.7857,0,0,1-1.44-.818,3.499,3.499,0,0,1-.4532-.3976,1.9868,1.9868,0,0,1-.275-.359,1.3953,1.3953,0,0,1-.1953-.7484,2,2,0,0,0-2-2c-.4269.0034-1.3148-.0834-2.3136-.1809-.1705-.0162-.3632-.03-.541-.0457-.7955-.0718-1.6417-.1322-2.5084-.1438-.0859-.0012-.1694-.01-.2554-.01h0a10.1322,10.1322,0,0,0-3.0795.3955c-.0931.0305-.1868.0666-.28.1025a4.9439,4.9439,0,0,0-.4871.2133,4.3486,4.3486,0,0,0-.5355.3318c-.0718.0511-.1443.0986-.2147.1559a3.6028,3.6028,0,0,0-.9333,1.1517,3.3106,3.3106,0,0,0-.2.4809,11.7785,11.7785,0,0,1-1.6326,2.8372C66.837,137.54,65.345,139.28,63.8513,141.04a97.2818,97.2818,0,0,1,3.3575-12.6,2.9293,2.9293,0,0,0,1.1246.2264,10.6847,10.6847,0,0,0,3.2074-.6193,51.4314,51.4314,0,0,0,6.647-2.9054c3.6268-1.821,7.6-4.0223,11.0767-5.7461,1.7351-.8613,3.3466-1.6018,4.6869-2.1078a16.1935,16.1935,0,0,1,1.7671-.5706,4.876,4.876,0,0,1,1.1067-.172c.5256-.0021,1.3364.0756,2.24.1641.4542.0435.9343.0889,1.43.1236s1.0078.0587,1.5258.059h0a9.4631,9.4631,0,0,0,3.1438-.4542,5.23,5.23,0,0,0,1.5435-.846,4.4783,4.4783,0,0,0,.67-.6661l.0046-.0046c.0884-.1088.1517-.24.2307-.3579a4.3344,4.3344,0,0,0,.3029-.47q3.6352-7.2711,7.2706-14.5408c.1389-.2811.2561-.5574.3613-.833a5.3,5.3,0,0,0,.3866-1.8764,3.7149,3.7149,0,0,0-.2706-1.4116,3.9607,3.9607,0,0,0-1.4338-1.7327,11.07,11.07,0,0,0-2.464-1.1738,24.9786,24.9786,0,0,1-2.4374-1.0054q-6.0359-3.0183-12.0712-6.036a2.0091,2.0091,0,0,0-.6007-.19c-.0249-.0038-.05.0032-.0747,0a98.1269,98.1269,0,0,1,97.07-17.363ZM90.7268,90.6992l.07.0009h0a17.22,17.22,0,0,0,3.6366-.3177,7.7152,7.7152,0,0,0,2.1034-.7874l11.0039,5.5024a23.3888,23.3888,0,0,0,2.2235.9484,13.9692,13.9692,0,0,1,2.1008.8822l.0511.037-.0011.0047a3.3545,3.3545,0,0,1-.3057.7947h0l0-.0007q-3.6348,7.27-7.2705,14.5406l-.1394.1722a1.7368,1.7368,0,0,1-.7023.2849c-.0906.0206-.2114.0311-.3168.0469a7.6237,7.6237,0,0,1-1.1591.0837c-.2615,0-.5488-.0182-.8311-.0329-.1812-.0095-.3544-.0135-.541-.0273-.3948-.0292-.7972-.0648-1.2-.1039s-.7992-.0769-1.1934-.11c-.4834-.0405-.9614-.0715-1.4307-.0726a10.6865,10.6865,0,0,0-3.2075.6192,51.4252,51.4252,0,0,0-6.647,2.9055c-3.6268,1.821-7.6,4.0223-11.0767,5.7461-1.7351.8612-3.3466,1.6018-4.6869,2.1078a16.2069,16.2069,0,0,1-1.7671.5706c-.1361.0344-.2626.0618-.382.0852a6.9409,6.9409,0,0,1-.0443-.8123c0-.076.0043-.164.0061-.2449A98.11,98.11,0,0,1,90.7268,90.6992Z" class="fill"/>
    </g>
  </g>
</svg>
