<svg xmlns="http://www.w3.org/2000/svg" viewBox="0 0 320 320">
  <title>_.support.phone-filled</title>
  <g id="console">
    <g>
      <path d="M63.1152,129.4188a16.4714,16.4714,0,0,0,2.738,4.62,10.0642,10.0642,0,0,0,3.4951,2.3407,35.0256,35.0256,0,0,0,6.57,1.9762c2.2207.4749,4.3232.7993,5.7507,1.0223a85.4041,85.4041,0,0,0,12.2078,1.0138,38.0157,38.0157,0,0,0,4.4692-.2353,15.77,15.77,0,0,0,3.875-.8956l-.7375-1.8589.7378,1.8589a25.0723,25.0723,0,0,0,6.3569-4.1106c3.18-2.6411,6.4485-5.9313,9.5784-8.7551a54.1242,54.1242,0,0,1,4.51-3.7263,15.33,15.33,0,0,1,3.8386-2.1379,75.19,75.19,0,0,1,14.7861-2.9657,174.4777,174.4777,0,0,1,37.4182,0,75.1951,75.1951,0,0,1,14.7861,2.9656,19.0033,19.0033,0,0,1,5.2935,3.2455c2.9741,2.3737,6.2251,5.6107,9.4319,8.5578,1.6067,1.4747,3.2058,2.8791,4.79,4.08a21.03,21.03,0,0,0,4.7681,2.847,15.7583,15.7583,0,0,0,3.8745.8956,38.0057,38.0057,0,0,0,4.47.2352,85.4285,85.4285,0,0,0,12.208-1.0137c1.9065-.2985,4.9993-.7725,7.9976-1.5516a28.9616,28.9616,0,0,0,4.323-1.447,10.064,10.064,0,0,0,3.4954-2.341,16.4675,16.4675,0,0,0,2.7373-4.62,41.3322,41.3322,0,0,0,2.4092-8.9934,60.3827,60.3827,0,0,0,.78-9.4948,33.7716,33.7716,0,0,0-.5886-6.7864l0-.0009a22.4029,22.4029,0,0,0-3.0459-6.8394,63.3574,63.3574,0,0,0-8.3442-10.3373,52.3749,52.3749,0,0,0-9.021-7.5654,39.8531,39.8531,0,0,0-8.7112-3.7094,134.5538,134.5538,0,0,0-16.5068-3.831c-5.5757-.981-10.84-1.6809-14.6091-2.1273C189.42,68.5715,174.7224,68.0013,160,68c-14.7234.0013-29.4209.5715-39.2461,1.7336-5.0256.5955-12.708,1.64-20.2461,3.2037-3.77.7824-7.5042,1.6938-10.87,2.7545a39.845,39.845,0,0,0-8.7112,3.7094A42.9918,42.9918,0,0,0,75.04,83.9589,72.6,72.6,0,0,0,66.0056,93.77a43.5765,43.5765,0,0,0-3.469,5.284,19.3772,19.3772,0,0,0-2.021,5.09,33.7082,33.7082,0,0,0-.59,6.7872,59.4828,59.4828,0,0,0,1.3926,12.6631A36.1785,36.1785,0,0,0,63.1152,129.4188Z" class="fill"/>
      <path d="M160,168.2427a21.8368,21.8368,0,0,0-15.1738,6.0607,20.2426,20.2426,0,0,0,0,29.4115,22.0255,22.0255,0,0,0,30.3474,0,20.2426,20.2426,0,0,0,0-29.4115A21.8367,21.8367,0,0,0,160,168.2427Z" class="fill"/>
      <polygon points="80.713 153.521 80.713 153.52 80.714 153.52 80.713 153.521" class="fill"/>
      <path d="M68.85,231.2708a68.3073,68.3073,0,0,0,17.6748,9.7932c5.887,2.3232,11.2576,3.8224,14.3994,4.738a153.9321,153.9321,0,0,0,26.5205,4.6584C137.6208,251.488,148.81,252,160,252s22.3789-.5121,32.5552-1.54a153.9438,153.9438,0,0,0,26.5208-4.6584c2.0911-.6092,5.1826-1.4813,8.7478-2.6806a89.5935,89.5935,0,0,0,17.6743-7.91c5.8818-3.5752,11.2764-8.1982,14.3618-14.3132a24.6541,24.6541,0,0,0,2.1394-10.9852,67.4366,67.4366,0,0,0-2.1829-15.7269,119.5737,119.5737,0,0,0-8.9617-24.1671,82.0355,82.0355,0,0,0-5.7029-9.7819,32.8912,32.8912,0,0,0-5.866-6.7175l-1.2634,1.55,1.2634-1.55a6.3739,6.3739,0,0,0-2.5889-1.2174,12.2718,12.2718,0,0,0-2.8145-.2879,46.4572,46.4572,0,0,0-6.7883.7244,43.0349,43.0349,0,0,1-6.0208.6769,6.0486,6.0486,0,0,1-1.8987-.2341,22.0765,22.0765,0,0,1-6.4495-4.1753c-3.5671-3.04-7.4187-7.1642-11.2466-10.8628a68.442,68.442,0,0,0-5.7471-5.0638,21.5753,21.5753,0,0,0-5.8152-3.3563,65.9694,65.9694,0,0,0-13.4351-2.7926,149.3372,149.3372,0,0,0-32.9634,0,65.9545,65.9545,0,0,0-13.4341,2.7927,25.6781,25.6781,0,0,0-7.73,4.9094c-3.8225,3.2652-7.698,7.4294-11.4287,11.0278a64.64,64.64,0,0,1-5.4006,4.7659,17.7954,17.7954,0,0,1-4.6995,2.7549,6.0546,6.0546,0,0,1-1.9.2343,43.0273,43.0273,0,0,1-6.021-.6769,46.4643,46.4643,0,0,0-6.7883-.7244,12.2684,12.2684,0,0,0-2.8145.2879,6.3669,6.3669,0,0,0-2.5884,1.218,39.3488,39.3488,0,0,0-7.8015,9.6909,112.9053,112.9053,0,0,0-10.3108,22.65C59.84,194.1746,58.0059,202.69,58,209.9134a24.64,24.64,0,0,0,2.14,10.9856A32.0925,32.0925,0,0,0,68.85,231.2708Zm117.3357-17.1757a38.0407,38.0407,0,0,1-52.3708,0,34.478,34.478,0,0,1,0-50.1717,38.0408,38.0408,0,0,1,52.3708,0,34.4768,34.4768,0,0,1,0,50.1716Z" class="fill"/>
    </g>
  </g>
</svg>
