<svg xmlns="http://www.w3.org/2000/svg" viewBox="0 0 320 320">
  <title>_.support.leaves-filled</title>
  <g id="console">
    <g>
      <path d="M48.3158,196.3147a2,2,0,0,0,1.1686,3.0112,237.1186,237.1186,0,0,0,54.4333,6.8206,153.8,153.8,0,0,0,21.5-1.4233,79.49,79.49,0,0,0,33.4679-13.1123,75.03,75.03,0,0,0,9.3008,33.9089c8.8293,15.8264,21.2987,29.7991,31.5665,39.8569a215.4828,215.4828,0,0,0,18.3894,16.2166,2,2,0,0,0,3.0674-.8545,96.6428,96.6428,0,0,0,5.5024-32.6111,88.7812,88.7812,0,0,0-3.0844-23.5149c-2.0559-7.4741-5.8051-15.6973-10.2634-23.8877-13.3739-24.5442-33.1946-48.7844-33.2321-48.8364a2.0009,2.0009,0,0,0-1.9413-.6921c-.9821-.0237-3.6552-.0779-7.54-.0779-8.3062,0-22.1187.2463-36.6528,1.5732-7.2678.6641-14.7163,1.5979-21.7583,2.9124a109.3954,109.3954,0,0,0-19.3429,5.2192,98.6558,98.6558,0,0,0-33.1918,21.9746A88.6543,88.6543,0,0,0,48.3158,196.3147Z" class="fill"/>
      <path d="M77.8225,100.9a2,2,0,0,0,.0925,1.7825,80.7216,80.7216,0,0,0,8.6735,11.8356,82.0243,82.0243,0,0,0,25.189,19.9252,90.8724,90.8724,0,0,0,19.4733,6.4412,234.6742,234.6742,0,0,0,30.51,4.5259c8.6251.7559,14.61.9116,14.64.9126a2,2,0,0,0,1.8552-1.1428c1.2195-1.6345,7.3442-9.9373,14.0037-20.6829,3.5841-5.7841,7.3212-12.2725,10.53-18.82a96.8367,96.8367,0,0,0,7.3556-19.23A80.2264,80.2264,0,0,0,212.281,67.73a92.4461,92.4461,0,0,0-4.3979-28.4048,2,2,0,0,0-3.1256-.8917,152.381,152.381,0,0,0-13.7253,12.8042c-7.6462,7.9833-16.9208,19.1547-23.4459,32.0547a65.2276,65.2276,0,0,0-6.7089,27.0833,60.8267,60.8267,0,0,0-24.4738-11.79,114.6809,114.6809,0,0,0-24.0817-2.3778,158.0853,158.0853,0,0,0-33.1312,3.5455A2,2,0,0,0,77.8225,100.9Z" class="fill"/>
      <path d="M259.8273,115.6229a108.2472,108.2472,0,0,0,5.8412-13.0352,2,2,0,0,0-1.7489-2.6543c-.0406-.0028-.955-.0654-2.5336-.0654a75.0543,75.0543,0,0,0-13.87,1.35,62.7658,62.7658,0,0,0-19.5023,7.0509,70.0918,70.0918,0,0,0-12.6412,9.8584,175.9679,175.9679,0,0,0-15.9285,17.7112c-4.1425,5.2219-6.7655,8.999-6.7832,9.0244a2.0047,2.0047,0,0,0,.1563,2.4775c.0524.1006.13.2546.22.4478.5853,1.2354,1.7343,3.9143,3.2849,7.3562,2.3317,5.1743,5.5968,12.1277,9.454,18.9773,3.8641,6.8523,8.2958,13.5986,13.1058,18.4265a72.828,72.828,0,0,0,21.717,14.6086,69.9423,69.9423,0,0,0,11.18,4.0044,2,2,0,0,0,2.4489-2.1792,115.288,115.288,0,0,0-2.8864-14.2952c-2.1842-8.3145-5.8418-19.0308-11.849-28.7219a52.75,52.75,0,0,0-14.819-15.3184,47.434,47.434,0,0,0,17.5354-10.564C250.1122,132.4009,255.9393,123.058,259.8273,115.6229Z" class="fill"/>
    </g>
  </g>
</svg>
