<svg xmlns="http://www.w3.org/2000/svg" viewBox="0 0 320 320">
  <title>_.support.compass</title>
  <g id="console">
    <path d="M160,272A112,112,0,1,0,48,160,112,112,0,0,0,160,272ZM127.0237,141.2755,212.1676,73.16l-17.0289,102.173-34.2443-17.1224ZM268,160a108.0215,108.0215,0,0,1-162.1516,93.4589,1.9682,1.9682,0,0,0,.4009-.2307l91.6665-73.333c.0078-.0063.0129-.015.0208-.0214a1.995,1.995,0,0,0,.2529-.2609c.0258-.0306.058-.0561.0818-.0881a1.9933,1.9933,0,0,0,.2388-.4175c.012-.0289.0154-.0607.0261-.09a1.9865,1.9865,0,0,0,.1031-.355l18.3335-110a1.96,1.96,0,0,0,.0052-.4177A108.059,108.059,0,0,1,268,160ZM83.6323,83.6324a108.04,108.04,0,0,1,130.519-17.0913,1.9673,1.9673,0,0,0-.4008.2307l-91.6665,73.333c-.0079.0063-.0129.015-.0206.0214a1.9749,1.9749,0,0,0-.2539.2618c-.0255.03-.0574.0554-.0808.087a1.9956,1.9956,0,0,0-.239.4177c-.012.0286-.0151.06-.0259.0891a1.9941,1.9941,0,0,0-.1033.356l-18.3335,110a1.9524,1.9524,0,0,0-.0052.4177,108.0088,108.0088,0,0,1-19.39-168.123Z" class="fill"/>
  </g>
</svg>
