<svg xmlns="http://www.w3.org/2000/svg" viewBox="0 0 320 320">
  <title>_.support.pipette</title>
  <g id="console">
    <path d="M153.1348,126.9709c-26.6409,26.6409-54.44,54.44-59.0734,59.0728A52.5233,52.5233,0,0,0,84.29,198.8425c-2.9883,5.7345-3.5747,10.5409-4.2668,14.4176a25.14,25.14,0,0,1-1.3668,5.23,13.774,13.774,0,0,1-3.1274,4.62s-4.6337,4.6327-9.2667,9.2666c-5.6968,5.6964-8.2566,11.5917-8.2625,16.767A12.4177,12.4177,0,0,0,70.8558,262c5.1752-.0059,11.07-2.5656,16.7672-8.2622,4.6339-4.6329,9.2667-9.2667,9.2667-9.2667a13.8661,13.8661,0,0,1,6.2448-3.6938,51.32,51.32,0,0,1,5.6218-1.15,41.0725,41.0725,0,0,0,10.9871-3.22,50.3872,50.3872,0,0,0,14.2126-10.4687c4.6328-4.6333,32.4319-32.4327,59.0728-59.0736,22.9561-22.9561,45.0361-45.0364,50.7095-50.71l12.4861,12.4855a8.5521,8.5521,0,1,0,12.094-12.0951L251.2,99.4277c5.1726-5.1729,11.4617-11.4626,17.1189-17.1189a12.3917,12.3917,0,0,0,2.8052-4.2452,12.9977,12.9977,0,0,0,.8748-4.78,19.92,19.92,0,0,0-2.39-8.9523,33.6371,33.6371,0,0,0-9.749-11.323,28.3936,28.3936,0,0,0-6.3838-3.614A18.4634,18.4634,0,0,0,246.7153,48a12.9978,12.9978,0,0,0-4.78.8751,12.3881,12.3881,0,0,0-4.2444,2.8058C232.0347,57.3379,225.7456,63.627,220.5723,68.8L203.4541,51.6814a8.5521,8.5521,0,0,0-12.095,12.0941l12.4854,12.486ZM131.1277,223.11a48.5724,48.5724,0,0,1-11.8157,9.0507c-5.1246,2.6584-9.2229,3.158-13.2736,3.8776a28.9279,28.9279,0,0,0-6.05,1.6056,17.81,17.81,0,0,0-5.9269,3.9983c-.0032.0031-1.1584,1.1586-2.8958,2.8961s-4.054,4.0541-6.3708,6.37c-5.16,5.1594-10.1206,7.0968-13.939,7.0909A8.4294,8.4294,0,0,1,62,249.1438c-.0059-3.8185,1.9314-8.7792,7.0911-13.9386,2.3165-2.317,4.6332-4.6335,6.3706-6.371l2.896-2.8955a17.9317,17.9317,0,0,0,4.7031-7.9448,54.4048,54.4048,0,0,0,1.2529-6.0656,37.1007,37.1007,0,0,1,2.9036-9.98c1.7366-3.7167,4.5918-7.9929,9.6727-13.0764,8.6256-8.6248,97.525-97.524,109.7831-109.782L240.91,113.3271C228.6514,125.5852,139.7524,214.4844,131.1277,223.11Z" class="fill"/>
  </g>
</svg>
