<svg xmlns="http://www.w3.org/2000/svg" viewBox="0 0 320 320">
  <title>_.support.shopping-bag-variant</title>
  <g id="console">
    <path d="M53.0049,269.86A2,2,0,0,0,55,272H265a2,2,0,0,0,1.995-2.14l-3.79-54.0352-.0016-.0094,0-.0089-8.5791-108.07a1.9989,1.9989,0,0,0-1.9937-1.8417H211.9825c-.0858-8.6578-.7222-15.8986-2.2295-21.9542a34.5253,34.5253,0,0,0-5.5653-12.4569,26.0761,26.0761,0,0,0-7.0048-6.4874c-4.1429-2.6372-9.2114-4.3735-15.3375-5.4624A127.2441,127.2441,0,0,0,160,58c-10.0836.0018-18.34.624-25.1416,2.2068a37.2911,37.2911,0,0,0-12.9454,5.39,25.9594,25.9594,0,0,0-6.7229,6.759,38.3981,38.3981,0,0,0-5.6326,14.7416,108.0422,108.0422,0,0,0-1.543,18.7975H67.3687a1.9988,1.9988,0,0,0-1.9938,1.8417l-8.5791,108.07,0,.0089-.0016.0094Zm4.14-1.86,3.5091-50.0352H259.3456L262.8547,268Zm56.983-183.0918A30.5608,30.5608,0,0,1,119.0217,73.87a22.0578,22.0578,0,0,1,5.944-5.5007c3.5551-2.2659,8.1034-3.871,13.8883-4.8978A123.45,123.45,0,0,1,160,62c9.9164-.0018,17.91.626,24.2334,2.1024a33.3421,33.3421,0,0,1,11.576,4.7825,21.9394,21.9394,0,0,1,5.6986,5.7286,34.4688,34.4688,0,0,1,5.0044,13.2292,104.1746,104.1746,0,0,1,1.4731,18.0519H112.0168C112.1013,97.4331,112.7354,90.4829,114.1281,84.9081Zm-44.912,24.9863H250.7837l8.2616,104.07H60.9546Z" class="fill"/>
  </g>
</svg>
