<svg xmlns="http://www.w3.org/2000/svg" viewBox="0 0 320 320">
  <title>_.support.wrench</title>
  <g id="console">
    <path d="M61.6179,277.5318a15.2016,15.2016,0,0,0,21.53,0L186.0023,174.4573l11.2323,11.2566a1.9944,1.9944,0,0,0,2.1875.4324l56.86-23.7832a1.9959,1.9959,0,0,0,1.16-1.3282l.3369-1.2593a1.9989,1.9989,0,0,0-1.413-2.4484l-43.65-11.7324A33.7357,33.7357,0,0,1,187.76,113.0341a33.8393,33.8393,0,0,1,1.1556-8.7523l.457-1.7084-1.932-.5168,1.9321.5165a33.586,33.586,0,0,1,41.2156-23.8506l43.652,11.7328a2,2,0,0,0,2.4512-1.4146l.24-.8979a1.9962,1.9962,0,0,0-.3187-1.6989L244.48,42.5836l-.1978-.2309a14.8044,14.8044,0,0,0-14.3264-3.8457L171.5287,54.1959a14.8426,14.8426,0,0,0-10.4849,10.5059l-15.6556,58.5526a14.8741,14.8741,0,0,0,3.8367,14.3474l1.0927,1.095L47.4568,241.7767a15.27,15.27,0,0,0,0,21.5637Zm-11.33-32.93,104.27-104.4926a1.9979,1.9979,0,0,0,0-2.8254l-2.5024-2.5078a10.8736,10.8736,0,0,1-2.804-10.4886l15.6558-58.5528a10.8426,10.8426,0,0,1,7.658-7.6759L230.9941,42.37a10.79,10.79,0,0,1,10.3723,2.7313L270.9016,85.416,231.6265,74.86A37.6471,37.6471,0,0,0,185.5087,101.54h0l-.457,1.7082a37.73,37.73,0,0,0,26.6268,46.21l39.6266,10.651-52.1879,21.829-11.6992-11.7247a2,2,0,0,0-2.8314,0L80.3162,274.7064a11.2016,11.2016,0,0,1-15.8668,0L50.2882,260.515a11.27,11.27,0,0,1,0-15.913Z" class="fill"/>
  </g>
</svg>
