<svg xmlns="http://www.w3.org/2000/svg" viewBox="0 0 320 320">
  <title>_.support.map-filled</title>
  <g id="console">
    <g>
      <path d="M111.0693,38.31a1.9922,1.9922,0,0,0-1.9255-.1174l-80,37.8945A2.0024,2.0024,0,0,0,28,77.8945V280a2,2,0,0,0,2.856,1.8074l80-37.8945A2.0029,2.0029,0,0,0,112,242.1055V40A1.9928,1.9928,0,0,0,111.0693,38.31Z" class="fill"/>
      <path d="M200.856,76.087l-80-37.8945A2,2,0,0,0,118,40V242.1055a2.0025,2.0025,0,0,0,1.1438,1.8074l80,37.8945A2,2,0,0,0,202,280V77.8945A2.0028,2.0028,0,0,0,200.856,76.087Z" class="fill"/>
      <path d="M291.0693,38.31a1.9922,1.9922,0,0,0-1.9255-.1174l-80,37.8945A2.0024,2.0024,0,0,0,208,77.8945V280a2,2,0,0,0,2.856,1.8074l80-37.8945A2.0029,2.0029,0,0,0,292,242.1055V40A1.9928,1.9928,0,0,0,291.0693,38.31Z" class="fill"/>
    </g>
  </g>
</svg>
