<svg xmlns="http://www.w3.org/2000/svg" viewBox="0 0 320 320">
  <title>_.support.infinity</title>
  <g id="console">
    <g>
      <path d="M268.6918,104.2551a66.9983,66.9983,0,0,0-34.048-8.9821c-18.9024.0056-37.9049,7.3386-50.79,21.2391a89.6221,89.6221,0,0,0-15.4,23.5464c-5.7784,12.4233-9.427,25.48-14.1475,37.8882-4.7193,12.4165-10.4744,24.1526-20.3549,34.1523a51.39,51.39,0,0,1-18.87,11.9978A65.586,65.586,0,0,1,92.35,228,77.3429,77.3429,0,0,1,44.3509,211.217a61.3141,61.3141,0,0,1-16.1664-19.8086A58.0806,58.0806,0,0,1,22,164.9224v-.0215c.0075-21.8831,7.7969-39.6719,20.2146-52.05,12.424-12.3722,29.5176-19.3424,48.2841-19.3458,15.4879.0011,32.1163,4.7549,48.1613,15.2173l2.1851-3.35C124.2067,94.519,106.8077,89.5038,90.4987,89.5049c-19.7569-.0034-37.9125,7.3654-51.107,20.5117C26.1908,123.1566,17.9924,142.0654,18,164.9009v.0222a62.094,62.094,0,0,0,6.6155,28.2915c6.294,12.4336,16.5482,22.1289,28.543,28.71A82.3617,82.3617,0,0,0,92.35,231.9993a69.565,69.565,0,0,0,24.121-4.1514A55.3845,55.3845,0,0,0,136.7971,214.91a84.8859,84.8859,0,0,0,15.9287-23.0652c5.9553-12.272,9.6476-25.3027,14.2917-37.8083,4.6418-12.5142,10.2048-24.4758,19.7717-34.807,11.9984-12.972,29.9736-19.9625,47.8546-19.9569a62.3092,62.3092,0,0,1,55.4741,32.572A64.6882,64.6882,0,0,1,298,162.8276a62.6617,62.6617,0,0,1-6.8767,28.7212,59.8417,59.8417,0,0,1-20.7585,22.8452,66.9013,66.9013,0,0,1-36.2744,10.3076c-13.2784.002-26.5636-3.6731-37.3549-10.97l-2.24,3.3145a73.03,73.03,0,0,0,78.0482.7024,63.8519,63.8519,0,0,0,22.134-24.3655A66.6592,66.6592,0,0,0,302,162.8276a68.6832,68.6832,0,0,0-8.3727-32.9021A67.0869,67.0869,0,0,0,268.6918,104.2551Z" class="fill"/>
      <polygon points="194.496 217.046 194.496 217.046 194.496 217.046 194.496 217.046" class="fill"/>
    </g>
  </g>
</svg>
