<svg xmlns="http://www.w3.org/2000/svg" viewBox="0 0 320 320">
  <title>_.support.shopping-bag-filled</title>
  <g id="console">
    <g>
      <path d="M114,98.3159a2,2,0,0,0,2-2c-.0028-10.1624.9971-17.7593,2.8658-23.3445a23.7027,23.7027,0,0,1,5.5671-9.546,19.6214,19.6214,0,0,1,6.0327-4.0635A40.484,40.484,0,0,1,143.0869,56.51c4.94-.4567,10.5961-.5107,16.9131-.51a157.2977,157.2977,0,0,1,19.5833.8062,34.7762,34.7762,0,0,1,10.71,2.9081,19.1522,19.1522,0,0,1,5.84,4.3021c2.5011,2.7266,4.463,6.4634,5.8118,11.7229,1.3469,5.2532,2.0558,12.0027,2.0546,20.5767a2,2,0,0,0,2,2h4a2,2,0,0,0,2-2c-.0027-11.7216-1.2559-20.6176-3.7118-27.4536a30.1632,30.1632,0,0,0-7.5651-12.0762,26.5164,26.5164,0,0,0-8.0753-5.1547,49.1665,49.1665,0,0,0-14.93-3.19C172.2555,47.9978,166.3285,48.0006,160,48a182.1923,182.1923,0,0,0-20.7047.7376A43.0679,43.0679,0,0,0,126.371,52.06a25.9644,25.9644,0,0,0-7.8751,5.4927c-3.4628,3.5485-6.0978,8.3446-7.8474,14.667-1.7522,6.3284-2.6471,14.205-2.6484,24.0958a2,2,0,0,0,2,2Z" class="fill"/>
      <path d="M65.38,107.6814l-11.5791,108.07a2,2,0,0,0,1.9886,2.213H264.21a2,2,0,0,0,1.9885-2.213L254.62,107.6814a2.0031,2.0031,0,0,0-1.9885-1.7869H67.3687A2.003,2.003,0,0,0,65.38,107.6814Z" class="fill"/>
      <path d="M271.4875,271.3367a2.0106,2.0106,0,0,0,.501-1.55l-4.6313-43.228a2.0031,2.0031,0,0,0-1.9885-1.7869H54.6313a2.0031,2.0031,0,0,0-1.9886,1.7869l-4.6313,43.228A2,2,0,0,0,50,272H270A2.0106,2.0106,0,0,0,271.4875,271.3367Z" class="fill"/>
    </g>
  </g>
</svg>
