<svg xmlns="http://www.w3.org/2000/svg" viewBox="0 0 320 320">
  <title>_.support.earth-filled</title>
  <g id="console">
    <g>
      <path d="M160,262A102,102,0,0,0,262,160c0-1.4927-.0387-2.9706-.1017-4.4373.0544-.7038.0924-1.4149.0924-2.1362a20.8348,20.8348,0,0,0-.2844-3.5169l0,.0012c-.1233-.7233-.2764-1.4189-.4357-2.1A102.0008,102.0008,0,1,0,160,262ZM158.3676,83.9943a8.407,8.407,0,0,1-.1635,1.8325,1.574,1.574,0,0,1-.2919.7054q-2.5012,2.5012-5.0032,5.0031V88.101q2.7054-2.7054,5.4108-5.4108C158.3467,83.1376,158.3678,83.58,158.3676,83.9943ZM84.6234,101.3828c1.262-1.0581,2.5067-2.0525,3.4709-3.0126q4.3325-4.3316,8.6642-8.6642,5.391,2.696,10.782,5.3914a23.3911,23.3911,0,0,0,2.2238.9484,13.9809,13.9809,0,0,1,2.1008.8822l.0509.0369a3.3365,3.3365,0,0,1-.3068.7995l0-.0007q-3.6348,7.27-7.2705,14.5406l-.1393.1723a1.7382,1.7382,0,0,1-.7023.2848,6.9455,6.9455,0,0,1-1.476.1307c-.7844.0007-1.682-.0777-2.5723-.1642-.895-.0848-1.7722-.1805-2.624-.1826a10.6865,10.6865,0,0,0-3.2075.6192,51.4252,51.4252,0,0,0-6.647,2.9055c-3.6268,1.821-7.6,4.0223-11.0767,5.7461-1.7351.8612-3.3466,1.6018-4.6869,2.1078-.3358.127-.6542.239-.951.3348a47.8067,47.8067,0,0,1,2.1527-4.5c1.4008-2.644,3.1134-5.5861,4.559-8.06.7233-1.2379,1.38-2.3589,1.9039-3.28.2622-.4612.4913-.8721.6826-1.23.1921-.3616.3433-.6575.47-.9553l0-.0007A6.6791,6.6791,0,0,1,81.21,104.535,34.0458,34.0458,0,0,1,84.6234,101.3828ZM65.156,178.433a10.1652,10.1652,0,0,0,1.129-2.184c.4489-1.1381.8092-2.3468,1.1735-3.4118a10.8382,10.8382,0,0,1,1.0275-2.3752,2,2,0,0,0-1.4979-3.1273c-.8633-.0635-1.8413-.1713-2.8989-.2189-.0034-.0788-.0067-.1588-.0059-.2493a25.4393,25.4393,0,0,1,.6859-4.8191c.6387-2.9539,1.6233-6.3736,2.4716-9.1119.4242-1.37.8143-2.5721,1.1108-3.4687.298-.901.4958-1.4775.5546-1.6532q2.202-6.6047,4.4037-13.21a2.3034,2.3034,0,0,1,.5366-.1519,8.4049,8.4049,0,0,1,1.4529-.1048c.9031-.0007,1.9448.0867,2.9242.1809.3639.034.702.0663,1.041.0978a5.2987,5.2987,0,0,0,.521,1.0729,6.8058,6.8058,0,0,0,1.7264,1.7856A15.1476,15.1476,0,0,0,85.2,139.3351c1.9044.7,3.8461,1.2354,5.1284,1.811a4.5847,4.5847,0,0,1,1.2617.7461l.1027.1219a1.2159,1.2159,0,0,1-.1487.4261l.0007-.0013c-2.2651,4.53-6.066,12.1318-8.3318,16.663a2.1557,2.1557,0,0,0-.2278.9651,2.2777,2.2777,0,0,0,.1649.8458,3.0315,3.0315,0,0,0,.4807.7961,8.2624,8.2624,0,0,0,.9478.95c.6128.5389,1.3678,1.1309,2.1753,1.762,1.2065.9411,2.5276,1.9661,3.4834,2.8331a9.7524,9.7524,0,0,1,1.0588,1.0807c.02.0245.0282.0388.0438.06a2,2,0,0,0,1.08,1.7176,15.127,15.127,0,0,0,6.8,1.9611,8.0275,8.0275,0,0,0,2.985-.5508,8.7063,8.7063,0,0,0,3.627-2.8381,37.8192,37.8192,0,0,0,2.9008-4.9013,8.1017,8.1017,0,0,1,.9065-1.338c.1479.1172.2969.2347.4669.3654,1.5369,1.1783,3.9791,2.9143,6.0481,4.4077,1.0316.7444,1.9689,1.4274,2.6244,1.9268.1217.0925.2224.1714.3225.25q0,7.71,0,15.42a6.5252,6.5252,0,0,1-.453,1.9507,45.3309,45.3309,0,0,1-2.9114,6.0581c-1.928,3.5162-4.3356,7.5123-6.2887,11.2557a50.4072,50.4072,0,0,0-2.4827,5.3859,14.24,14.24,0,0,0-1.0785,4.833,5.5112,5.5112,0,0,0,.5369,2.489l-.0007-.0014q3.635,7.2708,7.27,14.5406a11.9987,11.9987,0,0,1,1.0505,5.5658c0,.5511-.0217,1.14-.0409,1.7259q-3.1348-1.5675-6.2694-3.135c-.6615-.3286-1.4371-.6294-2.3029-.9645-1.29-.4962-2.7567-1.05-3.9557-1.625a11.76,11.76,0,0,1-1.5062-.8376,2.5607,2.5607,0,0,1-.62-.5337q-6.9763-10.464-13.9523-20.9278a95.2219,95.2219,0,0,0-12.8339-14.9723c-1.9355-1.9191-3.61-5.0137-5.0869-8.3724-1.2167-2.7443-2.32-5.6274-3.499-8.2375A5.386,5.386,0,0,0,65.156,178.433Zm86.68,77.9752c-2.9471-.9005-5.9421-1.9935-8.7068-2.6874l-12.3453-3.0862,12.6986-4.2328c1.7817-.5944,3.1542-1.0436,4.243-1.3293a10.0767,10.0767,0,0,1,2.5637-.4073,7.2856,7.2856,0,0,1,2.698.5828c1.1284.4278,2.5941,1.1414,4.609,2.15,2.99,1.4919,5.4258,2.8458,8.075,3.865a24.1609,24.1609,0,0,0,9.0261,1.646h5.42l-1.5942.3986c-3.0154.7564-6.2946,1.9526-9.5277,2.9408A32.4941,32.4941,0,0,1,160,258,29.5265,29.5265,0,0,1,151.8364,256.4082Zm104.9572-94.1328c-.2335,1.2046-.4579,2.4019-.6232,3.5929-1.2213-.7073-2.3613-1.4213-3.5168-2.1544a70.1325,70.1325,0,0,0-6.5117-3.788,17.5252,17.5252,0,0,0-4.8911-1.63,26.49,26.49,0,0,0-4.6445-.3311c-1.244,0-2.512.0355-3.8787.0353-1.135,0-2.17-.0807-3.1326-.1667-.9642-.0847-1.85-.1807-2.7365-.1826a6.5381,6.5381,0,0,0-2.0321.2772,4.1332,4.1332,0,0,0-1.5243.8771,4.2244,4.2244,0,0,0-.8477,1.0885,6.2381,6.2381,0,0,0-.6469,1.9634,14.0415,14.0415,0,0,0-.1714,2.36c.0017,1.37.1511,2.927.2915,4.5586.1418,1.6268.2773,3.3175.2767,4.8469a16.8091,16.8091,0,0,1-.1649,2.5293,6.0853,6.0853,0,0,1-.5039,1.7594q-12.8961,25.7929-25.793,51.5859c-.1262-.1058-.2432-.2083-.3718-.3154-1.3171-1.0936-2.7509-2.2516-3.9242-3.3751a16.4608,16.4608,0,0,1-1.5055-1.6154,5.5689,5.5689,0,0,1-.8138-1.3037,4.5532,4.5532,0,0,1-.2716-1.7175,21.5552,21.5552,0,0,1,.1694-2.2562,25.1065,25.1065,0,0,0,.1926-2.7118,8.5675,8.5675,0,0,0-.8292-3.8971c-2.29-4.5786-4.2955-8.7145-6.6714-12.6638a57.9173,57.9173,0,0,0-8.8553-11.4253,12.71,12.71,0,0,1-.9744-1.19,105.5329,105.5329,0,0,1-6.2307-9.7778c-1.0563-1.8609-2.0071-3.67-2.672-5.1345a19.5732,19.5732,0,0,1-.7555-1.8714c-.0542-.1638-.0935-.3018-.1257-.4253l15.9885-15.9885c.15.18.3022.3655.4608.56,1.0918,1.3327,2.3838,2.9528,3.7257,4.3614a18.7037,18.7037,0,0,0,2.0809,1.9157,6.8449,6.8449,0,0,0,2.4207,1.2739,5.61,5.61,0,0,0,1.3824.1588,12.5774,12.5774,0,0,0,2.9314-.4221c1.4811-.366,3.0085-.8985,4.3739-1.384,1.3529-.4844,2.5781-.9268,3.218-1.0827.29-.0731.965-.2166,1.85-.3961,3.1226-.6353,9.0226-1.776,14.18-3.0417a67.3023,67.3023,0,0,0,6.8237-1.9767,13.6039,13.6039,0,0,0,2.4-1.1055,4.4747,4.4747,0,0,0,.9976-.8125,2.8912,2.8912,0,0,0,.4612-.6933,2.4913,2.4913,0,0,0,.2379-1.0546v-16.62a2.811,2.811,0,0,0-1.3868-2.4589,3.8319,3.8319,0,0,0-1.3319-.4736,7.079,7.079,0,0,0-1.2057-.0922,26.273,26.273,0,0,0-3.0592.2616,23.3251,23.3251,0,0,1-2.5737.2314,3.1105,3.1105,0,0,1-.4856-.03L197.778,113.1312a2,2,0,0,0-3.4142,1.4142c.0034,1.6508.2407,3.7519.4667,6.0313.228,2.2687.448,4.6877.447,6.7609a18.3307,18.3307,0,0,1-.1761,2.752,5.43,5.43,0,0,1-.4561,1.6031,4.7065,4.7065,0,0,1-.9088.5839,30.19,30.19,0,0,1-3.0631,1.3275c-.5415.2093-1.0647.4064-1.5333.59-.4722.1859-.8763.3485-1.2528.5353q-4.6531,2.3272-9.3064,4.6534c-.07-.043-.146-.0921-.2261-.1472a21.0676,21.0676,0,0,1-2.1729-1.7631,39.2638,39.2638,0,0,1-3.5221-3.6343,14.5423,14.5423,0,0,1-1.1122-1.476l-.0206-.0349q4.2219-8.4435,8.444-16.8873a1.9951,1.9951,0,0,0-.3748-2.3088q-3.839-3.8382-7.677-7.6765l7.0033-7.0032a1.6125,1.6125,0,0,1,.71-.286,8.7226,8.7226,0,0,1,1.8691-.1639c.9364-.0006,1.9879.0832,2.9866.1732,1.0057.0885,1.9382.1867,2.7852.1892.5082-.0025,1.4113.08,2.4272.1731,1.0231.0911,2.18.1885,3.3433.1891a12.5407,12.5407,0,0,0,2.761-.2645,5.3593,5.3593,0,0,0,2.6464-1.3564l.0006-.0005q4.2081-4.209,8.4175-8.418a2,2,0,0,0-1.4143-3.4141c-.3916.0014-.806.0337-1.3163.0757-1.4987.1284-3.7369.3662-5.3259.3639-.3274.0008-.6185-.0114-.8573-.03-.0194-.24-.0311-.5287-.031-.858-.0009-1.0524.103-2.4143.212-3.6327.0542-.6111.1093-1.1888.1519-1.6934.042-.51.0743-.9246.0757-1.3161a2,2,0,0,0-3.4143-1.4141q-4.1472,4.1481-8.2955,8.2955a5.2894,5.2894,0,0,1-.8035.2345,23.5914,23.5914,0,0,1-4.6572.4651,13.1112,13.1112,0,0,1-1.3741-.0633c-.0026-.027-.0057-.05-.0079-.0784-.0341-.3907-.0529-.8874-.0527-1.4255a27.1259,27.1259,0,0,1,.2578-3.7316,9.7593,9.7593,0,0,1,.2107-1.0682q5.4606-2.7307,10.921-5.4608c.4884-.246.9481-.5346,1.432-.8373.7185-.4526,1.4769-.935,2.1509-1.274a3.7881,3.7881,0,0,1,1.4-.4833h.0012q5.3256,3.55,10.65,7.1c2.7639,1.8411,5.7816,3.54,8.6383,5.3278a43.1236,43.1236,0,0,1,7.6493,5.7662,11.4167,11.4167,0,0,1,2.19,2.7433,3.7716,3.7716,0,0,1,.3781,1.1868c.0509.3129.0826.6931.1353,1.1733a11.632,11.632,0,0,0,.6022,2.72,17.0723,17.0723,0,0,0,1.96,3.7513,65.2562,65.2562,0,0,0,4.3987,5.5329c2.7524,3.2084,6.132,6.97,9.0273,10.4662,1.4467,1.7465,2.7714,3.4265,3.8236,4.9145a19.7918,19.7918,0,0,1,2.1718,3.6646c1.6017,4.0006,3.5631,7.8057,5.3345,11.5775a59.0752,59.0752,0,0,1,4.23,11.2216q.4076,3.4839.5692,7.04A64.9634,64.9634,0,0,1,256.7936,162.2755Z" class="fill"/>
      <polygon points="83.211 159.105 83.213 159.102 83.213 159.102 83.211 159.105" class="fill"/>
    </g>
  </g>
</svg>
