<svg xmlns="http://www.w3.org/2000/svg" viewBox="0 0 320 320">
  <title>_.support.hammer</title>
  <g id="console">
    <g>
      <path d="M56.5471,277.5573a15.1683,15.1683,0,0,0,21.4512,0L183.2325,172.3234a2,2,0,0,0,0-2.8285L150.505,136.7673a2,2,0,0,0-2.8285,0L42.4426,242.0017a15.1683,15.1683,0,0,0,0,21.4512ZM45.271,244.83l103.82-103.82,29.8989,29.899L75.17,274.7288a11.1677,11.1677,0,0,1-15.7939,0L45.2711,260.6243a11.1677,11.1677,0,0,1,0-15.7939Z" class="fill"/>
      <path d="M268.7913,125.2954l-.0673.01a99.065,99.065,0,0,1-12.7644.9774,43.1807,43.1807,0,0,1-4.4917-.21,17.4375,17.4375,0,0,1-3.5627-.6975,12.1765,12.1765,0,0,1-3.9258-2.2965,23.4024,23.4024,0,0,1-4.2914-4.9629c-.5044-.7657-.8914-1.4333-1.1479-1.9017-.0687-.1254-.1265-.2335-.1764-.3284V94.5454a2.0135,2.0135,0,0,0-.5857-1.4143L194.1412,49.4949a1.9878,1.9878,0,0,0-.5345-.3819,122.98,122.98,0,0,0-14.0579-5.5571c-8.3636-2.7645-19.4381-5.5508-30.458-5.5559H94.5454a2,2,0,0,0-.5262,3.93s.1083.03.3295.0915c1.6578.4645,9.4126,2.6865,19.6,6.3778A242.3942,242.3942,0,0,1,148.12,63.5667c8.7693,4.87,14.5731,9.7985,18.15,14.69a24.3286,24.3286,0,0,1,5,14.799,35.3889,35.3889,0,0,1-2.2465,11.7336,96.9383,96.9383,0,0,1-7.3436,16.3658c-.9915,1.7075-1.81,2.934-2.3713,3.7223-.2806.3942-.4968.6788-.6382.8595-.0707.09-.1226.1544-.1544.1934l-.0326.0394-.0046.0056,0,0a2.0012,2.0012,0,0,0,.1072,2.7118l32.7271,32.7271a2,2,0,0,0,2.8285,0L214.615,140.94a37.9763,37.9763,0,0,1,3.9684,4.4755,28.5868,28.5868,0,0,1,3.4644,5.8732,17.5249,17.5249,0,0,1,1.5125,6.861,14.2325,14.2325,0,0,1-.0927,1.6219,76.3479,76.3479,0,0,0-.6193,8.3087,10.7178,10.7178,0,0,0,.2975,2.9663,2.9059,2.9059,0,0,0,.6084,1.135,2.3114,2.3114,0,0,0,.6263.4816l18.7506,18.7506a5.8571,5.8571,0,0,0,8.283,0l27.5724-27.5724A10.2876,10.2876,0,0,0,282,156.5669V141.6152a10.2893,10.2893,0,0,0-3.0134-7.2756l-8.4816-8.481A2.0009,2.0009,0,0,0,268.7913,125.2954ZM278,141.6152v14.9517a6.288,6.288,0,0,1-1.842,4.4465l-27.5723,27.5723a1.8565,1.8565,0,0,1-2.6261,0l-19.0428-19.0428a11.9216,11.9216,0,0,1-.0686-1.4622,72.9479,72.9479,0,0,1,.5931-7.8514,18.1848,18.1848,0,0,0,.1188-2.0792,21.5664,21.5664,0,0,0-1.8854-8.552,35.412,35.412,0,0,0-6.1558-9.3329,36.5508,36.5508,0,0,0-3.71-3.634,2,2,0,0,0-2.6776.1362l-20.4042,20.4041-30.0841-30.084c1.9275-2.7273,6.051-9.3452,10.1522-20.9673a39.3373,39.3373,0,0,0,2.4744-13.0647,28.37,28.37,0,0,0-5.7725-17.1615c-4.0442-5.521-10.33-10.7635-19.4349-15.8239a250.7723,250.7723,0,0,0-36.78-16.1595c-1.9623-.6963-3.8175-1.3333-5.5415-1.9106h41.35c10.3439-.0051,21.0873,2.6631,29.2009,5.3533,4.0581,1.3434,7.4619,2.6882,9.8433,3.6938,1.1907.5028,2.1259.9208,2.76,1.2114.286.131.5012.2319.66.3073l42.8085,42.808v20.99a2.0254,2.0254,0,0,0,.1925.8561,30.332,30.332,0,0,0,3.1185,4.9637,25.34,25.34,0,0,0,3.7295,3.9563,16.14,16.14,0,0,0,5.2361,3.03,21.27,21.27,0,0,0,4.4044.88,47.0264,47.0264,0,0,0,4.9148.2322,101.1493,101.1493,0,0,0,12.4205-.8921l7.778,7.7775A6.2892,6.2892,0,0,1,278,141.6152Z" class="fill"/>
    </g>
  </g>
</svg>
