<svg xmlns="http://www.w3.org/2000/svg" viewBox="0 0 320 320">
  <title>_.support.map</title>
  <g id="console">
    <path d="M281.0693,38.31a1.9922,1.9922,0,0,0-1.9255-.1174L200,75.6815l-79.144-37.489c-.04-.0188-.0825-.0242-.1228-.04a1.9512,1.9512,0,0,0-.2473-.0811A2.01,2.01,0,0,0,120,38.01a1.9593,1.9593,0,0,0-.7327.1416c-.0405.0161-.0835.0215-.1233.04l-80,37.8945A2.0024,2.0024,0,0,0,38,77.8945V280a2,2,0,0,0,2.856,1.8074L120,244.3184l79.1438,37.489c.04.0188.0828.0243.1233.04a1.9833,1.9833,0,0,0,.7329.1416,1.9525,1.9525,0,0,0,.7329-.1416c.0405-.016.0833-.0215.123-.04l80-37.8945A2.0029,2.0029,0,0,0,282,242.1055V40A1.9928,1.9928,0,0,0,281.0693,38.31ZM118,43.16V240.84l-76,36V79.16ZM278,240.84l-76,36V79.16l76-36Z" class="fill"/>
  </g>
</svg>
