<svg xmlns="http://www.w3.org/2000/svg" viewBox="0 0 320 320">
  <title>_.support.line-chart</title>
  <g id="console">
    <g>
      <path d="M42,40H38V280a2,2,0,0,0,2,2H280v-4H42Z" class="fill"/>
      <path d="M230,157.1714l-18.5857-18.5857a2.0032,2.0032,0,0,0-2.6946-.1223l-58.8528,49.0437-28.7573-19.1714a1.9969,1.9969,0,0,0-2.2189,0l-60,40,2.219,3.3286v0L120,172.4036l28.8905,19.26a1.9965,1.9965,0,0,0,2.39-.1277l58.5969-48.8308,18.7085,18.7085a2,2,0,0,0,2.8284,0l50-50-2.8281-2.8281Z" class="fill"/>
    </g>
  </g>
</svg>
