<svg xmlns="http://www.w3.org/2000/svg" viewBox="0 0 320 320">
  <title>_.support.plane</title>
  <g id="console">
    <path d="M277.1162,44.0378h0a20.0276,20.0276,0,0,0-7.1154-4.6318,22.779,22.779,0,0,0-8.12-1.4067c-5.44.0049-11.1337,1.59-16.7679,4.012-8.4476,3.6406-16.7848,9.2007-23.7544,14.56a167.6924,167.6924,0,0,0-15.424,13.3945c-9.428,9.4277-9.428,9.4277-18.8562,18.8555a2.7524,2.7524,0,0,1-.8867.5222,13.0717,13.0717,0,0,1-3.2656.7358,43.5046,43.5046,0,0,1-5.1066.2563,190.8737,190.8737,0,0,1-21.7229-1.7461c-12.7632-1.5784-27.6323-3.9543-41.5-5.9387-13.8784-1.9832-26.7189-3.5823-35.64-3.5864a40.1927,40.1927,0,0,0-7.1606.5237,14.01,14.01,0,0,0-2.73.7681,6.6118,6.6118,0,0,0-2.1968,1.3953c-9.4276,9.4272-28.2836,28.2837-28.2836,28.2837a2,2,0,0,0,.46,3.1719l80.3978,43.6443L79.1755,207.3279a21.3816,21.3816,0,0,1-5.7061,4.2024,24.86,24.86,0,0,1-3.9623,1.4937,48.4542,48.4542,0,0,0-6.6266,2.22,26.12,26.12,0,0,0-7.7958,5.57,2,2,0,0,0,0,2.8284L65.6917,234.25l21.2129,21.2129,10.6071,10.6064a2,2,0,0,0,2.8284,0,25.366,25.366,0,0,0,5.0879-6.9009,26.2839,26.2839,0,0,0,1.6544-4.5181,39.4044,39.4044,0,0,1,1.9-5.968,22.5334,22.5334,0,0,1,4.8438-6.7034l50.4769-40.2681,43.6445,80.3975a2,2,0,0,0,3.172.46l28.2842-28.2842a6.6187,6.6187,0,0,0,1.3944-2.1965,16.8365,16.8365,0,0,0,1.0062-4.3044,47.3737,47.3737,0,0,0,.2849-5.5859,194.28,194.28,0,0,0-1.7761-22.2141c-1.5918-12.8684-3.9708-27.7512-5.9489-41.5759-1.9795-13.8135-3.55-26.6045-3.5461-35.0735a36.4581,36.4581,0,0,1,.4559-6.4248,10.1274,10.1274,0,0,1,.5363-1.9463,2.75,2.75,0,0,1,.5221-.886c9.4282-9.4282,9.4282-9.4282,18.8564-18.8569A169.3475,169.3475,0,0,0,269.93,92.417a100.7764,100.7764,0,0,0,9.2122-16.3757c2.422-5.6343,4.007-11.3281,4.012-16.7678a22.7866,22.7866,0,0,0-1.4065-8.1206A20.0182,20.0182,0,0,0,277.1162,44.0378Zm-1.6478,30.4216c-3.428,7.9695-8.8225,16.0991-14.056,22.8972a163.8175,163.8175,0,0,1-13.0518,15.0347c-9.4282,9.4287-9.4282,9.4287-18.856,18.8564a6.6154,6.6154,0,0,0-1.3945,2.196,16.8218,16.8218,0,0,0-1.0066,4.304,47.3428,47.3428,0,0,0-.285,5.5859,194.2879,194.2879,0,0,0,1.7761,22.2141c1.5918,12.8682,3.9708,27.7512,5.9489,41.5759,1.9795,13.8135,3.55,26.6042,3.5461,35.0735a36.4678,36.4678,0,0,1-.4558,6.4253,10.1226,10.1226,0,0,1-.5361,1.9465,2.754,2.754,0,0,1-.5222.8867c-7.6156,7.6155-21.3787,21.3787-26.39,26.39L166.68,197.7048a2,2,0,0,0-3.005-.6091l-52.4438,41.8369-.1669.1492a27.4437,27.4437,0,0,0-5.3412,7.1426,25.957,25.957,0,0,0-1.7448,4.6121,44.8681,44.8681,0,0,1-1.8513,5.9392,19.0922,19.0922,0,0,1-3.252,5.0007l-9.1422-9.1418L68.52,231.4216l-9.1449-9.1453a21.093,21.093,0,0,1,4.4862-3.0688,24.5345,24.5345,0,0,1,4.0052-1.5391,52.0061,52.0061,0,0,0,6.57-2.175,24.956,24.956,0,0,0,7.6364-5.4036l.1492-.167,41.8369-52.4434a2,2,0,0,0-.6093-3.0049L43.3081,110.9692c.3586-.3584.7568-.7568,1.2-1.1995,5.7452-5.7454,18.12-18.12,25.1906-25.1907a2.7538,2.7538,0,0,1,.8868-.5229A13.0668,13.0668,0,0,1,73.85,83.32a43.5017,43.5017,0,0,1,5.1066-.2563A190.8758,190.8758,0,0,1,100.68,84.81c12.7632,1.5784,27.6324,3.9543,41.5,5.9387,13.8784,1.9832,26.7188,3.5823,35.64,3.5864a40.1912,40.1912,0,0,0,7.1605-.5237,14.04,14.04,0,0,0,2.73-.7676,6.6183,6.6183,0,0,0,2.1967-1.3945l18.8563-18.8555A165.5109,165.5109,0,0,1,230.984,54.5327a96.8731,96.8731,0,0,1,15.71-8.8477c5.31-2.2905,10.5393-3.6909,15.186-3.686a18.7906,18.7906,0,0,1,6.7029,1.1475,16.0082,16.0082,0,0,1,5.7045,3.72l1.4143-1.4141-1.4142,1.4141a16.0062,16.0062,0,0,1,3.7192,5.7039,18.794,18.794,0,0,1,1.1471,6.7034C279.1593,63.92,277.7588,69.1492,275.4684,74.4595Z" class="fill"/>
  </g>
</svg>
