<svg xmlns="http://www.w3.org/2000/svg" viewBox="0 0 320 320">
  <title>_.support.mug-outline</title>
  <g id="console">
    <path d="M269.3177,95.5895a30.2665,30.2665,0,0,0-12.436-5.9241A68.207,68.207,0,0,0,242,88.02V60a2,2,0,0,0-2-2H80a2,2,0,0,0-2,2V217a49.9918,49.9918,0,0,0,5.218,20.533A36.6378,36.6378,0,0,0,95.78,251.7908c5.9673,3.9093,13.8967,6.4645,24.22,6.4591h80a52.49,52.49,0,0,0,20.8809-5.1107,36.9313,36.9313,0,0,0,14.5234-12.324c3.728-5.4777,6.252-12.6529,6.5621-21.85,6.8295-.1689,12.7442-1.2264,17.8013-3.6368a27.8691,27.8691,0,0,0,10.5681-8.7728c4.3253-5.856,7.2022-13.8749,9.04-24.6142,1.8339-10.7459,2.6229-24.253,2.6241-41.1914-.0013-10.0836-.626-18.3782-2.0748-25.22A42.7222,42.7222,0,0,0,275.14,102.475,26.2471,26.2471,0,0,0,269.3177,95.5895ZM238,217c-.0063,9.4766-2.3939,16.3905-5.9043,21.5674a31.7193,31.7193,0,0,1-9.4323,9.0053,44.8849,44.8849,0,0,1-15.3281,5.84,49.7443,49.7443,0,0,1-5.3448.7346c-.649.0521-1.1581.0778-1.4993.09-.1706.0063-.2991.0094-.3822.0109l-.09.0012-.0191,0H120c-9.6768-.0054-16.7474-2.3564-22.03-5.8065a31.6564,31.6564,0,0,1-9.1777-9.254,42.9641,42.9641,0,0,1-5.9409-15.0128,47,47,0,0,1-.7469-5.2327c-.0529-.6351-.0791-1.133-.0919-1.4662-.0065-.1666-.01-.2921-.011-.3728L82,217.0177V62H238V217Zm38.5976-97.5086A133.9287,133.9287,0,0,1,278,140.75c.0007,14.9438-.6248,27.1293-2.0116,36.947a80.7949,80.7949,0,0,1-4.428,18.2487,34.8039,34.8039,0,0,1-5.08,9.0626,23.9329,23.9329,0,0,1-10.7607,7.687A43.13,43.13,0,0,1,242,214.9706V92.0229a58.0135,58.0135,0,0,1,16.3025,2.1884,24.2336,24.2336,0,0,1,9.0891,4.9985,22.8674,22.8674,0,0,1,4.765,6.106A44.24,44.24,0,0,1,276.5976,119.4914Z" class="fill"/>
  </g>
</svg>
