<svg xmlns="http://www.w3.org/2000/svg" viewBox="0 0 320 320">
  <title>_.support.car-filled</title>
  <g id="console">
    <g>
      <path d="M99.55,234.9413a24.4246,24.4246,0,0,0,0-33.9647,23.1523,23.1523,0,0,0-33.288,0,24.4246,24.4246,0,0,0,0,33.9647,23.1523,23.1523,0,0,0,33.288,0Z" class="fill"/>
      <path d="M238.1333,242a23.1957,23.1957,0,0,0,16.6439-7.0586,24.4246,24.4246,0,0,0,0-33.9647,23.1528,23.1528,0,0,0-33.2883,0,24.4242,24.4242,0,0,0,0,33.9647A23.1961,23.1961,0,0,0,238.1333,242Z" class="fill"/>
      <path d="M307.75,172.8959a22.23,22.23,0,0,0-7.4233-3.5182,65.031,65.031,0,0,0-13.6542-2.1044c-4.6338-.2948-9.0953-.2937-12.5289-.2938a19.9225,19.9225,0,0,1-8.1464-1.93c-4.8917-2.1853-9.9963-6.1539-15.1478-10.9229-7.7407-7.1506-15.5865-16.0537-23.5481-23.2515a69.4142,69.4142,0,0,0-12.1263-9.0966A26.1411,26.1411,0,0,0,202.4292,118c-11.9528,0-41.8336,0-59.7617,0a28.0083,28.0083,0,0,0-10.2136,2.2007c-6.0834,2.4116-12.4164,6.5165-18.8923,11.2943-9.7021,7.1678-19.7153,15.8779-29.187,22.74a93.2863,93.2863,0,0,1-13.62,8.4714c-4.2955,2.0829-8.2764,3.2549-11.754,3.2491-10.7905.0006-19.3589,1.1656-26.1774,3.1327a44.2954,44.2954,0,0,0-12.556,5.6376,27.2329,27.2329,0,0,0-9.906,11.4126A27.53,27.53,0,0,0,8,197.5a30.1431,30.1431,0,0,0,1.2036,8.5609,17.5587,17.5587,0,0,0,1.6849,6.653,12.68,12.68,0,0,0,4.2177,4.9836,13.94,13.94,0,0,0,8.0379,2.2617H52.7793a2,2,0,0,0,1.9993-2.0533l-.0024-.0891a29.0218,29.0218,0,0,1,8.2193-20.3242,27.5012,27.5012,0,0,1,39.5717,0,29.0226,29.0226,0,0,1,8.2191,20.323l-.0024.09a2,2,0,0,0,1.9994,2.0533h95.376a2,2,0,0,0,1.9994-2.0458l-.0021-.0939a29.0213,29.0213,0,0,1,8.2194-20.327,27.5009,27.5009,0,0,1,39.5714,0,29.0222,29.0222,0,0,1,8.2194,20.323l-.0024.09a2,2,0,0,0,1.9994,2.0533h29.8843c1.4944,0,2.8318.0015,4.07-.0756a14.38,14.38,0,0,0,3.0713-.4755,7.4146,7.4146,0,0,0,2.413-1.167,6.9455,6.9455,0,0,0,1.6648-1.7917,12.9083,12.9083,0,0,0,1.6782-4.5612,70.7487,70.7487,0,0,0,.9269-11.3219C312,195.6077,312,189.3,312,181.2246a9.9423,9.9423,0,0,0-1.3186-5.0424A11.4277,11.4277,0,0,0,307.75,172.8959Z" class="fill"/>
    </g>
  </g>
</svg>
