<svg xmlns="http://www.w3.org/2000/svg" viewBox="0 0 320 320">
  <title>_.support.compass-variant</title>
  <g id="console">
    <g>
      <path d="M104.6263,257.3541A112,112,0,1,0,215.3735,62.6458l-.9888,1.7385.9888-1.7385A112,112,0,1,0,104.6263,257.3541Zm-38.5032-150.75A107.9469,107.9469,0,0,1,213.3959,66.1227h0A108.0314,108.0314,0,1,1,66.1232,106.6045Z" class="fill"/>
      <path d="M158.0714,160.53a2,2,0,0,0,2.4586,1.3984l27.2725-7.4966a2.0026,2.0026,0,0,0,1.3962-1.3909l22.168-79.4268a2,2,0,0,0-3.373-1.9186l-56.937,59.65a2.0019,2.0019,0,0,0-.4818,1.911Zm47.292-80.2857L185.6505,150.875l-24.2523,6.6664-6.6663-24.2527Z" class="fill"/>
      <path d="M160,28a2.013,2.013,0,0,0-1.4143.5858l-10,10A2,2,0,0,0,150,42h20a2,2,0,0,0,1.4142-3.4142l-10-10A2.0131,2.0131,0,0,0,160,28Z" class="fill"/>
    </g>
  </g>
</svg>
