<svg xmlns="http://www.w3.org/2000/svg" viewBox="0 0 320 320">
  <title>_.support.camera</title>
  <g id="console">
    <g>
      <path d="M48.3311,240.8965H271.6689a2,2,0,0,0,2-2V99.3105a2,2,0,0,0-2-2H162V81.1035a2,2,0,0,0-2-2H76.2485a2,2,0,0,0-2,2v16.207H48.3311a2,2,0,0,0-2,2V238.8965a2,2,0,0,0,2,2Zm2-139.5859H76.2485a2,2,0,0,0,2-2V83.1035H158v16.207a2,2,0,0,0,2,2H269.6689V236.8965H50.3311Z" class="fill"/>
      <path d="M192.57,120.7769a43.876,43.876,0,1,0,43.8754,43.876A43.8763,43.8763,0,0,0,192.57,120.7769Zm28.1963,72.0725a39.8764,39.8764,0,1,1,11.6792-28.1965A39.7415,39.7415,0,0,1,220.7666,192.8494Z" class="fill"/>
      <path d="M126.9712,118.8975h-38.62a2,2,0,0,0-2,2v18.8252a2,2,0,0,0,2,2h38.62a2,2,0,0,0,2-2V120.8975a2,2,0,0,0-2-2Zm-36.62,4h34.62v14.8252h-34.62Z" class="fill"/>
      <path d="M192.57,139.3887a25.2642,25.2642,0,1,0,25.2641,25.2642A25.265,25.265,0,0,0,192.57,139.3887Zm15.0359,40.3a21.264,21.264,0,1,1,6.2283-15.0361A21.1891,21.1891,0,0,1,207.6062,179.6889Z" class="fill"/>
    </g>
  </g>
</svg>
