<svg xmlns="http://www.w3.org/2000/svg" viewBox="0 0 320 320">
  <title>_.support.camera-outline</title>
  <g id="console">
    <g>
      <path d="M48.8423,240.5352H271.1577a2,2,0,0,0,2-2V99.5884a2,2,0,0,0-2-2H162V81.4648a2,2,0,0,0-2-2H76.6318a2,2,0,0,0-2,2V97.5884h-25.79a2,2,0,0,0-2,2V238.5352a2,2,0,0,0,2,2Zm2-138.9468h25.79a2,2,0,0,0,2-2V83.4648H158V99.5884a2,2,0,0,0,2,2H269.1577V236.5352H50.8423Z" class="fill"/>
      <path d="M192.4209,120.9473a43.6843,43.6843,0,1,0,43.6841,43.6846A43.6848,43.6848,0,0,0,192.4209,120.9473Zm28.061,71.7452a39.6847,39.6847,0,1,1,11.623-28.0607A39.5508,39.5508,0,0,1,220.4819,192.6925Z" class="fill"/>
      <path d="M127.1221,119.0767H88.6792a2,2,0,0,0-2,2v18.7388a2,2,0,0,0,2,2h38.4429a2,2,0,0,0,2-2V121.0767a2,2,0,0,0-2-2Zm-36.4429,4h34.4429v14.7388H90.6792Z" class="fill"/>
      <path d="M192.4209,130.21a34.4211,34.4211,0,1,0,34.4209,34.4214A34.4217,34.4217,0,0,0,192.4209,130.21Zm21.5109,55.9321a30.4212,30.4212,0,1,1,8.91-21.5107A30.3169,30.3169,0,0,1,213.9318,186.1425Z" class="fill"/>
    </g>
  </g>
</svg>
