<svg xmlns="http://www.w3.org/2000/svg" viewBox="0 0 320 320">
  <title>_.support.mug</title>
  <g id="console">
    <g>
      <path d="M234.06,98.1368A2,2,0,0,0,231.3335,100c0,25.2251,0,60.3959,0,86.6665a2,2,0,0,0,2.9758,1.7457,56.3291,56.3291,0,0,0,20.7587-19.8484A54.6084,54.6084,0,0,0,262.9521,140c.0078-11.0835-3.2519-20.0865-8.53-27.0142A46.4219,46.4219,0,0,0,234.06,98.1368Zm17.5892,68.35A51.961,51.961,0,0,1,235.3334,183.13V103.0193a41.38,41.38,0,0,1,15.905,12.3878c4.74,6.2443,7.7059,14.2822,7.7137,24.5929A50.5988,50.5988,0,0,1,251.65,166.4866Z" class="fill"/>
      <path d="M269.5471,101.6615a68.302,68.302,0,0,0-34.2137-24.3943V65a7.0008,7.0008,0,0,0-7-7H85a7.0009,7.0009,0,0,0-7,7V218.4126a55.3977,55.3977,0,0,0,5.1976,21.66,38.1457,38.1457,0,0,0,12.5381,15.0726c5.9675,4.1437,13.9214,6.861,24.2643,6.8542h73.3334a51.6916,51.6916,0,0,0,20.8945-5.2111,37.1063,37.1063,0,0,0,14.52-12.5544c3.9846-5.9676,6.5917-13.9049,6.5859-24.2344v-8.7889c10.06-5.2855,21.3948-14.58,30.4319-26.589C275.1181,172.1791,281.9949,156.7878,282,140A64.8669,64.8669,0,0,0,269.5471,101.6615Zm-6.9791,80.5569c-8.9646,11.9373-20.4554,21.1644-30.129,25.9927A1.9965,1.9965,0,0,0,231.3335,210c0,4.812,0,6.3613,0,10-.0059,9.67-2.3987,16.7331-5.9141,22.0156a32,32,0,0,1-9.437,9.1829,44.346,44.346,0,0,1-15.3206,5.9488,48.83,48.83,0,0,1-5.3409.7481c-.6484.053-1.157.0792-1.4976.0921-.17.0064-.2986.01-.3815.011l-.09.0013-.0187,0H120c-9.6572-.0068-16.7032-2.4879-21.9857-6.1418A32.7691,32.7691,0,0,1,88.82,242.033a47.354,47.354,0,0,1-5.9648-15.9718,52.8113,52.8113,0,0,1-.75-5.57c-.0533-.6765-.08-1.2076-.0925-1.5638-.0065-.1781-.01-.3126-.0112-.4L82,218.4335V65a3,3,0,0,1,3-3H228.3335a3,3,0,0,1,3,3V78.7124a2.0019,2.0019,0,0,0,1.4089,1.9106c14.6285,4.5287,25.9143,12.92,33.5751,23.3984A60.8648,60.8648,0,0,1,278,140C278.005,155.6663,271.5486,170.2748,262.5681,182.2184Z" class="fill"/>
    </g>
  </g>
</svg>
