<svg xmlns="http://www.w3.org/2000/svg" viewBox="0 0 320 320">
  <title>_.support.female-filled</title>
  <g id="console">
    <path d="M101.6328,112.71q-.1247.2258-.25.4548l-.0011.002a12.2685,12.2685,0,0,0-.7673,1.83c-.4543,1.3234-.9188,3.0487-1.4128,5.147-1.7212,7.3247-3.7677,19.1816-5.7479,31.7878-1.9784,12.6-3.8827,25.9238-5.2894,36.0747A17.2892,17.2892,0,0,0,88,190.3835a16.9658,16.9658,0,0,0,4.87,11.8972,16.6672,16.6672,0,0,0,11.9371,5.0131h2.3179a9.8629,9.8629,0,0,0,9.15-6.2521l-4.2063,38.2543a4.1638,4.1638,0,0,0,1.0192,3.2173,4.1211,4.1211,0,0,0,2.6489,1.3707l11.3278,1.2148.12.147,1.5483,43.4406a13.833,13.833,0,0,0,4.1676,9.4358A13.5913,13.5913,0,0,0,142.4106,302a13.74,13.74,0,0,0,13.6575-12.9144l2.921-45.4186h2.0215l2.9211,45.4185A13.74,13.74,0,0,0,177.5894,302a13.5912,13.5912,0,0,0,9.5093-3.8777,13.8331,13.8331,0,0,0,4.1676-9.4359l1.5483-43.44.12-.1471,11.327-1.2148a4.1192,4.1192,0,0,0,2.6493-1.3707,4.1647,4.1647,0,0,0,1.0443-2.7585,4.2987,4.2987,0,0,0-.024-.4518l-.0009-.007-4.2063-38.2545a9.8628,9.8628,0,0,0,9.1505,6.2523h2.3179a16.6674,16.6674,0,0,0,11.9369-5.0129A16.9665,16.9665,0,0,0,232,190.3837a17.307,17.307,0,0,0-.1644-2.3768c-1.7151-12.3751-4.1691-29.4633-6.5959-44.2106-1.2139-7.375-2.42-14.1626-3.5293-19.5035-.5549-2.6718-1.0848-4.98-1.5867-6.84-.2513-.9305-.4954-1.7487-.7384-2.4557a12.2685,12.2685,0,0,0-.7673-1.83l-.0011-.002q-.1249-.2291-.25-.4551A30.9248,30.9248,0,0,0,191.29,96.75H169.1147a39.3829,39.3829,0,0,0,18.833-10.6152,40.1834,40.1834,0,0,0,0-56.431,39.2276,39.2276,0,0,0-55.9019,0,40.1952,40.1952,0,0,0,0,56.43A39.3517,39.3517,0,0,0,150.8613,96.75H128.71A30.9253,30.9253,0,0,0,101.6328,112.71Z" class="fill"/>
  </g>
</svg>
