<svg xmlns="http://www.w3.org/2000/svg" viewBox="0 0 320 320">
  <title>_.support.male</title>
  <g id="console">
    <g>
      <path d="M126.6335,298.446a12.03,12.03,0,0,0,8.53,3.5538h9.3276a12.0394,12.0394,0,0,0,12.02-11.6429l2.479-73.0138a1.0766,1.0766,0,0,1,.32-.739.9736.9736,0,0,1,1.38,0,1.0765,1.0765,0,0,1,.32.7386l2.479,73.014A12.0394,12.0394,0,0,0,175.5093,302h9.3721a12.0412,12.0412,0,0,0,12.0277-12.0536V200.4314a12.8915,12.8915,0,0,0,11.3829,6.8624h4.7563A12.9983,12.9983,0,0,0,226,194.3135V141.124a58.1127,58.1127,0,0,0-6.9344-27.963q-.1256-.2291-.2539-.4583A31.1906,31.1906,0,0,0,191.5376,96.75H169.1838a39.8067,39.8067,0,1,0-18.3911,0h-22.33a31.1913,31.1913,0,0,0-27.2742,15.9526q-.1285.23-.2534.4579A58.1119,58.1119,0,0,0,94,141.124v53.2344a12.9223,12.9223,0,0,0,12.9077,12.9354h4.7578A12.9353,12.9353,0,0,0,123.0908,200.4v89.5011A12.0825,12.0825,0,0,0,126.6335,298.446Zm-2.452-240.5173a35.8671,35.8671,0,1,1,10.4927,25.3866A35.8712,35.8712,0,0,1,124.1815,57.9287ZM120.608,194.6781a8.9625,8.9625,0,0,1-8.9425,8.6158h-4.7578A8.9221,8.9221,0,0,1,98,194.3584V141.124a54.12,54.12,0,0,1,6.4415-26.0391q.12-.2184.2384-.4307l.0018-.0032A27.1914,27.1914,0,0,1,128.4624,100.75h63.0752a27.1913,27.1913,0,0,1,23.7806,13.9012l.0018.0032q.1185.212.2388.4312A54.12,54.12,0,0,1,222,141.124v53.1895a8.9986,8.9986,0,0,1-8.9517,8.98H208.292a8.9179,8.9179,0,0,1-8.8987-8.5728l-2.4858-61.6583a2,2,0,0,0-3.9983.0807V289.9463A8.0411,8.0411,0,0,1,184.8813,298h-9.3721a8.0383,8.0383,0,0,1-8.0222-7.7789l-2.479-73.0135a5.08,5.08,0,0,0-1.5138-3.4561,4.9742,4.9742,0,0,0-6.9886,0,5.0805,5.0805,0,0,0-1.5138,3.4564l-2.479,73.0133A8.0384,8.0384,0,0,1,144.4907,298h-9.3276a8.1152,8.1152,0,0,1-8.0724-8.0986V133.1436a2,2,0,0,0-3.9983-.0807Z" class="fill"/>
      <polygon points="218.811 112.701 218.812 112.703 218.813 112.704 218.811 112.701" class="fill"/>
      <polygon points="101.187 112.704 101.188 112.703 101.189 112.701 101.187 112.704" class="fill"/>
    </g>
  </g>
</svg>
