<svg xmlns="http://www.w3.org/2000/svg" viewBox="0 0 320 320">
  <title>_.support.hammer-filled</title>
  <g id="console">
    <g>
      <path d="M56.5471,277.5573a15.1683,15.1683,0,0,0,21.4512,0L183.2325,172.3234a2,2,0,0,0,0-2.8285L150.505,136.7673a2,2,0,0,0-2.8285,0L42.4426,242.0017a15.1683,15.1683,0,0,0,0,21.4512Z" class="fill"/>
      <path d="M268.7913,125.2954l-.0673.01a99.065,99.065,0,0,1-12.7644.9774,43.1807,43.1807,0,0,1-4.4917-.21,17.4375,17.4375,0,0,1-3.5627-.6975,12.1765,12.1765,0,0,1-3.9258-2.2965,23.4024,23.4024,0,0,1-4.2914-4.9629c-.5044-.7657-.8914-1.4333-1.1479-1.9017-.0687-.1254-.1265-.2335-.1764-.3284V94.5454a2.0135,2.0135,0,0,0-.5857-1.4143L194.1412,49.4949a1.9878,1.9878,0,0,0-.5345-.3819,122.98,122.98,0,0,0-14.0579-5.5571c-8.3636-2.7645-19.4381-5.5508-30.458-5.5559H94.5454a2,2,0,0,0-.5262,3.93s.1083.03.3295.0915c1.6578.4645,9.4126,2.6865,19.6,6.3778A242.3942,242.3942,0,0,1,148.12,63.5667c8.7693,4.87,14.5731,9.7985,18.15,14.69a24.3286,24.3286,0,0,1,5,14.799,35.3889,35.3889,0,0,1-2.2465,11.7336,96.9383,96.9383,0,0,1-7.3436,16.3658c-.9915,1.7075-1.81,2.934-2.3713,3.7223-.2806.3942-.4968.6788-.6382.8595-.0707.09-.1226.1544-.1544.1934l-.0326.0394-.0046.0056,0,0a2.0012,2.0012,0,0,0,.1072,2.7118l32.7271,32.7271a2,2,0,0,0,2.8285,0L214.615,140.94a37.9763,37.9763,0,0,1,3.9684,4.4755,28.5868,28.5868,0,0,1,3.4644,5.8732,17.5249,17.5249,0,0,1,1.5125,6.861,14.2325,14.2325,0,0,1-.0927,1.6219,76.3479,76.3479,0,0,0-.6193,8.3087,10.7178,10.7178,0,0,0,.2975,2.9663,2.9059,2.9059,0,0,0,.6084,1.135,2.3114,2.3114,0,0,0,.6263.4816l18.7506,18.7506a5.8571,5.8571,0,0,0,8.283,0l27.5724-27.5724A10.2876,10.2876,0,0,0,282,156.5669V141.6152a10.2893,10.2893,0,0,0-3.0134-7.2756l-8.4816-8.481A2.0009,2.0009,0,0,0,268.7913,125.2954Z" class="fill"/>
    </g>
  </g>
</svg>
