<svg xmlns="http://www.w3.org/2000/svg" viewBox="0 0 320 320">
  <title>_.support.shopping-bag</title>
  <g id="console">
    <g>
      <path d="M261.9886,269.7869,244.62,107.6814a2.0031,2.0031,0,0,0-1.9886-1.7869H77.3687a2.0031,2.0031,0,0,0-1.9886,1.7869L58.0114,269.7869A2,2,0,0,0,60,272H260a2,2,0,0,0,1.9886-2.213Z" class="fill"/>
      <path d="M118.9346,59.5458a16.1829,16.1829,0,0,1,5.78-4.2455c3.5005-1.5872,8.0909-2.4481,13.9351-2.8708,5.8413-.4273,12.9135-.43,21.35-.4294,9.9982-.0016,18.0828.0051,24.4683.7117a34.0343,34.0343,0,0,1,11.5793,2.9526,15.8213,15.8213,0,0,1,5.53,4.51c2.2535,2.9023,3.8864,7.0293,4.93,12.9286,1.0453,5.8907,1.4932,13.5044,1.4919,23.2128h4c-.0032-11.6523-.6189-20.4558-2.2427-27.243-1.2189-5.0836-3.03-9.0708-5.6566-12.1323a20.2072,20.2072,0,0,0-7.1686-5.2856c-4.1974-1.8905-9.2239-2.7683-15.2908-3.215-6.07-.4421-13.2029-.4393-21.6412-.44-10.0018.0016-18.1672-.0051-24.9067.7357a37.86,37.86,0,0,0-12.9421,3.357,19.8525,19.8525,0,0,0-6.8909,5.6315c-2.8078,3.6283-4.5955,8.4148-5.707,14.6812-1.11,6.2749-1.5518,14.0791-1.5532,23.9105h4c-.0032-11.5057.6312-20.0708,2.1323-26.31C115.2571,65.32,116.8448,61.98,118.9346,59.5458Z" class="fill"/>
    </g>
  </g>
</svg>
