<svg xmlns="http://www.w3.org/2000/svg" viewBox="0 0 320 320">
  <title>_.support.bell-outline</title>
  <g id="console">
    <g>
      <path d="M235.334,126.2991v-3.1434a92.8043,92.8043,0,0,0-9.3788-37.4741,66.248,66.248,0,0,0-22.4515-25.9165C192.8486,52.6729,178.6622,47.9942,160,48c-18.6622-.0058-32.8486,4.6729-43.5037,11.7652a64.2589,64.2589,0,0,0-18.46,18.9066,86.5681,86.5681,0,0,0-11.7018,29.9938,82.9266,82.9266,0,0,0-1.6689,14.49v36.5776a51.0229,51.0229,0,0,1-5.517,23.1082c-4.9715,9.928-12.4984,17.4579-18.7952,22.48a80.5658,80.5658,0,0,1-8.0164,5.6454c-1.0181.625-1.8369,1.0915-2.3954,1.399-.2793.1537-.4936.2676-.6352.3417l-.157.0814-.0359.0182-.0065.0033A2,2,0,0,0,50,216.6H270a2,2,0,0,0,.8927-3.79l-.0153-.0078a77.7028,77.7028,0,0,1-18.2164-13.7559A64.1382,64.1382,0,0,1,240.6964,182.53a50.9834,50.9834,0,0,1-5.3624-22.7971V126.2991Zm1.9411,58.3347c5.3408,10.647,13.2824,18.5482,19.876,23.8139,2.0542,1.639,3.9791,3.0223,5.6594,4.1523H57.1851a85.4633,85.4633,0,0,0,12.56-10.3007,68.5905,68.5905,0,0,0,12.9794-17.6656,55.039,55.039,0,0,0,5.9411-24.9V123.1558l0-.0372a89.0351,89.0351,0,0,1,9.3795-36.4793,61.8635,61.8635,0,0,1,21.1354-23.8526C129.0984,56.3336,142.2766,52.0052,160,52c18.0048.0058,31.3186,4.4716,41.2887,11.0959A60.2526,60.2526,0,0,1,218.601,80.8386,82.6154,82.6154,0,0,1,229.74,109.4355a90.7479,90.7479,0,0,1,1.3969,9.9506c.0994,1.2117.1487,2.1659.1732,2.8113.0122.3226.0182.5681.0212.73l.0026.1793,0,.0491v36.5776A55.0382,55.0382,0,0,0,237.2751,184.6339Z" class="fill"/>
      <path d="M113.2734,225.3818a46.7267,46.7267,0,0,0,93.4531,0c0-1.0287-.0449-2.0316-.1076-3.0128l-3.9918.2551c.0594.9289.0995,1.8459.0994,2.7577a42.7266,42.7266,0,0,1-85.4531,0c0-.9118.04-1.8288.0994-2.7578l-3.9918-.255h0C113.3184,223.35,113.2735,224.3531,113.2734,225.3818Z" class="fill"/>
    </g>
  </g>
</svg>
