<svg xmlns="http://www.w3.org/2000/svg" viewBox="0 0 320 320">
  <title>_.support.pencil</title>
  <g id="console">
    <g>
      <path d="M250.5027,65.0284a18.0283,18.0283,0,0,0,2.4863-8.8333,15.467,15.467,0,0,0-1.5136-6.6318,22.1347,22.1347,0,0,0-7.9351-8.7374l-.0307-.0178c-.001,0-.3254-.1846-.9227-.5239-4.18-2.3751-21.6675-12.33-33.6438-19.4065h0A18.7393,18.7393,0,0,0,199.376,18a15.0043,15.0043,0,0,0-6.3962,1.4373,18.9958,18.9958,0,0,0-6.1726,4.757,19.5022,19.5022,0,0,0-1.5806,2.0725c-.1835.28-.3262.517-.4379.7191-.0564.1028-.1041.1935-.1546.3022-.0068.015-.0161.04-.0233.0562l-15.2016,26.68.0013-.0022a9.5488,9.5488,0,0,0-.6613,1.51,10.8655,10.8655,0,0,0-.62,3.5439,8.81,8.81,0,0,0,1.0865,4.2911,10.6332,10.6332,0,0,0,4.0309,3.9667c3.4488,2.0378,13.8047,8.0333,24.171,14.0349,10.3609,5.9984,20.7322,12.0029,24.1406,14.0168l.0925.0514a11.1935,11.1935,0,0,0,5.1924,1.3809,8.9976,8.9976,0,0,0,3.7032-.7937,10.5642,10.5642,0,0,0,3.4755-2.5726,9.9187,9.9187,0,0,0,1.1991-1.6012l-.0075.0129C235.2161,91.858,243.0113,78.45,250.5027,65.0284Zm-17.416,22.5254c-.8464,1.4642-1.3306,2.297-1.3318,2.2993l-.0007.0012h0a5.2125,5.2125,0,0,1-.3522.5007,7.2477,7.2477,0,0,1-1.7211,1.5974,5.1224,5.1224,0,0,1-2.8382.8657,7.2,7.2,0,0,1-3.3194-.9169c-3.51-2.0725-13.7976-8.0283-24.1019-13.9941-10.3609-5.9984-20.7321-12.0029-24.14-14.0168a6.6437,6.6437,0,0,1-2.5635-2.4553,4.7972,4.7972,0,0,1-.5888-2.3588,7.1784,7.1784,0,0,1,.6685-2.8955l.0778-.1575.0139-.0262L188.1572,29.2a1.9728,1.9728,0,0,0,.0952-.2322l.01.0046.0025-.005c.0236-.0475.133-.2422.2966-.4915a16.5578,16.5578,0,0,1,3.7328-3.9714A11.6546,11.6546,0,0,1,199.376,22a14.75,14.75,0,0,1,7.5322,2.3214L207.9258,22.6l-1.0174,1.7218c13.5682,8.017,34.0847,19.6578,34.6034,19.9523a18.7706,18.7706,0,0,1,3.853,3.3,15.4763,15.4763,0,0,1,2.5243,3.7634,11.44,11.44,0,0,1,1.1,4.8584A14.0271,14.0271,0,0,1,247.01,63.079c-3.7345,6.6909-7.5493,13.3865-10.43,18.4077C235.14,83.9974,233.9332,86.09,233.0867,87.5538Z" class="fill"/>
      <path d="M70.0941,301.7311a2.0024,2.0024,0,0,0,1.8883.0615c.0209-.0106,14.5381-7.19,30.0668-16.0691,7.7662-4.4412,15.7831-9.3038,22.3961-13.9337a98.3942,98.3942,0,0,0,8.68-6.7146,27.3439,27.3439,0,0,0,5.4357-6.1l.001.0006c.2777-.4491.8267-1.3762,1.6449-2.7726,12.2215-20.8612,83.1648-144.3954,83.1677-144.4l.0022-.0039a9.56,9.56,0,0,0,.6611-1.51,10.8645,10.8645,0,0,0,.62-3.5436,8.81,8.81,0,0,0-1.0866-4.2913,10.6362,10.6362,0,0,0-4.0311-3.9669c-3.4489-2.0378-13.8048-8.0331-24.171-14.0345-10.3608-5.9983-20.7321-12.0028-24.14-14.0171l-1.0176,1.7218,1.0176-1.7218a10.5571,10.5571,0,0,0-5.3931-1.6016,8.821,8.821,0,0,0-3.59.7678,10.8171,10.8171,0,0,0-3.4281,2.4668,10.2541,10.2541,0,0,0-1.2158,1.53l-.032.0537c-.0019.0032-81.0348,140.5635-84.7822,147.1218l-.01.0175a26.7682,26.7682,0,0,0-2.4346,7.4187A119.1478,119.1478,0,0,0,68.4882,244.46C68.1317,250.5981,68,257.2517,68,263.7571c0,18.7885,1.0983,36.3438,1.0995,36.3676A2.0021,2.0021,0,0,0,70.0941,301.7311Zm2.8135-62.8544a91.4805,91.4805,0,0,1,1.3543-9.8625,23.2319,23.2319,0,0,1,2.0079-6.2708c1.907-3.3369,23.0782-40.0752,43.779-75.99,10.3635-17.98,20.61-35.7561,28.266-49.0367,3.8278-6.64,7.008-12.157,9.2313-16.0134,1.1116-1.9283,1.9839-3.4415,2.5784-4.4727.5294-.9185.8233-1.4283.8851-1.5354a7.5885,7.5885,0,0,1,1.4673-1.5753,6.196,6.196,0,0,1,1.5-.9086,4.79,4.79,0,0,1,1.8593-.3774,6.5638,6.5638,0,0,1,3.3578,1.0452h0c3.449,2.0385,13.8049,8.0339,24.1711,14.0354,10.3608,5.9983,20.732,12.0026,24.14,14.0165a6.6461,6.6461,0,0,1,2.5639,2.4557,4.7972,4.7972,0,0,1,.5888,2.3588,7.1751,7.1751,0,0,1-.6684,2.8951l-.0778.1576-.0125.0234-.9013,1.5693c-4.4417,7.7335-24.46,42.583-43.8417,76.2656-9.691,16.8412-19.223,33.3907-26.569,46.1124-3.673,6.3607-6.7995,11.7646-9.1254,15.7683-1.1629,2.0016-2.1257,3.6534-2.8557,4.8981-.728,1.2416-1.2316,2.0894-1.4456,2.4349l-.0284.0475a23.6562,23.6562,0,0,1-4.6609,5.1647,132.7458,132.7458,0,0,1-16.1123,11.6014c-9.6129,6.0945-20.6644,12.2349-29.3,16.8423-4.3185,2.3042-8.0344,4.2262-10.6688,5.5713-.5409.2761-1.0236.5214-1.4691.7472C72.6136,291.0525,72,277.7261,72,263.7571,72,255.1571,72.2338,246.3129,72.9076,238.8767Z" class="fill"/>
    </g>
  </g>
</svg>
