<svg xmlns="http://www.w3.org/2000/svg" viewBox="0 0 320 320">
  <title>_.support.infinity-bold</title>
  <g id="console">
    <g>
      <polygon points="291.938 157.243 291.938 157.247 291.938 157.251 291.938 157.243" class="fill"/>
      <path d="M291.9377,157.2471a70.7953,70.7953,0,0,0-22.62-49.1361A74.9622,74.9622,0,0,0,217.976,88l-.038,0h0l-.0179,0h-.0217c-14.652.0032-26.5282,3.0311-36.0857,7.9484-14.36,7.3822-23.4034,18.97-29.0446,30.5662a99.7843,99.7843,0,0,0-8.9048,31.0424,68.8831,68.8831,0,0,1-4.7318,18.68c-3.4127,7.9861-8.3167,13.9341-14.75,18.0256-6.4209,4.0762-14.4343,6.3162-24.14,6.6123a42.6816,42.6816,0,0,1-28.7288-12.5967,40.1472,40.1472,0,0,1-11.7187-28.2661q0-.8416.0355-1.6887a40.2864,40.2864,0,0,1,11.173-26.1116l1.9363-1.9A43.3047,43.3047,0,0,1,130.93,130.04l.6981.6563a2.001,2.001,0,0,0,2.7283.0107l20.1709-18.6639a2,2,0,0,0,.0345-2.9032l-1.106-1.0732c-.2981-.2891-.6135-.5966-.96-.9091l-.004-.0037a75.8308,75.8308,0,0,0-101.3347.5485l0,0-.7407.665-.0035.0032a12.945,12.945,0,0,0-.9279.9358l-.0022-.0022-1.6587,1.6416-.0392.04a70.5347,70.5347,0,0,0,3.9539,101.7627,75.0636,75.0636,0,0,0,40.9252,18.5925l.0645.0071,6.4141.59.0538.0042c.0389.0027.9108.0579,2.4624.0579h.0062a79.0661,79.0661,0,0,0,10.42-.7229v0l.6191-.0752.0375-.0049c8.4111-1.188,22.5394-4.572,35.4381-14.3713A65.5545,65.5545,0,0,0,165.6245,196.82c4.8694-8.5771,8.4927-19.2207,10.0229-32.3647a133.1291,133.1291,0,0,1,6.7258-24.22,31.7008,31.7008,0,0,1,9.3408-12.95c5.4474-4.4869,13.64-8.2607,26.2732-8.3038h-.0055a42.7718,42.7718,0,0,1,29.8767,12.0139,40.1711,40.1711,0,0,1,12.3439,28.917h0l0,.0127h-.0006a40.2471,40.2471,0,0,1-11.296,27.8508l-.0271.0288c-.2549.2766-.5114.5344-.7167.7241l-.0038.0037-2.3331,2.17a43.3738,43.3738,0,0,1-55.63.1353l-1.16-.9756a1.9993,1.9993,0,0,0-2.6445.0618L167.2936,207.57a1.9973,1.9973,0,0,0-.2865.33l-.8623,1.2441a2.0021,2.0021,0,0,0,.3108,2.63l1.1045.9873a75.833,75.833,0,0,0,101.327-.5427l.0409-.0386,3.3174-3.22.0525-.053A70.4743,70.4743,0,0,0,292,160.19Q292,158.72,291.9377,157.2471Z" class="fill"/>
      <polygon points="167.561 212.762 167.56 212.761 167.558 212.76 167.561 212.762" class="fill"/>
    </g>
  </g>
</svg>
