<svg xmlns="http://www.w3.org/2000/svg" viewBox="0 0 320 320">
  <title>_.support.drop</title>
  <g id="console">
    <path d="M220.1265,260.5814C234.3,247.1454,242.0089,228.3007,242,206.9565c.0037-21.0973-3.6774-38.2526-10.62-53.4625-6.94-15.2126-17.1016-28.4419-29.9363-41.8345-14.7712-15.4087-24.676-33.4725-30.86-47.6757a186.8189,186.8189,0,0,1-6.6472-17.5816c-.6944-2.1738-1.1948-3.9012-1.52-5.08-.1628-.5894-.2818-1.0416-.3595-1.3439-.0389-.1512-.0674-.2648-.0859-.3394l-.0258-.1049a2,2,0,0,0-3.7486-.3983s-.0763.1593-.2267.4707c-2.2513,4.6647-20.9965,43.16-39.655,72.36-7.7734,12.1755-17.8256,25.2792-25.9659,40.6545C84.21,167.9932,77.9962,185.6917,78,206.9565c-.0089,21.3441,7.7,40.1887,21.8735,53.6249C114.0411,274.0258,134.59,282.0061,160,282,185.41,282.0061,205.9589,274.0258,220.1265,260.5814ZM82,206.9565c.0038-20.4746,5.9456-37.454,13.8842-52.4645,7.9373-15.0071,17.8851-27.99,25.8011-40.3718,10.0525-15.7352,20.0706-34.0327,27.5871-48.4111C153.741,57.1606,157.3231,50,159.4948,45.5954a187.62,187.62,0,0,0,7.4216,19.9859c6.3157,14.4926,16.4108,32.95,31.64,48.8459,12.66,13.2109,22.4983,26.0686,29.185,40.7268,6.684,14.6609,10.2552,31.16,10.259,51.8025-.0089,20.395-7.3,38.072-20.6265,50.7229C204.0411,270.322,184.59,277.9937,160,278c-24.59-.0063-44.0411-7.678-57.3735-20.3206C89.3,245.0286,82.0089,227.3516,82,206.9565Z" class="fill"/>
  </g>
</svg>
