<svg xmlns="http://www.w3.org/2000/svg" viewBox="0 0 320 320">
  <title>_.support.earth-outline</title>
  <g id="console">
    <g>
      <polygon points="194.95 88.688 194.949 88.687 194.949 88.687 194.95 88.688" class="fill"/>
      <polygon points="176.768 88.688 176.767 88.687 176.767 88.687 176.768 88.688" class="fill"/>
      <path d="M150.1438,98.2115a2,2,0,0,0,2.18-.4337q4.2081-4.209,8.4174-8.4174A5.3612,5.3612,0,0,0,162.1,86.7333a12.2263,12.2263,0,0,0,.2673-2.739c-.0006-1.158-.0995-2.31-.1918-3.3361-.0939-1.02-.1779-1.9326-.1757-2.4766a2,2,0,0,0-3.4142-1.4142q-4.5454,4.5454-9.0909,9.0914a2.0128,2.0128,0,0,0-.5856,1.4141q0,4.5454,0,9.0908A2,2,0,0,0,150.1438,98.2115Zm8.06-12.3846a1.5731,1.5731,0,0,1-.2916.7052l-5.0033,5.0032v-3.434q2.7054-2.7057,5.4108-5.411c.0269.4473.0479.89.0476,1.3039A8.408,8.408,0,0,1,158.204,85.8269Z" class="fill"/>
      <polygon points="69.568 133.179 69.568 133.179 69.568 133.179 69.568 133.179" class="fill"/>
      <path d="M160,262A102,102,0,0,0,262,160c0-1.4629-.0382-2.9167-.0992-4.3647.0571-.7177.0925-1.444.0931-2.1793a21.0314,21.0314,0,0,0-.2875-3.546c-.1229-.7175-.2738-1.4237-.4374-2.1248A102.0014,102.0014,0,1,0,160,262Zm18.5227-8.6922c-3.0154.7564-6.2944,1.9526-9.5275,2.9408A32.4918,32.4918,0,0,1,160,258a29.526,29.526,0,0,1-8.1636-1.592c-2.9471-.9006-5.9423-1.9935-8.7069-2.6872l-12.3453-3.0862,12.6984-4.2328c1.7817-.5944,3.1543-1.0436,4.2432-1.3293a10.0783,10.0783,0,0,1,2.564-.4073,7.2857,7.2857,0,0,1,2.6981.5828c1.1284.4278,2.594,1.1414,4.6089,2.15,2.99,1.4919,5.4258,2.8458,8.075,3.865a24.1609,24.1609,0,0,0,9.0261,1.646h5.4192Zm43.4049-84.5325c.1418,1.6267.2772,3.3174.2766,4.8469a16.83,16.83,0,0,1-.1648,2.53,6.0823,6.0823,0,0,1-.5037,1.7592q-12.897,25.7932-25.7931,51.5861c-.1262-.1058-.2432-.2083-.3718-.3154-1.3171-1.0936-2.7509-2.2516-3.9242-3.3751a16.4608,16.4608,0,0,1-1.5055-1.6154,5.5689,5.5689,0,0,1-.8138-1.3037,4.5481,4.5481,0,0,1-.2719-1.7181,21.5448,21.5448,0,0,1,.1694-2.2555,25.0613,25.0613,0,0,0,.1927-2.7112,8.5666,8.5666,0,0,0-.83-3.8981c-2.29-4.5781-4.295-8.7141-6.6708-12.6635a57.9265,57.9265,0,0,0-8.8552-11.4257,12.6489,12.6489,0,0,1-.9746-1.19,105.5139,105.5139,0,0,1-6.231-9.7776c-1.0563-1.861-2.007-3.67-2.672-5.1347a19.5794,19.5794,0,0,1-.7555-1.8713c-.0543-.1638-.0935-.3016-.1256-.4251q7.994-7.9942,15.9884-15.9885c.15.18.3025.3656.4611.56,1.0918,1.3327,2.3839,2.9528,3.7258,4.3613a18.6978,18.6978,0,0,0,2.0809,1.9157,6.8449,6.8449,0,0,0,2.4207,1.2739,5.6108,5.6108,0,0,0,1.3824.1588,12.5774,12.5774,0,0,0,2.9314-.4221c1.4811-.366,3.0085-.8985,4.3739-1.384,1.3529-.4844,2.5781-.9268,3.218-1.0827.29-.0731.965-.2166,1.85-.3961,3.1226-.6353,9.0226-1.776,14.18-3.0417a67.3023,67.3023,0,0,0,6.8237-1.9767,13.6039,13.6039,0,0,0,2.4-1.1055,4.4747,4.4747,0,0,0,.9976-.8125,2.8912,2.8912,0,0,0,.4612-.6933,2.4913,2.4913,0,0,0,.2379-1.0546v-16.62a2.8109,2.8109,0,0,0-1.3871-2.459,3.8314,3.8314,0,0,0-1.3319-.4734,7.0792,7.0792,0,0,0-1.2057-.0922,26.28,26.28,0,0,0-3.059.2617,23.3431,23.3431,0,0,1-2.5736.2315,3.11,3.11,0,0,1-.4857-.03L197.778,113.1312a2,2,0,0,0-3.4142,1.4142c.0034,1.6508.2407,3.7519.4667,6.0313.2279,2.2687.4479,4.6877.4469,6.7609a18.3494,18.3494,0,0,1-.176,2.7521,5.4259,5.4259,0,0,1-.4561,1.6029,4.7,4.7,0,0,1-.9089.584,30.1762,30.1762,0,0,1-3.0632,1.3276c-.5415.2093-1.0647.4064-1.5332.59-.472.1859-.8762.3484-1.2524.535q-4.654,2.3274-9.307,4.6535c-.07-.043-.1459-.092-.2258-.1471a21.0518,21.0518,0,0,1-2.1727-1.7631,39.2773,39.2773,0,0,1-3.522-3.6343,14.5633,14.5633,0,0,1-1.1121-1.476c-.0085-.0134-.0127-.0221-.0208-.0351q4.2217-8.4434,8.4434-16.8873a1.9947,1.9947,0,0,0-.3746-2.3086l-7.6766-7.6766q3.5021-3.5017,7.0033-7.0032a1.6115,1.6115,0,0,1,.7095-.286,8.7243,8.7243,0,0,1,1.8694-.1639c.9366-.0005,1.988.0832,2.9868.1732,1.0057.0885,1.9381.1866,2.7848.1892.5079-.0026,1.411.0805,2.4271.1732,1.0232.0912,2.18.1886,3.3438.1891a12.5378,12.5378,0,0,0,2.761-.2646,5.3576,5.3576,0,0,0,2.6464-1.3568q4.2085-4.2093,8.4176-8.4176a2,2,0,0,0-1.4142-3.4142c-.3916.0014-.806.0337-1.3164.0757-1.4988.1283-3.7369.366-5.326.3637-.3273.0008-.6184-.0115-.8571-.03-.0194-.24-.0311-.5287-.031-.8581-.0009-1.0525.103-2.4144.212-3.6328.0542-.6111.1093-1.1888.1519-1.6934.042-.51.0743-.9246.0757-1.3161a2,2,0,0,0-3.4142-1.4142l-8.2955,8.2955a5.2913,5.2913,0,0,1-.8041.2347,23.6,23.6,0,0,1-4.6583.4653,13.1082,13.1082,0,0,1-1.3729-.0632c-.0026-.0269-.0057-.05-.0079-.078-.0339-.3907-.0527-.8873-.0526-1.4254a27.1369,27.1369,0,0,1,.2578-3.7322,9.7967,9.7967,0,0,1,.2107-1.0688q5.46-2.73,10.9208-5.4606c.4884-.2459.9481-.5346,1.4321-.8373.7185-.4526,1.4769-.935,2.151-1.274a3.7894,3.7894,0,0,1,1.4-.4833h.0012q5.3247,3.55,10.65,7.1c2.7637,1.8411,5.7814,3.54,8.6381,5.3278a43.1242,43.1242,0,0,1,7.65,5.7662c2.8163,2.814,6.0992,5.5578,9.1755,8.3731a49.9377,49.9377,0,0,1,7.9092,8.6566,40.7239,40.7239,0,0,1,4.1254,9.066c1.177,3.3839,2.2227,6.9154,3.4775,10.0576,1.74,4.3458,3.9059,8.4612,5.7927,12.5518a55.5886,55.5886,0,0,1,3.7733,10.2463q.408,3.4865.5709,7.0442a54.78,54.78,0,0,1-.9015,5.7438c-.3,1.5435-.6025,3.0762-.8137,4.6-1.2247-.709-2.3674-1.4246-3.5256-2.1595a70.11,70.11,0,0,0-6.5115-3.788,17.5279,17.5279,0,0,0-4.8914-1.63,26.49,26.49,0,0,0-4.6445-.3311c-1.2439,0-2.5117.0355-3.8789.0353-1.1349,0-2.17-.0807-3.1322-.1667-.9642-.0847-1.85-.1807-2.7363-.1826a6.5381,6.5381,0,0,0-2.0321.2772,4.1341,4.1341,0,0,0-1.5243.8771,4.2255,4.2255,0,0,0-.8475,1.0885,6.2415,6.2415,0,0,0-.647,1.9633,14.0428,14.0428,0,0,0-.1714,2.36C221.6379,165.5871,221.7872,167.1436,221.9276,168.7752ZM209.0313,75.1318q2.5913,1.5,5.0785,3.1552C212.3348,77.22,210.6055,76.1808,209.0313,75.1318Zm-15.3782-7.2011a18.5619,18.5619,0,0,0-2.4552,1.3117c-.7833.4891-1.4847.942-1.84,1.1149q-5.7235,2.8621-11.4476,5.7241a2.3981,2.3981,0,0,0-.7156.5516,3.23,3.23,0,0,0-.5543.9,7.6825,7.6825,0,0,0-.4246,1.4472,28.3332,28.3332,0,0,0-.458,5.2163,18.4067,18.4067,0,0,0,.1184,2.2512,6.59,6.59,0,0,0,.1953.9932,3.51,3.51,0,0,0,.2053.5452,2.5259,2.5259,0,0,0,.49.7012,2.9767,2.9767,0,0,0,1.1855.7023,7.0838,7.0838,0,0,0,1.5376.299c.5322.0525,1.1024.0743,1.701.0746a29.1993,29.1993,0,0,0,4.4232-.35,14.7913,14.7913,0,0,0,1.943-.43,6.37,6.37,0,0,0,.87-.3312,3.3116,3.3116,0,0,0,.9319-.6373l4.604-4.6039c-.0238.481-.0393.9583-.04,1.4142a11.9232,11.9232,0,0,0,.1217,1.86,4.9378,4.9378,0,0,0,.2339.9252,2.7887,2.7887,0,0,0,1.7476,1.7476,5.6672,5.6672,0,0,0,1.3762.2929,13.907,13.907,0,0,0,1.4086.0627c.4586,0,.9364-.0184,1.4167-.0422q-2.3033,2.303-4.6062,4.6062a1.6141,1.6141,0,0,1-.71.2859,8.7246,8.7246,0,0,1-1.8693.1639c-.9366.0006-1.988-.0832-2.9867-.1732-1.0056-.0884-1.9377-.1866-2.7842-.1891-.5084.0025-1.4116-.0805-2.4277-.1732-1.0233-.0912-2.18-.1887-3.3439-.1892a12.5393,12.5393,0,0,0-2.7612.2646,5.3564,5.3564,0,0,0-2.6464,1.3572q-4.2081,4.2083-8.4171,8.4171a2,2,0,0,0,0,2.8286l8.0715,8.0715q-4.0671,8.1346-8.1342,16.2687l.0009-.0016a2.3743,2.3743,0,0,0-.2474,1.0677,3.0732,3.0732,0,0,0,.2126,1.0866,7.1049,7.1049,0,0,0,.786,1.4418,24.8422,24.8422,0,0,0,2.115,2.6185,43.1457,43.1457,0,0,0,4.0242,3.8958,18.25,18.25,0,0,0,1.9093,1.4275,6.8692,6.8692,0,0,0,.939.5057,3.2205,3.2205,0,0,0,1.28.2905,2.38,2.38,0,0,0,1.06-.2435l.0059-.0029q4.9885-2.4939,9.9768-4.9884c.0992-.05.31-.143.5723-.249.9353-.38,2.5068-.9371,3.9719-1.581a17.2089,17.2089,0,0,0,2.1046-1.075,7.1045,7.1045,0,0,0,.9382-.6829,3.8688,3.8688,0,0,0,.8492-1.0215,9.0387,9.0387,0,0,0,.9412-2.9925,22.1881,22.1881,0,0,0,.2235-3.3673c-.001-2.3432-.2378-4.864-.4667-7.1592l-.04-.3979,14.1821,14.1821a3.3555,3.3555,0,0,0,1.6511.8688,6.6038,6.6038,0,0,0,1.4753.1454,26.2728,26.2728,0,0,0,3.0643-.2617,24.48,24.48,0,0,1,2.493-.2289q0,7.4562,0,14.912c-.0437.0239-.0754.0441-.1263.07a16.2208,16.2208,0,0,1-2.03.812,123.17,123.17,0,0,1-12.3218,3.0988c-2.1864.4626-4.2456.8753-5.901,1.2078-.828.1663-1.5548.3124-2.15.4357-.5984.1241-1.0538.2218-1.3912.3058-.69.1739-1.4459.4341-2.2883.7308-1.2556.4445-2.68.9715-4.0106,1.3765-.6639.2025-1.3029.3737-1.8673.4893a7.2262,7.2262,0,0,1-1.3871.1727,1.7257,1.7257,0,0,1-.3967-.0355,2.0772,2.0772,0,0,1-.5316-.261,10.8458,10.8458,0,0,1-1.7715-1.5141c-1.0073-1.0189-2.097-2.3287-3.1058-3.5646-.5056-.6187-.9928-1.22-1.452-1.7669-.4608-.5479-.8884-1.0386-1.3093-1.46a2,2,0,0,0-2.8282,0l-18.0022,18.0022a2.48,2.48,0,0,0-.6222,1.0619,3.08,3.08,0,0,0-.1184.8715,5.2339,5.2339,0,0,0,.1558,1.1918,15.0738,15.0738,0,0,0,.7886,2.2907,85.11,85.11,0,0,0,5.5894,10.3233c1.0852,1.7572,2.1587,3.4039,3.0959,4.7517.4691.6744.9037,1.2737,1.2958,1.7824a13.6335,13.6335,0,0,0,1.0837,1.2733,53.8831,53.8831,0,0,1,8.2562,10.66c2.2506,3.7379,4.2183,7.7838,6.52,12.39a4.6128,4.6128,0,0,1,.4076,2.1094,21.67,21.67,0,0,1-.1694,2.28,24.9093,24.9093,0,0,0-.1927,2.6869,8.4869,8.4869,0,0,0,.5631,3.2168,10.5987,10.5987,0,0,0,1.9745,2.9855,38.6265,38.6265,0,0,0,4.0781,3.7742c1.3846,1.1488,2.6946,2.2078,3.4781,2.9955a2,2,0,0,0,3.2031-.52q13.48-26.96,26.9609-53.9219a9.9755,9.9755,0,0,0,.8789-2.9361,20.713,20.713,0,0,0,.2117-3.1414c-.0006-1.7571-.1492-3.5488-.2914-5.1929-.1437-1.6393-.2783-3.1421-.2766-4.2124a9.1034,9.1034,0,0,1,.1534-1.8862,1.8446,1.8446,0,0,1,.1807-.5285l.0287-.0422.0009-.0019a.574.574,0,0,1,.178-.0557,3.5192,3.5192,0,0,1,.6808-.0518c.57-.0019,1.389.0768,2.38.1668.9933.0886,2.1643.1826,3.4882.1826,1.4347,0,2.7135-.0355,3.8789-.0353a22.6285,22.6285,0,0,1,3.953.2708,13.4951,13.4951,0,0,1,3.7941,1.2681,66.2911,66.2911,0,0,1,6.1576,3.588,70.137,70.137,0,0,0,6.5115,3.788,1.9888,1.9888,0,0,0,.3593.1255,98.1239,98.1239,0,0,1-59.1321,79.2492,2.0017,2.0017,0,0,0-1.8855-1.3453h-21.666a20.0931,20.0931,0,0,1-7.594-1.3808c-2.2853-.873-4.6456-2.1689-7.7183-3.7079-2.03-1.0137-3.5642-1.7722-4.9749-2.3109a11.2836,11.2836,0,0,0-4.121-.8445,13.967,13.967,0,0,0-3.5812.5388c-1.2761.3362-2.7.8066-4.491,1.4031q-9.6064,3.2022-19.2137,6.4048a1.9927,1.9927,0,0,0-1.245,1.2462A98.2929,98.2929,0,0,1,69.3137,197.2c.3579.434.7268.8563,1.12,1.2516,4.8088,4.8089,8.6919,8.9,12.3341,14.3626q6.9763,10.4635,13.9521,20.9279a5.4094,5.4094,0,0,0,1.0831,1.1636,12.3447,12.3447,0,0,0,2.2888,1.4228c1.2317.6154,2.5741,1.1423,3.7739,1.6057.5989.2308,1.1606.4445,1.6423.6367s.885.3647,1.136.4908q4.5452,2.2733,9.09,4.5457a2,2,0,0,0,2.8947-1.7887c-.0012-1.5873.1129-3.2249.1143-4.9255a15.924,15.924,0,0,0-1.4728-7.3546l-1.7888.8943,1.7888-.8945q-3.635-7.27-7.27-14.5405a1.616,1.616,0,0,1-.114-.6988,8.4889,8.4889,0,0,1,.4739-2.4249,42.0813,42.0813,0,0,1,2.9045-6.4591c1.9187-3.6256,4.3152-7.5992,6.2594-11.1815a54.9525,54.9525,0,0,0,2.475-5.043,18.7217,18.7217,0,0,0,.7805-2.2382,8.3,8.3,0,0,0,.3209-2.1367v-16.3a2.0024,2.0024,0,0,0-.24-.9593,2.2854,2.2854,0,0,0-.366-.5075,5.1906,5.1906,0,0,0-.4548-.4222c-.29-.2437-.6516-.5234-1.0907-.8541-1.5256-1.1475-3.9658-2.8759-6.0289-4.3732-1.0287-.7465-1.9631-1.4355-2.6117-1.9408-.2529-.1966-.4436-.3531-.5847-.4736l-.0039-.0057a1.9827,1.9827,0,0,0-.19-.26c-.0138-.0165-.0237-.0356-.0381-.0517a2.0034,2.0034,0,0,0-.6232-.4691c-.04-.0193-.0829-.03-.1239-.0464a1.2107,1.2107,0,0,0-.4351-.1192c-.063-.01-.1243-.0252-.1887-.0291a2.04,2.04,0,0,0-.2649.01c-.0437.0032-.0862-.0012-.13.0049l-.006.0012h-.0031l-.0189.0042a2.1194,2.1194,0,0,0-.2374.0518,4.7678,4.7678,0,0,0-2.0294.9567,9.9261,9.9261,0,0,0-2.3024,2.9971,29.3825,29.3825,0,0,1-2.5779,4.3518,4.9423,4.9423,0,0,1-1.4425,1.246,3.8438,3.8438,0,0,1-1.8892.446,10.1391,10.1391,0,0,1-4.0989-1.0959c-.0037-.0087-.0061-.02-.01-.029a5.5863,5.5863,0,0,0-.9514-1.4237,20.8506,20.8506,0,0,0-2.2789-2.1362c-1.2742-1.06-2.69-2.1249-3.7522-2.9773-.2935-.2348-.5554-.4518-.7769-.6425,2.2928-4.585,5.683-11.3657,7.7708-15.5411A4.9825,4.9825,0,0,0,95.6937,142a3.9258,3.9258,0,0,0-.2932-1.496,4.7228,4.7228,0,0,0-1.6-1.97,13.7918,13.7918,0,0,0-3.6683-1.748c-.9745-.3386-1.9723-.6487-2.9069-.9742a13.108,13.108,0,0,1-3.3839-1.58,2.68,2.68,0,0,1-.7283-.7566,1.3953,1.3953,0,0,1-.1953-.7484,2,2,0,0,0-2-2c-.427.0034-1.3151-.0834-2.314-.1809-1.0087-.0958-2.1584-.1984-3.3049-.1991a10.1317,10.1317,0,0,0-3.0795.3955,4.6341,4.6341,0,0,0-1.5178.8037,3.5628,3.5628,0,0,0-1.1335,1.6327q-2.2286,6.6855-4.4568,13.37c-.028.084-.1349.3969-.2889.8558-.542,1.6155-1.7073,5.158-2.7471,8.9249a97.71,97.71,0,0,1,5.13-27.9229,2.6472,2.6472,0,0,0,1.1282.26,10.6847,10.6847,0,0,0,3.2074-.6193,51.4314,51.4314,0,0,0,6.647-2.9054c3.6268-1.821,7.6-4.0223,11.0767-5.7461,1.7351-.8613,3.3466-1.6018,4.6869-2.1078a16.1935,16.1935,0,0,1,1.7671-.5706,4.876,4.876,0,0,1,1.1067-.172c.5256-.0021,1.3364.0755,2.24.1641.9084.0869,1.92.1818,2.9558.1825a9.4647,9.4647,0,0,0,3.1439-.4541,5.2319,5.2319,0,0,0,1.5436-.8459,4.4994,4.4994,0,0,0,1.2081-1.4987q3.6352-7.27,7.27-14.5406l0-.0005a6.1191,6.1191,0,0,0,.7478-2.7091,3.7149,3.7149,0,0,0-.2706-1.4116,3.9615,3.9615,0,0,0-1.4338-1.7326,11.0733,11.0733,0,0,0-2.4637-1.1737,24.9939,24.9939,0,0,1-2.4373-1.0053q-6.0359-3.0183-12.0712-6.0356a1.9844,1.9844,0,0,0-.6783-.19,98.1311,98.1311,0,0,1,97.0732-17.3636Zm-129.57,98.9363a25.44,25.44,0,0,1,.6859-4.819c.6388-2.9539,1.6234-6.3737,2.4717-9.1122.4242-1.37.8143-2.5723,1.1108-3.4689.298-.9011.4958-1.4775.5547-1.6536q2.202-6.6044,4.4036-13.21a2.3046,2.3046,0,0,1,.5363-.1516,8.4057,8.4057,0,0,1,1.453-.1049c.9032-.0007,1.9451.0867,2.9244.1809.3639.034.702.0663,1.041.0978a5.2987,5.2987,0,0,0,.521,1.0729,6.8058,6.8058,0,0,0,1.7264,1.7856A15.1476,15.1476,0,0,0,85.2,139.3351c1.9044.7,3.8461,1.2354,5.1284,1.811a4.5847,4.5847,0,0,1,1.2617.7461l.1027.1219a1.2049,1.2049,0,0,1-.1483.4254c-2.2654,4.53-6.0676,12.1353-8.3331,16.666l.0037.0018a2.1639,2.1639,0,0,0-.23.96,2.2776,2.2776,0,0,0,.1649.8457,3.032,3.032,0,0,0,.4807.7962,8.2684,8.2684,0,0,0,.9479.95c.6128.5389,1.3678,1.1309,2.1753,1.762,1.2065.9411,2.5277,1.9662,3.4836,2.8331a9.7524,9.7524,0,0,1,1.0588,1.0807c.0192.024.0275.038.043.0589a1.9948,1.9948,0,0,0,1.0807,1.7186,15.126,15.126,0,0,0,6.8,1.9611,8.0275,8.0275,0,0,0,2.985-.5508,8.7071,8.7071,0,0,0,3.627-2.8381,37.8192,37.8192,0,0,0,2.9008-4.9013,8.078,8.078,0,0,1,.9065-1.338c.1479.1172.2966.2347.4667.3654,1.537,1.1783,3.9792,2.9144,6.0482,4.4078,1.0317.7444,1.9691,1.4275,2.6246,1.9268.1216.0925.2223.1714.3224.25q0,7.71,0,15.42a6.5252,6.5252,0,0,1-.453,1.9507,45.3307,45.3307,0,0,1-2.9114,6.058c-1.928,3.5162-4.3356,7.5123-6.2887,11.2557a50.4072,50.4072,0,0,0-2.4827,5.3859,14.24,14.24,0,0,0-1.0785,4.833,5.5184,5.5184,0,0,0,.5363,2.4879q3.6348,7.27,7.27,14.54h0a12.0012,12.0012,0,0,1,1.0507,5.5658c0,.5511-.0217,1.14-.041,1.726q-3.1348-1.5675-6.2694-3.1351c-.6615-.3286-1.4371-.6294-2.3029-.9645-1.29-.4962-2.7567-1.05-3.9557-1.625a11.76,11.76,0,0,1-1.5062-.8376,2.5607,2.5607,0,0,1-.62-.5337q-6.9763-10.464-13.9523-20.9278a95.251,95.251,0,0,0-12.8337-14.9722c-1.9357-1.9193-3.61-5.0138-5.0873-8.3724-1.2167-2.7444-2.32-5.6274-3.4988-8.2375a5.3925,5.3925,0,0,0,.48-.58,10.1642,10.1642,0,0,0,1.129-2.1841c.4489-1.1381.8092-2.3469,1.1735-3.412a10.8387,10.8387,0,0,1,1.0276-2.3755,2,2,0,0,0-1.4989-3.1273c-.8629-.0632-1.8407-.1708-2.8983-.2184C64.0856,167.0371,64.0823,166.9572,64.0831,166.8669Zm-.2632,4.2558c-.3077.8763-.5891,1.7642-.8634,2.569q-.1844-1.3192-.3337-2.6493a2.57,2.57,0,0,0,.5037.0484C63.35,171.09,63.59,171.1133,63.82,171.1227Zm40.5191-58.8185-.1392.1722a1.7393,1.7393,0,0,1-.7026.2849,6.9524,6.9524,0,0,1-1.4762.1306c-.7844.0007-1.682-.0776-2.5721-.1641-.8949-.0848-1.772-.18-2.6237-.1825a10.6865,10.6865,0,0,0-3.2075.6192,51.4252,51.4252,0,0,0-6.647,2.9055c-3.6268,1.821-7.6,4.0223-11.0767,5.7461-1.7351.8612-3.3466,1.6018-4.6869,2.1078-.3358.127-.6542.239-.951.3348a47.7945,47.7945,0,0,1,2.1526-4.5c1.4009-2.644,3.1134-5.5862,4.5588-8.06.7233-1.238,1.38-2.359,1.9038-3.28.2623-.4612.4913-.8721.6826-1.23.1921-.3616.3431-.6576.47-.9554a6.6789,6.6789,0,0,1,1.1855-1.6976,34.0709,34.0709,0,0,1,3.4138-3.1523c1.262-1.0581,2.5067-2.0525,3.4709-3.0126q4.3325-4.3317,8.6642-8.6638,5.391,2.6953,10.782,5.391a23.4021,23.4021,0,0,0,2.2235.9484,13.982,13.982,0,0,1,2.1007.8821l.051.0369a3.3456,3.3456,0,0,1-.307.7995l0-.0005Q107.974,105.0338,104.339,112.3043Z" class="fill"/>
    </g>
  </g>
</svg>
