<svg xmlns="http://www.w3.org/2000/svg" viewBox="0 0 320 320">
  <title>_.support.color-filled</title>
  <g id="console">
    <path d="M281.9417,39.6124a2.0014,2.0014,0,0,0-.071-.2861c-.011-.03-.0107-.0619-.0229-.0917a1.9079,1.9079,0,0,0-.0986-.1639,1.9447,1.9447,0,0,0-.1553-.2581,2.8342,2.8342,0,0,0-.4067-.4067,1.97,1.97,0,0,0-.2581-.1553,1.8884,1.8884,0,0,0-.1636-.0984c-.03-.0123-.0615-.012-.0916-.0228a3.1014,3.1014,0,0,0-.5811-.1155C280.061,38.0124,280.032,38,280,38H40a2,2,0,0,0-2,2V280c0,.0317.0122.0605.0137.092a3.1344,3.1344,0,0,0,.1155.5815c.011.03.01.062.0229.0918.0251.06.0686.1074.0989.1642a1.8033,1.8033,0,0,0,.82.82,1.9086,1.9086,0,0,0,.1638.0985c.03.0123.0615.012.0918.0228a3.1132,3.1132,0,0,0,.5811.1155c.0317.0016.0608.0139.0928.0139H280a2,2,0,0,0,2-2V40c0-.0318-.0122-.0607-.0139-.0923A1.9437,1.9437,0,0,0,281.9417,39.6124ZM42,275.1715V42H275.1714Z" class="fill"/>
  </g>
</svg>
