<svg xmlns="http://www.w3.org/2000/svg" viewBox="0 0 320 320">
  <title>_.support.infinity-outline</title>
  <g id="console">
    <path d="M269.7085,102.5325a69.0338,69.0338,0,0,0-35.09-9.2773c-19.4328.0051-38.9472,7.5658-52.2313,21.8987a91.3468,91.3468,0,0,0-15.5244,23.6042,245.5775,245.5775,0,0,0-9.6619,25.0774c-3,8.7393-5.8979,17.1606-9.6818,25.033a78.8913,78.8913,0,0,1-14.99,21.8254c-9.8876,10.0125-24.449,15.3523-40.25,15.3521a75.8341,75.8341,0,0,1-28.6953-5.7827c-12.4674-5.12-22.3514-12.8589-29.1253-22.3474A56.1722,56.1722,0,0,1,24,164.9224v-.0208c.0008-13.7126,3.1282-26.1279,8.9378-36.5732a62.5792,62.5792,0,0,1,25.1351-24.8063A67.44,67.44,0,0,1,90.4081,95.48c15.6034,0,31.9514,4.9994,47.16,14.917a2,2,0,0,0,2.7677-.5826l2.1846-3.35a2,2,0,0,0-.5827-2.7678c-16.4582-10.7339-34.3066-16.222-51.528-16.2224a75.4329,75.4329,0,0,0-36.1477,9.0142,70.5578,70.5578,0,0,0-28.27,27.8368C19.4635,136.0168,15.9991,149.8232,16,164.9v.0232a64.1591,64.1591,0,0,0,11.8586,37.5544c7.6728,10.79,18.8185,19.4937,32.686,25.1858a83.7247,83.7247,0,0,0,31.6761,6.3694l.0258.001c17.7556,0,34.4305-6.043,45.9734-17.7183a87.4034,87.4034,0,0,0,16.503-24.0308c4.087-8.4958,7.101-17.2847,10.044-25.85a239.9557,239.9557,0,0,1,9.24-24.053,83.8263,83.8263,0,0,1,14.25-21.7936c11.649-12.5924,29.0164-19.369,46.3149-19.3639a60.8567,60.8567,0,0,1,61.4138,60.2532q.0145.6793.0145,1.3574a58.9489,58.9489,0,0,1-26.7249,49.8823c-10.1813,6.6187-22.6649,9.9536-35.1707,9.9517-12.9283.0024-25.8512-3.5625-36.2485-10.5947a2,2,0,0,0-2.777.5371l-2.24,3.3145a2,2,0,0,0,.5371,2.7771c11.8036,7.9729,26.2782,11.9336,40.7313,11.936,13.9814-.002,27.97-3.7087,39.527-11.2139A66.933,66.933,0,0,0,304,162.8352q0-.7632-.0164-1.53A69.5151,69.5151,0,0,0,269.7085,102.5325Z" class="fill"/>
  </g>
</svg>
