<svg xmlns="http://www.w3.org/2000/svg" viewBox="0 0 320 320">
  <title>_.support.pencil-filled</title>
  <g id="console">
    <g>
      <path d="M250.5027,65.0284a18.0288,18.0288,0,0,0,2.4863-8.8333,15.4669,15.4669,0,0,0-1.5135-6.6318,22.1347,22.1347,0,0,0-7.9351-8.7374l-.0307-.0178c-.0009,0-.3254-.1846-.9227-.5239-4.18-2.3751-21.6673-12.33-33.6437-19.4065h0A18.7393,18.7393,0,0,0,199.3759,18a15.0041,15.0041,0,0,0-6.3962,1.4373,18.9971,18.9971,0,0,0-6.1726,4.757,19.5087,19.5087,0,0,0-1.5806,2.0725c-.1835.28-.3262.517-.4379.7191-.0564.1028-.1041.1935-.1546.3022-.0069.015-.0162.04-.0233.0562L169.41,54.0237a9.5621,9.5621,0,0,0-.66,1.5085,10.8625,10.8625,0,0,0-.62,3.5441,8.81,8.81,0,0,0,1.0865,4.2911,10.6332,10.6332,0,0,0,4.0309,3.9667c3.4488,2.0378,13.8047,8.0333,24.1709,14.0349,10.361,5.9984,20.7322,12.0029,24.1407,14.0168l.0924.0514a11.1933,11.1933,0,0,0,5.1924,1.3809,8.9981,8.9981,0,0,0,3.7032-.7937,10.5642,10.5642,0,0,0,3.4755-2.5726,9.9161,9.9161,0,0,0,1.199-1.6012l-.0074.0129C235.2161,91.858,243.0112,78.45,250.5027,65.0284Z" class="fill"/>
      <polygon points="169.409 54.025 169.41 54.024 169.411 54.022 169.409 54.025" class="fill"/>
      <path d="M70.0941,301.7311a2.0024,2.0024,0,0,0,1.8883.0615c.0209-.0106,14.5381-7.19,30.0668-16.0691,7.7662-4.4412,15.7831-9.3038,22.3961-13.9337a98.3942,98.3942,0,0,0,8.68-6.7146,27.3439,27.3439,0,0,0,5.4357-6.1l.001.0006c.2759-.4463.8125-1.35,1.6058-2.7,11.8514-20.1709,79.8358-138.1847,79.8387-138.1895l.0035-.0061a9.5674,9.5674,0,0,0,.6611-1.51,10.8631,10.8631,0,0,0,.62-3.5437,8.81,8.81,0,0,0-1.0865-4.2911,10.6346,10.6346,0,0,0-4.0307-3.9668c-3.449-2.038-13.8049-8.0332-24.1711-14.0347-10.3608-5.9983-20.732-12.0028-24.14-14.0171l-1.0176,1.7218,1.0176-1.7218a10.5573,10.5573,0,0,0-5.3931-1.6016,8.8213,8.8213,0,0,0-3.59.7678,10.8168,10.8168,0,0,0-3.428,2.4668,10.2541,10.2541,0,0,0-1.2158,1.53l-.0306.0511c-.0025.0044-77.6672,134.28-81.4174,140.8431l-.01.0175a26.7682,26.7682,0,0,0-2.4346,7.4187A119.1381,119.1381,0,0,0,68.4882,244.46C68.1317,250.5981,68,257.2517,68,263.7571c0,18.7885,1.0983,36.3438,1.0995,36.3676A2.002,2.002,0,0,0,70.0941,301.7311Z" class="fill"/>
    </g>
  </g>
</svg>
