<svg xmlns="http://www.w3.org/2000/svg" viewBox="0 0 320 320">
  <title>_.support.bell-filled</title>
  <g id="console">
    <g>
      <path d="M115.377,222.4966l-1.9959-.1275h0c-.0627.9812-.1075,1.9841-.1075,3.0128a46.7267,46.7267,0,0,0,93.4531,0c0-1.0287-.0449-2.0316-.1075-3.0128l-1.9959.1276Z" class="fill"/>
      <path d="M60.3538,205.3213a80.5658,80.5658,0,0,1-8.0164,5.6454c-1.0181.625-1.8368,1.0915-2.3954,1.399-.2793.1537-.4935.2676-.6352.3417l-.157.0814-.0359.0182-.0065.0033A2,2,0,0,0,50,216.6H270a2,2,0,0,0,.8926-3.79l-.0153-.0078a77.7,77.7,0,0,1-18.2164-13.7559A64.1383,64.1383,0,0,1,240.6963,182.53a50.985,50.985,0,0,1-5.3624-22.7971V123.1558a92.8048,92.8048,0,0,0-9.3787-37.4741,66.248,66.248,0,0,0-22.4515-25.9165C192.8486,52.6729,178.6621,47.9942,160,48c-18.6622-.0058-32.8486,4.6729-43.5038,11.7652a64.2589,64.2589,0,0,0-18.46,18.9066,86.5705,86.5705,0,0,0-11.7018,29.9938,82.9151,82.9151,0,0,0-1.6688,14.49s0,18.289,0,36.5776a51.023,51.023,0,0,1-5.5171,23.1082C74.1775,192.77,66.6506,200.2995,60.3538,205.3213Z" class="fill"/>
    </g>
  </g>
</svg>
