<svg xmlns="http://www.w3.org/2000/svg" viewBox="0 0 320 320">
  <title>_.support.graduate</title>
  <g id="console">
    <g>
      <path d="M310.6323,116.1025l-144-48a1.9841,1.9841,0,0,0-1.2649,0l-144,48a2,2,0,0,0,.1475,3.8376l144,36a2.006,2.006,0,0,0,.97,0l144-36a2,2,0,0,0,.1475-3.8376ZM166,151.9384,29.1477,117.7253,166,72.1082l136.8518,45.6173Z" class="fill"/>
      <path d="M166,228c36.2209.0009,60.4856-6.0394,75.7427-12.1429,15.2573-6.1016,21.4961-12.2655,21.6714-12.4427A1.9872,1.9872,0,0,0,264,202V142a2,2,0,0,0-2.4849-1.94L166,163.9384,70.4849,140.06A2,2,0,0,0,68,142v60a2.0126,2.0126,0,0,0,.5857,1.4142c.1753.1772,6.4141,6.3412,21.6714,12.4427C105.5142,221.96,129.7786,228.0007,166,228ZM72.4431,201.4873c-.1716-.1414-.3154-.2637-.4434-.3739v-56.552L165.5149,167.94a2.006,2.006,0,0,0,.97,0L260,144.5614l0,56.55c-1.8137,1.5665-8.0449,6.4409-20.4407,11.3076C224.77,218.2241,201.22,223.9991,166,224c-35.7791-.0009-59.5144-5.9606-74.2573-11.8571a86.0556,86.0556,0,0,1-15.7583-8.0571A43.9049,43.9049,0,0,1,72.4431,201.4873Z" class="fill"/>
      <path d="M24,213.675V166a57.9034,57.9034,0,0,1,5.7891-26.1056,42.3346,42.3346,0,0,1,3.936-6.4445c.5305-.7074.9675-1.2311,1.2646-1.5706.1484-.17.262-.2933.3347-.371l.0776-.0818.0146-.0149-.3044-.3-2.5261-2.5262a38.9033,38.9033,0,0,0-6.375,9.52A61.907,61.907,0,0,0,20,166c0,22.39,0,44.7725,0,47.6753L8.1025,249.3674A2,2,0,0,0,10,252H34a2,2,0,0,0,1.8972-2.6324ZM12.7747,248,22,220.3245,31.2249,248Z" class="fill"/>
    </g>
  </g>
</svg>
