<svg xmlns="http://www.w3.org/2000/svg" viewBox="0 0 320 320">
  <title>_.support.mug-filled</title>
  <g id="console">
    <path d="M282,140a64.8669,64.8669,0,0,0-12.4528-38.3385,68.302,68.302,0,0,0-34.2137-24.3943V65a7.0008,7.0008,0,0,0-7-7H85a7.0008,7.0008,0,0,0-7,7V218.4126a55.3965,55.3965,0,0,0,5.1976,21.66,38.1452,38.1452,0,0,0,12.5381,15.0726C101.7031,259.2894,109.657,262.0067,120,262h73.3335a51.6916,51.6916,0,0,0,20.8944-5.2111,37.1063,37.1063,0,0,0,14.52-12.5544c3.9846-5.9676,6.5917-13.9049,6.5859-24.2344v-8.7889c10.06-5.2855,21.3948-14.58,30.4319-26.589C275.1181,172.1791,281.9949,156.7878,282,140Zm-30.7615-24.5929c4.74,6.2443,7.7059,14.2822,7.7137,24.5929a50.5988,50.5988,0,0,1-7.3025,26.4866A51.961,51.961,0,0,1,235.3334,183.13V103.0193A41.38,41.38,0,0,1,251.2385,115.4071Z" class="fill"/>
  </g>
</svg>
