<svg xmlns="http://www.w3.org/2000/svg" viewBox="0 0 320 320">
  <title>_.support.drop-filled</title>
  <g id="console">
    <path d="M201.444,111.66c-14.7712-15.4087-24.676-33.4725-30.86-47.6757a186.8189,186.8189,0,0,1-6.6472-17.5816c-.6944-2.1738-1.1948-3.9012-1.52-5.08-.1628-.5894-.2818-1.0416-.3595-1.3439-.0389-.1512-.0674-.2648-.0859-.3394l-.0258-.1049a2,2,0,0,0-3.7486-.3983s-.0763.1593-.2267.4707c-2.2513,4.6647-20.9965,43.16-39.655,72.36-7.7734,12.1755-17.8256,25.2792-25.9659,40.6545C84.21,167.9932,77.9962,185.6917,78,206.9565c-.0089,21.3441,7.7,40.1887,21.8735,53.6249C114.0411,274.0258,134.59,282.0061,160,282c25.41.0062,45.9588-7.9741,60.1264-21.4185C234.3,247.1454,242.0088,228.3007,242,206.9565c.0038-21.0973-3.6774-38.2526-10.62-53.4625C224.4407,138.2814,214.2787,125.0521,201.444,111.66Z" class="fill"/>
  </g>
</svg>
