<svg xmlns="http://www.w3.org/2000/svg" viewBox="0 0 320 320">
  <title>_.support.briefcase-filled</title>
  <g id="console">
    <g>
      <path d="M66.8745,159.28c11.1548,6.69,28.7156,11.8856,56.4585,11.8865h73.334c18.458-.0005,32.3647-1.7283,42.8806-4.3566a70.19,70.19,0,0,0,18.4082-7.1011c6.813-3.9683,10.3813-8.3458,12.1858-11.8149A14.518,14.518,0,0,0,272,141.6665a1.8779,1.8779,0,0,0-.0271-.3288l-4.583-27.5a1.95,1.95,0,0,0-.1841-.5658c-.1709-.3623-5.116-9.89-23.8113-19.2273a25.3225,25.3225,0,0,0-5.561-1.8846,65.8365,65.8365,0,0,0-9.74-1.3542c-3.2874-.24-6.4639-.309-9.0454-.309-1.5767,0-2.9116.0259-3.9314.0546a64.5829,64.5829,0,0,0-1.2336-9.8386,48.7562,48.7562,0,0,0-2.8894-9.3986A30.0818,30.0818,0,0,0,205.332,62.46c-4.6343-4.8818-10.8281-8.5035-18.4087-10.8925Q175.5455,47.9821,160,48q-16.786.0019-28.8267,4.3071c-8.0076,2.8839-14.4146,7.27-18.9949,13.1391a33.3445,33.3445,0,0,0-5.9375,13.3082A53.0518,53.0518,0,0,0,105.04,90.0811c0,.4708.0071.895.0168,1.2861-2.053-.1411-5.2827-.3119-8.9363-.3122a84.2175,84.2175,0,0,0-10.3.5668,29.521,29.521,0,0,0-9.2156,2.4229c-18.6951,9.3375-23.64,18.8649-23.811,19.2272a1.9928,1.9928,0,0,0-.1516.41L48.06,132.015a1.9453,1.9453,0,0,0-.06.485,21.8522,21.8522,0,0,0,1.2483,6.3616C51.08,144.3967,55.7163,152.5991,66.8745,159.28Zm62.6191-82.91a23.6791,23.6791,0,0,1,10.8411-7.8454C145.1418,66.7246,151.4763,65.7482,160,65.75c7.95,0,14.0164,1.0511,18.7559,2.8029a28.1342,28.1342,0,0,1,10.9612,7.1163,12.1036,12.1036,0,0,1,2.2947,3.7388,28.892,28.892,0,0,1,1.7632,7.212,46.4074,46.4074,0,0,1,.3479,4.9216H125.9a53.0359,53.0359,0,0,1,.5579-6.4164,30.8266,30.8266,0,0,1,1.1323-4.9206,12.8438,12.8438,0,0,1,1.9031-3.8342l-1.5759-1.2311Z" class="fill"/>
      <path d="M48,233.3335c-.0059,9.4961,2.3928,16.8084,6.0649,22.3072a33.1734,33.1734,0,0,0,9.7673,9.5158,44.4393,44.4393,0,0,0,15.3809,5.9905A42.5714,42.5714,0,0,0,86.667,272H233.9238a46.2006,46.2006,0,0,0,18.9441-4.8,33.8128,33.8128,0,0,0,13.1675-11.5714c3.6123-5.4986,5.97-12.8041,5.9644-22.2947v-77.917c0-.0269-.0068-.052-.0081-.0787a2.0218,2.0218,0,0,0-.0317-.3182c-.01-.0485-.0291-.0928-.0422-.14a2.0393,2.0393,0,0,0-.0728-.2351c-.0244-.058-.0586-.11-.0881-.1651a1.9251,1.9251,0,0,0-.0947-.1748,2.0052,2.0052,0,0,0-.5466-.5483c-.0544-.0366-.1143-.0623-.1716-.0932a1.9148,1.9148,0,0,0-.1689-.0906,1.98,1.98,0,0,0-.2454-.0763c-.0435-.012-.0842-.03-.1287-.0392a2.0177,2.0177,0,0,0-.3909-.04l-.0081-.0009h0a2.02,2.02,0,0,0-.3989.04c-.0427.0086-.0815.0259-.123.0372a1.2085,1.2085,0,0,0-.4263.171c-.0552.03-.113.0542-.1653.0894a2.0056,2.0056,0,0,0-.5486.5477c-.0347.0515-.0588.1083-.0886.1625-.032.059-.0686.1152-.095.1776a1.9886,1.9886,0,0,0-.07.2256c-.0144.05-.0347.0972-.0452.1486a2.036,2.036,0,0,0-.0322.3147c-.001.02-.0059.0393-.0061.06H268s-.0015.0766-.0188.2376a12.419,12.419,0,0,1-1.6094,4.5557c-1.8928,3.3747-5.978,8.0784-15.156,12.2059-9.1726,4.1194-23.4409,7.6033-45.4517,8.3573a1.9966,1.9966,0,0,0-1.9312,1.9988v.1709a7.167,7.167,0,0,1-7.166,7.167H123.333a7.167,7.167,0,0,1-7.1663-7.167v-.1992a1.999,1.999,0,0,0-1.92-1.9984c-15.8782-.6356-27.7126-2.9269-36.5042-5.958C64.55,170.2036,58.218,164.045,55.08,159.1651a20.7612,20.7612,0,0,1-2.7136-6.0972,13.4556,13.4556,0,0,1-.3257-1.7348c-.0222-.1941-.0325-.3369-.0374-.4227L52,150.8253l0-.0092h-.0015c0-.0194-.0051-.0375-.0059-.0567a2.04,2.04,0,0,0-.0334-.3267c-.0093-.0456-.0273-.0873-.04-.1317a1.9748,1.9748,0,0,0-.0757-.2429c-.0229-.0545-.0554-.1031-.083-.1551a1.7275,1.7275,0,0,0-.6482-.7318,1.9661,1.9661,0,0,0-.1743-.0943c-.0557-.03-.1077-.0643-.166-.0887a1.9713,1.9713,0,0,0-.2488-.0768c-.0425-.0116-.0823-.0294-.126-.0381a2.0041,2.0041,0,0,0-.7981.0007c-.0415.0084-.0791.0255-.12.0364a1.9908,1.9908,0,0,0-.2549.0792c-.0557.0234-.1052.0568-.1582.0849a1.9637,1.9637,0,0,0-.1816.0988,2.0081,2.0081,0,0,0-.5469.5477,1.9744,1.9744,0,0,0-.0984.1816c-.0281.053-.0613.1028-.0845.1586a1.9532,1.9532,0,0,0-.0747.241c-.0125.0451-.031.0875-.04.1339a1.9962,1.9962,0,0,0-.033.3276c-.001.0237-.0071.0459-.0071.07,0,.0029,0,1.07,0,2.97C48,167.1035,48,221.07,48,233.3335Z" class="fill"/>
    </g>
  </g>
</svg>
