<svg xmlns="http://www.w3.org/2000/svg" viewBox="0 0 320 320">
  <title>_.support.shopping-bag-outline</title>
  <g id="console">
    <g>
      <path d="M75.38,107.6814,58.0114,269.7869A2,2,0,0,0,60,272H260a2,2,0,0,0,1.9886-2.213L244.62,107.6814a2.0031,2.0031,0,0,0-1.9886-1.7869H77.3687A2.0031,2.0031,0,0,0,75.38,107.6814ZM257.7742,268H62.2256l16.94-158.1055H240.834Z" class="fill"/>
      <path d="M118.9346,59.5457a16.1828,16.1828,0,0,1,5.78-4.2455c3.5005-1.5872,8.0909-2.4481,13.9351-2.8708,5.8413-.4272,12.9135-.43,21.35-.4294,9.9982-.0016,18.0828.0051,24.4683.7117a34.0343,34.0343,0,0,1,11.5793,2.9526,15.8232,15.8232,0,0,1,5.5305,4.51c2.2534,2.9023,3.8863,7.0292,4.93,12.9285,1.0453,5.8907,1.4932,13.5043,1.4919,23.2125h4c-.0032-11.6522-.6189-20.4556-2.2427-27.2427-1.2189-5.0837-3.03-9.0708-5.6567-12.1323a20.2061,20.2061,0,0,0-7.1686-5.2855c-4.1974-1.8905-9.2239-2.7683-15.2908-3.215-6.07-.4421-13.2029-.4393-21.6412-.44-10.0018.0016-18.1672-.0051-24.9067.7357a37.86,37.86,0,0,0-12.9421,3.3569,19.8517,19.8517,0,0,0-6.8909,5.6315c-2.8078,3.6283-4.5955,8.4147-5.707,14.681-1.11,6.2749-1.5518,14.079-1.5532,23.91h4c-.0032-11.5056.6312-20.0706,2.1323-26.31C115.2571,65.32,116.8448,61.98,118.9346,59.5457Z" class="fill"/>
    </g>
  </g>
</svg>
