<svg xmlns="http://www.w3.org/2000/svg" viewBox="0 0 320 320">
  <title>_.support.brush</title>
  <g id="console">
    <path d="M39.2975,266.3c.0045.0016,7.0587,2.6479,15.7343,5.79,8.68,3.1437,18.9615,6.7778,25.5005,8.778l.0018.0006a4.1325,4.1325,0,0,0,1.07.151,3.4606,3.4606,0,0,1,.4075.0286l-.0018,0A58.5408,58.5408,0,0,0,92.6918,282a76.7349,76.7349,0,0,0,22.1411-3.4611,65.57,65.57,0,0,0,15.1338-6.5758c9.2356-5.8394,15.7048-12.0819,19.8808-18.4371a34.3115,34.3115,0,0,0,6.0317-18.9591,30.695,30.695,0,0,0-.4783-5.3544c.6177-.4835,1.3317-1.0671,2.1708-1.7722,4.7646-4.0089,12.9336-11.3959,20.0441-17.8907,3.5532-3.2457,6.8373-6.265,9.285-8.5161,1.2238-1.1254,2.2386-2.059,2.9719-2.7314.3665-.3362.6629-.6073.8778-.8026.1074-.0975.1945-.1763.2576-.2328l.0744-.0662.0189-.0165h0l.0164-.0167c.0074-.0063.0159-.0106.0232-.0171C260.4287,135.9716,281.85,63.499,281.9179,63.3014a1.9623,1.9623,0,0,0,.0624-.8472,17.9992,17.9992,0,0,0-2.0161-5.46,33.5141,33.5141,0,0,0-9.8925-11.025h0A43.2127,43.2127,0,0,0,256,39.4974a51.3323,51.3323,0,0,0-7.338-1.4861,1.9909,1.9909,0,0,0-.9246.1194c-.1146.0441-9.64,3.6786-22.8472,12.7195a172.816,172.816,0,0,0-44.8908,45.1687c-3.7073,5.4321-12.5724,18.8392-20.5251,30.9082-7.9509,12.0665-14.9778,22.7782-14.9818,22.7806l.0083.0054c-.0268.041-.06.0781-.0836.1208l-.0031.0039h0c-.2087.3732-6.5989,11.7924-13.2126,23.6637-3.307,5.9359-6.67,11.985-9.3451,16.8252-1.3377,2.42-2.5034,4.5381-3.4055,6.1907-.5229.9584-.9421,1.7325-1.2716,2.3495a30.4961,30.4961,0,0,0-17.2418,5.6056c-5.4808,3.8951-10.1528,9.9243-13.3615,18.3279a168.9533,168.9533,0,0,1-7.6426,17.3949A67.9423,67.9423,0,0,1,74.38,247.81,25.1278,25.1278,0,0,1,69.76,252.98a23.0429,23.0429,0,0,1-5.5521,3.0391,84.9029,84.9029,0,0,1-11.8811,3.5731c-4.3125,1.0323-8.7651,1.9438-12.7848,2.8881a2,2,0,0,0-.245,3.82ZM81.7,277.043h0l.0018.0006Zm101.603-178.769A168.8181,168.8181,0,0,1,227.15,54.1509a140.6621,140.6621,0,0,1,15.8773-9.4639c1.9536-.9869,3.5011-1.6969,4.5531-2.1573.4922-.2155.8648-.3712,1.1309-.48a51.01,51.01,0,0,1,6.601,1.4084,38.9567,38.9567,0,0,1,12.3808,5.7273l1.1893-1.6079-1.1893,1.6079a29.5191,29.5191,0,0,1,8.7416,9.6913,17.8981,17.8981,0,0,1,1.3262,3.1207c.0833.2705.136.4746.1765.6428-1.9175,6.14-23.5031,71.5291-85.8243,128.2622q-.1615-1.2739-.4843-2.7015a51.5681,51.5681,0,0,0-4.0077-10.95,60.729,60.729,0,0,0-12.8689-17.5823q-1.0646-.99-2.1969-1.9265a41.2648,41.2648,0,0,0-17.54-8.73q-.748-.1622-1.5117-.2944c-.2811-.07-.5593-.1327-.8361-.19-.1716-.0356-.3414-.0656-.5114-.0962-.3118-.0564-.6213-.1057-.9275-.1443-.3215-.0406-.64-.0728-.9553-.0928.65-.99,1.4124-2.15,2.2675-3.4514C160.8624,132.0789,177.84,106.2776,183.3033,98.2739Zm-39.1049,52.894ZM121.9833,198.395c3.1783-5.8221,9.6581-17.4719,15.3414-27.6628,2.842-5.0959,5.4857-9.8287,7.42-13.29.9673-1.7306,1.7573-3.1433,2.3061-4.1246.21-.3757.3725-.6659.5084-.9088a6.1106,6.1106,0,0,1,1.6073-.2386c.08-.0023.1535-.01.2368-.01q.3441,0,.7181.0275a14.4607,14.4607,0,0,1,2.48.4248l.152.0323a35.67,35.67,0,0,1,13.6362,5.4994q.862.5695,1.6924,1.18a44.9236,44.9236,0,0,1,4.6882,3.9769,54.653,54.653,0,0,1,7.5811,9.2522c1.0592,1.6166,2.0146,3.2472,2.8638,4.8571a55.7867,55.7867,0,0,1,3.1039,6.9633c.2645.7288.502,1.4377.7123,2.1222a24.1961,24.1961,0,0,1,1.2372,6.635,5.2135,5.2135,0,0,1-.1416,1.349c-.84.7616-2.9931,2.7461-5.9161,5.4325-4.6968,4.3165-11.3036,10.373-17.2187,15.6863-2.9571,2.6563-5.7418,5.1271-8.0215,7.0962-.9854.8512-1.8689,1.601-2.6353,2.2365a37.2026,37.2026,0,0,0-12.72-17.6163,40.0531,40.0531,0,0,0-19.99-8.2625C121.74,198.8416,121.8585,198.6237,121.9833,198.395ZM57.6152,262.3771a71.0706,71.0706,0,0,0,8.1026-2.6532,26.8742,26.8742,0,0,0,6.5276-3.6089,28.939,28.939,0,0,0,5.4022-5.9987,85.1529,85.1529,0,0,0,7.0409-12.5311c2.1346-4.5333,4.0386-9.2089,5.624-13.3566,2.9855-7.8,7.1823-13.1069,11.9435-16.4966a26.5742,26.5742,0,0,1,15.613-4.8892q.2491,0,.4915.0044h.0042a35.46,35.46,0,0,1,20.7958,7.6259,32.4818,32.4818,0,0,1,12.0879,18.322,26.7988,26.7988,0,0,1,.6309,5.7715,30.3018,30.3018,0,0,1-5.375,16.7629c-3.79,5.7709-9.8112,11.649-18.675,17.2523a61.7983,61.7983,0,0,1-14.1659,6.1316A72.772,72.772,0,0,1,92.6918,278a54.5641,54.5641,0,0,1-9.9523-.8843l-.0018,0a6.6546,6.6546,0,0,0-.9681-.0916c-.0745-.0029-.1238-.0059-.1578-.0083-6.3889-1.9573-16.6092-5.5671-25.2178-8.6857-3.5151-1.2732-6.7535-2.4613-9.3729-3.4279C50.5158,264.131,54.1484,263.3171,57.6152,262.3771Z" class="fill"/>
  </g>
</svg>
