<svg xmlns="http://www.w3.org/2000/svg" viewBox="0 0 320 320">
  <title>_.support.dots-vertical</title>
  <g id="console">
    <g>
      <path d="M160,36.75a35.0677,35.0677,0,1,0,35.0681,35.0686l-2,0,2,0A35.0691,35.0691,0,0,0,160,36.75Zm0,66.1357a31.068,31.068,0,1,1,31.0686-31.0674A31.0678,31.0678,0,0,1,160,102.8857Z" class="fill"/>
      <path d="M160,124.9316A35.0682,35.0682,0,1,0,195.0683,160l-2,0,2,0A35.0705,35.0705,0,0,0,160,124.9316ZM160,191.0684A31.0685,31.0685,0,1,1,191.0684,160,31.0692,31.0692,0,0,1,160,191.0684Z" class="fill"/>
      <path d="M160,213.1143a35.0677,35.0677,0,1,0,35.0681,35.0686l-2,0,2,0A35.0691,35.0691,0,0,0,160,213.1143Zm0,66.1357a31.068,31.068,0,1,1,31.0686-31.0674A31.0678,31.0678,0,0,1,160,279.25Z" class="fill"/>
    </g>
  </g>
</svg>
