<svg xmlns="http://www.w3.org/2000/svg" viewBox="0 0 320 320">
  <title>_.support.phone</title>
  <g id="console">
    <g>
      <path d="M63.1152,129.4188a16.4714,16.4714,0,0,0,2.738,4.62,10.0642,10.0642,0,0,0,3.4951,2.3407,35.0256,35.0256,0,0,0,6.57,1.9762c2.2207.4749,4.3232.7993,5.7507,1.0223a85.4041,85.4041,0,0,0,12.2078,1.0138,38.0157,38.0157,0,0,0,4.4692-.2353,15.77,15.77,0,0,0,3.875-.8956l-.7375-1.8589.7378,1.8589a25.0723,25.0723,0,0,0,6.3569-4.1106c3.18-2.6411,6.4485-5.9313,9.5784-8.7551a54.1242,54.1242,0,0,1,4.51-3.7263,15.33,15.33,0,0,1,3.8386-2.1379,75.19,75.19,0,0,1,14.7861-2.9657,174.4777,174.4777,0,0,1,37.4182,0,75.1951,75.1951,0,0,1,14.7861,2.9656,19.0033,19.0033,0,0,1,5.2935,3.2455c2.9741,2.3737,6.2251,5.6107,9.4319,8.5578,1.6067,1.4747,3.2058,2.8791,4.79,4.08a21.03,21.03,0,0,0,4.7681,2.847,15.7583,15.7583,0,0,0,3.8745.8956,38.0057,38.0057,0,0,0,4.47.2352,85.4285,85.4285,0,0,0,12.208-1.0137c1.9065-.2985,4.9993-.7725,7.9976-1.5516a28.9616,28.9616,0,0,0,4.323-1.447,10.064,10.064,0,0,0,3.4954-2.341,16.4675,16.4675,0,0,0,2.7373-4.62,41.3322,41.3322,0,0,0,2.4092-8.9934,60.3827,60.3827,0,0,0,.78-9.4948,33.7716,33.7716,0,0,0-.5886-6.7864l0-.0009a22.4029,22.4029,0,0,0-3.0459-6.8394,63.3574,63.3574,0,0,0-8.3442-10.3373,52.3749,52.3749,0,0,0-9.021-7.5654,39.8531,39.8531,0,0,0-8.7112-3.7094,134.5538,134.5538,0,0,0-16.5068-3.831c-5.5757-.981-10.84-1.6809-14.6091-2.1273C189.42,68.5715,174.7224,68.0013,160,68c-14.7234.0013-29.4209.5715-39.2461,1.7336-5.0256.5955-12.708,1.64-20.2461,3.2037-3.77.7824-7.5042,1.6938-10.87,2.7545a39.845,39.845,0,0,0-8.7112,3.7094A42.9918,42.9918,0,0,0,75.04,83.9589,72.6,72.6,0,0,0,66.0056,93.77a43.5765,43.5765,0,0,0-3.469,5.284,19.3772,19.3772,0,0,0-2.021,5.09,33.7082,33.7082,0,0,0-.59,6.7872,59.4828,59.4828,0,0,0,1.3926,12.6631A36.1785,36.1785,0,0,0,63.1152,129.4188Zm1.3123-24.44a18.6972,18.6972,0,0,1,2.5278-5.558A59.4877,59.4877,0,0,1,74.76,89.7689a48.7357,48.7357,0,0,1,8.2678-6.9641,36.15,36.15,0,0,1,7.8125-3.298A130.7714,130.7714,0,0,1,106.8379,75.8c5.4727-.9631,10.6714-1.6547,14.3865-2.0945C130.7576,72.5749,145.3916,71.9987,160,72c14.6074-.0013,29.2415.5749,38.7754,1.7058,4.9529.5862,12.5459,1.6212,19.9038,3.1481,3.678.7627,7.2969,1.6491,10.48,2.6528a36.1556,36.1556,0,0,1,7.8125,3.298,39.2128,39.2128,0,0,1,5.31,4.1257,68.6525,68.6525,0,0,1,8.52,9.25,39.6171,39.6171,0,0,1,3.15,4.7895,15.5448,15.5448,0,0,1,1.62,4.0079,30.0072,30.0072,0,0,1,.5012,5.9527,55.568,55.568,0,0,1-1.2942,11.78,32.2869,32.2869,0,0,1-1.5894,5.1744,12.6244,12.6244,0,0,1-2.0339,3.4973,6.3931,6.3931,0,0,1-2.1187,1.3373,31.343,31.343,0,0,1-5.7922,1.7244c-2.083.4457-4.1042.7592-5.531.9818a81.64,81.64,0,0,1-11.5911.9659,34.116,34.116,0,0,1-3.9922-.2067,11.974,11.974,0,0,1-2.8762-.642,21.4988,21.4988,0,0,1-5.2791-3.4714c-2.9651-2.457-6.2168-5.7222-9.4512-8.6453a57.9188,57.9188,0,0,0-4.8545-4.0046,19.1211,19.1211,0,0,0-4.8955-2.681,78.93,78.93,0,0,0-15.6074-3.1494,178.4554,178.4554,0,0,0-38.3337,0,78.93,78.93,0,0,0-15.6074,3.1494,22.6214,22.6214,0,0,0-6.5115,3.9107c-3.228,2.5826-6.5107,5.8655-9.64,8.7363-1.5615,1.4343-3.0811,2.7632-4.5,3.8375a17.2549,17.2549,0,0,1-3.8286,2.3177h0a11.9843,11.9843,0,0,1-2.8767.642,34.1041,34.1041,0,0,1-3.9919.2067,81.6176,81.6176,0,0,1-11.5908-.9659c-1.8992-.2957-4.8689-.7575-7.6077-1.4706a25.1076,25.1076,0,0,1-3.7156-1.2355,6.3963,6.3963,0,0,1-2.1187-1.3371,12.6259,12.6259,0,0,1-2.0344-3.4976,37.4549,37.4549,0,0,1-2.1558-8.1021,56.4256,56.4256,0,0,1-.728-8.8522A29.9523,29.9523,0,0,1,64.4275,104.9787Z" class="fill"/>
      <path d="M160,209.7754a21.8377,21.8377,0,0,0,15.1736-6.06,20.2426,20.2426,0,0,0,0-29.4115,22.0249,22.0249,0,0,0-30.3474,0,20.2426,20.2426,0,0,0,0,29.4115A21.8379,21.8379,0,0,0,160,209.7754Zm-12.4006-32.5895a18.0255,18.0255,0,0,1,24.801,0,16.2428,16.2428,0,0,1,0,23.6464,18.026,18.026,0,0,1-24.801,0,16.2428,16.2428,0,0,1,0-23.6464Z" class="fill"/>
      <path d="M68.85,231.2708a68.3073,68.3073,0,0,0,17.6748,9.7932c5.887,2.3232,11.2576,3.8224,14.3994,4.738a153.9321,153.9321,0,0,0,26.5205,4.6584C137.6208,251.488,148.81,252,160,252s22.3789-.5121,32.5552-1.54a153.9438,153.9438,0,0,0,26.5208-4.6584c2.0911-.6092,5.1826-1.4813,8.7478-2.6806a89.5935,89.5935,0,0,0,17.6743-7.91c5.8818-3.5752,11.2764-8.1982,14.3618-14.3132a24.6541,24.6541,0,0,0,2.1394-10.9852,67.4366,67.4366,0,0,0-2.1829-15.7269,119.5737,119.5737,0,0,0-8.9617-24.1671,82.0355,82.0355,0,0,0-5.7029-9.7819,32.8912,32.8912,0,0,0-5.866-6.7175l-1.2634,1.55,1.2634-1.55a6.3739,6.3739,0,0,0-2.5889-1.2174,12.2718,12.2718,0,0,0-2.8145-.2879,46.4572,46.4572,0,0,0-6.7883.7244,43.0349,43.0349,0,0,1-6.0208.6769,6.0486,6.0486,0,0,1-1.8987-.2341,22.0765,22.0765,0,0,1-6.4495-4.1753c-3.5671-3.04-7.4187-7.1642-11.2466-10.8628a68.442,68.442,0,0,0-5.7471-5.0638,21.5753,21.5753,0,0,0-5.8152-3.3563,65.9694,65.9694,0,0,0-13.4351-2.7926,149.3372,149.3372,0,0,0-32.9634,0,65.9545,65.9545,0,0,0-13.4341,2.7927,25.6781,25.6781,0,0,0-7.73,4.9094c-3.8225,3.2652-7.698,7.4294-11.4287,11.0278a64.64,64.64,0,0,1-5.4006,4.7659,17.7954,17.7954,0,0,1-4.6995,2.7549,6.0546,6.0546,0,0,1-1.9.2343,43.0273,43.0273,0,0,1-6.021-.6769,46.4643,46.4643,0,0,0-6.7883-.7244,12.2684,12.2684,0,0,0-2.8145.2879,6.3669,6.3669,0,0,0-2.5884,1.218,39.3488,39.3488,0,0,0-7.8015,9.6909,112.9053,112.9053,0,0,0-10.3108,22.65C59.84,194.1746,58.0059,202.69,58,209.9134a24.64,24.64,0,0,0,2.14,10.9856A32.0925,32.0925,0,0,0,68.85,231.2708Zm-4.7834-36.1271A115.6358,115.6358,0,0,1,72.72,171.8127a78.08,78.08,0,0,1,5.4167-9.299,29.1691,29.1691,0,0,1,5.1042-5.8931l.0007-.0006a2.4326,2.4326,0,0,1,.9829-.4254,8.3856,8.3856,0,0,1,1.8916-.18,43.34,43.34,0,0,1,6.1738.6769,45.9614,45.9614,0,0,0,6.6355.7244,9.8372,9.8372,0,0,0,3.2153-.4568,25.6782,25.6782,0,0,0,7.73-4.91c3.8225-3.2653,7.698-7.43,11.4287-11.0278a64.6139,64.6139,0,0,1,5.4006-4.7657A17.787,17.787,0,0,1,131.4,133.501a62.2159,62.2159,0,0,1,12.5889-2.5978,145.3543,145.3543,0,0,1,32.0222,0,62.2424,62.2424,0,0,1,12.59,2.5978,22.0726,22.0726,0,0,1,6.449,4.175c3.5671,3.04,7.4187,7.1641,11.2466,10.8626a68.4422,68.4422,0,0,0,5.7468,5.0639,21.5791,21.5791,0,0,0,5.8154,3.3565,9.8291,9.8291,0,0,0,3.2148.4568,45.9669,45.9669,0,0,0,6.635-.7244,43.3291,43.3291,0,0,1,6.1741-.6769,8.39,8.39,0,0,1,1.8918.18,2.4372,2.4372,0,0,1,.9844.4261h0a35.7751,35.7751,0,0,1,6.9207,8.6851,109.0063,109.0063,0,0,1,9.9231,21.8182c2.6748,8.0244,4.4031,16.2425,4.397,22.79a20.8388,20.8388,0,0,1-1.7131,9.188,28.1376,28.1376,0,0,1-7.65,9.0578,64.4548,64.4548,0,0,1-16.6294,9.1839c-5.67,2.2377-10.8809,3.696-14.05,4.6184a150.2064,150.2064,0,0,1-25.804,4.519C182.136,247.4925,171.0674,248,160,248s-22.1362-.5076-32.1536-1.5195a150.1994,150.1994,0,0,1-25.8037-4.519c-2.116-.6161-5.1294-1.4669-8.5913-2.6315a85.71,85.71,0,0,1-16.8745-7.538c-5.5122-3.3387-10.291-7.5557-12.8635-12.6907A20.8235,20.8235,0,0,1,62,209.9134,63.5978,63.5978,0,0,1,64.0664,195.1437Z" class="fill"/>
      <path d="M160,228.542a41.6743,41.6743,0,0,0,28.959-11.5643,38.4772,38.4772,0,0,0,0-55.9368,42.0409,42.0409,0,0,0-57.9177,0,38.4782,38.4782,0,0,0,0,55.9367A41.6726,41.6726,0,0,0,160,228.542Zm-26.1853-64.6186a38.0408,38.0408,0,0,1,52.3708,0,34.4768,34.4768,0,0,1,0,50.1716,38.0407,38.0407,0,0,1-52.3708,0,34.478,34.478,0,0,1,0-50.1717Z" class="fill"/>
      <polygon points="80.713 153.521 80.713 153.52 80.714 153.52 80.713 153.521" class="fill"/>
    </g>
  </g>
</svg>
