<svg xmlns="http://www.w3.org/2000/svg" viewBox="0 0 320 320">
  <title>_.support.infinity-filled</title>
  <g id="console">
    <path d="M281.7739,130.7136a65.31,65.31,0,0,0-24.4609-24.7894,66.4259,66.4259,0,0,0-33.3325-8.69,72.0051,72.0051,0,0,0-26.7855,5.1582,64.0123,64.0123,0,0,0-22.7715,15.3535A83.7416,83.7416,0,0,0,159.7618,139.74a178.4835,178.4835,0,0,0-6.723,16.752c-2.9032,8.1968-5.46,16.0073-8.6835,23.0029a74.5961,74.5961,0,0,1-5.4208,9.9106,54.4986,54.4986,0,0,1-7.0972,8.7344,35.85,35.85,0,0,1-13.1659,8.2021,48.8208,48.8208,0,0,1-16.6485,2.792v0h-.01l-.0159,0a59.6817,59.6817,0,0,1-19.072-3.2007A52.7375,52.7375,0,0,1,59.41,190.3389,39.77,39.77,0,0,1,50,164.2651v-.0181a57.4109,57.4109,0,0,1,4.0583-21.7964,47.1433,47.1433,0,0,1,18.1672-22.0424,51.6883,51.6883,0,0,1,28.2023-8.0372c11.61.0051,24.2905,3.4924,36.8187,11.5206a10,10,0,1,0,10.7977-16.8341c-15.485-9.9408-31.96-14.6874-47.6024-14.6868l-.0144,0h0A73.4142,73.4142,0,0,0,73.3741,97.44a67.2766,67.2766,0,0,0-31.2648,25.0914l.0012-.002C34.403,133.9939,29.9983,148.2588,30,164.1912l0,.0769v.0337l0,.01,0,.0466.0015.0139a60.0067,60.0067,0,0,0,6.5925,27.5635A62.2641,62.2641,0,0,0,48.5867,208.04,73.6043,73.6043,0,0,0,73.4106,223.752a79.7982,79.7982,0,0,0,28.6024,5.3806,68.7513,68.7513,0,0,0,23.5024-3.9983,55.8748,55.8748,0,0,0,20.4323-12.8206A79.8654,79.8654,0,0,0,161.19,190.6563a159.14,159.14,0,0,0,6.9149-16.7322c2.9514-8.2278,5.4888-16.1277,8.6566-23.27a66.3394,66.3394,0,0,1,12.2249-19.2,44.0308,44.0308,0,0,1,15.6786-10.5082,52.0324,52.0324,0,0,1,19.3-3.7122h.0128v-.0011l.0206,0v.0006a46.462,46.462,0,0,1,23.2729,5.9871A45.1237,45.1237,0,0,1,270,162.502a43.788,43.788,0,0,1-4.941,20.342,42.4291,42.4291,0,0,1-14.9126,16.1208,45.9956,45.9956,0,0,1-12.5327,5.5054,53.2579,53.2579,0,0,1-14.0956,1.8821c-.0063,0-.014,0-.0256,0a53.3864,53.3864,0,0,1-14.5363-2.0007,46.0478,46.0478,0,0,1-12.8925-5.8638,10,10,0,1,0-11.0721,16.655,65.97,65.97,0,0,0,18.4929,8.4448,73.8318,73.8318,0,0,0,39.4449.1626,65.9173,65.9173,0,0,0,17.9876-7.9331,62.4847,62.4847,0,0,0,21.8541-23.6843A63.7788,63.7788,0,0,0,290,162.502a65.4828,65.4828,0,0,0-8.2261-31.7883Z" class="fill"/>
  </g>
</svg>
