<svg xmlns="http://www.w3.org/2000/svg" viewBox="0 0 320 320">
  <title>_.support.brush-filled</title>
  <g id="console">
    <g>
      <path d="M39.2975,266.3c.0045.0016,7.0587,2.6479,15.7343,5.79,8.68,3.1437,18.9615,6.7778,25.5005,8.778l.0018.0006a4.1325,4.1325,0,0,0,1.07.151,3.4606,3.4606,0,0,1,.4075.0286l-.0018,0A58.54,58.54,0,0,0,92.6918,282a76.7353,76.7353,0,0,0,22.1411-3.4611,65.57,65.57,0,0,0,15.1338-6.5758c9.2355-5.8394,15.7047-12.0819,19.8807-18.4371a34.3111,34.3111,0,0,0,6.0318-18.9591,30.8038,30.8038,0,0,0-.7243-6.6315,36.4617,36.4617,0,0,0-13.54-20.6206,39.4327,39.4327,0,0,0-23.1837-8.4667h.0042q-.2867-.0053-.5662-.0049a30.5887,30.5887,0,0,0-17.9315,5.63c-5.4808,3.8951-10.1527,9.9243-13.3614,18.3279a168.9533,168.9533,0,0,1-7.6426,17.3949A67.9423,67.9423,0,0,1,74.38,247.81,25.1278,25.1278,0,0,1,69.76,252.98a23.0429,23.0429,0,0,1-5.5521,3.0391,84.9029,84.9029,0,0,1-11.8811,3.5731c-4.3125,1.0323-8.7651,1.9438-12.7848,2.8881a2,2,0,0,0-.245,3.82Z" class="fill"/>
      <path d="M136.9557,196.251a51.4486,51.4486,0,0,1,15.1785,11.1907,38.5368,38.5368,0,0,1,5.509,7.4418,21.9579,21.9579,0,0,1,2.6924,7.6345A2,2,0,0,0,163.39,223.94c40.4525-25.702,70.01-65.83,89.5227-99.5109C272.4182,90.7427,281.8606,63.47,281.89,63.3885a2.008,2.008,0,0,0,.09-.9343,17.9992,17.9992,0,0,0-2.0161-5.46,33.5134,33.5134,0,0,0-9.8925-11.025h0A43.2119,43.2119,0,0,0,256,39.4974a51.3338,51.3338,0,0,0-7.338-1.4861,1.9919,1.9919,0,0,0-1.4894.4486c-.0564.0519-40.7069,33.7206-72.8979,74.7728a432.3,432.3,0,0,0-48.4006,77.6215l.0076.0034a1.8723,1.8723,0,0,0-.1885.787l.0007.0416h-.0011l.0018.0425c0,.0237.0023.0507.0033.0784l.0021.0325c.0021.037.0065.0774.013.1238.0046.0365.0131.0771.0219.12.0065.03.0142.0618.0233.0959.012.0454.0267.093.0447.1453.0111.0342.0166.06.03.0983.017.0424.04.0909.0635.14l.0073.0187.0037.0056a2.0239,2.0239,0,0,0,.2265.3459c.0134.0166.0233.0313.0376.0481a2.0328,2.0328,0,0,0,.2589.2574c.0341.0292.0768.0514.1143.078.0151.0107.0228.0242.0385.0345.0115.0079.0259.01.0377.0173a2.0423,2.0423,0,0,0,.49.2257c.031.01.0578.0151.0887.0229a1.81,1.81,0,0,0,.4641.0676v.0022A23.8922,23.8922,0,0,1,136.9557,196.251Z" class="fill"/>
    </g>
  </g>
</svg>
