<svg xmlns="http://www.w3.org/2000/svg" viewBox="0 0 320 320">
  <title>_.support.car</title>
  <g id="console">
    <g>
      <path d="M99.55,234.9413a24.4246,24.4246,0,0,0,0-33.9647,23.1524,23.1524,0,0,0-33.288,0,24.4246,24.4246,0,0,0,0,33.9647,23.1524,23.1524,0,0,0,33.288,0ZM63.3915,217.959a20.2433,20.2433,0,0,1,5.7327-14.1884,19.152,19.152,0,0,1,27.563,0,20.4243,20.4243,0,0,1,0,28.3766,19.152,19.152,0,0,1-27.563,0A20.2433,20.2433,0,0,1,63.3915,217.959Z" class="fill"/>
      <path d="M254.7773,234.9413a24.4246,24.4246,0,0,0,0-33.9647,23.1528,23.1528,0,0,0-33.2884,0,24.4242,24.4242,0,0,0,0,33.9647,23.1528,23.1528,0,0,0,33.2884,0ZM218.6186,217.959a20.2433,20.2433,0,0,1,5.7327-14.1884,19.1526,19.1526,0,0,1,27.5635,0,20.4243,20.4243,0,0,1,0,28.3766,19.1526,19.1526,0,0,1-27.5635,0A20.2433,20.2433,0,0,1,218.6186,217.959Z" class="fill"/>
      <path d="M307.75,172.8959a22.23,22.23,0,0,0-7.4233-3.5182,65.0322,65.0322,0,0,0-13.6542-2.1044c-4.6337-.2948-9.0953-.2937-12.5289-.2938a19.9225,19.9225,0,0,1-8.1463-1.93c-4.8917-2.1853-9.9963-6.1539-15.1479-10.9229-7.7407-7.1506-15.5865-16.0537-23.548-23.2515a69.4165,69.4165,0,0,0-12.1263-9.0966A26.1413,26.1413,0,0,0,202.4292,118c-11.9527,0-41.8336,0-59.7617,0a28.008,28.008,0,0,0-10.2136,2.2007c-6.0834,2.4116-12.4164,6.5165-18.8924,11.2943-9.7021,7.1678-19.7153,15.8779-29.187,22.74a93.2835,93.2835,0,0,1-13.62,8.4714c-4.2955,2.0829-8.2764,3.2549-11.754,3.2491-10.7905.0006-19.3589,1.1656-26.1774,3.1327a44.2954,44.2954,0,0,0-12.556,5.6376,27.2329,27.2329,0,0,0-9.906,11.4126A27.53,27.53,0,0,0,8,197.5a30.1431,30.1431,0,0,0,1.2036,8.5609,17.5587,17.5587,0,0,0,1.6849,6.653,12.68,12.68,0,0,0,4.2177,4.9836,13.94,13.94,0,0,0,8.0379,2.2617H52.7793a2,2,0,0,0,1.9993-2.0533l-.0024-.0891a29.0218,29.0218,0,0,1,8.2193-20.3242,27.5012,27.5012,0,0,1,39.5717,0,29.0222,29.0222,0,0,1,8.2191,20.3242l-.0024.0891a2,2,0,0,0,1.9993,2.0533h95.376a2,2,0,0,0,1.9995-2.0458l-.0021-.0939a29.0219,29.0219,0,0,1,8.2194-20.327,27.5009,27.5009,0,0,1,39.5715,0,29.022,29.022,0,0,1,8.2193,20.3242l-.0024.0891a2,2,0,0,0,1.9993,2.0533h29.8843c1.4944,0,2.8318.0015,4.07-.0756a14.3794,14.3794,0,0,0,3.0713-.4755,7.4143,7.4143,0,0,0,2.413-1.167,6.9455,6.9455,0,0,0,1.6648-1.7917,12.9071,12.9071,0,0,0,1.6782-4.5612,70.74,70.74,0,0,0,.9269-11.3219C312,195.6077,312,189.3,312,181.2246a9.9429,9.9429,0,0,0-1.3187-5.0424A11.4268,11.4268,0,0,0,307.75,172.8959Zm.065,29.4935a58.3484,58.3484,0,0,1-.7778,8.6454,9.6345,9.6345,0,0,1-1.0529,3.1232,2.9263,2.9263,0,0,1-.9019.9669,5.4215,5.4215,0,0,1-2.4276.7c-1.1718.1292-2.7167.1351-4.6066.1338-2.1547,0-12.4805,0-27.9365,0a32.9827,32.9827,0,0,0-9.3016-21.2609,31.501,31.501,0,0,0-45.2962,0,32.9827,32.9827,0,0,0-9.3016,21.2609c-29.4741,0-62.0547,0-91.4809,0a32.9834,32.9834,0,0,0-9.3015-21.2609,31.5012,31.5012,0,0,0-45.2964,0,32.9827,32.9827,0,0,0-9.3016,21.2609c-8.2034,0-14.9365,0-19.6951,0-2.5669,0-4.565,0-5.9214,0s-2.069,0-2.071,0a9.9374,9.9374,0,0,1-5.7819-1.5649,8.2976,8.2976,0,0,1-2.349-2.4786A12.4205,12.4205,0,0,1,13.4222,207.7a13.9277,13.9277,0,0,1-.2035-1.4867c-.0142-.1774-.0209-.3136-.0241-.4l-.0026-.0906,0-.015h-.0005a2.0157,2.0157,0,0,0-.11-.6477h0A25.7216,25.7216,0,0,1,12,197.5a23.885,23.885,0,0,1,1.5341-8.5837,21.57,21.57,0,0,1,4.1289-6.7095c2.926-3.2542,7.3165-6.2983,13.9691-8.5552,6.6485-2.254,15.5527-3.6973,27.369-3.6963a28.0107,28.0107,0,0,0,10.2135-2.2007c6.0834-2.4116,12.4164-6.5165,18.8924-11.2943,9.7021-7.168,19.7153-15.8779,29.187-22.74a93.277,93.277,0,0,1,13.62-8.4714c4.2955-2.0829,8.2764-3.2549,11.7541-3.2491h59.7617a19.9216,19.9216,0,0,1,8.1461,1.93c4.8916,2.1853,9.9962,6.1539,15.1477,10.9229,7.7407,7.1506,15.5865,16.0537,23.5481,23.2515A69.4149,69.4149,0,0,0,261.3975,167.2a26.1431,26.1431,0,0,0,12.7455,3.7789c2.9866,0,6.6863.0006,10.5475.189,5.7847.2754,11.95,1.0067,16.4195,2.6757a13.6248,13.6248,0,0,1,5.1572,3.0833,6.2728,6.2728,0,0,1,1.2842,1.9318A6.0905,6.0905,0,0,1,308,181.2246C308,190.407,307.9993,197.2861,307.8145,202.3894Z" class="fill"/>
    </g>
  </g>
</svg>
