<svg xmlns="http://www.w3.org/2000/svg" viewBox="0 0 320 320">
  <title>_.support.plane-filled</title>
  <g id="console">
    <path d="M277.1162,44.0378h0a20.0276,20.0276,0,0,0-7.1154-4.6318,22.779,22.779,0,0,0-8.12-1.4067c-5.44.0049-11.1337,1.59-16.7679,4.012-8.4476,3.6406-16.7848,9.2007-23.7544,14.56a167.6924,167.6924,0,0,0-15.424,13.3945c-9.428,9.4277-9.428,9.4277-18.8562,18.8555a2.7524,2.7524,0,0,1-.8867.5222,13.0717,13.0717,0,0,1-3.2656.7358,43.5046,43.5046,0,0,1-5.1066.2563,190.8737,190.8737,0,0,1-21.7229-1.7461c-12.7632-1.5784-27.6323-3.9543-41.5-5.9387-13.8784-1.9832-26.7189-3.5823-35.64-3.5864a40.1927,40.1927,0,0,0-7.1606.5237,14.01,14.01,0,0,0-2.73.7681,6.6118,6.6118,0,0,0-2.1968,1.3953c-9.4276,9.4272-28.2836,28.2837-28.2836,28.2837a2,2,0,0,0,.46,3.1719l80.3978,43.6443L79.1755,207.3279a21.3816,21.3816,0,0,1-5.7061,4.2024,24.86,24.86,0,0,1-3.9623,1.4937,48.4542,48.4542,0,0,0-6.6266,2.22,26.12,26.12,0,0,0-7.7958,5.57,2,2,0,0,0,0,2.8284L65.6917,234.25l21.2129,21.2129,10.6071,10.6064a2,2,0,0,0,2.8284,0,25.366,25.366,0,0,0,5.0879-6.9009,26.2839,26.2839,0,0,0,1.6544-4.5181,39.4044,39.4044,0,0,1,1.9-5.968,22.5334,22.5334,0,0,1,4.8438-6.7034l50.4769-40.2678,43.6445,80.3972a2,2,0,0,0,3.172.46l28.2842-28.2842a6.6187,6.6187,0,0,0,1.3944-2.1965,16.8365,16.8365,0,0,0,1.0062-4.3044,47.3737,47.3737,0,0,0,.2849-5.5859,194.28,194.28,0,0,0-1.7761-22.2141c-1.5918-12.8684-3.9708-27.7512-5.9489-41.5759-1.9795-13.8135-3.55-26.6045-3.5461-35.0735a36.4581,36.4581,0,0,1,.4559-6.4248,10.1274,10.1274,0,0,1,.5363-1.9463,2.75,2.75,0,0,1,.5221-.886c9.4282-9.4282,9.4282-9.4282,18.8564-18.8569A169.3475,169.3475,0,0,0,269.93,92.417a100.7764,100.7764,0,0,0,9.2122-16.3757c2.422-5.6343,4.007-11.3281,4.012-16.7678a22.7866,22.7866,0,0,0-1.4065-8.1206A20.0182,20.0182,0,0,0,277.1162,44.0378Z" class="fill"/>
  </g>
</svg>
