<svg xmlns="http://www.w3.org/2000/svg" viewBox="0 0 320 320">
  <title>_.support.camera-filled</title>
  <g id="console">
    <g>
      <path d="M48.2637,240.9443H271.7363a2,2,0,0,0,2-2V99.2734a2,2,0,0,0-2-2H162V81.0557a2,2,0,0,0-2-2H76.1978a2,2,0,0,0-2,2V97.2734H48.2637a2,2,0,0,0-2,2V238.9443a2,2,0,0,0,2,2Zm104.4247-76.2886A39.9016,39.9016,0,1,1,164.3752,192.87,39.7679,39.7679,0,0,1,152.6884,164.6558ZM124.9512,137.71H90.308V122.874h34.6431Z" class="fill"/>
      <circle cx="192.5898" cy="164.6558" r="34.5898" class="fill"/>
    </g>
  </g>
</svg>
