<svg xmlns="http://www.w3.org/2000/svg" viewBox="0 0 320 320">
  <title>_.support.briefcase-outline</title>
  <g id="console">
    <g>
      <path d="M66.8745,159.28c11.1549,6.69,28.7157,11.8856,56.4585,11.8865h73.334c18.458-.0005,32.3647-1.7283,42.8806-4.3566a70.19,70.19,0,0,0,18.4082-7.1011c6.813-3.9683,10.3813-8.3458,12.1858-11.8149A14.518,14.518,0,0,0,272,141.6665a1.8779,1.8779,0,0,0-.0271-.3288l-4.583-27.5a1.95,1.95,0,0,0-.1841-.5658c-.1709-.3623-5.116-9.89-23.8113-19.2273a25.3225,25.3225,0,0,0-5.561-1.8846,65.8365,65.8365,0,0,0-9.74-1.3542c-3.2874-.24-6.4639-.309-9.0454-.309-1.5767,0-2.9116.0259-3.9314.0546a64.5829,64.5829,0,0,0-1.2336-9.8386,48.7562,48.7562,0,0,0-2.8894-9.3986A30.0818,30.0818,0,0,0,205.332,62.46c-4.6343-4.8818-10.8281-8.5035-18.4087-10.8925Q175.5455,47.9821,160,48q-16.786.0019-28.8267,4.3071c-8.0074,2.8839-14.4146,7.27-18.9948,13.1391a33.3428,33.3428,0,0,0-5.9375,13.3082A53.0531,53.0531,0,0,0,105.04,90.0811c0,.4708.0071.895.0168,1.2861-2.053-.1411-5.2827-.3119-8.9362-.3122a84.2156,84.2156,0,0,0-10.3.5668,29.5218,29.5218,0,0,0-9.2156,2.4229c-18.6953,9.3375-23.64,18.865-23.8113,19.2273a2.0067,2.0067,0,0,0-.1515.41L48.06,132.015a1.9511,1.9511,0,0,0-.06.485,21.85,21.85,0,0,0,1.2484,6.3616C51.08,144.3967,55.7164,152.5991,66.8745,159.28Zm-10.4152-44.373c.7059-1.216,5.726-9.1721,21.9351-17.2846a25.88,25.88,0,0,1,7.9274-2.032,80.3574,80.3574,0,0,1,9.7992-.5353c2.9941,0,5.72.12,7.69.24.9852.06,1.7819.12,2.33.1643.2739.0223.4856.0408.6276.0536s.2091.0195.2091.0195a2,2,0,0,0,2.1855-2.19l0-.0053c-.01-.1021-.1222-1.33-.1222-3.2558a49.1162,49.1162,0,0,1,1.1053-10.4571,29.4062,29.4062,0,0,1,5.1859-11.7161c4.062-5.197,9.7555-9.15,17.1989-11.838,7.4382-2.6842,16.6162-4.0712,27.47-4.07,10.0491-.001,18.6445,1.15,25.72,3.3827,7.08,2.2341,12.6267,5.5311,16.7112,9.8318a26.124,26.124,0,0,1,4.8889,7.684,49.014,49.014,0,0,1,3.3171,12.5773,55.5185,55.5185,0,0,1,.53,7.0187l0,.0863,0,.0222a2,2,0,0,0,2.1072,2.019l.0994-.005c.48-.0234,2.66-.12,5.6741-.12a111.5482,111.5482,0,0,1,11.9121.5866,53.0142,53.0142,0,0,1,5.9744.9744,21.4874,21.4874,0,0,1,4.6714,1.5647c8.9878,4.4944,14.533,8.95,17.8137,12.2294a31.5338,31.5338,0,0,1,3.3677,3.9019c.3267.4573.5481.8065.6824,1.03.0156.0261.019.0332.0322.0558l4.4893,26.9372c-.0032.04-.0056.0743-.0122.1339a12.8336,12.8336,0,0,1-1.8386,4.95c-2.1638,3.6351-6.8528,8.6568-17.3845,12.8459-10.5247,4.1807-26.8816,7.4622-52.0884,7.46H123.333c-18.1676,0-31.7051-2.273-41.7633-5.6265-15.09-5.0436-22.356-12.4381-25.9877-18.4675a26.5374,26.5374,0,0,1-3.15-7.6385,18.4964,18.4964,0,0,1-.3824-2.2335c-.0222-.2154-.0332-.374-.04-.4933Z" class="fill"/>
      <path d="M123.8867,95.5414H196.11a2.0016,2.0016,0,0,0,1.9978-1.9089c.0012-.0259.0225-.5056.0225-1.312a48.5478,48.5478,0,0,0-.813-8.8862,29.215,29.215,0,0,0-1.6077-5.5506,16.0409,16.0409,0,0,0-3.0928-4.9694,32.1718,32.1718,0,0,0-12.4749-8.1136C174.8452,62.8444,168.2976,61.75,160,61.75c-8.82.0018-15.6206.9948-21.0657,3.0273a27.7274,27.7274,0,0,0-12.5935,9.1307h0a16.7149,16.7149,0,0,0-2.5485,5.0411,39.3311,39.3311,0,0,0-1.6217,8.22c-.2532,2.5365-.29,4.6626-.29,5.7166,0,.4406.0066.6935.007.71A1.9964,1.9964,0,0,0,123.8867,95.5414ZM129.4937,76.37a23.6791,23.6791,0,0,1,10.8411-7.8454C145.1418,66.7246,151.4763,65.7482,160,65.75c7.95,0,14.0164,1.0511,18.7559,2.8029a28.1342,28.1342,0,0,1,10.9612,7.1163,12.1036,12.1036,0,0,1,2.2947,3.7388,28.892,28.892,0,0,1,1.7632,7.212,46.4074,46.4074,0,0,1,.3479,4.9216H125.9a52.9832,52.9832,0,0,1,.5577-6.4164,30.8237,30.8237,0,0,1,1.1324-4.9206,12.84,12.84,0,0,1,1.903-3.8343l-1.5762-1.2311Z" class="fill"/>
      <path d="M48,233.3335c-.0059,9.4961,2.3929,16.8084,6.0651,22.3072a33.1716,33.1716,0,0,0,9.7672,9.5158,44.44,44.44,0,0,0,15.3809,5.9905A42.5724,42.5724,0,0,0,86.667,272H233.9238a46.2006,46.2006,0,0,0,18.9441-4.8,33.8128,33.8128,0,0,0,13.1675-11.5714c3.6123-5.4986,5.97-12.8041,5.9644-22.2947v-77.917c0-.0269-.0068-.052-.0081-.0787a2.0218,2.0218,0,0,0-.0317-.3182c-.01-.0485-.0291-.0928-.0422-.14a2.0393,2.0393,0,0,0-.0728-.2351c-.0244-.058-.0586-.11-.0881-.1651a1.9251,1.9251,0,0,0-.0947-.1748,2.0052,2.0052,0,0,0-.5466-.5483c-.0544-.0366-.1143-.0623-.1716-.0932a1.9148,1.9148,0,0,0-.1689-.0906,1.98,1.98,0,0,0-.2454-.0763c-.0435-.012-.0842-.03-.1287-.0392a2.0177,2.0177,0,0,0-.3909-.04l-.0081-.0009h0a2.02,2.02,0,0,0-.3989.04c-.0427.0086-.0815.0259-.123.0372a1.2085,1.2085,0,0,0-.4263.171c-.0552.03-.113.0542-.1653.0894a2.0056,2.0056,0,0,0-.5486.5477c-.0347.0515-.0588.1083-.0886.1625-.032.059-.0686.1152-.095.1776a1.9886,1.9886,0,0,0-.07.2256c-.0144.05-.0347.0972-.0452.1486a2.036,2.036,0,0,0-.0322.3147c-.001.02-.0059.0393-.0061.06H268s-.0015.0766-.0188.2376a12.419,12.419,0,0,1-1.6094,4.5557c-1.8928,3.3747-5.978,8.0784-15.156,12.2059-9.1726,4.1194-23.4409,7.6033-45.4517,8.3573a1.9966,1.9966,0,0,0-1.9312,1.9988v.1709a7.167,7.167,0,0,1-7.166,7.167H123.333a7.1667,7.1667,0,0,1-7.1661-7.167v-.1992a1.999,1.999,0,0,0-1.92-1.9984c-15.8782-.6356-27.7126-2.9269-36.5042-5.958C64.55,170.2036,58.218,164.045,55.08,159.1651a20.7589,20.7589,0,0,1-2.7137-6.0972,13.4556,13.4556,0,0,1-.3257-1.7348c-.0222-.1941-.0325-.3369-.0372-.4227L52,150.8253v-.0092h-.0013c0-.0194-.0051-.0375-.0059-.0567a2.04,2.04,0,0,0-.0334-.3267c-.0092-.0448-.0272-.0858-.0393-.1294a1.9744,1.9744,0,0,0-.0764-.2454c-.0225-.0531-.0543-.1005-.0811-.1512a1.9833,1.9833,0,0,0-.1025-.1887,2.0082,2.0082,0,0,0-.5474-.5466,1.9608,1.9608,0,0,0-.1885-.102c-.0508-.0267-.0984-.0588-.1519-.0811a1.9756,1.9756,0,0,0-.2529-.0782c-.0413-.0111-.08-.0284-.1221-.0369a2.0029,2.0029,0,0,0-.7979.0007c-.0425.0086-.0811.0259-.1226.0372a1.9778,1.9778,0,0,0-.252.0783c-.0565.0237-.1069.0576-.1608.0863a1.9727,1.9727,0,0,0-.1793.0975,2.0081,2.0081,0,0,0-.5469.548,1.9779,1.9779,0,0,0-.0967.1783c-.0287.054-.0624.1049-.0862.1617a1.9888,1.9888,0,0,0-.0747.2408c-.0125.0452-.031.0878-.04.1342a1.9955,1.9955,0,0,0-.033.3275c-.001.0237-.0071.0459-.0071.07,0,.0029,0,1.07,0,2.97C48,167.1035,48,221.07,48,233.3335Zm16.6732-60.1094c9.5378,5.6064,24.4078,10.2687,47.6382,11.4012a11.1593,11.1593,0,0,0,11.0216,9.4582h73.334a11.1592,11.1592,0,0,0,11.0142-9.4112c15.2734-.6376,26.9121-2.5842,35.7944-5.2078C257.0649,175.455,264.25,169.8261,268,164.9418c0,18.4111,0,58.0078,0,68.3917-.0056,8.8425-2.1575,15.2869-5.3093,20.1008a28.8952,28.8952,0,0,1-8.4583,8.3655,39.3993,39.3993,0,0,1-13.7429,5.4229,43.1586,43.1586,0,0,1-4.792.6823c-.5811.0483-1.0366.0721-1.3406.0838-.1521.0058-.2664.0086-.34.01l-.0789.0011-.0146,0H86.6563a43.7776,43.7776,0,0,1-17.8356-4.5789,29.9851,29.9851,0,0,1-11.5771-10.226c-3.12-4.7885-5.2382-11.1625-5.2437-19.8615v-71.582A37.8955,37.8955,0,0,0,64.6732,173.2241Z" class="fill"/>
    </g>
  </g>
</svg>
