<svg xmlns="http://www.w3.org/2000/svg" viewBox="0 0 320 320">
  <title>_.support.pipette-filled</title>
  <g id="console">
    <g>
      <path d="M268.3125,82.48a12.4086,12.4086,0,0,0,2.8105-4.2522A13.0186,13.0186,0,0,0,272,73.4391a19.9557,19.9557,0,0,0-2.3948-8.9687,33.7055,33.7055,0,0,0-9.7683-11.3448,28.452,28.452,0,0,0-6.3965-3.6208,18.4993,18.4993,0,0,0-6.7734-1.3977,13.0188,13.0188,0,0,0-4.7883.8767,12.4036,12.4036,0,0,0-4.2517,2.8114c-5.6689,5.6688-11.9727,11.9724-17.1567,17.1567l-17.1562-17.157a8.5659,8.5659,0,1,0-12.1143,12.1138L209.77,82.48l27.8564,27.8574.0061.005,18.5652,18.5662a8.5662,8.5662,0,0,0,12.1147-12.1143l-1.4143,1.4141,1.4141-1.4143-17.157-17.157C256.34,94.4529,262.6433,88.1487,268.3125,82.48Z" class="fill"/>
      <path d="M74.344,208.7183c-2.9939,5.7457-3.5815,10.5612-4.2749,14.4459a25.2055,25.2055,0,0,1-1.37,5.2416,13.8052,13.8052,0,0,1-3.1348,4.6312s-4.6436,4.6423-9.2861,9.285c-5.7085,5.7078-8.2732,11.6144-8.2791,16.7987A12.44,12.44,0,0,0,60.8784,272c5.1846-.0059,11.0913-2.57,16.7993-8.278,4.6428-4.6427,9.2854-9.2863,9.2854-9.2863a13.8972,13.8972,0,0,1,6.2593-3.7028,51.4347,51.4347,0,0,1,5.6338-1.152,41.1463,41.1463,0,0,0,11.0085-3.2261,50.4868,50.4868,0,0,0,14.2407-10.4894L235.5332,124.4376a2,2,0,0,0,0-2.8285L198.3906,84.4666a2,2,0,0,0-2.8284,0L84.1345,195.8943A52.63,52.63,0,0,0,74.344,208.7183Z" class="fill"/>
    </g>
  </g>
</svg>
