<svg xmlns="http://www.w3.org/2000/svg" viewBox="0 0 320 320">
  <title>_.tag</title>
  <g id="camera">
    <g>
      <path d="M281.4141,182.5858l-144-144A2.0133,2.0133,0,0,0,136,38H40a2,2,0,0,0-2,2v96a2.0126,2.0126,0,0,0,.5857,1.4142l144,144a2,2,0,0,0,2.8284,0l96-96a2,2,0,0,0,0-2.8284ZM184,277.1716l-142-142V42h93.1719l142,142Z" class="fill"/>
      <path d="M74.3828,52.1914A22.1916,22.1916,0,1,0,96.574,74.3833,22.1921,22.1921,0,0,0,74.3828,52.1914Zm12.863,35.0551a18.1913,18.1913,0,1,1,5.3284-12.8632A18.1257,18.1257,0,0,1,87.2458,87.2465Z" class="fill"/>
    </g>
  </g>
</svg>
