<svg xmlns="http://www.w3.org/2000/svg" viewBox="0 0 320 320">
  <title>_.trash-filled</title>
  <g id="camera">
    <g>
      <path d="M169.5557,26H150.4443A28.4741,28.4741,0,0,0,122,54.4443V62H70.4443A8.4445,8.4445,0,0,0,62,70.4443v29.7778a8.4445,8.4445,0,0,0,8.4443,8.4443H249.5557A8.4444,8.4444,0,0,0,258,100.2222V70.4443A8.4445,8.4445,0,0,0,249.5557,62H198l0-7.5557A28.474,28.474,0,0,0,169.5557,26ZM150.4443,38h19.1113A16.4655,16.4655,0,0,1,186,54.4443V62H134V54.4443A16.4655,16.4655,0,0,1,150.4443,38Z" class="fill"/>
      <path d="M85.333,112a2,2,0,0,0-2,2V275.5557A14.4449,14.4449,0,0,0,97.7773,290H222.2227a14.4448,14.4448,0,0,0,14.4441-14.4443V114a2,2,0,0,0-2-2Zm114,152.6665h-4V130h4Zm-37.333,0h-4V130h4Zm-37.333,0h-4V130h4Z" class="fill"/>
    </g>
  </g>
</svg>
