<svg xmlns="http://www.w3.org/2000/svg" viewBox="0 0 320 320">
  <title>_.utility.calendar-filled</title>
  <g id="briefcase">
    <path d="M259.9688,49H60.0313A11.0317,11.0317,0,0,0,49,60.0313V259.9688A11.0316,11.0316,0,0,0,60.0313,271H259.9688A11.0315,11.0315,0,0,0,271,259.9688V60.0313A11.0316,11.0316,0,0,0,259.9688,49ZM91.35,219.59l36.3716-29.6472c7.6354-6.24,13.2938-11.4905,17.0851-16.7632a27.5837,27.5837,0,0,0,5.6771-16.7614,23.8211,23.8211,0,0,0-6.975-17.4879c-4.6993-4.5466-11.7664-7.3342-21.1427-7.33-9.2905-.0062-15.9758,2.7905-20.3824,7.1158a23.6764,23.6764,0,0,0-6.7354,14.66l-4.1562-1.1888c1.0238-8.7531,5.0043-14.7914,10.6569-18.7684,5.8325-4.0934,13.5073-5.95,21.4921-5.9482,10.302.0035,18.2437,3.0833,23.6263,8.2376,5.3795,5.158,8.2593,12.4352,8.2643,21.06a28.6655,28.6655,0,0,1-5.549,17.4218c-3.88,5.554-10.0274,11.3354-18.9258,18.5807l.0024-.002-32.8911,26.62a1,1,0,0,0-.078,1.4844l.1753.1753a1.0065,1.0065,0,0,0,.7071.2929h57.0845v4.13H91.35Zm134.8068-74.066,0,.0007c1.5576-2.7723,3.1638-5.2932,4.3809-7.1425.6089-.9251,1.12-1.6817,1.4828-2.2237.1818-.2717.3257-.4883.4318-.6546l.1378-.2258.0673-.13.0475-.12a.9956.9956,0,0,0,.053-.3256,1.0067,1.0067,0,0,0-.2928-.7071l-.1748-.1748a.9989.9989,0,0,0-.7334-.2926c-.0041,0-1.6577.0436-4.06.0872s-5.5463.0873-8.5107.0873H171v-4.3047h66.9312v4.1671l-51.72,91.9066h-4.8814ZM51,60.0313A9.0313,9.0313,0,0,1,60.0313,51H259.9688A9.0314,9.0314,0,0,1,269,60.0313V89H221V86.6665a11.6057,11.6057,0,0,0-.6887-3.6844,6.7006,6.7006,0,0,0-1.7563-2.6879,5.53,5.53,0,0,0-7.11,0,7.6023,7.6023,0,0,0-2.157,4.0435A11.6047,11.6047,0,0,0,209,86.6665V89H111V86.6665a11.61,11.61,0,0,0-.6887-3.6844,6.7012,6.7012,0,0,0-1.7563-2.6879,5.53,5.53,0,0,0-7.11,0,7.6022,7.6022,0,0,0-2.1569,4.0435A11.6076,11.6076,0,0,0,99,86.6665V89H51Z" class="fill"/>
  </g>
</svg>
