<svg xmlns="http://www.w3.org/2000/svg" viewBox="0 0 320 320">
  <title>_.utilities.briefcase-solid</title>
  <g id="briefcase">
    <g>
      <path d="M267.4092,83.4194H202.545a34.229,34.229,0,0,0-6.2582-18.4306,26.8246,26.8246,0,0,0-9.5284-8.16A32.82,32.82,0,0,0,171.645,53.5H147.7095a32.82,32.82,0,0,0-15.1133,3.3288,27.7753,27.7753,0,0,0-12.483,13.1481,35.01,35.01,0,0,0-3.2945,13.4425H51.9458A12.9459,12.9459,0,0,0,39,96.3652v131.689A12.9459,12.9459,0,0,0,51.9458,241H267.4092a12.9462,12.9462,0,0,0,12.9458-12.9457V96.3652A12.9462,12.9462,0,0,0,267.4092,83.4194ZM278.355,228.0542A10.9459,10.9459,0,0,1,267.4092,239H51.9458A10.9456,10.9456,0,0,1,41,228.0542V96.3652A10.9456,10.9456,0,0,1,51.9458,85.4194h65.8447a1,1,0,0,0,1-1,32.2543,32.2543,0,0,1,5.8921-18.25,24.8178,24.8178,0,0,1,8.8223-7.5586,30.8222,30.8222,0,0,1,14.2046-3.11H171.645A30.8242,30.8242,0,0,1,185.85,58.61,25.7705,25.7705,0,0,1,197.4341,70.833a32.8694,32.8694,0,0,1,3.13,13.5864,1,1,0,0,0,1,1h65.8447A10.9459,10.9459,0,0,1,278.355,96.3652Z" class="fill"/>
      <path d="M190.5963,84.39h0a24.9564,24.9564,0,0,0-2.6289-10.0292,15.5853,15.5853,0,0,0-6.4377-6.7031,20.5,20.5,0,0,0-9.8845-2.19H147.7095a19.9891,19.9891,0,0,0-10.69,2.6949,16.9839,16.9839,0,0,0-7.1329,9.46,23.1493,23.1493,0,0,0-1.1284,6.7968,1,1,0,0,0,1,1h59.8384a.9976.9976,0,0,0,.9983-1.0219h.0015ZM138.0681,69.8659a17.9947,17.9947,0,0,1,9.6414-2.3982H171.645a18.5232,18.5232,0,0,1,8.9324,1.9489,13.5717,13.5717,0,0,1,5.6174,5.8708,22.0594,22.0594,0,0,1,2.0714,6.2482c.1347.7527.2129,1.3917.26,1.8838H130.7955a20.588,20.588,0,0,1,2.2748-8.1885A14.0242,14.0242,0,0,1,138.0681,69.8659Z" class="fill"/>
    </g>
  </g>
</svg>
