<svg xmlns="http://www.w3.org/2000/svg" viewBox="0 0 320 320">
  <title>_.utilities.calendar</title>
  <g id="briefcase">
    <g>
      <path d="M155.522,225.4712H86.35v-6.31l38.5132-31.3928.0008-.0007c8.0782-6.6017,14.0629-12.1559,18.07-17.7285a29.1324,29.1324,0,0,0,5.997-17.7042c.004-7.0777-2.4-13.6695-7.3637-18.4652-4.9606-4.7993-12.4228-7.7451-22.3345-7.7408-9.8208-.0062-16.8783,2.9487-21.53,7.5139A25.3543,25.3543,0,0,0,90.4619,150.42a1,1,0,1,0,1.9961.1246,23.3575,23.3575,0,0,1,6.6448-15.4725c4.2359-4.1456,10.6945-6.9362,20.13-6.9423,9.5292.0042,16.4161,2.8038,20.9444,7.1787,4.5256,4.3784,6.75,10.39,6.7538,17.0273-.0079,6.0969-1.8065,11.2135-5.6213,16.5372-3.816,5.3162-9.6809,10.7895-17.7106,17.3465l.0008-.0007L84.7183,217.9114a1.0014,1.0014,0,0,0-.3682.7751v7.7847a1,1,0,0,0,1,1H155.522a1,1,0,0,0,0-2Z" class="fill"/>
      <path d="M235.522,128.4614a.9989.9989,0,0,0-.7334-.2926c-.0043,0-1.7546.0462-4.2968.0923s-5.87.0924-9.0079.0924H169.6426a1,1,0,0,0,0,2h51.8413c4.4969,0,9.3487-.0938,11.7777-.1479-.51.7593-1.2052,1.7965-2.0087,3.0392-1.1823,1.8285-2.5928,4.0934-3.9753,6.5539l0,.0008-48.3242,86.1826a1,1,0,1,0,1.7445.9781l48.3242-86.1826,0,.0007c1.6494-2.9357,3.35-5.6046,4.6385-7.5624.6445-.9793,1.1856-1.78,1.57-2.3536.1923-.2874.3445-.5164.4562-.6915l.1442-.2363.069-.1332.048-.1213a1.0074,1.0074,0,0,0-.24-1.0337Z" class="fill"/>
      <path d="M259.9688,49H60.0313A11.0317,11.0317,0,0,0,49,60.0313V259.9688A11.0316,11.0316,0,0,0,60.0313,271H259.9688A11.0316,11.0316,0,0,0,271,259.9688V60.0313A11.0317,11.0317,0,0,0,259.9688,49ZM53.6452,53.6452A8.9984,8.9984,0,0,1,60.0313,51H259.9688A9.0313,9.0313,0,0,1,269,60.0313V89H221V86.6665a11.61,11.61,0,0,0-.6887-3.6844,6.7012,6.7012,0,0,0-1.7563-2.6879,5.53,5.53,0,0,0-7.11,0,7.6022,7.6022,0,0,0-2.1569,4.0435A11.6076,11.6076,0,0,0,209,86.6665V89H111V86.6665a11.61,11.61,0,0,0-.6887-3.6844,6.7012,6.7012,0,0,0-1.7563-2.6879,5.53,5.53,0,0,0-7.11,0,7.6022,7.6022,0,0,0-2.1569,4.0435A11.6076,11.6076,0,0,0,99,86.6665V89H51V60.0313A8.9984,8.9984,0,0,1,53.6452,53.6452Zm212.71,212.71A8.9987,8.9987,0,0,1,259.9688,269H60.0313A9.0314,9.0314,0,0,1,51,259.9688V91H99v2.3335a11.61,11.61,0,0,0,.6887,3.6844,6.7014,6.7014,0,0,0,1.7563,2.6879,5.5295,5.5295,0,0,0,7.11,0,7.6019,7.6019,0,0,0,2.1569-4.0435A11.6077,11.6077,0,0,0,111,93.3335V91h98v2.3335a11.61,11.61,0,0,0,.6887,3.6844,6.7014,6.7014,0,0,0,1.7563,2.6879,5.5295,5.5295,0,0,0,7.11,0,7.6019,7.6019,0,0,0,2.1569-4.0435A11.6077,11.6077,0,0,0,221,93.3335V91h48V259.9688A8.9986,8.9986,0,0,1,266.3548,266.3547Z" class="fill"/>
    </g>
  </g>
</svg>
