<svg xmlns="http://www.w3.org/2000/svg" viewBox="0 0 320 320">
  <title>_.weather.rain</title>
  <g id="briefcase">
    <path d="M52.1259,157.7964a18.2925,18.2925,0,0,0,10.3692,3.2031H243.8857l.0807,0a48.6766,48.6766,0,0,0,19.1509-4.3685,31.0916,31.0916,0,0,0,12.3351-10.0983c3.3555-4.7681,5.5511-11.0994,5.5475-19.3713q0-1.6576-.119-3.4205c-.6166-9.0745-3.1122-15.9846-6.5653-21.2051A34.94,34.94,0,0,0,255.74,88.7031a41.7708,41.7708,0,0,0-10.9244-2.0625,67.4553,67.4553,0,0,0-5.0909-19.449A64.3351,64.3351,0,0,0,208.33,33.9439a44.8651,44.8651,0,0,0-20.0128-4.593c-11.2211.0032-21.4627,3.828-28.91,7.6326a78.8561,78.8561,0,0,0-11.44,7.0892,56.7282,56.7282,0,0,0-9.7388-7.2338A53.6387,53.6387,0,0,0,110.9164,29c-8.8407-.0026-18.8265,2.4078-29.4321,9.0357A39.272,39.272,0,0,0,65.5714,56.957,52.2378,52.2378,0,0,0,62.017,76.4247a57.5373,57.5373,0,0,0,.863,10.13,37.896,37.896,0,0,0-11.1338,8.5792c-5.9861,6.5557-12.101,17.3732-12.7283,34.1874q-.0179.4752-.0179.9655a39.2113,39.2113,0,0,0,5.804,19.68A25.9182,25.9182,0,0,0,52.1259,157.7964ZM41,130.2872q0-.4537.0164-.89c.6226-16.36,6.507-26.6534,12.2077-32.915a38.56,38.56,0,0,1,7.7536-6.5681,28.4869,28.4869,0,0,1,2.5052-1.4282c.2983-.1492.53-.2562.684-.3248l.1714-.0745.04-.0164.0074-.003a1.0016,1.0016,0,0,0,.6055-1.1514l-.0091-.041a52.9076,52.9076,0,0,1-.9646-10.45,50.259,50.259,0,0,1,3.408-18.7168,37.2571,37.2571,0,0,1,15.119-17.9761C92.86,33.2908,102.4387,31.0024,110.9164,31a51.6463,51.6463,0,0,1,26.29,7.558,57.9311,57.9311,0,0,1,7.3865,5.2018c.8506.7078,1.5008,1.296,1.9356,1.7044.2174.2042.381.3635.4889.47l.12.12.0349.0356a.9983.9983,0,0,0,1.3529.0817l.0463-.0373a74.5908,74.5908,0,0,1,12.4355-7.7184c7.2043-3.5981,16.887-7.0681,27.3106-7.0652a42.8585,42.8585,0,0,1,19.13,4.3877,62.32,62.32,0,0,1,30.4358,32.2333A68.832,68.832,0,0,1,242.1223,81.94c.3365,1.7839.5281,3.2244.6353,4.2139.0536.4948.0861.8768.105,1.1328.01.1279.0156.2244.0193.2876l.0047.0883a.9984.9984,0,0,0,1.0157.9566l.0536,0a39.2667,39.2667,0,0,1,17.2107,4.5818,31.6336,31.6336,0,0,1,11.4805,10.4385c3.2465,4.9133,5.6383,11.4554,6.2383,20.238q.1156,1.698.1143,3.2847c-.0036,7.9241-2.0769,13.7954-5.1838,18.2213-4.6562,6.6318-11.7427,10.0562-17.8953,11.8057A47.2007,47.2007,0,0,1,243.9664,159l-.0684,0H62.4951a16.28,16.28,0,0,1-9.2521-2.8621c-3.9966-2.686-7.0812-7.0518-9.1428-11.8156A36.8067,36.8067,0,0,1,41,130.2872Z" class="fill"/>
    <path d="M211.1289,278.65a9.5319,9.5319,0,0,0,8.8831-13.0854l-34.2856-85.3955a9.5667,9.5667,0,1,0-17.7725,7.087l34.2856,85.396A9.5725,9.5725,0,0,0,211.1289,278.65Zm-41.8624-94.935a7.5766,7.5766,0,0,1,14.6037-2.801L218.156,266.31a7.516,7.516,0,0,1-4.2175,9.798,7.5781,7.5781,0,0,1-9.843-4.2008L169.81,186.5107A7.4875,7.4875,0,0,1,169.2665,183.7148Z" class="fill"/>
    <path d="M152.8623,227.412A9.5325,9.5325,0,0,0,161.6941,214.2l-14.2857-34.1583a9.5668,9.5668,0,1,0-17.6694,7.341l14.2852,34.1582A9.5746,9.5746,0,0,0,152.8623,227.412ZM131,183.7157a7.5772,7.5772,0,0,1,14.5632-2.9022l14.2857,34.1583a7.5176,7.5176,0,0,1-4.0762,9.8581,7.5826,7.5826,0,0,1-9.9034-4.06l-14.2852-34.1582A7.4869,7.4869,0,0,1,131,183.7157Z" class="fill"/>
    <path d="M244.9572,257.1a9.5178,9.5178,0,0,0,5.3649-12.3883l-25.7144-64.5212a9.5672,9.5672,0,1,0-17.791,7.0431l25.7139,64.5211A9.58,9.58,0,0,0,244.9572,257.1Zm-10.5688-6.0859-25.7138-64.5208a7.5172,7.5172,0,0,1,4.2422-9.7883,7.5795,7.5795,0,0,1,9.8329,4.2259l25.7144,64.5211a7.5178,7.5178,0,0,1-4.2427,9.7883,7.58,7.58,0,0,1-9.8331-4.2262Z" class="fill"/>
  </g>
</svg>
