<svg xmlns="http://www.w3.org/2000/svg" viewBox="0 0 320 320">
  <title>_.weather.moon-sharp</title>
  <g id="briefcase">
    <path d="M158.1915,240.468a.9989.9989,0,0,0,1.01.524c1.7108-.217,3.4189-.4678,5.111-.7889a82.0687,82.0687,0,0,0,0-161.2291c-1.6922-.3212-3.4-.5714-5.1106-.7889a1,1,0,0,0-.876,1.6536,120.5883,120.5883,0,0,1,0,159.5A.9988.9988,0,0,0,158.1915,240.468Zm32.27-80.8792A122.1179,122.1179,0,0,0,161.5684,80.536c.796.1224,1.5873.2543,2.3706.403a80.0687,80.0687,0,0,1,0,157.2993c-.7835.1487-1.5749.2808-2.3709.4032A122.1175,122.1175,0,0,0,190.4619,159.5889Z" class="fill"/>
  </g>
</svg>
