<svg xmlns="http://www.w3.org/2000/svg" viewBox="0 0 320 320">
  <title>_.weather.thunder-filled</title>
  <g id="briefcase">
    <path d="M71.4795,103.3666a13.8329,13.8329,0,0,0,11.1968,4.9249H222.2178l.0619,0a37.8333,37.8333,0,0,0,14.8292-3.3644,24.1238,24.1238,0,0,0,9.5795-7.803c2.6107-3.6885,4.3147-8.5884,4.311-14.96q0-1.2764-.0917-2.6339c-.4763-6.9789-2.4088-12.3107-5.09-16.3415a27.103,27.103,0,0,0-14.411-10.6768,32.6711,32.6711,0,0,0-8.2438-1.5781,42.8047,42.8047,0,0,0-3.6384-13.7152c-3.5807-8.0147-10.7092-17.4861-24.6212-23.1611C185.8586,10.3633,178.2385,9,171.93,9a34.2616,34.2616,0,0,0-18.5189,4.9528,24.29,24.29,0,0,0-5.3052,4.4035,46.1811,46.1811,0,0,0-18.9047-4.0329c-9.4359-.0089-21.1631,2.9991-32.2942,13.7883a54.6045,54.6045,0,0,0-11.17,14.46,25.439,25.439,0,0,0-2.9562,11.4093A18.367,18.367,0,0,0,85.21,63.2368a16.6757,16.6757,0,0,0,1.1919,1.7871,19.619,19.619,0,0,0-5.8949,2.32c-4.1979,2.4678-9.0089,7.3427-11.5612,16.6044l0,.0009q-.0762.2762-.1484.5544l0-.0016a29.01,29.01,0,0,0-.96,7.2491A18.2412,18.2412,0,0,0,71.4795,103.3666Z" class="fill"/>
    <path d="M134.1179,310.976a1,1,0,0,0,1.171-.6749l37.647-119.2148a1,1,0,0,0-1.2283-1.2627l-20.3971,5.8276L166.69,115.6805a1,1,0,0,0-.9819-1.1888H137.4727a1.0017,1.0017,0,0,0-.9906.8624l-15.686,112.94a1,1,0,0,0,1.4377,1.032l23.41-11.7049-12.2994,92.2462A1,1,0,0,0,134.1179,310.976Z" class="fill"/>
    <path d="M216.1646,136.1971l-12.5371,4.9254-2.5269-25.7286a1.0021,1.0021,0,0,0-.9951-.9022h-19.01a1,1,0,0,0-.9884,1.1522l7.74,50.252a1,1,0,0,0,1.34.7839l13.7211-5.1541,6.6062,40.6718a1,1,0,0,0,1.9828-.0678l6.0288-64.9092a1,1,0,0,0-1.3613-1.0233Z" class="fill"/>
    <path d="M125.0452,114.923a1.0019,1.0019,0,0,0-.8225-.4313H106.1089a.9972.9972,0,0,0-.9562.707L84.3173,183.2041a1,1,0,0,0,.9562,1.293h9.5157L76.9545,242.709a1,1,0,0,0,1.8348.77l41.5537-76.5063a1,1,0,0,0-.8787-1.4773h-13.045l18.7389-49.6508A1.0023,1.0023,0,0,0,125.0452,114.923Z" class="fill"/>
  </g>
</svg>
