<svg xmlns="http://www.w3.org/2000/svg" viewBox="0 0 320 320">
  <title>_.weather.fog</title>
  <g id="briefcase">
    <path d="M86.1328,155.5454H196.8511a9.5534,9.5534,0,0,0,7.2875-3.55,13.3583,13.3583,0,0,0,0-16.7191,9.5533,9.5533,0,0,0-7.2875-3.55H86.1328a9.5529,9.5529,0,0,0-7.2877,3.55,13.3587,13.3587,0,0,0,0,16.719A9.5531,9.5531,0,0,0,86.1328,155.5454Zm-5.7607-18.9772a7.55,7.55,0,0,1,5.7607-2.8412H196.8511a7.55,7.55,0,0,1,5.76,2.8412,11.3613,11.3613,0,0,1,0,14.1359,7.55,7.55,0,0,1-5.76,2.8412H86.1328a7.5506,7.5506,0,0,1-5.7607-2.8412,11.3623,11.3623,0,0,1,0-14.136Z" class="fill"/>
    <path d="M158.0057,184.7233a13.3583,13.3583,0,0,0,0-16.7191,9.5533,9.5533,0,0,0-7.2875-3.55H49.2266a9.5534,9.5534,0,0,0-7.2876,3.55,13.3583,13.3583,0,0,0,0,16.7191,9.5534,9.5534,0,0,0,7.2876,3.55H150.7183A9.5534,9.5534,0,0,0,158.0057,184.7233Zm-114.54-1.2916a11.3613,11.3613,0,0,1,0-14.1359,7.55,7.55,0,0,1,5.76-2.8412H150.7183a7.55,7.55,0,0,1,5.76,2.8412,11.3613,11.3613,0,0,1,0,14.1359,7.55,7.55,0,0,1-5.76,2.8412H49.2266A7.55,7.55,0,0,1,43.4661,183.4317Z" class="fill"/>
    <path d="M217.243,135.2767a13.3587,13.3587,0,0,0,0,16.719,9.5531,9.5531,0,0,0,7.2877,3.55h18.4526a9.5532,9.5532,0,0,0,7.2876-3.55,13.3587,13.3587,0,0,0,0-16.719,9.5526,9.5526,0,0,0-7.2876-3.55H224.5308A9.5529,9.5529,0,0,0,217.243,135.2767Zm31.501,1.2915a11.3623,11.3623,0,0,1,0,14.136,7.5505,7.5505,0,0,1-5.7606,2.8412H224.5308a7.5506,7.5506,0,0,1-5.7607-2.8412,11.3623,11.3623,0,0,1,0-14.136,7.55,7.55,0,0,1,5.7607-2.8412h18.4526A7.55,7.55,0,0,1,248.744,136.5682Z" class="fill"/>
    <path d="M97.2982,200.7313a13.3587,13.3587,0,0,0,0,16.719,9.5531,9.5531,0,0,0,7.2877,3.55h83.0386a9.5534,9.5534,0,0,0,7.2875-3.55,13.3583,13.3583,0,0,0,0-16.7191,9.5533,9.5533,0,0,0-7.2875-3.55H104.5859A9.5529,9.5529,0,0,0,97.2982,200.7313Zm96.0867,1.2915a11.3613,11.3613,0,0,1,0,14.1359,7.55,7.55,0,0,1-5.76,2.8412H104.5859a7.5506,7.5506,0,0,1-5.7607-2.8412,11.3623,11.3623,0,0,1,0-14.136,7.55,7.55,0,0,1,5.7607-2.8412h83.0386A7.55,7.55,0,0,1,193.3849,202.0228Z" class="fill"/>
    <path d="M141.4917,122.8184h83.0391a9.5534,9.5534,0,0,0,7.2875-3.55,13.3583,13.3583,0,0,0,0-16.7191A9.5533,9.5533,0,0,0,224.5308,99H141.4917a9.5534,9.5534,0,0,0-7.2876,3.55,13.3583,13.3583,0,0,0,0,16.7191A9.5534,9.5534,0,0,0,141.4917,122.8184Zm-5.76-18.9772a7.55,7.55,0,0,1,5.76-2.8412h83.0391a7.55,7.55,0,0,1,5.76,2.8412,11.3613,11.3613,0,0,1,0,14.1359,7.55,7.55,0,0,1-5.76,2.8412H141.4917a7.55,7.55,0,0,1-5.76-2.8412,11.3613,11.3613,0,0,1,0-14.1359Z" class="fill"/>
    <path d="M215.3042,221h27.6792a9.5532,9.5532,0,0,0,7.2876-3.55,13.3587,13.3587,0,0,0,0-16.719,9.5526,9.5526,0,0,0-7.2876-3.55H215.3042a9.5529,9.5529,0,0,0-7.2877,3.55,13.3587,13.3587,0,0,0,0,16.719A9.5531,9.5531,0,0,0,215.3042,221Zm-8.2267-11.9092a10.9513,10.9513,0,0,1,2.4659-7.068,7.55,7.55,0,0,1,5.7607-2.8412h27.6792a7.55,7.55,0,0,1,5.7606,2.8412,11.3623,11.3623,0,0,1,0,14.136A7.5505,7.5505,0,0,1,242.9834,219H215.3042a7.5506,7.5506,0,0,1-5.7607-2.8412A10.9513,10.9513,0,0,1,207.0775,209.0908Z" class="fill"/>
    <path d="M270.6631,164.4546H178.3979a9.5534,9.5534,0,0,0-7.2876,3.55,13.3583,13.3583,0,0,0,0,16.7191,9.5534,9.5534,0,0,0,7.2876,3.55h92.2651a9.5534,9.5534,0,0,0,7.2875-3.55,13.3583,13.3583,0,0,0,0-16.7191A9.5533,9.5533,0,0,0,270.6631,164.4546Zm5.76,18.9771a7.55,7.55,0,0,1-5.76,2.8412H178.3979a7.55,7.55,0,0,1-5.76-2.8412,11.3613,11.3613,0,0,1,0-14.1359,7.55,7.55,0,0,1,5.76-2.8412h92.2651a7.55,7.55,0,0,1,5.76,2.8412,11.3613,11.3613,0,0,1,0,14.1359Z" class="fill"/>
  </g>
</svg>
