<svg xmlns="http://www.w3.org/2000/svg" viewBox="0 0 320 320">
  <title>_.weather.rain-filled</title>
  <g id="briefcase">
    <path d="M52.1259,157.7964a18.2927,18.2927,0,0,0,10.3693,3.2031H243.8857l.0807,0a48.6762,48.6762,0,0,0,19.1508-4.3685,31.0914,31.0914,0,0,0,12.3351-10.0983c3.3554-4.7681,5.5511-11.0994,5.5475-19.3713q0-1.6576-.1188-3.42c-.6167-9.0745-3.1123-15.9846-6.5654-21.2052A34.94,34.94,0,0,0,255.74,88.7031a41.77,41.77,0,0,0-10.9244-2.0625,67.4558,67.4558,0,0,0-5.0909-19.449A64.3348,64.3348,0,0,0,208.33,33.9439a44.8647,44.8647,0,0,0-20.0128-4.593c-11.2211.0032-21.4627,3.828-28.91,7.6326a78.8543,78.8543,0,0,0-11.44,7.0892,56.7282,56.7282,0,0,0-9.7388-7.2338A53.6387,53.6387,0,0,0,110.9164,29c-8.8408-.0025-18.8266,2.4078-29.4321,9.0357A39.2722,39.2722,0,0,0,65.5713,56.957a52.2378,52.2378,0,0,0-3.5544,19.4677,57.5286,57.5286,0,0,0,.8631,10.13,37.8953,37.8953,0,0,0-11.1339,8.5792c-5.9861,6.5557-12.101,17.3732-12.7283,34.1874q-.0179.4751-.0179.9655a39.2113,39.2113,0,0,0,5.804,19.68A25.9189,25.9189,0,0,0,52.1259,157.7964Z" class="fill"/>
    <path d="M211.1289,278.65a9.5321,9.5321,0,0,0,8.8831-13.0854l-34.2856-85.3955a9.5667,9.5667,0,1,0-17.7725,7.087l34.2856,85.396A9.5726,9.5726,0,0,0,211.1289,278.65Zm-41.8624-94.935a7.5766,7.5766,0,0,1,14.6037-2.801L218.1559,266.31a7.516,7.516,0,0,1-4.2175,9.798,7.578,7.578,0,0,1-9.8429-4.2008L169.81,186.5107A7.4863,7.4863,0,0,1,169.2665,183.7148Z" class="fill"/>
    <path d="M152.8623,227.412A9.5326,9.5326,0,0,0,161.6941,214.2l-14.2857-34.1584a9.5668,9.5668,0,1,0-17.6694,7.341l14.2852,34.1582A9.5746,9.5746,0,0,0,152.8623,227.412ZM131,183.7157a7.5773,7.5773,0,0,1,14.5634-2.9022l14.2856,34.1582a7.5176,7.5176,0,0,1-4.0762,9.8581,7.5826,7.5826,0,0,1-9.9034-4.06l-14.2852-34.1582A7.4881,7.4881,0,0,1,131,183.7157Z" class="fill"/>
    <path d="M244.9572,257.1a9.5182,9.5182,0,0,0,5.3649-12.3883l-25.7145-64.5212a9.5672,9.5672,0,1,0-17.791,7.0431l25.7139,64.5211A9.58,9.58,0,0,0,244.9572,257.1Zm-10.5688-6.0859-25.7138-64.5208a7.517,7.517,0,0,1,4.2422-9.7883,7.58,7.58,0,0,1,9.833,4.2259l25.7144,64.5211a7.518,7.518,0,0,1-4.2427,9.7883,7.58,7.58,0,0,1-9.8331-4.2262Z" class="fill"/>
  </g>
</svg>
