<svg xmlns="http://www.w3.org/2000/svg" viewBox="0 0 320 320">
  <title>_.weather.heavy-rain-filled</title>
  <g id="briefcase">
    <path d="M127.0037,236.7357a9.5238,9.5238,0,0,0-.5374-3.1494l-14.9331-42.6652a9.533,9.533,0,1,0-17.9956,6.2983l14.933,42.6652a9.5242,9.5242,0,0,0,12.1467,5.8484l-.33-.9438.33.9438A9.5363,9.5363,0,0,0,127.0037,236.7357Z" class="fill"/>
    <path d="M52.1259,157.7964a18.2926,18.2926,0,0,0,10.3693,3.2031H243.8778l.0883,0a48.6782,48.6782,0,0,0,19.151-4.3685,31.0923,31.0923,0,0,0,12.3352-10.0982c3.3555-4.7681,5.5511-11.0994,5.5475-19.3713q0-1.6574-.1188-3.4206c-.6168-9.0745-3.1124-15.9846-6.5656-21.2051A34.94,34.94,0,0,0,255.74,88.7031a41.7713,41.7713,0,0,0-10.9242-2.0624,67.4631,67.4631,0,0,0-5.0909-19.449A64.335,64.335,0,0,0,208.33,33.9439,44.8657,44.8657,0,0,0,188.317,29.351c-11.2211.0032-21.4626,3.8279-28.91,7.6325a78.8579,78.8579,0,0,0-11.44,7.0892,56.7256,56.7256,0,0,0-9.7388-7.2338A53.6391,53.6391,0,0,0,110.9163,29c-8.8407-.0026-18.8265,2.4079-29.432,9.0357A39.2727,39.2727,0,0,0,65.5712,56.957a52.2392,52.2392,0,0,0-3.5543,19.4678,57.5354,57.5354,0,0,0,.863,10.13,37.8952,37.8952,0,0,0-11.1338,8.5792c-5.9861,6.5557-12.101,17.3732-12.7284,34.1874q-.0182.4752-.0179.9656a39.2108,39.2108,0,0,0,5.804,19.68A25.9179,25.9179,0,0,0,52.1259,157.7964Z" class="fill"/>
    <path d="M255.137,229.736a9.5321,9.5321,0,0,0-.491-3.0153l-17.0665-51.199a9.5335,9.5335,0,1,0-18.0883,6.0306L236.5571,232.75a9.5282,9.5282,0,0,0,12.0587,6.03l-.3156-.9489.3163.9486A9.5377,9.5377,0,0,0,255.137,229.736Z" class="fill"/>
    <path d="M221,204.1358a9.5158,9.5158,0,0,0-.6094-3.3464l-6.4-17.0663a9.5325,9.5325,0,1,0-17.8511,6.6943l6.4,17.0655a9.5229,9.5229,0,0,0,12.2722,5.5789h0l.0006,0h0A9.534,9.534,0,0,0,221,204.1358Z" class="fill"/>
    <path d="M158.1348,281.936a9.5272,9.5272,0,0,0,3.257-.5757l-.3414-.94.3417.94a9.5272,9.5272,0,0,0,5.7012-12.2172l-34.1324-93.8647a9.5335,9.5335,0,1,0-17.9186,6.5172l34.1323,93.8636A9.5358,9.5358,0,0,0,158.1348,281.936Z" class="fill"/>
    <path d="M175.8647,169a9.5307,9.5307,0,0,0-8.925,12.8842l25.5995,68.2644a9.5246,9.5246,0,0,0,12.2722,5.5789h0l.0006,0h0a9.524,9.524,0,0,0,5.5784-12.2725L184.7913,175.19A9.54,9.54,0,0,0,175.8647,169Z" class="fill"/>
    <path d="M153.5366,177.5344a9.53,9.53,0,0,0-8.9875,12.7186l12.0883,34.1321a9.5255,9.5255,0,0,0,12.1687,5.8031h0A9.5256,9.5256,0,0,0,174.61,218.02l-12.0884-34.1326A9.5332,9.5332,0,0,0,153.5366,177.5344Z" class="fill"/>
  </g>
</svg>
