<svg xmlns="http://www.w3.org/2000/svg" viewBox="0 0 320 320">
  <title>_.weather.light-rain-filled</title>
  <g id="briefcase">
    <path d="M52.1259,207.7964A18.2928,18.2928,0,0,0,62.4951,211H243.8857l.0807,0a48.675,48.675,0,0,0,19.1508-4.3685,31.0912,31.0912,0,0,0,12.3351-10.0982c3.3554-4.7681,5.5511-11.0994,5.5475-19.3713q0-1.6576-.1188-3.4205c-.6167-9.0745-3.1123-15.9846-6.5654-21.2051A34.9406,34.9406,0,0,0,255.74,138.7031a41.7665,41.7665,0,0,0-10.9244-2.0624,67.455,67.455,0,0,0-5.0909-19.449A64.3349,64.3349,0,0,0,208.33,83.9439a44.8654,44.8654,0,0,0-20.0128-4.5929c-11.2211.0032-21.4627,3.828-28.91,7.6326a78.8506,78.8506,0,0,0-11.44,7.0892,56.7248,56.7248,0,0,0-9.7388-7.2338A53.6387,53.6387,0,0,0,110.9164,79c-8.8408-.0026-18.8266,2.4079-29.4321,9.0356A39.2724,39.2724,0,0,0,65.5713,106.957a52.238,52.238,0,0,0-3.5544,19.4677,57.5282,57.5282,0,0,0,.8631,10.13,37.8941,37.8941,0,0,0-11.1339,8.5792c-5.9861,6.5557-12.101,17.3731-12.7283,34.1873q-.0179.4751-.0179.9656a39.2113,39.2113,0,0,0,5.804,19.68A25.9187,25.9187,0,0,0,52.1259,207.7964Z" class="fill"/>
    <path d="M108.3672,220.4261a9.3644,9.3644,0,0,0-8.6951,12.8481l16.7339,41.8349a9.3668,9.3668,0,1,0,17.394-6.9566l-16.7339-41.835A9.3711,9.3711,0,0,0,108.3672,220.4261Zm24.1048,51.2017a7.3675,7.3675,0,0,1-14.209,2.7386l-16.7339-41.835a7.3668,7.3668,0,1,1,13.68-5.471l16.7338,41.8348A7.3415,7.3415,0,0,1,132.472,271.6279Z" class="fill"/>
    <path d="M159.9811,220.4269a9.3647,9.3647,0,0,0-8.6435,12.9717l13.9448,33.4684a9.3673,9.3673,0,1,0,17.2935-7.2056L168.6311,226.193A9.37,9.37,0,0,0,159.9811,220.4269ZM181.2984,263.26a7.3681,7.3681,0,0,1-14.17,2.8373L153.1838,232.63a7.3673,7.3673,0,1,1,13.6011-5.6672L180.73,260.43A7.3427,7.3427,0,0,1,181.2984,263.26Z" class="fill"/>
    <path d="M208.7731,220.4259a9.3631,9.3631,0,0,0-8.77,12.6588l6.2753,16.7338a9.3663,9.3663,0,1,0,17.54-6.5769l-6.2754-16.7343A9.3694,9.3694,0,0,0,208.7731,220.4259Zm13.644,26.1038a7.3673,7.3673,0,0,1-14.2664,2.5865l-6.2755-16.734a7.3664,7.3664,0,1,1,13.7948-5.1729l6.2755,16.7346A7.3478,7.3478,0,0,1,222.4171,246.53Z" class="fill"/>
  </g>
</svg>
