<svg xmlns="http://www.w3.org/2000/svg" viewBox="0 0 320 320">
  <title>_.weather.heavy-rain</title>
  <g id="briefcase">
    <path d="M243.8779,160.9995l.0884,0a48.6778,48.6778,0,0,0,19.1509-4.3685,31.0923,31.0923,0,0,0,12.3352-10.0982c3.3554-4.7681,5.551-11.0994,5.5475-19.3713q0-1.6575-.1189-3.4206c-.6167-9.0745-3.1123-15.9846-6.5654-21.2051A34.9406,34.9406,0,0,0,255.74,88.7031a41.77,41.77,0,0,0-10.9244-2.0624,67.4553,67.4553,0,0,0-5.0909-19.449A64.3348,64.3348,0,0,0,208.33,33.9439a44.8647,44.8647,0,0,0-20.0128-4.5929c-11.221.0032-21.4626,3.8279-28.91,7.6325a78.8547,78.8547,0,0,0-11.44,7.0892,56.7268,56.7268,0,0,0-9.7388-7.2338A53.6385,53.6385,0,0,0,110.9163,29c-8.8407-.0026-18.8265,2.4079-29.432,9.0357A39.2723,39.2723,0,0,0,65.5712,56.957a52.2381,52.2381,0,0,0-3.5543,19.4678,57.5354,57.5354,0,0,0,.863,10.13,37.8952,37.8952,0,0,0-11.1338,8.5792c-5.9861,6.5557-12.101,17.3732-12.7284,34.1874q-.0182.4752-.0179.9656a39.2108,39.2108,0,0,0,5.804,19.68,25.9179,25.9179,0,0,0,7.322,7.8287,18.2926,18.2926,0,0,0,10.3693,3.2031ZM44.1,144.3219A36.808,36.808,0,0,1,41,130.2873q0-.4542.0165-.89c.6227-16.3608,6.507-26.6542,12.2077-32.9158a38.5612,38.5612,0,0,1,7.7536-6.5681,28.4862,28.4862,0,0,1,2.5052-1.4282c.2983-.1492.53-.2562.6839-.3248l.1714-.0745.04-.0164.0074-.003a1.0016,1.0016,0,0,0,.6055-1.1514l-.009-.041a52.9076,52.9076,0,0,1-.9647-10.45,50.26,50.26,0,0,1,3.408-18.7168,37.2563,37.2563,0,0,1,15.119-17.9761C92.86,33.2909,102.4386,31.0024,110.9163,31a51.6468,51.6468,0,0,1,26.29,7.558,57.935,57.935,0,0,1,7.3865,5.2019c.8506.7078,1.5008,1.296,1.9357,1.7044.2174.2042.381.3635.4888.47l.12.12.0349.0356a.9982.9982,0,0,0,1.3528.0817l.0463-.0373a74.5882,74.5882,0,0,1,12.4355-7.7183c7.2043-3.5982,16.887-7.0681,27.3106-7.0652a42.8586,42.8586,0,0,1,19.13,4.3877,62.32,62.32,0,0,1,30.4359,32.2333A68.84,68.84,0,0,1,242.1223,81.94c.3365,1.7839.5281,3.2244.6353,4.2139.0535.4948.0861.8768.105,1.1328.0095.1279.0156.2244.0193.2876l.0048.0883a.9983.9983,0,0,0,1.0157.9566l.0536,0a39.2668,39.2668,0,0,1,17.2107,4.5818,31.6344,31.6344,0,0,1,11.4805,10.4384c3.2465,4.9133,5.6383,11.4554,6.2383,20.238q.1157,1.6981.1144,3.2847c-.0036,7.924-2.077,13.7954-5.1838,18.2212-4.6562,6.6318-11.7429,10.0562-17.8954,11.8057A47.1982,47.1982,0,0,1,243.9662,159l-.0727,0H62.4951a16.2806,16.2806,0,0,1-9.2522-2.8621C49.2463,153.4514,46.1616,149.0856,44.1,144.3219Z" class="fill"/>
    <path d="M127.0038,236.7357a9.5212,9.5212,0,0,0-.5375-3.1495l-14.9331-42.6651a9.5329,9.5329,0,1,0-17.9956,6.298l14.933,42.6654a9.5242,9.5242,0,0,0,12.1467,5.8484l-.33-.9438.33.9438A9.5364,9.5364,0,0,0,127.0038,236.7357Zm-7.0471,7.1095a7.5239,7.5239,0,0,1-9.5983-4.6213L95.4253,196.5583a7.5329,7.5329,0,1,1,14.22-4.9764l14.933,42.665a7.5239,7.5239,0,0,1-4.6218,9.5983Z" class="fill"/>
    <path d="M153.5367,177.5344a9.53,9.53,0,0,0-8.9876,12.7184l12.0883,34.1323a9.5254,9.5254,0,0,0,12.1685,5.8032h0A9.5254,9.5254,0,0,0,174.61,218.02l-12.0884-34.1324A9.533,9.533,0,0,0,153.5367,177.5344Zm19.6219,43.6678a7.5352,7.5352,0,0,1-5.02,7.1008l.3337.9427-.3339-.9426a7.5253,7.5253,0,0,1-9.6155-4.5854l-12.0884-34.1324a7.533,7.533,0,1,1,14.2015-5.03l12.0884,34.1325A7.5221,7.5221,0,0,1,173.1586,221.2021Z" class="fill"/>
    <path d="M255.1371,229.736a9.5282,9.5282,0,0,0-.4911-3.0154L237.58,175.5216a9.5335,9.5335,0,1,0-18.0883,6.03L236.5571,232.75a9.5282,9.5282,0,0,0,12.0587,6.03l-.3156-.9489.3163.9486A9.5378,9.5378,0,0,0,255.1371,229.736Zm-7.1528,7.1463a7.528,7.528,0,0,1-9.53-4.7647L221.3886,180.92a7.5335,7.5335,0,1,1,14.2936-4.7653l17.0663,51.1985a7.5261,7.5261,0,0,1-4.7642,9.5294Z" class="fill"/>
    <path d="M158.1348,281.936a9.5272,9.5272,0,0,0,3.257-.5757l-.3414-.94.3417.94a9.5266,9.5266,0,0,0,5.7011-12.2174l-34.1324-93.8644a9.5335,9.5335,0,1,0-17.9186,6.517l34.1323,93.8638A9.5358,9.5358,0,0,0,158.1348,281.936ZM116.4659,178.5383a7.5341,7.5341,0,0,1,14.6153-2.5764l34.1323,93.8643a7.5334,7.5334,0,1,1-14.1595,5.15l-34.1323-93.8638A7.5146,7.5146,0,0,1,116.4659,178.5383Z" class="fill"/>
    <path d="M175.8649,169a9.5308,9.5308,0,0,0-8.9252,12.8841l25.6,68.2645a9.5246,9.5246,0,0,0,12.2722,5.5789h0l.0007,0h0a9.5236,9.5236,0,0,0,5.5783-12.2726L184.7913,175.19A9.54,9.54,0,0,0,175.8649,169ZM209,246.8011a7.5343,7.5343,0,0,1-4.8905,7.0535l.351.9364-.3517-.9362a7.5244,7.5244,0,0,1-9.6968-4.4085l-25.6-68.2648a7.5327,7.5327,0,1,1,14.1064-5.2894l25.5991,68.2646A7.5156,7.5156,0,0,1,209,246.8011Z" class="fill"/>
    <path d="M221,204.1358a9.514,9.514,0,0,0-.6095-3.3464l-6.4-17.0663a9.5325,9.5325,0,1,0-17.8511,6.6942l6.4,17.0657a9.5229,9.5229,0,0,0,12.2722,5.5789h0l.0007,0h0A9.5343,9.5343,0,0,0,221,204.1358Zm-6.89,7.0533.351.9364-.3517-.9362a7.5227,7.5227,0,0,1-9.6968-4.4085l-6.4-17.066a7.5325,7.5325,0,1,1,14.1058-5.29l6.4,17.0667a7.523,7.523,0,0,1-4.4083,9.6974Z" class="fill"/>
  </g>
</svg>
