<svg xmlns="http://www.w3.org/2000/svg" viewBox="0 0 320 320">
  <title>_.weather.tornado-filled</title>
  <g id="briefcase">
    <path d="M238.79,145.8376a27.5026,27.5026,0,0,0,6.504-13.2352,8.759,8.759,0,0,1,.7076-1.9622,58.357,58.357,0,0,1,2.9773-5.3047c1.8474-3.0226,4.0436-6.4208,5.7928-9.5382a41.3186,41.3186,0,0,0,2.1954-4.4092,10.3278,10.3278,0,0,0,.9215-3.7073,3.3766,3.3766,0,0,0-.363-1.6085,1,1,0,0,0-1.4635-.3411c-2.3363,1.672-8.4655,6.2117-14.77,10.652-3.15,2.2191-6.3425,4.4116-9.1124,6.2a50.2833,50.2833,0,0,1-6.5154,3.7481,1,1,0,0,0-.2911,1.66,11.7377,11.7377,0,0,1,2.0314,2.3331,3.4614,3.4614,0,0,1,.57,1.4478,6.6332,6.6332,0,0,1-1.8224,2.1379,34.79,34.79,0,0,1-7.97,4.6924,87.6015,87.6015,0,0,1-13.5573,4.6843,151.4237,151.4237,0,0,1-38.3107,4.5808q-2.825,0-5.7582-.09a155.4244,155.4244,0,0,1-29.9285-3.6528,90.9027,90.9027,0,0,1-19.7532-6.7424c-4.9513-2.4436-8.2673-4.9591-9.8806-6.9346a.9994.9994,0,0,0-.4744-.32,108.9965,108.9965,0,0,1-15.9275-6.2847,1,1,0,0,0-1.4037.61,25.8549,25.8549,0,0,0-.686,2.8244,24.0606,24.0606,0,0,0-.3867,4.2489c-.0061,6.5728,2.8949,12.293,7.7544,17.0363,4.8619,4.7531,11.6755,8.5973,19.6847,11.624a119.2854,119.2854,0,0,0,18.5959,5.2037,177.07,177.07,0,0,0,28.9711,3.2236q2.9515.0912,5.9354.0914a174.78,174.78,0,0,0,38.9628-4.1991,106.3222,106.3222,0,0,0,17.4746-5.5914,102.417,102.417,0,0,1-18.35,5.9987,1,1,0,0,0-.09,1.9222,38.3593,38.3593,0,0,1,10.0406,4.74,37.39,37.39,0,0,1-5.0964,2.1949,75.65,75.65,0,0,1-10.236,2.7639A124.4925,124.4925,0,0,1,171.25,178.816q-2.2916,0-4.687-.0729c-14.2754-.4408-25.1018-2.749-32.42-5.3706a12.7868,12.7868,0,0,1-3.2753-1.9432,57.7192,57.7192,0,0,0-9.1445-5.7839c-4.7173-2.4133-11.6127-5.2687-22.3118-8.5078a.9987.9987,0,0,0-1.1514.45,1.7951,1.7951,0,0,0-.2451.9161,2.9237,2.9237,0,0,0,.4857,1.488,13.1527,13.1527,0,0,0,1.985,2.33c1.2091,1.1923,2.6512,2.4519,3.7622,3.583a12.5176,12.5176,0,0,1,1.3263,1.5324,1.8885,1.8885,0,0,1,.3937.8143l0,.0087.0011-.0062a20.1835,20.1835,0,0,0-.327,3.5652,16.8228,16.8228,0,0,0,2.32,8.6179,22.6492,22.6492,0,0,0,6.0688,6.5805c4.6479,3.4917,10.6895,5.9743,16.9541,7.7851,13.9275,4.0176,28.9934,4.6769,32.1443,4.777.6927.0214,1.9663.0509,3.6934.0509a163.1062,163.1062,0,0,0,23.9878-1.7608,93.534,93.534,0,0,0,18.5146-4.6313,42.8849,42.8849,0,0,0,13.7671-7.9509,22.5761,22.5761,0,0,0,7.3771-12.8926,20.1373,20.1373,0,0,0,.3256-3.5532,17.44,17.44,0,0,0-5.0431-12.2239.9894.9894,0,0,0-.7723-.3019c.313-.1649.6376-.3222.9453-.4907A46.0977,46.0977,0,0,0,238.79,145.8376Z" class="fill"/>
    <path d="M209.6722,202.5312a21.3361,21.3361,0,0,0,.3425-3.7659,19.1861,19.1861,0,0,0-.49-4.3331,1,1,0,0,0-1.327-.7106,91.5806,91.5806,0,0,1-18.1138,4.5255h0a161.1218,161.1218,0,0,1-23.6833,1.7375c-1.7043,0-2.9578-.0292-3.6313-.05-3.06-.0917-18.03-.7625-31.6512-4.699h0c-6.124-1.7661-11.9663-4.1944-16.307-7.4624a.9989.9989,0,0,0-1.37.16,23.8946,23.8946,0,0,0-5.2946,11.1677,21.6261,21.6261,0,0,0-.3489,3.8179,18.4909,18.4909,0,0,0,2.0574,8.5582,22.9307,22.9307,0,0,0,5.5864,6.8781,37.0747,37.0747,0,0,0,8.1685,5.2c8.4989,4.0511,19.3749,6.1786,30.21,6.5165q1.5125.0467,3.04.0467a96.8066,96.8066,0,0,0,18.4952-1.7574c2.0834-.41,4.1316-.8941,6.1287-1.4522,7.0946-1.9857,13.5435-4.92,18.5377-8.94C205.0122,213.9539,208.5508,208.8122,209.6722,202.5312Z" class="fill"/>
    <path d="M186.3456,246.7959a35.846,35.846,0,0,0,.6512-6.2516,16.2574,16.2574,0,0,0-.8624-5.4955,12.8893,12.8893,0,0,0-3.0961-4.8493.9978.9978,0,0,0-1.4373.0257c.07-.4326.1279-.8571.1655-1.26.024-.28.0157-.4781.0248-.61a1,1,0,0,0-1.2678-1.0187c-1.9443.5439-3.9419,1.0165-5.9756,1.4159a94.7838,94.7838,0,0,1-18.11,1.72q-1.496,0-2.9781-.0458c-10.6124-.3253-21.2662-2.433-29.41-6.3229A35.0972,35.0972,0,0,1,116.32,219.19a.9988.9988,0,0,0-1.3931.09,17.3165,17.3165,0,0,0-4.2494,8.692,16.8136,16.8136,0,0,0-.2742,2.9671,12.9423,12.9423,0,0,0,1.6953,6.5424,15.4558,15.4558,0,0,0,4.37,4.7366c.0852.0622.179.1157.2654.1767a.9887.9887,0,0,0-.3752.054,1.0029,1.0029,0,0,0-.6267.7094c-.0725.3162-.1953.6923-.2794,1.1545a20.4348,20.4348,0,0,0-.3284,3.6078,17.7257,17.7257,0,0,0,3.4448,10.581,24.5763,24.5763,0,0,0,9.4918,7.5313c.0244.0117.0511.0216.0757.0332a.9668.9668,0,0,0-.9266.6392,20.0789,20.0789,0,0,0-1.002,3.5554,18.7559,18.7559,0,0,0-.3013,3.3105,15.7171,15.7171,0,0,0,5.802,12.3308c3.6809,3.0643,8.8752,4.89,15.0543,5.0815q.5312.0164,1.0573.0162a29.81,29.81,0,0,0,17.3475-5.27,21.5275,21.5275,0,0,0,8.9581-13.696,18.2945,18.2945,0,0,0,.2916-3.2252,16.68,16.68,0,0,0-.5306-4.1987.9842.9842,0,0,0-.4945-.6063c.1272-.0752.2659-.14.3917-.2168C180.4707,259.7277,185.0826,253.8586,186.3456,246.7959Zm-55.76.9287c-1.2148-.2387-2.4451-.5231-3.6636-.8553,1.2136.3253,2.4312.6042,3.63.8419,2.428.4791,4.7772.791,6.8567.9946C135.3422,248.5077,132.9976,248.201,130.5859,247.7246Zm41.5281-4.2788c-5.0687,3.1361-12.3361,5.1415-22.1272,5.82-.1711.0119-.3416.0172-.5121.0172a21.9,21.9,0,0,1-2.4562-.2175l.0941-.0016c5.9961-.1415,14.8889-.9592,22.2537-4.3173a26.2537,26.2537,0,0,0,5.87-3.6266A22.9881,22.9881,0,0,1,172.114,243.4458Z" class="fill"/>
    <path d="M84.5455,120.9242a110.9834,110.9834,0,0,0,16.2208,6.4028c15.0435,4.7045,32.749,7.4086,50.771,7.9665q3.5067.1084,7.031.1088c24.6654-.003,49.5842-3.9568,68.71-11.9345a82.9,82.9,0,0,0,16.3022-8.8689c9.0272-6.4553,15.2338-14.4984,16.96-24.1429a28.6521,28.6521,0,0,0,.4585-5.0557,27.5245,27.5245,0,0,0-6.1287-17.0967c-3.9121-5.0549-9.5-9.4465-16.3016-13.1965a1.0085,1.0085,0,0,0-.5793-.12L187.811,59.86a1,1,0,0,0-.0427,1.9856c18.6978,2.6309,32.6913,7.5356,41.9532,12.767a41.35,41.35,0,0,1,10.328,7.8085c2.2623,2.4973,3.2817,4.7835,3.2692,6.4778a4.1691,4.1691,0,0,1-.0631.7318c-.2269,1.3463-1.3771,3.1877-3.5244,5.1617a43.3651,43.3651,0,0,1-9.2065,6.1854,111.286,111.286,0,0,1-27.3646,9.4208,192.1931,192.1931,0,0,1-41.0317,4.17q-3.5131,0-7.1566-.1114a195.3958,195.3958,0,0,1-33.6307-3.7911,122.6268,122.6268,0,0,1-24.014-7.3782c-7.0016-3.0572-12.226-6.4112-15.6555-9.5735a20.3442,20.3442,0,0,1-3.8-4.51,7.4916,7.4916,0,0,1-1.1909-3.7,4.1267,4.1267,0,0,1,.063-.7306,6.5786,6.5786,0,0,1,2.0056-3.1362c2.1379-2.1586,5.95-4.6537,11.0884-7.1232,15.428-7.4324,42.78-14.7635,74.1-15.2831l.0485-.002,55.4067-3.62a1,1,0,0,0,.1969-1.9629c-6.7837-1.841-15.5356-5.3411-24.5807-8.449-9.0529-3.1055-18.4008-5.832-26.5465-6.0889Q164.9355,39,161.3906,39c-23.7743.0025-47.7905,3.6752-66.6151,11.0857-9.4121,3.7079-17.5315,8.3515-23.6677,13.98C64.9745,69.69,60.8209,76.33,59.459,83.9468A28.6283,28.6283,0,0,0,59,89.0025a27.9194,27.9194,0,0,0,7.0286,18.2126C70.4982,112.54,76.8584,117.1012,84.5455,120.9242Z" class="fill"/>
  </g>
</svg>
