<svg xmlns="http://www.w3.org/2000/svg" viewBox="0 0 320 320">
  <title>_.weather.clouds</title>
  <g id="briefcase">
    <path d="M253.8131,169.1375A28.8078,28.8078,0,0,0,238.5,157.7316a34.4844,34.4844,0,0,0-8.8428-1.6909,55.58,55.58,0,0,0-4.1694-15.833,52.8933,52.8933,0,0,0-25.81-27.3322,36.94,36.94,0,0,0-16.4769-3.7819c-9.2353.0032-17.6509,3.1484-23.7689,6.2734a65.2763,65.2763,0,0,0-9.2782,5.733,46.9592,46.9592,0,0,0-7.8994-5.8461,44.1285,44.1285,0,0,0-22.47-6.4481c-7.2762-.0026-15.4946,1.9832-24.21,7.43a32.3594,32.3594,0,0,0-13.11,15.5885,42.9783,42.9783,0,0,0-2.9255,16.0184,47.529,47.529,0,0,0,.6859,8.1973,31.4054,31.4054,0,0,0-9.0539,7.01c-4.93,5.3978-9.9613,14.3085-10.4756,28.1256q-.0148.3924-.0149.7982a32.3021,32.3021,0,0,0,4.7829,16.2206,21.4141,21.4141,0,0,0,6.0514,6.4683,15.17,15.17,0,0,0,8.5969,2.6552H228.72l.0768,0a40.05,40.05,0,0,0,15.7676-3.5966,25.6547,25.6547,0,0,0,10.1772-8.333c2.7718-3.9376,4.5819-9.1667,4.5783-15.9756q0-1.3647-.0977-2.8147C258.715,179.1376,256.6609,173.4426,253.8131,169.1375Zm-.7081,35.1018c-3.7808,5.386-9.5461,8.1761-14.5642,9.6028a38.5059,38.5059,0,0,1-9.7444,1.4771l-.0551,0H80.1113a13.1573,13.1573,0,0,1-7.48-2.3142,21.9988,21.9988,0,0,1-7.4261-9.6028A29.9815,29.9815,0,0,1,62.68,191.9747q0-.3682.0135-.7227l-.9993-.0377.9993.0376c.51-13.3633,5.31-21.75,9.9549-26.8535a31.4167,31.4167,0,0,1,6.3162-5.3507,23.1548,23.1548,0,0,1,2.0365-1.1611c.2419-.121.4293-.2075.5531-.2627l.1371-.06.0307-.0128.0045-.0017a1.0015,1.0015,0,0,0,.6054-1.1514l-.007-.0319a43.185,43.185,0,0,1-.7863-8.5233,41,41,0,0,1,2.7792-15.2675,30.3439,30.3439,0,0,1,12.316-14.6433c8.426-5.26,16.2369-7.1241,23.15-7.1267a42.135,42.135,0,0,1,21.4479,6.1674,47.2768,47.2768,0,0,1,6.0289,4.2457c.6939.5774,1.2239,1.0569,1.5778,1.3893.1769.1661.31.2955.3972.3821l.0966.0967.027.0276a.9982.9982,0,0,0,1.3528.0817l.0367-.03a60.9481,60.9481,0,0,1,10.1564-6.3033c5.8865-2.94,13.7955-5.7726,22.2954-5.77A34.9314,34.9314,0,0,1,198.795,114.67a50.8785,50.8785,0,0,1,24.8509,26.3177,56.2217,56.2217,0,0,1,3.4621,11.4072c.2748,1.4565.4311,2.6321.5184,3.4386.0437.4032.07.7142.0855.922.0078.1039.0127.1819.0156.2328l.0038.07a.9987.9987,0,0,0,1.0241.9564h.0021l.03,0a32,32,0,0,1,14.0151,3.7324,25.7386,25.7386,0,0,1,9.3416,8.4934c2.6413,3.998,4.5916,9.325,5.0817,16.4945q.0941,1.385.0932,2.679C257.316,195.8749,255.6282,200.6439,253.105,204.2393Z" class="fill"/>
    <path d="M309.8979,148.2983l.9977-.068c-.5413-7.9673-2.7339-14.0433-5.7717-18.6355a30.732,30.732,0,0,0-16.3369-12.1667,36.7927,36.7927,0,0,0-9.4577-1.8053,59.5819,59.5819,0,0,0-4.0385-17.9651,51.3343,51.3343,0,0,0-9.557-15.6271,47.8047,47.8047,0,0,0-18.5405-12.5978A32.76,32.76,0,0,0,235.3174,67.22c-10.4977.0065-20.2616,4.8643-27.4286,11.01a43.34,43.34,0,0,0-8.5873,9.8129c-2.0571,3.3335-3.26,6.5853-3.2685,9.4541a7.6728,7.6728,0,0,0,.7568,3.4623,1.0053,1.0053,0,0,0,.5983.5076,40.4322,40.4322,0,0,1,5.884,2.3319,58.07,58.07,0,0,1,25.2889,23.5505,63.1539,63.1539,0,0,1,7.4724,21.2621l.0564.2094c.0583.1487.121.3391.1989.5505a1,1,0,0,0,.8052.6443,38.4557,38.4557,0,0,1,16.983,6.5023c6.142,4.4025,11.7039,11.5737,13.4831,23.6268a1.002,1.002,0,0,0,.9894.8547h9.8865a42.7545,42.7545,0,0,0,16.8284-3.8386,27.36,27.36,0,0,0,10.8536-8.8865c2.9547-4.198,4.8856-9.7726,4.882-17.04q0-1.4559-.1043-3.0038Zm-5.4163,18.8259c-4.0551,5.7766-10.2346,8.7656-15.6083,10.2936A41.2329,41.2329,0,0,1,278.4359,179h-9.0424c-1.9722-12.0408-7.7714-19.5616-14.1539-24.109a40.2227,40.2227,0,0,0-17.26-6.7677,65.126,65.126,0,0,0-7.6829-21.767,60.0854,60.0854,0,0,0-26.1423-24.3519,42.221,42.221,0,0,0-5.7272-2.3,5.9166,5.9166,0,0,1-.3944-2.2074c-.008-2.2906,1.0291-5.2782,2.9691-8.4015a44.4389,44.4389,0,0,1,13.7889-13.4877A38.8693,38.8693,0,0,1,235.3174,69.22a30.7588,30.7588,0,0,1,11.1552,2.0789A45.7964,45.7964,0,0,1,264.2495,83.371a51.8912,51.8912,0,0,1,11.4393,22.0385,58.2308,58.2308,0,0,1,1.46,8.0651c.106.9948.16,1.7836.1879,2.32.0138.2683.021.4736.0247.61l.0034.1522.0006.0446a1,1,0,0,0,1.0235.9948h.0038l.0341,0a34.2791,34.2791,0,0,1,15.0164,3.9985,27.587,27.587,0,0,1,10.0126,9.1033c2.8312,4.2849,4.92,9.9929,5.4446,17.6683q.1008,1.4828.1,2.868C308.9964,158.1539,307.1878,163.2686,304.4817,167.1243Z" class="fill"/>
  </g>
</svg>
