<svg xmlns="http://www.w3.org/2000/svg" viewBox="0 0 320 320">
  <title>_.weather.light-rain</title>
  <g id="briefcase">
    <path d="M52.1259,207.7964A18.2926,18.2926,0,0,0,62.4951,211H243.8857l.0807,0a48.6756,48.6756,0,0,0,19.1509-4.3685,31.0915,31.0915,0,0,0,12.3351-10.0982c3.3555-4.7681,5.5511-11.0994,5.5475-19.3713q0-1.6576-.119-3.4206c-.6166-9.0745-3.1122-15.9846-6.5653-21.2051A34.9407,34.9407,0,0,0,255.74,138.7031a41.7673,41.7673,0,0,0-10.9244-2.0624,67.455,67.455,0,0,0-5.0909-19.449A64.3352,64.3352,0,0,0,208.33,83.9439a44.8658,44.8658,0,0,0-20.0128-4.5929c-11.2211.0032-21.4627,3.828-28.91,7.6326a78.8525,78.8525,0,0,0-11.44,7.0892,56.7248,56.7248,0,0,0-9.7388-7.2338A53.6387,53.6387,0,0,0,110.9164,79c-8.8407-.0026-18.8265,2.4079-29.4321,9.0356a39.2723,39.2723,0,0,0-15.913,18.9214,52.238,52.238,0,0,0-3.5544,19.4677,57.5382,57.5382,0,0,0,.863,10.13,37.8937,37.8937,0,0,0-11.1338,8.5792c-5.9861,6.5557-12.101,17.3731-12.7283,34.1873Q39,179.797,39,180.2873a39.2113,39.2113,0,0,0,5.804,19.68A25.9179,25.9179,0,0,0,52.1259,207.7964ZM41,180.2873q0-.4537.0164-.89c.6226-16.36,6.507-26.6535,12.2077-32.9151a38.5616,38.5616,0,0,1,7.7536-6.5681,28.4869,28.4869,0,0,1,2.5052-1.4282c.2983-.1491.53-.2562.684-.3248l.1714-.0745.04-.0165.0074-.003a1.0015,1.0015,0,0,0,.6055-1.1514l-.0091-.0411a52.9069,52.9069,0,0,1-.9646-10.45,50.2587,50.2587,0,0,1,3.408-18.7167,37.2565,37.2565,0,0,1,15.119-17.9761C92.86,83.2909,102.4387,81.0025,110.9164,81a51.6458,51.6458,0,0,1,26.29,7.558,57.9305,57.9305,0,0,1,7.3865,5.2019c.8506.7078,1.5008,1.2959,1.9356,1.7043.2174.2042.381.3635.4889.47l.12.12.0349.0356a.9982.9982,0,0,0,1.3529.0817l.0463-.0373a74.5882,74.5882,0,0,1,12.4355-7.7183c7.2043-3.5982,16.887-7.0681,27.3106-7.0652a42.8576,42.8576,0,0,1,19.13,4.3876,62.3208,62.3208,0,0,1,30.4358,32.2333,68.832,68.832,0,0,1,4.2391,13.9678c.3365,1.7839.5281,3.2244.6353,4.2139.0536.4948.0861.8768.105,1.1328.01.128.0156.2244.0193.2876l.0047.0884a.9981.9981,0,0,0,1.0151.9566l.0543,0a39.2672,39.2672,0,0,1,17.2107,4.5819,31.6339,31.6339,0,0,1,11.4805,10.4384c3.2465,4.9133,5.6383,11.4554,6.2383,20.238q.1156,1.6981.1143,3.2847c-.0036,7.924-2.0769,13.7954-5.1838,18.2213-4.6562,6.6318-11.7427,10.0562-17.8953,11.8057A47.1991,47.1991,0,0,1,243.9664,209l-.0679,0H62.4951a16.28,16.28,0,0,1-9.2521-2.8621c-3.9966-2.686-7.0812-7.0518-9.1428-11.8156A36.8067,36.8067,0,0,1,41,180.2873Z" class="fill"/>
    <path d="M108.3672,220.4261a9.3645,9.3645,0,0,0-8.6951,12.8481l16.7339,41.8349a9.3668,9.3668,0,1,0,17.394-6.9566l-16.7339-41.835A9.371,9.371,0,0,0,108.3672,220.4261Zm24.1049,51.2017a7.3676,7.3676,0,0,1-14.209,2.7386l-16.7339-41.835a7.3668,7.3668,0,1,1,13.68-5.471l16.7339,41.8348A7.3428,7.3428,0,0,1,132.472,271.6279Z" class="fill"/>
    <path d="M159.9812,220.4269a9.365,9.365,0,0,0-8.6436,12.9717l13.9449,33.4684a9.3673,9.3673,0,1,0,17.2935-7.2056L168.6311,226.193A9.37,9.37,0,0,0,159.9812,220.4269ZM181.2984,263.26a7.3681,7.3681,0,0,1-14.17,2.8373L153.1838,232.63a7.3673,7.3673,0,1,1,13.6011-5.6672L180.73,260.43A7.3427,7.3427,0,0,1,181.2984,263.26Z" class="fill"/>
    <polygon points="218.337 255.3 218.336 255.3 218.336 255.3 218.337 255.3" class="fill"/>
    <polygon points="205.483 221.026 205.484 221.026 205.485 221.026 205.483 221.026" class="fill"/>
    <path d="M224.4171,246.53a9.3468,9.3468,0,0,0-.599-3.2882l-6.2753-16.7343a9.3664,9.3664,0,1,0-17.54,6.5774l6.2753,16.7338a9.368,9.368,0,0,0,18.1391-3.2887Zm-6.7827,6.8976-.001,0a7.3571,7.3571,0,0,1-9.4826-4.3115l-6.2755-16.734a7.3566,7.3566,0,0,1,4.311-9.4835l.0011,0a7.3527,7.3527,0,0,1,9.4826,4.3109l6.2755,16.7346a7.3568,7.3568,0,0,1-4.3111,9.4835Z" class="fill"/>
  </g>
</svg>
