<svg xmlns="http://www.w3.org/2000/svg" viewBox="0 0 320 320">
  <title>_.weather.thunder</title>
  <g id="briefcase">
    <path d="M149.15,234.96a1,1,0,0,0,1.203-.5778l29.4092-71.0312a1,1,0,0,0-1.1368-1.36l-15.5781,3.395,11.8593-47.0353a1,1,0,0,0-.97-1.2444H151.8794a1,1,0,0,0-.9838.8209l-12.2534,67.293a1,1,0,0,0,1.34,1.1135l17.9614-6.85-9.5,54.3434A1,1,0,0,0,149.15,234.96ZM160.217,178.095a1,1,0,0,0-1.3414-1.1066l-17.9479,6.8447,11.7861-64.7263H172.653l-11.94,47.3561a1,1,0,0,0,1.1826,1.2216l15.2869-3.3316-25.2058,60.8788Z" class="fill"/>
    <path d="M135.301,117.5961a.9969.9969,0,0,0-.86-.4891h-18.38a1.0017,1.0017,0,0,0-.9147.5958L94.0032,165.5553a1,1,0,0,0,.9147,1.4042h9.4932l-17.88,40.4669a1,1,0,0,0,1.702,1.0208L130.4,154.6132a1,1,0,0,0-.7872-1.6166H116.5909L135.32,118.585A.9969.9969,0,0,0,135.301,117.5961ZM114.03,153.5186a1,1,0,0,0,.8784,1.478h12.651L91.598,200.9082l15.2629-34.5446a1,1,0,0,0-.9147-1.4041H96.453l20.2594-45.8525h16.0461Z" class="fill"/>
    <path d="M71.48,103.3666a13.8323,13.8323,0,0,0,11.1965,4.9249H222.2178l.062,0a37.8334,37.8334,0,0,0,14.8293-3.3644,24.1245,24.1245,0,0,0,9.58-7.8029c2.6107-3.6886,4.3147-8.5884,4.311-14.96q0-1.2766-.0919-2.6339c-.4763-6.9789-2.4088-12.3106-5.09-16.3415A27.1028,27.1028,0,0,0,231.407,52.5126a32.67,32.67,0,0,0-8.244-1.5781,42.8017,42.8017,0,0,0-3.6383-13.7152c-3.5807-8.0147-10.7093-17.4861-24.6212-23.1611C185.8586,10.3633,178.2386,9,171.93,9a34.2615,34.2615,0,0,0-18.5189,4.9528,24.2856,24.2856,0,0,0-5.3053,4.4036,46.1783,46.1783,0,0,0-18.9046-4.033c-9.4359-.0089-21.163,2.9991-32.2943,13.7883a54.6032,54.6032,0,0,0-11.17,14.46,25.44,25.44,0,0,0-2.9562,11.4093A18.367,18.367,0,0,0,85.21,63.2368a16.6665,16.6665,0,0,0,1.1919,1.7871,19.62,19.62,0,0,0-5.8949,2.32c-4.1978,2.4678-9.0089,7.3427-11.5612,16.6044l0,.0009q-.0762.2762-.1484.5544l0-.0016a29.012,29.012,0,0,0-.96,7.249A18.241,18.241,0,0,0,71.48,103.3666Zm-.7457-18.3627,0-.0016q.0659-.2562.14-.5217l0,.0008c2.4478-8.8154,6.8674-13.1714,10.65-15.4153a17.7868,17.7868,0,0,1,4.8971-1.9977,13.5109,13.5109,0,0,1,1.4824-.2709c.1721-.0209.3031-.0323.3876-.0385l.0913-.0057.0182-.0008h0a1,1,0,0,0,.64-1.7415l0,0a12.5321,12.5321,0,0,1-2.15-2.8624,16.3723,16.3723,0,0,1-2.1106-8.1677,23.4442,23.4442,0,0,1,2.7452-10.515A52.6446,52.6446,0,0,1,98.2981,29.5485c10.7664-10.4132,21.8792-13.2161,30.9031-13.2251a45.2408,45.2408,0,0,1,13.4835,2.0917,39.7253,39.7253,0,0,1,3.8676,1.4332c.4471.1943.7892.3552,1.0168.4661.1138.0554.199.0984.2544.1268l.0606.0314.015.0079a1.0017,1.0017,0,0,0,1.28-.2917h0a20.7626,20.7626,0,0,1,5.47-4.6508A32.3394,32.3394,0,0,1,171.93,11c6.0192,0,13.3752,1.2985,22.2173,4.91,13.3962,5.4788,20.1137,14.4689,23.5522,22.1271a42.6371,42.6371,0,0,1,3.0471,9.8452c.2256,1.2627.3436,2.2836.4052,2.9833.0308.35.0474.6194.0563.7988l.0083.2.0015.0574a1,1,0,0,0,1.0153.985l.0385,0a30.1246,30.1246,0,0,1,13.1317,3.4786,24.059,24.059,0,0,1,8.7491,7.9114c2.4732,3.7236,4.3006,8.6855,4.76,15.371q.0883,1.2914.0872,2.4973c-.0037,6.0215-1.5837,10.459-3.9445,13.8055-3.5369,5.0128-8.9366,7.6141-13.6411,8.9443a36.271,36.271,0,0,1-9.1344,1.3773l-.0493,0H82.6763c-4.423-.012-7.5323-1.6108-9.6459-4.188A16.2714,16.2714,0,0,1,69.838,91.751,27.0187,27.0187,0,0,1,70.7341,85.0039Z" class="fill"/>
  </g>
</svg>
