<svg xmlns="http://www.w3.org/2000/svg" viewBox="0 0 320 320">
  <title>_.weather.fog-filled</title>
  <g id="briefcase">
    <path d="M215.3042,221h27.6792a9.5532,9.5532,0,0,0,7.2876-3.55,13.3587,13.3587,0,0,0,0-16.719,9.5526,9.5526,0,0,0-7.2876-3.55H215.3042a9.5529,9.5529,0,0,0-7.2877,3.55,13.3587,13.3587,0,0,0,0,16.719A9.5531,9.5531,0,0,0,215.3042,221Z" class="fill"/>
    <path d="M158.0057,184.7233a13.3583,13.3583,0,0,0,0-16.7191,9.5533,9.5533,0,0,0-7.2875-3.55H49.2266a9.5534,9.5534,0,0,0-7.2876,3.55,13.3583,13.3583,0,0,0,0,16.7191,9.5534,9.5534,0,0,0,7.2876,3.55H150.7183A9.5534,9.5534,0,0,0,158.0057,184.7233Z" class="fill"/>
    <path d="M97.2982,200.7313a13.3587,13.3587,0,0,0,0,16.719,9.5531,9.5531,0,0,0,7.2877,3.55h83.0386a9.5534,9.5534,0,0,0,7.2875-3.55,13.3583,13.3583,0,0,0,0-16.7191,9.5533,9.5533,0,0,0-7.2875-3.55H104.5859A9.5529,9.5529,0,0,0,97.2982,200.7313Z" class="fill"/>
    <path d="M277.9506,168.0042a9.5533,9.5533,0,0,0-7.2875-3.55H178.3979a9.5534,9.5534,0,0,0-7.2876,3.55,13.3583,13.3583,0,0,0,0,16.7191,9.5534,9.5534,0,0,0,7.2876,3.55h92.2651a9.5534,9.5534,0,0,0,7.2875-3.55,13.3583,13.3583,0,0,0,0-16.7191Z" class="fill"/>
    <path d="M86.1328,155.5454H196.8511a9.5534,9.5534,0,0,0,7.2875-3.55,13.3583,13.3583,0,0,0,0-16.7191,9.5533,9.5533,0,0,0-7.2875-3.55H86.1328a9.5529,9.5529,0,0,0-7.2877,3.55,13.3587,13.3587,0,0,0,0,16.719A9.5531,9.5531,0,0,0,86.1328,155.5454Z" class="fill"/>
    <path d="M217.243,135.2767a13.3587,13.3587,0,0,0,0,16.719,9.5531,9.5531,0,0,0,7.2877,3.55h18.4526a9.5532,9.5532,0,0,0,7.2876-3.55,13.3587,13.3587,0,0,0,0-16.719,9.5526,9.5526,0,0,0-7.2876-3.55H224.5308A9.5529,9.5529,0,0,0,217.243,135.2767Z" class="fill"/>
    <path d="M141.4917,122.8184h83.0391a9.5534,9.5534,0,0,0,7.2875-3.55,13.3583,13.3583,0,0,0,0-16.7191A9.5533,9.5533,0,0,0,224.5308,99H141.4917a9.5534,9.5534,0,0,0-7.2876,3.55,13.3583,13.3583,0,0,0,0,16.7191A9.5534,9.5534,0,0,0,141.4917,122.8184Z" class="fill"/>
  </g>
</svg>
