<svg xmlns="http://www.w3.org/2000/svg" viewBox="0 0 320 320">
  <title>_.weather.cloud-filled</title>
  <g id="briefcase">
    <path d="M52.1259,217.7963a18.2922,18.2922,0,0,0,10.3693,3.2031H243.8768l.09,0a48.6725,48.6725,0,0,0,19.1508-4.3685,31.0909,31.0909,0,0,0,12.3351-10.0983c3.3554-4.7681,5.5511-11.0995,5.5475-19.3713q0-1.6577-.1188-3.42c-.6167-9.0745-3.1122-15.9846-6.5654-21.2051A34.9409,34.9409,0,0,0,255.74,148.703a41.769,41.769,0,0,0-10.9244-2.0624,67.4572,67.4572,0,0,0-5.0909-19.4491A64.3353,64.3353,0,0,0,208.33,93.9438a44.8656,44.8656,0,0,0-20.0128-4.593c-11.2211.0032-21.4627,3.828-28.91,7.6326a78.8517,78.8517,0,0,0-11.44,7.0894,56.7174,56.7174,0,0,0-9.7388-7.2339A53.6375,53.6375,0,0,0,110.9164,89c-8.8408-.0026-18.8266,2.4077-29.4321,9.0358a39.2717,39.2717,0,0,0-15.9131,18.9213,52.2377,52.2377,0,0,0-3.5544,19.4678,57.5314,57.5314,0,0,0,.863,10.13,37.8943,37.8943,0,0,0-11.1338,8.5791c-5.9861,6.5557-12.101,17.3732-12.7283,34.1874q-.0179.475-.0179.9655a39.2121,39.2121,0,0,0,5.804,19.68A25.9186,25.9186,0,0,0,52.1259,217.7963Z" class="fill"/>
  </g>
</svg>
