<svg xmlns="http://www.w3.org/2000/svg" viewBox="0 0 320 320">
  <title>_.weather.sun</title>
  <g id="briefcase">
    <path d="M260.9658,132.9462a1.0012,1.0012,0,0,0-.7776-.7233l-39.093-7.4966L234.15,87.1229a1,1,0,0,0-1.2726-1.2726L195.2736,98.9045,187.777,59.8116a1,1,0,0,0-1.7385-.4658L160,89.4527,133.9614,59.3458a1,1,0,0,0-1.7385.4658l-7.4967,39.0929L87.1228,85.85A1,1,0,0,0,85.85,87.1229l13.0543,37.6034L59.8116,132.223a1,1,0,0,0-.4658,1.7385L89.4526,160,59.3458,186.0385a1,1,0,0,0,.4658,1.7385l39.0929,7.4966L85.85,232.8771a1,1,0,0,0,1.2726,1.2726l37.6034-13.0544,7.4967,39.093a1,1,0,0,0,1.7385.4658L160,230.5472l26.0386,30.1069a1,1,0,0,0,1.7385-.4658l7.4966-39.093L232.8771,234.15a1,1,0,0,0,1.2726-1.2726l-13.0544-37.6035,39.093-7.4966a1,1,0,0,0,.4658-1.7385L230.5471,160l30.1069-26.0385A1.0011,1.0011,0,0,0,260.9658,132.9462Zm-32.6014,26.2974a1,1,0,0,0,0,1.5128l29.4207,25.4451-38.2019,7.3257a1,1,0,0,0-.7563,1.31l12.7568,36.7464-36.7465-12.7568a1,1,0,0,0-1.31.7563l-7.3258,38.2018-25.4449-29.4206a1,1,0,0,0-1.5128,0l-25.4451,29.4205-7.3257-38.2018a1,1,0,0,0-1.31-.7563L88.4161,231.5836l12.757-36.7464a1,1,0,0,0-.7563-1.31l-38.2019-7.3257,29.4207-25.4451a1,1,0,0,0,0-1.5128L62.2147,133.7985l38.202-7.3257a1,1,0,0,0,.7563-1.31L88.4161,88.4163l36.7466,12.7569a1,1,0,0,0,1.31-.7563l7.3257-38.202,25.4451,29.4208a1,1,0,0,0,1.5128,0l25.4449-29.4207,7.3258,38.202a1,1,0,0,0,1.31.7563l36.7465-12.757-12.7568,36.7465a1,1,0,0,0,.7563,1.31l38.2019,7.3257Z" class="fill"/>
  </g>
</svg>
