<svg xmlns="http://www.w3.org/2000/svg" viewBox="0 0 320 320">
  <title>_.weather.clouds-filled</title>
  <g id="briefcase">
    <path d="M247.2866,169.1375a28.8081,28.8081,0,0,0-15.3135-11.4059,34.4881,34.4881,0,0,0-8.8428-1.6909,55.5762,55.5762,0,0,0-4.1693-15.833,52.8935,52.8935,0,0,0-25.81-27.3322,36.94,36.94,0,0,0-16.4769-3.7819c-9.2354.0032-17.651,3.1484-23.7689,6.2734a65.2763,65.2763,0,0,0-9.2782,5.733,46.9592,46.9592,0,0,0-7.8994-5.8461,44.1287,44.1287,0,0,0-22.47-6.4481c-7.2762-.0026-15.4946,1.9832-24.21,7.43a32.3594,32.3594,0,0,0-13.11,15.5885,42.9782,42.9782,0,0,0-2.9254,16.0184,47.52,47.52,0,0,0,.6858,8.1974,31.4042,31.4042,0,0,0-9.0538,7.01c-4.93,5.3978-9.9613,14.3085-10.4756,28.1256q-.0148.3924-.0149.7982a32.3021,32.3021,0,0,0,4.7829,16.2206,21.4141,21.4141,0,0,0,6.0514,6.4683,15.1694,15.1694,0,0,0,8.5969,2.6552H222.1931l.0768,0a40.05,40.05,0,0,0,15.7676-3.5966,25.6556,25.6556,0,0,0,10.1772-8.333c2.7717-3.9376,4.5819-9.1667,4.5782-15.9756q0-1.3647-.0975-2.8146C252.1886,179.1376,250.1345,173.4426,247.2866,169.1375Z" class="fill"/>
    <path d="M52.1,161.5958a41.5708,41.5708,0,0,1,13.4161-11.35.9992.9992,0,0,0,.5234-1.0327,54.4985,54.4985,0,0,1-.61-8.0541,43.7211,43.7211,0,0,1,4.0638-18.9011c3.2163-6.7,8.7725-13.3267,18.3187-18.467a45.4614,45.4614,0,0,1,21.804-5.6741c14.7767-.0084,26.8162,7.4219,32.6621,11.6985a1.0033,1.0033,0,0,0,1.1135.0446c3.3094-2.0382,13.1166-7.4386,20.45-9.9968a16.1582,16.1582,0,0,1,3.71-.7252,85.0059,85.0059,0,0,1,8.5392-.3265c1.5758,0,3.3527.02,5.36.0645a1,1,0,0,0,.9581-1.3516c-4.1771-11.12-10.6338-18.7158-18.1064-23.4929a44.4532,44.4532,0,0,0-24.1061-6.744,51.8536,51.8536,0,0,0-26.017,6.9271,30.0739,30.0739,0,0,0-8.44,7.2036,15.379,15.379,0,0,0-3.0669,6.5043,55.5985,55.5985,0,0,0-7.5745-5.4464C89.4451,79.0852,81.506,75.67,72.3624,75.6666c-9.1428-.01-19.4476,3.4633-29.5959,13.6262-10.1284,10.116-12.7346,20.7513-12.7249,28.8315a37.0085,37.0085,0,0,0,2.2637,12.9026,37.5582,37.5582,0,0,0-10.73,7.4241c-5.8958,5.75-11.94,15.2754-12.5576,30.0627Q9,168.9351,9,169.37a31.8364,31.8364,0,0,0,5.7379,17.3492,24.0913,24.0913,0,0,0,7.218,6.8783,19.4841,19.4841,0,0,0,10.16,2.7987H42.61a1,1,0,0,0,.9781-1.2076,28.7076,28.7076,0,0,1-.665-5.8813q0-.44.0179-.8589l-.9991-.0427.9991.0422C43.4584,176.3077,47.4293,167.6754,52.1,161.5958Z" class="fill"/>
    <path d="M303.3716,148.2983l.9977-.068c-.5413-7.9673-2.7339-14.0433-5.7717-18.6355a30.7319,30.7319,0,0,0-16.3368-12.1667,36.7935,36.7935,0,0,0-9.4578-1.8053,59.5811,59.5811,0,0,0-4.0385-17.9651,51.3355,51.3355,0,0,0-9.557-15.6271A47.8047,47.8047,0,0,0,240.667,69.4329,32.7618,32.7618,0,0,0,228.7909,67.22c-10.4977.0065-20.2616,4.8641-27.4286,11.01a43.3419,43.3419,0,0,0-8.5874,9.8129c-2.0571,3.3335-3.26,6.5853-3.2684,9.4541a7.6693,7.6693,0,0,0,.7571,3.4628,1.0051,1.0051,0,0,0,.5981.5073,40.4349,40.4349,0,0,1,5.884,2.3319,58.07,58.07,0,0,1,25.2888,23.5505,63.1539,63.1539,0,0,1,7.4724,21.2621l.0555.2073c.0585.15.1216.3419.2006.5547a.9986.9986,0,0,0,.8043.6422,38.4559,38.4559,0,0,1,16.983,6.5023c6.142,4.4025,11.7039,11.5737,13.483,23.6268a1.0018,1.0018,0,0,0,.99.8547h9.8865a42.7535,42.7535,0,0,0,16.8282-3.8386,27.36,27.36,0,0,0,10.8536-8.8865c2.9546-4.198,4.8856-9.7726,4.882-17.04q0-1.4559-.104-3.0035Z" class="fill"/>
  </g>
</svg>
