<svg xmlns="http://www.w3.org/2000/svg" viewBox="0 0 320 320">
  <title>_.weather.sun-filled</title>
  <g id="briefcase">
    <path d="M260.9658,132.9462a1.0012,1.0012,0,0,0-.7776-.7233l-39.093-7.4966L234.15,87.1229a1,1,0,0,0-1.2726-1.2726L195.2736,98.9046l-7.4966-39.093a1,1,0,0,0-1.7385-.4658L160,89.4527,133.9614,59.3458a1,1,0,0,0-1.7385.4658l-7.4967,39.0929L87.1228,85.85A1,1,0,0,0,85.85,87.1229l13.0543,37.6034L59.8116,132.223a1,1,0,0,0-.4658,1.7385L89.4526,160,59.3458,186.0385a1,1,0,0,0,.4658,1.7385l39.0927,7.4965L85.85,232.8771a1,1,0,0,0,1.2726,1.2726l37.6034-13.0544,7.4967,39.093a1,1,0,0,0,1.7385.4658L160,230.5472l26.0386,30.1069a1,1,0,0,0,1.7385-.4658l7.4966-39.093L232.8771,234.15a1,1,0,0,0,1.2726-1.2726l-13.0544-37.6035,39.093-7.4966a1,1,0,0,0,.4658-1.7385L230.5471,160l30.1069-26.0385A1.0011,1.0011,0,0,0,260.9658,132.9462Z" class="fill"/>
  </g>
</svg>
