<svg xmlns="http://www.w3.org/2000/svg" viewBox="0 0 320 320">
  <title>_.weather.tornado</title>
  <g id="briefcase">
    <path d="M238.79,145.8376a27.5026,27.5026,0,0,0,6.504-13.2352,8.759,8.759,0,0,1,.7076-1.9622,58.357,58.357,0,0,1,2.9773-5.3047c1.8474-3.0226,4.0436-6.4208,5.7928-9.5382a41.3186,41.3186,0,0,0,2.1954-4.4092,10.3278,10.3278,0,0,0,.9215-3.7073,3.3766,3.3766,0,0,0-.363-1.6085,1,1,0,0,0-1.4635-.3411c-2.3363,1.672-8.4655,6.2117-14.77,10.652-3.15,2.2191-6.3425,4.4116-9.1124,6.2a50.2833,50.2833,0,0,1-6.5154,3.7481,1,1,0,0,0-.2911,1.66,11.7377,11.7377,0,0,1,2.0314,2.3331,3.4614,3.4614,0,0,1,.57,1.4478,6.6332,6.6332,0,0,1-1.8224,2.1379,34.79,34.79,0,0,1-7.97,4.6924,87.6015,87.6015,0,0,1-13.5573,4.6843,151.4237,151.4237,0,0,1-38.3107,4.5808q-2.825,0-5.7582-.09a155.4244,155.4244,0,0,1-29.9285-3.6528,90.9027,90.9027,0,0,1-19.7532-6.7424c-4.9513-2.4436-8.2673-4.9591-9.8806-6.9346a.9994.9994,0,0,0-.4744-.32,108.9965,108.9965,0,0,1-15.9275-6.2847,1,1,0,0,0-1.4037.61,25.8549,25.8549,0,0,0-.686,2.8244,24.0606,24.0606,0,0,0-.3867,4.2489c-.0061,6.5728,2.8949,12.293,7.7544,17.0363,4.8619,4.7531,11.6755,8.5973,19.6847,11.624a119.2854,119.2854,0,0,0,18.5959,5.2037,177.07,177.07,0,0,0,28.9711,3.2236q2.9515.0912,5.9354.0914a174.78,174.78,0,0,0,38.9628-4.1991,106.3222,106.3222,0,0,0,17.4746-5.5914,102.417,102.417,0,0,1-18.35,5.9987,1,1,0,0,0-.09,1.9222,38.3593,38.3593,0,0,1,10.0406,4.74,37.39,37.39,0,0,1-5.0964,2.1949,75.65,75.65,0,0,1-10.236,2.7639A124.4925,124.4925,0,0,1,171.25,178.816q-2.2916,0-4.687-.0729c-14.2754-.4408-25.1018-2.749-32.42-5.3706a12.7868,12.7868,0,0,1-3.2753-1.9432,57.7192,57.7192,0,0,0-9.1445-5.7839c-4.7173-2.4133-11.6127-5.2687-22.3118-8.5078a.9987.9987,0,0,0-1.1514.45,1.7951,1.7951,0,0,0-.2451.9161,2.9237,2.9237,0,0,0,.4857,1.488,13.1527,13.1527,0,0,0,1.985,2.33c1.2091,1.1923,2.6512,2.4519,3.7622,3.583a12.5176,12.5176,0,0,1,1.3263,1.5324,1.8885,1.8885,0,0,1,.3937.8143l0,.0087.0011-.0062a20.1835,20.1835,0,0,0-.327,3.5652,16.8228,16.8228,0,0,0,2.32,8.6179,22.6492,22.6492,0,0,0,6.0688,6.5805c4.6479,3.4917,10.6895,5.9743,16.9541,7.7851,13.9275,4.0176,28.9934,4.6769,32.1443,4.777.6927.0214,1.9663.0509,3.6934.0509a163.1062,163.1062,0,0,0,23.9878-1.7608,93.534,93.534,0,0,0,18.5146-4.6313,42.8849,42.8849,0,0,0,13.7671-7.9509,22.5761,22.5761,0,0,0,7.3771-12.8926,20.1373,20.1373,0,0,0,.3256-3.5532,17.44,17.44,0,0,0-5.0431-12.2239.9894.9894,0,0,0-.7723-.3019c.313-.1649.6376-.3222.9453-.4907A46.0977,46.0977,0,0,0,238.79,145.8376Zm-9.9955,23.0037a18.1708,18.1708,0,0,1-.2943,3.2008,20.5632,20.5632,0,0,1-6.7537,11.7649,40.9359,40.9359,0,0,1-13.1276,7.56,91.5727,91.5727,0,0,1-18.1133,4.5259,161.1389,161.1389,0,0,1-23.6835,1.7376c-1.7042,0-2.9578-.0291-3.6315-.05-3.06-.0922-18.0293-.763-31.6515-4.7-6.1241-1.7654-11.9664-4.1939-16.3068-7.462a20.6673,20.6673,0,0,1-5.5437-5.99,14.8107,14.8107,0,0,1-2.047-7.61,18.2137,18.2137,0,0,1,.2958-3.2125l.0011-.0062a2.035,2.035,0,0,0,.03-.3491,3.0833,3.0833,0,0,0-.4766-1.5255,12.7461,12.7461,0,0,0-1.989-2.3968c-1.2128-1.2128-2.6584-2.474-3.7728-3.5911-.3947-.3945-.7433-.77-1.0228-1.1067,12.9281,4.0291,19.8159,7.4048,24.0181,9.9814,2.2043,1.352,3.6788,2.4858,4.957,3.4275a14.65,14.65,0,0,0,3.787,2.2158c7.5532,2.7045,18.5714,5.0389,33.0323,5.4868q2.4258.0748,4.7488.0738a126.47,126.47,0,0,0,24.9091-2.3212,77.624,77.624,0,0,0,10.5092-2.84,33.7845,33.7845,0,0,0,6.7288-3.1091,1,1,0,0,0,.1351-1.58,29.5438,29.5438,0,0,0-8.7489-4.8917,92.4249,92.4249,0,0,0,20.0015-7.5223A15.2345,15.2345,0,0,1,228.7948,168.8413Zm-3.8308-14.7707a93.303,93.303,0,0,1-23.3977,8.4877,172.8118,172.8118,0,0,1-38.5085,4.1469q-2.95,0-5.8735-.09a175.066,175.066,0,0,1-28.64-3.1856,117.3054,117.3054,0,0,1-18.2821-5.1136c-7.8372-2.9576-14.42-6.7048-18.9926-11.1826-4.5751-4.4875-7.1471-9.6375-7.1532-15.6067a22.0892,22.0892,0,0,1,.3555-3.8963c.0892-.4984.2025-.9913.3271-1.4823a112.349,112.349,0,0,0,14.8578,5.8005c1.9576,2.2693,5.38,4.7718,10.3318,7.2266a92.87,92.87,0,0,0,20.192,6.8989,157.4161,157.4161,0,0,0,30.3146,3.7027q2.9637.0916,5.82.09a153.4067,153.4067,0,0,0,38.821-4.647,80.3457,80.3457,0,0,0,17.3031-6.4861,29.3381,29.3381,0,0,0,5.01-3.3011,7.9251,7.9251,0,0,0,2.486-3.1532.9729.9729,0,0,0,.0548-.3378v-.022a5.1171,5.1171,0,0,0-.8868-2.6538,11.72,11.72,0,0,0-1.345-1.7156c1.498-.7724,3.3776-1.9142,5.5073-3.2869,4.2095-2.7175,9.327-6.32,13.8334-9.5581,3.5392-2.5432,6.6854-4.85,8.7168-6.3268a8.9434,8.9434,0,0,1-.3763,1.4036,35.4736,35.4736,0,0,1-2.6577,5.473c-1.7483,3.0706-3.939,6.4521-5.7727,9.4714-.9174,1.5109-1.746,2.9313-2.3911,4.1942a13.0084,13.0084,0,0,0-1.2917,3.33,25.4955,25.4955,0,0,1-6.0486,12.28A44.1245,44.1245,0,0,1,224.964,154.0706Z" class="fill"/>
    <path d="M84.5455,120.9242a110.9834,110.9834,0,0,0,16.2208,6.4028c15.0435,4.7045,32.749,7.4086,50.771,7.9665q3.5067.1084,7.031.1088c24.6654-.003,49.5842-3.9568,68.71-11.9345a82.9,82.9,0,0,0,16.3022-8.8689c9.0272-6.4553,15.2338-14.4984,16.96-24.1429a28.6521,28.6521,0,0,0,.4585-5.0557,27.5245,27.5245,0,0,0-6.1287-17.0967c-3.9121-5.0549-9.5-9.4465-16.3016-13.1965a1.0085,1.0085,0,0,0-.5793-.12L187.811,59.86a1,1,0,0,0-.0427,1.9856c18.6978,2.6309,32.6913,7.5356,41.9532,12.767a41.35,41.35,0,0,1,10.328,7.8085c2.2623,2.4973,3.2817,4.7835,3.2692,6.4778a4.1691,4.1691,0,0,1-.0631.7318c-.2269,1.3463-1.3771,3.1877-3.5244,5.1617a43.3651,43.3651,0,0,1-9.2065,6.1854,111.286,111.286,0,0,1-27.3646,9.4208,192.1931,192.1931,0,0,1-41.0317,4.17q-3.5131,0-7.1566-.1114a195.3958,195.3958,0,0,1-33.6307-3.7911,122.6268,122.6268,0,0,1-24.014-7.3782c-7.0016-3.0572-12.226-6.4112-15.6555-9.5735a20.3442,20.3442,0,0,1-3.8-4.51,7.4916,7.4916,0,0,1-1.1909-3.7,4.1267,4.1267,0,0,1,.063-.7306,6.5786,6.5786,0,0,1,2.0056-3.1362c2.1379-2.1586,5.95-4.6537,11.0884-7.1232,15.428-7.4324,42.78-14.7635,74.1-15.2831l.0485-.002,55.4067-3.62a1,1,0,0,0,.1969-1.9629c-6.7837-1.841-15.5356-5.3411-24.5807-8.449-9.0529-3.1055-18.4008-5.832-26.5465-6.0889Q164.9355,39,161.3906,39c-23.7743.0025-47.7905,3.6752-66.6151,11.0857-9.4121,3.7079-17.5315,8.3515-23.6677,13.98C64.9745,69.69,60.8209,76.33,59.459,83.9468A28.6283,28.6283,0,0,0,59,89.0025a27.9194,27.9194,0,0,0,7.0286,18.2126C70.4982,112.54,76.8584,117.1012,84.5455,120.9242ZM61.4276,84.2993c1.2748-7.1108,5.1405-13.35,11.0323-18.76,8.8314-8.1113,22.2223-14.2766,37.8314-18.378A204.9027,204.9027,0,0,1,161.3906,41q3.5112,0,7.01.1082c7.7507.2348,16.9752,2.8921,25.9586,5.9814,6.8491,2.3514,13.5511,4.9413,19.4384,6.8817l-49.9253,3.262c-24.0769.4079-45.793,4.78-61.7369,10.1873a97.2874,97.2874,0,0,0-19.194,8.5515,30.5733,30.5733,0,0,0-5.6108,4.2568,8.4146,8.4146,0,0,0-2.5552,4.192,6.0849,6.0849,0,0,0-.0945,1.0844,9.4434,9.4434,0,0,0,1.4658,4.7123,26.9819,26.9819,0,0,0,7.2369,7.5,66.7654,66.7654,0,0,0,13.1427,7.4035,124.6011,124.6011,0,0,0,24.4081,7.5037,197.3885,197.3885,0,0,0,33.9755,3.8319q3.6738.1134,7.2184.1122a194.1784,194.1784,0,0,0,41.4606-4.2166,113.234,113.234,0,0,0,27.8639-9.6026,45.2872,45.2872,0,0,0,9.6362-6.4886c2.31-2.1476,3.7533-4.2225,4.1355-6.2786a6.1584,6.1584,0,0,0,.0941-1.0834c-.0127-2.4661-1.3445-5.1039-3.7842-7.8177-3.6753-4.0666-9.9536-8.3459-18.8629-12.1407a129.8118,129.8118,0,0,0-27-7.8344l42.1935-4.0972c6.5077,3.62,11.7871,7.8145,15.4241,12.5182A25.5133,25.5133,0,0,1,259,85.4a26.6693,26.6693,0,0,1-.4272,4.7033c-1.61,8.9892-7.4,16.5994-16.1553,22.8688a80.9219,80.9219,0,0,1-15.9086,8.65c-18.7742,7.8389-43.4911,11.7833-67.94,11.78q-3.4905,0-6.9691-.1079c-17.8618-.5515-35.41-3.238-50.2358-7.8762a109.0033,109.0033,0,0,1-15.9275-6.2848c-7.5148-3.7346-13.65-8.1649-17.8751-13.2037C63.3345,100.8848,61.0039,95.2678,61,89.0025A26.6469,26.6469,0,0,1,61.4276,84.2993Z" class="fill"/>
    <path d="M186.3456,246.7959a35.846,35.846,0,0,0,.6512-6.2516,16.2574,16.2574,0,0,0-.8624-5.4955,12.8893,12.8893,0,0,0-3.0961-4.8493.9978.9978,0,0,0-1.4373.0257c.07-.4326.1279-.8571.1655-1.26.024-.28.0157-.4781.0248-.61a1,1,0,0,0-1.2678-1.0187c-1.9443.5439-3.9419,1.0165-5.9756,1.4159a94.7838,94.7838,0,0,1-18.11,1.72q-1.496,0-2.9781-.0458c-10.6124-.3253-21.2662-2.433-29.41-6.3229A35.0972,35.0972,0,0,1,116.32,219.19a.9988.9988,0,0,0-1.3931.09,17.3165,17.3165,0,0,0-4.2494,8.692,16.8136,16.8136,0,0,0-.2742,2.9671,12.9423,12.9423,0,0,0,1.6953,6.5424,15.4558,15.4558,0,0,0,4.37,4.7366c.0852.0622.179.1157.2654.1767a.9887.9887,0,0,0-.3752.054,1.0029,1.0029,0,0,0-.6267.7094c-.0725.3162-.1953.6923-.2794,1.1545a20.4348,20.4348,0,0,0-.3284,3.6078,17.7257,17.7257,0,0,0,3.4448,10.581,24.5763,24.5763,0,0,0,9.4918,7.5313c.0244.0117.0511.0216.0757.0332a.9668.9668,0,0,0-.9266.6392,20.0789,20.0789,0,0,0-1.002,3.5554,18.7559,18.7559,0,0,0-.3013,3.3105,15.7171,15.7171,0,0,0,5.802,12.3308c3.6809,3.0643,8.8752,4.89,15.0543,5.0815q.5312.0164,1.0573.0162a29.81,29.81,0,0,0,17.3475-5.27,21.5275,21.5275,0,0,0,8.9581-13.696,18.2945,18.2945,0,0,0,.2916-3.2252,16.68,16.68,0,0,0-.5306-4.1987.9842.9842,0,0,0-.4945-.6063c.1272-.0752.2659-.14.3917-.2168C180.4707,259.7277,185.0826,253.8586,186.3456,246.7959Zm-72.5115-10.309a10.9319,10.9319,0,0,1-1.4307-5.5477,14.8317,14.8317,0,0,1,.2429-2.6145,15.26,15.26,0,0,1,3.162-6.99,37.8792,37.8792,0,0,0,7.38,4.5743c8.4989,4.0516,19.3744,6.1791,30.2092,6.517l.031-1-.0308,1q1.5115.0464,3.04.0467a96.7622,96.7622,0,0,0,18.4957-1.7579c1.6033-.3149,3.177-.6882,4.7313-1.0918-.0225.1605-.0341.3192-.063.4816a15.2941,15.2941,0,0,1-3.8623,7.81,22.18,22.18,0,0,1-7.2046,5.0131c-6.9175,3.1693-15.6165,4.0089-21.4674,4.1368-.6895.0154-1.34.022-1.9445.022-.8918,0-1.6816-.0142-2.3408-.0345a75.2381,75.2381,0,0,1-11.8427-1.3026c-4.7474-.9329-9.7367-2.5374-13.29-5.145A13.4628,13.4628,0,0,1,113.8341,236.4869Zm61.4025,4.6329a22.9881,22.9881,0,0,1-3.1226,2.326c-5.0687,3.1361-12.3361,5.1415-22.1272,5.82-.1711.0119-.3416.0172-.5121.0172a21.9,21.9,0,0,1-2.4562-.2175l.0941-.0016c5.9961-.1415,14.8889-.9592,22.2537-4.3173A26.2537,26.2537,0,0,0,175.2366,241.12Zm-37.8276,7.5859c-2.0668-.1981-4.4114-.5048-6.823-.9811-1.2148-.2387-2.4451-.5231-3.6636-.8553,1.2136.3253,2.4312.6042,3.63.8419C132.98,248.19,135.3295,248.5021,137.4089,248.7057Zm34.7487,22.9756a19.5235,19.5235,0,0,1-8.1525,12.4213A27.8174,27.8174,0,0,1,147.8207,289q-.4957,0-.9954-.0154c-5.8252-.18-10.5746-1.9-13.8362-4.6191a13.7,13.7,0,0,1-5.0822-10.7941,16.12,16.12,0,0,1,.8408-5.1576,47.6489,47.6489,0,0,0,17.56,3.6149q.9851.03,1.9572.03c9.2257-.0012,17.4673-2.06,23.9506-5.6661a14.8164,14.8164,0,0,1,.203,2.416A16.3038,16.3038,0,0,1,172.1576,271.6813Zm.588-9.6037c-6.2708,3.8138-14.6433,6.0536-24.1356,6.0523q-.9408,0-1.8956-.0294a44.7411,44.7411,0,0,1-17.7933-3.8736,22.59,22.59,0,0,1-8.7338-6.9014,15.7128,15.7128,0,0,1-3.0627-9.4051,18.3914,18.3914,0,0,1,.2478-2.89,38.579,38.579,0,0,0,12.8262,4.6563,77.1688,77.1688,0,0,0,12.1686,1.3392c.6793.0208,1.4893.0354,2.4026.0354.597,0,1.24-.0065,1.9181-.0213a24.8609,24.8609,0,0,0,2.787.2427c.2119,0,.429-.0065.6508-.022,9.9872-.6963,17.5627-2.7331,23.04-6.1136a21.5673,21.5673,0,0,0,9.6249-12.1525,10.6971,10.6971,0,0,1,1.46,2.7251,14.2728,14.2728,0,0,1,.7467,4.8245,33.9373,33.9373,0,0,1-.62,5.8992C183.2288,252.8444,179.0614,258.2322,172.7456,262.0776Z" class="fill"/>
    <path d="M167.9723,252.1075a.9968.9968,0,0,0-1.0554-.1411c-6.9181,3.1693-15.6172,4.0093-21.4679,4.1368a1,1,0,0,0-.0815,1.9943c1.0718.1124,2.2006.1922,3.3931.2291l.0114-.3652h0l-.0112.3652q.7661.0235,1.5083.0233a41.5,41.5,0,0,0,11.2147-1.4628,25.7319,25.7319,0,0,0,6.7609-2.8679,1,1,0,0,0,.135-1.5815C168.2017,252.2783,168.0492,252.1737,167.9723,252.1075Z" class="fill"/>
    <path d="M209.6722,202.5312a21.3361,21.3361,0,0,0,.3425-3.7659,19.1861,19.1861,0,0,0-.49-4.3331,1,1,0,0,0-1.327-.7106,91.5806,91.5806,0,0,1-18.1138,4.5255h0a161.1218,161.1218,0,0,1-23.6833,1.7375c-1.7043,0-2.9578-.0292-3.6313-.05-3.06-.0917-18.03-.7625-31.6512-4.699h0c-6.124-1.7661-11.9663-4.1944-16.307-7.4624a.9989.9989,0,0,0-1.37.16,23.8946,23.8946,0,0,0-5.2946,11.1677,21.6261,21.6261,0,0,0-.3489,3.8179,18.4909,18.4909,0,0,0,2.0574,8.5582,22.9307,22.9307,0,0,0,5.5864,6.8781,37.0747,37.0747,0,0,0,8.1685,5.2c8.4989,4.0511,19.3749,6.1786,30.21,6.5165q1.5125.0467,3.04.0467a96.8066,96.8066,0,0,0,18.4952-1.7574c2.0834-.41,4.1316-.8941,6.1287-1.4522,7.0946-1.9857,13.5435-4.92,18.5377-8.94C205.0122,213.9539,208.5508,208.8122,209.6722,202.5312Zm-46.9644-.5976c.692.0212,1.9657.0508,3.6929.0508a163.6682,163.6682,0,0,0,23.5592-1.6979,12.3334,12.3334,0,0,1,1.6174,1.4456,19.7449,19.7449,0,0,1-3.0256,1.8616c-3.97,2.0356-10.459,4.2175-19.099,5.18q-1.08.12-2.2047.2144c-2.249.1874-4.63.2916-7.1387.291q-1.4015,0-2.8553-.0444a73.3039,73.3039,0,0,1-18.0674-2.6405c-1.5851-.4589-3.0314-.9556-4.34-1.4723a31.6756,31.6756,0,0,1-6.2111-3.1917,13.3683,13.3683,0,0,1-2.3977-2.0264,23.65,23.65,0,0,1,4.6827-2.6469C144.7473,201.1839,159.5836,201.8348,162.7079,201.9336Zm18.2371,23.0482c-1.9442.5434-3.9419,1.016-5.9758,1.4159a94.8219,94.8219,0,0,1-18.1095,1.72q-1.4962,0-2.9783-.0458c-10.6123-.3253-21.2666-2.433-29.41-6.3224a35.0918,35.0918,0,0,1-7.729-4.9137,20.94,20.94,0,0,1-5.1084-6.2734,16.4835,16.4835,0,0,1-1.8362-7.6437,19.6461,19.6461,0,0,1,.3176-3.4653,21.68,21.68,0,0,1,4.2976-9.52,51.1918,51.1918,0,0,0,13.682,6.4675,17.7014,17.7014,0,0,0-3.93,2.64,1.0016,1.0016,0,0,0-.15,1.2618,12.6051,12.6051,0,0,0,3.4906,3.2777c5.01,3.4229,14.7612,7.187,29.6863,7.653q1.4844.0457,2.9171.0452h0a86.5238,86.5238,0,0,0,9.5649-.518,69.1212,69.1212,0,0,0,12.7144-2.5753,44.4285,44.4285,0,0,0,7.0751-2.812,21.4817,21.4817,0,0,0,3.4137-2.1155q.4332-.34.7764-.6677a1.002,1.002,0,0,0,.15-1.2621,8.4534,8.4534,0,0,0-1.2429-1.46,92.2939,92.2939,0,0,0,15.2292-3.8777,17.3256,17.3256,0,0,1,.2251,2.7747,19.3536,19.3536,0,0,1-.3113,3.4135c-1.0309,5.7385-4.2291,10.4339-8.9369,14.2313C194.0623,220.2014,187.85,223.0518,180.9449,224.9818Z" class="fill"/>
  </g>
</svg>
