<svg xmlns="http://www.w3.org/2000/svg" viewBox="0 0 320 320">
  <title>_.weather.cloudy-filled</title>
  <g id="briefcase">
    <path d="M264.3156,203.5363A34.94,34.94,0,0,0,245.74,189.703a41.7584,41.7584,0,0,0-10.9244-2.0624,67.4577,67.4577,0,0,0-5.0909-19.4492A64.3326,64.3326,0,0,0,198.33,134.9443a44.8666,44.8666,0,0,0-20.0134-4.5931c-11.2209.0032-21.4624,3.8278-28.91,7.6322a78.8507,78.8507,0,0,0-11.44,7.0889,56.7165,56.7165,0,0,0-9.7387-7.2336A53.6394,53.6394,0,0,0,100.9167,130c-8.8408-.0026-18.8267,2.4077-29.4323,9.0356a39.2717,39.2717,0,0,0-15.9131,18.9213,52.2377,52.2377,0,0,0-3.5544,19.4678,57.5314,57.5314,0,0,0,.863,10.13,37.8989,37.8989,0,0,0-11.1338,8.5793c-5.9861,6.5557-12.101,17.3732-12.7283,34.1871q-.0179.475-.0179.9655a39.213,39.213,0,0,0,5.804,19.6808,25.9177,25.9177,0,0,0,7.322,7.8289A18.2922,18.2922,0,0,0,52.4951,262H233.8768l.0894,0a48.677,48.677,0,0,0,19.15-4.3682,31.094,31.094,0,0,0,12.336-10.0983c3.3557-4.7682,5.5516-11.1,5.548-19.3717q0-1.6575-.1188-3.42C270.2643,215.667,267.7687,208.7568,264.3156,203.5363Zm-.5,42.8473c-4.6567,6.632-11.7438,10.0562-17.8965,11.8057A47.2046,47.2046,0,0,1,233.9661,260l-.0715,0h-181.4a16.28,16.28,0,0,1-9.2522-2.8622c-3.9966-2.686-7.0812-7.0519-9.1428-11.8158A36.8082,36.8082,0,0,1,31,231.2871q0-.4536.0165-.89c.6226-16.36,6.507-26.6532,12.2077-32.9149a38.5581,38.5581,0,0,1,7.7536-6.5681,28.4944,28.4944,0,0,1,2.5052-1.4283c.2984-.1492.53-.2562.684-.3248l.1714-.0745.04-.0165.0074-.0029a1.0016,1.0016,0,0,0,.6055-1.1515l-.0091-.041a52.9056,52.9056,0,0,1-.9647-10.45,50.2588,50.2588,0,0,1,3.4081-18.7168,37.2567,37.2567,0,0,1,15.119-17.9761C82.86,134.2906,92.4388,132.0024,100.9167,132a51.6468,51.6468,0,0,1,26.29,7.5579,57.9434,57.9434,0,0,1,7.3865,5.2017c.8505.7078,1.5007,1.2959,1.9355,1.7043.2174.2042.381.3635.4889.47l.12.12.0349.0356a.9984.9984,0,0,0,1.3528.0817l.0463-.0372a74.5821,74.5821,0,0,1,12.4352-7.718c7.2042-3.598,16.8867-7.0677,27.31-7.0649a42.8582,42.8582,0,0,1,19.1309,4.3881,62.318,62.318,0,0,1,30.4359,32.2327,68.84,68.84,0,0,1,4.2391,13.9679c.3365,1.7839.5281,3.2244.6353,4.214.0535.4948.0861.8768.105,1.1327.0095.1279.0156.2244.0193.2876l.0048.0884a1,1,0,0,0,1.02.9565h.0075l.0422,0a39.2684,39.2684,0,0,1,17.2107,4.582,31.6341,31.6341,0,0,1,11.4806,10.4386c3.2465,4.9135,5.6382,11.4557,6.2383,20.2383q.1155,1.6979.1143,3.2845C268.9963,236.0862,266.9227,241.9576,263.8156,246.3835Z" class="fill"/>
    <path d="M294.316,96.3876a1.001,1.001,0,0,0-.7776-.7233l-34.9391-6.7,11.6672-33.6078a1,1,0,0,0-1.2726-1.2726L235.3854,65.75l-6.7-34.9386a1,1,0,0,0-1.7385-.4658l-23.272,26.9086L180.4028,30.3458a1,1,0,0,0-1.7385.4658l-6.7,34.9386L138.3563,54.0836a1,1,0,0,0-1.2726,1.2726L148.7508,88.964l-34.9391,6.7a1,1,0,0,0-.4658,1.7385L140.28,120.6974l-10.1113,9.2948a1,1,0,0,0,.0884,1.5449,86.0176,86.0176,0,0,0,8.3209,5.2745.9974.9974,0,0,0,1.1418-.13l.0418-.0365a64.5812,64.5812,0,0,1,11.8035-7.7466c6.9585-3.6135,16.4872-7.1025,27.2667-7.1007a49.39,49.39,0,0,1,22.0348,5.2009,69.549,69.549,0,0,1,28.1785,24.8582,76.3339,76.3339,0,0,1,10.2513,24.5985.997.997,0,0,0,.6479.7263l29.0493,10.084a1,1,0,0,0,1.2726-1.2726l-11.6672-33.6079,34.9391-6.7a1,1,0,0,0,.4658-1.7385l-26.9081-23.2719,26.9081-23.272A1.0014,1.0014,0,0,0,294.316,96.3876Z" class="fill"/>
  </g>
</svg>
