<svg xmlns="http://www.w3.org/2000/svg" viewBox="0 0 320 320">
  <title>_.weather.cloud</title>
  <g id="briefcase">
    <path d="M52.1259,217.7963a18.2921,18.2921,0,0,0,10.3692,3.2031H243.8768l.09,0a48.6732,48.6732,0,0,0,19.1509-4.3685,31.0917,31.0917,0,0,0,12.3351-10.0983c3.3554-4.7681,5.551-11.0995,5.5475-19.3713q0-1.6577-.119-3.42c-.6166-9.0745-3.1122-15.9846-6.5653-21.2051A34.9406,34.9406,0,0,0,255.74,148.703a41.7637,41.7637,0,0,0-10.9244-2.0624,67.4572,67.4572,0,0,0-5.0909-19.4491A64.3355,64.3355,0,0,0,208.33,93.9438a44.8659,44.8659,0,0,0-20.0128-4.593c-11.2211.0032-21.4627,3.828-28.91,7.6326a78.8517,78.8517,0,0,0-11.44,7.0894,56.7174,56.7174,0,0,0-9.7388-7.2339A53.6375,53.6375,0,0,0,110.9164,89c-8.8407-.0026-18.8265,2.4077-29.4321,9.0358a39.2715,39.2715,0,0,0-15.913,18.9213,52.2377,52.2377,0,0,0-3.5544,19.4678,57.5382,57.5382,0,0,0,.863,10.13,37.8943,37.8943,0,0,0-11.1338,8.5791c-5.9861,6.5557-12.101,17.3732-12.7283,34.1874q-.0179.4752-.0179.9655a39.2121,39.2121,0,0,0,5.804,19.68A25.9186,25.9186,0,0,0,52.1259,217.7963ZM41,190.2871q0-.4537.0164-.89c.6226-16.36,6.507-26.6534,12.2077-32.915a38.5581,38.5581,0,0,1,7.7536-6.5681,28.4869,28.4869,0,0,1,2.5052-1.4282c.2983-.1492.53-.2562.684-.3248l.1714-.0745.04-.0165.0074-.0029a1.0016,1.0016,0,0,0,.6055-1.1514l-.0091-.0411a52.9083,52.9083,0,0,1-.9646-10.45,50.2586,50.2586,0,0,1,3.408-18.7168,37.2571,37.2571,0,0,1,15.119-17.9761C92.86,93.2905,102.4387,91.0023,110.9164,91a51.6463,51.6463,0,0,1,26.29,7.5581,57.9412,57.9412,0,0,1,7.3865,5.2019c.8506.7078,1.5008,1.296,1.9356,1.7045.2174.2042.381.3635.4889.47l.12.12.0349.0356a.9984.9984,0,0,0,1.3529.0817l.0463-.0372a74.5868,74.5868,0,0,1,12.4355-7.7185c7.2043-3.5981,16.887-7.0681,27.3106-7.0653a42.857,42.857,0,0,1,19.13,4.3879,62.32,62.32,0,0,1,30.4359,32.2333,68.8317,68.8317,0,0,1,4.2391,13.9678c.3365,1.7839.5281,3.2244.6353,4.214.0536.4948.0861.8768.105,1.1327.01.1279.0156.2244.0193.2876l.0047.0884a1,1,0,0,0,1.02.9565h.0076l.0422,0A39.2691,39.2691,0,0,1,261.1667,153.2a31.6352,31.6352,0,0,1,11.4805,10.4385c3.2465,4.9135,5.6383,11.4556,6.2383,20.238q.1156,1.6978.1143,3.2845c-.0035,7.9241-2.0769,13.7954-5.1838,18.2213-4.6562,6.6318-11.7427,10.0562-17.8953,11.8057A47.2038,47.2038,0,0,1,243.9664,219l-.0718,0h-181.4a16.28,16.28,0,0,1-9.2521-2.8622c-3.9966-2.686-7.0812-7.0519-9.1428-11.8157A36.8069,36.8069,0,0,1,41,190.2871Z" class="fill"/>
  </g>
</svg>
