<svg xmlns="http://www.w3.org/2000/svg" viewBox="0 0 320 320">
  <title>arrow-cw-filled</title>
  <g id="Layer_16" data-name="Layer 16">
    <g>
      <path d="M272.3249,140.9293l-20.9281,2.2182a6.5116,6.5116,0,0,0-5.6026,7.2679l.0066.0674c4.6163,47.0809-28.764,89.363-74.3644,94.1963s-86.5-29.5758-91.1164-76.6567A87.6179,87.6179,0,0,1,101.8987,101.33l34.2665,28.7531L127.3324,40,40,49.2512,75.7006,79.3267a123.0565,123.0565,0,0,0-28.954,92.2543c6.4931,66.2217,63.9615,114.58,128.1009,107.7816s111.0451-66.2193,104.552-132.441h0A6.5426,6.5426,0,0,0,272.3249,140.9293Z" class="fill"/>
      <path d="M272.3249,140.9293l-20.9281,2.2182a6.5116,6.5116,0,0,0-5.6026,7.2679l.0066.0674c4.6163,47.0809-28.764,89.363-74.3644,94.1963s-86.5-29.5758-91.1164-76.6567A87.6179,87.6179,0,0,1,101.8987,101.33l34.2665,28.7531L127.3324,40,40,49.2512,75.7006,79.3267a123.0565,123.0565,0,0,0-28.954,92.2543c6.4931,66.2217,63.9615,114.58,128.1009,107.7816s111.0451-66.2193,104.552-132.441h0A6.5426,6.5426,0,0,0,272.3249,140.9293Z" class="outline"/>
      <path d="M272.3249,140.9293l-20.9281,2.2182a6.5116,6.5116,0,0,0-5.6026,7.2679l.0066.0674c4.6163,47.0809-28.764,89.363-74.3644,94.1963s-86.5-29.5758-91.1164-76.6567A87.6179,87.6179,0,0,1,101.8987,101.33l34.2665,28.7531L127.3324,40,40,49.2512,75.7006,79.3267a123.0565,123.0565,0,0,0-28.954,92.2543c6.4931,66.2217,63.9615,114.58,128.1009,107.7816s111.0451-66.2193,104.552-132.441h0A6.5426,6.5426,0,0,0,272.3249,140.9293Z" class="outline"/>
    </g>
  </g>
</svg>
