<svg xmlns="http://www.w3.org/2000/svg" viewBox="0 0 320 320">
  <defs>
    <style>
      .Graphic-Style-53 {
        fill: none;
        stroke: #1a1a1a;
        stroke-miterlimit: 2;
        stroke-width: 4px;
      }
    </style>
  </defs>
  <title>arrow-cw-outline</title>
  <g id="Layer_16" data-name="Layer 16">
    <path  d="M272.2049,142.7382l-21.4777,2.19a6.4828,6.4828,0,0,0-5.75,7.1739l.0068.0665c4.7376,46.4721-29.5194,88.2075-76.3173,92.9783s-88.7716-29.1934-93.5092-75.6655a84.3819,84.3819,0,0,1,22.1454-65.83l35.1663,28.3813L123.4047,43.114,33.7789,52.2456,70.4171,81.9322a118.4308,118.4308,0,0,0-29.7144,91.0614c6.6636,65.3654,65.6412,113.0983,131.4649,106.388s113.9612-65.363,107.2976-130.7284h0A6.643,6.643,0,0,0,272.2049,142.7382Z"/>
  </g>
</svg>
