<svg xmlns="http://www.w3.org/2000/svg" viewBox="0 0 320 320">
  <defs>
    <style>
      .Graphic-Style-53, .cls-1 {
        fill: none;
        stroke: #1a1a1a;
      }

      .Graphic-Style-53 {
        stroke-miterlimit: 2;
        stroke-width: 4px;
      }

      .cls-1 {
        stroke-linejoin: round;
        stroke-width: 8px;
      }
    </style>
  </defs>
  <title>arrow-cw</title>
  <g id="Layer_16" data-name="Layer 16">
    <g>
      <path  d="M282.0051,140.9293l-21.8,2.2182a6.5707,6.5707,0,0,0-5.8361,7.2679l.0069.0674c4.8087,47.0809-29.9625,89.363-77.463,94.1963S86.8087,215.1033,82,168.0224A85.3873,85.3873,0,0,1,104.4778,101.33l35.6942,28.7531L130.9712,40,40,49.2512,77.1882,79.3267a119.8379,119.8379,0,0,0-30.16,92.2543c6.7637,66.2217,66.6266,114.58,133.4384,107.7816s115.672-66.2193,108.9083-132.441h0A6.74,6.74,0,0,0,282.0051,140.9293Z"/>
      <path  d="M282.0051,140.9293l-21.8,2.2182a6.5707,6.5707,0,0,0-5.8361,7.2679l.0069.0674c4.8087,47.0809-29.9625,89.363-77.463,94.1963S86.8087,215.1033,82,168.0224A85.3873,85.3873,0,0,1,104.4778,101.33l35.6942,28.7531L130.9712,40,40,49.2512,77.1882,79.3267a119.8379,119.8379,0,0,0-30.16,92.2543c6.7637,66.2217,66.6266,114.58,133.4384,107.7816s115.672-66.2193,108.9083-132.441h0A6.74,6.74,0,0,0,282.0051,140.9293Z"/>
    </g>
  </g>
</svg>
