<svg xmlns="http://www.w3.org/2000/svg" viewBox="0 0 320 320"><defs><style>.fill{fill:#333;}.a,.fill{stroke:#333;stroke-linecap:round;stroke-linejoin:round;stroke-width:4px;}.a{fill:none;}</style></defs><title>book</title><path class="fill" d="M87.5652,245.7141c-6.811,0-12.1237,1.6754-15.9341,4.2854a16.1221,16.1221,0,0,0-6.9421,10.038L64.6956,260H62.7809c1.64,10.0715,6.7294,19.1356,22.48,19.936.0676.0039.1357.0073.2039.0107.6825.0314,1.3774.0531,2.1.0531-.6743.0013-1.3286-.0193-1.9734-.05.6448.0306,1.2991.0513,1.9734.05H249.4783L258,245.7141Zm-16.03,29.9817c-.334-.23-.6587-.4664-.9692-.7108C70.8763,275.2292,71.2008,275.4655,71.5349,275.6958ZM70.35,274.81q-.4288-.3479-.8258-.7134Q69.9217,274.4617,70.35,274.81Zm-5.879-13.2876c-.0133.1382-.0265.2764-.0359.4147C64.4441,261.7991,64.4572,261.6609,64.4706,261.5227Zm-.0667,1.0582c-.0033.1415,0,.2828.0006.4242C64.4036,262.8638,64.4006,262.7224,64.4039,262.5809Zm4.1891,10.5929q.2875.3065.594.604Q68.88,273.4808,68.593,273.1738Zm-4.1394-9.082c.0125.15.0229.3007.04.4507C64.4766,264.3923,64.4661,264.2422,64.4536,264.0918Zm.1262,1.061c.0251.1576.054.3147.0842.4718C64.6338,265.4675,64.6049,265.3105,64.58,265.1528Zm.2046,1.0579q.1077.4548.2449.9045Q64.8916,266.6655,64.7844,266.2107Zm.425,1.4355c.0614.1763.1246.3519.1931.5266C65.3342,267.9982,65.2708,267.8225,65.2095,267.6462Zm.4058,1.045c.09.2057.1874.4093.287.6124C65.8027,269.1006,65.7048,268.897,65.6152,268.6913Zm.616,1.2465c.1232.2236.25.446.385.6655C66.4808,270.3838,66.3542,270.1614,66.2312,269.9377Zm.6637,1.0967q.1979.2985.4125.59C67.1649,271.43,67.0269,271.2334,66.8949,271.0344Zm.6888.9661q.3413.44.7188.8639Q67.9249,272.44,67.5837,272Zm15.9724,7.7954q.7357.0762,1.5.1233Q84.2921,279.8719,83.5562,279.7959Zm-11.6527-3.8545q.4276.2807.88.5454Q72.3311,276.2219,71.9034,275.9414Zm1.202.7358q.6028.3391,1.2473.649Q73.7083,277.0167,73.1055,276.6772Zm1.574.7977q.5231.2411,1.073.4624Q75.2026,277.7164,74.6794,277.475Zm1.49.6273c.4684.1782.9464.3491,1.4427.5045C77.1162,278.4513,76.6382,278.2805,76.17,278.1023Zm1.4742.5151c.5063.1578,1.0323.299,1.5679.4316C78.6765,278.9164,78.15,278.7754,77.644,278.6174Zm2.0256.54q.6542.1509,1.3367.276Q80.3241,279.3079,79.67,279.157Zm1.7217.3483q.8577.1463,1.7588.25Q82.2489,279.6517,81.3914,279.5052Z"/><path class="a" d="M87.5652,40C80.0544,40,74.2009,40.0042,70,42.9384V251.2671A18.8068,18.8068,0,0,1,71.6311,250c3.81-2.61,9.123-4.2854,15.9341-4.2854H258V40Z"/><path class="a" d="M62,74.2856V245.7141A89.7082,89.7082,0,0,0,62.7809,260h1.9147A15.7424,15.7424,0,0,1,70,251.2671V42.9384C64.6682,46.6625,62,55.1091,62,74.2856Z"/></svg>