<svg xmlns="http://www.w3.org/2000/svg" viewBox="0 0 320 320">
  <title>brush-filled</title>
  <g id="console">
    <path d="M128.8979,270.2722c-7.67,4.8486-27.4631,12.349-46.5233,8.81-.4652-.0864-.95-.0322-1.2574-.1263C68.1951,275.0053,40,264.4275,40,264.4275c10.6112-2.4926,24.6316-4.8293,31.0027-9.88,6.8163-5.4033,13.2457-20.0556,17.4418-31.0332,6.2874-16.4487,18.0865-22.8638,29.9536-22.6666,15.6449.26,31.3931,12.0244,34.8037,27.5172C156.0394,241.2547,150.342,256.7156,128.8979,270.2722Z" class="fill"/>
    <path d="M268.8824,47.5768C260.3662,41.278,248.4486,40,248.4486,40s-40.5827,33.6284-72.6,74.4666a430.47,430.47,0,0,0-48.1561,77.22c11.8125.1746,32.6255,15.6659,34.6254,30.5656C242.3793,171.4089,280,62.7348,280,62.7348S278.9042,54.9892,268.8824,47.5768Z" class="fill"/>
  </g>
</svg>
