<svg xmlns="http://www.w3.org/2000/svg" viewBox="0 0 320 320"><defs><style>.a{fill:#ccc;}.b{fill:#1a1a1a;}</style></defs><title>bullet</title><path  d="M214.3688,163.0507v-.0018l-.0248,0c-.65-.0091-13.41-.4339-51.3738-9.9291L162,157l.97-3.8806a261.191,261.191,0,0,1-32.5469-10.1261c-3.3823-1.3394-5.805-2.4351-7.36-3.1833-.7776-.3742-1.3383-.6614-1.6937-.8489-.1777-.0937-.304-.1625-.38-.2047l-.0775-.0432-.011-.0062,0,.0009a3.9988,3.9988,0,0,0-5.8951,2.6039l-18.91,85.3843a4.0326,4.0326,0,0,0,.1127,2.1359c.157.4783,1.7288,4.8259,7.1285,10.5154,5.3953,5.6933,14.5932,12.6992,29.8434,18.63A84.078,84.078,0,0,0,163.7768,264a67.6034,67.6034,0,0,0,19.8854-2.88,41.0149,41.0149,0,0,0,7.5576-3.043,3.9855,3.9855,0,0,0,1.876-2.38l25.0869-87.5459a3.9978,3.9978,0,0,0-3.8138-5.1Zm5.0457-57.4652a153.229,153.229,0,0,0-15.3193-34.3321,133.9272,133.9272,0,0,0-9.2615-13.7513,4.0061,4.0061,0,0,0-4.6207-1.2115A157.5267,157.5267,0,0,0,159.21,74.2174a130.3465,130.3465,0,0,0-24.0973,22.678,87.4461,87.4461,0,0,0-16.9308,32.4479,3.9984,3.9984,0,0,0,1.3046,4.0967c.4465.3655,2.765,2.1714,10.001,5.1871,7.2369,3.0106,19.4006,7.2172,39.5425,12.2535,14.8712,3.7176,25.3151,5.83,32.6237,7.0194a90.5311,90.5311,0,0,0,13.8582,1.4579,13.0567,13.0567,0,0,0,2.883-.2261,3.9917,3.9917,0,0,0,2.9493-2.8687A81.34,81.34,0,0,0,224,135.3676,105.1131,105.1131,0,0,0,219.4144,105.5855Z"/><path  d="M214.3688,163.0507v-.0018l-.0248,0c-.65-.0091-13.41-.4339-51.3738-9.9291L162,157l.97-3.8806a261.191,261.191,0,0,1-32.5469-10.1261c-3.3823-1.3394-5.805-2.4351-7.36-3.1833-.7776-.3742-1.3383-.6614-1.6937-.8489-.1777-.0937-.304-.1625-.38-.2047l-.0775-.0432-.011-.0062,0,.0009a3.9988,3.9988,0,0,0-5.8951,2.6039l-18.91,85.3843c-.1557.7029-.1584,6.9618,5.2412,12.6513,5.3953,5.6933,16.5932,12.6992,31.8434,18.63A84.078,84.078,0,0,0,163.7768,264a67.6034,67.6034,0,0,0,19.8854-2.88,41.0149,41.0149,0,0,0,7.5576-3.043,3.9855,3.9855,0,0,0,1.876-2.38l25.0869-87.5459a3.9978,3.9978,0,0,0-3.8138-5.1Zm-47.89,86.23c-7.28,2.5562-34.1406-.2333-57.3387-15.4384-2.756-1.8064-3.6407-4.3981-4.4313-5.7482-.2162-.3693-.3852-.6843-.52-.95l17.5272-79.14c6.215,2.8,18.7486,7.7351,39.3134,12.8759h0c26.7368,6.68,41.2426,8.9667,48.1194,9.7526C209.1493,170.6332,198.1178,238.1711,166.4792,249.2807Z"/><path  d="M219.4144,105.5855a153.229,153.229,0,0,0-15.3193-34.3321,133.9272,133.9272,0,0,0-9.2615-13.7513,4.0061,4.0061,0,0,0-4.6207-1.2115A157.5267,157.5267,0,0,0,159.21,74.2174a130.3465,130.3465,0,0,0-24.0973,22.678,87.4461,87.4461,0,0,0-16.9308,32.4479,3.9984,3.9984,0,0,0,1.3046,4.0967c.4465.3655,2.765,2.1714,10.001,5.1871,7.2369,3.0106,19.4006,7.2172,39.5425,12.2535,14.8712,3.7176,25.3151,5.83,32.6237,7.0194a90.5311,90.5311,0,0,0,13.8582,1.4579,13.0567,13.0567,0,0,0,2.883-.2261,3.9917,3.9917,0,0,0,2.9493-2.8687A81.34,81.34,0,0,0,224,135.3676,105.1131,105.1131,0,0,0,219.4144,105.5855ZM132.561,131.2411c-2.6848-1.1272-4.558-2.0248-5.8184-2.6937a80.7469,80.7469,0,0,1,14.5941-26.6259c10.2569-12.7125,23.28-22.3383,33.7263-28.7224,5.2214-3.1942,9.7944-5.5828,13.0433-7.1639.8715-.4243,1.6389-.7857,2.3068-1.0938a153.6926,153.6926,0,0,1,12.0413,19.8854,137.7382,137.7382,0,0,1,9.3505,23.2368c2.533,8.5918,4.4258,17.8582,4.1953,27.3039C215.7611,145.1591,191.6894,156.066,132.561,131.2411Z"/></svg>