<svg id="calendar" xmlns="http://www.w3.org/2000/svg" viewBox="0 0 320 320">
  <title>calendar</title>
  <g>
    <path d="M100,86.6667S100,80,105,80s5,6.6667,5,6.6667v6.6667S110,100,105,100s-5-6.6667-5-6.6667Z" class="fill"/>
    <path d="M210,86.6667S210,80,215,80s5,6.6667,5,6.6667v6.6667S220,100,215,100s-5-6.6667-5-6.6667Z" class="fill"/>
  </g>
  <path d="M112.919,220.3411h43.7382v6.13H90.35v-7.3556l36.74-29.9474c15.2207-12.4342,22.3939-20.84,22.3939-32.75,0-12.96-8.7474-23.8176-27.1176-23.8176-18.1953,0-25.5434,10.8578-26.2428,22.0662L90,152.9157c1.75-18.914,16.97-26.4447,33.2412-26.4447,20.994,0,32.8909,12.6092,32.8909,30.2975,0,13.4854-6.9978,22.2418-24.8434,36.778l-32.8909,26.62.1748.175ZM170,128.3974v6.3049h48.9864c5.9482,0,12.5969-.175,12.5969-.175l.1748.175c0,.175-3.3243,4.7285-6.4733,10.3327l-45.6626,81.436h7.1732l52.1359-92.6444v-5.4292Z" class="fill"/>
  <path d="M259.9686,270H60.0314A10.0314,10.0314,0,0,1,50,259.9686V60.0314A10.0314,10.0314,0,0,1,60.0314,50H259.9686A10.0314,10.0314,0,0,1,270,60.0314V259.9686A10.0314,10.0314,0,0,1,259.9686,270ZM50,90H270" class="outline"/>
</svg>
