<svg xmlns="http://www.w3.org/2000/svg" viewBox="0 0 320 320"><defs><style>.Graphic-Style-3{fill:#1a1a1a;stroke:#1a1a1a;stroke-miterlimit:2;stroke-width:4px;}</style></defs><title>cat-filled</title><path class="Graphic-Style-3" d="M268.9907,97.82c-3.7391-4.03-14.3668,1.5608-26.8962,10.824,9.0472-17.0547,14.51-31.3409,9.7062-34.663-4.9745-3.44-15.7173,6.4857-27.3195,20.4177a36.7692,36.7692,0,0,0-33.8838-23.0846c-.1851,0-.3674.0115-.5519.0143C183.82,62.1128,174.6244,49.4551,171.42,50.0181c-3.3156.5825-1.3651,16.1482.3368,26.6292q-.9762.5995-1.9122,1.2581c-9.026-4.0052-19.9237-8.1479-21.1413-5.412-1.0378,2.3317,4.3683,10.1729,10.1409,17.5537a38.2242,38.2242,0,0,0-4.9562,17.0786c-5.0836,1.0019-11.922,2.8853-22.8615,5.1282C91.24,120.41,80.5159,172.001,84.6293,210.6285c-9.741-20.3-28.9882-40.85-33.31-35.5256-5.6343,6.9384,7.8853,44.561,19.7149,65.3357,6.59,11.5731,15.831,18.5752,24.3295,21.9919a.7937.7937,0,0,0-.0068.4258c1.1584,4.4246,64.307,12.0238,68.7448,2.7391,2.489-5.2074-5.8447-12.15-13.6439-17.2431q2.5893-1.574,5.1462-3.3877c9.9671,9.3464,19.7437,16.5935,23.585,14.8629,7.9518-3.5809-1.0376-27.196-3.6761-33.66a120.9571,120.9571,0,0,0,9.7741-13.7806,118.9,118.9,0,0,0,12.1211-26.7542C214.1642,169.9961,278.81,108.4042,268.9907,97.82Z"/></svg>