<svg xmlns="http://www.w3.org/2000/svg" viewBox="0 0 320 320">
  <title>cat</title>
  <g id="cat">
    <path d="M171.7573,76.6473c-1.7018-10.481-3.6523-26.0468-.3368-26.6292,3.2039-.563,12.4,12.0947,18.6251,21.3106A35.8658,35.8658,0,0,0,171.7573,76.6473Zm-16.16,168.3114c9.9693,9.3493,19.7493,16.6,23.5914,14.8688,7.9481-3.5792-1.0291-27.174-3.6724-33.6511A103.8315,103.8315,0,0,1,155.5972,244.9587ZM251.8007,73.9813c-4.9749-3.44-15.7175,6.4822-27.32,20.4155a38.7251,38.7251,0,0,1,.484,28.0308c5.7967-4.9662,11.6456-9.73,17.1309-13.785C251.142,91.5886,256.6038,77.3032,251.8007,73.9813Zm17.19,23.8391c-5.3762-5.7939-24.9864,8.2894-44.0239,24.6l-.0024.007A36.8132,36.8132,0,0,1,190.5975,146.77c-20.2991,0-36.7563-16.8922-36.7563-37.7277,0-.6452.0318-1.2823.0631-1.9195-5.0853,1.0011-11.9264,2.8859-22.8774,5.1313C91.24,120.41,80.5159,172.001,84.6293,210.6285c-9.741-20.3-28.9882-40.85-33.31-35.5256-5.6343,6.9384,7.8853,44.561,19.7149,65.3357,6.59,11.5731,15.831,18.5752,24.3295,21.9919a.7937.7937,0,0,0-.0068.4258c1.1584,4.4246,64.307,12.0238,68.7448,2.7391,2.489-5.2074-5.8447-12.15-13.6439-17.2431,1.7242-1.0482,3.4385-2.1845,5.14-3.3936a103.8315,103.8315,0,0,0,19.919-18.7823,120.7789,120.7789,0,0,0,9.77-13.79,118.9,118.9,0,0,0,12.1211-26.7542C214.1642,169.9961,278.81,108.4042,268.9907,97.82Zm-44.51-3.4236a36.7689,36.7689,0,0,0-33.8829-23.0823,35.9252,35.9252,0,0,0-20.7524,6.591c-9.026-4.0052-19.9237-8.1479-21.1413-5.412-1.0378,2.3317,4.3683,10.1729,10.1409,17.5537a38.2464,38.2464,0,0,0-4.94,17.0755c-.0313.6371-.0631,1.2743-.0631,1.9195,0,20.8356,16.4572,37.7277,36.7563,37.7277a36.8132,36.8132,0,0,0,34.3669-24.3423l.0024-.007a38.724,38.724,0,0,0-.4865-28.0238Z" class="outline"/>
  </g>
</svg>
