<svg xmlns="http://www.w3.org/2000/svg" viewBox="0 0 320 320"><defs><style>.a{fill:#1a1a1a;}.b{fill:none;stroke:#1a1a1a;stroke-miterlimit:2;stroke-width:4px;}</style></defs><title>checkmark-filled</title><path class="a" d="M120.4851,207.7639,228.6215,74.0324A109.9964,109.9964,0,0,0,50,160a111.0157,111.0157,0,0,0,.948,14.4693L60,162.4Z"/><path class="a" d="M249.5341,96.0872,126.8,250,56.4758,197.2569a110.0134,110.0134,0,1,0,193.0582-101.17Z"/><path class="b" d="M120.4851,207.7639,228.6215,74.0324A109.9964,109.9964,0,0,0,50,160a111.0157,111.0157,0,0,0,.948,14.4693L60,162.4Z"/><path class="b" d="M249.5341,96.0872,126.8,250,56.4758,197.2569a110.0134,110.0134,0,1,0,193.0582-101.17Z"/></svg>