<svg xmlns="http://www.w3.org/2000/svg" viewBox="0 0 320 320">
  <title>cog-filled</title>
  <g id="Layer_11" data-name="Layer 11">
    <path d="M251.2188,179.1027l-20.94,42.1078,15.9407,24.03-41.2126,27.3387-17.5191-26.41-44.0867,2.7418-14.1118,28.3768L85.0067,255.2667l12.84-25.82L71.8509,190.2578l-28.7812,1.79L40,142.6872l23.0814-1.4355L86.5645,94.0307,73.7807,74.7593l41.2126-27.3387,11.2053,16.8918,55.4862-3.4507,9.026-18.15,44.2824,22.0217L224.6958,85.44l29.153,43.9476,23.0814-1.4355,3.07,49.36Zm-94.6724-74.6332a51.9286,51.9286,0,1,0,55.0518,48.6052A51.9286,51.9286,0,0,0,156.5465,104.4695Z" class="fill"/>
  </g>
</svg>
