<svg xmlns="http://www.w3.org/2000/svg" viewBox="0 0 320 320">
  <defs>
    <style>
      .cls-1 {
        fill: none;
        stroke: #1a1a1a;
        stroke-miterlimit: 2;
        stroke-width: 4px;
      }
    </style>
  </defs>
  <title>cog-outline</title>
  <g id="Layer_11" data-name="Layer 11">
    <path  d="M253.6549,170.3319l-16.9678,44.4138L255.07,237.3734,216.263,268.9012,196.06,244.0329l-44.0969,7.0562L140.5278,281.02,93.82,263.1758l10.4046-27.2342L74.2453,199.04l-28.7878,4.6065-7.9-49.3719L60.644,150.58l19.0283-49.8072L64.93,82.6266,103.737,51.0988l12.9223,15.906,55.4991-8.8807,7.3138-19.144L226.18,56.8242l-8.3441,21.8409,33.62,41.3826,23.0867-3.6942,7.9,49.3719ZM151.1122,104.4566a52.5,52.5,0,1,0,60.1358,43.5453A52.5,52.5,0,0,0,151.1122,104.4566Z"/>
  </g>
</svg>
