<svg xmlns="http://www.w3.org/2000/svg" viewBox="0 0 320 320">
  <title>communication.phone-horlur-filled</title>
  <g id="phone-hörluren">
    <path d="M103.3041,274.9853c42.7807,13.6026,100.5615-5.6633,129.1447-53.2555.4666-.777.8935-1.5645,1.3426-2.3462.4543-.7787.9249-1.5411,1.3663-2.3326,27.0411-48.48,14.8827-108.0113-18.3212-138.1545-1.1237-20.2739-14.7212-37.98-37.4723-38.8924a5.07,5.07,0,0,0-4.92,3.1867l-29.3493,74.463a5.0185,5.0185,0,0,0,1.4175,5.65c14.2524,12.1608,30.5829,12.5359,44.1276,4.6628,12.7277,17.53,14.1016,43.9783,1.8417,67.6345-14.4149,22.4155-38.0714,34.453-59.66,32.2268.0652-15.6289-8.4209-29.54-26.0979-35.7709a5.0757,5.0757,0,0,0-5.641,1.6078L51.0928,256.2366a5.0242,5.0242,0,0,0-.3111,5.82C62.9475,281.2611,85.13,284.1542,103.3041,274.9853Z" class="fill"/>
  </g>
</svg>
