<svg xmlns="http://www.w3.org/2000/svg" viewBox="0 0 320 320"><defs><style>.Graphic-Style-65,.a{fill:#1a1a1a;}.Graphic-Style-65,.b{stroke:#1a1a1a;stroke-miterlimit:2;stroke-width:4px;}.b{fill:none;}</style></defs><title>compass-filled</title><path class="a" d="M270,160A110,110,0,1,1,160,50,110,110,0,0,1,270,160Zm-110,0,36.6667,18.3333L215,68.3333l-91.6667,73.3333Z"/><polygon class="a" points="123.333 141.667 105 251.667 196.667 178.333 160 160 123.333 141.667"/><polygon class="Graphic-Style-65" points="123.333 141.667 105 251.667 196.667 178.333 160 160 123.333 141.667"/><path class="b" d="M270,160A110,110,0,1,1,160,50,110,110,0,0,1,270,160Zm-110,0,36.6667,18.3333L215,68.3333l-91.6667,73.3333Z"/><polygon class="b" points="123.333 141.667 105 251.667 196.667 178.333 160 160 123.333 141.667"/></svg>