<svg xmlns="http://www.w3.org/2000/svg" viewBox="0 0 320 320"><defs><style>.Graphic-Style-64{fill:none;stroke:#1a1a1a;stroke-linejoin:round;stroke-width:8px;}</style></defs><title>cylinder</title><path  d="M279.8569,98.2715A8.9136,8.9136,0,0,1,280,99.7255V213.9024C280,239.3612,226.2741,260,160,260S40,239.3612,40,213.9024V99.7255a8.9136,8.9136,0,0,1,.1431-1.454c2.9559,24.449,55.48,43.9236,119.8569,43.9236S276.9006,122.7205,279.8569,98.2715ZM160,50C93.7256,50,40,70.6385,40,96.0976a18.0726,18.0726,0,0,0,.1431,2.174c2.9559,24.449,55.48,43.9236,119.8569,43.9236s116.9006-19.4746,119.8569-43.9236A18.0726,18.0726,0,0,0,280,96.0976C280,70.6385,226.2741,50,160,50Z"/></svg>