<svg xmlns="http://www.w3.org/2000/svg" viewBox="0 0 320 320">
  <title>cylinder-filled</title>
  <g id="cylinder">
    <path d="M279.8569,106.1358A10.2792,10.2792,0,0,1,280,107.6989V230.4434C280,257.8125,226.2741,280,160,280S40,257.8125,40,230.4434V107.6989a10.2792,10.2792,0,0,1,.1431-1.5631c2.9559,26.2836,55.48,47.22,119.8569,47.22S276.9006,132.4194,279.8569,106.1358Z" class="fill"/>
    <path d="M160,50C96.487,50,45,70.6385,45,96.0976a18.847,18.847,0,0,0,.1372,2.174C47.97,122.7205,98.3058,142.1951,160,142.1951s112.03-19.4746,114.8628-43.9236A18.847,18.847,0,0,0,275,96.0976C275,70.6385,223.5127,50,160,50Z" class="fill"/>
  </g>
</svg>
