<svg xmlns="http://www.w3.org/2000/svg" viewBox="0 0 320 320"><defs><style>.a{fill:#1a1a1a;}.b{fill:none;stroke:#1a1a1a;stroke-linecap:round;stroke-linejoin:round;stroke-width:4px;}</style></defs><title>download-filled</title><polygon class="a" points="120 175 60 175 60 155 40 155 40 195 120 195 120 175"/><polygon class="a" points="260 175 260 155 280 155 280 195 200 195 200 175 260 175"/><path class="a" d="M197.0713,217.9285a10,10,0,0,0-14.1426,0L170,230.8577V65a10,10,0,0,0-20,0V230.8577l-12.9287-12.9292a10,10,0,0,0-14.1426,14.1426l30,30a9.9616,9.9616,0,0,0,6.3853,2.9053q.3435.0234.688.0239a10.0053,10.0053,0,0,0,6.53-2.4277q.3083-.2666.5933-.5557l29.9463-29.9458A10.0014,10.0014,0,0,0,197.0713,217.9285Z"/><polygon class="b" points="120 175 60 175 60 155 40 155 40 195 120 195 120 175"/><polygon class="b" points="260 175 260 155 280 155 280 195 200 195 200 175 260 175"/><path class="b" d="M197.0713,217.9285a10,10,0,0,0-14.1426,0L170,230.8577V65a10,10,0,0,0-20,0V230.8577l-12.9287-12.9292a10,10,0,0,0-14.1426,14.1426l30,30a9.9616,9.9616,0,0,0,6.3853,2.9053q.3435.0234.688.0239a10.0053,10.0053,0,0,0,6.53-2.4277q.3083-.2666.5933-.5557l29.9463-29.9458A10.0014,10.0014,0,0,0,197.0713,217.9285Z"/></svg>