<svg xmlns="http://www.w3.org/2000/svg" viewBox="0 0 320 320"><defs><style>.a{fill:none;stroke:#1a1a1a;stroke-miterlimit:2;stroke-width:4px;}</style></defs><title>drag-outline</title><rect class="a" x="60" y="60" width="30" height="30"/><line class="a" x1="75" y1="190" x2="75" y2="210"/><line class="a" x1="75" y1="160" x2="75" y2="180"/><line class="a" x1="75" y1="130" x2="75" y2="150"/><line class="a" x1="75" y1="100" x2="75" y2="120"/><line class="a" x1="235" y1="190" x2="235" y2="210"/><line class="a" x1="235" y1="160" x2="235" y2="180"/><line class="a" x1="235" y1="130" x2="235" y2="150"/><line class="a" x1="235" y1="100" x2="235" y2="120"/><line class="a" x1="190" y1="75" x2="210" y2="75"/><line class="a" x1="160" y1="75" x2="180" y2="75"/><line class="a" x1="130" y1="75" x2="150" y2="75"/><line class="a" x1="100" y1="75" x2="120" y2="75"/><line class="a" x1="190" y1="235" x2="210" y2="235"/><line class="a" x1="160" y1="235" x2="180" y2="235"/><line class="a" x1="130" y1="235" x2="150" y2="235"/><line class="a" x1="100" y1="235" x2="120" y2="235"/><polygon class="a" points="230 230 240 270 250 260 260 270 270 260 260 250 270 240 230 230"/><polyline class="a" points="90 235 75 235 75 220"/><polyline class="a" points="220 75 235 75 235 90"/></svg>