<svg xmlns="http://www.w3.org/2000/svg" viewBox="0 0 320 320"><defs><style>.a{fill:none;stroke:#1a1a1a;stroke-miterlimit:2;stroke-width:4px;}</style></defs><title>earth-outline</title><path  d="M178.1818,114.5455l-8.7791,17.5583c-.659,1.3179,8.0847,10.0616,9.4027,9.4027l9.9763-4.9882c1.4754-.7377,6.76-2.3094,7.582-3.791,2.0561-3.7046,0-13.813,0-18.1818l18.0029,18.0029c1.4691,1.4691,9.27-1.517,9.27.96v16.6193c0,2.4883-22.4987,6.4059-25.4354,7.14-2.4776.6194-8.3883,3.3775-10.9282,2.7321-2.7929-.71-6.979-6.979-9.0909-9.0909L160.1789,168.912c-1.5285,1.5285,8.7636,18.2123,11.2689,20.7176,7.2054,7.2054,10.56,14.3851,15.1515,23.569,1.6206,3.2411-.6051,7.2722.6734,10.4377,1.2706,3.1459,6.6509,6.6509,9.0909,9.0909l26.961-53.9219c1.7777-3.5554.3118-10.6682.3118-14.5884,0-6.367,2.992-4.217,9.0909-4.217,4.8937,0,8.2308-.43,12.52,1.7147,4.9175,2.4587,7.7516,4.9175,12.6691,7.3762,0-5.417,2.9514-12.2159,1.8183-18.8444-1.5306-8.9537-6.7471-16.8677-10.1206-25.3016-2.4131-6.0327-4.1761-14.06-7.7961-19.49-4.2654-6.3981-11.8852-11.8852-17.3345-17.3345-4.5686-4.5686-11.2417-7.7769-16.5921-11.3438l-10.7127-7.1418c-1.8136-1.2091-5.19,1.6441-6.9257,2.5118L178.8053,77.87c-1.0261.5131-1.4195,8.6067-.6235,9.4027.958.958,8.6982.3927,9.7643-.6734l8.4175-8.4175c0,1.5644-.9889,8.102,0,9.0909s7.5265,0,9.0909,0L197.037,95.69c-1.8344,1.8344-7.3391.6734-9.7643.6734s-7.93-1.161-9.7643.6734l-8.4175,8.4175Z"/><path  d="M150.9091,87.2727v9.0909l8.4175-8.4175c1.847-1.847.6734-7.23.6734-9.7643Z"/><path  d="M96.3636,87.2727l12.0713,6.0357c3.48,1.74,6.8361,1.6041,4.9632,5.35l-7.27,14.54c-1.36,2.72-6.5607,1.3468-9.3027,1.3468-5.5411,0-22.9509,12.1212-28.492,12.1212-3.3158,0,8.6945-18.479,9.8485-21.2121,1.24-2.9359,6.2732-6.2732,8.4984-8.4984Z"/><path  d="M115.4815,230.4327l-7.27-14.54c-2.7524-5.5049,12.8894-24.8716,12.8894-31.0768v-16.3c0-.4431-11.8068-8.4148-11.1006-8.5157-4.8611.6944-3.8194,14.9306-16.6667,8.3333C94.0278,166.5972,84.5608,160.8784,85,160c2.2654-4.5308,6.0678-12.1357,8.3333-16.6667,2.8777-5.7555-12.4156-4.2679-12.4156-10.6061-2.3429,0-8.6353-1.3667-9.4522,1.084l-4.4567,13.37c-.3426,1.0277-7.5647,21.91-3.8822,21.91,1.2764,0,2.5311.1494,3.7112.2379-1.716,2.4962-2.3184,8.8529-4.7545,8.8529,2.8534,5.7069,5.2586,14.35,9.7644,18.8553a93.3247,93.3247,0,0,1,12.5841,14.6674l13.9519,20.9278c1.3254,1.988,7.06,3.5936,9.1543,4.64l9.0909,4.5455C116.6288,237.8188,117.2782,234.026,115.4815,230.4327Z"/><path  d="M123.6364,250.9091l19.214-6.4047c7.8324-2.6108,8.2036-2.6138,15.6408,1.1047,6.062,3.031,9.5935,5.3,16.2067,5.3h21.6659L179.008,255.248C173.2809,256.68,165.9324,260,160,260c-5.4162,0-12.13-3.0325-17.3556-4.3389Z"/><circle  cx="160" cy="160" r="100"/></svg>