<svg xmlns="http://www.w3.org/2000/svg" viewBox="0 0 320 320">
  <title>eye-filled</title>
  <g id="eye">
    <path d="M50,178.596s23.8781-62.699,90.1251-82.7714S270,114.0011,270,114.0011" class="outline"/>
    <path d="M112.2141,219.8489s46.2058,3.251,87.2786-20.4066c55.3573-31.8854,48.4881-91.83,48.4881-91.83" class="outline"/>
    <path d="M146.1558,97.409c-24.1013,0-43.6392,20.5568-43.6392,45.915s19.5378,45.9149,43.6392,45.9149,43.6394-20.5568,43.6394-45.9149S170.2571,97.409,146.1558,97.409Zm-1.9077,15.4338c-11.6016.1279-23.9326,10.2573-23.9326,28.7764a3,3,0,0,1-6,0c0-19.6372,12.84-34.5879,29.8662-34.7764h.0342a3,3,0,0,1,.0322,6Z" class="fill"/>
  </g>
</svg>
