<svg xmlns="http://www.w3.org/2000/svg" viewBox="0 0 320 320"><defs><style>.a{fill:none;stroke:#1a1a1a;stroke-miterlimit:2;stroke-width:4px;}</style></defs><title>female-outline</title><path  d="M197.5207,57.9287a37.5226,37.5226,0,1,0-37.54,37.9046A37.7361,37.7361,0,0,0,197.5207,57.9287Z"/><path  d="M212.8749,205.2941h2.3179a14.8906,14.8906,0,0,0,14.6615-17.0129c-3.4273-24.73-9.81-68.31-12.9932-74.1578q-.1221-.224-.2445-.4458A28.9243,28.9243,0,0,0,191.29,98.75H128.71a28.9243,28.9243,0,0,0-25.3269,14.9276q-.1223.2216-.2445.4458c-3.1829,5.8477-9.5659,49.4279-12.9932,74.1578a14.8906,14.8906,0,0,0,14.6615,17.0129h2.3179a7.89,7.89,0,0,0,7.7643-6.6794l10.4761-65.4716v3.5235l-11.3082,102.848a2.1493,2.1493,0,0,0,1.8941,2.3806l11.327,1.2148a2.1455,2.1455,0,0,1,1.9058,2.0651l1.5481,43.4406A11.7427,11.7427,0,0,0,142.4106,300h0a11.7383,11.7383,0,0,0,11.6614-11.0433l3.0417-47.29h5.7724l3.0417,47.29A11.7383,11.7383,0,0,0,177.5893,300h0a11.7427,11.7427,0,0,0,11.6784-11.3843l1.5481-43.4406a2.1455,2.1455,0,0,1,1.9058-2.0651l11.327-1.2148a2.1493,2.1493,0,0,0,1.8941-2.3806l-11.3082-102.848v-3.5235l10.4761,65.4716A7.89,7.89,0,0,0,212.8749,205.2941Z"/></svg>