<svg xmlns="http://www.w3.org/2000/svg" viewBox="0 0 320 320">
  <title>filesystem.phone</title>
  <g id="undo">
    <g>
      <path d="M90,64.0254V255.9746A24.0254,24.0254,0,0,0,114.0254,280h91.9492A24.0254,24.0254,0,0,0,230,255.9746V64.0254A24.0254,24.0254,0,0,0,205.9746,40H114.0254A24.0254,24.0254,0,0,0,90,64.0254ZM205.4011,250H114.5989A14.5989,14.5989,0,0,1,100,235.4011V64.5989A14.5989,14.5989,0,0,1,114.5989,50h90.8022A14.5989,14.5989,0,0,1,220,64.5989V235.4011A14.5989,14.5989,0,0,1,205.4011,250Z" class="fill"/>
      <path d="M90,64.0254V255.9746A24.0254,24.0254,0,0,0,114.0254,280h91.9492A24.0254,24.0254,0,0,0,230,255.9746V64.0254A24.0254,24.0254,0,0,0,205.9746,40H114.0254A24.0254,24.0254,0,0,0,90,64.0254ZM205.4011,250H114.5989A14.5989,14.5989,0,0,1,100,235.4011V64.5989A14.5989,14.5989,0,0,1,114.5989,50h90.8022A14.5989,14.5989,0,0,1,220,64.5989V235.4011A14.5989,14.5989,0,0,1,205.4011,250Z" class="outline"/>
    </g>
  </g>
</svg>
