<svg xmlns="http://www.w3.org/2000/svg" viewBox="0 0 320 320">
  <title>filesystem.upload-filled</title>
  <g id="undo">
    <g>
      <g>
        <polygon points="120 175 60 175 60 155 40 155 40 195 120 195 120 175" class="fill"/>
        <polygon points="260 175 260 155 280 155 280 195 200 195 200 175 260 175" class="fill"/>
        <path d="M122.9286,102.0715a10,10,0,0,0,14.1426,0L150,89.1423V255a10,10,0,0,0,20,0V89.1423l12.9287,12.9292A10,10,0,0,0,197.0712,87.929l-30-30a9.9616,9.9616,0,0,0-6.3853-2.9053Q160.3424,55,159.9979,55a10.0053,10.0053,0,0,0-6.53,2.4277q-.3083.2666-.5933.5557L122.9286,87.929A10.0014,10.0014,0,0,0,122.9286,102.0715Z" class="fill"/>
      </g>
      <g>
        <polygon points="120 175 60 175 60 155 40 155 40 195 120 195 120 175" class="outline"/>
        <polygon points="260 175 260 155 280 155 280 195 200 195 200 175 260 175" class="outline"/>
        <path d="M122.9286,102.0715a10,10,0,0,0,14.1426,0L150,89.1423V255a10,10,0,0,0,20,0V89.1423l12.9287,12.9292A10,10,0,0,0,197.0712,87.929l-30-30a9.9616,9.9616,0,0,0-6.3853-2.9053Q160.3424,55,159.9979,55a10.0053,10.0053,0,0,0-6.53,2.4277q-.3083.2666-.5933.5557L122.9286,87.929A10.0014,10.0014,0,0,0,122.9286,102.0715Z" class="outline"/>
      </g>
    </g>
  </g>
</svg>
