<svg xmlns="http://www.w3.org/2000/svg" xmlns:xlink="http://www.w3.org/1999/xlink" viewBox="0 0 320 320">
  <defs>
    <clipPath id="clip-path">
      <path d="M154.9214,123.5461,237.84,125.88a7.987,7.987,0,0,1,7.4363,5.6932l27.1453,90.2736L290,111.6487,207.7852,109.83,187.7378,90.0357,137.4849,90l-2.66,14.2383Z" class="outline"/>
    </clipPath>
  </defs>
  <title>filesystem.folder-open-filled</title>
  <g id="undo">
    <polygon points="30 93.007 85.801 236.845 269.526 240 237.615 133.877 151.607 131.456 113.833 95.164 30 93.007" class="fill"/>
    <g>
      <g class="fill">
        <polygon points="290 111.649 269.526 240 237.614 132.902 151.607 131.456 133.173 113.082 137.485 90 187.738 90.036 207.785 109.83 290 111.649" class="fill"/>
      </g>
      <g class="fill">
        <polygon points="290 111.649 269.526 240 237.614 132.902 151.607 131.456 133.173 113.082 137.485 90 187.738 90.036 207.785 109.83 290 111.649" class="outline"/>
      </g>
    </g>
  </g>
</svg>
