<svg xmlns="http://www.w3.org/2000/svg" viewBox="0 0 320 320">
  <title>filesystem.paper-pile-alt</title>
  <g id="undo">
    <path d="M170.7547,206.6l59.0176-1.4615a1.9812,1.9812,0,0,0,1.501-.7536l55.6279-69.9038a2.0848,2.0848,0,0,0,.4512-1.2982V129.02a2.05,2.05,0,0,0-1.3135-1.9275,1.9686,1.9686,0,0,0-2.2158.6047l-53.09,64.5758L170.79,195.3224l-.0615.002-137.8672-.9279a2.1381,2.1381,0,0,0-1.4365.6108,2.08,2.08,0,0,0-.5762,1.4821l.1465,7.6047a2.0257,2.0257,0,0,0,1.9932,2.0117Zm.0029-7.1713,60.1738-3.0558a4.02,4.02,0,0,0,2.1758-.7821l-4.3506,5.4673-58.043,1.438-135.7578-.4875-.0674-3.4937Z" class="fill"/>
    <path d="M211.699,104.7534a1.9576,1.9576,0,0,0-1.9287.017L183.2567,120.052a2.0771,2.0771,0,0,0-.9014,2.4876,2.0041,2.0041,0,0,0,1.88,1.3538,1.9639,1.9639,0,0,0,.3643-.0341l40.3164-7.6408a2.0291,2.0291,0,0,0,1.6123-1.699,2.0684,2.0684,0,0,0-1.0264-2.1254Zm-15.9834,12.825,15.0537-8.6759,7.8369,4.338Z" class="fill"/>
    <path d="M229.5819,257.0242q.0791.006.1553.006a1.9828,1.9828,0,0,0,1.6152-.8427l.0791-.1112a2.094,2.094,0,0,0,.17-2.1344,1.9939,1.9939,0,0,0-1.7744-1.1273l-1.582-.0085h-.0107a2.055,2.055,0,0,0-.1553,4.0985Z" class="fill"/>
    <path d="M172.659,137.2425l59.5654-8.6995a1.9824,1.9824,0,0,0,1.2354-.6954l48.2666-57.7367a2.0893,2.0893,0,0,0,.45-1.7055l-.7773-4.361a2.0356,2.0356,0,0,0-1.4092-1.6013,1.9666,1.9666,0,0,0-2.0254.5757l-47.1084,52.1552-.0117.0115-.0752.0531c-.0137.01-.03.021-.0479.0346-.0322.007-.0645.0155-.0977.0251l-58.082,11.05L37.1336,129.0576a1.9976,1.9976,0,0,0-1.77,1.1759l-2.9131,6.3356a2.0989,2.0989,0,0,0,.1279,1.9881,1.9869,1.9869,0,0,0,1.6807.94l.0313-.0005,138.1172-2.2341A1.9116,1.9116,0,0,0,172.659,137.2425ZM37.4383,135.3411l1.0137-2.2046,134.1689-2.6845a3.6777,3.6777,0,0,0,.6631-.07l58.1533-11.0648a2.032,2.032,0,0,0,.249-.06,3.9847,3.9847,0,0,0,.93-.3532c.0283-.014.0557-.0291.083-.0446v.0005a2.3594,2.3594,0,0,0,.376-.2676,3.8643,3.8643,0,0,0,.49-.3978,1.974,1.974,0,0,0,.1543-.1533L269.55,78.373l-38.6348,46.2154L172.22,133.1611Z" class="fill"/>
    <path d="M287.2987,139.3984a1.9635,1.9635,0,0,0-2.4922.469l-53.96,65.3083-.0654.06-.0117.0125-.0127.008-.0049.0015-60.0205,1.5016L33.5877,209.5412a2.0211,2.0211,0,0,0-1.9521,1.8623l-.3906,4.3284a2.0859,2.0859,0,0,0,.5127,1.5717,1.9789,1.9789,0,0,0,1.4775.67l137.4941.0621,58.9932.0777h.0029a1.9819,1.9819,0,0,0,1.5684-.7786l55.8389-72.3764a2.0791,2.0791,0,0,0,.3389-.6549l.7676-2.49A2.0752,2.0752,0,0,0,287.2987,139.3984Zm-58.54,74.609-58.0254-.0762L35.43,213.87l.0234-.2615,135.374-2.7462,59.998-1.4861a3.9457,3.9457,0,0,0,.8525-.1137,3.08,3.08,0,0,0,.418-.1383,3.1744,3.1744,0,0,0,.3984-.1593,2.7537,2.7537,0,0,0,.2773-.1578Z" class="fill"/>
    <path d="M42.7205,128.7675l.0391-.0005L171.7889,126.2a1.9627,1.9627,0,0,0,.94-.2625l38.0371-21.8812,18.583,10.2872a1.9627,1.9627,0,0,0,2.416-.4113L277.366,63.4472a2.0924,2.0924,0,0,0,.3594-2.2311A2.0367,2.0367,0,0,0,275.867,60L146.1024,62.1259a1.963,1.963,0,0,0-.9834.2836L41.7049,124.9471a2.0754,2.0754,0,0,0-.9082,2.3273A2.0065,2.0065,0,0,0,42.7205,128.7675ZM146.6951,66.2209l124.5547-2.04-41.3652,45.795-17.2207-9.5332a3.97,3.97,0,0,0-3.9316.0351l-37.5234,21.6281L50.3035,124.5117Z" class="fill"/>
    <path d="M286.5867,181.7173a1.9724,1.9724,0,0,0-2.2383.7691l-48.6182,70.36-.7686-.0045a2.0083,2.0083,0,0,0-1.624.8387l-2.6152,3.5939-59.91-4.7668c-.0566-.004-.1133-.0055-.1719-.006L32.9823,253.7384a1.98,1.98,0,0,0-1.417.6218A2.0868,2.0868,0,0,0,31,255.8313l.1475,7.6037a2.0243,2.0243,0,0,0,2.0234,2.0112l137.501-1.6684,58.8633,6.2113a1.8879,1.8879,0,0,0,.2051.011,1.9833,1.9833,0,0,0,1.6279-.86l56.24-80.8955a2.0877,2.0877,0,0,0,.3721-1.192v-3.3795A2.0476,2.0476,0,0,0,286.5867,181.7173Zm-57.7988,84.067-57.6406-6.09q-.0571-.006-.1143-.009l-.2373-.011c-.03-.0015-.0605-.002-.0908-.002h-.0234L35.1073,261.3176l-.0674-3.4927,135.55-1.2185,59.8242,4.76a3.9812,3.9812,0,0,0,1.5762-.1894Z" class="fill"/>
    <path d="M38.4344,171.433l132.1846.8608h.0127a1.9,1.9,0,0,0,.2-.0105l59.0918-6.0876a1.9838,1.9838,0,0,0,1.2852-.6679l55.63-63.3062a2.0848,2.0848,0,0,0,.5146-1.3743V96.3135a2.0514,2.0514,0,0,0-1.2666-1.9089,1.9628,1.9628,0,0,0-2.1953.508l-53.1533,58.3585L170.8,161.01l-.1348.009L39.577,160.9649h-.001a2.0144,2.0144,0,0,0-1.9678,1.6845l-1.1289,6.3636a2.093,2.093,0,0,0,.4277,1.6775A1.9826,1.9826,0,0,0,38.4344,171.433Zm2.8105-6.3631,129.4824.0531c.043,0,.0859-.0015.1289-.004l.26-.017c.04-.003.0811-.007.1221-.012l60-7.7465a4.0532,4.0532,0,0,0,2.4717-1.2952l12.7646-14.0214L228.7557,162.191l-58.2178,5.9979-129.6963-.8447Z" class="fill"/>
    <path d="M286.6287,159.7379a1.9678,1.9678,0,0,0-2.2275.6824l-53.6738,70.8532L170.699,229.63l-137.7031.3713a1.9752,1.9752,0,0,0-1.4248.6173,2.0867,2.0867,0,0,0-.57,1.4755l.1465,7.6027a2.0256,2.0256,0,0,0,2,2.0117h.0117l137.51-.8027,58.9619,3.15c.0352.002.07.003.1045.003a1.9825,1.9825,0,0,0,1.5967-.8162L287.577,166.74a2.0889,2.0889,0,0,0,.4033-1.2361v-3.8244A2.05,2.05,0,0,0,286.6287,159.7379ZM228.7782,239.9l-57.8916-3.0949-.1807-.0035-135.5977.7906L35.0408,234.1l135.6094-.3663,59.97,1.6429a4.1092,4.1092,0,0,0,1.7422-.3512Z" class="fill"/>
    <path d="M34.6717,182.8356l135.9736.8938h.0127c.05,0,.1-.002.1494-.0055l59.0654-4.5444a1.9851,1.9851,0,0,0,1.3584-.6984L286.86,112.9749a2.0841,2.0841,0,0,0,.4922-1.3483v-4.4121a2.0514,2.0514,0,0,0-1.2822-1.9155,1.97,1.97,0,0,0-2.2031.5411l-53.13,60.4312-59.9482,6.1762-.1152.0055-131.6729-.8452h-.0127a1.9912,1.9912,0,0,0-1.7.971l-4.3037,7.1232a2.1,2.1,0,0,0-.0508,2.0738A1.9945,1.9945,0,0,0,34.6717,182.8356Zm5.4258-7.1162,130.6064.8387c.0313-.001.0723-.001.11-.0025l.2207-.011q.0513-.0023.1025-.0075l59.999-6.1813a4.0345,4.0345,0,0,0,2.6211-1.3613l6.6768-7.5987-11.68,13.7534-58.165,4.4752-132.3262-.87Z" class="fill"/>
    <path d="M33.493,194.24l137.1787.9244h.0127c.0332,0,.0664-.001.0986-.0025l59.0391-3.0022a1.9837,1.9837,0,0,0,1.4307-.727l55.6289-67.7053a2.0871,2.0871,0,0,0,.4707-1.3227v-4.2884a2.0511,2.0511,0,0,0-1.2988-1.922,1.9732,1.9732,0,0,0-2.209.5737l-53.1094,62.504-59.92,4.612-.1016.0045L34.953,183.0109H34.94a2.0139,2.0139,0,0,0-1.959,1.6369l-1.4346,7.1247a2.0925,2.0925,0,0,0,.4043,1.706A1.9812,1.9812,0,0,0,33.493,194.24Zm3.0742-7.1142,134.0869.8668c.043.0005.0889.0005.1318,0l60.249-4.6276a4.0215,4.0215,0,0,0,2.7686-1.4234l.4727-.5572-5.5205,6.72L170.6414,191.06l-134.6836-.9074Z" class="fill"/>
    <path d="M286.6424,148.8389a1.9683,1.9683,0,0,0-2.2236.6538l-53.5654,68.67c-.0293.0286-.0635.0621-.0791.0782-.0166.0115-.0322.023-.0449.0331l-60-.0787-137.7275-.0621h-.001a1.9735,1.9735,0,0,0-1.4277.6153,2.0864,2.0864,0,0,0-.5723,1.4775l.1465,7.6037a2.0256,2.0256,0,0,0,2,2.0117h.0049l137.5791-.37,58.9482,1.6148.0537.0005a1.9819,1.9819,0,0,0,1.5791-.7931l56.2471-74.3054a2.0824,2.0824,0,0,0,.4209-1.2591v-3.9537A2.0494,2.0494,0,0,0,286.6424,148.8389Zm-57.8682,78.1162-57.9355-1.5873c-.02-.0005-.0967-.0015-.1191-.0015h-.001l-135.61.3648-.0674-3.4927,135.6846.0611,59.999.0787h.0039a3.9506,3.9506,0,0,0,1.8613-.463Z" class="fill"/>
    <path d="M286.6151,170.6374a1.973,1.973,0,0,0-2.2314.71l-53.6582,72.927-59.94-3.2056c-.0391-.0025-.08-.0025-.1162-.003l-137.68.8042a1.9727,1.9727,0,0,0-1.42.62,2.084,2.084,0,0,0-.5684,1.473l.1465,7.6017a2.0259,2.0259,0,0,0,2,2.0117h.0176l137.5645-1.2345,62.1123.33a1.9145,1.9145,0,0,0,1.624-.8387l53.1279-74.3414a2.0913,2.0913,0,0,0,.3867-1.2135v-3.6946A2.0486,2.0486,0,0,0,286.6151,170.6374Zm-54.7725,77.9243-61.1494-.3247-135.585,1.217-.0674-3.4917,135.5928-.7916,59.8838,3.2026a4.0114,4.0114,0,0,0,1.6475-.2615Z" class="fill"/>
    <path d="M34.8475,150.1556h.0107l135.72-.731a1.9147,1.9147,0,0,0,.2881-.023l59.1572-9.18a1.9825,1.9825,0,0,0,1.1377-.6012l56.1816-59.4918c-.0156.0155-.0176.02,0,.0105l.0537-.0371a1.9883,1.9883,0,0,0,.3184-.2731l1.7207-1.82a2.0906,2.0906,0,0,0,.4209-2.192l-1.2725-3.2587a2.0123,2.0123,0,0,0-1.4951-1.2556,1.9691,1.9691,0,0,0-1.832.6283l-52.52,58.4842L172.6483,137.41l-.1064.01L38.9354,139.6915a1.987,1.987,0,0,0-1.6318.9154l-4.1211,6.36a2.0984,2.0984,0,0,0-.0957,2.11A1.994,1.994,0,0,0,34.8475,150.1556Zm5.2051-6.3782L172.702,141.52l57.3906-6.6663-1.335,1.4129-58.3457,9.0547-131.82.71Z" class="fill"/>
    <path d="M37.908,160.8031l132.69.0561h.001a1.9942,1.9942,0,0,0,.25-.016l59.125-7.6333a1.9842,1.9842,0,0,0,1.2119-.6353l55.6289-61.1061a2.0833,2.0833,0,0,0,.5381-1.4009V85.5007a2.054,2.054,0,0,0-1.248-1.9019,1.9669,1.9669,0,0,0-2.1875.4725l-53.0713,56.11-.082.0626-.05.0306-59.9023,9.2962-.1562.0125-135.7227.741a1.9757,1.9757,0,0,0-1.415.6128,2.0835,2.0835,0,0,0-.5742,1.462l.0684,6.3752a2.0257,2.0257,0,0,0,1.999,2.03l2.8115.001C37.85,160.8051,37.88,160.8046,37.908,160.8031Zm-.917-4.103-.0244-2.2822,133.7842-.7305c.0488-.0005.0967-.0025.1455-.006l.3-.024c.0479-.004.0957-.01.1426-.017l60.0029-9.3117a4.0343,4.0343,0,0,0,1.2734-.4274,2.1172,2.1172,0,0,0,.292-.19,4.1457,4.1457,0,0,0,.8105-.67l17.99-19.0213L228.7567,149.23l-58.2822,7.5245-132.63-.0561c-.0273,0-.0566.0005-.085.002Z" class="fill"/>
  </g>
</svg>
