<svg xmlns="http://www.w3.org/2000/svg" viewBox="0 0 320 320">
  <title>filesystem.phone-landscape</title>
  <g id="undo">
    <g>
      <path d="M255.9746,90H64.0254A24.0254,24.0254,0,0,0,40,114.0254v91.9492A24.0254,24.0254,0,0,0,64.0254,230H255.9746A24.0254,24.0254,0,0,0,280,205.9746V114.0254A24.0254,24.0254,0,0,0,255.9746,90ZM70,205.4011V114.5989A14.5989,14.5989,0,0,1,84.5989,100H255.4011A14.5989,14.5989,0,0,1,270,114.5989v90.8022A14.5989,14.5989,0,0,1,255.4011,220H84.5989A14.5989,14.5989,0,0,1,70,205.4011Z" class="fill"/>
      <path d="M255.9746,90H64.0254A24.0254,24.0254,0,0,0,40,114.0254v91.9492A24.0254,24.0254,0,0,0,64.0254,230H255.9746A24.0254,24.0254,0,0,0,280,205.9746V114.0254A24.0254,24.0254,0,0,0,255.9746,90ZM70,205.4011V114.5989A14.5989,14.5989,0,0,1,84.5989,100H255.4011A14.5989,14.5989,0,0,1,270,114.5989v90.8022A14.5989,14.5989,0,0,1,255.4011,220H84.5989A14.5989,14.5989,0,0,1,70,205.4011Z" class="outline"/>
    </g>
  </g>
</svg>
