<svg xmlns="http://www.w3.org/2000/svg" viewBox="0 0 320 320">
  <title>filesystem.folder-open-alt-filled</title>
  <g id="undo">
    <path d="M185.652,86.875,174.0159,73.4424a8.1848,8.1848,0,0,0-6.1867-2.8174H112.3231l19.86,16.25Z" class="fill"/>
    <path d="M284.0746,95H232.1939l33.3982,159.565a.5424.5424,0,0,0,1.0658-.0289L289.9324,101.75A5.89,5.89,0,0,0,284.0746,95Z" class="fill"/>
    <path d="M226.8448,101.25l-.0286-.1318a9.8551,9.8551,0,0,0-9.6856-7.6807H129.4795l-19.3343-15.625-6.7811-5.48A10.55,10.55,0,0,0,96.7358,70H35.4437a5.359,5.359,0,0,0-5.3229,6.4349L67.9354,250.7667A8.6394,8.6394,0,0,0,76.4262,257.5H257.735a2.23,2.23,0,0,0,2.2154-2.6747Z" class="fill"/>
  </g>
</svg>
