<svg xmlns="http://www.w3.org/2000/svg" viewBox="0 0 320 320">
  <title>filesystem.folder-open-variant</title>
  <g id="undo">
    <path d="M279.5673,97.0968a10.5606,10.5606,0,0,1,10.2292,12.6778L263.3676,245.0763a3.6648,3.6648,0,0,1-3.5784,2.9882h0L211.8736,97.0968H143.8755L127.3869,80.3226h86.374a10.36,10.36,0,0,1,9.9208,7.571l2.6368,9.2032Zm-70.6926,0H145.582a4.0845,4.0845,0,0,1-2.9131-1.2276L127.3869,80.3226l-7.0376-7.16a4.0845,4.0845,0,0,0-2.9131-1.2276H34.1228A4.18,4.18,0,0,0,30.2041,77.42L83.6912,245.1666a4.1273,4.1273,0,0,0,3.9188,2.898H259.7892L212.7951,100A4.1274,4.1274,0,0,0,208.8746,97.0968Z" class="outline"/>
  </g>
</svg>
