<svg xmlns="http://www.w3.org/2000/svg" viewBox="0 0 320 320"><defs><style>.a{fill:#1a1a1a;}</style></defs><title>files-outline</title><path class="a" d="M259.4441,79.2685l-43.75-45.6523L214.25,33H118l-2,2V73H58l-2,2V285l2,2H198l2-2V247h58l2-2V80.6523Zm-5.2449.3084-29.5718,7.7143-7.3929-46.2863,20.26,21.1405ZM196,283H60V77h92.5441l8.481,53.0981,2.48,1.62L196,123.241V283Zm-1.8009-163.423-29.5719,7.7144-7.3928-46.2864,20.26,21.1406ZM200,243V120.6523h0V120l-.5659-1.3942-43.75-45L154.25,73H120V37h92.5442l8.481,53.0981,2.48,1.62L256,83.241V243Z"/></svg>