<svg xmlns="http://www.w3.org/2000/svg" viewBox="0 0 320 320"><defs><style>.a{fill:#1a1a1a;}.b{fill:none;stroke:#1a1a1a;stroke-miterlimit:1;stroke-width:4px;}</style></defs><title>files-filled</title><path class="a" d="M59,75h96.25L199,120.6522V285H59Zm96.25,0L164,129.7826l35-9.13Z"/><path class="a" d="M121,35h96.25L261,80.6522V245H209V116L159,65H121Zm96.25,0L226,89.7826l35-9.13Z"/><path class="b" d="M59,75h96.25L199,120.6522V285H59Zm96.25,0L164,129.7826l35-9.13Z"/><path class="b" d="M121,35h96.25L261,80.6522V245H209V116L159,65H121Zm96.25,0L226,89.7826l35-9.13Z"/></svg>