<svg xmlns="http://www.w3.org/2000/svg" viewBox="0 0 320 320">
  <title>filesystem.tablet</title>
  <g id="undo">
    <g>
      <path d="M86,40a6.0176,6.0176,0,0,0-6,6V274a6.0176,6.0176,0,0,0,6,6H234a6.0176,6.0176,0,0,0,6-6V46a6.0176,6.0176,0,0,0-6-6Zm74.7614,228.6379a9.5167,9.5167,0,1,1,7.7675-7.7692A9.5234,9.5234,0,0,1,160.7614,268.6379ZM220.4,234.8a6.0176,6.0176,0,0,1-6,6H105.6a6.0176,6.0176,0,0,1-6-6V65.6a6.0176,6.0176,0,0,1,6-6H214.4a6.0176,6.0176,0,0,1,6,6Z" class="fill"/>
      <path d="M86,40a6.0176,6.0176,0,0,0-6,6V274a6.0176,6.0176,0,0,0,6,6H234a6.0176,6.0176,0,0,0,6-6V46a6.0176,6.0176,0,0,0-6-6Zm74.7614,228.6379a9.5167,9.5167,0,1,1,7.7675-7.7692A9.5234,9.5234,0,0,1,160.7614,268.6379ZM220.4,234.8a6.0176,6.0176,0,0,1-6,6H105.6a6.0176,6.0176,0,0,1-6-6V65.6a6.0176,6.0176,0,0,1,6-6H214.4a6.0176,6.0176,0,0,1,6,6Z" class="outline"/>
    </g>
  </g>
</svg>
