<svg xmlns="http://www.w3.org/2000/svg" viewBox="0 0 320 320">
  <title>filesystem.file-image</title>
  <g id="undo">
    <path d="M280,250H40V70H250l30,30Zm-150,0,45-60-45-60L40,250Zm150,0V190l-60-60L130,250ZM40,113.1085s14.37,0,28.739-14.37S83.1085,70,83.1085,70m-25.296,52.0313,13.5937,31.4063M74.6875,111.25l23.9062,25.3125M90.1562,95.7813,118.4375,112.5M98.125,75.9375,135,79.0625m24.6875,90s.625,7.1875-9.375,10.9375-21.25-15.3125-21.25-15.3125-3.4375-5-12.1875-5.625-18.75,14.375-18.75,14.375m95-5.625s16.875,13.125,31.5625,8.75S253.125,163.75,253.125,163.75M260,110l20-10L250,70Z" class="outline"/>
  </g>
</svg>
