<svg xmlns="http://www.w3.org/2000/svg" viewBox="0 0 320 320">
  <defs>
    <style>
      .cls-1 {
        fill: #1a1a1a;
      }
    </style>
  </defs>
  <title>flat-lock-filled</title>
  <g id="Layer_16" data-name="Layer 16">
    <g>
      <path class="cls-1" d="M230.5488,134.4c0-51.2,0-102.4-71.0625-102.4S88.4248,83.2,88.4248,134.4H60V288H258.9736V134.4Zm-60.3955,76.8,8,50.1333H140.82l8-50.1333s-17.7578,0-17.7578-25.6S159.4863,160,159.4863,160s28.4258,0,28.4258,25.6S170.1533,211.2,170.1533,211.2ZM116.85,134.4c0-51.2,0-76.8,42.6367-76.8s42.6377,25.6,42.6377,76.8Z"/>
      <path class="cls-1" d="M230.5488,134.4h2c-.0007-12.8007.0027-25.655-1.1187-37.7841a117.5753,117.5753,0,0,0-4.9319-25.7525,63.15,63.15,0,0,0-8.04-16.5135A51.05,51.05,0,0,0,196.437,36.521C186.783,32.3061,174.6755,30,159.4863,30c-17.999,0-31.6814,3.2405-42.06,9.0553A50.3228,50.3228,0,0,0,99.3894,56.0316c-6.5632,10.2261-9.7661,22.647-11.37,36.0708-1.6,13.4289-1.5937,27.8964-1.595,42.2976h2v-2H58V290H260.9734V132.4H230.5488v2h0v2h26.4248V286H62V136.4H90.4246v-2c-.0007-12.7992.0027-25.5449,1.1021-37.4156a113.673,113.673,0,0,1,4.7488-24.8725,59.1607,59.1607,0,0,1,7.5212-15.4753,47.0173,47.0173,0,0,1,20.34-16.45c9.0115-3.9366,20.56-6.1872,35.35-6.1867,17.532,0,30.4978,3.1595,40.1052,8.5448a46.2971,46.2971,0,0,1,16.627,15.6488c6.0842,9.4614,9.2051,21.2841,10.7634,34.3823,1.5623,13.093,1.5681,27.4252,1.5669,41.824v2h2Zm-60.3955,76.8-1.9751.3151,7.63,47.8182h-32.644l8-50.1333H148.82v.8723l.01-.8723h-.01v.8723l.01-.8723a11.8319,11.8319,0,0,1-2.5273-.3967,15.4877,15.4877,0,0,1-3.9319-1.6082,16.2428,16.2428,0,0,1-6.2126-6.6142c-1.7866-3.3651-3.0947-8.1455-3.0962-14.981.0088-6.0331,1.646-10.3506,4.0488-13.61a21.23,21.23,0,0,1,6.5144-5.7029,33.2145,33.2145,0,0,1,10.7273-3.7479c1.5381-.2711,2.8428-.4065,3.7522-.4734.4546-.0335.8105-.05,1.0476-.058.1184-.004.207-.006.2634-.0069l.06-.0008h.0161a36.7952,36.7952,0,0,1,13.697,3.1661,22.196,22.196,0,0,1,8.7859,6.9773c2.3406,3.2415,3.9287,7.5178,3.9368,13.4566-.0007,6.1714-1.0688,10.6706-2.59,13.9605a17.61,17.61,0,0,1-3.9924,5.6163,15.3938,15.3938,0,0,1-6.2949,3.5288,14.1627,14.1627,0,0,1-2.1606.437c-.2571.03-.4541.0447-.5784.0515l-.13.0056-.0215,0,.01.7546V209.2h-.01l.01.7546V209.2h-2.345l.37,2.3151,1.9751-.3151v2a14.9658,14.9658,0,0,0,3.2419-.4553,19.48,19.48,0,0,0,4.9592-1.9438,20.18,20.18,0,0,0,7.8911-8.152c2.208-4.0656,3.6677-9.593,3.6663-17.0488.0088-6.7671-1.907-12.05-4.834-15.99a25.2237,25.2237,0,0,0-7.7256-6.7847A37.1564,37.1564,0,0,0,165.314,158.6a36.7774,36.7774,0,0,0-5.8276-.6,40.5743,40.5743,0,0,0-15.0332,3.3764A26.4144,26.4144,0,0,0,133.896,169.61c-2.9265,3.94-4.8423,9.2229-4.8335,15.99-.0007,6.6286,1.1509,11.7294,2.9592,15.6395a21.6191,21.6191,0,0,0,4.9041,6.8712,19.3945,19.3945,0,0,0,7.9275,4.4448,15.7841,15.7841,0,0,0,3.967.6446v-2l-1.9751-.3152-8.37,52.4484h42.0217l-8.3691-52.4484-1.9749.3152v0ZM116.85,134.4h2c0-12.7992.002-23.9678.6616-33.4614a92.275,92.275,0,0,1,2.8333-18.4932A35.9143,35.9143,0,0,1,126.7573,72.37a24.7232,24.7232,0,0,1,11.7927-9.5c5.2639-2.1447,12.1082-3.2717,20.9363-3.27,10.467-.0027,18.1309,1.5822,23.708,4.5645a24.308,24.308,0,0,1,9.6277,9.1674c3.5474,5.8719,5.4319,13.9124,6.3616,24.1256.937,10.2071.9414,22.5435.94,36.9423h2v-2H116.85v2h0v2h87.2742v-2c0-12.8007.002-24.032-.6709-33.7383a96.0956,96.0956,0,0,0-2.9753-19.3068,39.8827,39.8827,0,0,0-4.9229-11.1873A28.7666,28.7666,0,0,0,181.93,59.1647c-5.9353-2.4117-13.2844-3.5627-22.4438-3.5646-10.8516.0027-19.1768,1.6177-25.5911,5.0356a28.3464,28.3464,0,0,0-11.1707,10.6326c-4.041,6.7281-5.9509,15.3375-6.9182,25.8243-.96,10.4929-.9558,22.9061-.9568,37.3074v2h2Z"/>
    </g>
  </g>
</svg>
