<svg xmlns="http://www.w3.org/2000/svg" viewBox="0 0 320 320">
  <defs>
    <style>
      .cls-1 {
        fill: #1a1a1a;
      }
    </style>
  </defs>
  <title>flat-arrow-up-outline</title>
  <g id="Layer_16" data-name="Layer 16">
    <path  d="M246.1211,150.8027l1.414-1.4146L170.5,72.3706l-1.414,1.4146,1.5663-1.2437a11.2636,11.2636,0,0,0-2.8087-2.3528A15.2241,15.2241,0,0,0,159.7813,68a14.0623,14.0623,0,0,0-7.5733,2.2849,13.9153,13.9153,0,0,0-2.8308,2.3411l1.5076,1.3145-1.4141-1.4146L72.436,149.5444A15.0284,15.0284,0,0,0,68,160.1885,14.8912,14.8912,0,0,0,82.91,175.04a15.02,15.02,0,0,0,10.64-4.4133l51.4358-51.4373-.01,117.82a14.8124,14.8124,0,0,0,4.5292,10.62,15.2918,15.2918,0,0,0,21.4136-.0044,14.8223,14.8223,0,0,0,4.53-10.6228l-.0014-117.8167,51.1892,51.4309-.03-.03A14.8558,14.8558,0,0,0,252,160.1287a15.176,15.176,0,0,0-4.465-10.74l-1.4139,1.4146-1.414,1.4143A11.1743,11.1743,0,0,1,248,160.1287a10.723,10.723,0,0,1-3.1515,7.6335,10.8318,10.8318,0,0,1-15.4146-.0059l-.0337-.0337L174.8643,112.929l-3.4176,1.4109.0015,122.6611a10.8179,10.8179,0,0,1-3.3231,7.7593,11.291,11.291,0,0,1-15.8287.0034,10.8061,10.8061,0,0,1-3.3214-7.7549l.0107-122.6484-3.4142-1.4143-54.85,54.8516A11.0177,11.0177,0,0,1,82.91,171.04a10.8807,10.8807,0,0,1-7.73-3.2A10.76,10.76,0,0,1,72,160.1885a11.024,11.024,0,0,1,3.264-7.8152l77.0827-77.0667.0456-.052-.5928-.5168.5862.5242.0066-.0073-.5928-.5168.5862.5242a10.4444,10.4444,0,0,1,2.1013-1.6853A10.03,10.03,0,0,1,159.7813,72a11.208,11.208,0,0,1,5.9669,1.5964,8.89,8.89,0,0,1,1.4051,1.06c.1481.1382.253.248.3141.3149l.059.0667.0049.0059.8768-.72-.8884.7053.0116.0146.8768-.72-.8884.7053.0717.09L244.707,152.217Z"/>
  </g>
</svg>
