<svg xmlns="http://www.w3.org/2000/svg" viewBox="0 0 320 320">
  <defs>
    <style>
      .cls-1 {
        fill: #1a1a1a;
      }
    </style>
  </defs>
  <title>flat-envelope-filled</title>
  <g id="Layer_16" data-name="Layer 16">
    <g>
      <polygon  points="20 248.375 20 89.125 160 180.125 300 89.125 300 248.375 20 248.375"/>
      <polygon  points="20 248.375 22 248.375 22 92.81 160 182.51 298 92.81 298 246.375 20 246.375 20 248.375 22 248.375 20 248.375 20 250.375 302 250.375 302 85.44 160 177.74 18 85.44 18 250.375 20 250.375 20 248.375"/>
      <polygon  points="20 71.625 160 162.625 300 71.625 20 71.625"/>
      <polygon  points="20 71.625 18.91 73.302 160 165.01 301.09 73.302 300 69.625 20 69.625 18.91 73.302 20 71.625 20 73.625 293.253 73.625 160 160.24 21.09 69.948 20 71.625 20 73.625 20 71.625"/>
    </g>
  </g>
</svg>
