<svg xmlns="http://www.w3.org/2000/svg" viewBox="0 0 320 320">
  <defs>
    <style>
      .cls-1 {
        fill: #1a1a1a;
      }
    </style>
  </defs>
  <title>flat-cloud-outline</title>
  <g id="Layer_16" data-name="Layer 16">
    <path  d="M21.4341,220.6172l-1.9494-.4473A56.9806,56.9806,0,0,0,18,232.8445c.0054,7.7905,1.79,14.9775,5.6586,20.3625a20.769,20.769,0,0,0,7.3853,6.4351A22.4042,22.4042,0,0,0,41.3882,262H257.0455l.1108,0a48.2251,48.2251,0,0,0,7.9874-.8008c6.4-1.1426,15.5532-3.8843,23.2183-10.6855a38.08,38.08,0,0,0,9.7111-13.4912A52.21,52.21,0,0,0,302,216.0938q0-2.2317-.1422-4.6023c-.7372-12.1978-3.7217-21.5217-7.8841-28.5989A43.174,43.174,0,0,0,283.16,170.519a45.0722,45.0722,0,0,0-16.9221-8.0532,40.6765,40.6765,0,0,0-9.0943-1.2419l-.1353.0012.0519,2,2-.0266a79.6465,79.6465,0,0,0-5.7134-25.66,76.6678,76.6678,0,0,0-13.0778-21.8318,73.36,73.36,0,0,0-25.171-18.8143C201.06,90.4087,189.192,87.9988,179.3371,88c-13.2366-.006-22.7839,4.3627-28.9583,8.7557a36.7059,36.7059,0,0,0-9.1335,8.9325l1.68,1.0846,1.0368-1.71a51.5516,51.5516,0,0,0-8.691-3.9094,65.9609,65.9609,0,0,0-21.9753-3.8514,60.7283,60.7283,0,0,0-24.2152,5.0173c-8.5827,3.7-17.4686,9.7837-26.1,19.2347-8.485,9.2882-13.9557,17.7509-17.308,25.3312a49.2179,49.2179,0,0,0-4.5766,19.9631,35.419,35.419,0,0,0,3.7664,16.21,24.7639,24.7639,0,0,0,3.9039,5.7649l1.4245-1.4038-.0646-1.999c-.2424.0093-5.8255.2266-12.4147,4.62a36.6347,36.6347,0,0,0-9.9943,10.1533,58.5515,58.5515,0,0,0-8.0029,19.0085l.0007-.0027c-.0806.3276-.1572.6523-.23.9709l1.9493.4475,1.9493.4473c.0694-.3025.1412-.6067.2159-.91l.0007-.0027a54.5732,54.5732,0,0,1,7.434-17.7227,30.5273,30.5273,0,0,1,12.97-11.3008,22.48,22.48,0,0,1,4.6062-1.4778c.5579-.1111.9927-.17,1.2764-.2009.1418-.0154.2458-.0237.3085-.0281l.0626-.0039-.0057-.1121.0036.1121h.0021l-.0057-.1121.0036.1121,1.36-3.4028-.0175.0171.0178-.0168,0,0-.0175.0171.0178-.0168a21.846,21.846,0,0,1-3.3463-5.0857,31.4977,31.4977,0,0,1-3.1732-14.0818,45.2238,45.2238,0,0,1,4.2349-18.3455c3.1451-7.113,8.3551-15.2229,16.603-24.251,8.2908-9.0735,16.6914-14.79,24.7311-18.26a56.7205,56.7205,0,0,1,22.631-4.69,61.98,61.98,0,0,1,20.6332,3.62,56.5745,56.5745,0,0,1,5.9184,2.4792c.683.3354,1.2043.6128,1.5494.803.1725.095.301.1683.3835.2161l.0892.0522.0183.0109.0006,0,1.6628,1.0081,1.0544-1.6338-.97-.6263.9678.63.0026-.0042-.97-.6263.9678.63s.0374-.0576.1183-.1727a35.0829,35.0829,0,0,1,9.1968-8.5076c5.6408-3.698,13.93-7.1763,25.4185-7.1813,9.1987.0009,20.4769,2.2421,34.0842,8.5242a69.3444,69.3444,0,0,1,23.816,17.792,75.3536,75.3536,0,0,1,15.4741,30.1387,78.7518,78.7518,0,0,1,2.0293,10.7161c.1516,1.311.2318,2.3457.274,3.0454.0211.35.0327.616.039.7908l.0059.1931.001.0437v.0076l.0267,2.0249,2.0251-.052-.0306-1.1768.0231,1.1768h.0074l-.0306-1.1768.0231,1.1768.0389,0a35.2481,35.2481,0,0,1,6.71.8037,40.6064,40.6064,0,0,1,20.3438,10.7109,41.6243,41.6243,0,0,1,8.98,13.46,64.6278,64.6278,0,0,1,4.6877,21.5352q.1365,2.2544.135,4.3606c-.0045,10.5188-2.4515,18.2661-6.0759,24.0715a34.1625,34.1625,0,0,1-9.7592,10.1233,45.0609,45.0609,0,0,1-16.1821,6.6753A46.3067,46.3067,0,0,1,257.1563,258l-.0808,0H41.3882a18.4018,18.4018,0,0,1-8.5184-1.9167,18.0821,18.0821,0,0,1-8.09-8.8979A34.7163,34.7163,0,0,1,22,232.8445a53.0023,53.0023,0,0,1,1.3836-11.78Z"/>
  </g>
</svg>
