<svg xmlns="http://www.w3.org/2000/svg" viewBox="0 0 320 320"><defs><style>.a{fill:#1a1a1a;}</style></defs><title>flat-cylinder-outline</title><path  d="M279.8564,98.2715l-1.9736.3242a7.051,7.051,0,0,1,.1172,1.13V213.9023a17.6,17.6,0,0,1-2.2034,8.35c-2.5557,4.8144-7.41,9.5517-14.2383,13.8628-10.2334,6.4756-24.8318,11.9791-42.259,15.8245A278.4618,278.4618,0,0,1,160,258c-32.9263.0045-62.7333-5.1414-84.1357-13.3687-10.7-4.1062-19.2878-8.99-25.0895-14.2662a30.6409,30.6409,0,0,1-6.5717-8.1127A17.6018,17.6018,0,0,1,42,213.9023V99.7256a7.0363,7.0363,0,0,1,.1172-1.13l-1.9735-.3242-1.9856.24a23.1507,23.1507,0,0,0,3.6608,9.7478c3.474,5.3977,9.09,10.2587,16.3921,14.5934,10.9591,6.4934,25.7661,11.8027,43.1611,15.5206A284.0174,284.0174,0,0,0,160,144.1953c32.3926-.0038,61.8066-4.8871,83.6509-12.9163,10.9238-4.0208,19.9626-8.8223,26.5605-14.2905a38.7627,38.7627,0,0,0,7.9692-8.7292,23.1512,23.1512,0,0,0,3.6611-9.7477l-1.9854-.24-1.9736.3242,1.9736-.3242-1.9856-.24a19.1578,19.1578,0,0,1-3.0557,8.0662c-2.9829,4.6556-8.1165,9.1984-15.0669,13.3143-10.42,6.1826-24.8735,11.4048-41.9565,15.0494A280.0507,280.0507,0,0,1,160,140.1953c-31.9839.0038-61.02-4.85-82.2711-12.6706-10.6238-3.9041-19.2937-8.5554-25.3872-13.615a34.8064,34.8064,0,0,1-7.1573-7.8121,19.1549,19.1549,0,0,1-3.0553-8.0661L38.17,97.9473A10.8285,10.8285,0,0,0,38,99.7256V213.9023a21.6092,21.6092,0,0,0,2.6727,10.2305c3.0389,5.6885,8.4285,10.8036,15.6312,15.3632,10.813,6.83,25.7819,12.4241,43.5337,16.3494A282.4211,282.4211,0,0,0,160,262c33.3481-.0046,63.541-5.1779,85.57-13.6347,11.0159-4.2358,20.0012-9.285,26.3442-15.0391a34.6006,34.6006,0,0,0,7.4128-9.1932A21.6118,21.6118,0,0,0,282,213.9023V99.7256a10.8145,10.8145,0,0,0-.17-1.7783l-3.959.0841ZM160,50V48c-33.3483.0045-63.5413,5.1779-85.57,13.6347C63.4138,65.8705,54.4283,70.92,48.0854,76.6738a34.5976,34.5976,0,0,0-7.4127,9.1932A21.609,21.609,0,0,0,38,96.0977a19.9287,19.9287,0,0,0,.1582,2.4159,23.1491,23.1491,0,0,0,3.6605,9.7457c3.474,5.3977,9.09,10.2587,16.3921,14.5934,10.9591,6.4934,25.7661,11.8027,43.1611,15.5206A284.0174,284.0174,0,0,0,160,144.1953c32.3926-.0038,61.8066-4.8871,83.6509-12.9163,10.9238-4.0208,19.9626-8.8223,26.5605-14.2905a38.7627,38.7627,0,0,0,7.9692-8.7292,23.1512,23.1512,0,0,0,3.6611-9.7477A19.9182,19.9182,0,0,0,282,96.0977a21.6117,21.6117,0,0,0-2.6726-10.2306c-3.0391-5.6885-8.4287-10.8036-15.6313-15.3632-10.813-6.83-25.7817-12.4241-43.5337-16.3494A282.4165,282.4165,0,0,0,160,48v4c32.926-.0045,62.7332,5.1414,84.1355,13.3687,10.7,4.1062,19.2878,8.99,25.09,14.2662a30.6407,30.6407,0,0,1,6.5715,8.1127A17.6031,17.6031,0,0,1,278,96.0977a15.9623,15.9623,0,0,1-.1289,1.9317,19.1594,19.1594,0,0,1-3.0559,8.0682c-2.9829,4.6556-8.1165,9.1984-15.0669,13.3143-10.42,6.1826-24.8735,11.4048-41.9565,15.0494A280.0507,280.0507,0,0,1,160,140.1953c-31.9839.0038-61.02-4.85-82.2711-12.6706-10.6238-3.9041-19.2937-8.5554-25.3872-13.615a34.8064,34.8064,0,0,1-7.1573-7.8121,19.1549,19.1549,0,0,1-3.0553-8.0661A15.9771,15.9771,0,0,1,42,96.0977a17.6015,17.6015,0,0,1,2.2032-8.35c2.5558-4.8144,7.41-9.5517,14.2383-13.8628C68.6748,67.4092,83.2733,61.9057,100.7,58.06A278.4637,278.4637,0,0,1,160,52Z"/></svg>