<svg xmlns="http://www.w3.org/2000/svg" viewBox="0 0 320 320">
  <defs>
    <style>
      .cls-1 {
        fill: #1a1a1a;
      }
    </style>
  </defs>
  <title>flat-refresh-outline</title>
  <g id="Layer_16" data-name="Layer 16">
    <path  d="M158.5742,280v2c2.27,0,4.4517-.0791,6.1685-.2056l1.8528-.1367v-1.88h-2l.0813,1.9983A121.2784,121.2784,0,0,0,281.4011,160.1289c0-8.436-.2705-16.186-1.9465-24.7083l-1.9624.386v2h4.5029L282,45.5225,278.5837,44.11,246.2322,76.5555l1.4163,1.4122,1.4622-1.3645A120.5063,120.5063,0,0,0,160.8271,38c-1.2554,0-2.68.01-4.0134.06l.0759,1.9987-.0383-2C91.0938,39.3209,38.0035,93.7,38,160.1836a129.7959,129.7959,0,0,0,2.3937,24.3276l1.9667-.3638v-2H38.005L38,274.4431l3.4229,1.4058,31.9746-32.3662-1.4227-1.4055L70.5107,243.44A119.7107,119.7107,0,0,0,158.5742,282v-4a115.7022,115.7022,0,0,1-85.1359-37.2859l-1.421-1.5261L42,269.5725l.0045-83.4253h2.76l-.4375-2.3638a125.7625,125.7625,0,0,1-2.327-23.6C41.9962,95.8683,93.3827,43.2649,156.9277,42.0582l.0193,0,.0183-.0006C158.21,42.01,159.594,42,160.8271,42A116.5026,116.5026,0,0,1,246.186,79.3322l1.4141,1.516L278,50.3608l-.0046,83.4456-.5027,0h-2.4316l.469,2.3857c1.6013,8.1458,1.8716,15.5774,1.8718,23.9365a117.272,117.272,0,0,1-112.8872,117.65l-1.9185.0781V279.8h2l-.1472-1.9946c-1.5918.1177-3.6995.1948-5.8743.1948ZM73.8154,160.1621h2A84.18,84.18,0,0,1,98.1216,102.79,81.09,81.09,0,0,1,153.126,76.769l-.1162-1.9966h-2v2.3531l2.189-.2079c1.54-.1477,4.4131-.2583,6.4644-.2733l-.0156-2-.0256,2A83.2138,83.2138,0,0,1,220.62,104.8364l1.4976-1.3257-1.4319-1.3966L189.1833,134.41l1.4319,3.3965h51.373v-2l-1.8882.66a51.1123,51.1123,0,0,1,2.2737,11.0464,118.429,118.429,0,0,1,.6145,12.6748,83.3777,83.3777,0,0,1-78.509,83.02l.1165,1.9968h2v-2.3572l-2.1938.2141c-1.59.155-3.4.2537-5.4333.2661l.0122,2,.0305-2c-24.0061-.3689-45.2848-11.324-60.2294-28.198l-1.4974,1.3259,1.4187,1.4094,32.1006-32.3076-1.4187-3.4094h-51.59v2l1.9344-.5076c-2.1849-8.3218-3.9154-15.5188-3.9141-23.4778h-4c.0013,8.5564,1.8568,16.1445,4.0449,24.4927l.3914,1.4924h48.3267L94.5431,216.376l1.2435,1.4048c15.61,17.6377,37.9543,29.1611,63.1631,29.5461h.0427c2.1484-.0129,4.0786-.1174,5.7971-.2847l-.1938-1.99h-2v2.272l2.1162-.123a87.3772,87.3772,0,0,0,82.2761-87.0132,122.243,122.243,0,0,0-.6379-13.11,54.9633,54.9633,0,0,0-2.4739-11.9312l-.4685-1.34H195.36l29.4868-30.23-1.2322-1.3917a87.2087,87.2087,0,0,0-63.9417-29.54l-.0178,0h-.0234c-2.1675.0182-5.0408.1244-6.811.2911l.1892,1.9911h2V72.6523l-2.1162.1234a85.0965,85.0965,0,0,0-57.7069,27.2968,88.183,88.183,0,0,0-23.371,60.09Z"/>
  </g>
</svg>
