<svg xmlns="http://www.w3.org/2000/svg" viewBox="0 0 320 320">
  <defs>
    <style>
      .cls-1 {
        fill: #1a1a1a;
      }
    </style>
  </defs>
  <title>flat-refresh-filled</title>
  <g id="Layer_16" data-name="Layer 16">
    <g>
      <path class="cls-1" d="M158.5742,280c2.2227,0,4.3672-.0781,6.0215-.2v-.0225A119.2752,119.2752,0,0,0,279.4014,160.1289c0-8.3975-.2705-15.9883-1.9092-24.3223h2.5029L280,45.5225,247.6484,77.9678A118.5043,118.5043,0,0,0,160.8271,40c-1.2441,0-2.6484.01-3.9375.0586C92.2383,41.293,40,94.7842,40,160.1836a127.7793,127.7793,0,0,0,2.36,23.9639H40.0049L40,274.4434l31.9746-32.3662A117.7064,117.7064,0,0,0,158.5742,280ZM73.8154,160.1621c0-45.3652,34.5049-82.7871,79.1943-85.39v.1543c1.6553-.1572,4.5283-.2656,6.6377-.2822a85.2115,85.2115,0,0,1,62.47,28.8662l-31.502,32.2959h51.373c2.33,6.667,3,15.8428,3,24.3809,0,45.3662-35.7021,82.415-80.3926,85.0166v-.1523c-1.6543.1611-3.5244.2627-5.6152.2754-24.6074-.377-46.4189-11.6162-61.6963-28.8721l32.1006-32.3076h-51.59C75.6084,175.8125,73.8154,168.42,73.8154,160.1621Z"/>
      <path class="cls-1" d="M158.5742,280v2c2.27,0,4.4517-.0791,6.1685-.2056l1.8528-.1367v-1.88h-2l.0813,1.9983A121.2784,121.2784,0,0,0,281.4011,160.1289c0-8.436-.2705-16.186-1.9465-24.7083l-1.9624.386v2h4.5029L282,45.5225,278.5837,44.11,246.2322,76.5555l1.4163,1.4122,1.4622-1.3645A120.5063,120.5063,0,0,0,160.8271,38c-1.2554,0-2.68.01-4.0134.06l.0759,1.9987-.0383-2C91.0938,39.3209,38.0034,93.7,38,160.1836a129.7855,129.7855,0,0,0,2.3936,24.3276l1.9668-.3638v-2H38.0049L38,274.4431l3.4229,1.4058,31.9746-32.3662-1.4226-1.4055L70.5107,243.44A119.7107,119.7107,0,0,0,158.5742,282v-4a115.7023,115.7023,0,0,1-85.136-37.2859l-1.4214-1.5261L42,269.5723l.0044-83.425h2.76l-.4373-2.3638A125.7729,125.7729,0,0,1,42,160.1836C41.9961,95.8683,93.3826,43.2649,156.9277,42.0582l.0129,0,.0247-.0007C158.21,42.01,159.594,42,160.8271,42A116.5026,116.5026,0,0,1,246.186,79.3322l1.4141,1.516L278,50.3608l-.0046,83.4456-.5027,0h-2.4316l.469,2.3857c1.6013,8.1458,1.8716,15.5774,1.8718,23.9365a117.272,117.272,0,0,1-112.8872,117.65l-1.9185.0781V279.8h2l-.1472-1.9946c-1.5918.1177-3.6995.1948-5.8743.1948ZM73.8154,160.1621h2A84.18,84.18,0,0,1,98.1216,102.79,81.09,81.09,0,0,1,153.126,76.769l-.1162-1.9966h-2v2.3531l2.189-.2079c1.54-.1477,4.4131-.2583,6.4644-.2733l-.0156-2-.0256,2A83.2138,83.2138,0,0,1,220.62,104.8364l1.4976-1.3257-1.4319-1.3966L189.1833,134.41l1.4319,3.3965h51.373v-2l-1.8882.66a51.1123,51.1123,0,0,1,2.2737,11.0464,118.429,118.429,0,0,1,.6145,12.6748,83.3777,83.3777,0,0,1-78.509,83.02l.1165,1.9968h2v-2.3572l-2.1938.2141c-1.59.155-3.4.2537-5.4333.2661l.0122,2,.0305-2c-24.0061-.3689-45.2849-11.324-60.2295-28.198l-1.4973,1.3259,1.4187,1.4094,32.1006-32.3076-1.4187-3.4094h-51.59v2l1.9343-.5076c-2.1848-8.3218-3.9153-15.5188-3.9141-23.4778h-4c.0012,8.5564,1.8567,16.1445,4.0449,24.4927l.3914,1.4924h48.3262L94.5432,216.376l1.2434,1.4048c15.61,17.6377,37.9543,29.1611,63.1631,29.5461h.0427c2.1484-.0129,4.0786-.1174,5.7971-.2847l-.1938-1.99h-2v2.272l2.1162-.123a87.3772,87.3772,0,0,0,82.2761-87.0132,122.243,122.243,0,0,0-.6379-13.11,54.9633,54.9633,0,0,0-2.4739-11.9312l-.4685-1.34H195.36l29.4866-30.23-1.2319-1.3917a87.2087,87.2087,0,0,0-63.9417-29.54l-.0178,0h-.0234c-2.1675.0182-5.0408.1244-6.811.2911l.1892,1.9911h2V72.6523l-2.1162.1234a85.0971,85.0971,0,0,0-57.707,27.2968,88.1835,88.1835,0,0,0-23.3708,60.09Z"/>
    </g>
  </g>
</svg>
