<svg xmlns="http://www.w3.org/2000/svg" viewBox="0 0 320 320">
  <defs>
    <style>
      .cls-1 {
        fill: #1a1a1a;
      }
    </style>
  </defs>
  <title>flat-tag-filled</title>
  <g id="Layer_16" data-name="Layer 16">
    <g>
      <path  d="M184,280,40,136V40h96L280,184ZM74.3828,54.1914A20.1917,20.1917,0,1,0,94.5742,74.3833,20.1916,20.1916,0,0,0,74.3828,54.1914Z"/>
      <path  d="M184,280l1.4141-1.4142L42,135.1713V42h93.1719l142,142-94.5857,94.5858L184,280l1.4141-1.4142L184,280l1.4141,1.4142L282.8281,184l-146-146H38v98.8287l146,146,1.4146-1.4141ZM74.3828,54.1914v-2A22.1916,22.1916,0,1,0,96.574,74.3833,22.1921,22.1921,0,0,0,74.3828,52.1914v4A18.192,18.192,0,1,1,61.52,61.52a18.1255,18.1255,0,0,1,12.8633-5.3282Z"/>
    </g>
  </g>
</svg>
