<svg xmlns="http://www.w3.org/2000/svg" viewBox="0 0 320 320"><defs><style>.a{fill:#1a1a1a;}</style></defs><title>flat-mug</title><path class="a" d="M280,140h4a66.8681,66.8681,0,0,0-12.838-39.5186c-8.4128-11.5231-20.8409-20.7072-36.6462-25.59l-1.1822,3.8214h4V65a9,9,0,0,0-9-9H85a9,9,0,0,0-9,9V218.4126a49.0575,49.0575,0,0,0,.6754,7.1311,58.6589,58.6589,0,0,0,2.9277,11.1854,47.5537,47.5537,0,0,0,4.786,9.5121A38.0117,38.0117,0,0,0,97.708,258.7255c5.8831,3.2766,13.2746,5.2806,22.292,5.2744h73.3335a45.7114,45.7114,0,0,0,6.9076-.6793,54.9644,54.9644,0,0,0,10.8117-2.9423,45.2843,45.2843,0,0,0,9.191-4.8076,37.5084,37.5084,0,0,0,12.0287-13.3362c3.1467-5.8761,5.0662-13.24,5.061-22.2345V210h-4l1.7888,3.5776a84.9356,84.9356,0,0,0,16.5242-11.1167,100.683,100.683,0,0,0,22.3406-26.7137C279.9969,165.153,283.9984,153.0023,284,140h-8a60.5047,60.5047,0,0,1-4.2119,21.7852,84.9909,84.9909,0,0,1-17.8,27.4741,84.4538,84.4538,0,0,1-22.4434,17.163A3.993,3.993,0,0,0,229.3335,210c0,4.812,0,6.3612,0,10a43.9007,43.9007,0,0,1-1.5649,12.1041,29.8221,29.8221,0,0,1-8.1273,13.6975,33.3223,33.3223,0,0,1-8.521,5.8295,45.5155,45.5155,0,0,1-12.3561,3.825c-1.6876.2755-3.0866.4121-4.0429.4791-.4782.0336-.8457.05-1.0834.0576-.1188.0039-.2053.0056-.2568.0065L193.33,256h-.0053l.0085,2.1888V256h-.0085l.0085,2.1888V256S158.0952,256,120,256a42.1855,42.1855,0,0,1-12.0641-1.6215,29.6063,29.6063,0,0,1-13.6845-8.4478,34.9042,34.9042,0,0,1-5.8567-8.9017,48.99,48.99,0,0,1-3.847-12.9207c-.2772-1.765-.4148-3.2288-.4823-4.2312-.0338-.5012-.05-.8871-.0581-1.1378-.004-.1254-.0058-.2169-.0067-.2722L84,218.4117l-.1138.0009H84v-.0009l-.1138.0009H84V65a1,1,0,0,1,1-1H228.3335a1,1,0,0,1,1,1V78.7124a4.0039,4.0039,0,0,0,2.8177,3.8213c14.2362,4.4106,25.1413,12.5371,32.5514,22.6677A58.8638,58.8638,0,0,1,276,140Zm-46.6665,46.6665h4V100h-4l-1.454,3.7263a40.4419,40.4419,0,0,1,17.7671,12.8915c4.4706,5.9026,7.29,13.4579,7.3056,23.3822a48.594,48.594,0,0,1-7.0117,25.448,50.3278,50.3278,0,0,1-18.5588,17.7269l1.9518,3.4916h0l1.9517,3.4915a58.329,58.329,0,0,0,21.492-20.5555A56.6139,56.6139,0,0,0,264.9521,140c.0155-11.47-3.3909-20.9556-8.9378-28.225a48.4162,48.4162,0,0,0-21.2268-15.5015A4,4,0,0,0,229.3335,100c0,25.2251,0,60.3959,0,86.6665a4,4,0,0,0,5.9517,3.4915Z"/></svg>