<svg xmlns="http://www.w3.org/2000/svg" viewBox="0 0 320 320"><defs><style>.a{fill:#1a1a1a;}</style></defs><title>flat-shrink</title><path class="a" d="M298.0088,261.7446l1.4141-1.4144a8.8,8.8,0,0,0-12.4448,0l-7.1013,7.1017L209.6536,197.21l15.5264-9.88-.5886-3.6276-54.519-13.6293,13.63,54.5181,3.6277.5887,9.88-15.526,70.2222,70.2227-7.1013,7.102a8.7992,8.7992,0,1,0,12.4438,12.444l26.6482-26.6478a8.8,8.8,0,0,0,0-12.4441l-1.4141,1.4142-1.4143,1.4141a4.7993,4.7993,0,0,1,0,6.7874L269.946,296.5941a4.7991,4.7991,0,1,1-6.7871-6.7869l9.93-9.9307-76.5769-76.577-10.0581,15.8059L175.57,175.57l43.5359,10.884L203.2988,196.512l76.5779,76.5772,9.93-9.93a4.8,4.8,0,0,1,6.7878,0Z"/><path class="a" d="M147.1787,147.1787l1.94-.4851L136.2976,95.4089,132.67,94.82l-9.88,15.5255L52.5674,40.1234l7.1016-7.1019A8.7992,8.7992,0,1,0,47.2249,20.5778L20.5769,47.2254A8.8,8.8,0,0,0,33.0215,59.67l7.1013-7.102L110.3459,122.79,94.82,132.67l.5886,3.6276,54.5186,13.63-.8081-3.2338-1.94.4851.4849-1.94-46.77-11.6924,15.8069-10.058L40.1226,46.9108l-9.9294,9.93a4.8,4.8,0,1,1-6.7878-6.7872L50.0537,23.4059a4.7992,4.7992,0,1,1,6.7871,6.787l-9.93,9.9305L123.4873,116.7l10.0583-15.8058,11.6926,46.7692,1.94-.485.4849-1.94Z"/></svg>