<svg xmlns="http://www.w3.org/2000/svg" viewBox="0 0 320 320"><defs><style>.a{fill:#1a1a1a;}</style></defs><title>flat-dots-horizontal-outline</title><path class="a" d="M71.8184,126.9316l0-2a35.0682,35.0682,0,0,0,0,70.1365l.0006,0a35.0685,35.0685,0,0,0,0-70.137l-.0006,0,0,2,0,2a31.0682,31.0682,0,0,1,0,62.1365l.0006,0a31.0685,31.0685,0,1,1,0-62.137l-.0006,0Z"/><path class="a" d="M160,126.9316l0-2a35.0682,35.0682,0,0,0,0,70.1365H160a35.0682,35.0682,0,0,0,0-70.1365l-.5,0,.4993,0,0,2,0,2a31.0685,31.0685,0,0,1,0,62.137H160a31.0685,31.0685,0,0,1,0-62.137H160Z"/><path class="a" d="M248.1821,126.9316l0-2a35.0678,35.0678,0,1,0,.0007,0l0,2,0,2a31.0679,31.0679,0,1,0,.0007,0Z"/></svg>