<svg xmlns="http://www.w3.org/2000/svg" viewBox="0 0 320 320">
  <defs>
    <style>
      .cls-1 {
        fill: #1a1a1a;
      }
    </style>
  </defs>
  <title>flat-trash</title>
  <g id="Layer_16" data-name="Layer 16">
    <g>
      <path class="cls-1" d="M97.7773,288v4H222.2227a16.4448,16.4448,0,0,0,16.4441-16.4443V106.6665a4,4,0,0,0-4-4H85.333a4,4,0,0,0-4,4V275.5557A16.4448,16.4448,0,0,0,97.7773,292v-8a8.4452,8.4452,0,0,1-8.4446-8.4443V110.6664h141.334l0,164.8892A8.4452,8.4452,0,0,1,222.2227,284H97.7773Z"/>
      <path class="cls-1" d="M64,70.4443H60v29.7778a10.4446,10.4446,0,0,0,10.4443,10.4443H249.5557A10.4446,10.4446,0,0,0,260,100.2222V70.4443A10.4446,10.4446,0,0,0,249.5557,60H70.4443A10.4446,10.4446,0,0,0,60,70.4443h8A2.4447,2.4447,0,0,1,70.4443,68H249.5557A2.4447,2.4447,0,0,1,252,70.4443v29.7778a2.4447,2.4447,0,0,1-2.4443,2.4443H70.4443A2.4447,2.4447,0,0,1,68,100.2222V70.4443Z"/>
      <path class="cls-1" d="M132,64V54.4443A18.4447,18.4447,0,0,1,150.4443,36h19.1113A18.4447,18.4447,0,0,1,188,54.4443V64h8l0-9.5557A26.4444,26.4444,0,0,0,169.5557,28H150.4443A26.4444,26.4444,0,0,0,124,54.4443V64h8Z"/>
      <polyline class="cls-1" points="118.667 128 118.667 266.667 126.667 266.667 126.667 128"/>
      <polyline class="cls-1" points="164 266.667 164 128 156 128 156 266.667"/>
      <polyline class="cls-1" points="193.333 128 193.333 266.667 201.333 266.667 201.333 128"/>
    </g>
  </g>
</svg>
