<svg xmlns="http://www.w3.org/2000/svg" viewBox="0 0 320 320">
  <defs>
    <style>
      .cls-1 {
        fill: #1a1a1a;
      }
    </style>
  </defs>
  <title>flat-person</title>
  <g id="Layer_16" data-name="Layer 16">
    <path  d="M228.3618,125.2539h-4a63.175,63.175,0,1,1-18.5035-44.6714,62.9612,62.9612,0,0,1,18.5035,44.6714h8a71.1748,71.1748,0,1,0-20.8466,50.3289,70.9689,70.9689,0,0,0,20.8466-50.3289Zm-14.5864,58.52-2.692-2.9587a74.0792,74.0792,0,0,1-99.7938,0,4.0026,4.0026,0,0,0-4.5779-.5688,116.35,116.35,0,0,0-41.34,37.1936A115.0069,115.0069,0,0,0,46.02,270.7913a4,4,0,0,0,3.98,4.395H272.373a4,4,0,0,0,3.98-4.395,115.0093,115.0093,0,0,0-19.3519-53.3518,116.35,116.35,0,0,0-41.34-37.1936,4.0026,4.0026,0,0,0-4.5779.5688l2.692,2.9587-1.886,3.5273a108.3556,108.3556,0,0,1,38.4948,34.6343,107.0048,107.0048,0,0,1,18.0084,49.6465l3.98-.395v-4H50v4l3.98.395a107.0035,107.0035,0,0,1,18.0084-49.6465,108.3556,108.3556,0,0,1,38.4948-34.6343l-1.8859-3.5273-2.692,2.9585a82.08,82.08,0,0,0,110.5616,0l-2.6919-2.9585-1.886,3.5273Z"/>
  </g>
</svg>
