<svg xmlns="http://www.w3.org/2000/svg" viewBox="0 0 320 320">
  <defs>
    <style>
      .cls-1 {
        fill: #1a1a1a;
      }
    </style>
  </defs>
  <title>flat-cog-filled</title>
  <g id="Layer_16" data-name="Layer 16">
    <g>
      <path  d="M251.2188,179.1025l-20.94,42.1079,15.94,24.03L205.0068,272.58l-17.519-26.41-44.0869,2.7417-14.1118,28.377-44.2822-22.022,12.84-25.82L71.8511,190.2578l-28.7812,1.79L40,142.687l23.0815-1.4351L86.5645,94.0308,73.7808,74.7593,114.9932,47.42l11.2056,16.8921,55.4863-3.4507,9.0259-18.15,44.2822,22.022L224.6958,85.44l29.1528,43.9473,23.0815-1.4355L280,177.313Zm-94.6724-74.6333a51.9288,51.9288,0,1,0,55.0518,48.6055A51.9285,51.9285,0,0,0,156.5464,104.4692Z"/>
      <path  d="M251.2188,179.1025l-1.7909-.8906-21.4541,43.1417,15.4731,23.326-37.879,25.1276L188.516,244.1021l-46.392,2.8851-13.7354,27.62L87.6881,254.3663l12.4639-25.0635L72.8793,188.19l-27.9377,1.7376L42.12,144.559l22.2379-1.3826L88.8694,93.8873,76.5529,75.32l37.879-25.1276L125.17,66.38l57.7916-3.5939,8.6494-17.3935,40.7006,20.2407-9.9209,19.95L252.82,131.4555l22.238-1.3831,2.8215,45.3685L249.942,177.178l-.5142,1.0339,1.7909.8906.124,1.9961,30.7773-1.9136-3.3181-53.3533L254.8771,127.32,227.0006,85.297l10.6738-21.4639L189.81,40.03l-9.4021,18.9072-53.1813,3.3074L115.5542,44.6482l-44.5458,29.55L84.2593,94.174,61.8048,139.3274,37.88,140.815l3.318,53.3531,29.6249-1.8426,24.72,37.264L82.3253,256.1667,130.1892,279.97l14.4882-29.1339,41.7817-2.5984,17.9863,27.1141,44.5459-29.55L232.5836,221.067,253.01,179.9931l-1.7908-.8905.124,1.9961Zm-94.6724-74.6333-.1243-1.9962a53.9315,53.9315,0,0,0-50.5828,53.7748q0,1.6883.1058,3.3979A53.9313,53.9313,0,0,0,159.72,210.2282q1.6886,0,3.3971-.1056A53.9315,53.9315,0,0,0,213.7,156.3477q0-1.6889-.1055-3.3967a53.9326,53.9326,0,0,0-53.7759-50.5836q-1.6884,0-3.3964.1057l.1244,1.9962.1243,1.9961q1.5826-.0985,3.1477-.098a49.9321,49.9321,0,0,1,49.7836,46.8315q.0981,1.5835.0979,3.1489A49.9313,49.9313,0,0,1,162.8689,206.13q-1.5844.0983-3.149.098a49.931,49.931,0,0,1-49.7823-46.8314q-.0991-1.5839-.0983-3.149a49.9314,49.9314,0,0,1,46.8313-49.7825Z"/>
    </g>
  </g>
</svg>
