<svg xmlns="http://www.w3.org/2000/svg" viewBox="0 0 320 320">
  <defs>
    <style>
      .cls-1 {
        fill: #1a1a1a;
      }
    </style>
  </defs>
  <title>flat-cog</title>
  <g id="Layer_16" data-name="Layer 16">
    <path  d="M252.6157,177.33l-3.619-1.7039-20.2524,43.0156a4,4,0,0,0,.3339,3.9861L243.43,243.2856l-34.4933,23.9625-15.9985-23.0289a4,4,0,0,0-3.619-1.7039l-44.502,3.728a4,4,0,0,0-3.285,2.2822l-11.9446,25.3693-37.999-17.8907,10.7147-22.7574a4,4,0,0,0-.3339-3.986l-27.126-39.0469a4,4,0,0,0-3.619-1.7039l-25.0667,2.1-3.5056-41.8536,19.3129-1.6177a4,4,0,0,0,3.285-2.2822L87.9612,96.6169a4,4,0,0,0-.3339-3.986L76.57,76.7143l34.4933-23.9626,9.41,13.5456a4,4,0,0,0,3.619,1.7039L180.1014,63.31a4,4,0,0,0,3.285-2.2821l7.026-14.9226,37.999,17.8906L220.1564,81.53a4,4,0,0,0,.3339,3.986l30.42,43.7881a4,4,0,0,0,3.619,1.7039l19.3132-1.6178,3.5055,41.8536-25.0662,2.1a4,4,0,0,0-3.285,2.2822l3.619,1.7039.3339,3.986,29.0522-2.4336a4,4,0,0,0,3.6521-4.32l-4.1733-49.8257a4,4,0,0,0-4.32-3.6522l-20.998,1.7589L228.3781,82.8484l8.9752-19.064a4,4,0,0,0-1.915-5.3228L190.2014,37.1633a4,4,0,0,0-5.3229,1.915L177.1322,55.53l-51.406,4.3059L115.3514,44.9024a4,4,0,0,0-5.5673-1.0029L68.7207,72.4263a4,4,0,0,0-1.0029,5.5672L79.74,95.2986l-20.744,44.06L37.998,141.118a4,4,0,0,0-3.6521,4.32l4.1733,49.8257a4,4,0,0,0,4.32,3.6522L69.59,196.6749l24.4907,35.2535L82.6466,256.2155a4,4,0,0,0,1.915,5.3228l45.2368,21.2983a4,4,0,0,0,5.3229-1.915l12.6647-26.899,39.8993-3.3424,16.9631,24.4174a4,4,0,0,0,5.5673,1.0029l41.0635-28.5269a4,4,0,0,0,1.0029-5.5673L236.9659,219.96l19.2687-40.9262-3.6189-1.7039.3339,3.986Zm-97.311-73.3833-.334-3.9861a56.5052,56.5052,0,0,0-51.787,56.2438q0,2.37.2,4.7763a56.5051,56.5051,0,0,0,56.2443,51.7856q2.37,0,4.774-.2A56.5056,56.5056,0,0,0,216.19,156.3214q0-2.3708-.2-4.7736A56.5055,56.5055,0,0,0,159.7458,99.76q-2.3708,0-4.7755.2l.3344,3.986.3342,3.986q2.0682-.1734,4.1069-.1722a48.5053,48.5053,0,0,1,48.272,44.4547q.1729,2.0686.172,4.1066a48.5058,48.5058,0,0,1-44.4545,48.2726q-2.0693.173-4.1069.1721a48.5051,48.5051,0,0,1-48.2723-44.4545q-.1738-2.07-.1725-4.1075a48.5055,48.5055,0,0,1,44.455-48.2718Z"/>
  </g>
</svg>
