<svg xmlns="http://www.w3.org/2000/svg" viewBox="0 0 320 320">
  <defs>
    <style>
      .cls-1 {
        fill: #1a1a1a;
      }
    </style>
  </defs>
  <title>flat-location-outline</title>
  <g id="Layer_16" data-name="Layer 16">
    <path class="cls-1" d="M239.894,127.748l-1.8558.7457.106.2637L240,128.0117h-2a134.124,134.124,0,0,1-1.23,18.4994c-3.9454,28.2971-12.6685,50.65-25.2881,71.09-12.62,20.4353-29.1783,38.9567-48.7708,59.3871l1.4436,1.3843v-2h-.8538l-.59.6157A3.2054,3.2054,0,0,1,160.37,278l-.2345-.0083-.1367-.0093-.1367.01L159.63,278a3.204,3.204,0,0,1-2.3406-1.0121l-.59-.6158h-.8538v2l1.4435-1.3843c-19.5924-20.43-36.15-38.9517-48.7708-59.3871-12.62-20.44-21.3427-42.7924-25.2881-71.0895a134.127,134.127,0,0,1-1.23-18.5H80l1.8547.748.106-.2627.1643-.4077-.0215-.4386c-.0088-.1724-.0171-.549-.0215-1.0151-.0048-.4691-.0067-1.04-.0067-1.6538,0-1.2877.0085-2.764.017-3.9166s.017-1.9794.017-1.9813l-2-.02,1.9976.0988a82.7506,82.7506,0,0,1,24.1322-54.7294A75.666,75.666,0,0,1,215.1249,65.82,82.9947,82.9947,0,0,1,238,123.43q0,2.1238-.1036,4.2207l-.0215.4371.1633.4063,1.8558-.7457,1.9976.0975q.1071-2.1921.1083-4.4159A86.9952,86.9952,0,0,0,218.012,63.0516,79.6655,79.6655,0,0,0,103.42,61.5953a86.751,86.751,0,0,0-25.3083,57.3693l-.0021.04,0,.0381c0,.0035-.0339,3.3307-.0339,5.9388,0,.6223.002,1.2039.0068,1.6938.0051.4928.0121.8818.026,1.1715l1.9977-.0981-1.8549-.7482-.106.2627-.1451.36v.3884a138.0994,138.0994,0,0,0,1.2681,19.0513c4.0072,28.8121,12.9651,51.7938,25.8468,72.64,12.881,20.85,29.6447,39.5668,49.2867,60.0536l.59.6158h.8536v-2l-1.4438,1.384A7.2165,7.2165,0,0,0,159.63,282q.2523,0,.5083-.0175L160,279.9873l-.1351,1.9954c.1641.0111.3324.0173.5046.0173a7.2171,7.2171,0,0,0,5.2283-2.2438l-1.4435-1.3842v2h.8531l.5908-.6158c19.642-20.4867,36.4058-39.2031,49.2867-60.0536,12.8817-20.8458,21.8395-43.8274,25.8468-72.64A138.0964,138.0964,0,0,0,242,128.0117v-.3871l-.25-.6224-1.8557.7458,1.9976.0975ZM160,81.1338v-2a45.75,45.75,0,1,0,45.75,45.75A45.7505,45.7505,0,0,0,160,79.1338v4a41.75,41.75,0,1,1-29.5219,12.2285A41.6109,41.6109,0,0,1,160,83.1337Z"/>
  </g>
</svg>
