<svg xmlns="http://www.w3.org/2000/svg" viewBox="0 0 320 320">
  <defs>
    <style>
      .cls-1 {
        fill: #1a1a1a;
      }
    </style>
  </defs>
  <title>flat-layers-filled</title>
  <g id="Layer_16" data-name="Layer 16">
    <g>
      <path class="cls-1" d="M235,197.5,280,220,160,280,40,220l45-22.5L160,235ZM40,100l120,60,120-60L160,40Zm120,75L85,137.5,40,160l120,60,120-60-45-22.5Z"/>
      <path class="cls-1" d="M235,197.5l-.8945,1.7888L275.5276,220,160,277.7638,44.4719,220,85,199.736l75,37.5,75.8948-37.9471L235,197.5l-.8945,1.7888L235,197.5l-.8945-1.7889L160,232.7638l-75-37.5L39.1055,218.2111v3.5778L160,282.236l120.8948-60.4471v-3.5778L235,195.2639l-.8943.4471ZM40,100l-.8945,1.7888L160,162.236l120.8948-60.4471V98.2111L160,37.764,39.1055,98.2111v3.5778L40,100l.8943,1.7888L160,42.2361,275.5273,100,160,157.7638,40.8943,98.2111,40,100l.8943,1.7888Zm120,75,.8943-1.7889L85,135.2639,39.1055,158.2111v3.5778L160,222.236l120.8948-60.4471v-3.5778L235,135.2639l-75.8943,37.9471L160,175l.8943-1.7889L160,175l.8943,1.7888L235,139.736,275.5273,160,160,217.7638,44.4719,160,85,139.736l75,37.5.8948-.4471Z"/>
    </g>
  </g>
</svg>
