<svg xmlns="http://www.w3.org/2000/svg" viewBox="0 0 320 320"><defs><style>.a{fill:#1a1a1a;}</style></defs><title>flat-male-outline</title><path  d="M197.8184,57.9287h2.33a40.205,40.205,0,1,0-11.7621,28.4451,40.1911,40.1911,0,0,0,11.7621-28.4451H195.488a35.5538,35.5538,0,1,1-10.4009-25.1725A35.4885,35.4885,0,0,1,195.488,57.9287Z"/><path  d="M191.5376,98.75V96.42H128.4624a31.5213,31.5213,0,0,0-27.5636,16.1239l.0022-.0039q-.13.2322-.2557.4618A58.4425,58.4425,0,0,0,93.67,141.124v53.2344a13.2518,13.2518,0,0,0,13.238,13.2657h4.7578a13.2939,13.2939,0,0,0,13.2693-12.7715l2.4844-61.6152-2.3284-.0939h-2.33V289.9014A12.445,12.445,0,0,0,135.1631,302.33h9.3276a12.37,12.37,0,0,0,12.35-11.962l2.479-73.0138a.7473.7473,0,0,1,.2217-.5148.6438.6438,0,0,1,.9174,0,.7471.7471,0,0,1,.2217.5143l2.479,73.0142a12.37,12.37,0,0,0,12.35,11.9622h9.3721a12.3709,12.3709,0,0,0,12.358-12.3839V133.1436h-2.33l-2.3285.0939,2.4858,61.6582a13.2494,13.2494,0,0,0,13.2255,12.7285h4.7563A13.3286,13.3286,0,0,0,226.33,194.3135V141.124a58.4414,58.4414,0,0,0-6.9752-28.1218c-.0845-.1538-.1694-.3077-.2561-.4625l.0022.0039A31.5212,31.5212,0,0,0,191.5376,96.42V101.08A26.8612,26.8612,0,0,1,215.03,114.8118l.0022.0039q.1176.21.2374.4288a53.79,53.79,0,0,1,6.4,25.88v53.1895a8.6683,8.6683,0,0,1-8.6213,8.65H208.292a8.5874,8.5874,0,0,1-8.5686-8.2557L197.2375,133.05l-4.6587.094V289.9463a7.7106,7.7106,0,0,1-7.6975,7.7234h-9.3721a7.708,7.708,0,0,1-7.6921-7.46l-2.479-73.0135a5.41,5.41,0,0,0-1.6124-3.68,5.304,5.304,0,0,0-7.4515,0,5.41,5.41,0,0,0-1.6124,3.6808l-2.479,73.0132a7.7079,7.7079,0,0,1-7.692,7.46h-9.3276a7.7849,7.7849,0,0,1-7.7421-7.7683V133.1436l-4.6587-.094-2.4844,61.6152a8.632,8.632,0,0,1-8.6124,8.2988h-4.7578a8.5918,8.5918,0,0,1-8.5775-8.6052V141.124a53.7913,53.7913,0,0,1,6.4008-25.88q.1194-.2175.2371-.4281l.0022-.0039A26.8612,26.8612,0,0,1,128.4624,101.08h63.0752Z"/></svg>