<svg xmlns="http://www.w3.org/2000/svg" viewBox="0 0 320 320">
  <defs>
    <style>
      .cls-1 {
        fill: #1a1a1a;
      }
    </style>
  </defs>
  <title>flat-arrow-up-filled</title>
  <g id="Layer_16" data-name="Layer 16">
    <g>
      <path  d="M246.1211,150.8027,169.0859,73.7852S166.0811,70,159.7813,70a12.7066,12.7066,0,0,0-8.8965,3.94L73.8506,150.959a12.9185,12.9185,0,1,0,18.2852,18.2529L146.9863,114.36l-.0107,122.6484a13.2386,13.2386,0,0,0,26.4727-.0078l-.001-122.6611,54.5732,54.8311a12.8306,12.8306,0,0,0,18.2422.0059A12.989,12.989,0,0,0,246.1211,150.8027Z"/>
      <path  d="M246.1211,150.8027l1.4138-1.4146L170.5,72.3706l-1.4138,1.4146,1.5664-1.2437a11.2631,11.2631,0,0,0-2.8088-2.3528A15.2235,15.2235,0,0,0,159.7813,68a14.0631,14.0631,0,0,0-7.5737,2.2849,13.9049,13.9049,0,0,0-2.8306,2.3413l1.5078,1.3142L149.47,72.5259,72.4363,149.5444A15.0275,15.0275,0,0,0,68,160.1885,14.8906,14.8906,0,0,0,82.91,175.04a15.0216,15.0216,0,0,0,10.64-4.4131l51.4365-51.4377-.01,117.82a14.81,14.81,0,0,0,4.5291,10.6194,15.2908,15.2908,0,0,0,21.4131-.0042,14.8211,14.8211,0,0,0,4.53-10.6228l-.0007-117.8164,51.1555,51.397.0034.0037a14.855,14.855,0,0,0,25.3931-10.4565,15.1778,15.1778,0,0,0-4.4641-10.74l-1.4141,1.4143-1.4143,1.4141A11.1781,11.1781,0,0,1,248,160.1287a10.7247,10.7247,0,0,1-3.1511,7.6338,10.8311,10.8311,0,0,1-15.4138-.0061l.0034.0037L174.8647,112.929,171.447,114.34l.001,122.6611a10.8175,10.8175,0,0,1-3.323,7.7593,11.291,11.291,0,0,1-15.8284.0037,10.8081,10.8081,0,0,1-3.3213-7.7551l.0107-122.6484-3.4141-1.4143L90.7214,167.7976A11.0169,11.0169,0,0,1,82.91,171.04a10.8807,10.8807,0,0,1-7.73-3.2A10.7568,10.7568,0,0,1,72,160.1885a11.0235,11.0235,0,0,1,3.2646-7.8152l77.082-77.0664.0459-.0525-.6018-.5244.5952.532.0066-.0076-.6018-.5244.5952.532a10.4429,10.4429,0,0,1,2.1011-1.6853A10.03,10.03,0,0,1,159.7813,72a11.2081,11.2081,0,0,1,5.967,1.5964,8.9029,8.9029,0,0,1,1.4048,1.0593c.1482.1384.2529.248.3142.3152l.0588.0667.0049.0056.87-.7144-.8818.7.0117.0144.87-.7144-.8818.7.07.0884,77.1174,77.1Z"/>
    </g>
  </g>
</svg>
