<svg xmlns="http://www.w3.org/2000/svg" viewBox="0 0 320 320"><defs><style>.a{fill:#1a1a1a;}</style></defs><title>flat-wrench</title><path  d="M187.4409,102.0566l3.8643,1.033A31.586,31.586,0,0,1,230.07,80.6541l43.6515,11.7327a4,4,0,0,0,4.9023-2.8291l.24-.8979a3.992,3.992,0,0,0-.6373-3.3977l-32.1328-43.86a4.8736,4.8736,0,0,0-.3956-.4618,16.8042,16.8042,0,0,0-16.2612-4.3643L171.01,52.2643a16.8429,16.8429,0,0,0-11.8983,11.9209l-15.6556,58.5526a16.8741,16.8741,0,0,0,4.3531,16.2767l2.5023,2.5077,2.8315-2.8254-2.8315-2.8254L46.041,240.364a17.27,17.27,0,0,0,0,24.389l14.1611,14.1915a17.2017,17.2017,0,0,0,24.3612,0l101.439-101.6556,9.8165,9.8378a3.9889,3.9889,0,0,0,4.375.8649l56.86-23.7832a3.9911,3.9911,0,0,0,2.3206-2.6564l.3369-1.2593a3.9977,3.9977,0,0,0-2.8258-4.8967l-43.65-11.7324a31.4948,31.4948,0,0,1-17.0383-11.4813,31.7047,31.7047,0,0,1-5.3491-27.3837l.4569-1.7083-3.864-1.0336-3.8641-1.0337-.457,1.7085a39.73,39.73,0,0,0,28.04,48.658l43.6489,11.7322,1.0383-3.8629-3.8641-1.0339-.3369,1.2593,3.8641,1.0339-1.5436-3.69-54.3821,22.7468-10.7507-10.774a4,4,0,0,0-5.663,0L78.9,273.2937a9.2015,9.2015,0,0,1-13.0353,0L51.704,259.1023a9.27,9.27,0,0,1,0-13.0878l104.27-104.4924a3.9959,3.9959,0,0,0,0-5.6508l-2.5024-2.5078a8.8733,8.8733,0,0,1-2.2876-8.5591L166.84,66.2515a8.8423,8.8423,0,0,1,6.2445-6.2609l58.4281-15.689a8.8041,8.8041,0,0,1,8.5232,2.29l2.8312-2.8257L239.64,46.13l32.1328,43.86L275,87.626l-3.8641-1.0338-.24.8979,3.8641,1.0338,1.0382-3.8629L232.1456,72.9281a39.6469,39.6469,0,0,0-48.5691,28.0955Z"/></svg>