<svg xmlns="http://www.w3.org/2000/svg" viewBox="0 0 320 320">
  <defs>
    <style>
      .cls-1 {
        fill: #1a1a1a;
      }
    </style>
  </defs>
  <title>flat-folder-outline</title>
  <g id="Layer_16" data-name="Layer 16">
    <path  d="M288.7646,92.2583v2a9.0638,9.0638,0,0,1,6.5527,2.7858A9.5085,9.5085,0,0,1,298,103.66a9.74,9.74,0,0,1-.1821,1.868L269.3559,251.2372a1.9464,1.9464,0,0,1-1.8906,1.6017v2l1.9063-.605L218.8233,94.97a6.7566,6.7566,0,0,0-6.44-4.7119h-68.91l-13.8251-14.065h88.2478a9.1563,9.1563,0,0,1,8.7614,6.7043l3.2544,11.3607h58.8523v-4H232.9274l-2.4242-8.4624a13.1577,13.1577,0,0,0-12.6067-9.6025H124.8784l-1.4263,3.402,18.3446,18.6629h70.5866a2.756,2.756,0,0,1,2.6274,1.922l50.991,160.6585h1.4636a5.9474,5.9474,0,0,0,5.8164-4.835l28.4619-145.7093A13.7408,13.7408,0,0,0,302,103.66a13.5075,13.5075,0,0,0-3.8112-9.4007,13.073,13.073,0,0,0-9.424-4.0009Zm-76.13,0v-2H144.4731a2.3992,2.3992,0,0,1-1.7116-.7245L126.3047,72.7914l-7.5792-7.71a6.3984,6.3984,0,0,0-4.5635-1.92H24.44a6.3678,6.3678,0,0,0-4.6106,1.9676,6.5518,6.5518,0,0,0-1.5151,6.5462l57.6016,180.65a6.4455,6.4455,0,0,0,6.1257,4.5135H270.1984L218.7627,94.78a6.4461,6.4461,0,0,0-6.1284-4.5214v4A2.4446,2.4446,0,0,1,214.95,95.99l49.782,156.8488H82.0415a2.4443,2.4443,0,0,1-2.3147-1.7286L22.1252,70.46A2.5979,2.5979,0,0,1,22,69.6676,2.5645,2.5645,0,0,1,22.7142,67.9a2.3562,2.3562,0,0,1,1.7258-.7385h89.7222a2.3973,2.3973,0,0,1,1.7107.7241l7.5793,7.71,16.457,16.7426a6.4008,6.4008,0,0,0,4.564,1.92h68.1611Z"/>
  </g>
</svg>
