<svg xmlns="http://www.w3.org/2000/svg" viewBox="0 0 320 320"><defs><style>.a{fill:#1a1a1a;}</style></defs><title>flat-briefcase</title><path  d="M123.333,169.1665v4h73.334c18.5828-.0012,32.6467-1.738,43.3657-4.4163a72.1691,72.1691,0,0,0,18.9309-7.3139c7.1-4.13,10.9736-8.8062,12.9512-12.6173A16.4069,16.4069,0,0,0,274,141.6665a3.7325,3.7325,0,0,0-.0542-.6576l-4.583-27.5a3.8922,3.8922,0,0,0-.3682-1.1315,28.8354,28.8354,0,0,0-5.3328-6.7685c-3.7517-3.7529-9.8489-8.5923-19.3728-13.3531a27.2575,27.2575,0,0,0-6.0061-2.0446,67.751,67.751,0,0,0-10.0437-1.4c-3.3533-.245-6.574-.3142-9.1914-.3144-3.5906,0-6.0427.1313-6.0955.134l.2148,3.9943,4,.0438c0-.0141,0-.0732,0-.1743a64.2256,64.2256,0,0,0-1.3259-12.1859,50.7422,50.7422,0,0,0-3.0117-9.7867,32.0636,32.0636,0,0,0-6.0474-9.4389c-4.9089-5.1722-11.4268-8.9564-19.2576-11.4226C179.6848,47.191,170.5037,46.0021,160,46c-11.3594.0026-21.2051,1.4363-29.5051,4.4257-8.29,2.9817-15.0535,7.5838-19.8926,13.79A35.3145,35.3145,0,0,0,104.2888,78.32,55.0333,55.0333,0,0,0,103.04,90.0811c0,2.3019.1418,3.7527.1523,3.859l3.98-.3986.3906-3.9809c-.082-.0072-5.1392-.5046-11.4426-.5056a86.1646,86.1646,0,0,0-10.55.5825,43.7358,43.7358,0,0,0-5.157.94,23.2252,23.2252,0,0,0-4.7029,1.6787c-9.5237,4.7608-15.6208,9.6-19.3726,13.353a28.8347,28.8347,0,0,0-5.3328,6.7685,4.0152,4.0152,0,0,0-.303.819L46.1194,131.53A3.903,3.903,0,0,0,46,132.5a23.6989,23.6989,0,0,0,1.3511,6.994,34.9232,34.9232,0,0,0,5.6323,10.3754c4.3987,5.6678,11.5481,11.5631,22.7881,15.9524,11.2458,4.398,26.5649,7.3431,47.5615,7.3447v-8c-18.002.0011-31.3271-2.2543-41.1309-5.5239a55.4413,55.4413,0,0,1-16.6948-8.5472,30.7336,30.7336,0,0,1-10.1511-12.9833,21.3158,21.3158,0,0,1-1.2048-4.2867c-.082-.5011-.12-.8792-.1375-1.1087-.0085-.1148-.0122-.1924-.0134-.23L54,132.462l-1.2114.0217L54,132.4729l0-.011-1.2114.0217L54,132.4729l-2.57.0228,2.57-.0114v-.0114l-2.57.0228,2.57-.0114v-.0015L50.11,132.5H54v-.0172L50.11,132.5H50l3.88.97,4.583-18.3335-3.88-.97,3.5774,1.7891-2.1582-1.0793,2.1377,1.12.0205-.0406-2.1582-1.0793,2.1377,1.12-.1-.0524.1.0533,0-.0009-.1-.0524.1.0533a24.09,24.09,0,0,1,4.3047-5.1734A67.0576,67.0576,0,0,1,79.2888,99.4112a15.4279,15.4279,0,0,1,3.0764-1.0757,41.9541,41.9541,0,0,1,6.5474-1.0049c2.3875-.2012,4.8777-.2759,7.2083-.2757,2.9412,0,5.6292.1179,7.5686.2359.97.059,1.7532.1178,2.2888.1614.2678.0218.4736.04.61.0521l.1519.014.0417.004a4,4,0,0,0,4.3708-4.3795l-.9473.0948.9478-.09,0-.0048-.9473.0948.9478-.09c-.0051-.051-.1133-1.2184-.1133-3.0666a47.1437,47.1437,0,0,1,1.0576-10.0223,27.4381,27.4381,0,0,1,4.81-10.92c3.8027-4.8605,9.1394-8.597,16.3008-11.1872C140.36,55.3688,149.3149,53.9973,160,54c9.8975-.0021,18.2979,1.1364,25.1189,3.29,6.83,2.1568,12.0525,5.2913,15.8621,9.3016a24.1462,24.1462,0,0,1,4.5029,7.099,47.0544,47.0544,0,0,1,3.1716,12.0538,53.6094,53.6094,0,0,1,.512,6.75l0,.0751,0,.0139.88.0073-.88-.01v.0023l.88.0073-.88-.01a4,4,0,0,0,4.2146,4.0381l.0176-.0009c.2241-.0116,2.4651-.1217,5.6484-.1216a109.6054,109.6054,0,0,1,11.6912.5744,51.0761,51.0761,0,0,1,5.7458.9354,19.5893,19.5893,0,0,1,4.2263,1.4047c8.8091,4.4057,14.17,8.7328,17.2939,11.8548a29.5656,29.5656,0,0,1,3.1545,3.65c.2952.4133.4875.7179.5947.8968l.1.1719.0066.0121.4143-.2221-.4175.2162.0032.006.4143-.2221-.4175.2162L264.35,114.7l-2.511,1.2558.0178.0354L264.35,114.7l-2.511,1.2558,3.5776-1.7891-3.9458.6575,4.583,27.5L270,141.6665h-1.8357l-2.1631-.093-.0012.093h2.1643l-2.1631-.093,0,.0061a9.7626,9.7626,0,0,1-1.2278,3.632,20.0965,20.0965,0,0,1-4.7014,5.6847c-3.6838,3.197-9.7812,6.7656-19.8711,9.54-10.0825,2.7735-24.1333,4.7319-43.5337,4.73H123.333Zm4.584-94.0273L131.07,77.6a21.5506,21.5506,0,0,1,4.2441-4.1618,25.9281,25.9281,0,0,1,9.4-4.1645A64.6754,64.6754,0,0,1,160,67.75c7.7764,0,13.6018,1.03,18.0627,2.679a26.1184,26.1184,0,0,1,10.2046,6.6179,10.1555,10.1555,0,0,1,1.8953,3.1231,26.9761,26.9761,0,0,1,1.6282,6.7,44.7592,44.7592,0,0,1,.34,5.45c0,.35-.0049.6227-.0093.8014l-.0056.1954-.0015.0409,0,.001,3.9961.1821v-4H123.8867v4l3.9983-.1121-.5562.0156.5562-.0138v-.0018l-.5562.0156.5562-.0138c0-.0208-.0051-.214-.0051-.5453a51.9359,51.9359,0,0,1,.5544-7.4573,28.8689,28.8689,0,0,1,1.0544-4.5962,10.944,10.944,0,0,1,1.58-3.2307L131.07,77.6l-3.1533-2.4607-3.1523-2.4624a18.6643,18.6643,0,0,0-2.8716,5.6447A41.2536,41.2536,0,0,0,120.18,86.97c-.2622,2.6276-.3,4.8134-.3,5.9154,0,.4623.0071.7343.0081.7677a4.0064,4.0064,0,0,0,3.9985,3.8879H196.11a4.0031,4.0031,0,0,0,3.9958-3.8179c.0022-.0519.0244-.5612.0244-1.403a50.4828,50.4828,0,0,0-.8494-9.2658,31.1907,31.1907,0,0,0-1.7222-5.9331,18.0112,18.0112,0,0,0-3.4917-5.5846,34.19,34.19,0,0,0-13.2319-8.6124C175.26,60.866,168.4714,59.75,160,59.75c-8.9685.0036-16.0017,1.0049-21.7659,3.1539a31.2815,31.2815,0,0,0-7.6616,4.091,29.568,29.568,0,0,0-5.8091,5.6834l.0012-.0016Z"/><path  d="M205.833,182.7456h-4v.1709a5.167,5.167,0,0,1-5.166,5.167H123.333a5.167,5.167,0,0,1-5.1663-5.167v-.1992a3.9981,3.9981,0,0,0-3.84-3.9968c-15.7268-.6291-27.3706-2.8978-35.9324-5.85a52.5745,52.5745,0,0,1-14.5532-7.3874c-5.1528-3.8765-7.5339-7.7074-8.7207-10.4962a15.5787,15.5787,0,0,1-1.0027-3.2759c-.0667-.3713-.0962-.6433-.1091-.7971L54,150.7741l-.07.0029.0693-.0015,0-.0014-.07.0029.0693-.0015-1.9595.0416,1.96-.0223,0-.0193-1.9595.0416,1.96-.0223-2.9543.0336L54,150.8091v-.0143l-2.9543.0336L54,150.8091v-.0012l-3.9177.0254L54,150.8268v-.0189l-3.9177.0254L54,150.8268a4,4,0,0,0-8,.0067c0,.003,0,1.07,0,2.97,0,13.3,0,67.2662,0,79.53a47.8831,47.8831,0,0,0,1.7292,13.2017,35.0517,35.0517,0,0,0,9.5281,15.9954,38.2013,38.2013,0,0,0,9.7612,6.6972,49.3217,49.3217,0,0,0,13.4351,4.1735A41.8875,41.8875,0,0,0,86.667,274H233.9238a40.9908,40.9908,0,0,0,6.3049-.6291,49.3813,49.3813,0,0,0,9.8389-2.7214,41.0252,41.0252,0,0,0,8.3733-4.452,34.5427,34.5427,0,0,0,10.9607-12.3491c2.8638-5.4349,4.603-12.2321,4.5981-20.515v-77.917a4,4,0,0,0-8-.0078l2.2412.0043-2.24-.0964-.0015.0921,2.2412.0043-2.24-.0964,0,.0023a9.3834,9.3834,0,0,1-1.0679,3.309,19.0257,19.0257,0,0,1-4.0825,5.2865c-3.1951,3.0011-8.4746,6.4112-17.2427,9.231-8.762,2.8181-20.9946,5.0229-37.9126,5.6025a3.9934,3.9934,0,0,0-3.8625,3.9977h4l.1372,3.9976c16.29-.5606,28.6406-2.5757,38.072-5.3608a64.4141,64.4141,0,0,0,16.6809-7.3029c6.2666-4.02,9.6846-8.4419,11.429-12.0013A16.03,16.03,0,0,0,274,155.4243a4,4,0,1,0-8-.0078c0,.0028,0,1.0039,0,2.7876,0,12.4856,0,63.175,0,75.1294a40.5852,40.5852,0,0,1-1.4011,11.02,27.0986,27.0986,0,0,1-7.2422,12.4125,29.642,29.642,0,0,1-7.585,5.2736,40.1291,40.1291,0,0,1-11.0234,3.4676c-1.5063.25-2.7544.3738-3.605.4344-.425.03-.751.0449-.96.0519-.1045.0035-.18.0051-.2239.0057l-.0422.0005h-.0029l.01,2.4V266h-.01l.01,2.4V266H86.667v2.2769L86.676,266h-.009v2.2769L86.676,266l-.09-.0013a38.3361,38.3361,0,0,1-6.134-.7231,41.7206,41.7206,0,0,1-8.3232-2.5107,32.7488,32.7488,0,0,1-6.5664-3.6951,26.5167,26.5167,0,0,1-8.0867-9.4635A35.3411,35.3411,0,0,1,54,233.3335v-82.5a4,4,0,1,0-8,.0067,18.8136,18.8136,0,0,0,1.2468,5.9719,29.4615,29.4615,0,0,0,5.0554,8.7041c3.918,4.7615,10.2161,9.74,20.0667,13.6508,9.8569,3.9171,23.2649,6.8094,41.6379,7.5471l.16-3.9968h-4v.1992a13.1661,13.1661,0,0,0,13.166,13.1669h73.334a13.1661,13.1661,0,0,0,13.1658-13.1669v-.1709h-4l.1372,3.9976Z"/></svg>