<svg xmlns="http://www.w3.org/2000/svg" viewBox="0 0 320 320">
  <defs>
    <style>
      .cls-1 {
        fill: #1a1a1a;
      }
    </style>
  </defs>
  <title>flat-microphone-filled</title>
  <g id="Layer_16" data-name="Layer 16">
    <g>
      <path  d="M195,78.9561v68.1748c0,21.5146-15.67,38.9561-35,38.9561s-35-17.4414-35-38.9561V78.9561C125,57.4414,140.67,40,160,40S195,57.4414,195,78.9561Zm25,67.4785H210c0,30.7354-22.3857,55.6523-50,55.6523s-50-24.917-50-55.6523H100c0,35.0068,24.2046,63.7031,55,66.5342v55.9H139.0767a20.85,20.85,0,0,0-15.4951,7.1445C122.26,277.4844,123.1963,280,125.0654,280h69.8691c1.8691,0,2.8057-2.5156,1.4839-3.9863a20.85,20.85,0,0,0-15.4951-7.1445H165v-55.9C195.7954,210.1377,220,181.4414,220,146.4346Z"/>
      <path  d="M195,78.9561h-2v68.1748a39.1523,39.1523,0,0,1-9.739,26.2094,30.5473,30.5473,0,0,1-46.522,0A39.1523,39.1523,0,0,1,127,147.1309V78.9561a39.1523,39.1523,0,0,1,9.739-26.2095,30.5473,30.5473,0,0,1,46.522,0A39.1524,39.1524,0,0,1,193,78.9561h4a43.1465,43.1465,0,0,0-10.7634-28.8827,34.5439,34.5439,0,0,0-52.4731,0A43.1465,43.1465,0,0,0,123,78.9561v68.1748a43.1465,43.1465,0,0,0,10.7634,28.8826,34.5439,34.5439,0,0,0,52.4731,0A43.1468,43.1468,0,0,0,197,147.1309V78.9561Zm25,67.4785v-2H208v2A56.7891,56.7891,0,0,1,193.8676,184.45c-8.7195,9.6968-20.6736,15.6346-33.8676,15.6371-13.194-.0023-25.1481-5.94-33.8676-15.6371A56.7888,56.7888,0,0,1,112,146.4346v-2H98v2a72.7836,72.7836,0,0,0,16.414,46.6118c10.1989,12.2675,24.4305,20.4462,40.4029,21.9139L155,212.9688h-2v53.9H139.0767a22.8518,22.8518,0,0,0-16.9828,7.8077,4.4271,4.4271,0,0,0-1.131,2.9706,4.542,4.542,0,0,0,1.0448,2.9119,4.0606,4.0606,0,0,0,1.3093,1.0347,3.9341,3.9341,0,0,0,1.7486.4059h69.8691a3.9348,3.9348,0,0,0,1.7484-.4058,4.15,4.15,0,0,0,1.7632-1.69,4.5942,4.5942,0,0,0,.5908-2.2563,4.4279,4.4279,0,0,0-1.131-2.9709,22.8515,22.8515,0,0,0-16.9825-7.8075H167v-53.9h-2l.183,1.9916c15.9724-1.4678,30.204-9.6465,40.4029-21.9139A72.7837,72.7837,0,0,0,222,146.4346v-2h-2v2h-2a68.7881,68.7881,0,0,1-15.4894,44.0541c-9.6023,11.54-22.8705,19.125-37.6937,20.4884L163,211.144v59.725h17.9233a18.8482,18.8482,0,0,1,14.0074,6.4813.4184.4184,0,0,1,.1063.2972.5711.5711,0,0,1-.1091.3408l-.0211.0215.0009.0011-.0005-.001h0l.0009.0011-.0005-.001.043.0762-.0224-.0844-.0206.0082.043.0762-.0224-.0844.0179.0675-.009-.0693-.0089.0018.0179.0675-.009-.0693h-69.874l-.0089.0767.04-.066L125.0627,278l-.0089.0767.04-.066-.0154-.0148a.5621.5621,0,0,1-.1156-.3483.4179.4179,0,0,1,.1061-.2968,18.8487,18.8487,0,0,1,14.0078-6.4817H157V211.1438l-1.8169-.1667c-14.8231-1.3633-28.0914-8.9482-37.6937-20.4884A68.7878,68.7878,0,0,1,102,146.4346h-2v2h10v-2h-2a60.783,60.783,0,0,0,15.1569,40.6885c9.377,10.4454,22.4228,16.9661,36.8431,16.9637,14.42.0023,27.4661-6.5183,36.8431-16.9637A60.7833,60.7833,0,0,0,212,146.4346h-2v2h10v-2h0Z"/>
    </g>
  </g>
</svg>
