<svg xmlns="http://www.w3.org/2000/svg" viewBox="0 0 320 320"><defs><style>.a{fill:#1a1a1a;}</style></defs><title>flat-no-parking-sign-filled</title><path class="a" d="M160,40A120,120,0,1,0,280,160,120,120,0,0,0,160,40ZM75.7974,216.7646a101.5251,101.5251,0,0,1,149.1733-134.79L81.9766,224.9688A101.7746,101.7746,0,0,1,75.7974,216.7646Zm140.9673,27.438a101.3693,101.3693,0,0,1-121.7354-6.1777L238.0234,95.0308a101.4873,101.4873,0,0,1-21.2588,149.1719Z"/><path class="a" d="M160,40V38A122,122,0,1,0,282,160,122,122,0,0,0,160,38v4A118,118,0,1,1,76.5613,76.5613,117.6217,117.6217,0,0,1,160,42ZM75.7974,216.7646l1.6575-1.1192A99.5251,99.5251,0,0,1,223.69,83.5113l1.2806-1.5362-1.4142-1.4142L80.5623,223.5545l1.4142,1.4142,1.5361-1.2807a99.775,99.775,0,0,1-6.0579-8.0428l-1.6574,1.1194L74.14,217.884a103.7743,103.7743,0,0,0,6.3,8.3654l1.402,1.6817,146.0908-146.09-1.6819-1.4021A103.544,103.544,0,0,0,74.14,217.8838Zm140.9673,27.438-1.1192-1.6575A99.3694,99.3694,0,0,1,96.31,236.4887l-1.2806,1.5362,1.4142,1.4142L239.4376,96.445l-1.4142-1.4142-1.5363,1.2806a99.4872,99.4872,0,0,1-20.842,146.2339l1.12,1.6574,1.1194,1.6573A103.38,103.38,0,0,0,239.56,93.75l-1.4022-1.6821L92.0667,238.159l1.682,1.4021a103.5563,103.5563,0,0,0,124.1351,6.299Z"/></svg>