<svg xmlns="http://www.w3.org/2000/svg" viewBox="0 0 320 320"><defs><style>.a{fill:#1a1a1a;}</style></defs><title>flat-earth</title><path  d="M178.1816,114.5454l-3.5779-1.7887q-4.3892,8.7794-8.7787,17.558l.0016-.0032a4.3711,4.3711,0,0,0-.4594,1.9637,5.0315,5.0315,0,0,0,.34,1.7889,9,9,0,0,0,1.0026,1.8609,26.7463,26.7463,0,0,0,2.29,2.841,45.0968,45.0968,0,0,0,4.2209,4.0849,20.1539,20.1539,0,0,0,2.1271,1.5864,8.8253,8.8253,0,0,0,1.2162.6515,5.9138,5.9138,0,0,0,.8285.2881,4.8413,4.8413,0,0,0,1.241.1649,4.3784,4.3784,0,0,0,1.9489-.4518l.0116-.0058q4.9887-2.494,9.9771-4.9885c.0143-.0083.191-.0888.429-.1843.4236-.1721,1.0549-.4094,1.7567-.68,1.06-.41,2.2773-.8892,3.4489-1.4774a13.1855,13.1855,0,0,0,1.7677-1.0489,7.6164,7.6164,0,0,0,.9235-.776,5.63,5.63,0,0,0,.9648-1.2615,10.9826,10.9826,0,0,0,1.1686-3.6553,24.1347,24.1347,0,0,0,.2473-3.6749c-.002-2.4782-.2472-5.05-.4766-7.3584-.1154-1.1513-.228-2.2327-.3091-3.1719-.0818-.936-.129-1.7394-.1279-2.2619h-4l-2.8285,2.8284,18.0029,18.0029a5.05,5.05,0,0,0,1.3934.9806,6.1452,6.1452,0,0,0,1.7545.5236,9.3539,9.3539,0,0,0,1.3927.0958,27.8964,27.8964,0,0,0,3.31-.2768,22.0979,22.0979,0,0,1,2.3229-.2164l.1628.0042.0326.0025.0052.0005.177-1.343-.4285,1.279a1.4,1.4,0,0,0,.2515.064l.177-1.343-.4285,1.279.8158-2.4357-1.3424,2.1863a2.5689,2.5689,0,0,0,.5266.2495l.8158-2.4357-1.3424,2.1863,1.645-2.6791-2.724,1.5543a3.1715,3.1715,0,0,0,1.079,1.1248l1.645-2.6791-2.724,1.5543,2.7062-1.5442h-3.125a3.16,3.16,0,0,0,.4188,1.5441l2.7062-1.5442h-3.125q0,8.31,0,16.62h3.4879l-3.0862-1.6373a3.5085,3.5085,0,0,0-.4017,1.6373h3.4879l-3.0862-1.6373,2.621,1.39-2.1169-2.0869a2.9532,2.9532,0,0,0-.504.6965l2.621,1.39-2.1169-2.0869,1.2723,1.2544-1.05-1.45a1.7921,1.7921,0,0,0-.222.1955l1.2723,1.2544-1.05-1.45.34.4695-.3259-.4794-.014.01.34.4695-.3259-.4794.0129.0191-.0125-.02,0,0,.0129.0191-.0125-.02a3.62,3.62,0,0,1-.3864.1985,19.1635,19.1635,0,0,1-1.9719.7376c-1.49.4851-3.4465,1.0112-5.5388,1.5176-3.1433.7618-6.6051,1.4877-9.4808,2.0719-1.4388.2924-2.7317.55-3.7781.7614-.5237.106-.9855.2006-1.38.2842-.3973.0845-.7166.1545-1.0118.228-.825.2091-1.6088.4832-2.47.7856-1.2758.4521-2.6733.9679-3.9268,1.3489-.6237.19-1.2083.3456-1.6868.4434a5.4214,5.4214,0,0,1-.9847.1317l-.0419-.0009-.0046,0-.0851.9236.2279-.8962a.971.971,0,0,0-.1428-.0274l-.0851.9236.2279-.8962-.2186.8575.3734-.8069a.9516.9516,0,0,0-.1554-.0507l-.218.8576.3734-.8069a2.4445,2.4445,0,0,1-.3562-.2351,13.098,13.098,0,0,1-1.5215-1.42c-.8953-.9465-1.8842-2.1462-2.8182-3.2922-.4687-.5743-.9259-1.1366-1.37-1.6634-.4473-.5284-.8729-1.0165-1.3378-1.4827a4,4,0,0,0-5.6565,0L157.35,166.0837l.0015-.0014a4.48,4.48,0,0,0-1.1281,1.9143,5.0632,5.0632,0,0,0-.1991,1.434,7.1758,7.1758,0,0,0,.209,1.65,16.96,16.96,0,0,0,.8911,2.6065c.6531,1.5523,1.5294,3.285,2.525,5.107,1.4922,2.7264,3.245,5.6206,4.8364,8.0636.7966,1.2222,1.5508,2.3286,2.2268,3.2593.3389.4661.6577.8882.9644,1.27a13.264,13.264,0,0,0,.9424,1.0707,51.8649,51.8649,0,0,1,7.9567,10.2765c2.188,3.6321,4.137,7.6329,6.4451,12.2528a1.5943,1.5943,0,0,1,.135.4246,4.2879,4.2879,0,0,1,.0614.79,19.9948,19.9948,0,0,1-.1578,2.0641,26.71,26.71,0,0,0-.2043,2.9026,10.47,10.47,0,0,0,.709,3.9665l-.0006-.0016a12.52,12.52,0,0,0,2.3363,3.5682,40.4071,40.4071,0,0,0,4.2922,3.9812c.7025.584,1.3711,1.13,1.9506,1.6211.5785.4888,1.07.9273,1.3922,1.2509a4,4,0,0,0,6.4061-1.04q13.48-26.96,26.9609-53.9218a11.9433,11.9433,0,0,0,1.0665-3.5247,22.6872,22.6872,0,0,0,.2352-3.4473c-.0012-1.871-.1565-3.7131-.299-5.3659-.1451-1.6431-.2726-3.119-.269-4.0394a7.3151,7.3151,0,0,1,.1066-1.4557l.0189-.076.004-.0135-.1859-.0605.1808.0735.0051-.013-.1859-.0605.1808.0735-1.3223-.5375,1.0559.941a1.4917,1.4917,0,0,0,.2664-.4034l-1.3223-.5375,1.0559.941-1.4948-1.332,1.0457,1.7071a2.032,2.032,0,0,0,.4491-.3751l-1.4948-1.332,1.0457,1.7071-.75-1.2239.2809,1.4229a1.5225,1.5225,0,0,0,.4689-.199l-.75-1.2239.2809,1.4229-.0479-.2423.04.2438.0079-.0015-.0479-.2423.04.2438a2.1344,2.1344,0,0,1,.29-.0131c.4116-.0039,1.1975.0662,2.2024.1588,1.0088.09,2.2479.19,3.6661.1906,1.4684,0,2.7528-.0358,3.8789-.0353a20.7164,20.7164,0,0,1,3.6072.2407,11.48,11.48,0,0,1,3.2455,1.0871,64.4082,64.4082,0,0,1,5.9806,3.4879,72.0379,72.0379,0,0,0,6.6885,3.8881,4,4,0,0,0,5.7887-3.5778,37.6493,37.6493,0,0,1,.9637-6.6607,46.4742,46.4742,0,0,0,1.1136-8.9741,23.0253,23.0253,0,0,0-.316-3.8826v-.0007a55.4029,55.4029,0,0,0-4.68-13.8487c-1.9778-4.2748-4.0892-8.3052-5.6692-12.2647-1.11-2.7647-2.15-6.2468-3.3807-9.7981a46.2326,46.2326,0,0,0-4.8009-10.4254,55.4818,55.4818,0,0,0-8.8521-9.7559c-3.2052-2.9276-6.4408-5.6423-8.9822-8.1882a48.7874,48.7874,0,0,0-8.71-6.61c-3.0112-1.8808-5.9934-3.5647-8.4915-5.233q-5.3564-3.5715-10.7126-7.142l-.0009-.0005a5.6977,5.6977,0,0,0-1.6624-.755,6.0907,6.0907,0,0,0-1.6036-.2105,8.1146,8.1146,0,0,0-2.9678.6144,19.12,19.12,0,0,0-3.02,1.5883c-.4108.255-.7777.49-1.0758.6736-.2948.1833-.53.3164-.6041.3521q-5.7231,2.8619-11.4475,5.724a4.3856,4.3856,0,0,0-1.312,1.0075,5.178,5.178,0,0,0-.9026,1.4472,9.5927,9.5927,0,0,0-.5443,1.83,24.0726,24.0726,0,0,0-.3765,2.7562c-.08.9546-.1223,1.9313-.1226,2.8631a20.3021,20.3021,0,0,0,.1345,2.5048,8.53,8.53,0,0,0,.2587,1.2979,5.4991,5.4991,0,0,0,.3234.8536,4.4991,4.4991,0,0,0,.8793,1.25l-.0012-.0012a4.6771,4.6771,0,0,0,1.1062.8164,5.9424,5.9424,0,0,0,1.3962.5242,10.6646,10.6646,0,0,0,1.6711.2582c.5441.0449,1.0969.0629,1.6652.0631a31.1488,31.1488,0,0,0,4.7412-.3758,16.72,16.72,0,0,0,2.2118-.4931,8.3248,8.3248,0,0,0,1.145-.4381,5.26,5.26,0,0,0,1.4845-1.0279l.0006-.0005,8.4175-8.4175-2.8284-2.8284h-4l-.002.0632c-.0057.1667-.0343.5525-.0758,1.0171-.062.7043-.1508,1.6152-.2252,2.5791-.0741.9675-.136,1.9852-.1366,2.9829a13.8215,13.8215,0,0,0,.1473,2.1794,6.9112,6.9112,0,0,0,.3322,1.2989,4.9077,4.9077,0,0,0,1.1323,1.8l-.0012-.0012a4.9071,4.9071,0,0,0,1.7994,1.132,7.594,7.594,0,0,0,1.8639.4063,15.8571,15.8571,0,0,0,1.614.0733c1.4139-.0018,2.8894-.1237,4.1635-.2354.6332-.0563,1.2112-.1111,1.667-.15.2272-.0192.4238-.0342.5712-.0433l.1774-.0093.0635-.0018v-4l-2.8285-2.8284q-4.2083,4.2082-8.4177,8.4177l0,0,.9658.9659-.5939-1.2433a1.4165,1.4165,0,0,0-.3719.2773l.9658.9659-.5939-1.2433.175.3665-.1567-.3748-.0183.0083.175.3665-.1567-.3748.0011.0026-.001-.0028h0l.0011.0026-.001-.0028a2.4428,2.4428,0,0,1-.4744.0943,8.9564,8.9564,0,0,1-1.0809.0558c-.8231.0011-1.8219-.0758-2.8081-.1652-.4949-.0443-.9888-.0909-1.4774-.1287-.4906-.0373-.97-.0677-1.4854-.0685-.1626.0007-.48-.0141-.87-.0448-.59-.0451-1.35-.1219-2.1862-.19-.8386-.0675-1.7557-.1273-2.715-.1277a14.4726,14.4726,0,0,0-3.207.3149,8.5171,8.5171,0,0,0-1.7784.6082,6.6123,6.6123,0,0,0-1.8365,1.2847l0-.0005q-4.2087,4.2087-8.4172,8.4172a4,4,0,0,0,0,5.6571l9.0908,9.0908,2.8285-2.8284-3.5779-1.7887,3.5779,1.7887,2.8284-2.8284-9.0908-9.0908-2.8284,2.8284,2.8281,2.8287q4.21-4.209,8.4177-8.4177l0-.0005-.9672-.9668.5947,1.2447a1.4176,1.4176,0,0,0,.3724-.2779l-.9672-.9668.5947,1.2447-.1772-.3709.1588.3792.0184-.0083-.1772-.3709.1588.3792-.0023-.0053.0021.0054,0,0-.0023-.0053.0021.0054a2.4415,2.4415,0,0,1,.4741-.0943,8.9592,8.9592,0,0,1,1.0812-.0558c.823-.0011,1.8219.0758,2.8082.1652.495.0443.9889.0909,1.4777.1287.4907.0372.9707.0677,1.4857.0685.1622-.0007.48.0141.87.0448.5895.0451,1.35.1219,2.1859.19.8386.0675,1.7557.1273,2.715.1277a14.4743,14.4743,0,0,0,3.2069-.3149,8.5218,8.5218,0,0,0,1.7782-.6081,6.6156,6.6156,0,0,0,1.8364-1.2841l0,0q4.2079-4.2087,8.4172-8.4172a4,4,0,0,0-2.8284-6.8284c-.5223.0029-.9523.04-1.4845.0828-.7794.066-1.6952.1569-2.6179.23-.918.0738-1.8444.1273-2.54.1264a6.63,6.63,0,0,1-.9015-.0448l-.0111-.0019-.3053,1.5315.5912-1.4379a1.5916,1.5916,0,0,0-.2859-.0936l-.3053,1.5315.5912-1.4379-1.1818,2.8739,2.189-2.1882a3.073,3.073,0,0,0-1.0072-.6857l-1.1818,2.8739,2.189-2.1882-.0012-.0012-2.1406,2.1417L199.908,85.53a2.999,2.999,0,0,0-.7166-1.0862l-2.1406,2.1417L199.908,85.53l-1.29.4767,1.353-.27a1.4123,1.4123,0,0,0-.0627-.207l-1.29.4767,1.353-.27-.01-.067a7.5471,7.5471,0,0,1-.037-.846c-.0018-.9319.0961-2.256.2041-3.4558.0536-.6037.1086-1.1813.1527-1.7021.0428-.5322.08-.962.0828-1.4843a4,4,0,0,0-6.8284-2.8284l-8.4175,8.4175.0006-.0005,1.8766,1.8773-1.1508-2.4116a2.5974,2.5974,0,0,0-.7258.5343l1.8766,1.8773-1.1508-2.4116.2836.5943-.2373-.6151-.0463.0208.2836.5943-.2373-.6151a4.7267,4.7267,0,0,1-.5911.1558,17.9548,17.9548,0,0,1-1.94.2826c-.7356.0712-1.5089.11-2.1681.11a9.7737,9.7737,0,0,1-1.326-.0717l-.0908-.0159-.3094,1.3795.5449-1.2975a1.4307,1.4307,0,0,0-.2355-.082l-.3094,1.3795.5449-1.2975-1.2219,2.9093,2.2222-2.2217a3.0948,3.0948,0,0,0-1-.6876l-1.2219,2.9093,2.2222-2.2217-.0012-.0012-2.4376,2.4391,3.113-1.4969a3.4038,3.4038,0,0,0-.6754-.9422l-2.4376,2.4391,3.113-1.4969-1.7745.8533,1.94-.4094a1.937,1.937,0,0,0-.1655-.4439l-1.7745.8533,1.94-.4094a4.8173,4.8173,0,0,1-.0582-.5264c-.0212-.3-.0339-.6858-.0338-1.1069a25.2149,25.2149,0,0,1,.2361-3.4378,6.9382,6.9382,0,0,1,.1835-.916l.0023-.0069-1.5955-.54,1.438.8576a1.6735,1.6735,0,0,0,.1575-.3171l-1.5955-.54,1.438.8576-2.6946-1.6071,2.3,2.1306a3.1127,3.1127,0,0,0,.3948-.5235l-2.6946-1.6071,2.3,2.1306-2.6442-2.45,1.6111,3.2207a3.59,3.59,0,0,0,1.0331-.7712l-2.6442-2.45,1.6111,3.2207q5.7228-2.8618,11.4473-5.7239c.6169-.3119,1.106-.6238,1.6014-.9325.7283-.46,1.442-.9089,1.9886-1.1823a4.411,4.411,0,0,1,.6035-.2613l.06-.0176.0115-.0028-.1761-.8751V73.34a.9487.9487,0,0,0,.176-.013l-.1761-.8751v-1.017l-.5,1.8341a1.9166,1.9166,0,0,0,.5.0709V71.4351l-.5,1.8341.6051-2.2207L194.96,72.9628a2.3225,2.3225,0,0,0,.6707.3064l.6051-2.2207L194.96,72.9628l-.0009-.0005q5.3568,3.5716,10.7129,7.1421c2.8523,1.8987,5.8818,3.6023,8.687,5.3594a41.2551,41.2551,0,0,1,7.2959,5.4847c2.9078,2.9033,6.2067,5.6569,9.24,8.4348a48.1071,48.1071,0,0,1,7.5948,8.29,38.9189,38.9189,0,0,1,3.9,8.6128c1.1592,3.3281,2.2067,6.8761,3.51,10.1441,1.7936,4.4745,3.9773,8.6182,5.8339,12.6474A47.7469,47.7469,0,0,1,255.792,150.92V150.92a15.0523,15.0523,0,0,1,.202,2.5363,39.2751,39.2751,0,0,1-.9637,7.4321,43.6961,43.6961,0,0,0-1.1136,8.2027h4l1.7887-3.5778a64.4078,64.4078,0,0,1-5.98-3.4879,72.0344,72.0344,0,0,0-6.6885-3.8881,19.5471,19.5471,0,0,0-5.44-1.8112,28.434,28.434,0,0,0-4.99-.3612c-1.2832,0-2.5454.0356-3.8789.0353-1.0405,0-2.0074-.074-2.9543-.1588-.9506-.0821-1.87-.1867-2.9142-.1906a8.4907,8.4907,0,0,0-2.651.3754,6.1434,6.1434,0,0,0-2.2555,1.3034,6.2262,6.2262,0,0,0-1.25,1.6,8.2141,8.2141,0,0,0-.8655,2.5879,15.9921,15.9921,0,0,0-.2,2.6991c.0035,1.52.16,3.1037.299,4.7314.1416,1.618.27,3.2583.269,4.6739a14.8958,14.8958,0,0,1-.1412,2.2238,4.2121,4.2121,0,0,1-.3162,1.1708q-13.4808,26.9607-26.9608,53.9216l3.5778,1.7889,2.8284-2.8284c-.7889-.7861-1.65-1.5113-2.543-2.2553-1.3334-1.106-2.734-2.2409-3.82-3.2823a14.5581,14.5581,0,0,1-1.3213-1.4133,3.7713,3.7713,0,0,1-.5259-.8094l-.0006-.0016a2.6545,2.6545,0,0,1-.1257-.9676,19.9264,19.9264,0,0,1,.1578-2.04,26.8691,26.8691,0,0,0,.2043-2.927,12.1905,12.1905,0,0,0-.2019-2.2836,9.5893,9.5893,0,0,0-.839-2.5089c-2.2837-4.5642-4.3076-8.7452-6.746-12.8a59.9428,59.9428,0,0,0-9.1547-11.8086c-.0087-.0075-.1152-.1215-.2555-.2926-.2688-.3249-.6711-.8563-1.1315-1.5058-1.6256-2.2875-3.993-6.04-5.8765-9.424-.9429-1.6905-1.771-3.3029-2.3209-4.5463a15.5773,15.5773,0,0,1-.5869-1.49c-.0546-.17-.0847-.293-.0925-.3327l-.0023-.012-1.4031.2327h1.4175a1.4729,1.4729,0,0,0-.0144-.2327l-1.4031.2327h-1.49l2.7839.8158a2.88,2.88,0,0,0,.1237-.8158h-2.9076l2.7839.8158-3.3782-.99,2.483,2.4856a3.528,3.528,0,0,0,.8951-1.4956l-3.3782-.99,2.483,2.4856.0015-.0014L181.01,153.7376l-2.8284-2.8284-2.8281,2.8288c.1494.1485.3926.4144.6765.7456.5007.5823,1.1335,1.3662,1.8289,2.2162,1.0494,1.2793,2.2316,2.7059,3.5181,3.9869a17.6243,17.6243,0,0,0,2.0872,1.8043,8.4187,8.4187,0,0,0,2.8234,1.3858,7.5863,7.5863,0,0,0,1.8751.22,14.4806,14.4806,0,0,0,3.41-.48c1.6113-.399,3.1863-.9519,4.5664-1.4418.6871-.2448,1.3212-.4742,1.8535-.6569.5284-.1826.9685-.3185,1.1782-.3695.0991-.0251.3329-.0784.6354-.1428,1.1536-.2467,3.3274-.6714,5.8837-1.194,3.8478-.7878,8.5845-1.7989,12.4933-2.8736a41.6819,41.6819,0,0,0,5.179-1.7174,10.7457,10.7457,0,0,0,2.1709-1.1992,5.642,5.642,0,0,0,1.2106-1.204,4.7242,4.7242,0,0,0,.6-1.1033,4.4728,4.4728,0,0,0,.2928-1.5867v-16.62a4.9657,4.9657,0,0,0-.1964-1.3913,4.8,4.8,0,0,0-1.38-2.2035,5.0943,5.0943,0,0,0-1.3427-.8717,6.22,6.22,0,0,0-1.67-.47,9.38,9.38,0,0,0-1.3356-.088,27.8629,27.8629,0,0,0-3.3043.2768,22.0919,22.0919,0,0,1-2.3282.2164c-.0995,0-.17-.0039-.1967-.0065l-.0109-.0011-.1985,1.4857.5341-1.3905a1.5382,1.5382,0,0,0-.3356-.0952l-.1985,1.4857.5341-1.3905-1.0251,2.669,2.0135-2.0132a2.8622,2.8622,0,0,0-.9884-.6558l-1.0251,2.669,2.0135-2.0132L199.1921,111.717a4,4,0,0,0-6.8284,2.8284c.0011.9337.0681,1.9053.1576,2.9509.1354,1.5621.3279,3.2753.4834,4.9842.1563,1.7053.2734,3.4057.2726,4.8571a16.4331,16.4331,0,0,1-.1522,2.4445,3.7052,3.7052,0,0,1-.2589,1.004l1.7268.9585-1.274-1.5467a1.998,1.998,0,0,0-.4529.5885l1.7269.9582-1.274-1.5467.0157.0192-.0153-.02,0,0,.0157.0192-.0153-.02a6.0369,6.0369,0,0,1-.8866.4978c-.7467.3641-1.7759.7744-2.7421,1.1441-.4855.1865-.9578.365-1.4.5394-.4476.1783-.8439.3368-1.2977.5613q-4.9893,2.495-9.9768,4.9884l.0116-.0058,1.6052,3.237v-3.618a3.62,3.62,0,0,0-1.6052.381l1.6052,3.237v-.7287l1.02-2.72a2.8367,2.8367,0,0,0-1.02-.1694v2.8894l1.02-2.72-.437,1.1649.5378-1.1229-.1008-.042-.437,1.1649.5378-1.1229-.12.25.1243-.2483-.0043-.0021-.12.25.1243-.2483a4.8038,4.8038,0,0,1-.515-.3388,23.19,23.19,0,0,1-1.9978-1.6818,36.5754,36.5754,0,0,1-3.1576-3.3067,11.61,11.61,0,0,1-.8666-1.1612l-.0641-.11-.0034-.0065-1.329.6572,1.4105-.4425a1.52,1.52,0,0,0-.0815-.2147l-1.329.6572,1.4105-.4425-2.9005.91h3.032a2.9976,2.9976,0,0,0-.1315-.91l-2.9005.91h-.59l3.2335,1.62a3.6191,3.6191,0,0,0,.3883-1.62h-3.6218l3.2335,1.62.0016-.0032q4.3894-8.7788,8.7789-17.5582a3.9893,3.9893,0,0,0-.7494-4.6172Z"/><path  d="M150.9092,87.2729h-4q0,4.5454,0,9.0908a4,4,0,0,0,6.8286,2.8282q4.2079-4.2087,8.4172-8.4172a6.6531,6.6531,0,0,0,1.2782-1.8167,9.09,9.09,0,0,0,.774-2.6076,15.7661,15.7661,0,0,0,.16-2.3561c-.0012-1.2741-.1072-2.4785-.2-3.5163-.0958-1.0251-.172-1.9175-.1675-2.2964a4,4,0,0,0-6.8284-2.8284q-4.5454,4.5454-9.0911,9.0915a4.0255,4.0255,0,0,0-1.1713,2.8282h4l2.8286,2.8282q4.5452-4.5459,9.0906-9.0911L160,78.1816h-4c.0045,1.0394.1121,2.0115.2,3.0171.0909.9931.1687,1.9858.1675,2.7955a6.58,6.58,0,0,1-.1115,1.3794l-.0306.1121-.0038.0106.5919.23-.5377-.3314-.0542.1017.5919.23-.5377-.3314,1.3005.8014-1.0782-1.0782a1.54,1.54,0,0,0-.2223.2768l1.3005.8014-1.0782-1.0782q-4.2081,4.2081-8.4176,8.4177l2.8287,2.8282h4V87.2729h-4l2.8286,2.8282Z"/><path  d="M96.3638,87.2729l-1.7889,3.5777q6.0353,3.0177,12.0712,6.0356a25.3168,25.3168,0,0,0,2.4109,1.03c.5137.1937.9482.3532,1.2577.48a4.8752,4.8752,0,0,1,.4546.2063l.025.0141.0045.0027.9-1.4092-1.3745.8983a1.7608,1.7608,0,0,0,.4749.5109l.9-1.4092-1.3745.8983L112.35,96.785l-2.3236.676a2.4426,2.4426,0,0,0,.2975.6481L112.35,96.785l-2.3236.676,2.1244-.6181h-2.2158a2.2373,2.2373,0,0,0,.0914.6181l2.1244-.6181h-.6631L109.9524,96.6a1.5757,1.5757,0,0,0-.0175.2432h1.5527L109.9524,96.6l.6957.11-.6823-.178-.0134.0678.6957.11-.6823-.178-.0039.0124a2.6169,2.6169,0,0,1-.1423.326l.0006-.0011q-3.6352,7.27-7.27,14.5405l1.3234.6615-.9281-1.1527a1.5317,1.5317,0,0,0-.3951.491l1.3232.6618-.9281-1.1527.5857.7275-.3767-.8609a.9771.9771,0,0,0-.209.1335l.5857.7275-.3767-.8609.0791.1808-.0715-.184-.0076.0032.0791.1808-.0715-.184-.0753.0215a4.8948,4.8948,0,0,1-1.0657.0885c-.6588.0014-1.4993-.0687-2.38-.1549-.8905-.0828-1.8008-.1876-2.8154-.1917a9.8567,9.8567,0,0,0-1.9752.2175,21.41,21.41,0,0,0-3.4941,1.096c-2.08.824-4.3347,1.93-6.6749,3.1317-3.4993,1.8-7.1787,3.8213-10.3076,5.3447-1.5592.7607-2.9823,1.3947-4.1006,1.8023a12.83,12.83,0,0,1-1.3878.4336c-.175.0418-.3171.0678-.4142.0813l-.1091.0123-.0281.0017v3.3727l1.3772-3.0723a3.3809,3.3809,0,0,0-1.3772-.3v3.3727l1.3772-3.0723-1.4517,3.2383,2.5654-2.4515a3.5682,3.5682,0,0,0-1.1138-.7868l-1.4517,3.2383,2.5654-2.4515L68.3591,126.11l3.2814-.9534a3.4269,3.4269,0,0,0-.816-1.4024L68.3591,126.11l3.2814-.9534-2.63.7641h2.7455a2.7289,2.7289,0,0,0-.1157-.7641l-2.63.7641H70.39l1.3562.1864a1.4021,1.4021,0,0,0,.01-.1864H70.39l1.3562.1864-.163-.0224.1624.0265.0006-.0041-.163-.0224.1624.0265a7.12,7.12,0,0,1,.3719-1.1269,47.3357,47.3357,0,0,1,2.123-4.41c1.3729-2.5831,3.0592-5.4794,4.4878-7.9237.7152-1.2243,1.3661-2.3357,1.8942-3.2647.2645-.4655.4982-.8846.7008-1.2645.2045-.3865.3715-.7081.5432-1.11a5.0379,5.0379,0,0,1,.833-1.1415,32.3764,32.3764,0,0,1,3.207-2.9524c.6207-.5193,1.2521-1.0377,1.86-1.554.6088-.5183,1.1913-1.0286,1.7423-1.5784q4.8422-4.8414,9.6833-9.6829l-2.8281-2.8286-1.7889,3.5777,1.7889-3.5777-2.8282-2.8286q-4.8426,4.8417-9.6836,9.6831c-.3794.3822-1.048.9626-1.8282,1.6123-1.1765.9847-2.6106,2.1414-3.9622,3.4339a21.9542,21.9542,0,0,0-1.9476,2.096,11.2461,11.2461,0,0,0-1.6173,2.629l.0945.04-.0936-.0414-.0007.0015.0944.04-.0936-.0414c-.0081.02-.0792.1688-.1847.3681-.2.3807-.5253.9612-.9233,1.6533-1.4021,2.4407-3.7,6.27-5.6718,9.8946-.9885,1.8193-1.8981,3.5856-2.6044,5.19a23.2615,23.2615,0,0,0-.899,2.334,11.4136,11.4136,0,0,0-.3093,1.1836,7.1112,7.1112,0,0,0-.1486,1.4,5.2941,5.2941,0,0,0,.151,1.279,4.6967,4.6967,0,0,0,.4911,1.2241,4.4911,4.4911,0,0,0,1.7865,1.7205,4.6075,4.6075,0,0,0,2.1486.5227,9.857,9.857,0,0,0,1.9751-.2175,21.4109,21.4109,0,0,0,3.4941-1.096c2.08-.824,4.3347-1.93,6.6749-3.1317,3.4993-1.8,7.1787-3.8213,10.3076-5.3447,1.5592-.7607,2.9823-1.3947,4.1006-1.8023a12.8305,12.8305,0,0,1,1.3878-.4337c.175-.0418.3171-.0678.4142-.0813l.1091-.0123.0282-.0017c.3627-.0041,1.14.0644,2.0482.1549.9175.0871,1.9862.19,3.1476.1917a11.3948,11.3948,0,0,0,3.8123-.5691,7.2294,7.2294,0,0,0,2.13-1.1731,6.5093,6.5093,0,0,0,1.7427-2.162q3.6352-7.2705,7.27-14.5408l.0006-.0011a10.0764,10.0764,0,0,0,.6688-1.6711,6.8785,6.8785,0,0,0,.29-1.9319,5.7231,5.7231,0,0,0-.4194-2.1686,5.664,5.664,0,0,0-.9818-1.5835,6.9674,6.9674,0,0,0-1.9694-1.53,19.2915,19.2915,0,0,0-2.4045-1.0243,19.9385,19.9385,0,0,1-1.9359-.8056q-6.0359-3.0183-12.0712-6.0356a3.9889,3.9889,0,0,0-4.6171.7491Z"/><path  d="M115.4814,230.4326l3.5776-1.7889q-3.635-7.27-7.27-14.5405l-.9609.48,1.059-.2126a1.1142,1.1142,0,0,0-.0983-.2678l-.9607.48,1.059-.2126-.285.0572.2878-.0413-.0028-.0159-.285.0572.2878-.0413-.0037-.0877a6.7385,6.7385,0,0,1,.38-1.8192,40.33,40.33,0,0,1,2.766-6.129c1.8812-3.5565,4.2732-7.5235,6.25-11.1637a56.8082,56.8082,0,0,0,2.5659-5.2339,20.6771,20.6771,0,0,0,.8627-2.4805,10.25,10.25,0,0,0,.39-2.657v-16.3a4.0666,4.0666,0,0,0-.6992-2.2747,4.4821,4.4821,0,0,0-.5417-.6586,7.9919,7.9919,0,0,0-.5966-.54c-.3436-.2849-.7285-.58-1.1858-.9239-1.5809-1.1853-4-2.8985-6.03-4.3723-1.0093-.7325-1.9215-1.4064-2.5239-1.8764-.2969-.2306-.5244-.42-.5848-.4761l-.002.0021.0017-.0017,0,0-.002.0021.0017-.0017-1.8879,1.9249,2.1385-1.6365a2.5842,2.5842,0,0,0-.2506-.2884l-1.8879,1.9249,2.1385-1.6365-2.9194,2.2342,3.2737-1.67a3.6147,3.6147,0,0,0-.3542-.5638l-2.9194,2.2342,3.2737-1.67-3.4548,1.7628,3.7085-1.1353a3.8576,3.8576,0,0,0-.2537-.6275l-3.4548,1.7628,3.7085-1.1353-3.7721,1.1547h3.9445a3.9225,3.9225,0,0,0-.1724-1.1547l-3.7721,1.1547h-.0262l3.6971,1.4479a3.9726,3.9726,0,0,0,.2736-1.4479h-3.9707l3.6971,1.4479-3.7036-1.45,3.0214,2.5869a3.99,3.99,0,0,0,.6823-1.1365l-3.7036-1.45,3.0214,2.5869-3.017-2.5832,1.6273,3.6233a3.9823,3.9823,0,0,0,1.39-1.04l-3.017-2.5832,1.6273,3.6233-1.6165-3.5989.54,3.9084a3.9261,3.9261,0,0,0,1.0764-.31l-1.6165-3.5989.54,3.9084a4,4,0,1,0-1.113-7.9222,6.7227,6.7227,0,0,0-3.2518,1.43,9.2069,9.2069,0,0,0-1.6963,1.8189,25.2069,25.2069,0,0,0-1.7687,3.0022c-.3647.6912-.7052,1.3268-1.0349,1.8577a5.6405,5.6405,0,0,1-1.2952,1.5715,1.6778,1.6778,0,0,1-.4745.2538,2.13,2.13,0,0,1-.6935.099,5.57,5.57,0,0,1-1.5209-.251,14.3016,14.3016,0,0,1-2.5377-1.0474l-1.8274,3.5582,3.715,1.4827a4.5382,4.5382,0,0,0,.3212-1.6817,4.9559,4.9559,0,0,0-.4236-1.9805,6.4615,6.4615,0,0,0-.63-1.1175,11.0588,11.0588,0,0,0-1.2428-1.46,31.1176,31.1176,0,0,0-2.416-2.1378c-1.256-1.02-2.558-2.0013-3.4635-2.737-.4468-.36-.8005-.6723-.9122-.7868l-.0269-.0275-.02.0191.0208-.0184,0-.0007-.02.0191.0208-.0184-1.6177,1.4408,1.8531-1.1086a2.1279,2.1279,0,0,0-.2355-.3322l-1.6177,1.4408,1.8531-1.1086-2.879,1.7223,3.1554-1.1347a3.3144,3.3144,0,0,0-.2764-.5875l-2.879,1.7223,3.1554-1.1347-3.5011,1.259h3.7183a3.6975,3.6975,0,0,0-.2172-1.2591l-3.5011,1.259h-.1381l3.4178,1.7836a3.8749,3.8749,0,0,0,.4385-1.7836H85.1283l3.4178,1.7836.0314-.0616c2.2657-4.531,6.068-12.136,8.3335-16.6665l.0006-.001A6.9751,6.9751,0,0,0,97.6937,142a5.9334,5.9334,0,0,0-.443-2.2553,6.2316,6.2316,0,0,0-1.03-1.6763,8.3224,8.3224,0,0,0-2.3016-1.8314,22.7879,22.7879,0,0,0-3.8885-1.5972c-.9381-.3122-1.8431-.6-2.6371-.8905a15.81,15.81,0,0,1-1.5447-.6423,3.609,3.609,0,0,1-1.0192-.659l-.0073-.0087-.38.2836.4438-.1518-.0638-.1318-.38.2836.4438-.1518-.4568.1563h.4883l-.0315-.1563-.4568.1563h.4883a4,4,0,0,0-4-4c-.1074.0011-.4038-.0132-.7766-.0454-.5652-.0471-1.3174-.128-2.1462-.2-.8319-.0711-1.7433-.1344-2.696-.135a12.0275,12.0275,0,0,0-3.6978.4935,6.62,6.62,0,0,0-2.1669,1.1585,5.5775,5.5775,0,0,0-1.7639,2.5484l0-.0014q-2.2288,6.6858-4.4569,13.37l0,.0009c-.0214.0646-.1326.39-.2874.8513-.5488,1.6367-1.7268,5.2151-2.7842,9.0473-.5288,1.9188-1.0284,3.9-1.4066,5.7717-.1891.9368-.348,1.8463-.4633,2.7222a19.86,19.86,0,0,0-.1892,2.5576,10.4277,10.4277,0,0,0,.1,1.5008,7.0661,7.0661,0,0,0,.2958,1.2575,5.6464,5.6464,0,0,0,.4987,1.0871,4.917,4.917,0,0,0,1.6458,1.6782,4.8018,4.8018,0,0,0,2.5033.7c.9661-.0034,2.1111.1254,3.4126.2266l.2988-3.9888-3.2966-2.2656a10.9777,10.9777,0,0,0-.9491,1.7235,29.387,29.387,0,0,0-1.0481,2.8188c-.2194.6668-.4219,1.2964-.6136,1.8347-.1429.403-.28.7544-.3988,1.0169a4.1,4.1,0,0,1-.2113.4176l-.0339.0533-.0022.0031,1.2118.9011-.8-1.2541a1.5758,1.5758,0,0,0-.4121.3529l1.2118.9011-.8-1.2541,1.3413,2.1039-.7335-2.3826a2.5079,2.5079,0,0,0-.6078.2787l1.3413,2.1039-.7335-2.3826.7794,2.5313v-2.6488a2.6668,2.6668,0,0,0-.7794.1175l.7794,2.5313v-2.6488a4,4,0,0,0-3.5779,5.7886c.6344,1.2674,1.2913,2.8026,1.9779,4.4621,1.0337,2.4923,2.1328,5.2615,3.4652,7.9444a28.39,28.39,0,0,0,5.07,7.4888c2.3926,2.3922,4.5376,4.59,6.5168,6.8428a67.4432,67.4432,0,0,1,5.5673,7.2149q6.9765,10.4636,13.9523,20.9279a7.3773,7.3773,0,0,0,1.4783,1.6,14.2527,14.2527,0,0,0,2.6627,1.6654c1.3459.6715,2.7365,1.214,3.9495,1.6832.6042.2329,1.1615.4449,1.6208.6283.4565.181.8243.3416.9827.4221q4.545,2.2733,9.09,4.5455a4,4,0,0,0,5.7893-3.5775c-.0026-1.4966.1115-3.13.1143-4.9255a23.2457,23.2457,0,0,0-.2976-3.9588,15.3185,15.3185,0,0,0-1.3862-4.29l-3.5778,1.7887-3.5779,1.7887a7.296,7.296,0,0,1,.6575,2.0681,15.41,15.41,0,0,1,.1821,2.6034c.0028,1.4162-.1117,3.0661-.1143,4.9255h4l1.7893-3.5775q-4.5463-2.2739-9.0908-4.5459c-.4049-.2018-.7974-.3709-1.2084-.54-.7153-.2938-1.4832-.582-2.2614-.8833-1.1615-.4474-2.3489-.9306-3.2053-1.3718a7.4805,7.4805,0,0,1-.9438-.556l-.1371-.1088-.7362.7631.8767-.5844a1.124,1.124,0,0,0-.1405-.1788l-.7362.7631.8767-.5844q-6.9763-10.464-13.9523-20.9279a75.487,75.487,0,0,0-6.2141-8.058c-2.1683-2.4671-4.4384-4.7874-6.87-7.2189a16.3226,16.3226,0,0,1-2.408-3.2474,57.98,57.98,0,0,1-3.3362-7.03c-1.0634-2.5514-2.0854-5.1616-3.2706-7.5385l-3.5778,1.7886v4a5.3559,5.3559,0,0,0,1.7241-.2851,5.8025,5.8025,0,0,0,2.317-1.5043,7.93,7.93,0,0,0,1.0951-1.4681,15.12,15.12,0,0,0,1.105-2.4089c.43-1.1628.7687-2.2953,1.0912-3.22.1592-.46.3125-.8644.4457-1.1671a3.6478,3.6478,0,0,1,.2728-.5339,4,4,0,0,0-2.9978-6.2544c-1.0588-.0755-2.4236-.2455-4.01-.2489v3.17l.9862-3.0111a3.1838,3.1838,0,0,0-.9862-.1593v3.17l.9862-3.0111-.9987,3.0492,2.47-2.0568a3.2556,3.2556,0,0,0-1.4718-.9924l-.9987,3.0492,2.47-2.0568-2.0768,1.7291,2.4944-1.0542a2.7043,2.7043,0,0,0-.4176-.6749l-2.0768,1.7291,2.4944-1.0542-1.6244.6865,1.7107-.4364a1.7733,1.7733,0,0,0-.0863-.25l-1.6244.6865,1.7107-.4364-.625.1594.637-.1063-.012-.0531-.625.1594.637-.1063a2.592,2.592,0,0,1-.0173-.3537,13.3413,13.3413,0,0,1,.16-1.7948c.1915-1.3381.5568-3.0483,1.0026-4.8224.6686-2.6669,1.515-5.4951,2.2135-7.7057.3492-1.1061.6616-2.0592.8973-2.7675.1178-.3543.2164-.6473.2914-.8691.076-.225.1238-.365.1563-.462l0,.0009q2.2289-6.6852,4.4572-13.37l0-.0014-2.2955-.7643,1.5381,1.8777a2.4868,2.4868,0,0,0,.7574-1.1134l-2.2955-.7643,1.5381,1.8777-1.0011-1.2223.601,1.472a1.6143,1.6143,0,0,0,.4-.25l-1.0011-1.2223.601,1.472-.1431-.35.1143.3612.0288-.0109-.1431-.35.1143.3612a5.189,5.189,0,0,1,1.2245-.1016c.7815-.0014,1.7694.0784,2.7343.1719.4846.0462.9659.0949,1.4392.1348.4763.0391.9349.0723,1.4454.0734v-4h-4a7.4439,7.4439,0,0,0,1.1862,4.0546,8.7957,8.7957,0,0,0,2.2256,2.3157,17.0352,17.0352,0,0,0,4.176,2.1135c1.0143.3748,1.9919.6847,2.8608.9735.6505.2155,1.2394.419,1.7157.6082a8.65,8.65,0,0,1,.8488.3809,2.3761,2.3761,0,0,1,.2784.1675l.0122.0093.0062-.0079-.0063.0077v0l.0062-.0079-.0063.0077.8461-.99-1.1311.606a1.3736,1.3736,0,0,0,.285.384l.8461-.99-1.1311.606L91.74,142H89.6938a2.108,2.108,0,0,0,.2427.9663L91.74,142h-.4972l-1.5015-.4a1.5794,1.5794,0,0,0-.0476.4h1.5491l-1.5015-.4.6649.1773-.6425-.2488-.0225.0715.6649.1773-.6425-.2488.0408.0158-.04-.0178-.0007.002.0408.0158-.04-.0178-.0094.02.0006-.001c-2.2657,4.531-6.068,12.136-8.3335,16.6665L85,160l-3.5463-1.8506a4.1593,4.1593,0,0,0-.469,1.9177,4.2637,4.2637,0,0,0,.3058,1.5831,4.7065,4.7065,0,0,0,.4192.8126,6.1387,6.1387,0,0,0,.6757.86,13.4675,13.4675,0,0,0,1.1316,1.0627c.6783.5777,1.4437,1.1727,2.2341,1.79,1.1777.9169,2.4128,1.8879,3.2229,2.6332a7.3854,7.3854,0,0,1,.7583.773l.0129.0171,1.1563-.8244-1.2937.5648a1.4616,1.4616,0,0,0,.1375.26l1.1563-.8244-1.2937.5648,2.76-1.2052H89.37a2.9878,2.9878,0,0,0,.238,1.2052l2.76-1.2052h.4667l-3.2163-1.2837a3.476,3.476,0,0,0-.2487,1.2837h3.465l-3.2163-1.2837a3.998,3.998,0,0,0,1.8876,5.0409,22.2,22.2,0,0,0,3.9811,1.6193,13.4977,13.4977,0,0,0,3.7324.5627,10.0346,10.0346,0,0,0,3.7229-.6919,9.8364,9.8364,0,0,0,2.6041-1.5419,13.69,13.69,0,0,0,2.8826-3.39c.5258-.8408.95-1.6431,1.323-2.3472a17.2628,17.2628,0,0,1,1.2915-2.2249l.1326-.1551.0115-.011-.526-.591.3523.7005a.8689.8689,0,0,0,.1737-.1095l-.526-.591.3523.7005-.6542-1.301.2058,1.44a1.4885,1.4885,0,0,0,.4484-.1391l-.6542-1.301.2058,1.44a4,4,0,0,0-1.113-7.9222,4.0336,4.0336,0,0,0-3.1093,5.6919,4.1976,4.1976,0,0,0,.3871.671,4.8093,4.8093,0,0,0,.4736.5708c.2356.2432.4147.3989.611.568.36.3069.7594.6193,1.2258.9751,1.6135,1.228,4.0205,2.9379,6.0386,4.3955,1.0039.7247,1.91,1.3859,2.5161,1.8489.2994.2278.5316.4147.6071.48l.0176.0154.0013.0012,1.5236-1.6861-1.71,1.491a2.2,2.2,0,0,0,.1869.195l1.5236-1.6861-1.71,1.491,2.7356-2.3846-3.0953,1.892a3.54,3.54,0,0,0,.36.4926l2.7356-2.3846-3.0953,1.892,3.3142-2.0259-3.6277,1.3877a3.8384,3.8384,0,0,0,.3135.6382l3.3142-2.0259-3.6277,1.3877,3.6973-1.4143h-3.958a3.918,3.918,0,0,0,.2607,1.4143l3.6973-1.4143h-3.958q0,8.15,0,16.3h.106l-.106-.0037v.0037h.106l-.106-.0037a2.5014,2.5014,0,0,1-.074.4205,13.8409,13.8409,0,0,1-.791,2.1788c-.712,1.6258-1.82,3.701-3.0759,5.9318-1.8857,3.3579-4.0986,7.0768-5.8976,10.6122a46.6252,46.6252,0,0,0-2.3094,5.1871,21.0037,21.0037,0,0,0-.7511,2.5292,12.0925,12.0925,0,0,0-.3152,2.6275,7.5037,7.5037,0,0,0,.7476,3.3825q3.6346,7.2693,7.27,14.54Z"/><path  d="M123.6362,250.9092l1.2648,3.7948q9.6074-3.2022,19.214-6.4048c1.7772-.5934,3.124-1.032,4.1193-1.2924a8.1767,8.1767,0,0,1,2.0554-.3415,3.7869,3.7869,0,0,1,.8112.0885,10.7574,10.7574,0,0,1,2.0011.7026c.9142.3974,2.0941.977,3.6,1.7308,2.9479,1.4684,5.4221,2.8513,8.2533,3.9436a26.196,26.196,0,0,0,9.7422,1.7785h21.666v-4l-.97-3.8806-17.3558,4.3389c-3.1674.797-6.4567,2.0015-9.6282,2.9688-1.5807.4845-3.1221.91-4.5526,1.2055A19.3951,19.3951,0,0,1,160,256a17.3725,17.3725,0,0,1-3.4514-.4113,61.3954,61.3954,0,0,1-6.3092-1.7852c-2.2054-.7144-4.433-1.4729-6.6249-2.0229l-19.0082-4.7519-.97,3.8806,1.2648,3.7948-1.2648-3.7948-.97,3.8806,19.0083,4.7519c2.3091.5719,5.2736,1.64,8.4052,2.6033,1.5709.4807,3.1934.9348,4.8481,1.2777A25.19,25.19,0,0,0,160,264a27.2144,27.2144,0,0,0,5.4778-.6241,74.74,74.74,0,0,0,7.7986-2.1906c2.4691-.8035,4.786-1.58,6.7014-2.0566l17.3561-4.3389a4,4,0,0,0-.97-7.8806h-21.666a18.0615,18.0615,0,0,1-6.8779-1.2482c-2.1033-.8-4.4257-2.0669-7.54-3.6294-2.0375-1.0162-3.606-1.797-5.1577-2.3911a15.9034,15.9034,0,0,0-2.3607-.7126,11.8235,11.8235,0,0,0-2.4718-.2627,15.9293,15.9293,0,0,0-4.09.6045c-1.37.3615-2.8193.8425-4.6147,1.44q-9.6066,3.2022-19.2137,6.4048a4,4,0,0,0,.2947,7.6753Z"/><path  d="M260,160h-4a95.9993,95.9993,0,1,1-28.1176-67.8825A95.6825,95.6825,0,0,1,256,160h8a103.9993,103.9993,0,1,0-30.4607,73.5393A103.6915,103.6915,0,0,0,264,160Z"/></svg>