<svg xmlns="http://www.w3.org/2000/svg" viewBox="0 0 320 320">
  <defs>
    <style>
      .cls-1 {
        fill: #1a1a1a;
      }
    </style>
  </defs>
  <title>flat-microphone</title>
  <g id="Layer_16" data-name="Layer 16">
    <path class="cls-1" d="M195,78.9561h-4v68.1748a37.1549,37.1549,0,0,1-9.2267,24.8727,31.1126,31.1126,0,0,1-9.8534,7.403,27.8442,27.8442,0,0,1-23.84,0,32.2645,32.2645,0,0,1-13.6833-12.5706A37.93,37.93,0,0,1,129,147.1309V78.9561a37.1548,37.1548,0,0,1,9.2267-24.8728A31.1126,31.1126,0,0,1,148.08,46.68a27.8442,27.8442,0,0,1,23.84,0,32.2645,32.2645,0,0,1,13.6833,12.5706A37.9308,37.9308,0,0,1,191,78.9561h8a45.1443,45.1443,0,0,0-11.2757-30.2194,39.11,39.11,0,0,0-12.3969-9.2944,35.8453,35.8453,0,0,0-30.6548,0A40.2522,40.2522,0,0,0,127.558,55.1,45.9279,45.9279,0,0,0,121,78.9561v68.1748A45.1441,45.1441,0,0,0,132.2757,177.35a39.11,39.11,0,0,0,12.3969,9.2944,35.8453,35.8453,0,0,0,30.6548,0,40.2524,40.2524,0,0,0,17.1146-15.6576A45.9284,45.9284,0,0,0,199,147.1309V78.9561Zm25,67.4785v-4H210a4,4,0,0,0-4,4,54.7916,54.7916,0,0,1-13.62,36.6786,46.16,46.16,0,0,1-14.6213,10.9812,41.49,41.49,0,0,1-35.517,0,47.804,47.804,0,0,1-20.2829-18.62A55.9007,55.9007,0,0,1,114,146.4346a4,4,0,0,0-4-4H100a4,4,0,0,0-4,4,74.7817,74.7817,0,0,0,16.8764,47.8907c10.4971,12.631,25.21,21.1067,41.7574,22.6266L155,212.9688h-4v51.9H139.0767a24.8546,24.8546,0,0,0-18.4706,8.4711,6.394,6.394,0,0,0-1.2516,2.0815,6.56,6.56,0,0,0,1.1209,6.423,6.06,6.06,0,0,0,1.9551,1.5421,5.941,5.941,0,0,0,2.6349.613h69.8691a5.9406,5.9406,0,0,0,2.6347-.6129,6.1489,6.1489,0,0,0,2.6178-2.4987,6.588,6.588,0,0,0,.85-3.2407,6.487,6.487,0,0,0-.3915-2.2253,6.3934,6.3934,0,0,0-1.2521-2.0825,24.854,24.854,0,0,0-18.47-8.4706H169v-51.9h-4l.3661,3.9832c16.5469-1.52,31.26-9.9956,41.7574-22.6266A74.7821,74.7821,0,0,0,224,146.4346a4,4,0,0,0-4-4v4h-4A66.79,66.79,0,0,1,200.9729,189.21a57.2067,57.2067,0,0,1-16.3173,13.5879,51.081,51.081,0,0,1-20.0218,6.1879A4.0048,4.0048,0,0,0,161,212.9688v55.9a4,4,0,0,0,4,4h15.9233a16.8462,16.8462,0,0,1,12.52,5.818l1.1934-1.0718-1.506.55a1.62,1.62,0,0,0,.3131.5223l1.1929-1.0723-1.506.55,1.418-.5177H193.037a1.5088,1.5088,0,0,0,.0934.5176l1.418-.5177h-.0268l-1.1259-.9446a1.432,1.432,0,0,0-.3587.9446h1.4846l-1.1259-.9446,1.4854,1.2462-.8571-1.7338a1.9429,1.9429,0,0,0-.6283.4875l1.4854,1.2462-.8571-1.7338.9106,1.8419V276a2.083,2.083,0,0,0-.9106.2155l.9106,1.8419V276H125.0654v2.0574l.9106-1.8419a2.0828,2.0828,0,0,0-.9106-.2155v2.0574l.9106-1.8419-.815,1.6483,1.6154-.9135a1.853,1.853,0,0,0-.8-.7349l-.815,1.6483,1.6154-.9135-1.2328.6971h1.4192a1.39,1.39,0,0,0-.1864-.6971l-1.2328.6971H125.45l1.4191.5182a1.5112,1.5112,0,0,0,.0935-.5182H125.45l1.4191.5182-1.5049-.55,1.1919,1.0715a1.6175,1.6175,0,0,0,.313-.522l-1.5049-.55,1.1919,1.0715a16.8471,16.8471,0,0,1,12.52-5.8186H155a4,4,0,0,0,4-4v-55.9a4.0048,4.0048,0,0,0-3.6338-3.9833c-14.2485-1.3112-27.0351-8.5992-36.3391-19.7758A66.79,66.79,0,0,1,104,146.4346h-4v4h10v-4h-4A62.7809,62.7809,0,0,0,121.6691,188.46a54.1547,54.1547,0,0,0,17.1648,12.8726,49.49,49.49,0,0,0,42.3321,0A55.79,55.79,0,0,0,204.88,179.6255,63.8989,63.8989,0,0,0,214,146.4346h-4v4h10v-4h0Z"/>
  </g>
</svg>
