<svg xmlns="http://www.w3.org/2000/svg" viewBox="0 0 320 320">
  <defs>
    <style>
      .cls-1 {
        fill: #1a1a1a;
      }
    </style>
  </defs>
  <title>flat-envelope</title>
  <g id="Layer_16" data-name="Layer 16">
    <g>
      <polygon  points="20 244 22 244 22 78 298 78 298 242 20 242 20 244 22 244 20 244 20 246 302 246 302 74 18 74 18 246 20 246 20 244"/>
      <polygon  points="300 76 298.899 74.33 160 165.912 26.667 78 300 78 300 76 298.899 74.33 300 76 300 74 20 74 18.899 77.67 160 170.703 301.101 77.67 300 74 300 76"/>
      <path  d="M20,244h4V80H296V240H20v4h0v4H300a4,4,0,0,0,4-4V76a4,4,0,0,0-4-4H20a4,4,0,0,0-4,4V244a4,4,0,0,0,4,4Z"/>
      <path  d="M300,76l-2.2019-3.3395L160,163.5164,33.3333,80H300V76l-2.2019-3.3395L300,76V72H20a4,4,0,0,0-2.2019,7.3394l140,92.3076a3.989,3.989,0,0,0,4.4037,0l140-92.3076A4,4,0,0,0,300,72Z"/>
    </g>
  </g>
</svg>
