<svg xmlns="http://www.w3.org/2000/svg" viewBox="0 0 320 320">
  <defs>
    <style>
      .cls-1 {
        fill: #1a1a1a;
      }
    </style>
  </defs>
  <title>flat-star-filled</title>
  <g id="Layer_16" data-name="Layer 16">
    <g>
      <polygon class="cls-1" points="160 30 203.262 117.659 300 131.716 230 199.949 246.525 296.296 160 250.807 73.475 296.296 90 199.949 20 131.716 116.738 117.659 160 30"/>
      <polygon class="cls-1" points="160 30 158.206 30.885 201.934 119.487 295.702 133.112 227.851 199.251 243.869 292.64 160 248.547 76.131 292.64 92.149 199.251 24.298 133.112 118.066 119.487 161.793 30.885 160 30 158.206 30.885 160 30 158.206 29.115 115.41 115.831 19.712 129.737 18.604 133.148 87.851 200.647 71.504 295.958 74.406 298.066 160 253.067 245.594 298.066 248.496 295.958 232.149 200.647 301.396 133.148 300.288 129.737 204.59 115.831 161.793 29.115 158.206 29.115 160 30"/>
    </g>
  </g>
</svg>
