<svg xmlns="http://www.w3.org/2000/svg" viewBox="0 0 320 320"><defs><style>.a{fill:#1a1a1a;}</style></defs><title>flat-pie-chart-filled</title><path class="a" d="M253.0771,151.5381A101.5386,101.5386,0,1,0,151.5381,253.0771V151.5381Z"/><path class="a" d="M270,168.4619H168.4619V270A101.5378,101.5378,0,0,0,270,168.4619Z"/><path class="a" d="M253.0771,151.5381h2A103.5385,103.5385,0,1,0,151.5381,255.0769h2V153.5376l101.5391,0v-2h-2v-2H149.5381V253.0771h2v-2a99.5385,99.5385,0,1,1,99.5391-99.5391h2v0Z"/><path class="a" d="M270,168.4619v-2H166.4619V272h2A103.5382,103.5382,0,0,0,272,168.4619v-2h-2v2h-2A99.5382,99.5382,0,0,1,168.4619,268v2h2V170.4614l99.5383,0v-2h0Z"/></svg>