<svg xmlns="http://www.w3.org/2000/svg" viewBox="0 0 320 320"><defs><style>.a{fill:#1a1a1a;}</style></defs><title>flat-briefcase-filled</title><path  d="M123.333,169.1665h73.334c73.333,0,73.333-27.5,73.333-27.5l-4.583-27.5S260.833,105,242.5,95.8335c-8.6387-4.32-29.333-3.2085-29.333-3.2085s.2441-18.7529-9.2852-28.7876C195.1631,54.6548,180.4014,50,160,50c-22.0439,0-37.6025,5.61-46.2451,16.6772-8.2168,10.5264-6.582,26.8643-6.582,26.8643S86.2,91.4834,77.5,95.8335C59.167,105,54.583,114.1665,54.583,114.1665L50,132.5S50,169.1665,123.333,169.1665Zm4.584-94.0273C133.73,67.689,142.6563,63.75,160,63.75c16.248,0,25.2275,4.291,31.167,10.5415,5.5684,5.8638,4.9434,19.25,4.9434,19.25H123.8867S123.5439,80.7383,127.917,75.1392Z"/><path  d="M205.833,182.7456v.1709a9.1665,9.1665,0,0,1-9.166,9.167H123.333a9.1665,9.1665,0,0,1-9.166-9.167v-.1992C50.0488,180.1484,50,150.8335,50,150.8335v82.5C50,270,86.667,270,86.667,270H233.9238S270,270,270,233.3335v-77.917S269.9512,180.5435,205.833,182.7456Z"/><path  d="M123.333,169.1665v2h73.334c18.458-.0006,32.3647-1.7284,42.8806-4.3566a70.1892,70.1892,0,0,0,18.4082-7.1012c6.813-3.9683,10.3813-8.3458,12.1858-11.8148A14.5182,14.5182,0,0,0,272,141.6665v-.1649l-4.6594-27.96-.1348-.27c-.1709-.3623-5.116-9.89-23.8113-19.2273a25.3241,25.3241,0,0,0-5.561-1.8846,65.8365,65.8365,0,0,0-9.74-1.3542c-3.2874-.24-6.4639-.3089-9.0454-.309-3.5417,0-5.9617.13-5.988.1312l.1074,1.9971,2,.0219c0-.007,0-.0589,0-.1524a62.2938,62.2938,0,0,0-1.2847-11.7819,48.7568,48.7568,0,0,0-2.8894-9.3986A30.0826,30.0826,0,0,0,205.332,62.46c-4.6343-4.8817-10.8281-8.5035-18.4087-10.8924Q175.5455,47.9821,160,48q-16.786.002-28.8267,4.3071c-8.0076,2.8839-14.4146,7.27-18.9949,13.1391a33.3444,33.3444,0,0,0-5.9375,13.3082A53.0516,53.0516,0,0,0,105.04,90.0811c0,2.2193.1372,3.6065.1423,3.66l1.99-.1993.1953-1.99c-.041-.0036-5.0483-.4955-11.2473-.4961a84.2236,84.2236,0,0,0-10.3.5668,29.5218,29.5218,0,0,0-9.2156,2.4229c-18.6951,9.3375-23.64,18.8649-23.811,19.2273l-.0991.198L48,132.2532V132.5a21.852,21.852,0,0,0,1.2483,6.3616c1.8313,5.5352,6.468,13.7376,17.6262,20.4184,11.1548,6.69,28.7156,11.8856,56.4585,11.8865v-4c-18.1677.0005-31.7051-2.273-41.7634-5.6265-15.09-5.0436-22.356-12.4381-25.9875-18.4675a26.5335,26.5335,0,0,1-3.15-7.6385,18.4775,18.4775,0,0,1-.3826-2.2335c-.0261-.2546-.0388-.4454-.0444-.5647L52,132.5115l0-.02-.74.0088H52v-.0088l-.74.0088H50l1.94.485,4.583-18.3335-1.94-.485,1.7886.8945L55.29,114.52l1.0767.5509.0049-.01L55.29,114.52l1.0767.5509.01-.0185c.2471-.4455,4.88-8.8528,22.0178-17.43a25.8768,25.8768,0,0,1,7.9272-2.032,80.3485,80.3485,0,0,1,9.7993-.5353c2.9941,0,5.72.12,7.69.24.9854.06,1.782.12,2.33.1643.2739.0223.4856.0408.6274.0536s.2092.0195.2092.0194l2.4285.2386-.2429-2.4283,0-.0053c-.01-.1021-.1223-1.33-.1223-3.2558a49.1252,49.1252,0,0,1,1.1055-10.4571,29.4039,29.4039,0,0,1,5.1858-11.7161c4.062-5.197,9.7556-9.15,17.199-11.838,7.4382-2.6842,16.6162-4.0713,27.47-4.07,10.0491-.001,18.6445,1.15,25.72,3.3827,7.08,2.2341,12.6267,5.5311,16.7112,9.8319a26.1239,26.1239,0,0,1,4.8889,7.6839,49.0143,49.0143,0,0,1,3.3171,12.5773,55.5189,55.5189,0,0,1,.53,7.0187l0,.0863,0,.0222-.0237,2.1334,2.1309-.1143.0994-.005c.48-.0234,2.66-.12,5.6741-.12a111.54,111.54,0,0,1,11.9121.5866,53.0144,53.0144,0,0,1,5.9744.9743,21.489,21.489,0,0,1,4.6714,1.5647c8.9878,4.4944,14.533,8.95,17.8137,12.2294a31.536,31.536,0,0,1,3.3677,3.9019c.3267.4573.5481.8065.6824,1.03.0671.1118.1123.1924.1382.2393l.0242.045.0015.0031,1.0823-.554-1.0872.5439.0049.01,1.0823-.554-1.0872.5439,1.7888-.8945-1.9729.3288,4.583,27.5L270,141.6665h-.9431L268,141.6441v.0224h1.0569L268,141.6441s-.0017.0887-.0215.2666a12.8335,12.8335,0,0,1-1.8386,4.95c-2.1638,3.6351-6.8528,8.6568-17.3845,12.8459-10.5247,4.1807-26.8816,7.4622-52.0884,7.46H123.333Zm4.584-94.0273,1.5767,1.23a23.679,23.679,0,0,1,10.8411-7.8454c4.8071-1.7995,11.1416-2.776,19.6653-2.7742,7.95,0,14.0164,1.0511,18.7559,2.8029a28.1342,28.1342,0,0,1,10.9612,7.1163,12.1031,12.1031,0,0,1,2.2947,3.7387,28.8919,28.8919,0,0,1,1.7632,7.2121,46.691,46.691,0,0,1,.356,5.7006c0,.3677-.0051.6567-.01.85-.0024.0969-.0046.17-.0063.2172l-.002.0512,0,.0109,1.998.0911v-2H123.8867v2l1.999-.0561-.0007-.03c-.0015-.0726-.0051-.2695-.0051-.5692a53.8876,53.8876,0,0,1,.5776-7.7607,30.8255,30.8255,0,0,1,1.1323-4.9206,12.8431,12.8431,0,0,1,1.9031-3.8342l-1.5759-1.2312-1.5762-1.2312a16.71,16.71,0,0,0-2.5488,5.0412,39.3314,39.3314,0,0,0-1.6218,8.22c-.2532,2.5365-.29,4.6626-.29,5.7165,0,.4414.0068.695.0073.7117l.0542,1.9439H198.021l.0872-1.9089c.0012-.026.0225-.5056.0225-1.312a48.548,48.548,0,0,0-.813-8.8863,29.2147,29.2147,0,0,0-1.6077-5.5506,16.0411,16.0411,0,0,0-3.0928-4.9695,32.1721,32.1721,0,0,0-12.4749-8.1136C174.8452,62.8444,168.2976,61.75,160,61.75c-8.82.0018-15.6206.9948-21.0657,3.0273A27.7291,27.7291,0,0,0,126.34,73.9088Z"/><path  d="M205.833,182.7456h-2v.1709a7.167,7.167,0,0,1-7.166,7.167H123.333a7.167,7.167,0,0,1-7.1663-7.167v-2.1209l-1.92-.0767c-15.8782-.6356-27.7126-2.9269-36.5042-5.958C64.55,170.2036,58.218,164.045,55.08,159.1651a20.7611,20.7611,0,0,1-2.7136-6.0971,13.4575,13.4575,0,0,1-.3257-1.7348c-.0222-.1941-.0325-.3369-.0374-.4227L52,150.8253l0-.0091-1.0776.0157L52,150.83v-.0139l-1.0776.0157L52,150.83l-4,.0034c0,.003,0,1.07,0,2.97,0,13.3,0,67.2662,0,79.53-.0059,9.4961,2.3928,16.8084,6.0649,22.3072a33.1734,33.1734,0,0,0,9.7673,9.5158,44.4393,44.4393,0,0,0,15.3809,5.9905A42.5714,42.5714,0,0,0,86.667,272H233.9238a46.2006,46.2006,0,0,0,18.9441-4.8,33.8128,33.8128,0,0,0,13.1675-11.5714c3.6123-5.4986,5.97-12.8041,5.9644-22.2947v-77.917l-4-.0039,1.0979.0021L268,155.39v.0222l1.0979.0021L268,155.39s-.0015.0766-.0188.2376a12.4188,12.4188,0,0,1-1.6094,4.5557c-1.8928,3.3747-5.978,8.0785-15.156,12.2059-9.1726,4.1194-23.4409,7.6033-45.4517,8.3573l-1.9312.0665v1.9323h2l.0686,1.9988c16.1594-.5556,28.3477-2.5548,37.574-5.28,13.8306-4.0805,21.0369-9.84,24.7292-14.7837,3.6978-4.9392,3.8-8.9514,3.7949-9.26l-4-.0039c0,.0028,0,1.0039,0,2.7876,0,12.4856,0,63.175,0,75.1294-.0056,8.8425-2.1575,15.2869-5.3093,20.1008a28.8952,28.8952,0,0,1-8.4583,8.3655,39.3993,39.3993,0,0,1-13.7429,5.4229,43.1586,43.1586,0,0,1-4.792.6823c-.5811.0483-1.0366.0721-1.3406.0838-.1521.0058-.2664.0086-.34.01l-.0789.0011-.0146,0H86.6563a43.7779,43.7779,0,0,1-17.8357-4.5789,29.9859,29.9859,0,0,1-11.5771-10.226c-3.12-4.7885-5.238-11.1625-5.2437-19.8615v-82.5l-4,.0033a16.9471,16.9471,0,0,0,1.1282,5.2962c1.64,4.5793,5.762,11.3509,15.5449,17.091,9.782,5.75,25.1465,10.5177,49.4138,11.4916l.08-1.9984h-2v.1992a11.167,11.167,0,0,0,11.166,11.1669h73.334a11.167,11.167,0,0,0,11.1658-11.1669v-.1709h-2l.0686,1.9988Z"/></svg>