<svg xmlns="http://www.w3.org/2000/svg" viewBox="0 0 320 320"><defs><style>.a{fill:#1a1a1a;}</style></defs><title>flat-bell-filled</title><path  d="M270,214.6s-36.666-18.2886-36.666-54.8667V123.1558S233.334,50,160,50s-73.334,73.1558-73.334,73.1558v36.5776C86.666,196.3115,50,214.6,50,214.6Z"/><path  d="M115.377,222.4966c-.061.9551-.1035,1.915-.1035,2.8853a44.7267,44.7267,0,0,0,89.4531,0c0-.97-.0425-1.93-.1035-2.8853"/><path  d="M270,214.6l.8926-1.79-.0153-.0078a77.7,77.7,0,0,1-18.2164-13.7559A64.1383,64.1383,0,0,1,240.6963,182.53a50.9849,50.9849,0,0,1-5.3624-22.7971V123.1558a92.8049,92.8049,0,0,0-9.3787-37.4741,66.2479,66.2479,0,0,0-22.4515-25.9165C192.8486,52.6729,178.6621,47.9942,160,48c-18.6622-.0058-32.8486,4.6729-43.5038,11.7652a64.2585,64.2585,0,0,0-18.46,18.9066,86.57,86.57,0,0,0-11.7018,29.9938,82.9153,82.9153,0,0,0-1.6688,14.49s0,18.289,0,36.5776a51.0228,51.0228,0,0,1-5.5171,23.1082c-4.9714,9.928-12.4984,17.4579-18.7952,22.48a80.5658,80.5658,0,0,1-8.0164,5.6454c-1.0181.625-1.8368,1.0915-2.3954,1.399-.2793.1537-.4935.2676-.6352.3417l-.157.0814-.0359.0182-.0065.0033L50,216.6H270l.8926-3.79L270,214.6v-2H50v2l.8926,1.79a80.9785,80.9785,0,0,0,18.8528-14.09,68.5921,68.5921,0,0,0,12.9794-17.6656,55.0388,55.0388,0,0,0,5.941-24.9V123.1558l0-.0371a89.0356,89.0356,0,0,1,9.38-36.4793,61.8632,61.8632,0,0,1,21.1354-23.8526C129.0984,56.3336,142.2765,52.0053,160,52c18.0048.0058,31.3185,4.4716,41.2886,11.0959a60.2506,60.2506,0,0,1,17.3123,17.7427,82.6156,82.6156,0,0,1,11.139,28.5969,90.7486,90.7486,0,0,1,1.3969,9.9505c.0994,1.2118.1487,2.1659.1732,2.8113.0122.3227.0182.5681.0212.73l.0025.1793,0,.0491s0,18.289,0,36.5776a55.0381,55.0381,0,0,0,5.941,24.9c5.3409,10.647,13.2824,18.5482,19.876,23.8139a74.9332,74.9332,0,0,0,11.9562,7.942L270,214.6v0Z"/><path  d="M113.381,222.369c-.0627.9812-.1075,1.9841-.1075,3.0128a46.7267,46.7267,0,0,0,93.4531,0c0-1.0287-.0449-2.0316-.1075-3.0128l-3.9918.2551c.0593.9289.0994,1.8459.0994,2.7577a42.7267,42.7267,0,0,1-85.4532,0c0-.9118.04-1.8288.0995-2.7578l-3.9918-.255Z"/></svg>