<svg xmlns="http://www.w3.org/2000/svg" viewBox="0 0 320 320"><defs><style>.a{fill:#1a1a1a;}</style></defs><title>flat-cylinder-filled</title><path class="a" d="M279.8564,106.1357a10.2809,10.2809,0,0,1,.1436,1.563V230.4434C280,257.8125,226.2744,280,160,280S40,257.8125,40,230.4434V107.6987a10.2809,10.2809,0,0,1,.1436-1.563c2.9551,26.2837,55.4795,47.22,119.8564,47.22S276.9,132.4194,279.8564,106.1357Z"/><path class="a" d="M160,50C96.4873,50,45,70.6387,45,96.0977a18.9852,18.9852,0,0,0,.1367,2.1738C47.97,122.7207,98.3057,142.1953,160,142.1953s112.0293-19.4746,114.8633-43.9238A18.9852,18.9852,0,0,0,275,96.0977C275,70.6387,223.5127,50,160,50Z"/><path class="a" d="M279.8564,106.1357l-1.9771.3021A8.3927,8.3927,0,0,1,278,107.6987V230.4434a20.323,20.323,0,0,1-2.23,9.0993c-2.5793,5.2189-7.4407,10.3083-14.2668,14.9434-10.23,6.9593-24.8169,12.87-42.2341,17.0023A259.6492,259.6492,0,0,1,160,278c-32.9111.0049-62.7017-5.5247-84.09-14.3635-10.6934-4.4123-19.2742-9.6564-25.0833-15.3347a32.7572,32.7572,0,0,1-6.5972-8.7592A20.3232,20.3232,0,0,1,42,230.4434V107.6987a8.3927,8.3927,0,0,1,.1206-1.2609l-1.9768-.3021-1.9875.2234a25.8059,25.8059,0,0,0,3.6284,10.3775c3.4539,5.7716,9.0664,11.0015,16.3713,15.6617,10.9634,6.9835,25.7817,12.696,43.1863,16.6948A265.0593,265.0593,0,0,0,160,155.3554c32.4075-.0042,61.8372-5.2562,83.696-13.8936,10.93-4.3246,19.9763-9.4919,26.57-15.3669a40.6553,40.6553,0,0,0,7.9492-9.3582,25.81,25.81,0,0,0,3.6289-10.3775l-1.9873-.2235-1.9771.3021,1.9771-.3021-1.9875-.2236a21.8082,21.8082,0,0,1-3.0879,8.7731c-3.0029,5.036-8.14,9.9155-15.0876,14.34-10.4158,6.6437-24.8582,12.253-41.9314,16.1692A261.0863,261.0863,0,0,1,160,151.3555c-31.969.0042-60.99-5.2118-82.2261-13.6134-10.6174-4.1949-19.28-9.19-25.3782-14.6325a36.69,36.69,0,0,1-7.1772-8.4243,21.8071,21.8071,0,0,1-3.0876-8.773l-3.9644-.0787A12.196,12.196,0,0,0,38,107.6987V230.4434a24.3289,24.3289,0,0,0,2.6458,10.8752c3.0154,6.0721,8.3979,11.5744,15.6025,16.4756,10.8159,7.3452,25.7971,13.364,43.5586,17.5859A263.6112,263.6112,0,0,0,160,282c33.3633-.0049,63.5728-5.5691,85.6162-14.6663,11.0225-4.5557,20.0151-9.99,26.3508-16.17a36.7275,36.7275,0,0,0,7.387-9.8453A24.3289,24.3289,0,0,0,282,230.4434V107.6987a12.1961,12.1961,0,0,0-.1665-1.8652l-3.9644.0786Z"/><path class="a" d="M160,50V48c-31.9763.0048-60.9287,5.18-82.0615,13.6453-10.5674,4.24-19.1912,9.2963-25.2771,15.0574a34.3922,34.3922,0,0,0-7.1064,9.1953A22.2787,22.2787,0,0,0,43,96.0977,20.9584,20.9584,0,0,0,43.15,98.5a23.7268,23.7268,0,0,0,3.5022,9.7264c3.3279,5.3961,8.7183,10.2667,15.7253,14.6063,10.5164,6.5019,24.7207,11.8158,41.4031,15.5363A261.4144,261.4144,0,0,0,160,144.1953c31.06-.004,59.2656-4.8892,80.2207-12.9262,10.4788-4.0245,19.1531-8.8325,25.4841-14.3078a38.2583,38.2583,0,0,0,7.6428-8.7344,23.7243,23.7243,0,0,0,3.5022-9.7251,20.9471,20.9471,0,0,0,.15-2.4041,22.2817,22.2817,0,0,0-2.5549-10.2c-2.9084-5.6827-8.0808-10.8083-14.9924-15.3731-10.3767-6.84-24.7368-12.4382-41.7612-16.3664A259.9655,259.9655,0,0,0,160,48v4c31.5364-.0048,60.0837,5.1392,80.573,13.3582,10.2434,4.1022,18.4609,8.9789,24.0139,14.2479a30.4333,30.4333,0,0,1,6.2952,8.1107A18.2757,18.2757,0,0,1,273,96.0977a17.0167,17.0167,0,0,1-.1238,1.9449,19.7246,19.7246,0,0,1-2.9351,8.0874c-2.86,4.6572-7.7717,9.19-14.4236,13.3015-9.9717,6.1741-23.8091,11.3917-40.1682,15.0337A257.448,257.448,0,0,1,160,140.1953c-30.634.004-58.4436-4.8481-78.7881-12.6607-10.1711-3.9-18.468-8.5452-24.3-13.5977a34.2927,34.2927,0,0,1-6.854-7.8068,19.7234,19.7234,0,0,1-2.9351-8.0888A17.0288,17.0288,0,0,1,47,96.0977a18.2727,18.2727,0,0,1,2.1179-8.381c2.4531-4.82,7.0979-9.547,13.6326-13.8529,9.793-6.4665,23.7683-11.965,40.4568-15.8075A256.0066,256.0066,0,0,1,160,52Z"/></svg>