<svg xmlns="http://www.w3.org/2000/svg" viewBox="0 0 320 320">
  <defs>
    <style>
      .cls-1 {
        fill: #1a1a1a;
      }
    </style>
  </defs>
  <title>flat-file</title>
  <g id="Layer_16" data-name="Layer 16">
    <path class="cls-1" d="M74.667,288h4V36H201.01L241.333,76.3236V284H74.667v4h0v4H245.333a4,4,0,0,0,4-4V74.6665a4.0271,4.0271,0,0,0-1.1714-2.8284l-42.666-42.6665A4.0267,4.0267,0,0,0,202.667,28h-128a4,4,0,0,0-4,4V288a4,4,0,0,0,4,4Zm128-213.3335v4h42.666a4,4,0,0,0,2.8284-6.8284l-42.666-42.6665A4,4,0,0,0,198.667,32V74.6665a4,4,0,0,0,4,4v-4h4v-33.01l29.0093,29.01H202.667v4h0Z"/>
  </g>
</svg>
