<svg xmlns="http://www.w3.org/2000/svg" viewBox="0 0 320 320">
  <defs>
    <style>
      .cls-1 {
        fill: #1a1a1a;
      }
    </style>
  </defs>
  <title>flat-arrow-up</title>
  <g id="Layer_16" data-name="Layer 16">
    <path class="cls-1" d="M246.1211,150.8027l2.828-2.8289L171.9144,70.9563l-2.828,2.8289,3.1323-2.4875a13.1722,13.1722,0,0,0-3.3275-2.8125A17.2336,17.2336,0,0,0,159.7813,66a15.47,15.47,0,0,0-4.978.8271,17.2108,17.2108,0,0,0-4.9971,2.7073A14.3388,14.3388,0,0,0,147.87,71.312l3.0154,2.6284-2.8281-2.8289L71.022,148.13A17.03,17.03,0,0,0,66,160.1885,16.8909,16.8909,0,0,0,82.9094,177.04a17.0229,17.0229,0,0,0,12.054-4.9985l48.0217-48.0232-.01,112.99a16.8142,16.8142,0,0,0,5.1328,12.0518,17.2914,17.2914,0,0,0,24.2062-.0046,16.8245,16.8245,0,0,0,5.1335-12.0544l-.0013-112.9719,47.738,47.9634.0072.0073A16.8557,16.8557,0,0,0,254,160.1287a17.1785,17.1785,0,0,0-5.0508-12.1548l-2.828,2.8289-2.8281,2.8286A9.1733,9.1733,0,0,1,246,160.1287a8.72,8.72,0,0,1-2.5656,6.2192,8.8319,8.8319,0,0,1-12.5865-.0061l.0072.0073-54.5732-54.8311a4,4,0,0,0-6.8352,2.8218l.0015,122.6611a8.8155,8.8155,0,0,1-2.7194,6.3276,9.2914,9.2914,0,0,1-13.036.0032,8.8052,8.8052,0,0,1-2.7173-6.323l.01-122.6482a4,4,0,0,0-6.8284-2.8289l-54.85,54.8516a9.0152,9.0152,0,0,1-6.3978,2.6565,8.8775,8.8775,0,0,1-6.3156-2.6145A8.7543,8.7543,0,0,1,74,160.1885a9.0213,9.0213,0,0,1,2.6781-6.4006L153.7133,76.769l.1873-.2-1.2621-1.1,1.2336,1.1323.0284-.0322-1.2621-1.1,1.2336,1.1323a9.1871,9.1871,0,0,1,3.6366-2.2422A7.4371,7.4371,0,0,1,159.7813,74a9.204,9.204,0,0,1,4.92,1.3,6.9192,6.9192,0,0,1,1.0883.8181c.1062.0991.174.1709.2018.2014l.0134.0149,0,0,1.6223-1.3906-1.6729,1.3286.0505.062,1.6223-1.3906-1.6729,1.3286a3.6648,3.6648,0,0,0,.3043.3413l77.0347,77.0176Z"/>
  </g>
</svg>
