<svg xmlns="http://www.w3.org/2000/svg" viewBox="0 0 320 320">
  <defs>
    <style>
      .cls-1 {
        fill: #1a1a1a;
      }
    </style>
  </defs>
  <title>flat-save-outline</title>
  <g id="Layer_16" data-name="Layer 16">
    <g>
      <path  d="M50,270h2V52H195.8381L268,124.1614V268L50,268v2h0v2H272V122.5044L197.495,48H48V272h2ZM196.6665,50V48h-112v68.1669h150.667V85.8384L197.495,48h-.8285v2l-1.4142,1.4142,36.0812,36.0812v24.6718H88.6665V52h108V50l-1.4142,1.4142Z"/>
      <polygon  points="233.333 251.667 233.333 249.667 88.666 249.667 88.666 142.52 231.333 142.52 231.333 251.667 233.333 251.667 233.333 249.667 233.333 251.667 235.333 251.667 235.333 138.521 84.667 138.521 84.667 253.667 235.333 253.667 235.333 251.667 233.333 251.667"/>
    </g>
  </g>
</svg>
