<svg xmlns="http://www.w3.org/2000/svg" viewBox="0 0 320 320">
  <defs>
    <style>
      .cls-1 {
        fill: #1a1a1a;
      }
    </style>
  </defs>
  <title>flat-trash-filled</title>
  <g id="Layer_16" data-name="Layer 16">
    <g>
      <rect  x="64" y="64" width="192" height="42.6665" rx="6.4443" ry="6.4443"/>
      <path  d="M64,70.4443H62v29.7778a8.4451,8.4451,0,0,0,8.4443,8.4443H249.5557A8.4451,8.4451,0,0,0,258,100.2222V70.4443A8.4451,8.4451,0,0,0,249.5557,62H70.4443A8.4451,8.4451,0,0,0,62,70.4443h4A4.4449,4.4449,0,0,1,70.4443,66H249.5557A4.4449,4.4449,0,0,1,254,70.4443v29.7778a4.4449,4.4449,0,0,1-4.4443,4.4443H70.4443A4.4449,4.4449,0,0,1,66,100.2222V70.4443Z"/>
      <path  d="M196,64h-8V54.4443A18.4653,18.4653,0,0,0,169.5557,36H150.4443A18.4653,18.4653,0,0,0,132,54.4443V64h-8V54.4443A26.4745,26.4745,0,0,1,150.4443,28h19.1113A26.4745,26.4745,0,0,1,196,54.4443Z"/>
      <path  d="M196,64V62h-6l0-7.5557A20.4649,20.4649,0,0,0,169.5557,34H150.4443A20.4649,20.4649,0,0,0,130,54.4443V62h-4l0-7.5556A24.4749,24.4749,0,0,1,150.4443,30h19.1113A24.4749,24.4749,0,0,1,194,54.4443V64h2v0h2V54.4443A28.474,28.474,0,0,0,169.5557,26H150.4443A28.4741,28.4741,0,0,0,122,54.4443V66h12V54.4443A16.4655,16.4655,0,0,1,150.4443,38h19.1113A16.4655,16.4655,0,0,1,186,54.4443V66h12V64Z"/>
      <path  d="M85.333,114V275.5557A12.4444,12.4444,0,0,0,97.7773,288H222.2227a12.4444,12.4444,0,0,0,12.4443-12.4443V114Zm41.334,152.6665h-8V128h8Zm37.333,0h-8V128h8Zm37.333,0h-8V128h8Z"/>
      <path  d="M85.333,114h-2V275.5557A14.4449,14.4449,0,0,0,97.7773,290H222.2227a14.4448,14.4448,0,0,0,14.4441-14.4443V112H83.333v2h2v2H232.6667l0,159.5557A10.4446,10.4446,0,0,1,222.2227,286H97.7773a10.4446,10.4446,0,0,1-10.4446-10.4443V114h-2v0Zm41.334,152.6665v-2h-6V130h4l0,136.6665h2v0h2V126h-12V268.6665h12v-2Zm37.333,0v-2h-6V130h4V266.6665h2v0h2V126H154V268.6665h12v-2Zm37.333,0v-2h-6V130h4l0,136.6665h2v0h2V126h-12V268.6665h12v-2Z"/>
    </g>
  </g>
</svg>
