<svg xmlns="http://www.w3.org/2000/svg" viewBox="0 0 320 320">
  <defs>
    <style>
      .cls-1 {
        fill: #1a1a1a;
      }
    </style>
  </defs>
  <title>flat-arrow-cw-filled</title>
  <g id="Layer_16" data-name="Layer 16">
    <g>
      <path  d="M272.3252,140.93l-20.9287,2.2178a6.5117,6.5117,0,0,0-5.6025,7.2676l.0068.0674c4.6162,47.0811-28.7637,89.3633-74.3643,94.1963s-86.5-29.5752-91.1162-76.6562A87.62,87.62,0,0,1,101.8984,101.33L136.165,130.083,127.332,40,40,49.251,75.7,79.3271a123.0546,123.0546,0,0,0-28.9531,92.2539c6.4922,66.2217,63.9609,114.58,128.1006,107.7812s111.0449-66.2187,104.5518-132.44A6.5421,6.5421,0,0,0,272.3252,140.93Z"/>
      <path  d="M272.3252,140.93l-.2109-1.989-20.9287,2.2178a8.13,8.13,0,0,0-5.3579,2.8552,8.8081,8.8081,0,0,0-2.0686,5.7,8.9056,8.9056,0,0,0,.0449.9031l.0068.0674,0-.0066q.42,4.2843.4167,8.5059a85.4746,85.4746,0,0,1-20.8665,56.042,80.12,80.12,0,0,1-52.135,27.4644,78.8162,78.8162,0,0,1-62.4106-21.0354,84.3685,84.3685,0,0,1-26.5044-53.8271q-.4167-4.2528-.4141-8.4429a85.6079,85.6079,0,0,1,21.4985-56.7278l-1.4966-1.3264-1.2856,1.532,34.2666,28.7529,3.2759-1.7273-9.03-92.089L39.7893,47.2621l-1.0781,3.5184,35.7,30.0762,1.2888-1.53-1.5181-1.3022a124.9337,124.9337,0,0,0-30.0342,81.3408q0,6.1538.6086,12.4106c6.18,63.0432,57.8474,110.2161,118.0642,110.2227a116.208,116.208,0,0,0,12.2373-.6479,117.4633,117.4633,0,0,0,76.4338-40.2327A124.9676,124.9676,0,0,0,282,159.17q0-6.1718-.61-12.4434a8.7777,8.7777,0,0,0-2.74-5.572,8.3147,8.3147,0,0,0-5.6687-2.26,7.9354,7.9354,0,0,0-.874.0471l.0078-.001.2109,1.989.2185,1.9878a3.9869,3.9869,0,0,1,.4368-.0232,4.313,4.313,0,0,1,2.9409,1.1863,4.7743,4.7743,0,0,1,1.4875,3.0371q.5947,6.07.5908,12.0525a120.969,120.969,0,0,1-29.5276,79.3252,113.4575,113.4575,0,0,1-73.8354,38.8779,112.2878,112.2878,0,0,1-11.8159.626c-58.0808.0066-108.0969-45.5542-114.0835-106.6135q-.5944-6.056-.59-12.02a120.9363,120.9363,0,0,1,29.07-78.7365l1.3137-1.5317L44.8779,50.7452l80.66-8.5442,8.1582,83.1995L101.6924,98.5468l-1.2908,1.4568a89.604,89.604,0,0,0-22.5049,59.3807q0,4.3817.4331,8.8333a88.3712,88.3712,0,0,0,27.7656,56.37A83.2029,83.2029,0,0,0,226.38,217.8484a89.4725,89.4725,0,0,0,21.8464-58.665q0-4.4125-.4358-8.8962l0-.0066-.0068-.0674a4.98,4.98,0,0,1-.0249-.5,4.8123,4.8123,0,0,1,1.12-3.113,4.12,4.12,0,0,1,2.7285-1.4644l20.929-2.2178.0078-.001Z"/>
      <path  d="M272.3252,140.93l-.2109-1.989-20.9287,2.2178a8.13,8.13,0,0,0-5.3579,2.8552,8.8081,8.8081,0,0,0-2.0686,5.7,8.9056,8.9056,0,0,0,.0449.9031l.0068.0674,0-.0066q.42,4.2843.4167,8.5059a85.4746,85.4746,0,0,1-20.8665,56.042,80.12,80.12,0,0,1-52.135,27.4644,78.8162,78.8162,0,0,1-62.4106-21.0354,84.3685,84.3685,0,0,1-26.5044-53.8271q-.4167-4.2528-.4141-8.4429a85.6079,85.6079,0,0,1,21.4985-56.7278l-1.4966-1.3264-1.2856,1.532,34.2666,28.7529,3.2759-1.7273-9.03-92.089L39.7893,47.2621l-1.0781,3.5184,35.7,30.0762,1.2888-1.53-1.5181-1.3022a124.9337,124.9337,0,0,0-30.0342,81.3408q0,6.1538.6086,12.4106c6.18,63.0432,57.8474,110.2161,118.0642,110.2227a116.208,116.208,0,0,0,12.2373-.6479,117.4633,117.4633,0,0,0,76.4338-40.2327A124.9676,124.9676,0,0,0,282,159.17q0-6.1718-.61-12.4434a8.7777,8.7777,0,0,0-2.74-5.572,8.3147,8.3147,0,0,0-5.6687-2.26,7.9354,7.9354,0,0,0-.874.0471l.0078-.001.2109,1.989.2185,1.9878a3.9869,3.9869,0,0,1,.4368-.0232,4.313,4.313,0,0,1,2.9409,1.1863,4.7743,4.7743,0,0,1,1.4875,3.0371q.5947,6.07.5908,12.0525a120.969,120.969,0,0,1-29.5276,79.3252,113.4575,113.4575,0,0,1-73.8354,38.8779,112.2878,112.2878,0,0,1-11.8159.626c-58.0808.0066-108.0969-45.5542-114.0835-106.6135q-.5944-6.056-.59-12.02a120.9363,120.9363,0,0,1,29.07-78.7365l1.3137-1.5317L44.8779,50.7452l80.66-8.5442,8.1582,83.1995L101.6924,98.5468l-1.2908,1.4568a89.604,89.604,0,0,0-22.5049,59.3807q0,4.3817.4331,8.8333a88.3712,88.3712,0,0,0,27.7656,56.37A83.2029,83.2029,0,0,0,226.38,217.8484a89.4725,89.4725,0,0,0,21.8464-58.665q0-4.4125-.4358-8.8962l0-.0066-.0068-.0674a4.98,4.98,0,0,1-.0249-.5,4.8123,4.8123,0,0,1,1.12-3.113,4.12,4.12,0,0,1,2.7285-1.4644l20.929-2.2178.0078-.001Z"/>
    </g>
  </g>
</svg>
