<svg xmlns="http://www.w3.org/2000/svg" viewBox="0 0 320 320"><defs><style>.a{fill:#1a1a1a;}</style></defs><title>flat-align-left-filled</title><rect class="a" x="50" y="80" width="220" height="12.3076"/><rect class="a" x="50" y="129.231" width="160" height="12.3076"/><rect class="a" x="50" y="178.4614" width="190" height="12.3076"/><rect class="a" x="50" y="227.6924" width="40" height="12.3076"/><polygon class="a" points="50 80 50 82 268 82 268 90.308 52 90.308 52 80 50 80 50 82 50 80 48 80 48 94.308 272 94.308 272 78 48 78 48 80 50 80"/><polygon class="a" points="50 129.231 48 129.231 48 143.539 212 143.539 212 127.231 48 127.231 48 129.231 50 129.231 50 131.231 208 131.231 208 139.539 52 139.539 52 129.231 50 129.231 50 131.231 50 129.231"/><polygon class="a" points="50 178.461 48 178.461 48 192.769 242 192.769 242 176.461 48 176.461 48 178.461 50 178.461 50 180.461 238 180.461 238 188.769 52 188.769 52 178.461 50 178.461 50 180.461 50 178.461"/><polygon class="a" points="50 227.692 48 227.692 48 242 92 242 92 225.692 48 225.692 48 227.692 50 227.692 50 229.692 88 229.692 88 238 52 238 52 227.692 50 227.692 50 229.692 50 227.692"/></svg>