<svg xmlns="http://www.w3.org/2000/svg" viewBox="0 0 320 320"><defs><style>.a{fill:#1a1a1a;}</style></defs><title>flat-wrench-filled</title><path class="a" d="M187.4409,102.0566A35.6453,35.6453,0,0,1,231.1074,76.791L274.76,88.5239l.24-.8979-32.1328-43.86a12.81,12.81,0,0,0-12.3916-3.3271l-58.4282,15.689a12.8425,12.8425,0,0,0-9.0713,9.0908L147.32,123.771a12.8754,12.8754,0,0,0,3.32,12.418l2.5024,2.5078L48.8726,243.1895a13.27,13.27,0,0,0,0,18.7383l14.1611,14.1914a13.2016,13.2016,0,0,0,18.6982,0L186.0024,171.626,198.65,184.3013l56.86-23.7832.3369-1.2593-43.65-11.7324a35.74,35.74,0,0,1-25.2134-43.7612Z"/><path class="a" d="M187.4409,102.0566l1.9321.5165a33.586,33.586,0,0,1,41.2156-23.8506l45.5857,12.2526L277.18,87.217,244.39,42.46l-.1073-.1074a14.8044,14.8044,0,0,0-14.3264-3.8457L171.5287,54.1959a14.8426,14.8426,0,0,0-10.4849,10.5059l-15.6556,58.5526a14.8741,14.8741,0,0,0,3.8367,14.3474l1.0927,1.095L47.4568,241.7767a15.27,15.27,0,0,0,0,21.5637l14.1611,14.1914a15.2016,15.2016,0,0,0,21.53,0L186.0023,174.4573l12.1808,12.2072,59.0052-24.6805,1.1071-4.1382-45.5791-12.2509A33.7357,33.7357,0,0,1,187.76,113.0341a33.8393,33.8393,0,0,1,1.1556-8.7523l.457-1.7084-1.932-.5168-1.9321-.5168-.457,1.7085a37.73,37.73,0,0,0,26.6268,46.21L255.328,161.19l.5192-1.9314-1.9321-.517-.083.31-54.7147,22.886-13.115-13.1434L80.3162,274.7064a11.2016,11.2016,0,0,1-15.8668,0L50.2882,260.515a11.27,11.27,0,0,1,0-15.913l105.68-105.9053-3.9121-3.92a10.8736,10.8736,0,0,1-2.804-10.4886l15.6558-58.5528a10.8426,10.8426,0,0,1,7.658-7.6759L230.9941,42.37a10.804,10.804,0,0,1,10.4574,2.8085l1.4156-1.4128-1.6134,1.1819,32.1328,43.86L275,87.626l-1.9321-.5169-.24.8979,1.9321.5169.519-1.9315L231.6265,74.86A37.6471,37.6471,0,0,0,185.5087,101.54Z"/></svg>