<svg xmlns="http://www.w3.org/2000/svg" viewBox="0 0 320 320"><defs><style>.a{fill:#1a1a1a;}</style></defs><title>flat-mug-filled</title><path  d="M280,140c0-26.6665-16.625-51.9937-46.6665-61.2876V65a5,5,0,0,0-5-5H85a5,5,0,0,0-5,5V218.4126S80,260,120,260h73.3335s40,0,40-40V210C253.3335,200,280,172.4541,280,140Zm-46.6665,46.6665V100c15.167,5.918,27.6187,18.606,27.6187,40C260.9521,160.4448,249.91,177.4,233.3335,186.6665Z"/><path  d="M280,140h2a64.8666,64.8666,0,0,0-12.4528-38.3385c-8.1621-11.175-20.2095-20.0947-35.6226-24.86l-.5911,1.9108h2V65a7.0008,7.0008,0,0,0-7-7H85a7.0008,7.0008,0,0,0-7,7V218.4126a55.3963,55.3963,0,0,0,5.1976,21.66,38.1443,38.1443,0,0,0,12.5381,15.0726C101.7031,259.2894,109.657,262.0067,120,262h73.3335a51.6921,51.6921,0,0,0,20.8944-5.2111,37.1073,37.1073,0,0,0,14.52-12.5544c3.9846-5.9677,6.5917-13.9049,6.5859-24.2344V210h-2l.8944,1.7888c10.3264-5.1718,22.1688-14.7177,31.5375-27.1667C275.1181,172.1791,281.9949,156.7877,282,140h-4c.005,15.6663-6.4514,30.2748-15.4319,42.2184-8.9646,11.9374-20.4554,21.1644-30.129,25.9927A1.9964,1.9964,0,0,0,231.3335,210c0,4.812,0,6.3612,0,10-.0059,9.67-2.3987,16.733-5.9141,22.0155a31.999,31.999,0,0,1-9.437,9.183,44.3446,44.3446,0,0,1-15.3206,5.9487,48.8482,48.8482,0,0,1-5.3409.7482c-.6484.053-1.157.0792-1.4976.092-.17.0065-.2986.01-.3815.0111l-.09.0012-.0187,0S158.0952,258,120,258c-9.6572-.0068-16.7032-2.4879-21.9857-6.1418A32.77,32.77,0,0,1,88.82,242.033a47.3545,47.3545,0,0,1-5.9648-15.9718,52.8113,52.8113,0,0,1-.75-5.57c-.0532-.6765-.08-1.2076-.0925-1.5638-.0065-.1781-.01-.3126-.0112-.4L82,218.4335l0-.0209V65a3,3,0,0,1,3-3H228.3335a3,3,0,0,1,3,3V78.7124a2.002,2.002,0,0,0,1.4089,1.9106c14.6285,4.5287,25.9143,12.92,33.5751,23.3983A60.865,60.865,0,0,1,278,140Zm-46.6665,46.6665h2V100h-2l-.7271,1.8632a42.4336,42.4336,0,0,1,18.632,13.5439c4.74,6.2443,7.7059,14.2822,7.7137,24.5929a50.5986,50.5986,0,0,1-7.3025,26.4866,52.3286,52.3286,0,0,1-19.2921,18.4341l.9759,1.7458h0l.9758,1.7457a56.3291,56.3291,0,0,0,20.7587-19.8484A54.6086,54.6086,0,0,0,262.9521,140c.0078-11.0835-3.2519-20.0865-8.53-27.0143A46.4229,46.4229,0,0,0,234.06,98.1367,2,2,0,0,0,231.3335,100c0,25.2251,0,60.3959,0,86.6665a2,2,0,0,0,2.9758,1.7457Z"/></svg>