<svg xmlns="http://www.w3.org/2000/svg" viewBox="0 0 320 320"><defs><style>.a{fill:#1a1a1a;}</style></defs><title>flat-enlarge</title><path  d="M270,270l1.94-.4851L258.782,216.88l-3.6277-.5887-10.1763,15.99L193.2468,180.55V144.2964a17.4457,17.4457,0,0,0-17.4451-17.4453H139.5481L87.719,75.0211l15.99-10.1751-.5889-3.6276L47.251,47.2516,61.2178,103.12l3.6277.5887,10.176-15.99,52.2234,52.2242,0,35.4645A17.4462,17.4462,0,0,0,144.69,192.853h35.4644l52.1257,52.1257-15.9893,10.1752.5889,3.6276,55.8687,13.9672-.8086-3.2339L270,270l.4849-1.94-48.12-12.03,16.27-10.3533L181.8115,188.853H144.69a13.446,13.446,0,0,1-13.4456-13.4458V138.286L74.3235,81.3643,63.97,97.6338,52.7485,52.7487,97.6338,63.97,81.3645,74.3236l56.5264,56.5274h37.9109a13.4456,13.4456,0,0,1,13.4453,13.4453V182.207l56.4282,56.4285,10.3547-16.27,12.03,48.12L270,270l.4849-1.94Z"/></svg>