<svg xmlns="http://www.w3.org/2000/svg" viewBox="0 0 320 320">
  <defs>
    <style>
      .cls-1 {
        fill: #1a1a1a;
      }
    </style>
  </defs>
  <title>flat-folder</title>
  <g id="Layer_16" data-name="Layer 16">
    <path class="cls-1" d="M286.7646,92.2583v4a7.059,7.059,0,0,1,5.1169,2.1782A7.5087,7.5087,0,0,1,294,103.66a7.7454,7.7454,0,0,1-.145,1.4849L265.393,250.8538l-.0034.0118.0291.0173-.0161-.0277-.0129.01.0291.0173-.0161-.0277.0627.108v-.1243l-.0627.0163.0627.108v3.8757l3.8126-1.21L217.6763,91.0482a4.0063,4.0063,0,0,0-3.8126-2.79H142.3123l-9.8933-10.065h83.4775a6.9856,6.9856,0,0,1,4.2513,1.4449,7.3071,7.3071,0,0,1,2.5875,3.81l2.8393,9.9113a3.9946,3.9946,0,0,0,3.8453,2.8984h57.3447v-8h-54.33l-2.0091-7.0132a15.3109,15.3109,0,0,0-5.4247-7.9666,14.992,14.992,0,0,0-9.1046-3.0852H122.8784a4,4,0,0,0-2.8527,6.804l17.7568,18.0649a4.0143,4.0143,0,0,0,2.8527,1.196h70.3013l50.7161,159.7906a4.0062,4.0062,0,0,0,3.8126,2.79,7.8847,7.8847,0,0,0,5.0567-1.8375,8.0047,8.0047,0,0,0,2.7227-4.6143l28.4619-145.7091A15.7459,15.7459,0,0,0,302,103.66a15.5072,15.5072,0,0,0-4.3755-10.7931,15.0778,15.0778,0,0,0-10.86-4.6085Zm-76.13,0v-4H142.4731a.399.399,0,0,1-.2855-.1268L125.731,71.3893l-7.5792-7.71a8.3989,8.3989,0,0,0-5.99-2.5181H22.44a8.3651,8.3651,0,0,0-3.3694.7044,8.465,8.465,0,0,0-3.6859,3.1409,8.5482,8.5482,0,0,0-.9756,7.2768L72.01,252.9329a8.506,8.506,0,0,0,3.044,4.2592,8.3829,8.3829,0,0,0,4.9872,1.6467H265.4653a4,4,0,0,0,3.8126-5.21L218.669,94.1747a8.5071,8.5071,0,0,0-3.0435-4.2668,8.3835,8.3835,0,0,0-4.9912-1.65v8l.2307.079a.5041.5041,0,0,1,.1791.258l48.9551,154.2435H80.0415l-.23-.0788a.5032.5032,0,0,1-.1789-.2573L22.0307,69.8522,22,69.6676a.5665.5665,0,0,1,.1566-.3825l.1318-.0952.1516-.0287h89.7222a.397.397,0,0,1,.2842.1259l7.58,7.71L136.4828,93.74a8.4018,8.4018,0,0,0,5.99,2.5182h68.1611Z"/>
  </g>
</svg>
