<svg xmlns="http://www.w3.org/2000/svg" viewBox="0 0 320 320">
  <defs>
    <style>
      .cls-1 {
        fill: #1a1a1a;
      }
    </style>
  </defs>
  <title>flat-tag</title>
  <g id="Layer_16" data-name="Layer 16">
    <path  d="M184,280l2.8284-2.8284L44,134.343V44h90.343l140,140-93.1714,93.1717L184,280l2.8284-2.8284L184,280l2.8284,2.8284,96-96a4,4,0,0,0,0-5.6568l-144-144A4.0266,4.0266,0,0,0,136,36H40a4,4,0,0,0-4,4v96a4.0261,4.0261,0,0,0,1.1714,2.8284l144,144a4,4,0,0,0,5.657,0ZM74.3828,54.1914v-4A24.1914,24.1914,0,1,0,91.4885,57.277a24.1326,24.1326,0,0,0-17.1057-7.0856v8a16.1917,16.1917,0,1,1-11.4492,4.7424,16.1234,16.1234,0,0,1,11.4492-4.7424Z"/>
  </g>
</svg>
