<svg xmlns="http://www.w3.org/2000/svg" viewBox="0 0 320 320"><defs><style>.a{fill:#1a1a1a;}</style></defs><title>flat-pencil-filled</title><path  d="M112.5688,22.6C98.8545,30.7031,77.9717,42.5479,77.9717,42.5479s-13.7139,8.1035-6.2334,21.5059S87.0107,90.8584,87.0107,90.8584a7.9094,7.9094,0,0,0,10.9087,2.8057c6.8574-4.0518,41.4546-24,48.3115-28.0518s3.1167-10.5977,3.1167-10.5977L134.0752,28.21C134.0752,27.8984,126.2832,14.4961,112.5688,22.6Z"/><path  d="M153.6489,78.4385c-6.8569,4.0527-41.4541,24-48.311,28.0518s-3.1167,10.5977-3.1167,10.5977,77.36,134.2891,81.4121,140.835C191.4253,271.3252,249.3989,300,249.3989,300s4.0518-64.8311-3.4287-78.2334c-3.74-6.5449-81.4121-140.834-81.4121-140.834S160.5063,74.3867,153.6489,78.4385Z"/><path  d="M112.5688,22.6l-1.0175-1.7219c-6.8425,4.0431-15.4877,9.0278-22.4185,13-3.4656,1.986-6.5031,3.719-8.6738,4.9553-1.0854.6182-1.9542,1.1122-2.5515,1.4517s-.9218.5234-.9227.5239l-.012.0067-.0187.0111a22.3921,22.3921,0,0,0-4.6964,3.9594,19.5822,19.5822,0,0,0-3.2388,4.7781,15.4669,15.4669,0,0,0-1.5135,6.6318,18.0247,18.0247,0,0,0,2.4864,8.8331c7.4915,13.422,15.2866,26.83,15.29,26.8352l-.0074-.0129A10.7409,10.7409,0,0,0,87.36,94.3326a10.1785,10.1785,0,0,0,2.5886,1.6918,8.9977,8.9977,0,0,0,3.7032.7937,11.1964,11.1964,0,0,0,5.1923-1.3807l.045-.0236.0475-.028c3.4084-2.0139,13.78-8.0184,24.1407-14.0168,10.3662-6.0016,20.7221-11.9971,24.1709-14.0349a10.6332,10.6332,0,0,0,4.0309-3.9667,8.81,8.81,0,0,0,1.0865-4.2911,10.8641,10.8641,0,0,0-.62-3.5439,9.5518,9.5518,0,0,0-.6612-1.51l.0012.0022L135.8129,27.22l-1.7377.99h2a2,2,0,0,0-.04-.3992,2.09,2.09,0,0,0-.0873-.3108,2.75,2.75,0,0,0-.11-.26,8.3974,8.3974,0,0,0-.483-.8394,20.4327,20.4327,0,0,0-4.6345-5.0054A15.6941,15.6941,0,0,0,121.1186,18a18.7377,18.7377,0,0,0-9.5674,2.8778L112.5688,22.6l1.0176,1.7217A14.7489,14.7489,0,0,1,121.1186,22a10.9922,10.9922,0,0,1,4.7021,1.0609A15.0412,15.0412,0,0,1,130.67,26.82a15.5359,15.5359,0,0,1,1.2532,1.64c.1345.205.2316.3689.28.4576l.0258.048.0032.0063,1.0207-.4875-1.0566.4021.0359.0854,1.0207-.4875-1.0566.4021,1.6483-.6272-1.7.4677.0519.16,1.6483-.6272-1.7.4677,1.8791-.517h-1.9482a1.86,1.86,0,0,0,.0692.5168l1.8791-.517h-1.9482v.53L147.61,56.0046l.0012.0022.5947-.34-.6006.3293.006.01.5947-.34-.6006.3293a7.1594,7.1594,0,0,1,.7606,3.08,4.7979,4.7979,0,0,1-.5888,2.3588,6.6437,6.6437,0,0,1-2.5635,2.4553c-3.4081,2.0139-13.7792,8.0184-24.14,14.0168C110.707,83.9088,100.351,89.9043,96.902,91.9421l1.0174,1.7219-.9249-1.7734a7.2064,7.2064,0,0,1-3.3427.9276,4.9845,4.9845,0,0,1-2.0666-.4437,6.5979,6.5979,0,0,1-2.1435-1.6038,7.2236,7.2236,0,0,1-.5542-.6927l-.1241-.1862-.0219-.0354-.0007-.0011-1.0871.6355,1.0933-.6248-.0062-.0107-1.0871.6355,1.0933-.6248-.0041-.0072-.0034-.0057c-.0013-.0023-.4855-.8351-1.3319-2.2993-2.5392-4.3925-8.3212-14.4382-13.9232-24.475a14.0261,14.0261,0,0,1-1.9792-6.8837,11.4584,11.4584,0,0,1,1.1321-4.9271,16.7972,16.7972,0,0,1,3.991-5.1929,19.38,19.38,0,0,1,1.7183-1.377c.2156-.1528.3863-.266.4981-.338l.1216-.0768.0243-.0148-.1152-.191.1134.192.0018-.001-.1152-.191.1134.192-1.0174-1.7218.9867,1.74c.0052-.0031,20.8871-11.847,34.6279-19.9661Z"/><path  d="M153.6489,78.4385l-1.0176-1.7218c-3.4079,2.0143-13.7792,8.0188-24.14,14.0171-10.3662,6.0015-20.7221,11.9967-24.1709,14.0345a10.6352,10.6352,0,0,0-4.0309,3.9669,8.8086,8.8086,0,0,0-1.0866,4.2911,10.862,10.862,0,0,0,.6205,3.5438,9.5584,9.5584,0,0,0,.6613,1.51l.0034.006s19.34,33.5728,39.1874,67.9641c9.9236,17.1957,19.9737,34.5959,27.7969,48.1077,3.9116,6.7559,7.2664,12.5393,9.771,16.84,1.2523,2.1505,2.292,3.93,3.0834,5.2773.7933,1.35,1.33,2.2535,1.6058,2.7l1.7006-1.0526-1.7291,1.0051a27.184,27.184,0,0,0,5.4652,6.1472,136.2948,136.2948,0,0,0,16.6243,11.9868c19.5,12.36,44.4868,24.7134,44.5184,24.7306l2.6954,1.3333.1874-3.0012c.0012-.0238,1.099-17.5791,1.0993-36.3676,0-8.6747-.2332-17.609-.9238-25.2412a95.3124,95.3124,0,0,0-1.4195-10.3054,26.7681,26.7681,0,0,0-2.4344-7.4186l-.0059-.0106-.004-.007c-3.75-6.5631-81.4148-140.8387-81.4173-140.8431l-.0134-.0231-.0173-.0281a11.106,11.106,0,0,0-2.1009-2.3739,10.3781,10.3781,0,0,0-2.543-1.6232,8.821,8.821,0,0,0-3.59-.7678,10.5556,10.5556,0,0,0-5.3931,1.6016l1.0176,1.7218,1.0176,1.7217a6.5649,6.5649,0,0,1,3.3579-1.0452,4.8126,4.8126,0,0,1,1.97.4252,6.86,6.86,0,0,1,2.1432,1.56,7.5906,7.5906,0,0,1,.5706.6754l.13.1825.0236.0356.0011.0017,1.0429-.6593-1.049.6494.0061.01,1.0429-.6593-1.049.6494,1.7006-1.0525-1.7313,1.0013.8732,1.51c8.5446,14.7731,77.038,133.1973,80.5337,139.3152l1.7365-.9922-1.7465.9746a23.2233,23.2233,0,0,1,2.0089,6.2729,115.4835,115.4835,0,0,1,1.78,15.6777c.35,6.0287.4815,12.6145.4814,19.0652,0,9.3179-.2729,18.355-.5461,25.0575-.1366,3.3513-.2731,6.1193-.3754,8.048-.0511.9644-.0937,1.7189-.1235,2.2317s-.0465.78-.0466.781l1.9962.1248.8867-1.7927c-.0006,0-.2214-.1095-.6451-.3214-3.1769-1.5885-17.6036-8.8733-32.1055-17.3042-7.249-4.2137-14.5187-8.7168-20.3823-12.9111a85.5375,85.5375,0,0,1-7.5435-5.9594,22.3865,22.3865,0,0,1-4.2469-4.7936l-.0156-.0267-.0129-.0208c-.2305-.3721-.7732-1.2845-1.5582-2.6208-5.9085-10.0559-25.87-44.6068-44.3462-76.6288-9.2387-16.0123-18.1075-31.3951-24.6667-42.7748-3.28-5.69-5.9817-10.3789-7.864-13.6456-.9412-1.6333-1.6773-2.9109-2.1782-3.78l-.7664-1.33.0034.006-.5867.3352.5927-.3247-.006-.01-.5867.3352.5927-.3247a7.1578,7.1578,0,0,1-.7607-3.08,4.7969,4.7969,0,0,1,.5889-2.3586,6.6453,6.6453,0,0,1,2.5638-2.4558c3.408-2.0138,13.7791-8.0181,24.14-14.0164,10.3662-6.0015,20.722-11.9969,24.1711-14.0354Z"/></svg>