<svg xmlns="http://www.w3.org/2000/svg" viewBox="0 0 320 320"><defs><style>.a{fill:#1a1a1a;}</style></defs><title>flat-enlarge-filled</title><polygon class="a" points="270 270 256.842 217.365 245.327 235.458 191.247 181.378 191.247 128.851 138.72 128.851 84.542 74.672 102.635 63.159 50 50 63.158 102.635 74.673 84.542 129.245 139.114 129.245 190.853 180.983 190.853 235.458 245.328 217.365 256.841 270 270"/><path class="a" d="M270,270l1.94-.4851L258.782,216.88a2,2,0,0,0-3.6277-.5887l-10.1763,15.99L193.2468,180.55V128.8511a2,2,0,0,0-2-2h-51.699L87.719,75.0211l15.99-10.1751a2,2,0,0,0-.5889-3.6276L50.4849,48.06A2,2,0,0,0,48.06,50.485L61.2178,103.12a2,2,0,0,0,3.6277.5887l10.176-15.99,52.2236,52.2243v50.91a2,2,0,0,0,2,2h50.91l52.1257,52.1257-15.9893,10.1752a2,2,0,0,0,.5889,3.6276L269.5149,271.94a2,2,0,0,0,2.4253-2.4254L270,270l.4849-1.94-48.12-12.03,14.1665-9.0148a2,2,0,0,0,.34-3.1016l-54.4746-54.4746a2.0134,2.0134,0,0,0-1.4141-.5858H131.2449V139.1143a1.987,1.987,0,0,0-.5857-1.4142L76.0869,83.1273a2,2,0,0,0-3.1016.34L63.97,97.6339,52.7485,52.7487,97.6338,63.97,83.468,72.985a2,2,0,0,0-.34,3.1015l54.1777,54.1787a2.0129,2.0129,0,0,0,1.4143.5858h50.5273v50.5274a2.0125,2.0125,0,0,0,.5857,1.4142l54.08,54.08a2,2,0,0,0,3.1016-.34l9.0156-14.1666,12.03,48.1194L270,270l.4849-1.94Z"/></svg>