<svg xmlns="http://www.w3.org/2000/svg" viewBox="0 0 320 320">
  <defs>
    <style>
      .cls-1 {
        fill: #1a1a1a;
      }
    </style>
  </defs>
  <title>flat-folder-filled</title>
  <g id="Layer_16" data-name="Layer 16">
    <g>
      <path class="cls-1" d="M211.2988,93.7217H144.61a4.3053,4.3053,0,0,1-3.07-1.2935L125.439,76.0474l-7.4155-7.5435a4.3033,4.3033,0,0,0-3.0693-1.2935H27.1709a4.4041,4.4041,0,0,0-4.1289,5.7788L79.3989,249.7363a4.3482,4.3482,0,0,0,4.1289,3.0532H264.9453L215.43,96.7808A4.3491,4.3491,0,0,0,211.2988,93.7217Z"/>
      <path class="cls-1" d="M291.8345,87.1567h-56.106L232.95,77.46a10.9154,10.9154,0,0,0-10.4531-7.9771H134.49l14.6274,14.88a2.15,2.15,0,0,0,1.543.6533h66.6885a6.47,6.47,0,0,1,6.1709,4.5522l49.5254,156.0405a3.8984,3.8984,0,0,0,1.7207-2.5332l27.8467-142.561A11.1273,11.1273,0,0,0,291.8345,87.1567Z"/>
      <path class="cls-1" d="M211.2988,93.7217v-2H144.61a2.3046,2.3046,0,0,1-1.6439-.6959l-16.1012-16.38L119.45,67.1018a6.3039,6.3039,0,0,0-4.4955-1.8914H27.1709a6.2736,6.2736,0,0,0-4.5422,1.9382,6.4534,6.4534,0,0,0-1.492,6.4489L77.4934,250.3439a6.3488,6.3488,0,0,0,6.0344,4.4456h184.15L217.3359,96.1757a6.35,6.35,0,0,0-6.0371-4.454v4a2.3486,2.3486,0,0,1,2.2245,1.6641l48.6888,153.4038H83.5278a2.3477,2.3477,0,0,1-2.2233-1.6605L24.9474,72.3817a2.4951,2.4951,0,0,1-.1207-.7623,2.4657,2.4657,0,0,1,.6866-1.7,2.2621,2.2621,0,0,1,1.6575-.7092h87.7832a2.3025,2.3025,0,0,1,1.6429.6954l7.4156,7.5435L140.1142,93.83a6.3062,6.3062,0,0,0,4.4962,1.8914h66.6885Z"/>
      <path class="cls-1" d="M291.8345,87.1567v-2H237.2358l-2.363-8.2477a12.9162,12.9162,0,0,0-12.3757-9.4261H134.49l-1.4263,3.402,14.6274,14.88a4.1561,4.1561,0,0,0,2.9693,1.2513h66.6885a4.467,4.467,0,0,1,4.2646,3.1574L271.93,248.7073l2.1985-1.4168a5.9,5.9,0,0,0,2.6-3.8306l27.8467-142.5613a13.482,13.482,0,0,0,.2514-2.5862,13.26,13.26,0,0,0-3.7411-9.2279,12.8333,12.8333,0,0,0-9.251-3.9277v4a8.8241,8.8241,0,0,1,6.38,2.7126,9.2608,9.2608,0,0,1,2.6125,6.4431,9.4818,9.4818,0,0,1-.1773,1.8193l-27.8467,142.561a1.8963,1.8963,0,0,1-.8412,1.2355l1.0834,1.6812,1.9063-.605L225.4258,88.9638a8.4727,8.4727,0,0,0-8.0771-5.9472H150.66l-.1165-.0551L139.26,71.4829h83.2369a8.9147,8.9147,0,0,1,8.53,6.528l3.1935,11.1458h57.6135Z"/>
    </g>
  </g>
</svg>
