<svg xmlns="http://www.w3.org/2000/svg" viewBox="0 0 320 320"><defs><style>.a{fill:#1a1a1a;}</style></defs><title>flat-phone</title><path class="a" d="M101.4834,137.4019l1.4756,3.7178a19.535,19.535,0,0,0,3.5537-1.9119,51.5062,51.5062,0,0,0,5.804-4.6581c2.8525-2.5768,5.69-5.392,8.3176-7.6808a41.1264,41.1264,0,0,1,3.69-2.9207,12.2165,12.2165,0,0,1,2.82-1.5224,73.3354,73.3354,0,0,1,14.3757-2.8738,172.4784,172.4784,0,0,1,36.96,0,73.3313,73.3313,0,0,1,14.3755,2.8738,10.28,10.28,0,0,1,2.042,1.0147,37.7238,37.7238,0,0,1,4.8442,3.7587c2.65,2.3384,5.4932,5.1636,8.35,7.7175a55.9887,55.9887,0,0,0,4.3391,3.5568,21.5932,21.5932,0,0,0,4.61,2.6463,17.6812,17.6812,0,0,0,4.3738,1.0224,39.9636,39.9636,0,0,0,4.7083.25,87.3224,87.3224,0,0,0,12.5164-1.0376c1.91-.3,5.0645-.78,8.1926-1.5921a30.8958,30.8958,0,0,0,4.627-1.5526,15.7081,15.7081,0,0,0,2.1687-1.15,9.7083,9.7083,0,0,0,2.0149-1.6927,18.415,18.415,0,0,0,3.0889-5.1808,43.247,43.247,0,0,0,2.5359-9.4389,62.363,62.363,0,0,0,.8059-9.8161,35.6672,35.6672,0,0,0-.6326-7.2032l0-.0018a18.5486,18.5486,0,0,0-1.291-3.7754,38.5042,38.5042,0,0,0-3.8813-6.47,72.4606,72.4606,0,0,0-7.9541-9.1175c-1.4121-1.3752-2.8286-2.6472-4.2031-3.7711a37.9474,37.9474,0,0,0-3.9868-2.8921,41.7079,41.7079,0,0,0-9.16-3.915,136.4352,136.4352,0,0,0-16.7615-3.8933c-5.6272-.99-10.925-1.694-14.7207-2.1437-4.9937-.5909-11.1565-1.0238-17.9355-1.3139C174.7688,66.1441,167.3848,66,160,66s-14.77.1441-21.5461.4336c-6.7791.29-12.9417.723-17.9353,1.3139-5.062.6-12.7888,1.65-20.417,3.2315-3.8164.7923-7.6079,1.7162-11.0649,2.8054a41.7082,41.7082,0,0,0-9.1606,3.915,44.9091,44.9091,0,0,0-6.1743,4.7737A74.5512,74.5512,0,0,0,64.41,92.5645a45.5323,45.5323,0,0,0-3.6287,5.5312,21.3044,21.3044,0,0,0-2.2212,5.63,35.6021,35.6021,0,0,0-.6338,7.205,61.4409,61.4409,0,0,0,1.4419,13.1046,38.1809,38.1809,0,0,0,1.9,6.1506,18.4129,18.4129,0,0,0,3.09,5.1813l-.0007-.0007a9.7083,9.7083,0,0,0,2.0149,1.6927,18.578,18.578,0,0,0,3.8711,1.82,46.0637,46.0637,0,0,0,6.1077,1.6085c1.9609.3934,3.7612.6712,5.0093.8663a87.3039,87.3039,0,0,0,12.5164,1.0377,39.9622,39.9622,0,0,0,4.708-.25,17.6921,17.6921,0,0,0,4.374-1.0223l-1.4753-3.7179-1.4756-3.7179a10.1543,10.1543,0,0,1-2.3779.5153,32.1658,32.1658,0,0,1-3.7532.1924,79.7227,79.7227,0,0,1-11.2822-.9419c-1.8955-.2943-4.804-.75-7.4128-1.43a23.2043,23.2043,0,0,1-3.4119-1.13,7.84,7.84,0,0,1-1.0625-.5543,2.9967,2.9967,0,0,1-.2791-.2l-.0886-.08-.0007-.0007a10.7509,10.7509,0,0,1-1.6824-2.9359,35.5385,35.5385,0,0,1-2.0286-7.6564,54.4465,54.4465,0,0,1-.7021-8.531,28.1009,28.1009,0,0,1,.4575-5.5342,10.743,10.743,0,0,1,.7488-2.1321,30.7786,30.7786,0,0,1,3.0781-5.09,64.6136,64.6136,0,0,1,7.0579-8.0806c1.26-1.2281,2.5164-2.3532,3.6848-3.3084a30.21,30.21,0,0,1,3.1257-2.2785,34.3372,34.3372,0,0,1,7.3633-3.0924A128.8951,128.8951,0,0,1,107.1846,77.77c5.4211-.9541,10.5867-1.6415,14.2749-2.0781,4.6858-.5556,10.6956-.9825,17.3357-1.2657C145.4377,74.1425,152.7192,74,160,74s14.5615.1425,21.2039.4263c6.64.2832,12.65.71,17.3362,1.2657,4.9165.5815,12.4651,1.6116,19.7329,3.12,3.6316.7529,7.1931,1.6268,10.2849,2.602a34.3361,34.3361,0,0,1,7.363,3.0924,37.3436,37.3436,0,0,1,5.0222,3.91,66.7049,66.7049,0,0,1,8.2629,8.9693,37.667,37.667,0,0,1,2.99,4.5423,13.6742,13.6742,0,0,1,1.42,3.4685l0-.0018a28.15,28.15,0,0,1,.4573,5.5358,53.6108,53.6108,0,0,1-1.2449,11.3385,30.292,30.292,0,0,1-1.4858,4.8491,10.7525,10.7525,0,0,1-1.6821,2.9361l-.0889.0807a7.4992,7.4992,0,0,1-1.8784.9778,33.85,33.85,0,0,1-5.2432,1.4548c-1.8843.39-3.7065.6735-5.0447.8822a79.7435,79.7435,0,0,1-11.2825.9419,32.1689,32.1689,0,0,1-3.7537-.1924,10.1472,10.1472,0,0,1-2.3767-.5151,11.7477,11.7477,0,0,1-2.0811-1.1417,44.1377,44.1377,0,0,1-4.8684-3.9319c-2.66-2.3977-5.5193-5.2391-8.4194-7.771a48.79,48.79,0,0,0-4.43-3.4939,19.88,19.88,0,0,0-4.78-2.5,80.8034,80.8034,0,0,0-16.0178-3.2412,180.4455,180.4455,0,0,0-38.7917,0,80.8063,80.8063,0,0,0-16.0181,3.2412,18.0855,18.0855,0,0,0-3.6912,1.79,45.1671,45.1671,0,0,0-5.9333,4.5674c-2.8931,2.5585-5.7451,5.3937-8.3821,7.746-1.3147,1.1748-2.5723,2.2259-3.7058,3.0469a13.9744,13.9744,0,0,1-2.866,1.6876Z"/><path class="a" d="M160,170.2427v-4a23.8383,23.8383,0,0,0-16.5605,6.6195,22.2426,22.2426,0,0,0,0,32.294,24.0257,24.0257,0,0,0,33.1208,0,22.2426,22.2426,0,0,0,0-32.294A23.8382,23.8382,0,0,0,160,166.2427v8a15.8342,15.8342,0,0,1,11.0137,4.3845,14.243,14.243,0,0,1,0,20.7638,16.0259,16.0259,0,0,1-22.0276,0,14.243,14.243,0,0,1,0-20.7638A15.8344,15.8344,0,0,1,160,174.2427Z"/><path class="a" d="M238.0225,155.07l2.5269-3.1008a8.3619,8.3619,0,0,0-3.3909-1.6131,14.2326,14.2326,0,0,0-3.2759-.3418,48.0884,48.0884,0,0,0-7.0957.7481c-1.1284.1756-2.2112.3441-3.19.464a21.43,21.43,0,0,1-2.5237.1891,4.4166,4.4166,0,0,1-1.24-.1227,12.2459,12.2459,0,0,1-2.5862-1.3451,44.8683,44.8683,0,0,1-5.8713-4.855c-3.1758-2.9969-6.5527-6.587-9.97-9.7778a56.7223,56.7223,0,0,0-5.2156-4.3895,22.1329,22.1329,0,0,0-5.615-3.0909,67.8526,67.8526,0,0,0-13.8577-2.89,151.3286,151.3286,0,0,0-33.4338,0,67.834,67.834,0,0,0-13.8569,2.89,20.047,20.047,0,0,0-4.335,2.2057,52.27,52.27,0,0,0-6.9846,5.7333c-3.41,3.2252-6.7805,6.8061-9.9326,9.7425a49.0506,49.0506,0,0,1-4.4634,3.7692,14.4691,14.4691,0,0,1-3.543,2.0072,4.4177,4.4177,0,0,1-1.2419.123,21.4378,21.4378,0,0,1-2.5242-.1891c-1.4695-.18-3.1658-.47-4.9141-.7267a37.9654,37.9654,0,0,0-5.3711-.4855,14.23,14.23,0,0,0-3.2759.3419,8.3543,8.3543,0,0,0-3.3914,1.6144l.0015-.0012a28.8964,28.8964,0,0,0-4.218,4.3891,70.591,70.591,0,0,0-6.9348,10.9328,122.2439,122.2439,0,0,0-8.6021,21.1154c-2.2349,7.4341-3.6875,14.8865-3.6958,21.5065a34.44,34.44,0,0,0,.5286,6.26,21.0214,21.0214,0,0,0,1.8252,5.6248,34.0744,34.0744,0,0,0,9.24,11.0285,70.2386,70.2386,0,0,0,18.1975,10.0978c3.0022,1.1847,5.8577,2.1538,8.3608,2.9436,2.5007.789,4.656,1.4007,6.2134,1.8543a155.8176,155.8176,0,0,0,26.8789,4.7281C137.5,253.4857,148.7483,254,160,254s22.5-.5144,32.7561-1.55a155.8231,155.8231,0,0,0,26.8792-4.7281c2.0789-.6058,5.2095-1.4885,8.8262-2.7052a91.5328,91.5328,0,0,0,18.0742-8.0954,49.4238,49.4238,0,0,0,8.5745-6.47,31.9509,31.9509,0,0,0,6.5366-8.6546,21.04,21.04,0,0,0,1.824-5.6241,34.4364,34.4364,0,0,0,.5286-6.26,69.38,69.38,0,0,0-2.241-16.2054,121.5216,121.5216,0,0,0-9.116-24.5852,83.9842,83.9842,0,0,0-5.8457-10.0234,34.7877,34.7877,0,0,0-6.2471-7.13l-2.5271,3.1006-2.5273,3.1006a21.17,21.17,0,0,1,3.0166,3.1747,62.8963,62.8963,0,0,1,6.1108,9.6724,114.3663,114.3663,0,0,1,8.0217,19.6987c2.0884,6.902,3.3635,13.7672,3.3552,19.1967a26.5349,26.5349,0,0,1-.3945,4.8A13.1142,13.1142,0,0,1,254.5,218.203a26.1608,26.1608,0,0,1-7.12,8.4006,62.5313,62.5313,0,0,1-16.1069,8.8793c-2.7764,1.0957-5.4551,2.0063-7.8311,2.7558-2.3779.75-4.4453,1.3374-6.0435,1.8028a148.3431,148.3431,0,0,1-25.4456,4.4494C182.0144,245.4948,171.0061,246,160,246s-22.0149-.5053-31.9526-1.5093a148.339,148.339,0,0,1-25.4453-4.4493c-2.1282-.62-5.1028-1.46-8.5129-2.6069a83.7761,83.7761,0,0,1-16.4749-7.3522,41.4953,41.4953,0,0,1-7.189-5.4061,23.9809,23.9809,0,0,1-4.925-6.4734l0-.0008a13.0958,13.0958,0,0,1-1.1057-3.4883,26.5311,26.5311,0,0,1-.3945-4.8,61.6625,61.6625,0,0,1,2.0088-14.2912,113.6594,113.6594,0,0,1,8.5-22.9129,76.1375,76.1375,0,0,1,5.2734-9.0575,27.337,27.337,0,0,1,4.7231-5.4809l.0015-.0012-.36-.4411.2966.4868.0632-.0457-.36-.4411.2966.4868-.1052-.1723.0957.1778.01-.0055-.1052-.1723.0957.1778.0974-.0373a5.5784,5.5784,0,0,1,1.5857-.169,41.86,41.86,0,0,1,5.8665.6532c1.125.1747,2.283.3566,3.4434.4993a29.0571,29.0571,0,0,0,3.5.2488,11.7718,11.7718,0,0,0,3.873-.5681,20.0442,20.0442,0,0,0,4.3357-2.2061,52.2761,52.2761,0,0,0,6.9846-5.7334c3.41-3.2252,6.7805-6.8061,9.9326-9.7424a49.0068,49.0068,0,0,1,4.4634-3.769,14.47,14.47,0,0,1,3.5427-2.007,60.37,60.37,0,0,1,12.1663-2.5,143.3644,143.3644,0,0,1,31.5518,0,60.384,60.384,0,0,1,12.1672,2.5,12.2406,12.2406,0,0,1,2.5854,1.3447,44.8779,44.8779,0,0,1,5.8716,4.8548c3.1755,2.9968,6.5525,6.5869,9.97,9.7777a56.6983,56.6983,0,0,0,5.2156,4.39,22.1314,22.1314,0,0,0,5.615,3.0911,11.7625,11.7625,0,0,0,3.8728.5682,29.0557,29.0557,0,0,0,3.499-.2488c1.739-.2145,3.48-.5154,5.0974-.7513a30.7576,30.7576,0,0,1,4.2126-.4012,6.4916,6.4916,0,0,1,1.43.1261,1.4091,1.4091,0,0,1,.2451.0765l.0032-.0074-.0034.0062,0,.0011.0032-.0074-.0034.0062.2935-.4818-.356.4368.0625.045.2935-.4818-.356.4368ZM160,226.542v-4a35.67,35.67,0,0,1-24.7988-9.8881,32.4787,32.4787,0,0,1,0-47.2892,36.0413,36.0413,0,0,1,49.5979,0,32.4775,32.4775,0,0,1,0,47.2891A35.6712,35.6712,0,0,1,160,222.542v8a43.6744,43.6744,0,0,0,30.3455-12.1231,40.4766,40.4766,0,0,0,0-58.8193,44.04,44.04,0,0,0-60.6907,0,40.4776,40.4776,0,0,0,0,58.8192A43.6725,43.6725,0,0,0,160,230.542Z"/></svg>