<svg xmlns="http://www.w3.org/2000/svg" viewBox="0 0 320 320">
  <defs>
    <style>
      .cls-1 {
        fill: #1a1a1a;
      }
    </style>
  </defs>
  <title>flat-star-outline</title>
  <g id="Layer_16" data-name="Layer 16">
    <polygon class="cls-1" points="160 26.852 158.207 27.737 201.934 116.339 295.702 129.964 227.851 196.103 243.869 289.492 160 245.4 76.131 289.492 92.149 196.103 24.298 129.964 118.066 116.339 161.793 27.737 160 26.852 158.207 27.737 160 26.852 158.207 25.967 115.41 112.683 19.712 126.589 18.604 130 87.851 197.499 71.504 292.81 74.406 294.918 160 249.919 245.594 294.918 248.496 292.81 232.149 197.499 301.396 130 300.288 126.589 204.59 112.683 161.793 25.967 158.207 25.967 160 26.852"/>
  </g>
</svg>
