<svg xmlns="http://www.w3.org/2000/svg" viewBox="0 0 320 320">
  <defs>
    <style>
      .cls-1 {
        fill: #1a1a1a;
      }
    </style>
  </defs>
  <title>flat-microphone-outline</title>
  <g id="Layer_16" data-name="Layer 16">
    <path  d="M195,78.9561h-2v68.1748a39.1523,39.1523,0,0,1-9.739,26.2094,30.5474,30.5474,0,0,1-46.5221,0A39.1522,39.1522,0,0,1,127,147.1309V78.9561a39.1523,39.1523,0,0,1,9.739-26.2095,30.5474,30.5474,0,0,1,46.5221,0A39.1523,39.1523,0,0,1,193,78.9561h4a43.1466,43.1466,0,0,0-10.7635-28.8827,34.5439,34.5439,0,0,0-52.473,0A43.1465,43.1465,0,0,0,123,78.9561v68.1748a43.1464,43.1464,0,0,0,10.7635,28.8826,34.5439,34.5439,0,0,0,52.473,0A43.1466,43.1466,0,0,0,197,147.1309V78.9561Zm25,67.4785v-2H208v2A56.7891,56.7891,0,0,1,193.8676,184.45c-8.7195,9.6968-20.6736,15.6346-33.8676,15.6371-13.194-.0023-25.1481-5.94-33.8676-15.6371A56.7887,56.7887,0,0,1,112,146.4346v-2H98v2a72.7836,72.7836,0,0,0,16.4141,46.6118c10.1988,12.2675,24.43,20.4462,40.4029,21.9139L155,212.9688h-2v53.9H139.0767a22.8519,22.8519,0,0,0-16.9828,7.8077,4.4275,4.4275,0,0,0-1.131,2.9706,4.5425,4.5425,0,0,0,1.0448,2.9119,4.0607,4.0607,0,0,0,1.3093,1.0347,3.9338,3.9338,0,0,0,1.7485.4059h69.8691a3.935,3.935,0,0,0,1.7484-.4058,4.1506,4.1506,0,0,0,1.7633-1.69,4.5937,4.5937,0,0,0,.5909-2.2563,4.4271,4.4271,0,0,0-1.1313-2.9711,22.8512,22.8512,0,0,0-16.9824-7.8074H167v-53.9h-2l.1831,1.9916c15.9723-1.4678,30.204-9.6465,40.4029-21.9139A72.7837,72.7837,0,0,0,222,146.4346v-2h-2v2h-2a68.7881,68.7881,0,0,1-15.4894,44.0541c-9.6023,11.54-22.8706,19.125-37.6937,20.4884L163,211.1439V270.869h17.9233a18.8482,18.8482,0,0,1,14.0074,6.4813.4182.4182,0,0,1,.1064.2972.5711.5711,0,0,1-.1091.3408l-.0211.0215.0007.0009,0-.0007h0l.0007.0009,0-.0007.0429.0759-.0223-.0841-.0206.0082.0429.0759-.0223-.0841.018.0675-.009-.0693-.0089.0018.018.0675-.009-.0693H125.0628l-.0089.0773.04-.0665L125.0628,278l-.0089.0773.04-.0665-.0154-.0149a.5623.5623,0,0,1-.1156-.3483.4181.4181,0,0,1,.1061-.2969,18.8486,18.8486,0,0,1,14.0077-6.4816H157V211.1438l-1.8169-.1667c-14.8231-1.3633-28.0914-8.9482-37.6937-20.4884A68.7878,68.7878,0,0,1,102,146.4346h-2v2h10v-2h-2a60.7832,60.7832,0,0,0,15.1569,40.6885C132.5338,197.5685,145.58,204.0891,160,204.0868c14.42.0023,27.4661-6.5183,36.8431-16.9637A60.7835,60.7835,0,0,0,212,146.4346h-2v2h10v-2h0Z"/>
  </g>
</svg>
