<svg xmlns="http://www.w3.org/2000/svg" viewBox="0 0 320 320"><defs><style>.a{fill:#1a1a1a;}</style></defs><title>flat-drag-outline</title><polygon class="a" points="60 60 58 60 58 92 92 92 92 58 58 58 58 60 60 60 60 62 88 62 88 88 62 88 62 60 60 60 60 62 60 60"/><polyline class="a" points="73 190 73 210 77 210 77 190"/><polyline class="a" points="73 160 73 180 77 180 77 160"/><polyline class="a" points="73 130 73 150 77 150 77 130"/><polyline class="a" points="73 100 73 120 77 120 77 100"/><polyline class="a" points="233 190 233 210 237 210 237 190"/><polyline class="a" points="233 160 233 180 237 180 237 160"/><polyline class="a" points="233 130 233 150 237 150 237 130"/><polyline class="a" points="233 100 233 120 237 120 237 100"/><polyline class="a" points="190 77 210 77 210 73 190 73"/><polyline class="a" points="160 77 180 77 180 73 160 73"/><polyline class="a" points="130 77 150 77 150 73 130 73"/><polyline class="a" points="100 77 120 77 120 73 100 73"/><polyline class="a" points="190 237 210 237 210 233 190 233"/><polyline class="a" points="160 237 180 237 180 233 160 233"/><polyline class="a" points="130 237 150 237 150 233 130 233"/><polyline class="a" points="100 237 120 237 120 233 100 233"/><polygon class="a" points="230 230 228.06 230.485 238.06 270.485 241.414 271.414 250 262.828 260 272.828 272.828 260 262.828 250 271.414 241.414 270.485 238.06 227.251 227.252 228.06 230.485 230 230 229.515 231.94 266.088 241.084 257.171 250 267.171 260 260 267.172 250 257.172 241.083 266.088 231.94 229.515 230 230 229.515 231.94 230 230"/><polygon class="a" points="90 233 77 233 77 220 73 220 73 237 90 237 90 233 90 233"/><polygon class="a" points="220 77 233 77 233 90 237 90 237 73 220 73 220 77 220 77"/></svg>