<svg xmlns="http://www.w3.org/2000/svg" viewBox="0 0 320 320">
  <defs>
    <style>
      .cls-1 {
        fill: #1a1a1a;
      }
    </style>
  </defs>
  <title>flat-location</title>
  <g id="Layer_16" data-name="Layer 16">
    <path  d="M239.894,127.748l-3.7115,1.4915.106.2637L240,128.0117h-4a132.1378,132.1378,0,0,1-1.2108,18.2235c-3.9146,28.04-12.52,50.0773-25.0089,70.3145-12.49,20.2279-28.9449,38.6516-48.5127,59.0538l2.8872,2.7686v-4h0a4.0206,4.0206,0,0,0-2.8872,1.2314A1.2008,1.2008,0,0,1,160.37,276l-.0995-.0038a4.3483,4.3483,0,0,0-.5469,0L159.63,276a1.2,1.2,0,0,1-.8969-.3961,4.0213,4.0213,0,0,0-2.8875-1.2318h0v4l2.8871-2.7686c-19.5677-20.4021-36.0228-38.8259-48.5127-59.0538-12.4888-20.2372-21.0944-42.2748-25.0089-70.3143A132.1408,132.1408,0,0,1,84,128.0117H80l3.71,1.4962.106-.2627a3.9651,3.9651,0,0,0,.2855-1.6926c-.0062-.1138-.015-.4841-.0192-.937-.0046-.4586-.0066-1.0244-.0066-1.6338,0-1.2793.0084-2.7522.017-3.902s.0168-1.9736.0168-1.9756l-4-.0408,3.9951.1975a80.75,80.75,0,0,1,23.5443-53.4093,73.6661,73.6661,0,0,1,106.0325,1.3527A80.9936,80.9936,0,0,1,236,123.43q0,2.074-.1012,4.1232a3.9489,3.9489,0,0,0,.2837,1.6866l3.7115-1.4915,3.9951.1951q.1095-2.24.1107-4.5134a88.9969,88.9969,0,0,0-24.5443-61.7623A81.6654,81.6654,0,0,0,102.01,60.1765a88.751,88.751,0,0,0-25.8962,58.6893l-.0046.1567c0,.007-.0341,3.3353-.0341,5.9592,0,.6266.002,1.2134.0068,1.7137.0055.5062.012.9015.0284,1.25l3.9952-.1963-3.71-1.4963-.106.2627a4.064,4.064,0,0,0-.29,1.4963,140.0858,140.0858,0,0,0,1.2872,19.3271c4.0381,29.07,13.1134,52.366,26.126,73.4148,13.0115,21.058,29.8781,39.8718,49.5448,60.3868a4.021,4.021,0,0,0,2.8872,1.2316h0v-4l-2.8876,2.7681A9.2222,9.2222,0,0,0,159.63,284q.32,0,.6467-.0222l-.2767-3.99-.27,3.9908c.2054.0139.4186.0219.64.0219a9.2237,9.2237,0,0,0,6.6719-2.8595l-2.8871-2.7684v4h0a4.0212,4.0212,0,0,0,2.8871-1.2316c19.6667-20.5149,36.5333-39.3289,49.5448-60.3868,13.0126-21.0488,22.0879-44.345,26.126-73.4149A140.0828,140.0828,0,0,0,244,128.0117a4.0509,4.0509,0,0,0-.2885-1.4916l-.106-.2637-3.7114,1.4916,3.9951.1951ZM160,81.1338v-4A47.75,47.75,0,1,0,193.7644,91.12,47.6178,47.6178,0,0,0,160,77.1338v8a39.75,39.75,0,1,1-28.1075,11.6427A39.6082,39.6082,0,0,1,160,85.1337Z"/>
  </g>
</svg>
