<svg xmlns="http://www.w3.org/2000/svg" viewBox="0 0 320 320">
  <defs>
    <style>
      .cls-1 {
        fill: #1a1a1a;
      }
    </style>
  </defs>
  <title>flat-pin-filled</title>
  <g id="Layer_16" data-name="Layer 16">
    <g>
      <path class="cls-1" d="M40,280l60-84,24,24ZM52,148,172,268V196l60-60h48L184,40V88l-60,60Z"/>
      <path class="cls-1" d="M40,280l1.6274,1.1625,58.6277-82.079,20.661,20.6611L38.8374,278.3724,40,280l1.6274,1.1625L40,280l1.1625,1.6274,85.9213-61.3724L99.7446,192.9164l-61.3722,85.921,2.79,2.79ZM52,148l-1.4143,1.4142,120,120L174,268V196.8284L232.8284,138H280l1.4142-3.4142-96-96L182,40V87.1715L123.1714,146H52l-1.4143,3.4142L52,148v2h72.8284L186,88.8284v-44L275.1714,134h-44L170,195.1713v68L53.4142,146.5857,52,148v0Z"/>
    </g>
  </g>
</svg>
