<svg xmlns="http://www.w3.org/2000/svg" viewBox="0 0 320 320">
  <defs>
    <style>
      .cls-1 {
        fill: #1a1a1a;
      }
    </style>
  </defs>
  <title>flat-home-outline</title>
  <g id="Layer_16" data-name="Layer 16">
    <polygon  points="161.353 38.261 159.945 36.84 18.593 176.84 20 180.261 50.245 180.261 50.245 283.739 129.673 283.739 129.673 180.261 192.63 180.261 192.63 283.739 269.755 283.739 269.755 180.261 300 180.261 301.421 176.853 161.366 35.432 159.945 36.84 161.353 38.261 159.931 39.668 295.204 176.261 265.755 176.261 265.755 279.739 196.63 279.739 196.63 176.261 125.673 176.261 125.673 279.739 54.245 279.739 54.245 176.261 24.861 176.261 162.76 39.682 161.353 38.261 159.931 39.668 161.353 38.261"/>
  </g>
</svg>
