<svg xmlns="http://www.w3.org/2000/svg" viewBox="0 0 320 320">
  <defs>
    <style>
      .cls-1 {
        fill: #1a1a1a;
      }
    </style>
  </defs>
  <title>flat-arrow-left-filled</title>
  <g id="Layer_16" data-name="Layer 16">
    <g>
      <path  d="M150.8037,73.8789,73.7852,150.9141S70,153.92,70,160.2188a12.7055,12.7055,0,0,0,3.9414,8.8965L150.959,246.15a12.9188,12.9188,0,1,0,18.2529-18.2861l-54.8516-54.85,122.6484.01a13.2386,13.2386,0,0,0-.0078-26.4727l-122.6611.002L169.1709,91.98a12.8317,12.8317,0,0,0,.0059-18.2432A12.9879,12.9879,0,0,0,150.8037,73.8789Z"/>
      <path  d="M150.8037,73.8789l-1.4146-1.4141L72.3706,149.5l1.4146,1.4141-1.2439-1.5664a11.2707,11.2707,0,0,0-2.3525,2.8088A15.2242,15.2242,0,0,0,68,160.2188a14.0614,14.0614,0,0,0,2.2854,7.5735,13.9006,13.9006,0,0,0,2.342,2.8308l1.314-1.5078-1.4146,1.4138,77.0176,77.0352A15.0284,15.0284,0,0,0,160.1887,252,14.8889,14.8889,0,0,0,175.04,237.0911a15.02,15.02,0,0,0-4.4133-10.6409L119.189,175.0146l117.82.01a14.81,14.81,0,0,0,10.6194-4.5291,15.2908,15.2908,0,0,0-.0042-21.4131,14.8211,14.8211,0,0,0-10.6228-4.53l-117.8164.0015,51.397-51.1553.0039-.0037A14.8562,14.8562,0,0,0,160.1289,68a15.1713,15.1713,0,0,0-10.74,4.4653l1.4148,1.4138,1.4146,1.4136A11.1709,11.1709,0,0,1,160.1289,72a10.7237,10.7237,0,0,1,7.6333,3.1519,10.832,10.832,0,0,1-.0061,15.415l.0039-.0037L112.929,145.136l1.4109,3.4177,122.6611-.002a10.8175,10.8175,0,0,1,7.7593,3.323,11.291,11.291,0,0,1,.0037,15.8284,10.8091,10.8091,0,0,1-7.7551,3.3213l-122.6484-.01-1.4143,3.4141,54.8516,54.85a11.0177,11.0177,0,0,1,3.2422,7.8127A10.8807,10.8807,0,0,1,167.84,244.82,10.7628,10.7628,0,0,1,160.1887,248a11.0248,11.0248,0,0,1-7.8154-3.2637l-77.0667-77.084-.0515-.0449-.5256.603.5332-.5964-.0076-.0066-.5256.603.5332-.5964a10.429,10.429,0,0,1-1.6858-2.1008A10.0288,10.0288,0,0,1,72,160.2188a11.2085,11.2085,0,0,1,1.5964-5.9668,8.8949,8.8949,0,0,1,1.06-1.4053c.1382-.1482.248-.2532.3152-.3142l.0664-.0591.0059-.0049-.7266-.885.7122.8967.0144-.0117-.7266-.885.7122.8967.09-.0718L152.218,75.2927Z"/>
    </g>
  </g>
</svg>
