<svg xmlns="http://www.w3.org/2000/svg" viewBox="0 0 320 320">
  <defs>
    <style>
      .cls-1 {
        fill: #1a1a1a;
      }
    </style>
  </defs>
  <title>flat-arrow-cw-outline</title>
  <g id="Layer_16" data-name="Layer 16">
    <path  d="M272.2051,142.7383l-.2029-1.99-21.4775,2.1895a8.3657,8.3657,0,0,0-5.4475,2.7986,8.6157,8.6157,0,0,0-2.0889,6.573l0-.0034.0068.0664a82.7945,82.7945,0,0,1,.427,8.3833c.0044,41.8875-32.09,78.0356-74.9578,82.4009a84.6054,84.6054,0,0,1-8.5657.4363,83.4553,83.4553,0,0,1-55.5613-21.2185,82.0614,82.0614,0,0,1-5.5637-117.368l-1.4707-1.3551-1.2561,1.5563,35.167,28.3807,3.2456-1.759-9.2686-90.9077L33.5764,50.2554,32.52,53.799,69.1577,83.4865l1.2593-1.5538-1.4927-1.3313a120.2953,120.2953,0,0,0,9.5869,170.3618A122.1073,122.1073,0,0,0,159.8267,282.01a123.79,123.79,0,0,0,12.5437-.6389c62.76-6.4036,109.7061-59.2351,109.71-120.6277a121.2588,121.2588,0,0,0-.6262-12.293,8.646,8.646,0,0,0-8.5781-7.7471,8.3918,8.3918,0,0,0-.8809.0457l.0068-.0007.2029,1.99.2095,1.9888a4.4242,4.4242,0,0,1,.4617-.0237,4.6468,4.6468,0,0,1,4.5989,4.1531,117.3689,117.3689,0,0,1,.6057,11.8872c.0039,59.3269-45.4058,110.4636-106.1157,116.6484a119.9173,119.9173,0,0,1-12.1384.6184A118.1066,118.1066,0,0,1,81.1738,247.978,116.2775,116.2775,0,0,1,71.9094,83.2638l1.3958-1.5651-34.5-27.9553,82.8125-8.4369,8.376,82.1575L97.1006,100.9186l-1.2688,1.3776a86.6558,86.6558,0,0,0,64.0667,145.2966,88.3526,88.3526,0,0,0,8.9712-.4568c44.9189-4.5854,78.5474-42.4258,78.552-86.38a86.5387,86.5387,0,0,0-.4478-8.7908l-.0071-.0684,0-.0034a4.7461,4.7461,0,0,1-.0251-.4849,4.5669,4.5669,0,0,1,1.1362-3.0264,4.3582,4.3582,0,0,1,2.8523-1.4648l21.4778-2.1895.0068-.0007Z"/>
  </g>
</svg>
