<svg xmlns="http://www.w3.org/2000/svg" viewBox="0 0 320 320"><defs><style>.a{fill:#1a1a1a;}</style></defs><title>flat-undo-outline</title><path class="a" d="M261.7888,179.1056c-8.2234-16.469-21.4781-27.2224-37.18-33.7518C208.9,138.8127,190.7337,136.4029,172.32,136.4c-27.62.003-55.8311,5.4383-77.1728,10.8617-21.3387,5.4254-35.8,10.8475-35.8494,10.8657L60,160l1.7889.8944,20-40-3.5777-1.7888L57.3167,160.8944l41.7889,20.8944,1.7889-3.5777L62.6833,159.1055l19.1056-38.2111-3.5777-1.7888-20,40,2.4911,2.7671s.05-.0188.1576-.0585a382.8524,382.8524,0,0,1,37.2746-11.18c20.8824-5.2033,47.933-10.2374,74.1856-10.2346,18.0663-.003,35.74,2.3873,50.7507,8.6462,15.0184,6.2706,27.3637,16.3172,35.14,31.8483l3.5778-1.7888Z"/></svg>