<svg xmlns="http://www.w3.org/2000/svg" viewBox="0 0 320 320"><defs><style>.a{fill:#1a1a1a;}</style></defs><title>flat-display</title><path class="a" d="M150,230h-4v20a4,4,0,0,0,4,4h20a4,4,0,0,0,4-4V230a4,4,0,0,0-4-4H150a4,4,0,0,0-4,4h4v4h16v12H154l0-16h-4v0Z"/><path class="a" d="M120,250v4h80a4,4,0,0,0,0-8H120a4,4,0,1,0,0,8v0h80a4,4,0,0,0,0-8H120a4,4,0,1,0,0,8Z"/><path class="a" d="M280,70h-4V196H44V74H280V70h0V66H40a4,4,0,0,0-4,4V200a4,4,0,0,0,4,4H280a4,4,0,0,0,4-4V70a4,4,0,0,0-4-4ZM40,230v4H280a4,4,0,0,0,4-4V70a4,4,0,0,0-4-4H40a4,4,0,0,0-4,4V230a4,4,0,0,0,4,4v-4h4V74H276V226H40v4h0Z"/></svg>