<svg xmlns="http://www.w3.org/2000/svg" viewBox="0 0 320 320"><defs><style>.a{fill:#1a1a1a;}</style></defs><title>flat-pencil-outline</title><path class="a" d="M113.0635,22.6l-1.0174-1.7219c-6.8425,4.0431-15.4877,9.0278-22.4184,13-3.4656,1.986-6.5031,3.719-8.6739,4.9553-1.0854.6182-1.9542,1.1122-2.5515,1.4517s-.9218.5234-.9227.5239l-.0119.0067-.0188.0111a22.3972,22.3972,0,0,0-4.6964,3.9594,19.5819,19.5819,0,0,0-3.2387,4.7781A15.4673,15.4673,0,0,0,68,56.1952a18.0273,18.0273,0,0,0,2.4863,8.8331c7.4915,13.422,15.2867,26.83,15.29,26.8352l-.0075-.0129a10.7417,10.7417,0,0,0,2.086,2.4821,10.1784,10.1784,0,0,0,2.5885,1.6918,8.9978,8.9978,0,0,0,3.7032.7937,11.1936,11.1936,0,0,0,5.1923-1.3809l.045-.0236.0474-.0278c3.4084-2.0139,13.78-8.0184,24.1406-14.0168,10.3662-6.0016,20.7221-11.9971,24.1709-14.0349a10.6333,10.6333,0,0,0,4.0309-3.9667,8.81,8.81,0,0,0,1.0865-4.2911,10.8644,10.8644,0,0,0-.62-3.5439,9.555,9.555,0,0,0-.6612-1.51L136.3075,27.22l-1.7377.99h2a1.9979,1.9979,0,0,0-.04-.3992,2.09,2.09,0,0,0-.0873-.3108,2.7635,2.7635,0,0,0-.11-.26,8.396,8.396,0,0,0-.483-.8394,20.4316,20.4316,0,0,0-4.6344-5.0054A15.6941,15.6941,0,0,0,121.6132,18a18.7375,18.7375,0,0,0-9.5673,2.8778L113.0635,22.6l1.0176,1.7217A14.7492,14.7492,0,0,1,121.6132,22a10.9923,10.9923,0,0,1,4.7022,1.0609,15.0415,15.0415,0,0,1,4.849,3.7589,15.5386,15.5386,0,0,1,1.2531,1.64c.1345.205.2316.3689.28.4576l.0258.048.0032.0063,1.0213-.4878-1.0572.4023.0359.0854,1.0213-.4878-1.0572.4023,1.65-.6277-1.7015.4681.0519.16,1.65-.6277-1.7015.4681,1.8791-.517H132.57a1.8617,1.8617,0,0,0,.0692.5168l1.8791-.517H132.57v.53l15.5347,27.265.0012.0022.5908-.3376-.5967.3271.006.01.5908-.3376-.5967.3271a7.1592,7.1592,0,0,1,.7606,3.08,4.7976,4.7976,0,0,1-.5888,2.3588,6.6434,6.6434,0,0,1-2.5635,2.4553c-3.4081,2.0139-13.7793,8.0184-24.14,14.0168-10.3662,6.0016-20.7223,11.9971-24.1713,14.0349l1.0174,1.7219-.9249-1.7733a7.2079,7.2079,0,0,1-3.3425.9275,4.9845,4.9845,0,0,1-2.0666-.4437,6.5983,6.5983,0,0,1-2.1436-1.6038,7.2208,7.2208,0,0,1-.5542-.6927l-.1241-.1862-.0218-.0354-.0007-.0011-1.0831.6332,1.0893-.6224-.0062-.0107-1.0831.6332,1.0893-.6224-.004-.0071-.0034-.0059c-.0013-.0023-.4855-.8351-1.3319-2.2993-2.5392-4.3925-8.3213-14.4382-13.9232-24.475A14.0267,14.0267,0,0,1,72,56.1952a11.458,11.458,0,0,1,1.1321-4.9271,16.796,16.796,0,0,1,3.9909-5.1929,19.3835,19.3835,0,0,1,1.7182-1.377c.2156-.1528.3863-.266.4981-.338l.1216-.0768.0243-.0148L79.37,44.077l.1138.1926.0018-.001L79.37,44.077l.1138.1926-1.0174-1.7218.9867,1.74c.0052-.0031,20.8871-11.847,34.6279-19.9661Z"/><path class="a" d="M150.7773,72.1572,149.76,70.4354c-3.4079,2.0143-13.7791,8.0188-24.14,14.0171-10.3662,6.0015-20.7221,11.9967-24.1709,14.0345a10.6358,10.6358,0,0,0-4.0312,3.9669,8.8094,8.8094,0,0,0-1.0867,4.2913,10.8637,10.8637,0,0,0,.62,3.5436,9.5708,9.5708,0,0,0,.6611,1.51l.0022.0038s20.182,35.1429,40.8708,71.1047c10.3444,17.9808,20.8153,36.1663,28.9542,50.2668,4.0695,7.05,7.5557,13.0791,10.1524,17.552,1.2983,2.2363,2.3742,4.0836,3.19,5.4767.8182,1.3964,1.3672,2.3234,1.6449,2.7726l1.7006-1.0526-1.729,1.0051a27.1838,27.1838,0,0,0,5.4652,6.1472,136.2933,136.2933,0,0,0,16.6243,11.9868c19.5005,12.36,44.4869,24.7134,44.5184,24.7306l2.6954,1.333.1874-3.001c.0012-.0238,1.0991-17.5791,1.0994-36.3676,0-8.6747-.2332-17.609-.9238-25.2412a95.304,95.304,0,0,0-1.42-10.3054,26.7683,26.7683,0,0,0-2.4345-7.4187l-.0059-.0106-.004-.0068c-3.7474-6.5582-84.78-147.1187-84.7821-147.1218l-.0156-.0271-.0165-.0266a11.107,11.107,0,0,0-2.1009-2.3739,10.3777,10.3777,0,0,0-2.543-1.6232,8.8212,8.8212,0,0,0-3.59-.7678,10.5559,10.5559,0,0,0-5.3931,1.6016l1.0176,1.7218,1.0176,1.7217a6.5647,6.5647,0,0,1,3.3579-1.0452,4.8128,4.8128,0,0,1,1.9705.4252,6.8617,6.8617,0,0,1,2.1432,1.5594,7.6071,7.6071,0,0,1,.5706.6755l.13.1825.0236.0355.0011.0018,1.03-.6508-1.0356.6409.0061.01,1.03-.6508-1.0356.6409,1.7006-1.0525-1.7327.9988.911,1.58c8.9151,15.4644,80.365,139.4056,83.8635,145.5283l1.7365-.9922-1.7464.9747a23.2225,23.2225,0,0,1,2.0089,6.2728,115.4855,115.4855,0,0,1,1.78,15.6777c.35,6.0287.4815,12.6145.4814,19.0652,0,9.3179-.273,18.355-.5461,25.0575-.1366,3.3513-.2731,6.1193-.3754,8.048-.0512.9644-.0938,1.7189-.1236,2.2317s-.0465.78-.0465.781l1.9961.1248.8867-1.7927c-.0006,0-.2214-.1095-.6451-.3214-3.177-1.5885-17.6037-8.8733-32.1055-17.3042-7.2491-4.2137-14.5188-8.7168-20.3823-12.9111a85.5447,85.5447,0,0,1-7.5435-5.9594,22.3882,22.3882,0,0,1-4.2469-4.7936l-.0155-.0267-.0129-.0208c-.2288-.3691-.7854-1.3074-1.5947-2.6892-6.0933-10.4008-26.8874-46.5044-46.1493-79.9928-9.6317-16.7455-18.882-32.84-25.7243-44.7479-3.4212-5.9541-6.24-10.8615-8.2042-14.28l-2.2727-3.9567-.8-1.3926.0022.0038-.5848.3341.5908-.3236-.0059-.01-.5848.3341.5908-.3236a7.1585,7.1585,0,0,1-.7606-3.08,4.797,4.797,0,0,1,.5888-2.3588,6.6453,6.6453,0,0,1,2.564-2.4557c3.408-2.0139,13.7792-8.0182,24.14-14.0165,10.3662-6.0015,20.722-11.9969,24.1711-14.0354Z"/></svg>