<svg xmlns="http://www.w3.org/2000/svg" viewBox="0 0 320 320"><defs><style>.a{fill:#1a1a1a;}</style></defs><title>flat-camera-filled</title><path  d="M160,99.2734V81.0557H76.1978V99.2734H48.2637V238.9443H271.7363V99.2734ZM126.9512,139.71H88.3081V120.874h38.6431ZM192.59,206.5571a41.9014,41.9014,0,1,1,41.9014-41.9014A41.9015,41.9015,0,0,1,192.59,206.5571Z"/><circle  cx="192.5898" cy="164.6558" r="32.5898"/><path  d="M160,99.2734h1.8622v-20.08H74.3354V97.4111H46.4014V240.8066H273.5986V97.4112H160v1.8623h0v1.8623H269.874V237.082H50.1259V101.1357H78.06V82.9179h80.0777v18.2178H160ZM126.9512,139.71v-1.8623H90.17V122.7363h34.9185V139.71h1.8623v0h1.8622V119.0117H86.4458v22.561h42.3676V139.71ZM192.59,206.5571v-1.8623a40.0392,40.0392,0,1,1,28.312-11.7273,39.9055,39.9055,0,0,1-28.312,11.7273v3.7246a43.7636,43.7636,0,1,0-43.7637-43.7636A43.7644,43.7644,0,0,0,192.59,208.4194Z"/><path  d="M225.18,164.6558h-1.8623a30.7273,30.7273,0,1,1-9-21.7277,30.6231,30.6231,0,0,1,9,21.7277h3.7245A34.4521,34.4521,0,1,0,192.59,199.1079a34.4526,34.4526,0,0,0,34.4521-34.4521Z"/></svg>