<svg xmlns="http://www.w3.org/2000/svg" viewBox="0 0 320 320"><defs><style>.a{fill:#1a1a1a;}</style></defs><title>flat-phone-filled</title><path  d="M101.4834,137.4019c7.2158-2.8643,17.0156-16.28,24.3818-18.7661,16.1055-5.4355,52.1641-5.4355,68.27,0,7.3662,2.4858,17.166,15.9019,24.3818,18.7661,4.5078,1.79,14.6924.7515,19.5059,0,3.8057-.5942,12.125-1.8716,14.6289-4.6914,4.8174-5.4238,6.3691-21.1611,4.877-28.1494-1.5713-7.3569-12.9365-19.4023-19.5059-23.458-8.4609-5.2236-29.0332-8.2017-39.0117-9.3833-19.3594-2.293-58.6621-2.293-78.0215,0-9.9785,1.1816-30.5508,4.16-39.0117,9.3833-6.5693,4.0557-17.9346,16.1011-19.5059,23.458-1.4922,6.9883.06,22.7256,4.877,28.1494,2.5039,2.82,10.8232,4.0972,14.6289,4.6914C86.791,138.1533,96.9756,139.1914,101.4834,137.4019Z"/><path  d="M160,170.2427c-10.7578,0-19.5059,8.4165-19.5059,18.7666s8.748,18.7661,19.5059,18.7661,19.5059-8.416,19.5059-18.7661S170.7578,170.2427,160,170.2427Z"/><path  d="M238.0225,155.07c-3.7207-3.0327-14.9209,1.5972-19.5059,0-8.9521-3.1187-20.3057-20.34-29.2578-23.458-13.7559-4.7915-44.7617-4.7915-58.5166,0-8.9531,3.1182-20.3057,20.3394-29.2588,23.458-4.585,1.5972-15.7852-3.0327-19.5059,0C70.6611,164.2935,54.3828,205,61.9268,220s31.1426,21.4312,39.5566,23.8818c28.0029,8.1577,89.03,8.1577,117.0332,0C226.9307,241.4312,250.5293,235,258.0732,220S249.3389,164.2935,238.0225,155.07ZM160,226.542c-21.5107,0-39.0107-16.8374-39.0107-37.5327s17.5-37.5327,39.0107-37.5327,39.0117,16.8374,39.0117,37.5327S181.5107,226.542,160,226.542Z"/><path  d="M101.4834,137.4019l.7378,1.8589a25.0727,25.0727,0,0,0,6.3569-4.1106c3.18-2.6411,6.4485-5.9313,9.5784-8.7551a54.1231,54.1231,0,0,1,4.51-3.7263,15.3306,15.3306,0,0,1,3.8386-2.1379,75.1911,75.1911,0,0,1,14.7861-2.9657,174.47,174.47,0,0,1,37.4182,0,75.193,75.193,0,0,1,14.7861,2.9656,19.0022,19.0022,0,0,1,5.2935,3.2456c2.9741,2.3736,6.2251,5.6106,9.4319,8.5578,1.6067,1.4747,3.2058,2.8791,4.79,4.08a21.0293,21.0293,0,0,0,4.7681,2.847,15.76,15.76,0,0,0,3.8745.8956,38.0089,38.0089,0,0,0,4.47.2352,85.428,85.428,0,0,0,12.208-1.0137c1.9065-.2985,4.9993-.7725,7.9976-1.5516a28.9545,28.9545,0,0,0,4.323-1.4469,10.0647,10.0647,0,0,0,3.4954-2.341,16.4674,16.4674,0,0,0,2.7373-4.62,41.3312,41.3312,0,0,0,2.4092-8.9934,60.3831,60.3831,0,0,0,.78-9.4948,33.7711,33.7711,0,0,0-.5886-6.7863l0-.0009a22.4027,22.4027,0,0,0-3.0459-6.8394,63.3545,63.3545,0,0,0-8.3442-10.3373,52.3728,52.3728,0,0,0-9.021-7.5654,39.8491,39.8491,0,0,0-8.7112-3.7094,134.5454,134.5454,0,0,0-16.5068-3.831c-5.5757-.981-10.84-1.6809-14.6091-2.1273C189.42,68.5715,174.7224,68.0013,160,68c-14.7234.0013-29.4209.5715-39.2461,1.7336-5.0256.5955-12.708,1.64-20.2461,3.2037-3.77.7824-7.5042,1.6938-10.87,2.7545a39.8428,39.8428,0,0,0-8.7112,3.7094A42.9975,42.9975,0,0,0,75.04,83.9589,72.6,72.6,0,0,0,66.0056,93.77a43.5768,43.5768,0,0,0-3.469,5.284,19.3779,19.3779,0,0,0-2.021,5.09,33.7086,33.7086,0,0,0-.59,6.7872,59.4822,59.4822,0,0,0,1.3926,12.6631,36.1793,36.1793,0,0,0,1.7966,5.8252,16.4719,16.4719,0,0,0,2.738,4.62,10.0653,10.0653,0,0,0,3.4951,2.3407,35.0233,35.0233,0,0,0,6.57,1.9762c2.2207.4749,4.3232.7992,5.7507,1.0223a85.4027,85.4027,0,0,0,12.2078,1.0137,38.006,38.006,0,0,0,4.4692-.2353,15.77,15.77,0,0,0,3.875-.8956l-.7375-1.8589-.7378-1.859a11.9825,11.9825,0,0,1-2.877.6421,34.1078,34.1078,0,0,1-3.9919.2067,81.6131,81.6131,0,0,1-11.5908-.9659c-1.8992-.2957-4.8689-.7575-7.6077-1.4706a25.1077,25.1077,0,0,1-3.7156-1.2355,6.3965,6.3965,0,0,1-2.1187-1.3371,12.6256,12.6256,0,0,1-2.0344-3.4976,37.4546,37.4546,0,0,1-2.1558-8.1021,56.4251,56.4251,0,0,1-.728-8.8522,29.9525,29.9525,0,0,1,.5017-5.9519,18.6969,18.6969,0,0,1,2.5278-5.5579A59.4844,59.4844,0,0,1,74.76,89.7689a48.7334,48.7334,0,0,1,8.2678-6.9641,36.1484,36.1484,0,0,1,7.8125-3.298A130.7784,130.7784,0,0,1,106.8379,75.8c5.4727-.9631,10.6714-1.6546,14.3865-2.0945C130.7576,72.5749,145.3916,71.9987,160,72c14.6074-.0013,29.2415.5749,38.7754,1.7058,4.9529.5862,12.5459,1.6212,19.9038,3.1481,3.678.7627,7.2969,1.6491,10.48,2.6529a36.1542,36.1542,0,0,1,7.8125,3.298,39.2128,39.2128,0,0,1,5.31,4.1258,68.6544,68.6544,0,0,1,8.52,9.25,39.6166,39.6166,0,0,1,3.15,4.7895,15.5449,15.5449,0,0,1,1.62,4.0089l0-.0009a30.007,30.007,0,0,1,.5012,5.9526,55.5674,55.5674,0,0,1-1.2942,11.78,32.2841,32.2841,0,0,1-1.5894,5.1744,12.6244,12.6244,0,0,1-2.0339,3.4974,6.3941,6.3941,0,0,1-2.1187,1.3373,31.343,31.343,0,0,1-5.7922,1.7244c-2.083.4457-4.1042.7591-5.531.9817a81.6361,81.6361,0,0,1-11.5911.9659,34.11,34.11,0,0,1-3.9922-.2067,11.9755,11.9755,0,0,1-2.8762-.642,21.5,21.5,0,0,1-5.2791-3.4715c-2.9651-2.457-6.2168-5.7222-9.4512-8.6453a57.9134,57.9134,0,0,0-4.8545-4.0045,19.12,19.12,0,0,0-4.8955-2.681,78.9289,78.9289,0,0,0-15.6074-3.1493,178.4527,178.4527,0,0,0-38.3337,0,78.9266,78.9266,0,0,0-15.6074,3.1494,22.62,22.62,0,0,0-6.5115,3.9107c-3.228,2.5826-6.5107,5.8655-9.64,8.7362-1.5615,1.4343-3.0811,2.7632-4.5,3.8374a17.2559,17.2559,0,0,1-3.8286,2.3178Z"/><path  d="M160,170.2427v-2a21.8368,21.8368,0,0,0-15.1738,6.0607,20.2426,20.2426,0,0,0,0,29.4115,22.0256,22.0256,0,0,0,30.3474,0,20.2426,20.2426,0,0,0,0-29.4115A21.8367,21.8367,0,0,0,160,168.2427v4a17.8357,17.8357,0,0,1,12.4,4.9433,16.2427,16.2427,0,0,1,0,23.6464,18.0259,18.0259,0,0,1-24.801,0,16.2427,16.2427,0,0,1,0-23.6464A17.8358,17.8358,0,0,1,160,172.2427Z"/><path  d="M238.0225,155.07l1.2634-1.55a6.3739,6.3739,0,0,0-2.5889-1.2174,12.2709,12.2709,0,0,0-2.8145-.2879,46.4614,46.4614,0,0,0-6.7883.7244,43.0352,43.0352,0,0,1-6.0208.6769,6.0492,6.0492,0,0,1-1.8987-.2341,22.0762,22.0762,0,0,1-6.4495-4.1753c-3.5671-3.04-7.4187-7.1642-11.2466-10.8627a68.4453,68.4453,0,0,0-5.7471-5.0638,21.5752,21.5752,0,0,0-5.8152-3.3562,65.97,65.97,0,0,0-13.4351-2.7926,149.3378,149.3378,0,0,0-32.9634,0,65.9587,65.9587,0,0,0-13.4341,2.7926,25.6785,25.6785,0,0,0-7.73,4.9095c-3.8225,3.2652-7.698,7.4295-11.4287,11.0278a64.6371,64.6371,0,0,1-5.4006,4.7659,17.7945,17.7945,0,0,1-4.6995,2.7549,6.0557,6.0557,0,0,1-1.9.2343,43.0247,43.0247,0,0,1-6.021-.6769,46.4665,46.4665,0,0,0-6.7883-.7244,12.27,12.27,0,0,0-2.8145.2879,6.3671,6.3671,0,0,0-2.5886,1.2181l.0007-.0006a39.3452,39.3452,0,0,0-7.802,9.6914,112.9045,112.9045,0,0,0-10.3108,22.65C59.84,194.1746,58.0059,202.69,58,209.9134a24.64,24.64,0,0,0,2.14,10.9856,32.0922,32.0922,0,0,0,8.71,10.3717,68.3067,68.3067,0,0,0,17.6748,9.7932c5.887,2.3232,11.2576,3.8225,14.3994,4.7381a153.9379,153.9379,0,0,0,26.5205,4.6584C137.6208,251.488,148.81,252,160,252s22.3789-.5121,32.5552-1.54a153.9465,153.9465,0,0,0,26.5208-4.6584c2.0911-.6092,5.1826-1.4813,8.7478-2.6806a89.5907,89.5907,0,0,0,17.6743-7.91c5.8818-3.5752,11.2764-8.1982,14.3618-14.3132a24.654,24.654,0,0,0,2.1394-10.9852,67.4362,67.4362,0,0,0-2.1829-15.7268,119.5739,119.5739,0,0,0-8.9617-24.1671,82.0368,82.0368,0,0,0-5.7029-9.7819,32.89,32.89,0,0,0-5.866-6.7175l-1.2634,1.55-1.2637,1.55a35.7759,35.7759,0,0,1,6.9207,8.6851,109.0069,109.0069,0,0,1,9.9231,21.8183c2.6748,8.0243,4.4031,16.2425,4.397,22.79a20.8386,20.8386,0,0,1-1.7131,9.188,28.1369,28.1369,0,0,1-7.65,9.0578,64.454,64.454,0,0,1-16.6294,9.1839c-5.67,2.2377-10.8809,3.696-14.05,4.6184a150.2079,150.2079,0,0,1-25.804,4.519C182.136,247.4925,171.0674,248,160,248s-22.1362-.5076-32.1536-1.5195a150.2021,150.2021,0,0,1-25.8037-4.519c-2.116-.6161-5.1294-1.4669-8.5913-2.6315a85.7119,85.7119,0,0,1-16.8745-7.538c-5.5122-3.3388-10.291-7.5558-12.8635-12.6908A20.8234,20.8234,0,0,1,62,209.9134a63.5974,63.5974,0,0,1,2.0669-14.77,115.6361,115.6361,0,0,1,8.6536-23.331,78.0811,78.0811,0,0,1,5.4167-9.299,29.1681,29.1681,0,0,1,5.1042-5.8931l.0007-.0006a2.4317,2.4317,0,0,1,.9829-.4254,8.3859,8.3859,0,0,1,1.8916-.18,43.3393,43.3393,0,0,1,6.1738.6769,45.9591,45.9591,0,0,0,6.6355.7244,9.8364,9.8364,0,0,0,3.2153-.4568,25.68,25.68,0,0,0,7.73-4.91c3.8225-3.2653,7.698-7.43,11.4287-11.0278a64.6229,64.6229,0,0,1,5.4006-4.7657A17.7874,17.7874,0,0,1,131.4,133.501a62.2211,62.2211,0,0,1,12.5889-2.5978,145.3543,145.3543,0,0,1,32.0222,0,62.2431,62.2431,0,0,1,12.59,2.5978,22.0718,22.0718,0,0,1,6.449,4.175c3.5671,3.04,7.4187,7.164,11.2466,10.8626a68.4531,68.4531,0,0,0,5.7468,5.0639,21.5794,21.5794,0,0,0,5.8154,3.3565,9.8283,9.8283,0,0,0,3.2148.4568,45.9583,45.9583,0,0,0,6.635-.7244,43.34,43.34,0,0,1,6.1741-.6769,8.3887,8.3887,0,0,1,1.8918.18,2.4366,2.4366,0,0,1,.9844.4261ZM160,226.542v-2a37.67,37.67,0,0,1-26.1853-10.4469,34.478,34.478,0,0,1,0-50.1717,38.0407,38.0407,0,0,1,52.3708,0,34.4768,34.4768,0,0,1,0,50.1716A37.6715,37.6715,0,0,1,160,224.542v4a41.674,41.674,0,0,0,28.959-11.5643,38.4772,38.4772,0,0,0,0-55.9368,42.0408,42.0408,0,0,0-57.9177,0,38.4782,38.4782,0,0,0,0,55.9367A41.6726,41.6726,0,0,0,160,228.542Z"/></svg>