<svg xmlns="http://www.w3.org/2000/svg" viewBox="0 0 320 320">
  <defs>
    <style>
      .cls-1 {
        fill: #1a1a1a;
      }
    </style>
  </defs>
  <title>flat-music-play-pause-outline</title>
  <g id="Layer_16" data-name="Layer 16">
    <g>
      <polygon class="cls-1" points="30 60 28.986 61.724 196.055 160 32 256.503 32 60 30 60 28.986 61.724 30 60 28 60 28 260 31.014 261.724 203.944 160 31.014 58.276 28 60 30 60"/>
      <polygon class="cls-1" points="220 60 218 60 218 262 242 262 242 58 218 58 218 60 220 60 220 62 238 62 238 258 222 258 222 60 220 60 220 62 220 60"/>
      <polygon class="cls-1" points="260 60 258 60 258 262 282 262 282 58 258 58 258 60 260 60 260 62 278 62 278 258 262 258 262 60 260 60 260 62 260 60"/>
    </g>
  </g>
</svg>
