<svg xmlns="http://www.w3.org/2000/svg" viewBox="0 0 320 320">
  <defs>
    <style>
      .cls-1 {
        fill: #1a1a1a;
      }
    </style>
  </defs>
  <title>flat-person-filled</title>
  <g id="Layer_16" data-name="Layer 16">
    <g>
      <path  d="M226.4585,125.2539c0,37.1006-29.7544,67.1758-66.4585,67.1758s-66.4585-30.0752-66.4585-67.1758S123.2959,58.0791,160,58.0791,226.4585,88.1543,226.4585,125.2539Zm-14.4307,58.333a76.6387,76.6387,0,0,1-104.0557,0A111.8016,111.8016,0,0,0,50,271H270A111.8016,111.8016,0,0,0,212.0278,183.5869Z"/>
      <path  d="M226.4585,125.2539h-2a65.3283,65.3283,0,0,1-18.8871,46.094,63.9582,63.9582,0,0,1-91.1429,0,65.6889,65.6889,0,0,1,0-92.1873,63.9585,63.9585,0,0,1,91.1429,0,65.3271,65.3271,0,0,1,18.8871,46.0933h4A69.3308,69.3308,0,0,0,208.415,76.3475a67.9587,67.9587,0,0,0-96.83,0,69.689,69.689,0,0,0,0,97.8134,67.9584,67.9584,0,0,0,96.83,0,69.3318,69.3318,0,0,0,20.0433-48.907Zm-14.4307,58.333-1.3539-1.4722a74.6386,74.6386,0,0,1-101.348,0l-1.05-.9656-1.2546.6782A113.8009,113.8009,0,0,0,48.01,270.8044L47.7938,273H272.2059l-.2156-2.1953a113.8009,113.8009,0,0,0-59.0117-88.9771l-1.2551-.6785-1.05.9658,1.3539,1.4722-.9509,1.7593A109.8023,109.8023,0,0,1,268.01,271.1953L270,271v-2H50v2l1.99.1953a109.8023,109.8023,0,0,1,56.9326-85.8491l-.9508-1.7593-1.3539,1.4719a78.6387,78.6387,0,0,0,106.7633,0l-1.3538-1.4719-.9509,1.7593Z"/>
    </g>
  </g>
</svg>
