<svg xmlns="http://www.w3.org/2000/svg" viewBox="0 0 320 320"><defs><style>.a{fill:#1a1a1a;}</style></defs><title>flat-align-center-filled</title><rect  x="50" y="80" width="220" height="12.3076"/><rect  x="80" y="129.231" width="160" height="12.3076"/><rect  x="65" y="178.4614" width="190" height="12.3076"/><rect  x="140" y="227.6924" width="40" height="12.3076"/><polygon  points="50 80 50 82 268 82 268 90.308 52 90.308 52 80 50 80 50 82 50 80 48 80 48 94.308 272 94.308 272 78 48 78 48 80 50 80"/><polygon  points="80 129.231 78 129.231 78 143.539 242 143.539 242 127.231 78 127.231 78 129.231 80 129.231 80 131.231 238 131.231 238 139.539 82 139.539 82 129.231 80 129.231 80 131.231 80 129.231"/><polygon  points="65 178.461 63 178.461 63 192.769 257 192.769 257 176.461 63 176.461 63 178.461 65 178.461 65 180.461 253 180.461 253 188.769 67 188.769 67 178.461 65 178.461 65 180.461 65 178.461"/><polygon  points="140 227.692 138 227.692 138 242 182 242 182 225.692 138 225.692 138 227.692 140 227.692 140 229.692 178 229.692 178 238 142 238 142 227.692 140 227.692 140 229.692 140 227.692"/></svg>