<svg xmlns="http://www.w3.org/2000/svg" viewBox="0 0 320 320"><defs><style>.a{fill:#1a1a1a;}</style></defs><title>flat-dots-horizontal</title><path class="a" d="M70.5679,126.9316l-.0007-4a37.0665,37.0665,0,1,0,.0013,0l-.0006,4-.0007,4a29.0658,29.0658,0,1,0,.0013,0Z"/><path class="a" d="M158.75,126.9316l-.0007-4a37.0661,37.0661,0,1,0,.0013,0l-.0006,4-.0007,4a29.0662,29.0662,0,1,0,.0013,0Z"/><path class="a" d="M246.9321,126.9316l-.0007-4a37.0662,37.0662,0,1,0,.0013,0l-.0006,4-.0007,4a29.0663,29.0663,0,1,0,.0013,0Z"/></svg>