<svg xmlns="http://www.w3.org/2000/svg" viewBox="0 0 320 320">
  <defs>
    <style>
      .cls-1 {
        fill: #1a1a1a;
      }
    </style>
  </defs>
  <title>flat-landscape</title>
  <g id="Layer_16" data-name="Layer 16">
    <path class="cls-1" d="M83.2178,152.2764l3.3438,2.1948,31.0825-47.3541,33.6047,47.8119,3.2727-2.3-3.9636-.5387a10.1746,10.1746,0,0,1-1.7585,4.4114,15.2942,15.2942,0,0,1-7.0344,5.2435,4.4664,4.4664,0,0,1-1.7429.3478,6.7957,6.7957,0,0,1-2.6138-.5942,19.7116,19.7116,0,0,1-5.6816-4.0452,57.366,57.366,0,0,1-7.54-9.3243c-.9629-1.45-1.7346-2.7179-2.26-3.6129-.2625-.4474-.4634-.8018-.5959-1.0392-.0664-.1187-.1155-.2083-.1467-.2656l-.0337-.0615-.0063-.012-.5034.2705.5039-.27,0-.001-.5034.2705.5039-.27-.1321-.2286a18.1413,18.1413,0,0,0-4.3926-4.522,25.3593,25.3593,0,0,0-13.415-4.8506c-.3218-.0255-.6438-.038-.9644-.0378a15.7461,15.7461,0,0,0-7.2788,1.9692,35.3874,35.3874,0,0,0-8.6912,6.8683,72.7794,72.7794,0,0,0-6.2891,7.5883l3.2366,2.3507,3.3438,2.1948-3.3437-2.1948,3.2363,2.3506a57.9507,57.9507,0,0,1,7.79-8.88,22.7477,22.7477,0,0,1,4.4312-3.1924A7.8944,7.8944,0,0,1,102.24,141.5q.1707,0,.3352.0132a17.3245,17.3245,0,0,1,9.2424,3.2742,12.7655,12.7655,0,0,1,1.9661,1.8075c.1973.2269.3306.4016.4028.5l.0627.0885.0015.0023,1.7195-1.1349-1.7485,1.0894.0291.0455,1.7195-1.1349-1.7485,1.0894,3.3953-2.115-3.5273,1.8864a81.4906,81.4906,0,0,0,7.4285,11.1445,45.7087,45.7087,0,0,0,7.8979,7.94,23.0065,23.0065,0,0,0,4.8987,2.88,14.7476,14.7476,0,0,0,5.707,1.2163,12.496,12.496,0,0,0,4.801-.9552,23.2954,23.2954,0,0,0,10.5459-8.0707,18.1765,18.1765,0,0,0,3.116-7.8994,4.009,4.009,0,0,0-.6909-2.8387L120.8037,97.7a4,4,0,0,0-6.6165.1052L79.8738,150.0814a4,4,0,0,0,6.58,4.5455ZM233.1641,158.81l1.249,3.8a139.6773,139.6773,0,0,0,21.0166-9.1287c5.9966-3.1631,10.645-6.0511,12.87-7.4811a4,4,0,0,0,.8015-6.0511L230.4639,97.3138a4,4,0,0,0-6.2722.4376l-32.1982,47.3721a4.005,4.005,0,0,0,.7668,5.3374,71.6179,71.6179,0,0,0,11.1594,7.3873,58.31,58.31,0,0,0,9.9009,4.2323A38.8767,38.8767,0,0,0,225.46,164a28.5675,28.5675,0,0,0,8.9526-1.3907l-1.2483-3.8-1.2485-3.8a20.5688,20.5688,0,0,1-6.4558.9913,30.9479,30.9479,0,0,1-9.2332-1.55,54.6182,54.6182,0,0,1-12.1221-5.7341,61.0965,61.0965,0,0,1-6.2615-4.4337l-2.5413,3.089L198.61,149.62l29.34-43.1674,35.2236,38.8677,2.9641-2.686-2.1626-3.3651c-2.0813,1.3376-6.5491,4.1141-12.2773,7.1351a131.8945,131.8945,0,0,1-19.783,8.6047Zm32.9736-16.1748-2.1626-3.3651c-2.0813,1.3376-6.5491,4.1141-12.2773,7.1351a131.8945,131.8945,0,0,1-19.783,8.6047,20.558,20.558,0,0,1-6.4553.9911,30.9518,30.9518,0,0,1-9.2332-1.55,54.6183,54.6183,0,0,1-12.1221-5.7343,61.0788,61.0788,0,0,1-6.2612-4.4336,3.9943,3.9943,0,0,0-5.6033.515L171.91,168.9814l-14.1992-18.7661a4,4,0,0,0-7.1533,1.8749,10.1746,10.1746,0,0,1-1.7585,4.4114,15.2942,15.2942,0,0,1-7.0344,5.2435,4.4664,4.4664,0,0,1-1.7429.3478,6.7957,6.7957,0,0,1-2.6138-.5942,19.7116,19.7116,0,0,1-5.6816-4.0452,57.366,57.366,0,0,1-7.54-9.3243c-.9629-1.45-1.7346-2.7179-2.26-3.6129-.2625-.4474-.4634-.8018-.5959-1.0392-.0664-.1187-.1155-.2083-.1467-.2656l-.0337-.0615-.0063-.012-.5034.2705.5039-.27,0-.001-.5034.2705.5039-.27-.1321-.2286a18.1413,18.1413,0,0,0-4.3926-4.522,25.3593,25.3593,0,0,0-13.415-4.8506c-.3218-.0255-.6438-.038-.9644-.0378a15.7461,15.7461,0,0,0-7.2788,1.9692,35.39,35.39,0,0,0-8.6912,6.8684,72.74,72.74,0,0,0-6.2883,7.5885l-.071.1012-2.8066,4.1279L6.6917,257.7515A4,4,0,0,0,10,264H300a4,4,0,0,0,4-4V180a4.01,4.01,0,0,0-1.0359-2.6862l-33.8623-37.3652a3.9992,3.9992,0,0,0-5.1265-.679l2.1626,3.3651-2.9641,2.686L296,181.5428V256H17.5547L83.72,158.6527l2.8062-4.1273-3.3076-2.249,3.2366,2.35a57.919,57.919,0,0,1,7.7893-8.88,22.7539,22.7539,0,0,1,4.4309-3.1924A7.8944,7.8944,0,0,1,102.24,141.5q.1707,0,.3352.0132a17.3245,17.3245,0,0,1,9.2424,3.2742,12.7655,12.7655,0,0,1,1.9661,1.8075c.1973.2269.3306.4016.4028.5l.0627.0885.0015.0023,1.7195-1.1349-1.7485,1.0894.0291.0455,1.7195-1.1349-1.7485,1.0894,3.3953-2.115-3.5273,1.8864a81.4906,81.4906,0,0,0,7.4285,11.1445,45.7087,45.7087,0,0,0,7.8979,7.94,23.0065,23.0065,0,0,0,4.8987,2.88,14.7476,14.7476,0,0,0,5.707,1.2163,12.496,12.496,0,0,0,4.801-.9552,23.2954,23.2954,0,0,0,10.5459-8.0707,18.1765,18.1765,0,0,0,3.116-7.8994l-3.9634-.5386-3.19,2.4135,17.2246,22.7646a4,4,0,0,0,6.2517.16l23.5557-28.0215-3.0618-2.5739-2.5415,3.0889a71.6192,71.6192,0,0,0,11.1592,7.3872,58.32,58.32,0,0,0,9.9009,4.2324A38.8767,38.8767,0,0,0,225.4595,164a28.5559,28.5559,0,0,0,8.9536-1.391,139.6773,139.6773,0,0,0,21.0166-9.1287c5.9966-3.1631,10.645-6.0511,12.87-7.4811l-2.1624-3.365-2.9641,2.686Z"/>
  </g>
</svg>
