<svg xmlns="http://www.w3.org/2000/svg" viewBox="0 0 320 320"><defs><style>.a{fill:#1a1a1a;}</style></defs><title>flat-type-outline</title><path  d="M43.7279,241.45,110,71.0359,176.272,241.45l7.4561-2.9-70-180a4,4,0,0,0-7.4559,0l-70,180,7.4561,2.9Z"/><polyline  points="70 174 150 174 150 166 70 166"/><path  d="M212.0146,123.4556l.0034-.0021A96.5708,96.5708,0,0,1,222.01,118.57a73.6775,73.6775,0,0,1,9.0906-3.191A34.9656,34.9656,0,0,1,240,114c9.6707-.0041,16.6968,1.2234,21.675,3.1655a21.6245,21.6245,0,0,1,8.27,5.3614,18.3543,18.3543,0,0,1,3.3806,5.2518,33.2216,33.2216,0,0,1,2.3157,10.1237c.3533,3.7752.36,7.88.3584,12.0977,0,30,0,70,0,80a15.9629,15.9629,0,0,0,.5835,4.4,12.49,12.49,0,0,0,3.387,5.6675,13.3243,13.3243,0,0,0,3.4021,2.34,16.3358,16.3358,0,0,0,4.4641,1.3915A14.1624,14.1624,0,0,0,290,244v-5.803L290.0356,236,290,236v2.197L290.0356,236l-.0137,0a8.1279,8.1279,0,0,1-1.31-.1739,8.2921,8.2921,0,0,1-1.6609-.53,5.85,5.85,0,0,1-1.1633-.6808,4.2915,4.2915,0,0,1-1.28-1.5452A6.8147,6.8147,0,0,1,284,230V150a116.4847,116.4847,0,0,0-.66-15.2162,37.2091,37.2091,0,0,0-3.0742-11.0706,26.0169,26.0169,0,0,0-5.1721-7.37,31.8929,31.8929,0,0,0-13.585-7.689C255.7507,106.9118,248.717,106.0021,240,106a42.9616,42.9616,0,0,0-11.1667,1.7052,90.277,90.277,0,0,0-14.448,5.519c-3.8291,1.8231-6.3291,3.2791-6.4,3.32l4.03,6.9113Z"/><path  d="M280,170l1.0989-3.8461c-.1-.0283-3.6785-1.0476-9.3342-2.066a125.3451,125.3451,0,0,0-21.8335-2.0386,85.9547,85.9547,0,0,0-16.35,1.4723c-8.2588,1.61-16.4739,4.7473-23.272,10.47a39.8153,39.8153,0,0,0-8.8389,10.5544,47.68,47.68,0,0,0-5.3923,14.6693,43.8642,43.8642,0,0,0-.8687,8.6139,36.8648,36.8648,0,0,0,9.9177,25.6873,33.6257,33.6257,0,0,0,11.0774,7.6976A34.8809,34.8809,0,0,0,230,244a95.7019,95.7019,0,0,0,21.3682-2.1337,51.5723,51.5723,0,0,0,13.3589-4.9433,34.9358,34.9358,0,0,0,14.2759-14.2466Q283.9808,213.3769,284,200V170a3.9965,3.9965,0,0,0-2.9009-3.8461L280,170h-4c0,.0037,0,.0037,0,3.75,0,3.75,0,11.25,0,26.25-.0007,7.0612-1.1763,12.7217-3.2354,17.251a26.2684,26.2684,0,0,1-6.1277,8.54c-3.8025,3.5172-8.7944,6.072-14.97,7.7534A83.4777,83.4777,0,0,1,230,236a26.8719,26.8719,0,0,1-10.6426-2.138,25.8708,25.8708,0,0,1-11.6594-9.9828,29.7552,29.7552,0,0,1-4.4893-16.05,35.9113,35.9113,0,0,1,.7134-7.0447,37.552,37.552,0,0,1,6.5708-15.4123,32.1383,32.1383,0,0,1,7.8057-7.4036,44.0262,44.0262,0,0,1,14.99-6.2108,75.7508,75.7508,0,0,1,16.6431-1.7088,117.4445,117.4445,0,0,1,20.4163,1.9121c2.6589.4786,4.8225.9567,6.3086,1.3118.7429.1776,1.3167.3243,1.6985.425.1907.05.3337.0891.4258.1144l.0994.0276.0208.0058,0,0L280,170h0Z"/></svg>