<svg xmlns="http://www.w3.org/2000/svg" viewBox="0 0 320 320"><defs><style>.a{fill:#1a1a1a;}</style></defs><title>flat-infinity-filled</title><path class="a" d="M182.9982,218.1423a69.5993,69.5993,0,0,0,19.5013,8.91,77.4461,77.4461,0,0,0,41.3871.17,69.5228,69.5228,0,0,0,18.97-8.3706A66.095,66.095,0,0,0,285.96,193.8069a67.3846,67.3846,0,0,0,7.6413-31.3047,68.7265,68.7265,0,0,0-34.48-59.692,66.9671,66.9671,0,0,0-17.1143-6.9449A73.1281,73.1281,0,0,0,223.98,93.6332a75.5714,75.5714,0,0,0-28.1306,5.4194,67.5992,67.5992,0,0,0-24.0483,16.2251,80.3794,80.3794,0,0,0-8.8318,11.2678,112.1309,112.1309,0,0,0-10.1926,20.318c-1.97,4.9971-3.6415,9.8665-5.2664,14.5085a164.6027,164.6027,0,0,1-7.6179,19.1069,64.9312,64.9312,0,0,1-4.6983,8.0305,50.33,50.33,0,0,1-5.8971,7.0774,32.2617,32.2617,0,0,1-11.8577,7.3711,45.2283,45.2283,0,0,1-15.4256,2.574,56.0807,56.0807,0,0,1-17.93-3.0083,53.685,53.685,0,0,1-12.23-5.946,42.131,42.131,0,0,1-13.2776-13.6338,35.4184,35.4184,0,0,1-3.6512-8.6116,37.7955,37.7955,0,0,1-1.3239-10.0671l-.0007-.1274-11.6748.1123H53.6012l-.0005-.1123-11.6748.1123H53.6012a53.815,53.815,0,0,1,3.7919-20.439A44.4736,44.4736,0,0,1,64.3717,132.12,43.659,43.659,0,0,1,80,120.26a49.3378,49.3378,0,0,1,20.4277-4.2867c10.8823.0061,22.8818,3.2671,34.8739,10.95a13.6012,13.6012,0,0,0,14.6876-22.8965C133.9663,93.7386,116.8,88.764,100.4273,88.77a76.9966,76.9966,0,0,0-28.3791,5.322A70.8862,70.8862,0,0,0,39.12,120.5239a73.3045,73.3045,0,0,0-9.4187,20.1689A83.1166,83.1166,0,0,0,26.3985,164.25c0,.0991.0008.1421.0008.1492l-.0007-.1274a63.6335,63.6335,0,0,0,6.9928,29.3108,65.858,65.858,0,0,0,12.683,17.0383,77.1964,77.1964,0,0,0,26.038,16.49,83.3772,83.3772,0,0,0,29.9014,5.624,72.3561,72.3561,0,0,0,24.7344-4.2166,59.471,59.471,0,0,0,21.74-13.6523,77.6217,77.6217,0,0,0,9.197-11.0535,104.72,104.72,0,0,0,10.5974-20.2161c2.0314-5.0039,3.7367-9.9,5.3753-14.5886a192.0488,192.0488,0,0,1,7.57-19.4512,59.9027,59.9027,0,0,1,10.38-15.6328,40.4423,40.4423,0,0,1,14.4023-9.6375,48.4279,48.4279,0,0,1,17.97-3.45,45.9432,45.9432,0,0,1,11.3151,1.3909,39.7779,39.7779,0,0,1,10.1689,4.1091,41.5247,41.5247,0,0,1,20.9346,36.1663,40.1936,40.1936,0,0,1-4.5287,18.67A38.8239,38.8239,0,0,1,248.2081,195.93a42.357,42.357,0,0,1-11.551,5.0681,50.2535,50.2535,0,0,1-26.7153-.1106,42.42,42.42,0,0,1-11.8845-5.3992,13.6014,13.6014,0,0,0-15.0591,22.6543Z"/></svg>