<svg xmlns="http://www.w3.org/2000/svg" viewBox="0 0 320 320"><defs><style>.a{fill:#1a1a1a;}</style></defs><title>flat-hammer</title><path class="a" d="M149.0908,138.1816l-2.8285,2.8284,29.8989,29.8989L73.7555,273.3146a9.1678,9.1678,0,0,1-12.9655,0L46.6853,259.21a9.1678,9.1678,0,0,1,0-12.9655L151.9192,141.01l-2.8284-2.8284-2.8285,2.8284,2.8285-2.8284-2.8285-2.8285L41.0284,240.5875a17.1681,17.1681,0,0,0,0,24.28l14.1042,14.1042a17.1681,17.1681,0,0,0,24.28,0L184.6467,173.7375a4,4,0,0,0,0-5.6569l-32.7275-32.7275a4,4,0,0,0-5.6569,0Z"/><path class="a" d="M160,127.2729l-2.8285,2.8284,32.7271,32.7271a4,4,0,0,0,5.6569,0L217.3738,141.01l-2.8284-2.8284-2.5267,3.1008,1.141-1.4-1.1477,1.395.0067.0054,1.141-1.4-1.1477,1.395a34.32,34.32,0,0,1,4.973,5.3409,26.6018,26.6018,0,0,1,3.2231,5.4559,15.5375,15.5375,0,0,1,1.3521,6.076,12.247,12.247,0,0,1-.08,1.3939l0-.0027a78.1323,78.1323,0,0,0-.6327,8.5394c0,.7468.0269,1.3707.0828,1.9331a9.4467,9.4467,0,0,0,.1924,1.2062,6.0715,6.0715,0,0,0,.2939.9323,4.5853,4.5853,0,0,0,1.1892,1.7051,4.23,4.23,0,0,0,1.2655.7794,4.1448,4.1448,0,0,0,2.9147.0458,4.0693,4.0693,0,0,0,.8359-.412l-2.1681-3.3613-2.8285,2.8284,19.0908,19.0908a7.857,7.857,0,0,0,11.1112,0l27.5725-27.5725A12.288,12.288,0,0,0,284,156.5669V141.6152a12.2894,12.2894,0,0,0-3.5992-8.69l-8.4816-8.4811a4.002,4.002,0,0,0-3.4274-1.1263l-.01.0016c-.1508.0226-1.8047.2661-4.1641.5017-2.3572.2362-5.426.4623-8.3577.4615a41.1946,41.1946,0,0,1-4.28-.1986,15.5506,15.5506,0,0,1-3.1421-.6062,10.2018,10.2018,0,0,1-3.2705-1.9294,21.45,21.45,0,0,1-3.9086-4.5325c-.4692-.7125-.83-1.3347-1.0645-1.7631-.1174-.2142-.2035-.38-.2566-.4845l-.0547-.1093-.0083-.0172-1.428.6876,1.4324-.6783-.0044-.0093-1.428.6876,1.4324-.6783-3.6149,1.7124h4V94.5454a4.0267,4.0267,0,0,0-1.1715-2.8285L195.5554,48.0807a3.9743,3.9743,0,0,0-1.069-.7638,124.83,124.83,0,0,0-14.3091-5.66C171.6887,38.8555,160.4486,36.01,149.0908,36H94.5454a4,4,0,0,0-1.0525,7.859l.0736.02c.8214.2269,8.4054,2.348,18.6967,6.038a242.7648,242.7648,0,0,1,34.885,15.3977c8.6014,4.7745,14.1644,9.5463,17.5071,14.1227a24.133,24.133,0,0,1,3.5477,6.78,21.8063,21.8063,0,0,1,1.0665,6.8381,33.4145,33.4145,0,0,1-2.1324,11.0682,94.9693,94.9693,0,0,1-7.1871,16.027c-.96,1.6537-1.7454,2.828-2.2711,3.5668-.2629.3693-.4611.63-.5839.7866l-.1265.1584-.0184.0223,1.37,1.1482-1.3572-1.1632-.0128.015,1.37,1.1482-1.3572-1.1632a4.0029,4.0029,0,0,0,.2086,5.4315L160,127.2729l3.037,2.603c.3075-.3556,6.0273-7.17,11.644-23.09a41.32,41.32,0,0,0,2.5884-13.73,29.8264,29.8264,0,0,0-1.4622-9.323,34.7106,34.7106,0,0,0-8.3336-13.3177,69.6547,69.6547,0,0,0-16.44-12.093,252.7009,252.7009,0,0,0-37.0822-16.296C103.2535,38.23,95.6676,36.16,95.5978,36.1409L94.5454,40v4h54.5454c10.0059-.01,20.5837,2.5991,28.5724,5.252,3.9971,1.3231,7.3529,2.649,9.6937,3.6376,1.1705.4943,2.0874.9042,2.7045,1.1871.3086.1415.5421.2512.6951.3237l.1682.08.0374.0181.0067.0033.4209-.8628-.4221.8622.0012.0006.4209-.8628-.4221.8622,1.76-3.5922-2.8285,2.8284,42.4651,42.4645v20.1616a4.0532,4.0532,0,0,0,.385,1.7123,32.2091,32.2091,0,0,0,3.3394,5.3252,27.3242,27.3242,0,0,0,4.0287,4.269,18.1245,18.1245,0,0,0,5.8911,3.3973,23.2059,23.2059,0,0,0,4.8252.9717,49.0225,49.0225,0,0,0,5.1265.2434c3.438-.0009,6.8317-.2646,9.3958-.5255,2.5618-.2615,4.2869-.5223,4.3345-.5294l-.599-3.9548-2.8284,2.8285,8.4814,8.481A4.2885,4.2885,0,0,1,276,141.6152v14.9517a4.2876,4.2876,0,0,1-1.2562,3.0323l-27.5723,27.5723.1012.1007V187.13l-.101.0415.101.101v0l.1011-.1011-.1011-.0417v.1428l.1011-.1011L228.283,168.0807a4,4,0,0,0-4.9966-.533l2.1232,3.2917-1.3214-3.688a3.8958,3.8958,0,0,0-.8018.3962l2.1232,3.2917-1.3214-3.688,1.303,3.636v-3.8625a3.8584,3.8584,0,0,0-1.303.2266l1.303,3.636v-.0216l1.6516-3.4687a3.8653,3.8653,0,0,0-1.6516-.3722v3.8409l1.6516-3.4687-1.61,3.38,2.6754-2.6217a3.7567,3.7567,0,0,0-1.0658-.7588l-1.61,3.38,2.6754-2.6217-2.3593,2.3119,3.0731-1.2432a3.2968,3.2968,0,0,0-.7139-1.0687l-2.3593,2.3119,3.0731-1.2432-1.7065.69,1.7994-.4081a1.8956,1.8956,0,0,0-.0929-.2821l-1.7065.69,1.7994-.4081-.3457.0784.3474-.07-.0017-.0079-.3457.0784.3474-.07a8.5073,8.5073,0,0,1-.0688-1.334,71.2152,71.2152,0,0,1,.58-7.6221l0-.0027a20.1847,20.1847,0,0,0,.1316-2.3059,23.5586,23.5586,0,0,0-2.05-9.3459,37.3757,37.3757,0,0,0-6.5029-9.8748,38.3705,38.3705,0,0,0-3.9354-3.8486,4,4,0,0,0-5.3551.2725l-18.99,18.99-29.8986-29.8986L160,127.2729l3.037,2.603Z"/></svg>