<svg xmlns="http://www.w3.org/2000/svg" viewBox="0 0 320 320">
  <defs>
    <style>
      .cls-1 {
        fill: #1a1a1a;
      }
    </style>
  </defs>
  <title>flat-arrow-down</title>
  <g id="Layer_16" data-name="Layer 16">
    <path  d="M73.8789,169.1963l-2.8281,2.8286,77.0352,77.0186,2.8281-2.8286-3.1326,2.4873a13.1782,13.1782,0,0,0,3.3274,2.8125,17.2328,17.2328,0,0,0,9.11,2.4851,15.4713,15.4713,0,0,0,4.978-.8271,17.2109,17.2109,0,0,0,4.9973-2.7073,14.3388,14.3388,0,0,0,1.9363-1.7776l-3.0151-2.6282,2.8279,2.8286L248.9783,171.87A17.032,17.032,0,0,0,254,159.8105a16.89,16.89,0,0,0-16.9084-16.8511,17.0194,17.0194,0,0,0-12.0557,5l-48.02,48.0217.01-112.99a16.8145,16.8145,0,0,0-5.1331-12.052,17.2924,17.2924,0,0,0-24.2065.0046,16.8245,16.8245,0,0,0-5.1338,12.0549l.0015,112.9717L94.8154,148.0073,94.8083,148A16.8561,16.8561,0,0,0,66,159.87a17.1785,17.1785,0,0,0,5.0508,12.1545l2.8284-2.8286,2.8281-2.8289A9.1718,9.1718,0,0,1,74,159.87a8.7186,8.7186,0,0,1,2.5657-6.2185,8.8309,8.8309,0,0,1,12.5872.0061l-.0071-.0073,54.5732,54.8311a4,4,0,0,0,6.8352-2.8218l-.002-122.6611a8.8146,8.8146,0,0,1,2.7195-6.3274,9.2915,9.2915,0,0,1,13.0366-.0032,8.8041,8.8041,0,0,1,2.7175,6.323l-.0107,122.6479a4,4,0,0,0,6.8284,2.8289l54.85-54.8516a9.01,9.01,0,0,1,6.3984-2.6572,8.8774,8.8774,0,0,1,6.3149,2.6145A8.7556,8.7556,0,0,1,246,159.8105a9.0253,9.0253,0,0,1-2.6777,6.4019l-77.0349,77.0183-.1873.2,1.2615,1.1-1.2332-1.1318-.0283.0322,1.2615,1.1-1.2332-1.1318a9.1938,9.1938,0,0,1-3.6367,2.2422,7.4385,7.4385,0,0,1-2.2727.3589,9.2028,9.2028,0,0,1-4.9192-1.3,6.9215,6.9215,0,0,1-1.0884-.8181c-.1062-.0991-.1738-.1709-.2017-.2014l-.0134-.0149,0,0-1.6226,1.39,1.6731-1.3284-.0505-.062-1.6226,1.39,1.6731-1.3284a3.6389,3.6389,0,0,0-.3044-.3413L76.7068,166.3674Z"/>
  </g>
</svg>
