<svg xmlns="http://www.w3.org/2000/svg" viewBox="0 0 320 320"><defs><style>.a{fill:#1a1a1a;}</style></defs><title>flat-earth-outline</title><path  d="M178.1816,114.5454l-1.7889-.8944q-4.3894,8.7795-8.7788,17.558l.0009-.0016a2.3741,2.3741,0,0,0-.2474,1.0677,3.0736,3.0736,0,0,0,.2126,1.0867,7.1057,7.1057,0,0,0,.786,1.4418,24.8437,24.8437,0,0,0,2.115,2.6185,43.1491,43.1491,0,0,0,4.0242,3.8957,18.251,18.251,0,0,0,1.9093,1.4275,6.8724,6.8724,0,0,0,.939.5057,3.2205,3.2205,0,0,0,1.28.2905,2.3791,2.3791,0,0,0,1.06-.2435l.0167-.0083-.0109.0054q4.9885-2.4939,9.9768-4.9884c.0992-.05.31-.1431.5723-.2491.9353-.38,2.5068-.9371,3.9719-1.581a17.2066,17.2066,0,0,0,2.1046-1.0749,7.1075,7.1075,0,0,0,.9382-.683,3.8683,3.8683,0,0,0,.8492-1.0215,9.0389,9.0389,0,0,0,.9412-2.9925,22.1879,22.1879,0,0,0,.2235-3.3673c-.001-2.3432-.2378-4.8641-.4667-7.1593-.2308-2.2845-.45-4.3714-.4469-5.6329h-2l-1.4143,1.4142,18.0029,18.0029a3.3556,3.3556,0,0,0,1.6511.8688,6.6037,6.6037,0,0,0,1.4753.1454,26.2861,26.2861,0,0,0,3.0643-.2617,23.3142,23.3142,0,0,1,2.5682-.2315,3.489,3.489,0,0,1,.4866.0277l.0828.0152.0146.0037.2847-.8408-.66.5553a.9243.9243,0,0,0,.3755.2855l.2847-.8408-.66.5553.9456-.7953-1.1688.4011a1.25,1.25,0,0,0,.2233.3943l.9456-.7953-1.1688.4011.9968-.3421h-1.0573a1.0665,1.0665,0,0,0,.06.3421l.9968-.3421h-1.0573q0,8.31,0,16.62h1.488l-1.3195-.7a1.5025,1.5025,0,0,0-.1686.7h1.488l-1.3195-.7.8539.453-.6925-.6827a.9784.9784,0,0,0-.1614.23l.8539.453-.6925-.6827.2125.21-.2019-.22-.0106.01.2125.21-.2019-.22-.0145.0117a3.0673,3.0673,0,0,1-.4524.2682,16.2236,16.2236,0,0,1-2.03.8119,123.17,123.17,0,0,1-12.3218,3.0987c-2.1864.4627-4.2456.8753-5.901,1.2077-.828.1663-1.5548.3124-2.15.4357-.5984.1241-1.0538.2218-1.3912.3058-.69.1739-1.4459.4341-2.2883.7309-1.2556.4445-2.68.9715-4.0106,1.3765-.6639.2025-1.3029.3736-1.8673.4893a7.2232,7.2232,0,0,1-1.3871.1726,1.7239,1.7239,0,0,1-.3967-.0355,2.0767,2.0767,0,0,1-.5316-.261,10.8476,10.8476,0,0,1-1.7715-1.5141c-1.0073-1.019-2.097-2.3288-3.1058-3.5646-.5056-.6187-.9928-1.22-1.452-1.7669-.4608-.548-.8884-1.0387-1.3093-1.46l-1.4143-1.4138-1.4139,1.414-18.0029,18.0029.0007-.0007a2.4794,2.4794,0,0,0-.6222,1.0618,3.08,3.08,0,0,0-.1184.8715,5.234,5.234,0,0,0,.1558,1.1918,15.0763,15.0763,0,0,0,.7886,2.2907,85.11,85.11,0,0,0,5.5894,10.3233c1.0852,1.7572,2.1587,3.4039,3.0959,4.7517.4691.6744.9037,1.2738,1.2958,1.7824a13.6362,13.6362,0,0,0,1.0837,1.2733,53.8827,53.8827,0,0,1,8.2562,10.66c2.2506,3.7379,4.2183,7.7837,6.52,12.39a4.6126,4.6126,0,0,1,.4076,2.1093,21.6707,21.6707,0,0,1-.1694,2.28,24.91,24.91,0,0,0-.1927,2.6869,8.4868,8.4868,0,0,0,.5631,3.2168,10.5986,10.5986,0,0,0,1.9745,2.9856,38.6263,38.6263,0,0,0,4.0781,3.7742c1.3846,1.1488,2.6946,2.2078,3.4781,2.9956l1.962,1.9622,1.2411-2.482q13.48-26.96,26.9609-53.9219a9.9756,9.9756,0,0,0,.8789-2.9361,20.7136,20.7136,0,0,0,.2117-3.1414c-.0006-1.7572-.1492-3.5488-.2914-5.1929-.1437-1.6393-.2783-3.1421-.2766-4.2124a9.1039,9.1039,0,0,1,.1534-1.8862,1.8442,1.8442,0,0,1,.1807-.5285l.0287-.0422.0009-.0019a.5728.5728,0,0,1,.178-.0557,3.5145,3.5145,0,0,1,.6808-.0517c.57-.0019,1.389.0768,2.38.1668.9933.0886,2.1643.1826,3.4882.1826,1.4347,0,2.7135-.0355,3.8789-.0353a22.6315,22.6315,0,0,1,3.953.2708,13.4953,13.4953,0,0,1,3.7941,1.2682,66.298,66.298,0,0,1,6.1576,3.588,70.1232,70.1232,0,0,0,6.5115,3.788l2.8943,1.4472v-3.2361a39.0671,39.0671,0,0,1,1.0012-7.0462,44.6412,44.6412,0,0,0,1.0762-8.5886,21.0309,21.0309,0,0,0-.2875-3.546,53.4832,53.4832,0,0,0-4.5248-13.3476c-1.9475-4.2134-4.077-8.2721-5.71-12.36-1.1582-2.8906-2.2-6.3891-3.4131-9.8846a44.3866,44.3866,0,0,0-4.5757-9.9723,53.6232,53.6232,0,0,0-8.5377-9.3895c-3.1622-2.89-6.4137-5.6146-9.0466-8.25a46.8946,46.8946,0,0,0-8.3568-6.329c-2.96-1.85-5.9537-3.5387-8.54-5.2646q-5.3564-3.5714-10.7128-7.142l0,0a3.8548,3.8548,0,0,0-2.1569-.63,6.1594,6.1594,0,0,0-2.2363.4758,17.2835,17.2835,0,0,0-2.6967,1.4264c-.7833.4891-1.4847.9421-1.84,1.1149q-5.7235,2.8621-11.4476,5.7241a2.3971,2.3971,0,0,0-.7156.5517,3.23,3.23,0,0,0-.5543.9,7.6833,7.6833,0,0,0-.4246,1.4472,28.3336,28.3336,0,0,0-.458,5.2163,18.4077,18.4077,0,0,0,.1184,2.2512,6.5919,6.5919,0,0,0,.1953.9932,3.5121,3.5121,0,0,0,.2053.5452,2.5229,2.5229,0,0,0,.4906.7016l-.0006-.0006a2.9746,2.9746,0,0,0,1.1857.7024,7.082,7.082,0,0,0,1.5376.299c.5322.0525,1.1024.0744,1.701.0746a29.2013,29.2013,0,0,0,4.4232-.35,14.796,14.796,0,0,0,1.943-.4305,6.3667,6.3667,0,0,0,.87-.3312,3.3113,3.3113,0,0,0,.9319-.6373l8.4178-8.4178-1.4142-1.4142h-2c.0013.13-.0214.5134-.0616.98-.1189,1.4313-.3757,3.7327-.3779,5.6625a11.9237,11.9237,0,0,0,.1217,1.86,4.939,4.939,0,0,0,.2339.9252,2.9372,2.9372,0,0,0,.67,1.0783l-.0006-.0006a2.9368,2.9368,0,0,0,1.0781.67,5.6659,5.6659,0,0,0,1.3762.2929,13.9069,13.9069,0,0,0,1.4086.0627c1.2933-.0009,2.731-.1168,3.9865-.2276.6259-.0556,1.2037-.1105,1.6759-.15.4664-.04.85-.063.98-.0616v-2L204.04,85.8587q-4.2083,4.2084-8.4176,8.4176a1.6146,1.6146,0,0,1-.71.2859,8.7251,8.7251,0,0,1-1.8693.1639c-.9366.0006-1.988-.0832-2.9867-.1732-1.0056-.0885-1.9377-.1867-2.7842-.1892-.5084.0025-1.4116-.0805-2.4277-.1732-1.0233-.0912-2.18-.1886-3.3439-.1892a12.5393,12.5393,0,0,0-2.7612.2646,5.3561,5.3561,0,0,0-2.6464,1.3572q-4.2081,4.2082-8.4171,8.4171l-1.4144,1.4141,1.4143,1.4144,9.0908,9.0908,1.4143-1.4142-1.7889-.8944,1.7889.8944,1.4142-1.4142L170.505,104.04l-1.4142,1.4142,1.4141,1.4143q4.2094-4.2087,8.4176-8.4176a1.6109,1.6109,0,0,1,.7095-.286,8.7248,8.7248,0,0,1,1.8694-.1639c.9366-.0006,1.988.0832,2.9868.1732,1.0057.0885,1.9381.1867,2.7848.1892.5079-.0025,1.411.08,2.4271.1732,1.0232.0912,2.18.1886,3.3438.1892a12.5392,12.5392,0,0,0,2.761-.2646,5.3578,5.3578,0,0,0,2.6464-1.3568q4.2085-4.2093,8.4176-8.4176l-1.4142-3.4142c-.3916.0014-.806.0337-1.3164.0757-1.4988.1283-3.7369.366-5.326.3637a8.2444,8.2444,0,0,1-1.2211-.07l-.1421-.0279-.0385-.0105-.1667.5013.2517-.4616-.085-.04-.1667.5013.2517-.4616-.597,1.0951.88-.8793a1.2465,1.2465,0,0,0-.2827-.2157l-.597,1.0951.88-.8793-.0006-.0006-.7267.7271.981-.3624a1.0459,1.0459,0,0,0-.2543-.3647l-.7267.7271.981-.3624-.0239.0088.0244-.0077,0-.0011-.0239.0088.0244-.0077a2.5933,2.5933,0,0,1-.0715-.4513c-.0239-.2523-.0369-.5807-.0367-.9489-.0009-1.0525.103-2.4144.212-3.6328.0542-.6111.1093-1.1888.1519-1.6933.042-.51.0743-.9246.0757-1.3161l-3.4142-1.4142-8.4175,8.4175.7273.727-.5605-.8653-.1664.138.7269.7273-.5605-.8653.1948.3007-.1741-.3134-.0208.0127.1948.3007-.1741-.3134-.0449.021a5.1394,5.1394,0,0,1-.8247.2428,23.6,23.6,0,0,1-4.6583.4653,11.5642,11.5642,0,0,1-1.6251-.0942,2.2931,2.2931,0,0,1-.3375-.07l-.0024-.0009-.3788,1.0094.7483-.7481a1.0652,1.0652,0,0,0-.37-.2614l-.3788,1.0094.7483-.7481-.0006-.0006-1.0239,1.0246,1.3107-.63a1.432,1.432,0,0,0-.2867-.3943l-1.0239,1.0246,1.3107-.63-.7236.3479.751-.2852-.0273-.0628-.7236.3479.751-.2852-.218.0828.2228-.0694-.0048-.0134-.218.0828.2228-.0694a4.2844,4.2844,0,0,1-.1035-.7069c-.0339-.3906-.0527-.8873-.0526-1.4254a27.1373,27.1373,0,0,1,.2578-3.7322,8.5358,8.5358,0,0,1,.2565-1.23l.0437-.1227.0067-.0156-.2627-.121.25.144.0126-.023-.2627-.121.25.144-.943-.5426.806.7268a1.08,1.08,0,0,0,.137-.1842l-.943-.5426.806.7268-1.1864-1.07.713,1.4254a1.5921,1.5921,0,0,0,.4734-.3555l-1.1864-1.07.713,1.4254q5.7233-2.8621,11.4475-5.724c.4884-.2459.9481-.5346,1.4321-.8373.7185-.4526,1.4769-.935,2.151-1.274a3.79,3.79,0,0,1,1.4-.4833l.0349.0016.0037-.03-.0067.0293.0031.0007.0037-.03-.0067.0293.0652-.28-.1583.2376.0931.0425.0652-.28-.1583.2376Q201.4254,74.87,206.782,78.44c2.7637,1.8411,5.7814,3.54,8.6381,5.3278a43.1228,43.1228,0,0,1,7.65,5.7662c2.8163,2.814,6.0992,5.5578,9.1755,8.3731a49.9365,49.9365,0,0,1,7.9092,8.6566,40.7238,40.7238,0,0,1,4.1254,9.066c1.177,3.3839,2.2227,6.9154,3.4775,10.0576,1.74,4.3458,3.9059,8.4611,5.7927,12.5517a49.6591,49.6591,0,0,1,4.2135,12.3442,17.05,17.05,0,0,1,.23,2.8725,41.0629,41.0629,0,0,1-1.0012,7.8176,42.103,42.103,0,0,0-1.0762,7.8172h2l.8943-1.7889a66.3079,66.3079,0,0,1-6.1575-3.5879,70.12,70.12,0,0,0-6.5115-3.788,17.5288,17.5288,0,0,0-4.8914-1.63,26.491,26.491,0,0,0-4.6445-.3311c-1.2439,0-2.5117.0355-3.8789.0353-1.1349,0-2.17-.0807-3.1322-.1668-.9642-.0847-1.85-.1807-2.7363-.1826a6.5368,6.5368,0,0,0-2.0321.2772,4.1332,4.1332,0,0,0-1.5243.8771,4.2255,4.2255,0,0,0-.8475,1.0885,6.2413,6.2413,0,0,0-.647,1.9633,14.0423,14.0423,0,0,0-.1714,2.36c.0017,1.37.151,2.9268.2914,4.5584.1418,1.6267.2772,3.3174.2766,4.8469a16.83,16.83,0,0,1-.1648,2.53,6.0822,6.0822,0,0,1-.5037,1.7592q-13.481,26.961-26.9609,53.9217l1.7889.8944,1.4142-1.4142c-.6995-.6981-1.527-1.3989-2.4071-2.1313-1.3171-1.0936-2.7509-2.2516-3.9242-3.3751a16.4712,16.4712,0,0,1-1.5055-1.6154,5.57,5.57,0,0,1-.8138-1.3037,4.5482,4.5482,0,0,1-.2719-1.7181,21.5437,21.5437,0,0,1,.1694-2.2554,25.0618,25.0618,0,0,0,.1927-2.7113,8.5666,8.5666,0,0,0-.83-3.8981c-2.29-4.5781-4.295-8.7141-6.6708-12.6635a57.9265,57.9265,0,0,0-8.8552-11.4256,12.654,12.654,0,0,1-.9746-1.19,105.5129,105.5129,0,0,1-6.231-9.7777c-1.0563-1.8609-2.007-3.67-2.672-5.1347a19.5778,19.5778,0,0,1-.7555-1.8714,5.9665,5.9665,0,0,1-.17-.6022l-.03-.1692-.0039-.0388,0,0h-.9076l.8647.2534a.9138.9138,0,0,0,.0428-.2534h-.9076l.8647.2534-1.459-.4276,1.07,1.0707a1.5282,1.5282,0,0,0,.3894-.6431l-1.459-.4276,1.07,1.0707.0007-.0007,18.0029-18.0029-1.4142-1.4142-1.4141,1.4144c.4186.4158,1.0634,1.18,1.7852,2.0638,1.0918,1.3327,2.3839,2.9528,3.7258,4.3613a18.7053,18.7053,0,0,0,2.0809,1.9157,6.8449,6.8449,0,0,0,2.4207,1.2739,5.6086,5.6086,0,0,0,1.3824.1588,12.5765,12.5765,0,0,0,2.9314-.4221c1.4811-.3659,3.0085-.8985,4.3739-1.384,1.3529-.4844,2.5781-.9268,3.218-1.0827.29-.073.965-.2165,1.85-.3961,3.1226-.6353,9.0226-1.776,14.18-3.0418a67.2941,67.2941,0,0,0,6.8237-1.9768,13.6,13.6,0,0,0,2.4-1.1055,4.4726,4.4726,0,0,0,.9976-.8125,2.89,2.89,0,0,0,.4612-.6933,2.4914,2.4914,0,0,0,.2379-1.0547v-16.62a2.8109,2.8109,0,0,0-1.3871-2.459,3.8324,3.8324,0,0,0-1.3319-.4734,7.0776,7.0776,0,0,0-1.2057-.0922,26.2633,26.2633,0,0,0-3.059.2617,23.33,23.33,0,0,1-2.5736.2315,2.86,2.86,0,0,1-.5773-.0433l-.02-.0052-.2555.761.5552-.5551a.8393.8393,0,0,0-.3-.2059l-.2555.761.5552-.5551L197.778,113.1312l-3.4142,1.4142c.0034,1.6508.2407,3.7519.4667,6.0313.2279,2.2687.4479,4.6877.4469,6.7609a18.3489,18.3489,0,0,1-.176,2.7521,5.2424,5.2424,0,0,1-.4863,1.6669l.6112.3393-.5637-.4144-.0476.0752.6113.3392-.5637-.4144.1842.1355-.17-.1532-.0139.0177.1842.1355-.17-.1532a4.2722,4.2722,0,0,1-.94.6129,30.1865,30.1865,0,0,1-3.0632,1.3276c-.5415.2093-1.0647.4064-1.5332.59-.472.1858-.8762.3484-1.2524.535q-4.9889,2.4948-9.9767,4.9884l.0059-.0029.7167,1.4452v-1.618a1.6212,1.6212,0,0,0-.7167.1728l.7167,1.4452v-.4274l.26-1.1641a1.19,1.19,0,0,0-.26-.0265v1.1906l.26-1.1641-.0967.4315.1545-.4159-.0579-.0156-.0967.4315.1545-.4159a3.6738,3.6738,0,0,1-.597-.3483,21.0641,21.0641,0,0,1-2.1727-1.7631,39.2832,39.2832,0,0,1-3.522-3.6343,14.56,14.56,0,0,1-1.1121-1.476,3.1044,3.1044,0,0,1-.2148-.3857l-.0081-.02-.8971.3186h.9393a.9536.9536,0,0,0-.0422-.3186l-.8971.3186h-.6825l1.4454.7243a1.6224,1.6224,0,0,0,.1764-.7243h-1.6218l1.4454.7243.0009-.0016q4.3894-8.7788,8.7788-17.5582l.6445-1.2894-1.0192-1.0192Z"/><path  d="M150.9092,87.2729h-2q0,4.5454,0,9.0908l3.4143,1.4141q4.2081-4.209,8.4174-8.4174A5.3612,5.3612,0,0,0,162.1,86.7333a12.2264,12.2264,0,0,0,.2673-2.739c-.0006-1.158-.0995-2.31-.1918-3.3361-.0939-1.02-.1779-1.9326-.1757-2.4766l-3.4142-1.4142q-4.5454,4.5454-9.0909,9.0914l-.5856.5857v.8284h2l1.4143,1.4141q4.5452-4.546,9.0907-9.0912L160,78.1816h-2c.0022.8742.1019,1.8264.1918,2.837.0914,1.0042.1763,2.05.1757,2.9757a8.4075,8.4075,0,0,1-.1635,1.8326,1.573,1.573,0,0,1-.2916.7052Q153.704,90.74,149.4948,94.95l1.4144,1.4141h2V87.2729h-2l1.4143,1.4141Z"/><path  d="M96.3638,87.2729l-.8945,1.7888q6.0353,3.0176,12.0713,6.0356a23.4,23.4,0,0,0,2.2235.9484,13.9774,13.9774,0,0,1,2.1007.8821l.1416.1026.0106.01.2283-.2124-.2845.1143.0563.098.2283-.2124-.2845.1143.37-.1486-.3925.0728.0225.0758.37-.1486-.3925.0728.2275-.0422-.2306.0206.0031.0217.2275-.0422-.2306.0206.0258-.0023h-.026l0,.0023.0258-.0023h-.026a2.5583,2.5583,0,0,1-.3262.9214l0-.0005q-3.635,7.27-7.27,14.5405l-.1392.1721a1.7392,1.7392,0,0,1-.7026.2849,6.95,6.95,0,0,1-1.4762.1306c-.7844.0007-1.682-.0777-2.5721-.1641-.8949-.0847-1.772-.18-2.6237-.1825a10.6856,10.6856,0,0,0-3.2075.6192,51.4214,51.4214,0,0,0-6.647,2.9054c-3.6268,1.821-7.6,4.0223-11.0767,5.7461-1.7351.8612-3.3466,1.6018-4.6869,2.1078a16.2031,16.2031,0,0,1-1.7671.5705,4.8782,4.8782,0,0,1-1.1066.172v1.3729l.5591-1.2474a1.3807,1.3807,0,0,0-.5591-.1255v1.3729l.5591-1.2474-.6335,1.4133,1.12-1.07a1.5612,1.5612,0,0,0-.486-.3435l-.6335,1.4133,1.12-1.07-1.0194.9741,1.3607-.3954a1.4253,1.4253,0,0,0-.3413-.5787l-1.0194.9741,1.3607-.3954-.7091.206h.7455a.7719.7719,0,0,0-.0364-.206l-.7091.206h.7455l.0084-.0859a7.4955,7.4955,0,0,1,.4484-1.4723,46.8812,46.8812,0,0,1,2.1957-4.6031c1.4009-2.644,3.1134-5.5862,4.5588-8.06.7233-1.238,1.38-2.359,1.9038-3.28.2623-.4612.4913-.8721.6826-1.23.1921-.3616.3431-.6575.47-.9554a6.6787,6.6787,0,0,1,1.1855-1.6976,34.0656,34.0656,0,0,1,3.4138-3.1523c1.262-1.0581,2.5067-2.0525,3.4709-3.0126q4.842-4.8414,9.6835-9.683l-1.4141-1.4143-.8945,1.7888.8945-1.7888L94.95,85.8586Q90.1074,90.7,85.266,95.5417c-.4678.4692-1.168,1.0723-1.96,1.733-1.1914.9961-2.593,2.13-3.8607,3.3431a20.0059,20.0059,0,0,0-1.77,1.9023,9.2874,9.2874,0,0,0-1.3357,2.1564c-.0569.1415-.304.6251-.6436,1.23-1.2058,2.1634-3.6425,6.1874-5.7775,10.0525-1.07,1.9378-2.0674,3.8388-2.82,5.5024a23.7939,23.7939,0,0,0-.9281,2.3251,7.0367,7.0367,0,0,0-.4138,2.1332,3.3075,3.3075,0,0,0,.0924.7985,2.7016,2.7016,0,0,0,.2814.7039,2.4756,2.4756,0,0,0,.9862.9512,2.605,2.605,0,0,0,1.2172.2926,10.6856,10.6856,0,0,0,3.2074-.6192,51.4285,51.4285,0,0,0,6.647-2.9054c3.6268-1.821,7.6-4.0223,11.0767-5.7461,1.7351-.8612,3.3466-1.6018,4.6869-2.1078a16.2014,16.2014,0,0,1,1.7671-.5705,4.8776,4.8776,0,0,1,1.1067-.172c.5256-.002,1.3364.0755,2.24.1641.9084.0869,1.92.1818,2.9558.1825a9.4648,9.4648,0,0,0,3.1439-.4541,5.232,5.232,0,0,0,1.5436-.8459,4.5,4.5,0,0,0,1.2081-1.4987q3.6352-7.27,7.27-14.5406l0-.0005a6.1192,6.1192,0,0,0,.7478-2.7091,3.7146,3.7146,0,0,0-.2706-1.4116,3.9613,3.9613,0,0,0-1.4338-1.7326,11.0743,11.0743,0,0,0-2.4637-1.1737,24.975,24.975,0,0,1-2.4373-1.0053q-6.0359-3.0183-12.0712-6.0356l-1.2894-.6447L94.95,85.8586Z"/><path  d="M115.4814,230.4326l1.7888-.8944q-3.635-7.27-7.27-14.5405a1.6162,1.6162,0,0,1-.114-.6988,8.4885,8.4885,0,0,1,.4739-2.4249,42.0794,42.0794,0,0,1,2.9045-6.4591c1.9187-3.6256,4.3152-7.5992,6.2594-11.1815a54.9583,54.9583,0,0,0,2.475-5.043,18.7219,18.7219,0,0,0,.7805-2.2382,8.2994,8.2994,0,0,0,.3209-2.1367v-16.3a2.0024,2.0024,0,0,0-.24-.9593,2.2846,2.2846,0,0,0-.366-.5075,5.1905,5.1905,0,0,0-.4548-.4222c-.29-.2436-.6516-.5235-1.0907-.8541-1.5256-1.1474-3.9658-2.8758-6.0289-4.3732-1.0287-.7464-1.9631-1.4355-2.6117-1.9408-.3223-.25-.577-.46-.705-.5756l-.0652-.06-.0009,0-.9482.8731,1.0745-.708a1.2511,1.2511,0,0,0-.1262-.1651l-.9482.8731,1.0745-.708-1.4973.9866,1.6528-.6939a1.7618,1.7618,0,0,0-.1555-.2927l-1.4973.9866,1.6528-.6939-1.7827.7485h1.9324a1.9053,1.9053,0,0,0-.15-.7485l-1.7827.7485h-.0383l1.835.7186a1.9725,1.9725,0,0,0,.1357-.7186h-1.9707l1.835.7186-1.84-.72,1.0366,1.6823a1.9984,1.9984,0,0,0,.8032-.9618l-1.84-.72,1.0366,1.6823-1.0238-1.6614.2672,1.9339a1.9392,1.9392,0,0,0,.7566-.2725l-1.0238-1.6614.2672,1.9339-.5565-3.9611a4.71,4.71,0,0,0-2.2858,1.0127,9.9251,9.9251,0,0,0-2.3024,2.9971,29.3832,29.3832,0,0,1-2.5779,4.3518,4.9427,4.9427,0,0,1-1.4425,1.2459,3.844,3.844,0,0,1-1.8892.4461,11.3016,11.3016,0,0,1-4.9723-1.5193l-.9137,1.7791,1.8574.7413a2.5349,2.5349,0,0,0,.1787-.94,2.9745,2.9745,0,0,0-.2588-1.1857,5.5859,5.5859,0,0,0-.9514-1.4237,20.8492,20.8492,0,0,0-2.2789-2.1362c-1.2742-1.06-2.69-2.1249-3.7522-2.9773-.5277-.4223-.97-.7975-1.2155-1.0379l-.14-.1428-.0383-.0443-.6241.49.7043-.3562a.7972.7972,0,0,0-.08-.134l-.6241.49.7043-.3562-1.476.7465h1.6455a1.625,1.625,0,0,0-.17-.7465l-1.476.7465h-.2107l1.6447.8582a1.867,1.867,0,0,0,.2115-.8582H85.1284l1.6447.8582.0049-.0094.0107-.0214c2.2657-4.5309,6.068-12.1358,8.3335-16.6665A4.9825,4.9825,0,0,0,95.6937,142a3.9257,3.9257,0,0,0-.2932-1.496,4.7228,4.7228,0,0,0-1.6-1.97,13.7931,13.7931,0,0,0-3.6683-1.748c-.9745-.3386-1.9723-.6487-2.9069-.9742a13.1076,13.1076,0,0,1-3.3839-1.58,2.68,2.68,0,0,1-.7283-.7566,1.3954,1.3954,0,0,1-.1953-.7484v-2h-2c-.427.0034-1.3151-.0834-2.314-.1809-1.0087-.0958-2.1584-.1984-3.3049-.1991a10.1317,10.1317,0,0,0-3.0795.3955,4.6337,4.6337,0,0,0-1.5178.8037,3.562,3.562,0,0,0-1.1337,1.633l0-.0007q-2.2288,6.6857-4.4569,13.37c-.028.084-.1349.3969-.2889.8558-.5428,1.6181-1.7112,5.1691-2.7522,8.9428-.5206,1.8882-1.01,3.8317-1.3743,5.6358a26.1553,26.1553,0,0,0-.6129,4.8839,6.0982,6.0982,0,0,0,.4091,2.4252,3.0808,3.0808,0,0,0,.9426,1.2329,2.7832,2.7832,0,0,0,1.6917.5657c1.1212-.0017,2.3212.1374,3.562.2322l.1494-1.9944L65.19,168.1958a12.6824,12.6824,0,0,0-1.3608,2.9009c-.53,1.5053-.9829,3.0862-1.4515,4.1321a4.01,4.01,0,0,1-.5731,1l-.0443.0437.2151.2684-.1217-.3165-.0934.0481.2151.2684-.1217-.3165.23.5987v-.6413l-.23.0426.23.5987v-.6413H58.8476l1.447,2.8943c1.3525,2.6982,2.67,6.279,4.2223,9.7933,1.5652,3.5159,3.3463,6.9955,5.9165,9.5821,4.8088,4.8089,8.6919,8.9,12.3341,14.3626q6.9763,10.4635,13.9521,20.9278a5.409,5.409,0,0,0,1.0831,1.1636,12.3445,12.3445,0,0,0,2.2888,1.4227c1.2317.6154,2.5741,1.1423,3.7739,1.6057.5989.2308,1.1606.4445,1.6423.6367s.885.3647,1.136.4908q4.5452,2.2734,9.09,4.5457l2.8947,1.448v-3.2367c-.0012-1.5873.1129-3.2249.1143-4.9255a15.9241,15.9241,0,0,0-1.4728-7.3546l-1.7888.8944-1.7889.8943a12.0015,12.0015,0,0,1,1.0507,5.5659c.0013,1.511-.113,3.1568-.1143,4.9255h2l.8947-1.7887q-4.546-2.2737-9.0908-4.5459c-.6615-.3286-1.4371-.6294-2.3029-.9645-1.29-.4962-2.7567-1.05-3.9557-1.625a11.7578,11.7578,0,0,1-1.5062-.8376,2.5611,2.5611,0,0,1-.62-.5336q-6.9763-10.4641-13.9523-20.9278a95.2509,95.2509,0,0,0-12.8337-14.9722c-1.9357-1.9193-3.61-5.0138-5.0873-8.3725-1.49-3.36-2.8018-6.9543-4.3022-9.9631l-1.7889.8943v2a3.435,3.435,0,0,0,1.9872-.6444,4.6706,4.6706,0,0,0,1.0853-1.1042,10.1643,10.1643,0,0,0,1.129-2.184c.4489-1.1381.8092-2.3469,1.1735-3.412a10.8393,10.8393,0,0,1,1.0276-2.3756l-1.4989-3.1272c-1.12-.082-2.4293-.2417-3.8607-.2434v1.2209l.7373-.9647a1.2623,1.2623,0,0,0-.7373-.2562v1.2209l.7373-.9647-.6115.8.885-.4962a1.0288,1.0288,0,0,0-.2736-.3038l-.6115.8.885-.4962-.397.2226.42-.1774-.0226-.0452-.397.2226.42-.1774-.007.0029.0074-.0024,0,0-.007.0029.0074-.0024a3.16,3.16,0,0,1-.0773-.83,25.44,25.44,0,0,1,.6859-4.819c.6388-2.9539,1.6234-6.3737,2.4717-9.1122.4242-1.37.8143-2.5723,1.1108-3.4689.298-.9011.4958-1.4775.5547-1.6536q2.2286-6.6844,4.4569-13.37l0-.0007-.3977-.1324.2706.33.1271-.198-.3977-.1324.2706.33-.0094-.0114.0084.0123.001-.0009-.0094-.0114.0084.0123a1.83,1.83,0,0,1,.6107-.19,8.406,8.406,0,0,1,1.453-.1048c.9032-.0007,1.9451.0867,2.9244.1809.9893.0924,1.8857.1957,2.6945.1991v-2h-2a5.4248,5.4248,0,0,0,.8676,2.9715,6.806,6.806,0,0,0,1.7264,1.7857A15.1487,15.1487,0,0,0,85.2,139.3352c1.9044.7,3.8461,1.2354,5.1284,1.8109a4.5863,4.5863,0,0,1,1.2617.7461l.1106.1313.0679-.0324-.0729.0166.005.0158.0679-.0324-.0729.0166.0837-.0191-.0854.0095.0017.01.0837-.0191-.0854.0095V142a1.128,1.128,0,0,1-.15.44c-2.2654,4.53-6.0676,12.1353-8.3331,16.666L85,160l-1.7732-.9253a2.1514,2.1514,0,0,0-.2421.9924,2.2778,2.2778,0,0,0,.1649.8457,3.0318,3.0318,0,0,0,.4807.7962,8.2685,8.2685,0,0,0,.9479.95c.6128.5389,1.3678,1.1309,2.1753,1.762,1.2065.9411,2.5277,1.9662,3.4836,2.8331a9.7553,9.7553,0,0,1,1.0588,1.0807,1.6171,1.6171,0,0,1,.1487.2133l.8356-.4138H91.37a.9546.9546,0,0,0,.075.4138l.8356-.4138h.5544l-1.3588-.5423a1.4729,1.4729,0,0,0-.1062.5423h1.465l-1.3588-.5423-.6744,1.6893,1.6182.8311a15.1262,15.1262,0,0,0,6.8,1.9611,8.0272,8.0272,0,0,0,2.985-.5508,8.7069,8.7069,0,0,0,3.627-2.8381,37.816,37.816,0,0,0,2.9008-4.9013,7.2877,7.2877,0,0,1,1.016-1.4614,1.566,1.566,0,0,1,.3347-.2707l.2-.0714-.5565-3.9611a2.0337,2.0337,0,0,0-1.5659,2.875,2.3127,2.3127,0,0,0,.36.5539,4.7986,4.7986,0,0,0,.4767.47c.2993.2625.6653.553,1.1079.8931,1.537,1.1784,3.9792,2.9145,6.0482,4.4079,1.0317.7444,1.9691,1.4274,2.6246,1.9268.3258.2478.5851.454.7223.5721l.0734.0647.01.01.2612-.2722-.2742.2589.0129.0134.2612-.2722-.2742.2589,1.0494-.9906-1.1892.8145a1.3988,1.3988,0,0,0,.14.1761l1.0494-.9906-1.1892.8145,1.5232-1.0431-1.6882.7462a1.8169,1.8169,0,0,0,.165.297l1.5232-1.0431-1.6882.7462,1.7872-.79h-1.953a1.925,1.925,0,0,0,.1658.79l1.7872-.79h-1.953q0,8.15,0,16.3a6.5253,6.5253,0,0,1-.453,1.9507,45.3308,45.3308,0,0,1-2.9114,6.0581c-1.928,3.5162-4.3356,7.5123-6.2887,11.2557a50.4046,50.4046,0,0,0-2.4827,5.3859,14.24,14.24,0,0,0-1.0785,4.833,5.5185,5.5185,0,0,0,.5363,2.4879q3.6348,7.27,7.27,14.54Z"/><path  d="M123.6362,250.9092l.6323,1.8974q9.6074-3.2022,19.214-6.4048c1.7817-.5944,3.1543-1.0437,4.2432-1.3293a10.0761,10.0761,0,0,1,2.564-.4073,7.2851,7.2851,0,0,1,2.6981.5828c1.1284.4278,2.594,1.1414,4.6089,2.15,2.99,1.4919,5.4258,2.8458,8.075,3.865a24.16,24.16,0,0,0,9.0261,1.646h21.666v-2l-.4851-1.94-17.356,4.3389c-3.0154.7564-6.2944,1.9527-9.5275,2.9408A32.4916,32.4916,0,0,1,160,258a29.5237,29.5237,0,0,1-8.1636-1.592c-2.9471-.9006-5.9423-1.9935-8.7069-2.6872l-19.0083-4.7519-.485,1.94.6323,1.8974-.6323-1.8974-.4851,1.94,19.0083,4.752c2.4609.6125,5.4355,1.689,8.5057,2.6313A33.1028,33.1028,0,0,0,160,262a36.0708,36.0708,0,0,0,10.1666-1.9268c3.356-1.03,6.6145-2.21,9.3262-2.8849l17.356-4.3389-.485-3.94h-21.666a20.0925,20.0925,0,0,1-7.594-1.3808c-2.2853-.873-4.6456-2.169-7.7183-3.7079-2.03-1.0137-3.5642-1.7721-4.9749-2.3108a11.2823,11.2823,0,0,0-4.121-.8445,13.9637,13.9637,0,0,0-3.5812.5388c-1.2761.3362-2.7.8066-4.491,1.4031q-9.6064,3.2022-19.2137,6.4048l.1473,3.8377Z"/><path  d="M260,160h-2a97.9994,97.9994,0,1,1-28.7034-69.2967A97.685,97.685,0,0,1,258,160h4A102,102,0,1,0,160,262,102,102,0,0,0,262,160Z"/></svg>