<svg xmlns="http://www.w3.org/2000/svg" viewBox="0 0 320 320">
  <defs>
    <style>
      .cls-1 {
        fill: #1a1a1a;
      }
    </style>
  </defs>
  <title>flat-landscape-outline</title>
  <g id="Layer_16" data-name="Layer 16">
    <path class="cls-1" d="M83.2178,152.2764l1.6719,1.0974,32.698-49.8153,35.2974,50.22,1.6365-1.15-1.9819-.2694a12.1705,12.1705,0,0,1-2.0979,5.2834,17.2883,17.2883,0,0,1-7.9124,5.95,6.4746,6.4746,0,0,1-2.5073.5,8.7794,8.7794,0,0,1-3.3872-.75,21.6185,21.6185,0,0,1-6.2949-4.4484,59.2955,59.2955,0,0,1-7.82-9.6594c-.9873-1.4871-1.7778-2.7855-2.3184-3.707-.2705-.4607-.4783-.8273-.6172-1.076-.07-.1245-.1218-.2195-.156-.2821l-.0378-.0695-.01-.0186-.0325-.06-.0334-.054a16.253,16.253,0,0,0-3.8955-3.98,23.3486,23.3486,0,0,0-12.3716-4.4565q-.4036-.0319-.8074-.0316a13.77,13.77,0,0,0-6.35,1.7406,33.4754,33.4754,0,0,0-8.1787,6.4838,70.8367,70.8367,0,0,0-6.1118,7.3767l1.6184,1.1754,1.6719,1.0974-1.6719-1.0974,1.6182,1.1753a59.8628,59.8628,0,0,1,8.0764-9.1964,24.6868,24.6868,0,0,1,4.8347-3.4719A9.8389,9.8389,0,0,1,102.24,139.5q.2483,0,.4927.0194a19.3319,19.3319,0,0,1,10.2854,3.6682,14.774,14.774,0,0,1,2.2751,2.0952c.2371.2729.4058.4922.509.6335l.1062.1508.0171.026.5793-.375-.5857.365.0063.01.5793-.375-.5857.365,1.6978-1.0575-1.7637.9431a79.6343,79.6343,0,0,0,7.2271,10.8391,43.7814,43.7814,0,0,0,7.5388,7.5911,21.0387,21.0387,0,0,0,4.4688,2.6333,12.7545,12.7545,0,0,0,4.9338,1.0608,10.4851,10.4851,0,0,0,4.0364-.8033,21.291,21.291,0,0,0,9.6682-7.3639,16.1765,16.1765,0,0,0,2.7766-7.0273l.1055-.7777L117.4744,96.4413,81.5457,151.1788l3.29,2.2728ZM233.1641,158.81l.6245,1.9c15.0376-4.95,29.0439-13.5792,33.43-16.3922l1.9861-1.2764-41.93-46.2676L192.6216,147.757l1.4094,1.16a69.679,69.679,0,0,0,10.8328,7.1687c5.6711,3.0283,12.9529,5.9044,20.5959,5.9153a26.5651,26.5651,0,0,0,8.3284-1.2909l-.624-1.9-.6243-1.9a22.57,22.57,0,0,1-7.08,1.0912c-6.6118.0109-13.3787-2.58-18.7078-5.4417a65.7816,65.7816,0,0,1-10.18-6.7314l-1.2705,1.5446,1.6541,1.1241,30.769-45.27,36.9307,40.7512,1.4822-1.343-1.0813-1.6826c-4.2271,2.7222-18.0723,11.2159-32.5171,15.9574Zm32.9736-16.1748-1.0813-1.6826c-4.2271,2.7222-18.0723,11.2159-32.5171,15.9574a22.56,22.56,0,0,1-7.08,1.0911c-6.6118.0109-13.3787-2.58-18.7078-5.4418a65.7829,65.7829,0,0,1-10.1794-6.7313l-1.5283-1.2571-23.2158,27.6172-15.7119-20.7655-3.5767.9374a12.1705,12.1705,0,0,1-2.0979,5.2834,17.2883,17.2883,0,0,1-7.9124,5.95,6.4746,6.4746,0,0,1-2.5073.5,8.7794,8.7794,0,0,1-3.3872-.75,21.6185,21.6185,0,0,1-6.2949-4.4484,59.2955,59.2955,0,0,1-7.82-9.6594c-.9873-1.4871-1.7778-2.7855-2.3184-3.707-.2705-.4607-.4783-.8273-.6172-1.076-.07-.1245-.1218-.2195-.156-.2821l-.0378-.0695-.01-.0186-.0325-.06-.0334-.054a16.253,16.253,0,0,0-3.8955-3.98,23.3486,23.3486,0,0,0-12.3716-4.4565q-.4036-.0319-.8074-.0316a13.77,13.77,0,0,0-6.35,1.7406,33.4748,33.4748,0,0,0-8.1785,6.4839A70.766,70.766,0,0,0,81.6,151.1012l-.0232.0316L78.7581,155.28,8.3457,258.8757,10,262H302V179.2281l-35.5183-39.192-1.425.916,1.0813,1.6826-1.4822,1.343L298,180.7714V258H13.7776L82.0662,157.5284l2.8064-4.1276-1.6538-1.1245,1.6182,1.175a59.8282,59.8282,0,0,1,8.0757-9.1962,24.68,24.68,0,0,1,4.8345-3.4719A9.8389,9.8389,0,0,1,102.24,139.5q.2483,0,.4927.0194a19.3319,19.3319,0,0,1,10.2854,3.6682,14.774,14.774,0,0,1,2.2751,2.0952c.2371.2729.4058.4922.509.6335l.1062.1508.0171.026.5793-.375-.5857.365.0063.01.5793-.375-.5857.365,1.6978-1.0575-1.7637.9431a79.6343,79.6343,0,0,0,7.2271,10.8391,43.7814,43.7814,0,0,0,7.5388,7.5911,21.0387,21.0387,0,0,0,4.4688,2.6333,12.7545,12.7545,0,0,0,4.9338,1.0608,10.4851,10.4851,0,0,0,4.0364-.8033,21.291,21.291,0,0,0,9.6682-7.3639,16.1765,16.1765,0,0,0,2.7766-7.0273l-1.9817-.2693-1.595,1.2067L171.6636,178.6l25.1689-29.9407-1.5308-1.2869-1.2708,1.5444a69.6578,69.6578,0,0,0,10.8325,7.1686c5.6709,3.0283,12.9529,5.9045,20.5959,5.9154a26.5532,26.5532,0,0,0,8.3291-1.291c15.0376-4.95,29.0439-13.5792,33.43-16.3922l-1.0811-1.6825-1.4822,1.343Z"/>
  </g>
</svg>
