<svg xmlns="http://www.w3.org/2000/svg" viewBox="0 0 320 320"><defs><style>.a{fill:#1a1a1a;}</style></defs><title>flat-type</title><path class="a" d="M69.7373,188.5024l-1.8784-.6868L47.9453,242.2792H34.5044L95.2195,74.7719h18.5911l63.115,167.5074H162.29l-20.6409-55.7769h-73.31l-.48,1.3132,1.8784.6868v2h69.127l20.6406,55.7769H182.707L116.5776,70.772H92.4148L28.8,246.2792H50.7417l20.8738-57.09-1.8782-.6868v0Zm65.36-15.4795,1.8752-.695c-8.97-24.2072-15.79-42.3316-20.7922-55.9262-5.0015-13.5905-8.1868-22.6664-9.8721-28.6891l-.4094-1.4606h-3.2444l-.4309,1.4189c-2.0674,6.81-5.8125,17.681-10.8164,31.9862C86.4026,133.9658,80.1353,151.723,73.0068,172.37l-.916,2.6526h65.8806l-.9985-2.6949-1.8752.695v-2h-60.2v2l1.89.6526c7.1235-20.6326,13.3875-38.3809,18.3953-52.6979,5.0088-14.32,8.7578-25.1953,10.8682-32.1448l-1.9136-.581v2h.2451v-2l-1.926.5393c1.7551,6.2629,4.9585,15.37,9.97,28.9918,5.0107,13.618,11.8281,31.7362,20.7954,55.9349l1.8755-.6949v0Z"/><path class="a" d="M286.627,219.2168h-2c0,5.5879.248,10.9768.59,15.448.1709,2.2358.3652,4.2418.5649,5.9331.2,1.6936.4033,3.0636.605,4.0737l1.9612-.3923v-2H272.6221v2l1.8972-.6328a32.3545,32.3545,0,0,1-1.17-6.14c-.3286-2.8372-.5723-6.4706-.6934-10.973l-3.7781-.8608A33.3093,33.3093,0,0,1,257.428,238.46c-5.8894,3.8528-14.2422,6.7625-26.3313,6.768a49.1,49.1,0,0,1-17.9543-3.0726,32.344,32.344,0,0,1-16.2046-13.2974,38.997,38.997,0,0,1-1.4265-35.894,29.4692,29.4692,0,0,1,7.3723-9.1715c4.6545-3.9088,10.8-6.8467,18.3733-8.8007a108.3544,108.3544,0,0,1,26.7939-2.9176H272.41V158.28a40.7216,40.7216,0,0,0-1.0361-9.6351,25.3639,25.3639,0,0,0-2.9143-7.1949,22.1775,22.1775,0,0,0-9.75-8.6087c-4.5063-2.1252-10.3137-3.3431-17.7842-3.3435a44.2689,44.2689,0,0,0-14.5876,2.108,23.8555,23.8555,0,0,0-7.2637,3.9591,22.3,22.3,0,0,0-6.241,8.2728,50.4372,50.4372,0,0,0-2.8423,8.7975l1.94.4851v-2H195.7139v2l1.99.1957a40.871,40.871,0,0,1,2.7195-11.2968A32.2269,32.2269,0,0,1,213.09,126.6647c6.45-4.13,15.5276-6.9246,28.3259-6.9275a70.324,70.324,0,0,1,18.76,2.238,37.766,37.766,0,0,1,10.5774,4.6387,27.9373,27.9373,0,0,1,10.2876,11.9017c2.3386,5.0415,3.5864,11.26,3.5864,18.7817v61.9194h4V157.2974A50.26,50.26,0,0,0,285.5,138.7717a32.8565,32.8565,0,0,0-6.429-10.3514,36.2175,36.2175,0,0,0-15.6785-9.65,70.9962,70.9962,0,0,0-21.9768-3.0328,64.2018,64.2018,0,0,0-22.3469,3.5449A37.4045,37.4045,0,0,0,199.9373,134.26a42.3465,42.3465,0,0,0-6.2139,18.6639l-.2161,2.1957h19.9846l.3789-1.5149a51.5952,51.5952,0,0,1,2.2268-7.2457,21.1022,21.1022,0,0,1,2.7683-4.8926,17.7791,17.7791,0,0,1,7.5791-5.6264c3.4944-1.4348,8.1724-2.3436,14.48-2.343a39.7065,39.7065,0,0,1,14.7485,2.3832,19.9805,19.9805,0,0,1,6.5691,4.1395,18.8792,18.8792,0,0,1,4.9624,8.513A35.1557,35.1557,0,0,1,268.41,158.28v9.7944H248.0508a117.574,117.574,0,0,0-25.0784,2.3964c-11.0417,2.43-19.85,6.779-25.92,13.3658a33.2589,33.2589,0,0,0-6.9043,11.4791,43.1477,43.1477,0,0,0-2.3318,14.564c-.002,9.7656,3.2158,19.6248,10.3218,27.0593a37.32,37.32,0,0,0,13.5488,8.9426,53.08,53.08,0,0,0,19.41,3.3467c12.7271.0055,21.9426-3.1049,28.5232-7.4221a37.3242,37.3242,0,0,0,12.8149-14.3033l-1.7786-.9147-2,.0539c.124,4.5889.3716,8.3268.7188,11.3253a35.9334,35.9334,0,0,0,1.3491,6.9449l.4556,1.3672h19.6069l-.4785-2.3923c-.167-.8328-.3635-2.1348-.5547-3.7582a190.8485,190.8485,0,0,1-1.1272-20.9119Zm-15.9707-36.6113v-2h-22.36a98.9127,98.9127,0,0,0-17.8408,1.4118,47.2238,47.2238,0,0,0-10.6826,3.1866,24.9952,24.9952,0,0,0-11.1152,9.0731,26.2683,26.2683,0,0,0-3.8867,14.62c-.01,7.7052,2.7107,14.4448,7.72,19.1747,5.0029,4.7379,12.1858,7.4025,20.8169,7.3965,8.4487,0,15.209-1.4015,20.5964-4.0039a28.3367,28.3367,0,0,0,9.8208-7.7083c3.812-4.6982,6.0288-10.4608,7.3062-16.7568a103.2262,103.2262,0,0,0,1.625-20.2161v-6.1772h-2v2h-2v4.1772a106.9022,106.9022,0,0,1-1.1782,17.4333,44.2682,44.2682,0,0,1-3.1982,11.0322,24.9,24.9,0,0,1-10.416,11.7169c-4.9016,2.8182-11.5381,4.5019-20.5562,4.5026-7.832-.0059-13.9177-2.3784-18.0676-6.3019-4.1433-3.9315-6.4592-9.4775-6.47-16.2693a23.0986,23.0986,0,0,1,2.5779-11.3324,18.34,18.34,0,0,1,5.1057-5.8268,32.8919,32.8919,0,0,1,12.9106-5.42,89.8678,89.8678,0,0,1,18.9314-1.7121h22.36v-2h0Z"/></svg>