<svg xmlns="http://www.w3.org/2000/svg" viewBox="0 0 320 320">
  <defs>
    <style>
      .cls-1 {
        fill: #1a1a1a;
      }
    </style>
  </defs>
  <title>flat-database-outline</title>
  <g id="Layer_16" data-name="Layer 16">
    <path  d="M249.8926,202.4414l-1.9751.3143a5.2306,5.2306,0,0,1,.0826.8107v40.7754a13.5359,13.5359,0,0,1-1.6055,6.2686c-1.8667,3.6293-5.4431,7.2432-10.5165,10.5461-7.6012,4.9623-18.4985,9.2057-31.5242,12.1691A202.1946,202.1946,0,0,1,160,278c-24.6354.0046-46.9356-3.9714-62.9029-10.3036-7.9825-3.1587-14.3706-6.9127-18.6572-10.9346a23.1327,23.1327,0,0,1-4.8345-6.1515A13.535,13.535,0,0,1,72,244.3418V203.5664a5.2278,5.2278,0,0,1,.0826-.8107l-1.9751-.3143-1.9864.2328a18.6787,18.6787,0,0,0,2.8074,7.7141c2.6584,4.2583,6.93,8.0615,12.4515,11.4429,8.2888,5.0642,19.4432,9.1843,32.5325,12.07A207.31,207.31,0,0,0,160,238.4178c24.352-.0039,46.4663-3.786,62.93-10.0262,8.2332-3.1261,15.0616-6.8619,20.0714-11.1432a30.139,30.139,0,0,0,6.07-6.86,18.68,18.68,0,0,0,2.8075-7.7141l-1.9864-.2328-1.9751.3143,1.9751-.3143-1.9864-.2329a14.683,14.683,0,0,1-2.23,6.0654c-2.1844,3.5182-5.9754,6.9891-11.143,10.1447-7.7455,4.7412-18.5368,8.7676-31.3059,11.5767A203.3462,203.3462,0,0,1,160,234.418c-23.93.0039-45.6536-3.7462-61.5115-9.7662-7.9276-3.004-14.3807-6.58-18.89-10.4427a26.1818,26.1818,0,0,1-5.275-5.9351,14.6807,14.6807,0,0,1-2.23-6.0654l-3.9615-.0815A9.0465,9.0465,0,0,0,68,203.5664v40.7754a17.5437,17.5437,0,0,0,2.0515,8.104c2.3294,4.4951,6.4359,8.5023,11.8857,12.0613,8.1837,5.33,19.4619,9.6711,32.82,12.7185A206.1509,206.1509,0,0,0,160,282c25.07-.0046,47.77-4.011,64.3763-10.5846,8.3043-3.2942,15.0964-7.2239,19.9184-11.7341a27.09,27.09,0,0,0,5.6539-7.2354A17.5448,17.5448,0,0,0,252,244.3418V203.5664a9.0465,9.0465,0,0,0-.1323-1.4395l-3.9615.0815ZM160,174.708v-2c-23.93.0039-45.6536-3.7462-61.5115-9.7662-7.9276-3.004-14.3807-6.58-18.89-10.4427a26.1818,26.1818,0,0,1-5.275-5.9351,14.6807,14.6807,0,0,1-2.23-6.0654l-3.9615-.0815A9.0365,9.0365,0,0,0,68,141.8564v40.7754a17.5437,17.5437,0,0,0,2.0515,8.104c2.3294,4.4951,6.4359,8.5023,11.8857,12.0613,8.1837,5.33,19.4619,9.6711,32.82,12.7185A206.1509,206.1509,0,0,0,160,220.29c25.07-.0046,47.77-4.011,64.3763-10.5846,8.3043-3.2942,15.0964-7.2239,19.9184-11.7341a27.09,27.09,0,0,0,5.6539-7.2354A17.5448,17.5448,0,0,0,252,182.6318V141.8564a9.0347,9.0347,0,0,0-.1323-1.4395l-3.9615.0815a14.683,14.683,0,0,1-2.23,6.0654c-2.1844,3.5182-5.9754,6.9891-11.143,10.1447-7.7455,4.7412-18.5368,8.7676-31.3059,11.5767A203.3461,203.3461,0,0,1,160,172.708v4c24.352-.0039,46.4663-3.786,62.93-10.0262,8.2332-3.1261,15.0616-6.8619,20.0714-11.1432a30.139,30.139,0,0,0,6.07-6.86,18.68,18.68,0,0,0,2.8075-7.7141l-1.9864-.2328-1.9751.3143a5.2179,5.2179,0,0,1,.0826.8107v40.7754a13.5359,13.5359,0,0,1-1.6055,6.2686c-1.8667,3.6293-5.4431,7.2432-10.5165,10.5461-7.6012,4.9623-18.4985,9.2057-31.5242,12.1691A202.1946,202.1946,0,0,1,160,216.29c-24.6354.0046-46.9356-3.9714-62.9029-10.3036-7.9825-3.1587-14.3706-6.9127-18.6572-10.9346A23.1327,23.1327,0,0,1,73.6055,188.9,13.5349,13.5349,0,0,1,72,182.6318V141.8564a5.216,5.216,0,0,1,.0826-.8107l-1.9751-.3143-1.9864.2328a18.6787,18.6787,0,0,0,2.8074,7.7141c2.6584,4.2583,6.93,8.0615,12.4515,11.4429,8.2888,5.0642,19.4432,9.1843,32.5325,12.07A207.31,207.31,0,0,0,160,176.7079Zm0-63.3916v-2c-23.93.0039-45.6536-3.7462-61.5115-9.7664-7.9276-3.0042-14.3807-6.58-18.89-10.443a26.1825,26.1825,0,0,1-5.275-5.9353,14.6823,14.6823,0,0,1-2.23-6.0658l-3.9615-.0815A9.0478,9.0478,0,0,0,68,78.4648V119.24a17.5437,17.5437,0,0,0,2.0515,8.104c2.3294,4.4951,6.4359,8.5022,11.8857,12.061,8.1837,5.33,19.4619,9.6708,32.82,12.7181A206.1666,206.1666,0,0,0,160,156.8973c25.07-.0046,47.77-4.0107,64.3763-10.5841,8.3043-3.2941,15.0963-7.2236,19.9184-11.7339a27.0892,27.0892,0,0,0,5.6539-7.2351A17.5446,17.5446,0,0,0,252,119.24V78.4648a9.046,9.046,0,0,0-.1323-1.44l-3.9615.0815a14.6834,14.6834,0,0,1-2.23,6.0658c-2.1843,3.5184-5.9753,6.99-11.1429,10.145-7.7455,4.7412-18.5368,8.7677-31.306,11.5768A203.3394,203.3394,0,0,1,160,109.3164v4c24.352-.004,46.4665-3.786,62.93-10.0264,8.2332-3.1261,15.0617-6.8621,20.0714-11.1434a30.1423,30.1423,0,0,0,6.07-6.86,18.6813,18.6813,0,0,0,2.8074-7.7145l-1.9864-.2328-1.9751.3143a5.2311,5.2311,0,0,1,.0826.8116V119.24a13.5356,13.5356,0,0,1-1.6055,6.2684c-1.8667,3.6293-5.4431,7.2432-10.5165,10.5459-7.6011,4.9623-18.4985,9.2054-31.5241,12.1687A202.2031,202.2031,0,0,1,160,152.8975c-24.6354.0046-46.9356-3.9712-62.9029-10.3031-7.9825-3.1586-14.3706-6.9125-18.6572-10.9342a23.1309,23.1309,0,0,1-4.8345-6.1515A13.5347,13.5347,0,0,1,72,119.24V78.4648a5.2292,5.2292,0,0,1,.0826-.8116l-1.9751-.3143-1.9864.2328a18.68,18.68,0,0,0,2.8074,7.7145c2.6584,4.2584,6.93,8.0616,12.4515,11.4431,8.2888,5.0643,19.4432,9.1846,32.5325,12.0707A207.3014,207.3014,0,0,0,160,113.3163ZM160,40V38c-25.07.0046-47.77,4.011-64.3763,10.5846-8.3043,3.2942-15.0964,7.2239-19.9184,11.7341a27.0886,27.0886,0,0,0-5.6539,7.2354A17.5437,17.5437,0,0,0,68,75.6582a16.3785,16.3785,0,0,0,.1211,1.9141,18.68,18.68,0,0,0,2.8073,7.7139c2.6584,4.2584,6.93,8.0616,12.4515,11.4431,8.2888,5.0643,19.4432,9.1846,32.5325,12.0707A207.3014,207.3014,0,0,0,160,113.3163c24.352-.004,46.4665-3.786,62.93-10.0264,8.2332-3.1261,15.0617-6.8621,20.0714-11.1434a30.1423,30.1423,0,0,0,6.07-6.86,18.6813,18.6813,0,0,0,2.8074-7.7145A16.3746,16.3746,0,0,0,252,75.6582a17.5446,17.5446,0,0,0-2.0515-8.1041c-2.3295-4.4951-6.4359-8.5023-11.8857-12.0613-8.1837-5.33-19.4619-9.6711-32.82-12.7185A206.1513,206.1513,0,0,0,160,38v4c24.6353-.0046,46.9355,3.9714,62.9029,10.3036,7.9825,3.1587,14.3706,6.9127,18.6572,10.9346a23.1324,23.1324,0,0,1,4.8345,6.1515A13.5362,13.5362,0,0,1,248,75.6582a12.4158,12.4158,0,0,1-.0937,1.4471,14.684,14.684,0,0,1-2.23,6.0664c-2.1843,3.5184-5.9753,6.99-11.1429,10.145-7.7455,4.7412-18.5368,8.7677-31.306,11.5768A203.3394,203.3394,0,0,1,160,109.3164c-23.93.0039-45.6536-3.7462-61.5115-9.7664-7.9276-3.0042-14.3807-6.58-18.89-10.443a26.1825,26.1825,0,0,1-5.275-5.9353,14.6823,14.6823,0,0,1-2.23-6.0658A12.4166,12.4166,0,0,1,72,75.6582,13.5352,13.5352,0,0,1,73.6055,69.39c1.8666-3.6293,5.4431-7.2432,10.5165-10.5461,7.6011-4.9623,18.4985-9.2057,31.5241-12.1691A202.1944,202.1944,0,0,1,160,42Z"/>
  </g>
</svg>
