<svg xmlns="http://www.w3.org/2000/svg" viewBox="0 0 320 320">
  <defs>
    <style>
      .cls-1 {
        fill: #1a1a1a;
      }
    </style>
  </defs>
  <title>flat-refresh</title>
  <g id="Layer_16" data-name="Layer 16">
    <path class="cls-1" d="M158.5742,280v4c2.3179,0,4.5364-.08,6.3157-.2109a3.9931,3.9931,0,0,0,3.7056-3.989v-.0225h-4l.1628,3.9966a123.2751,123.2751,0,0,0,118.6426-123.645c0-8.4746-.2708-16.3835-1.9841-25.094l-3.9248.7717v4h2.5029a4,4,0,0,0,4-4L284,45.5226a4,4,0,0,0-6.8325-2.8245L244.8159,75.1434l2.8325,2.8243,2.9246-2.7289A122.509,122.509,0,0,0,160.8271,36c-1.2666,0-2.7119.0094-4.0891.0614l.1516,3.9972-.0764-3.9994a122.3728,122.3728,0,0,0-85.478,37.2087A124.2733,124.2733,0,0,0,36,160.1836a131.8108,131.8108,0,0,0,2.427,24.6914l3.9333-.7275v-4H40.0049a4,4,0,0,0-4,4L36,274.4431a4,4,0,0,0,6.8457,2.8113L74.82,244.8882l-2.8455-2.811-2.9277,2.7256A121.7162,121.7162,0,0,0,158.5742,284v-8a113.6977,113.6977,0,0,1-83.6721-36.6487,4,4,0,0,0-5.7732-.0854L44,264.7019l.0044-80.5544h-4v4H42.36a4,4,0,0,0,3.9331-4.7275A123.7485,123.7485,0,0,1,44,160.1836,116.266,116.266,0,0,1,77.0657,78.85a114.3622,114.3622,0,0,1,79.9-34.7925l.0752-.0022C158.2419,44.01,159.6052,44,160.8271,44a114.5,114.5,0,0,1,83.8965,36.6967,4,4,0,0,0,5.7571.0955l25.5186-25.5927-.0044,80.6071,4,0v-4h-2.5029a4,4,0,0,0-3.925,4.7715c1.564,7.9575,1.834,15.23,1.8342,23.5508A115.2754,115.2754,0,0,1,164.4326,275.7805a3.9963,3.9963,0,0,0-3.8369,3.9968V279.8h4l-.2944-3.9893c-1.5293.1133-3.6.19-5.7271.1895ZM73.8154,160.1621h4a82.1794,82.1794,0,0,1,21.7739-56.0134,79.0865,79.0865,0,0,1,53.6531-25.3831l-.2324-3.9932h-4v.1543a4,4,0,0,0,4.3782,3.9821c.7026-.0673,1.7935-.1329,2.9343-.1793,1.144-.0471,2.3555-.0774,3.3564-.0852l-.0312-4-.051,4a79.756,79.756,0,0,1,33.0891,7.6815,82.3759,82.3759,0,0,1,26.4365,19.8365l2.9951-2.6515-2.8635-2.7931-31.502,32.2958a4,4,0,0,0,2.8635,6.793h51.373v-4l-3.7761,1.32a49.2173,49.2173,0,0,1,2.1736,10.604,116.52,116.52,0,0,1,.6025,12.4573,81.3775,81.3775,0,0,1-76.6252,81.0232l.2327,3.9934h4v-.1523a4,4,0,0,0-4.3877-3.9812c-1.5261.1487-3.2759.2446-5.2517.2566l.0244,4,.061-4a77.9444,77.9444,0,0,1-32.6763-7.7124,82.8425,82.8425,0,0,1-26.0862-19.8115l-2.9949,2.6516,2.8374,2.8191,32.1006-32.3076a4,4,0,0,0-2.8374-6.8191h-51.59v4l3.8689-1.0151c-1.0884-4.147-2.0562-7.9844-2.7446-11.73a61.374,61.374,0,0,1-1.104-11.24h-8a69.3846,69.3846,0,0,0,1.2356,12.6873c.7546,4.0986,1.7766,8.125,2.8748,12.313a3.99,3.99,0,0,0,3.8691,2.9849h41.9766l-25.325,25.4885a3.9966,3.9966,0,0,0-.1575,5.4707,90.8379,90.8379,0,0,0,28.6125,21.72,85.9527,85.9527,0,0,0,36.0176,8.5l.0854,0c2.2058-.0134,4.1963-.1206,5.9788-.2942l-.3877-3.981h-4v.1523a4,4,0,0,0,4.2324,3.9932,89.3774,89.3774,0,0,0,84.16-89.01,124.1551,124.1551,0,0,0-.65-13.3271,56.8721,56.8721,0,0,0-2.574-12.3735,3.9945,3.9945,0,0,0-3.7759-2.68H200.104L224.98,106.3037a3.9943,3.9943,0,0,0,.1316-5.4446,90.369,90.369,0,0,0-29.01-21.7672,87.7576,87.7576,0,0,0-36.4038-8.4471h-.0823c-1.1084.0088-2.3882.041-3.6218.0916-1.2368.0513-2.41.1184-3.3628.2084l.3784,3.9822h4v-.1543a4,4,0,0,0-4.2324-3.9933A87.1,87.1,0,0,0,93.7188,98.7137a90.1844,90.1844,0,0,0-23.9033,61.4484Z"/>
  </g>
</svg>
