<svg xmlns="http://www.w3.org/2000/svg" viewBox="0 0 320 320">
  <defs>
    <style>
      .cls-1 {
        fill: #1a1a1a;
      }
    </style>
  </defs>
  <title>flat-pin</title>
  <g id="Layer_16" data-name="Layer 16">
    <path  d="M40,280l3.2549,2.325L100.51,202.1671l17.3223,17.3223L37.6749,276.745,40,280l3.2549,2.325L40,280l2.325,3.2549,84-60a4,4,0,0,0,.5034-6.0834l-24-24a4,4,0,0,0-6.0834.5034l-60,84a4,4,0,0,0,5.58,5.58ZM52,148l-2.8285,2.8284,120,120A4,4,0,0,0,176,268V197.6567L233.6569,140H280a4,4,0,0,0,2.8284-6.8284l-96-96A4,4,0,0,0,180,40V86.3431L122.343,144H52a4,4,0,0,0-2.8285,6.8284L52,148v4h72a4.0268,4.0268,0,0,0,2.8284-1.1715l60-60A4.0268,4.0268,0,0,0,188,88V49.6568L270.343,132H232a4.0262,4.0262,0,0,0-2.8285,1.1715l-60,60A4.0262,4.0262,0,0,0,168,196v62.3433L54.8284,145.1715,52,148v0Z"/>
  </g>
</svg>
