<svg xmlns="http://www.w3.org/2000/svg" viewBox="0 0 320 320"><defs><style>.a{fill:#1a1a1a;}</style></defs><title>flat-infinity</title><path  d="M193.3759,218.7026a75.026,75.026,0,0,0,80.258.7227A65.8559,65.8559,0,0,0,296.4556,194.3,68.658,68.658,0,0,0,304,162.8276a70.6815,70.6815,0,0,0-8.618-33.8618,68.3082,68.3082,0,0,0-60.7382-35.6927,75.2878,75.2878,0,0,0-28.4078,5.5585,66.9735,66.9735,0,0,0-23.8493,16.3218,91.622,91.622,0,0,0-15.7457,24.061c-5.8658,12.6221-9.5221,25.729-14.2039,38.0217a126.2235,126.2235,0,0,1-8.1113,17.7051,74.62,74.62,0,0,1-11.7966,15.7522,49.3825,49.3825,0,0,1-18.1419,11.5278A63.5855,63.5855,0,0,1,92.35,226a76.0685,76.0685,0,0,1-24.7218-4.2085c-12.0091-4.1509-22.964-11.2864-30.8459-20.88a55.8444,55.8444,0,0,1-9.3391-16.2068A56.95,56.95,0,0,1,24,164.9219v-.021c.0151-21.407,7.6-38.6357,19.626-50.6333,12.0387-11.9852,28.6015-18.7561,46.8727-18.7628,15.0773.0021,31.32,4.6251,47.0688,14.8925a4,4,0,1,0,4.37-6.7007c-16.9349-11.0479-34.7191-16.1937-51.4389-16.1917C70.2466,87.4982,51.56,95.0662,37.98,108.6,24.3878,122.12,15.9849,141.5894,16,164.9009v.0227a64.1021,64.1021,0,0,0,6.8311,29.1943c6.5037,12.8452,17.07,22.8142,29.3654,29.56A84.351,84.351,0,0,0,92.35,233.9993a71.56,71.56,0,0,0,24.8154-4.2756A57.3917,57.3917,0,0,0,138.22,216.3162a86.8869,86.8869,0,0,0,16.3051-23.5972c6.0537-12.4854,9.7559-25.5808,14.3679-37.9866a138.9035,138.9035,0,0,1,7.9228-17.9661,78.6423,78.6423,0,0,1,11.4413-16.1776,58.9848,58.9848,0,0,1,21.01-14.3535,67.3061,67.3061,0,0,1,25.377-4.9623,60.309,60.309,0,0,1,53.7194,31.5317A62.6892,62.6892,0,0,1,296,162.8276a60.6622,60.6622,0,0,1-6.6541,27.8042,57.8358,57.8358,0,0,1-20.0708,22.0852,64.9124,64.9124,0,0,1-35.1846,9.9846c-12.9133.0039-25.8192-3.58-36.235-10.6272a4,4,0,1,0-4.48,6.6284Z"/></svg>