<svg xmlns="http://www.w3.org/2000/svg" viewBox="0 0 320 320">
  <defs>
    <style>
      .cls-1 {
        fill: #1a1a1a;
      }
    </style>
  </defs>
  <title>flat-plus-outline</title>
  <g id="Layer_16" data-name="Layer 16">
    <path class="cls-1" d="M241.5186,142.9863v-2H180.75l0-62.5044a20.2685,20.2685,0,0,0-6.1472-14.4968,20.8065,20.8065,0,0,0-29.2053,0A20.2685,20.2685,0,0,0,139.25,78.4819v62.5044H78.4814a20.7013,20.7013,0,0,0-14.46,5.763,19.9718,19.9718,0,0,0,0,28.5845,20.7012,20.7012,0,0,0,14.46,5.7633H139.25v60.4209a20.2685,20.2685,0,0,0,6.1472,14.4968,20.8065,20.8065,0,0,0,29.2053,0,20.2685,20.2685,0,0,0,6.1472-14.4968V181.0972h60.7688a20.7009,20.7009,0,0,0,14.4595-5.7633,19.9724,19.9724,0,0,0,0-28.5845,20.7012,20.7012,0,0,0-14.4595-5.763v4a16.6971,16.6971,0,0,1,11.677,4.6369,15.971,15.971,0,0,1,0,22.8369,16.6969,16.6969,0,0,1-11.677,4.6371H176.75v64.4209a16.2656,16.2656,0,0,1-4.9475,11.64,16.8069,16.8069,0,0,1-23.6052,0,16.2655,16.2655,0,0,1-4.9475-11.64V177.0972H78.4814A16.697,16.697,0,0,1,66.8042,172.46a15.971,15.971,0,0,1,0-22.8369,16.6968,16.6968,0,0,1,11.6772-4.6369H143.25V78.4819a16.2655,16.2655,0,0,1,4.9475-11.64,16.807,16.807,0,0,1,23.6052,0,16.2655,16.2655,0,0,1,4.9475,11.64v66.5044h64.7686Z"/>
  </g>
</svg>
