<svg xmlns="http://www.w3.org/2000/svg" viewBox="0 0 320 320">
  <defs>
    <style>
      .cls-1 {
        fill: #1a1a1a;
      }
    </style>
  </defs>
  <title>flat-arrow-down-outline</title>
  <g id="Layer_16" data-name="Layer 16">
    <path  d="M73.8789,169.1973l-1.4141,1.4143L149.5,247.6292l1.4141-1.4143-1.5664,1.2434a11.2638,11.2638,0,0,0,2.8087,2.3528A15.2247,15.2247,0,0,0,160.2188,252a14.0625,14.0625,0,0,0,7.5735-2.2849,13.9007,13.9007,0,0,0,2.8306-2.3413l-1.5076-1.314,1.4141,1.4143,77.0347-77.0186A15.03,15.03,0,0,0,252,159.8108,14.8919,14.8919,0,0,0,237.09,144.9595a15.014,15.014,0,0,0-10.64,4.4146l-51.4355,51.4365.01-117.8193a14.8123,14.8123,0,0,0-4.5292-10.62,15.2916,15.2916,0,0,0-21.4135.0044,14.8224,14.8224,0,0,0-4.53,10.623l.0007,117.8162-51.1555-51.397-.0035-.0037A14.856,14.856,0,0,0,68,159.8706a15.1787,15.1787,0,0,0,4.465,10.7407l1.4143-1.4141,1.4142-1.4143A11.1768,11.1768,0,0,1,72,159.8706a10.7216,10.7216,0,0,1,3.1517-7.6331,10.83,10.83,0,0,1,15.4147.0059l-.0035-.0037,54.5732,54.8311,3.4176-1.4109-.001-122.6611a10.8175,10.8175,0,0,1,3.3229-7.7593,11.2907,11.2907,0,0,1,15.8284-.0034,10.8064,10.8064,0,0,1,3.3214,7.7551l-.0107,122.6482,3.4142,1.4143,54.85-54.8516a11.0117,11.0117,0,0,1,7.8118-3.2429,10.8808,10.8808,0,0,1,7.73,3.2009A10.7577,10.7577,0,0,1,248,159.8108a11.0253,11.0253,0,0,1-3.2639,7.8157l-77.08,77.0637-.0481.0552.5928.5166-.5862-.5242-.0066.0076.5928.5166-.5862-.5242a10.4429,10.4429,0,0,1-2.1011,1.6853A10.0307,10.0307,0,0,1,160.2188,248a11.2076,11.2076,0,0,1-5.9669-1.5964,8.8928,8.8928,0,0,1-1.4052-1.06c-.1481-.1382-.2529-.248-.3141-.3149l-.059-.0667-.0049-.0059-.8884.729.9-.7144-.0116-.0146-.8884.729.9-.7144-.072-.0908L75.2928,167.7827Z"/>
  </g>
</svg>
