<svg xmlns="http://www.w3.org/2000/svg" viewBox="0 0 320 320"><defs><style>.a{fill:#1a1a1a;}</style></defs><title>flat-male-filled</title><path class="a" d="M197.8184,57.9287A37.8185,37.8185,0,1,0,159.981,95.833,37.8839,37.8839,0,0,0,197.8184,57.9287Z"/><path class="a" d="M191.5376,98.75H128.4624a29.1912,29.1912,0,0,0-25.5278,14.9277q-.1238.2212-.2466.4453A56.1162,56.1162,0,0,0,96,141.124v53.2344a10.9218,10.9218,0,0,0,10.9077,10.9355h4.7578a10.9629,10.9629,0,0,0,10.9409-10.5352l2.4844-61.6152V289.9014A10.115,10.115,0,0,0,135.1631,300h9.3276a10.0389,10.0389,0,0,0,10.021-9.7109l2.479-73.0137a3.01,3.01,0,0,1,6.0186,0l2.479,73.0137A10.0389,10.0389,0,0,0,175.5093,300h9.3721a10.0407,10.0407,0,0,0,10.0278-10.0537V133.1436l2.4858,61.6582a10.9184,10.9184,0,0,0,10.897,10.4922h4.7563A10.9984,10.9984,0,0,0,224,194.3135V141.124a56.1162,56.1162,0,0,0-6.688-27.001q-.123-.2241-.2466-.4453A29.1912,29.1912,0,0,0,191.5376,98.75Z"/><path class="a" d="M197.8184,57.9287h2A39.8184,39.8184,0,1,0,159.981,97.8329a39.8844,39.8844,0,0,0,39.8373-39.9042h-4A35.8841,35.8841,0,1,1,185.321,32.5229a35.82,35.82,0,0,1,10.4973,25.4058Z"/><path class="a" d="M191.5376,98.75v-2H128.4624a31.1911,31.1911,0,0,0-27.275,15.9542l.0018-.0032q-.1291.23-.2544.4595A58.1119,58.1119,0,0,0,94,141.124v53.2344a12.9223,12.9223,0,0,0,12.9077,12.9354h4.7578a12.9635,12.9635,0,0,0,12.9392-12.4545l2.4844-61.6152-1.9983-.0806h-2V289.9014A12.1147,12.1147,0,0,0,135.1631,302h9.3276a12.0394,12.0394,0,0,0,12.02-11.6429l2.479-73.0138a1.0766,1.0766,0,0,1,.32-.739.9736.9736,0,0,1,1.38,0,1.0765,1.0765,0,0,1,.32.7386l2.479,73.014A12.0394,12.0394,0,0,0,175.5093,302h9.3721a12.0412,12.0412,0,0,0,12.0277-12.0536V133.1436h-2l-1.9984.0806,2.4858,61.6582a12.9188,12.9188,0,0,0,12.8954,12.4115h4.7563A12.9983,12.9983,0,0,0,226,194.3135V141.124a58.1127,58.1127,0,0,0-6.9344-27.963q-.1262-.23-.2548-.46l.0018.0032A31.1911,31.1911,0,0,0,191.5376,96.75v4a27.1913,27.1913,0,0,1,23.7806,13.9012l.0018.0032q.1185.212.2388.4312A54.12,54.12,0,0,1,222,141.124v53.1895a8.9986,8.9986,0,0,1-8.9517,8.98H208.292a8.9179,8.9179,0,0,1-8.8987-8.5728l-2.4858-61.6583-3.9983.0807V289.9463A8.0411,8.0411,0,0,1,184.8813,298h-9.3721a8.0383,8.0383,0,0,1-8.0222-7.7789l-2.479-73.0135a5.08,5.08,0,0,0-1.5138-3.4561,4.9742,4.9742,0,0,0-6.9886,0,5.0805,5.0805,0,0,0-1.5138,3.4564l-2.479,73.0133A8.0384,8.0384,0,0,1,144.4907,298h-9.3276a8.1152,8.1152,0,0,1-8.0724-8.0986V133.1436l-3.9983-.0807-2.4844,61.6152a8.9625,8.9625,0,0,1-8.9425,8.6158h-4.7578A8.9221,8.9221,0,0,1,98,194.3584V141.124a54.12,54.12,0,0,1,6.4415-26.0391q.12-.2184.2384-.4307l.0018-.0032A27.1914,27.1914,0,0,1,128.4624,100.75h63.0752Z"/></svg>