<svg xmlns="http://www.w3.org/2000/svg" viewBox="0 0 320 320">
  <defs>
    <style>
      .cls-1 {
        fill: #1a1a1a;
      }
    </style>
  </defs>
  <title>flat-save</title>
  <g id="Layer_16" data-name="Layer 16">
    <g>
      <path class="cls-1" d="M50,270h4V54H195.01L266,124.99V266L50,266v4h0v4H270a4,4,0,0,0,4-4V123.333a4.0265,4.0265,0,0,0-1.1716-2.8285l-73.3335-73.333A4.0262,4.0262,0,0,0,196.6665,46H50a4,4,0,0,0-4,4V270a4,4,0,0,0,4,4ZM196.6665,50V46h-110a4,4,0,0,0-4,4v64.167a4,4,0,0,0,4,4h146.667a4,4,0,0,0,4-4v-27.5a4.0265,4.0265,0,0,0-1.1716-2.8285l-36.667-36.667A4.0262,4.0262,0,0,0,196.6665,46v4l-2.8284,2.8284,35.4954,35.4954V110.167H90.6665V54h106V50l-2.8284,2.8284Z"/>
      <path class="cls-1" d="M233.3335,251.667v-4H90.6665V144.52h138.667V251.667h4v0h4V140.5205a4,4,0,0,0-4-4H86.6665a4,4,0,0,0-4,4V251.667a4,4,0,0,0,4,4h146.667a4,4,0,0,0,4-4Z"/>
    </g>
  </g>
</svg>
