<svg xmlns="http://www.w3.org/2000/svg" viewBox="0 0 320 320"><defs><style>.a{fill:#1a1a1a;}</style></defs><title>flat-female-filled</title><path class="a" d="M197.5205,57.9287a37.5225,37.5225,0,1,0-37.54,37.9043A37.7361,37.7361,0,0,0,197.5205,57.9287Z"/><path class="a" d="M212.875,205.2939h2.3179a14.89,14.89,0,0,0,14.6616-17.0127c-3.4272-24.73-9.8105-68.3105-12.9932-74.1582q-.1223-.2241-.2446-.4453A28.9247,28.9247,0,0,0,191.29,98.75H128.71a28.9247,28.9247,0,0,0-25.3271,14.9277q-.1223.2212-.2446.4453c-3.1826,5.8477-9.5659,49.4277-12.9932,74.1582a14.89,14.89,0,0,0,14.6616,17.0127h2.3179a7.89,7.89,0,0,0,7.7646-6.68l10.4761-65.4707v3.5234L114.0571,239.5146a2.15,2.15,0,0,0,1.894,2.3809l11.3271,1.2148a2.1453,2.1453,0,0,1,1.9058,2.0645l1.5483,43.44a11.68,11.68,0,0,0,23.34.3418l3.0415-47.29h5.7725l3.0415,47.29a11.68,11.68,0,0,0,23.34-.3418l1.5483-43.44a2.1453,2.1453,0,0,1,1.9058-2.0645l11.3271-1.2148a2.15,2.15,0,0,0,1.894-2.3809L194.6343,136.667v-3.5234L205.11,198.6143A7.89,7.89,0,0,0,212.875,205.2939Z"/><path class="a" d="M197.5205,57.9287h2a40.0114,40.0114,0,0,0-11.5721-28.225,39.2276,39.2276,0,0,0-55.9019,0,40.1952,40.1952,0,0,0,0,56.43,39.24,39.24,0,0,0,55.9009,0A39.975,39.975,0,0,0,199.52,57.9287h-4A35.9719,35.9719,0,0,1,185.1055,83.32a35.24,35.24,0,0,1-50.2153,0,36.195,36.195,0,0,1,0-50.8041,35.2271,35.2271,0,0,1,50.2144,0,36.0073,36.0073,0,0,1,10.4155,25.4114Z"/><path class="a" d="M212.875,205.2939v2h2.3179a16.6674,16.6674,0,0,0,11.9369-5.0129A16.9665,16.9665,0,0,0,232,190.3837a17.307,17.307,0,0,0-.1644-2.3768c-1.7151-12.3751-4.1691-29.4633-6.5959-44.2106-1.2139-7.375-2.42-14.1626-3.5293-19.5035-.5549-2.6718-1.0848-4.98-1.5867-6.84-.2513-.9305-.4954-1.7487-.7384-2.4557a12.2685,12.2685,0,0,0-.7673-1.83l-.0011-.002q-.1249-.2291-.25-.4551A30.9248,30.9248,0,0,0,191.29,96.75H128.71a30.9253,30.9253,0,0,0-27.0776,15.96q-.1247.2258-.25.4548l-.0011.002a12.2685,12.2685,0,0,0-.7673,1.83c-.4543,1.3234-.9188,3.0487-1.4128,5.147-1.7212,7.3247-3.7677,19.1816-5.7479,31.7878-1.9784,12.6-3.8827,25.9238-5.2894,36.0747A17.2892,17.2892,0,0,0,88,190.3835a16.9658,16.9658,0,0,0,4.87,11.8972,16.6672,16.6672,0,0,0,11.9371,5.0131h2.3179a9.8909,9.8909,0,0,0,9.74-8.3636l10.4761-65.4707-1.9749-.3159h-2v3.4128l-11.2966,102.74a4.1638,4.1638,0,0,0,1.0192,3.2173,4.1211,4.1211,0,0,0,2.6489,1.3707l11.3278,1.2148.12.147,1.5483,43.4406a13.833,13.833,0,0,0,4.1676,9.4358A13.5913,13.5913,0,0,0,142.4106,302a13.74,13.74,0,0,0,13.6575-12.9144l2.921-45.4186h2.0215l2.9211,45.4185A13.74,13.74,0,0,0,177.5894,302a13.5912,13.5912,0,0,0,9.5093-3.8777,13.8331,13.8331,0,0,0,4.1676-9.4359l1.5483-43.44.12-.1471,11.327-1.2148a4.1192,4.1192,0,0,0,2.6493-1.3707,4.1647,4.1647,0,0,0,1.0443-2.7585,4.2987,4.2987,0,0,0-.024-.4518l-.0009-.007L196.6342,136.558v-3.4144h-2l-1.975.3159L203.1354,198.93a9.891,9.891,0,0,0,9.74,8.3636v-4a5.89,5.89,0,0,1-5.79-4.9957l-10.4761-65.4707-3.9749.316v3.6329l11.3206,102.9567-.0009-.007.0018.0286-.0416.11-.0787.0425-11.3271,1.2148a4.1455,4.1455,0,0,0-3.6912,3.9819l-1.5483,43.44a9.83,9.83,0,0,1-2.9623,6.7141,9.5978,9.5978,0,0,1-13.3328.0973,9.8269,9.8269,0,0,1-3.05-6.5269l-3.162-49.1615h-9.5233l-3.162,49.1616a9.8269,9.8269,0,0,1-3.05,6.5267,9.5978,9.5978,0,0,1-13.3328-.0973,9.83,9.83,0,0,1-2.9623-6.714l-1.5483-43.4406a4.1454,4.1454,0,0,0-3.691-3.9818l-11.3273-1.2148-.0793-.043-.0415-.1091.0013-.0206,11.3207-102.9575v-3.6331l-3.9749-.316-10.4761,65.4707a5.89,5.89,0,0,1-5.79,4.9957h-2.3179a12.66,12.66,0,0,1-9.0837-3.8164A12.9647,12.9647,0,0,1,92,190.3835a13.3219,13.3219,0,0,1,.127-1.8278c1.7123-12.3556,4.1636-29.4227,6.5808-44.11,1.2081-7.3423,2.4087-14.0918,3.4987-19.34.5446-2.6227,1.0623-4.8712,1.5321-6.6108.2345-.8691.4573-1.611.6591-2.1969a8.6729,8.6729,0,0,1,.4982-1.2194l-.0011.002q.12-.2192.2393-.4355A26.9247,26.9247,0,0,1,128.71,100.75H191.29a26.9242,26.9242,0,0,1,23.5767,13.8954q.12.2166.24.4358l-.0011-.002a8.673,8.673,0,0,1,.4982,1.2194c.38,1.1008.8267,2.7389,1.3015,4.7612,1.67,7.097,3.7195,18.9364,5.69,31.4927,1.9725,12.5625,3.8743,25.8676,5.2789,36.0034A13.3522,13.3522,0,0,1,228,190.3837a12.9653,12.9653,0,0,1-3.7239,9.094,12.66,12.66,0,0,1-9.0834,3.8163H212.875Z"/></svg>