<svg xmlns="http://www.w3.org/2000/svg" xmlns:xlink="http://www.w3.org/1999/xlink" viewBox="0 0 320 320"><defs><style>.a,.d{fill:none;}.b{fill:#1a1a1a;}.c{clip-path:url(#a);}.d{stroke:#1a1a1a;stroke-linejoin:round;stroke-width:4px;}</style><clipPath id="a"><path class="a" d="M154.9214,123.5461,237.84,125.88a7.987,7.987,0,0,1,7.4363,5.6932l27.1453,90.2736L290,111.6487,207.7852,109.83,187.7378,90.0357,137.4849,90l-2.66,14.2383Z"/></clipPath></defs><title>folder-open-filled</title><polygon class="b" points="30 93.007 85.801 236.845 269.526 240 237.615 133.877 151.607 131.456 113.833 95.164 30 93.007"/><g class="c"><polygon class="b" points="290 111.649 269.526 240 237.614 132.902 151.607 131.456 133.173 113.082 137.485 90 187.738 90.036 207.785 109.83 290 111.649"/></g><polygon class="d" points="30 93.007 85.801 236.845 269.526 240 237.615 133.877 151.607 131.456 113.833 95.164 30 93.007"/><g class="c"><polygon class="d" points="290 111.649 269.526 240 237.614 132.902 151.607 131.456 133.173 113.082 137.485 90 187.738 90.036 207.785 109.83 290 111.649"/></g></svg>