<svg xmlns="http://www.w3.org/2000/svg" viewBox="0 0 320 320">
  <title>folder-alt</title>
  <g id="undo">
    <g>
      <path d="M185.652,86.875,174.0159,73.4424a8.1848,8.1848,0,0,0-6.1867-2.8174H112.3231l19.86,16.25Z" class="outline"/>
      <path d="M284.0746,95H232.1939l33.3982,159.565a.5424.5424,0,0,0,1.0658-.0289L289.9324,101.75A5.89,5.89,0,0,0,284.0746,95Z" class="outline"/>
      <path d="M232.1939,95l-.0294-.137a10.15,10.15,0,0,0-9.9488-7.988h-90.033l-19.86-16.25-6.9654-5.6993A10.7531,10.7531,0,0,0,98.5492,62.5H35.5916a5.5541,5.5541,0,0,0-5.4675,6.6923L68.9662,250.4974A8.8983,8.8983,0,0,0,77.6878,257.5H263.9235a2.311,2.311,0,0,0,2.2756-2.7817Z" class="outline"/>
    </g>
  </g>
</svg>
