<svg xmlns="http://www.w3.org/2000/svg" viewBox="0 0 320 320">
  <title>folder-outline</title>
  <g id="undo">
    <g>
      <path d="M50,75H48.1785V245A1.8213,1.8213,0,0,0,50,246.8214H270A1.8214,1.8214,0,0,0,271.8213,245V110.2383A1.8214,1.8214,0,0,0,270,108.4169H169.9556L137.4148,73.7534a1.8306,1.8306,0,0,0-1.3279-.5748H50A1.8213,1.8213,0,0,0,48.1785,75H50v1.8214h85.2979l32.541,34.6635a1.83,1.83,0,0,0,1.3281.5748h99.0115V243.1786H51.821L51.8213,75H50v0Z" style="fill: #1a1a1a"/>
      <path d="M50,75H48.1785V245A1.8213,1.8213,0,0,0,50,246.8214H270A1.8214,1.8214,0,0,0,271.8213,245V110.2383A1.8214,1.8214,0,0,0,270,108.4169H169.9556L137.4148,73.7534a1.8306,1.8306,0,0,0-1.3279-.5748H50A1.8213,1.8213,0,0,0,48.1785,75H50v1.8214h85.2979l32.541,34.6635a1.83,1.83,0,0,0,1.3281.5748h99.0115V243.1786H51.821L51.8213,75H50v0Z" class="fill"/>
      <path d="M50,75H48.1785V245A1.8213,1.8213,0,0,0,50,246.8214H270A1.8214,1.8214,0,0,0,271.8213,245V110.2383A1.8214,1.8214,0,0,0,270,108.4169H169.9556L137.4148,73.7534a1.8306,1.8306,0,0,0-1.3279-.5748H50A1.8213,1.8213,0,0,0,48.1785,75H50v1.8214h85.2979l32.541,34.6635a1.83,1.83,0,0,0,1.3281.5748h99.0115V243.1786H51.821L51.8213,75H50v0Z" class="outline"/>
    </g>
  </g>
</svg>
