<svg xmlns="http://www.w3.org/2000/svg" viewBox="0 0 320 320"><defs><style>.a{fill:none;stroke:#1a1a1a;stroke-linejoin:round;stroke-width:8px;}</style></defs><title>folder-open</title><polygon class="a" points="30 93.007 85.801 236.845 269.526 240 237.615 133.877 151.607 131.456 113.833 95.164 30 93.007"/><polygon class="a" points="207.785 109.83 187.738 90.036 137.485 90 133.173 113.082 151.607 131.456 237.614 132.902 269.526 240 290 111.649 207.785 109.83"/><polygon class="a" points="30 93.007 85.801 236.845 269.526 240 237.615 133.877 151.607 131.456 113.833 95.164 30 93.007"/><polygon class="a" points="207.785 109.83 187.738 90.036 137.485 90 133.173 113.082 151.607 131.456 237.614 132.902 269.526 240 290 111.649 207.785 109.83"/></svg>