<svg xmlns="http://www.w3.org/2000/svg" viewBox="0 0 320 320">
  <title>hammer</title>
  <g id="hammer">
    <path d="M149.0909,138.1818l32.7273,32.7273L76.5842,276.1431A13.1684,13.1684,0,0,1,67.2727,280h0a13.1684,13.1684,0,0,1-9.3115-3.8569L43.8569,262.0388A13.1684,13.1684,0,0,1,40,252.7273h0a13.1684,13.1684,0,0,1,3.8569-9.3115Z" class="outline"/>
    <path d="M160,127.2727,192.7273,160l21.8182-21.8182s12.2727,10,10.9091,21.8182,0,10.9091,0,10.9091L244.5455,190A3.8569,3.8569,0,0,0,250,190l27.5723-27.5723A8.2888,8.2888,0,0,0,280,156.5667V141.6151a8.2888,8.2888,0,0,0-2.4277-5.861l-8.4814-8.4814s-15,2.2727-21.8182,0-10.9091-10.9091-10.9091-10.9091V94.5455L192.7273,50.9091S170.4545,40,149.0909,40H94.5455s30,8.1818,54.5455,21.8182S176.3636,90,170.9091,105.4545,160,127.2727,160,127.2727Z" class="outline"/>
  </g>
</svg>
