<svg xmlns="http://www.w3.org/2000/svg" viewBox="0 0 320 320">
  <title>infinity-outline</title>
  <g id="infini">
    <g>
      <path d="M92.2466,232.0342a81.7139,81.7139,0,0,1-30.9424-6.2207C34.1948,214.6836,18.0063,191.9209,18,164.9229c-.0068-29.5547,13.5571-53.8564,37.2144-66.6758,25.55-13.8437,57.561-11.1807,85.63,7.125l-2.1846,3.35c-26.82-17.49-57.3022-20.09-81.54-6.958C34.7944,113.8613,21.9937,136.8818,22,164.9229c.0059,25.3184,15.2671,46.6982,40.8237,57.19,26.0527,10.6982,54.6387,6.6729,71.1279-10.0137,13.4683-13.6309,19.1382-30.1377,25.1406-47.6143,5.7-16.5928,11.5928-33.751,24.7622-47.9727,20.9272-22.6006,58.1929-27.9854,84.8374-12.2578a67.51,67.51,0,0,1,33.2925,57.0937,64.99,64.99,0,0,1-29.44,56.3994c-22.749,14.7813-55.5737,14.4883-78.0488-.7021l2.24-3.3145c21.2021,14.3311,52.1675,14.6074,73.6289.6631a61.0162,61.0162,0,0,0,27.62-52.96A63.5334,63.5334,0,0,0,266.6587,107.7c-25.0864-14.8086-60.17-9.7422-79.87,11.5293-12.5952,13.6025-18.3491,30.3555-23.9136,46.5557-5.8843,17.1318-11.9687,34.8467-26.0781,49.125C125.7017,226.14,109.5571,232.0342,92.2466,232.0342Z" class="fill"/>
      <path d="M92.2466,232.0342a81.7139,81.7139,0,0,1-30.9424-6.2207C34.1948,214.6836,18.0063,191.9209,18,164.9229c-.0068-29.5547,13.5571-53.8564,37.2144-66.6758,25.55-13.8437,57.561-11.1807,85.63,7.125l-2.1846,3.35c-26.82-17.49-57.3022-20.09-81.54-6.958C34.7944,113.8613,21.9937,136.8818,22,164.9229c.0059,25.3184,15.2671,46.6982,40.8237,57.19,26.0527,10.6982,54.6387,6.6729,71.1279-10.0137,13.4683-13.6309,19.1382-30.1377,25.1406-47.6143,5.7-16.5928,11.5928-33.751,24.7622-47.9727,20.9272-22.6006,58.1929-27.9854,84.8374-12.2578a67.51,67.51,0,0,1,33.2925,57.0937,64.99,64.99,0,0,1-29.44,56.3994c-22.749,14.7813-55.5737,14.4883-78.0488-.7021l2.24-3.3145c21.2021,14.3311,52.1675,14.6074,73.6289.6631a61.0162,61.0162,0,0,0,27.62-52.96A63.5334,63.5334,0,0,0,266.6587,107.7c-25.0864-14.8086-60.17-9.7422-79.87,11.5293-12.5952,13.6025-18.3491,30.3555-23.9136,46.5557-5.8843,17.1318-11.9687,34.8467-26.0781,49.125C125.7017,226.14,109.5571,232.0342,92.2466,232.0342Z" class="outline"/>
    </g>
  </g>
</svg>
