<svg xmlns="http://www.w3.org/2000/svg" viewBox="0 0 320 320">
  <title>interface.undo-filled</title>
  <g id="undo">
    <path d="M268.9421,185.53h0a75.4329,75.4329,0,0,0-17.6481-23.0262,81.874,81.874,0,0,0-17.3084-11.6351,110.9414,110.9414,0,0,0-29.7548-9.7338,174.5982,174.5982,0,0,0-31.913-2.7327,278.4465,278.4465,0,0,0-42.1633,3.4924,413.0189,413.0189,0,0,0-50.576,11.3068l9.3635-18.7271A10,10,0,1,0,71.0536,125.53l-20,40c-.1368.2737-.2558.5527-.3657.834-.038.0969-.0714.1941-.1061.2915q-.0985.2773-.18.5579c-.0337.1156-.0679.2308-.0972.3469-.0466.1855-.0846.3721-.12.5591-.0389.2026-.07.405-.0966.6082-.02.1577-.041.3151-.0536.4732-.0123.1537-.0176.3069-.0228.4605-.0044.1321-.0066.264-.0058.396.001.1545.0032.3084.0113.4623.0074.1412.0215.2817.0349.4225.0193.2023.0428.4033.0743.6036.03.1946.063.3887.1049.5813.0269.1234.06.2448.0917.3671.0416.1618.0859.3226.1356.4824.0364.1169.0742.2329.1149.3484.0614.1747.13.347.2008.5185.0392.0944.0751.19.1172.283q.1708.3781.373.7433c.0457.0822.0978.1609.1459.2419.099.1666.2008.3315.31.493.07.1035.1433.2043.2172.3053q.1478.2017.3068.3967c.083.1022.1656.2043.2529.3035.0239.0271.0449.056.0691.0829.1.1106.2056.2129.3093.3182.0938.0953.186.1915.2841.2834q.2772.26.5709.496c.0888.0714.1819.1383.2736.2069q.2323.174.4725.3338c.0931.0616.1862.1229.282.1817q.3132.1925.6384.3605c.0443.0229.0844.0506.1292.0729l40,20a10,10,0,0,0,8.9443-17.8885L86.4339,172.04c3.7171-1.06,7.7895-2.1657,12.1553-3.27,10.3412-2.6163,22.3029-5.2178,34.92-7.1564a258.2116,258.2116,0,0,1,38.8089-3.2117,159.3208,159.3208,0,0,1,25.2476,1.8724c12.08,1.9438,23.0373,5.5238,32.0713,11.0406a57.8849,57.8849,0,0,1,12.1624,9.8083,55.8562,55.8562,0,0,1,9.2545,13.3509,10,10,0,1,0,17.8885-8.9443Z" class="fill"/>
  </g>
</svg>
