<svg xmlns="http://www.w3.org/2000/svg" viewBox="0 0 320 320">
  <title>interface.hamburger-menu-filled</title>
  <g id="hamburger-menu">
    <path d="M72.0536,80H247.47S260,80,260,95.5989s-12.53,15.5989-12.53,15.5989H72.0536s-12.53,0-12.53-15.5989S72.0536,80,72.0536,80Z" class="fill"/>
    <path d="M72.0536,144.4011H247.47S260,144.4011,260,160s-12.53,15.5989-12.53,15.5989H72.0536s-12.53,0-12.53-15.5989S72.0536,144.4011,72.0536,144.4011Z" class="fill"/>
    <path d="M72.0536,208.8022H247.47s12.53,0,12.53,15.5989S247.47,240,247.47,240H72.0536s-12.53,0-12.53-15.5989S72.0536,208.8022,72.0536,208.8022Z" class="fill"/>
  </g>
</svg>
