<svg xmlns="http://www.w3.org/2000/svg" viewBox="0 0 320 320">
  <title>interfaces.checkmark-filled</title>
  <g id="checkmark">
    <g>
      <g>
        <path d="M126.7575,200.0068,228.6215,74.0324A109.9964,109.9964,0,0,0,50,160a111.0157,111.0157,0,0,0,.948,14.4693l2.8442-3.7923a10.3463,10.3463,0,0,1,14.4848-2.0692l44.2275,33.1706A10.3463,10.3463,0,0,0,126.7575,200.0068Z" class="fill"/>
        <path d="M249.5341,96.0872l-116.472,146.06a10.3463,10.3463,0,0,1-14.297,1.8265L56.4758,197.2569A110.04,110.04,0,0,0,160.1444,270c61.0135-.0784,111.1522-51.4315,109.8293-112.4307A109.46,109.46,0,0,0,249.5341,96.0872Z" class="fill"/>
      </g>
      <g>
        <path d="M126.7575,200.0068,228.6215,74.0324A109.9964,109.9964,0,0,0,50,160a111.0157,111.0157,0,0,0,.948,14.4693l2.8442-3.7923a10.3463,10.3463,0,0,1,14.4848-2.0692l44.2275,33.1706A10.3463,10.3463,0,0,0,126.7575,200.0068Z" class="outline"/>
        <path d="M249.5341,96.0872l-116.472,146.06a10.3463,10.3463,0,0,1-14.297,1.8265L56.4758,197.2569A110.04,110.04,0,0,0,160.1444,270c61.0135-.0784,111.1522-51.4315,109.8293-112.4307A109.46,109.46,0,0,0,249.5341,96.0872Z" class="outline"/>
      </g>
    </g>
  </g>
</svg>
