<svg xmlns="http://www.w3.org/2000/svg" viewBox="0 0 320 320">
  <title>interface.hourglass</title>
  <g id="hourglass">
    <path d="M182.64,155.092c-3.1275,3.1372-4.8616,4.908-4.8616,4.908s1.7341,1.7709,4.8616,4.908c19.4074,8.6548,35.3449,28.1346,44.1624,53.3528l.0033.0084a97.13,97.13,0,0,1,3.9339,11.7763l.0223.0844c.9858,3.7246,1.71,7.29,2.2422,10.5955.0212.1313.0424.2618.0631.3924q.2373,1.5075.4258,2.9375c.0193.1457.036.286.0544.43.1211.9479.2316,1.8755.3242,2.7624l.0028.0245H240v24.5455s-1.0717.9838-5.4325,2.2692c-.2134.0629-.44.1269-.6691.1912l-.0095.0027c-.23.0642-.471.1293-.7171.1948-.0477.0127-.0926.0252-.1406.0377-.2254.0594-.4615.1193-.7009.18-.0784.02-.154.0393-.2341.0591-.226.0559-.4629.1124-.7015.169-.1013.0241-.2.0478-.3036.072-.2285.0531-.4665.1065-.7062.16-.1267.0284-.2508.0563-.3806.0848-.2313.0506-.4721.1013-.7137.1522-.15.0316-.2974.063-.4512.0944-.2358.0485-.48.0971-.726.1457-.1727.0341-.3446.0684-.522.1025-.2444.0471-.4972.0943-.7508.1414-.1914.0354-.3825.0711-.58.1067-.2525.0457-.5123.091-.7737.1366-.2143.0374-.4291.0747-.65.112-.2581.0437-.5226.0871-.7888.1306-.24.0393-.4816.0783-.7288.1173-.2656.0421-.5377.084-.8117.1258-.2595.04-.5209.0792-.7879.1187-.2793.0411-.5639.0822-.8513.1232-.2793.04-.5617.08-.8488.1192-.29.04-.5857.08-.8839.1193q-.45.06-.9121.1191-.4579.0587-.9283.1169-.4754.0587-.9643.1169-.4813.0571-.9749.1139-.51.0585-1.0346.1161c-.3273.0361-.6576.072-.993.1076-.3708.0394-.7486.0784-1.1295.1171-.3376.0344-.6772.0686-1.0229.1025-.39.0381-.7868.0756-1.1867.1132-.3557.0333-.7126.0666-1.0767.0993-.41.0369-.8292.0732-1.25.1095-.3728.032-.7464.0639-1.1275.0953-.4311.0354-.8714.07-1.3133.1049-.389.0306-.7773.061-1.1747.0908-.4579.0345-.9263.0679-1.3956.1015-.3993.0284-.7974.0569-1.2051.0847-.4807.0326-.9727.0643-1.4651.096-.4244.0273-.8471.0547-1.28.0814-.4914.03-.995.0589-1.4978.0879-.4489.0258-.8951.0521-1.3532.0771-.5223.0286-1.0583.0558-1.5926.0831-.4565.0233-.909.047-1.3742.07-.5561.0269-1.1275.0522-1.6967.0778-.4693.0212-.9336.0427-1.4118.0629-.5765.0245-1.1685.047-1.7578.07-.4939.0192-.9819.039-1.4849.0573-.6038.0218-1.2249.0419-1.8421.0625-.507.0169-1.007.0344-1.5232.05-.6309.0192-1.28.0365-1.9249.0543-.5293.0146-1.0508.03-1.59.0434-.6585.0165-1.3368.0308-2.0095.0457-.5435.012-1.0781.025-1.6311.036-.7165.0142-1.4548.0257-2.1875.038-.5312.0088-1.0527.0192-1.5926.0269-.8125.012-1.6484.0208-2.48.03-.4827.0055-.9534.0123-1.4428.017-.94.0091-1.9051.0146-2.87.0206-.4065.0025-.8008.0065-1.2118.0085Q162.1509,280,160,280t-4.2271-.01c-.4721-.0023-.9252-.0068-1.3912-.01-.897-.0057-1.798-.0109-2.6738-.0193-.5728-.0055-1.1253-.0134-1.6889-.02-.7506-.0087-1.5084-.0165-2.2436-.0273-.5653-.0083-1.1113-.0188-1.6674-.0281-.71-.012-1.4255-.0232-2.1205-.0369-.5575-.0111-1.0968-.0241-1.6448-.0364-.67-.0148-1.3449-.0289-2-.0453-.5578-.0141-1.0979-.03-1.6459-.0451-.618-.017-1.2416-.0337-1.8471-.0521-.548-.0168-1.08-.0354-1.6177-.0533-.59-.02-1.1847-.0388-1.7628-.06-.5282-.0192-1.0407-.04-1.5589-.06-.5566-.0217-1.1169-.043-1.6616-.0661-.5223-.022-1.03-.0455-1.5413-.0686-.5257-.0237-1.0544-.0473-1.5689-.072-.4975-.024-.9813-.0493-1.4685-.0743-.507-.0261-1.0162-.0519-1.5126-.0791-.4724-.0258-.9328-.0527-1.3954-.0794-.4893-.0284-.98-.0565-1.4579-.0858-.4542-.0278-.8976-.0566-1.3421-.0852-.4646-.03-.93-.06-1.3836-.0908-.436-.03-.8619-.06-1.2882-.09-.4443-.0317-.8881-.0635-1.3223-.096-.4185-.0314-.828-.0637-1.2372-.0957-.4216-.0332-.8418-.0663-1.2533-.1-.3954-.0325-.7829-.0657-1.1691-.0988-.4085-.0352-.815-.0706-1.2134-.1063-.3783-.0341-.7494-.0687-1.1189-.1033-.3823-.036-.7619-.0719-1.1346-.1084-.3659-.0357-.7253-.0719-1.0822-.1083-.36-.0368-.7176-.0736-1.0688-.1109-.3482-.0369-.6908-.074-1.03-.1116q-.519-.0571-1.0248-.1151-.4905-.0563-.9682-.1132-.4934-.0587-.9736-.1181-.4625-.0573-.9131-.1149-.4736-.0607-.9333-.122-.4365-.0579-.8619-.1164c-.2965-.0407-.5876-.0818-.8756-.1229-.2751-.0393-.548-.0786-.8157-.1181-.2828-.0418-.56-.0836-.834-.1257-.2571-.0393-.5126-.0786-.7624-.118-.2706-.0429-.5349-.0858-.7974-.1286-.2365-.0389-.4724-.0775-.7023-.1164-.2595-.0438-.512-.0878-.763-.1316-.2192-.0384-.4382-.0767-.6508-.1151-.2492-.0449-.49-.09-.7307-.1346-.1989-.0372-.3987-.0743-.5918-.1115-.2386-.0458-.4687-.0915-.6987-.1372-.1836-.0366-.3683-.0732-.5465-.11-.225-.0461-.4417-.0919-.6581-.138-.1691-.0357-.34-.0716-.5036-.1073-.2126-.0463-.4166-.0924-.6208-.1386-.1537-.0348-.31-.0694-.4587-.104-.2074-.0482-.4057-.0959-.6041-.1436-.1321-.032-.2673-.0637-.3955-.0953-.1991-.0491-.3888-.0977-.5785-.1462-.1183-.03-.24-.0609-.3549-.091-.1957-.0513-.3813-.1019-.5668-.1525-.0944-.0258-.1929-.0519-.285-.0775-.0285-.0079-.06-.016-.0884-.024-.1283-.036-.2433-.0707-.3676-.1063-.0995-.0288-.2052-.0579-.3015-.0863s-.1984-.0573-.2913-.0852c-3.8594-1.1646-5.0011-2.0634-5.1286-2.1712L80,271.8182V247.2727h6.1261c.0936-.8983.2055-1.8388.3284-2.8.0176-.138.034-.2722.0522-.4115q.1888-1.4338.4277-2.9507c.02-.1253.04-.25.06-.3766.5322-3.3093,1.2577-6.88,2.2451-10.61l.0191-.072a97.1482,97.1482,0,0,1,3.9368-11.7853l.0017-.0043c8.8175-25.219,24.755-44.6994,44.1629-53.3544,3.1275-3.1372,4.8616-4.908,4.8616-4.908s-1.7341-1.7709-4.8616-4.908c-19.4074-8.6548-35.3449-28.1346-44.1624-53.3528l-.0032-.0084a97.1071,97.1071,0,0,1-3.934-11.7763l-.0223-.0844c-.9859-3.7246-1.71-7.29-2.2422-10.5955-.0212-.1313-.0424-.2618-.0631-.3924q-.2373-1.5075-.4258-2.9375c-.0191-.1457-.0361-.286-.0545-.43-.121-.9479-.2314-1.8755-.3241-2.7624l-.0028-.0245H80V48.1818s1.0717-.9838,5.4325-2.2692c.2134-.0629.44-.1269.6691-.1912l.0095-.0026c.23-.0643.471-.1294.7172-.1949.0476-.0127.0924-.0251.14-.0378.2253-.0593.4615-.1193.7008-.1794.0785-.02.1542-.0394.2342-.0592.226-.056.4629-.1125.7015-.169.1014-.0241.2-.0479.3036-.072.2284-.0531.4665-.1066.7062-.16.1267-.0283.2508-.0564.3806-.0848.2313-.0505.472-.1013.7136-.1522.15-.0315.2976-.0629.4513-.0945.2358-.0484.48-.097.726-.1456.1727-.0342.3444-.0684.5222-.1027.2443-.0471.4969-.0941.7507-.1413.1914-.0356.3825-.0711.58-.1067.2525-.0456.5123-.091.7737-.1366.2143-.0374.4291-.0747.65-.112.258-.0436.5226-.0871.7889-.1306.24-.0392.4814-.0783.7287-.1174.2656-.0421.5377-.084.8117-.1258.2595-.04.5209-.0792.7879-.1186.2792-.0412.5639-.0822.8513-.1232.2793-.04.5617-.08.8489-.1191.29-.04.5855-.08.8839-.1195q.45-.06.912-.1191.4579-.0587.9282-.1168.4757-.0587.9644-.1169.4813-.0573.9747-.1139c.34-.039.6855-.0776,1.0347-.1161.3284-.0362.66-.0722.9961-.1079.3672-.039.7408-.0775,1.1177-.1159.341-.0347.684-.0692,1.0332-.1035.3913-.0383.79-.0761,1.1921-.1138.3525-.033.7063-.0659,1.0668-.0983.4113-.0371.8311-.0734,1.2531-.11.3729-.032.7464-.064,1.1275-.0954.4311-.0355.8715-.07,1.3135-.105.3888-.03.7773-.061,1.1747-.0908.4577-.0344.9262-.0679,1.3955-.1013.3993-.0284.7974-.0569,1.2051-.0847.4806-.0327.9727-.0644,1.4651-.0961.4244-.0273.8471-.0548,1.28-.0813.4912-.03.995-.059,1.4978-.088.4488-.0259.8949-.0521,1.3531-.0771.5223-.0286,1.0583-.0557,1.5926-.0831.4565-.0234.909-.0471,1.3742-.07.5561-.0269,1.1275-.0523,1.6967-.0779.4693-.0211.9336-.0427,1.4118-.0629.5765-.0244,1.1685-.0469,1.7578-.07.4939-.0192.9819-.0391,1.4849-.0573.6038-.0219,1.2249-.0419,1.8421-.0625.507-.0168,1.007-.0344,1.5232-.05.6309-.0193,1.28-.0366,1.9249-.0543.5293-.0146,1.0508-.03,1.59-.0435.6585-.0165,1.3368-.0307,2.0095-.0456.5435-.012,1.0781-.025,1.6311-.036.7165-.0142,1.4548-.0257,2.1875-.038.5313-.0089,1.0527-.0191,1.5926-.027.8125-.0119,1.6484-.0208,2.48-.03.4827-.0055.9534-.0124,1.4428-.0171.94-.009,1.9051-.0147,2.87-.0206.4065-.0025.8008-.0066,1.2118-.0085Q157.8491,40,160,40t4.2271.01c.4721.0022.9252.0068,1.3912.01.897.0057,1.798.0109,2.6738.0192.5728.0055,1.1253.0134,1.6889.02.7506.0087,1.5084.0166,2.2436.0274.5653.0083,1.1113.0188,1.6674.0282.71.0119,1.4255.0231,2.1205.0368.5575.011,1.0968.0242,1.6448.0363.67.0148,1.3449.029,2,.0454.5578.014,1.0979.03,1.6459.0451.618.017,1.2416.0336,1.8471.0521.548.0168,1.08.0353,1.6177.0532.59.02,1.1847.0388,1.7628.06.5282.0192,1.0407.04,1.5589.06.5566.0218,1.1169.0431,1.6616.0661.5223.022,1.03.0455,1.5413.0686.5257.0237,1.0544.0472,1.5689.072.4975.024.9813.0493,1.4685.0744.507.026,1.0162.0519,1.5126.079.4724.0258.9328.0527,1.3954.0794.4894.0283.98.0564,1.4579.0857.4542.0278.8976.0566,1.3421.0852.4646.03.93.06,1.3836.0908.4358.03.8619.06,1.2882.09.4445.0317.8881.0635,1.3223.096.4185.0314.8281.0636,1.2372.0957.4216.0332.8418.0663,1.2533.1.3954.0326.7829.0657,1.1691.0989.41.0352.817.0706,1.2165.1065.3722.0335.7372.0674,1.1007.1015.3912.0368.78.0735,1.161.1109.36.0354.7148.071,1.0664.1068.3616.0369.72.0739,1.0728.1113.3485.037.6911.0741,1.0307.1116q.519.0572,1.0248.1152.4905.0563.9682.1132.4934.0587.9738.1181.4621.0572.9129.1149.4738.0607.9333.122c.291.0387.579.0774.8619.1165.2963.0408.5876.0818.8756.1229.2751.0393.548.0786.8158.1181.2826.0417.5594.0836.8337.1256.2573.0394.5128.0786.7626.1181.2706.0428.5349.0857.7974.1286.2363.0388.4724.0775.7023.1163.2595.0438.512.0878.7628.1316.2193.0384.4383.0766.6509.1149.2492.0449.49.09.7307.1347.1989.0372.3987.0743.5918.1114.2386.0458.4688.0916.6987.1373.1836.0366.3683.0731.5466.11.2249.0461.4414.092.6579.138.1691.0358.34.0717.5036.1075.2126.0463.4166.0924.6208.1386.1537.0347.31.0694.4587.104.2076.0481.4057.0958.6041.1436.132.0318.2673.0637.3954.0953.1992.0491.389.0977.5787.1463.1183.03.24.0608.3549.0909.1959.0513.3811.1019.567.1525.0943.0258.1928.0519.2849.0774l.0884.024c.1283.036.2433.0707.3677.1063.0993.0286.2051.0579.3013.0862s.1984.0572.2913.0852c3.8594,1.1646,5.0011,2.0634,5.1286,2.1712l.0126.0109V72.7273h-6.1261c-.0937.9-.2059,1.8414-.329,2.804-.0173.1357-.0332.2675-.0513.4043q-.1888,1.4354-.428,2.9539c-.02.1253-.04.25-.0605.3766-.5321,3.3093-1.2575,6.88-2.245,10.61l-.019.0722a97.15,97.15,0,0,1-3.9369,11.7853l-.0017.0043C217.9849,126.9566,202.0474,146.437,182.64,155.092ZM86.1261,247.2727S120,250,160,250s73.8739-2.7273,73.8739-2.7273m0-174.5455S200,70,160,70s-73.8739,2.7273-73.8739,2.7273" class="outline"/>
    <path d="M100,110s10,10,30,20,50,30,50,30l2.9635,16.9711a96.5457,96.5457,0,0,0,24.0636,40.0559l26.8468,30.2457S240,250,160,250s-73.8739-2.7273-73.8739-2.7273S107.5965,228.6052,120,210c20-30,22.2221-50,22.2221-50s-8.1928-2.4133-28.1928-22.4133S100,110,100,110Z" class="fill"/>
  </g>
</svg>
