<svg xmlns="http://www.w3.org/2000/svg" viewBox="0 0 320 320">
  <title>interface.cross-circled-filled</title>
  <g id="cross">
    <path d="M160,28C87.2148,28,28,87.2148,28,160S87.2148,292,160,292s132-59.2148,132-132S232.7852,28,160,28Zm53.3384,165.9409a12,12,0,0,1-16.9707,16.9707l-33.9409-33.9409-33.9414,33.9409a12,12,0,0,1-16.9707-16.9707L145.4561,160l-33.9414-33.9409a12,12,0,0,1,16.9707-16.9707l33.9414,33.9409,33.9409-33.9409a12,12,0,0,1,16.9707,16.9707L179.397,160Z" class="fill"/>
  </g>
</svg>
