<svg xmlns="http://www.w3.org/2000/svg" viewBox="0 0 320 320">
  <title>interface.shrink-filled</title>
  <g id="alignment">
    <g>
      <g>
        <polygon points="149.964 150.144 137.143 98.859 125.924 116.488 52.525 43.088 66.249 29.364 56.381 20 20 56.381 29.687 65.926 42.909 52.704 116.308 126.104 98.679 137.323 149.964 150.144" class="fill"/>
        <polygon points="175.607 175.786 188.428 227.071 199.646 209.442 273.046 282.842 259.322 296.566 269.189 305.93 305.571 269.549 295.883 260.004 282.662 273.226 209.262 199.826 226.891 188.607 175.607 175.786" class="fill"/>
      </g>
      <g>
        <polygon points="149.964 150.144 137.143 98.859 125.924 116.488 52.525 43.088 66.249 29.364 56.381 20 20 56.381 29.687 65.926 42.909 52.704 116.308 126.104 98.679 137.323 149.964 150.144" class="outline"/>
        <polygon points="175.607 175.786 188.428 227.071 199.646 209.442 273.046 282.842 259.322 296.566 269.189 305.93 305.571 269.549 295.883 260.004 282.662 273.226 209.262 199.826 226.891 188.607 175.607 175.786" class="outline"/>
      </g>
    </g>
  </g>
</svg>
