<svg xmlns="http://www.w3.org/2000/svg" viewBox="0 0 320 320">
  <title>interfaces.hourglass-filled</title>
  <g id="hourglass">
    <path d="M226.8025,101.7376l.0017-.0043a97.15,97.15,0,0,0,3.9369-11.7853l.019-.0722c.9874-3.73,1.7129-7.3,2.245-10.61.0206-.1261.0407-.2513.0605-.3766q.239-1.5161.428-2.9539c.0181-.1368.034-.2686.0513-.4043.123-.9625.2352-1.9043.329-2.804H240V48.1818l-.0126-.0109c-.1275-.1078-1.2693-1.0067-5.1286-2.1712-.0929-.028-.1959-.0569-.2913-.0852s-.202-.0576-.3013-.0862c-.1244-.0356-.2394-.07-.3677-.1063l-.0884-.024c-.0921-.0256-.1906-.0517-.2849-.0774-.1858-.0506-.3711-.1012-.567-.1525-.115-.03-.2366-.0606-.3549-.0909-.19-.0486-.3795-.0971-.5787-.1463-.1281-.0316-.2634-.0635-.3954-.0953-.1984-.0478-.3965-.0955-.6041-.1436-.149-.0346-.305-.0693-.4587-.104-.2042-.0461-.4082-.0922-.6208-.1386-.1638-.0358-.3345-.0716-.5036-.1075-.2165-.0459-.433-.0918-.6579-.138-.1783-.0365-.363-.073-.5466-.11-.23-.0457-.46-.0915-.6987-.1373-.1931-.0371-.3929-.0742-.5918-.1114-.2405-.0449-.4816-.09-.7307-.1347-.2126-.0384-.4316-.0766-.6509-.1149-.2508-.0439-.5033-.0878-.7628-.1316-.23-.0388-.466-.0776-.7023-.1163-.2626-.0429-.5268-.0858-.7974-.1286-.25-.0395-.5053-.0788-.7626-.1181-.2743-.042-.5511-.0839-.8337-.1256-.2679-.04-.5407-.0788-.8158-.1181-.2879-.0411-.5792-.0821-.8756-.1229-.2829-.039-.5709-.0778-.8619-.1165q-.46-.0613-.9333-.122-.45-.0577-.9129-.1149-.48-.0594-.9738-.1181-.478-.0569-.9682-.1132-.5056-.058-1.0248-.1152c-.34-.0375-.6822-.0746-1.0307-.1116-.3524-.0374-.7112-.0744-1.0728-.1113-.3516-.0358-.7059-.0714-1.0664-.1068-.3814-.0374-.77-.0741-1.161-.1109-.3636-.0341-.7285-.068-1.1007-.1015-.4-.036-.8069-.0713-1.2165-.1065-.3862-.0332-.7737-.0663-1.1691-.0989-.4116-.0339-.8318-.067-1.2533-.1-.409-.0322-.8186-.0643-1.2372-.0957-.4342-.0326-.8778-.0643-1.3223-.096-.4263-.03-.8524-.0609-1.2882-.09-.454-.0309-.9191-.0608-1.3836-.0908-.4445-.0286-.8878-.0574-1.3421-.0852-.4782-.0293-.9685-.0574-1.4579-.0857-.4626-.0267-.923-.0536-1.3954-.0794-.4964-.0271-1.0056-.053-1.5126-.079-.4872-.025-.971-.05-1.4685-.0744-.5145-.0248-1.0432-.0483-1.5689-.072-.5114-.0231-1.019-.0466-1.5413-.0686-.5446-.023-1.1049-.0443-1.6616-.0661-.5181-.02-1.0307-.0411-1.5589-.06-.5781-.021-1.1724-.04-1.7628-.06-.5379-.0179-1.07-.0364-1.6177-.0532-.6055-.0185-1.2291-.0351-1.8471-.0521-.548-.0152-1.0882-.0311-1.6459-.0451-.6554-.0164-1.3306-.0306-2-.0454-.548-.0121-1.0873-.0253-1.6448-.0363-.695-.0137-1.411-.0249-2.1205-.0368-.5561-.0094-1.1021-.02-1.6674-.0282-.7352-.0107-1.493-.0186-2.2436-.0274-.5636-.0066-1.1161-.0146-1.6889-.02-.8758-.0084-1.7768-.0136-2.6738-.0192-.466-.003-.9191-.0076-1.3912-.01Q162.1508,40,160,40t-4.2277.01c-.411.0019-.8052.006-1.2118.0085-.9646.0059-1.93.0117-2.87.0206-.4894.0047-.96.0116-1.4428.0171-.8318.0095-1.6677.0184-2.48.03-.54.0079-1.0614.0181-1.5926.027-.7327.0123-1.471.0238-2.1875.038-.553.0109-1.0876.024-1.6311.036-.6727.0149-1.351.0291-2.0095.0456-.5391.0135-1.0605.0289-1.59.0435-.6448.0178-1.2941.035-1.9249.0543-.5162.0158-1.0162.0333-1.5232.05-.6172.0205-1.2383.0405-1.8421.0625-.5031.0182-.9911.0381-1.4849.0573-.5893.023-1.1814.0455-1.7578.07-.4782.02-.9425.0417-1.4118.0629-.5692.0256-1.1406.051-1.6967.0779-.4651.0225-.9177.0462-1.3742.07-.5343.0274-1.07.0545-1.5926.0831-.4581.025-.9043.0512-1.3531.0771-.5028.029-1.0066.0579-1.4978.088-.4332.0265-.8559.054-1.28.0813-.4925.0317-.9845.0634-1.4651.0961-.4076.0278-.8058.0563-1.2051.0847-.4693.0334-.9378.0669-1.3955.1013-.3973.03-.7859.06-1.1747.0908-.442.0347-.8824.07-1.3135.105-.3811.0314-.7546.0634-1.1275.0954-.422.0362-.8418.0726-1.2531.11-.36.0324-.7143.0653-1.0668.0983-.4018.0377-.8008.0755-1.1921.1138-.3492.0342-.6922.0688-1.0332.1035-.377.0384-.7506.0769-1.1177.1159-.3365.0358-.6677.0717-.9961.1079-.3492.0385-.6948.0771-1.0347.1161q-.4941.0566-.9747.1139-.4886.0581-.9644.1169-.47.0581-.9282.1168-.4625.0593-.912.1191c-.2984.04-.5936.0794-.8839.1195-.2872.04-.57.0792-.8489.1191-.2874.041-.5721.082-.8513.1232-.267.0394-.5285.079-.7879.1186-.274.0418-.546.0837-.8117.1258-.2472.0391-.4886.0782-.7287.1174-.2663.0435-.531.087-.7889.1306-.22.0373-.4353.0746-.65.112-.2614.0456-.5212.091-.7737.1366-.197.0356-.3881.0712-.58.1067-.2538.0471-.5064.0941-.7507.1413-.1777.0342-.3495.0685-.5222.1027-.2455.0485-.49.0971-.726.1456-.1537.0316-.3016.063-.4513.0945-.2416.0509-.4823.1017-.7136.1522-.13.0284-.2539.0565-.3806.0848-.24.0536-.4778.1071-.7062.16-.1038.0242-.2021.0479-.3036.072-.2386.0565-.4754.113-.7015.169-.08.02-.1557.0394-.2342.0592-.2393.06-.4754.12-.7008.1794-.0481.0127-.0929.0251-.14.0378-.2462.0655-.4876.1306-.7172.1949l-.0095.0026c-.2294.0643-.4556.1284-.6691.1912C81.0717,47.198,80,48.1818,80,48.1818V72.7273h6.1261l.0028.0245c.0926.8869.2031,1.8145.3241,2.7624.0184.1444.0354.2847.0545.43q.1879,1.4276.4258,2.9375c.0206.1306.0419.2611.0631.3924.5318,3.3052,1.2563,6.8709,2.2422,10.5955l.0223.0844a97.1071,97.1071,0,0,0,3.934,11.7763l.0032.0084c8.8175,25.2182,24.755,44.698,44.1624,53.3528,3.1275,3.1372,4.8616,4.908,4.8616,4.908s-1.7341,1.7709-4.8616,4.908c-19.4079,8.655-35.3454,28.1354-44.1629,53.3544l-.0017.0043a97.1482,97.1482,0,0,0-3.9368,11.7853l-.0191.072c-.9874,3.73-1.7129,7.3005-2.2451,10.61-.02.1261-.0407.2513-.06.3766q-.2386,1.5145-.4277,2.9507c-.0181.1393-.0346.2735-.0522.4115-.1229.9612-.2348,1.9016-.3284,2.8H80v24.5455l.0126.0109c.1275.1077,1.2693,1.0066,5.1286,2.1712.0929.028.1959.057.2913.0852s.202.0575.3015.0863c.1243.0356.2393.07.3676.1063.0283.008.06.0161.0884.024.0921.0256.1906.0517.285.0775.1855.0506.3711.1012.5668.1525.1148.03.2366.0606.3549.091.19.0485.3795.0971.5785.1462.1282.0317.2634.0634.3955.0953.1984.0477.3966.0953.6041.1436.149.0346.305.0692.4587.104.2042.0462.4082.0923.6208.1386.1638.0357.3345.0716.5036.1073.2164.0461.433.0919.6581.138.1782.0365.3629.0731.5465.11.23.0457.46.0914.6987.1372.1931.0372.3929.0743.5918.1115.24.0449.4816.09.7307.1346.2126.0384.4316.0767.6508.1151.251.0438.5035.0878.763.1316.23.0389.4658.0775.7023.1164.2626.0429.5268.0858.7974.1286.25.0394.5053.0787.7624.118.2744.0421.5512.0839.834.1257.2677.04.5406.0788.8157.1181.2879.0411.5791.0822.8756.1229q.4246.0585.8619.1164.46.0615.9333.122.45.0579.9131.1149.48.0593.9736.1181.4782.0567.9682.1132.5054.0579,1.0248.1151c.3394.0376.6821.0747,1.03.1116.3511.0373.7084.0742,1.0688.1109.3569.0364.7162.0726,1.0822.1083.3728.0365.7524.0724,1.1346.1084.3694.0346.7405.0692,1.1189.1033.3984.0357.805.0711,1.2134.1063.3862.0332.7737.0663,1.1691.0988.4116.034.8318.0671,1.2533.1.4092.0321.8186.0643,1.2372.0957.4342.0325.8779.0643,1.3223.096.4263.03.8523.0609,1.2882.09.454.0309.9191.0609,1.3836.0908.4445.0286.8878.0574,1.3421.0852.4782.0293.9686.0574,1.4579.0858.4626.0266.923.0535,1.3954.0794.4964.0272,1.0056.053,1.5126.0791.4872.025.971.05,1.4685.0743.5145.0248,1.0432.0483,1.5689.072.5114.023,1.019.0466,1.5413.0686.5446.023,1.1049.0443,1.6616.0661.5181.02,1.0307.0411,1.5589.06.5781.021,1.1724.04,1.7628.06.5379.0178,1.07.0365,1.6177.0533.6055.0184,1.2291.035,1.8471.0521.548.0152,1.0882.031,1.6459.0451.6554.0164,1.3306.03,2,.0453.548.0123,1.0873.0253,1.6448.0364.695.0137,1.411.0249,2.1205.0369.5561.0093,1.1021.02,1.6674.0281.7352.0108,1.493.0186,2.2436.0273.5636.0067,1.1161.0146,1.6889.02.8758.0084,1.7768.0136,2.6738.0193.466.0029.9191.0075,1.3912.01q2.0763.01,4.2271.01t4.2277-.01c.411-.002.8052-.006,1.2118-.0085.9646-.006,1.93-.0116,2.87-.0206.4894-.0048.96-.0116,1.4428-.017.8318-.01,1.6677-.0184,2.48-.03.54-.0077,1.0614-.0181,1.5926-.0269.7327-.0123,1.471-.0237,2.1875-.038.553-.0109,1.0876-.024,1.6311-.036.6727-.0149,1.351-.0292,2.0095-.0457.5391-.0134,1.0605-.0288,1.59-.0434.6448-.0178,1.2941-.0352,1.9249-.0543.5162-.0158,1.0162-.0333,1.5232-.05.6172-.0205,1.2383-.0406,1.8421-.0625.5031-.0182.9911-.0381,1.4849-.0573.5893-.023,1.1814-.0455,1.7578-.07.4782-.02.9425-.0417,1.4118-.0629.5692-.0256,1.1406-.0509,1.6967-.0778.4651-.0226.9177-.0463,1.3742-.07.5343-.0273,1.07-.0545,1.5926-.0831.4581-.025.9043-.0513,1.3532-.0771.5028-.029,1.0064-.0578,1.4978-.0879.433-.0266.8557-.0541,1.28-.0814.4925-.0317.9844-.0634,1.4651-.096.4076-.0278.8058-.0563,1.2051-.0847.4693-.0336.9378-.067,1.3956-.1015.3973-.03.7857-.06,1.1747-.0908.442-.0346.8823-.07,1.3133-.1049.3811-.0314.7547-.0634,1.1275-.0953.421-.0362.84-.0726,1.25-.1095.3641-.0328.721-.0661,1.0767-.0993.4-.0376.7969-.0751,1.1867-.1132.3457-.034.6853-.0682,1.0229-.1025.3809-.0386.7586-.0776,1.1295-.1171.3354-.0356.6657-.0715.993-.1076q.524-.0577,1.0346-.1161.4943-.0565.9749-.1139.4888-.0583.9643-.1169.47-.0583.9283-.1169.4625-.0591.9121-.1191c.2983-.04.5935-.0794.8839-.1193.2871-.04.5695-.0794.8488-.1192.2874-.041.572-.082.8513-.1232.267-.0394.5285-.0791.7879-.1187.274-.0418.546-.0838.8117-.1258.2472-.039.4886-.078.7288-.1173.2662-.0435.5307-.087.7888-.1306.22-.0373.4353-.0746.65-.112.2614-.0457.5212-.091.7737-.1366.197-.0356.3881-.0712.58-.1067.2536-.0471.5064-.0943.7508-.1414.1775-.0341.3493-.0684.522-.1025.2455-.0486.49-.0972.726-.1457.1537-.0314.3016-.0629.4512-.0944.2416-.0509.4824-.1016.7137-.1522.13-.0285.2539-.0565.3806-.0848.24-.0537.4777-.1071.7062-.16.1038-.0242.2023-.0479.3036-.072.2386-.0566.4754-.1131.7015-.169.08-.02.1557-.0394.2341-.0591.2394-.06.4754-.12.7009-.18.048-.0125.0929-.025.1406-.0377.2461-.0655.4874-.1306.7171-.1948l.0095-.0027c.2294-.0643.4556-.1284.6691-.1912,4.3608-1.2853,5.4325-2.2692,5.4325-2.2692V247.2727h-6.1261l-.0028-.0245c-.0926-.8869-.2031-1.8145-.3242-2.7624-.0184-.1444-.0352-.2847-.0544-.43q-.1879-1.4276-.4258-2.9375c-.0206-.1306-.0419-.2611-.0631-.3924-.5318-3.3052-1.2564-6.8709-2.2422-10.5955l-.0223-.0844a97.13,97.13,0,0,0-3.9339-11.7763l-.0033-.0084c-8.8175-25.2182-24.755-44.698-44.1624-53.3528-3.1275-3.1372-4.8616-4.908-4.8616-4.908s1.7341-1.7709,4.8616-4.908C202.0474,146.437,217.9849,126.9566,226.8025,101.7376Z" class="fill"/>
  </g>
</svg>
