<svg xmlns="http://www.w3.org/2000/svg" viewBox="0 0 320 320">
  <title>keyboard</title>
  <g id="kbd">
    <path d="M97.0226,190.6167v-18.215a.82.82,0,0,1,.848-.7893h1.0008v-.9537h25.7143v.9537h.5428a.82.82,0,0,1,.848.7893v18.215a.82.82,0,0,1-.848.7893H97.8706A.82.82,0,0,1,97.0226,190.6167ZM136.69,156.498v-18.215a.82.82,0,0,0-.848-.7894h-27.257a.82.82,0,0,0-.848.7894v18.215a.82.82,0,0,0,.848.7893h27.257A.82.82,0,0,0,136.69,156.498Zm4.0375-33.5537h27.257a.82.82,0,0,0,.848-.7894V103.939a.82.82,0,0,0-.848-.7894h-27.257a.82.82,0,0,0-.848.7894v18.2158A.82.82,0,0,0,140.7279,122.9443Zm0,68.4617h27.257a.82.82,0,0,0,.848-.7893v-18.215a.82.82,0,0,0-.848-.7893h-.5422v-.9537H141.7283v.9537h-1a.82.82,0,0,0-.848.7893v18.215A.82.82,0,0,0,140.7279,191.406Zm38.82-34.9079v-18.215a.82.82,0,0,0-.848-.7894h-27.257a.82.82,0,0,0-.848.7894v18.215a.82.82,0,0,0,.848.7893H178.7A.82.82,0,0,0,179.5479,156.498ZM97.8706,122.9443h27.2578a.82.82,0,0,0,.848-.7894V103.939a.82.82,0,0,0-.848-.7894H97.8706a.82.82,0,0,0-.848.7894v18.2158A.82.82,0,0,0,97.8706,122.9443ZM226.4428,191.406H253.7a.82.82,0,0,0,.848-.7893v-18.215a.82.82,0,0,0-.848-.7893h-.5426v-.9537H227.4428v.9537h-1a.82.82,0,0,0-.848.7893v18.215A.82.82,0,0,0,226.4428,191.406Zm0-68.4617H253.7a.82.82,0,0,0,.848-.7894V103.939a.82.82,0,0,0-.848-.7894h-27.257a.82.82,0,0,0-.848.7894v18.2158A.82.82,0,0,0,226.4428,122.9443Zm-4.0376,33.5537v-18.215a.82.82,0,0,0-.848-.7894H194.2993a.82.82,0,0,0-.848.7894v18.215a.82.82,0,0,0,.848.7893h27.2578A.82.82,0,0,0,222.4052,156.498Zm42.8565,0v-18.215a.82.82,0,0,0-.848-.7894h-27.257a.82.82,0,0,0-.848.7894v18.215a.82.82,0,0,0,.848.7893h27.257A.82.82,0,0,0,265.2617,156.498Zm-171.4287,0v-18.215a.82.82,0,0,0-.848-.7894H65.7279a.82.82,0,0,0-.848.7894v18.215a.82.82,0,0,0,.848.7893H92.985A.82.82,0,0,0,93.833,156.498Zm89.7523-33.5537h27.257a.82.82,0,0,0,.848-.7894V103.939a.82.82,0,0,0-.848-.7894h-27.257a.82.82,0,0,0-.848.7894v18.2158A.82.82,0,0,0,183.5854,122.9443Zm0,68.4617h27.257a.82.82,0,0,0,.848-.7893v-18.215a.82.82,0,0,0-.848-.7893H210.3v-.9537H184.5857v.9537h-1a.82.82,0,0,0-.848.7893v18.215A.82.82,0,0,0,183.5854,191.406Zm21.557,14.2431H202.8v-2.2562H117.0857v2.2562h-2.8a.82.82,0,0,0-.848.7894v18.2157a.82.82,0,0,0,.848.7894h90.857a.82.82,0,0,0,.848-.7894V206.4385A.82.82,0,0,0,205.1424,205.649Zm58.4569,0H262.8v-2.2562H228.5142v2.2562h-1.257a.82.82,0,0,0-.848.7894v18.2157a.82.82,0,0,0,.848.7894h36.3422a.82.82,0,0,0,.848-.7894V206.4385A.82.82,0,0,0,263.5993,205.649Zm32.9578-34.0366h-.543v-.9537H270.3v.9537h-1.0006a.82.82,0,0,0-.848.7893v18.215a.82.82,0,0,0,.848.7893h27.2578a.82.82,0,0,0,.848-.7893v-18.215A.82.82,0,0,0,296.5571,171.6125Zm.8143,34.0366h-.2857v-2.2562H279.9429v2.2562H279.2a.82.82,0,0,0-.848.7894v18.2157a.82.82,0,0,0,.848.7894h18.1715a.82.82,0,0,0,.848-.7894V206.4385A.82.82,0,0,0,297.3714,205.649ZM55.0141,122.9443h27.257a.82.82,0,0,0,.848-.7894V103.939a.82.82,0,0,0-.848-.7894H55.0141a.82.82,0,0,0-.848.7894v18.2158A.82.82,0,0,0,55.0141,122.9443Zm242.3573,34.343a.82.82,0,0,0,.848-.7893v-18.215a.82.82,0,0,0-.848-.7894H279.2a.82.82,0,0,0-.848.7894v18.215a.82.82,0,0,0,.848.7893Zm-.8143-54.1376H269.2993a.82.82,0,0,0-.848.7894v18.2158a.82.82,0,0,0,.848.7894h27.2578a.82.82,0,0,0,.848-.7894V103.939A.82.82,0,0,0,296.5571,103.15ZM22.0563,122.9443H40.2278a.82.82,0,0,0,.848-.7894V103.939a.82.82,0,0,0-.848-.7894H22.0563a.82.82,0,0,0-.848.7894v18.2158A.82.82,0,0,0,22.0563,122.9443ZM92.985,205.649h-.5422v-2.2562H66.7283v2.2562h-1a.82.82,0,0,0-.848.7894v18.2157a.82.82,0,0,0,.848.7894H92.985a.82.82,0,0,0,.848-.7894V206.4385A.82.82,0,0,0,92.985,205.649ZM22.8706,157.2873H50.1284a.82.82,0,0,0,.848-.7893v-18.215a.82.82,0,0,0-.848-.7894H22.8706a.82.82,0,0,0-.848.7894v18.215A.82.82,0,0,0,22.8706,157.2873ZM50.1284,205.649h-.5428v-2.2562H23.8714v2.2562H22.8706a.82.82,0,0,0-.848.7894v18.2157a.82.82,0,0,0,.848.7894H50.1284a.82.82,0,0,0,.848-.7894V206.4385A.82.82,0,0,0,50.1284,205.649ZM22.8,170.6588v.9537h-.7436a.82.82,0,0,0-.848.7893v18.215a.82.82,0,0,0,.848.7893H40.2278a.82.82,0,0,0,.848-.7893v-18.215a.82.82,0,0,0-.848-.7893h-.2852v-.9537Zm33.2144,0v.9537h-1a.82.82,0,0,0-.848.7893v18.215a.82.82,0,0,0,.848.7893h27.257a.82.82,0,0,0,.848-.7893v-18.215a.82.82,0,0,0-.848-.7893h-.5426v-.9537ZM310,91.7862H10V240H310Z" class="outline"/>
  </g>
</svg>
