<svg xmlns="http://www.w3.org/2000/svg" viewBox="0 0 320 320"><defs><style>.a{fill:none;stroke:#1a1a1a;stroke-miterlimit:2;stroke-width:3.873px;}</style></defs><title>keyboard-outline</title><path  d="M310,240H10V90H310ZM42.1429,101.5385H20.7143v23.0769H42.1429Zm42.8571,0H52.8571v23.0769H85Zm85.7143,0H138.5714v23.0769h32.1429Zm-42.8571,0H95.7143v23.0769h32.1429Zm85.7143,0H181.4286v23.0769h32.1429Zm42.8571,0H224.2857v23.0769h32.1429Zm42.8571,0H267.1429v23.0769h32.1429Zm-21.4286,57.6923h21.4286V136.1538H277.8571Zm-42.8571,0h32.1429V136.1538H235Zm-85.7143,0h32.1429V136.1538H149.2857Zm42.8571,0h32.1429V136.1538H192.1429Zm-85.7143,0h32.1429V136.1538H106.4286Zm-42.8571,0H95.7143V136.1538H63.5714Zm-42.8571,0H52.8571V136.1538H20.7143Zm257.1429,69.2308h21.4286V205.3846H277.8571Zm-53.5714,0h42.8571V205.3846H224.2857Zm-117.8571,0H213.5714V205.3846H106.4286Zm-42.8571,0H95.7143V205.3846H63.5714Zm-42.8571,0H52.8571V205.3846H20.7143Zm21.4286-57.6923H20.7143v23.0769H42.1429Zm42.8571,0H52.8571v23.0769H85Zm85.7143,0H138.5714v23.0769h32.1429Zm-42.8571,0H95.7143v23.0769h32.1429Zm85.7143,0H181.4286v23.0769h32.1429Zm42.8571,0H224.2857v23.0769h32.1429Zm42.8571,0H267.1429v23.0769h32.1429Z"/></svg>