<svg xmlns="http://www.w3.org/2000/svg" viewBox="0 0 320 320"><defs><style>.a{fill:#1a1a1a;}.b{fill:none;stroke:#1a1a1a;stroke-miterlimit:2;stroke-width:3.6451px;}</style></defs><title>keyboard-filled</title><rect class="a" x="101.4186" y="107.1695" width="29.2907" height="21.0292"/><rect class="a" x="111.1822" y="138.7134" width="29.2905" height="21.0292"/><rect class="a" x="72.1276" y="138.7134" width="29.2909" height="21.0292"/><rect class="a" x="62.3642" y="107.1695" width="29.2907" height="21.0292"/><rect class="a" x="33.0735" y="107.1695" width="19.5271" height="21.0292"/><rect class="a" x="33.0735" y="138.7134" width="29.2907" height="21.0292"/><rect class="a" x="140.4727" y="107.1695" width="29.2909" height="21.0292"/><rect class="a" x="140.4727" y="170.2574" width="29.2909" height="21.0292"/><rect class="a" x="218.5814" y="107.1695" width="29.2909" height="21.0292"/><rect class="a" x="228.3451" y="138.7134" width="29.2907" height="21.0292"/><rect class="a" x="218.5814" y="170.2574" width="29.2909" height="21.0292"/><rect class="a" x="150.2364" y="138.7134" width="29.2909" height="21.0292"/><rect class="a" x="179.5273" y="107.1695" width="29.2905" height="21.0292"/><rect class="a" x="189.2907" y="138.7134" width="29.2907" height="21.0292"/><rect class="a" x="257.6358" y="170.2574" width="29.2907" height="21.0292"/><rect class="a" x="267.3995" y="201.8011" width="19.5271" height="21.0292"/><rect class="a" x="267.3995" y="138.7134" width="19.5271" height="21.0292"/><rect class="a" x="33.0735" y="170.2574" width="19.5271" height="21.0292"/><rect class="a" x="257.6358" y="107.1695" width="29.2907" height="21.0292"/><rect class="a" x="218.5814" y="201.8011" width="39.0544" height="21.0292"/><rect class="a" x="62.3642" y="170.2574" width="29.2907" height="21.0292"/><rect class="a" x="72.1276" y="201.8011" width="29.2909" height="21.0292"/><rect class="a" x="33.0735" y="201.8011" width="29.2907" height="21.0292"/><rect class="a" x="111.1822" y="201.8011" width="97.6356" height="21.0292"/><rect class="a" x="101.4186" y="170.2574" width="29.2907" height="21.0292"/><rect class="a" x="179.5273" y="170.2574" width="29.2905" height="21.0292"/><path class="a" d="M302.0158,242.4578H17.9842a3.8565,3.8565,0,0,1-3.7871-3.9219V91.4641a3.8565,3.8565,0,0,1,3.7871-3.9219H302.0158a3.8565,3.8565,0,0,1,3.7871,3.9219V238.5359A3.8565,3.8565,0,0,1,302.0158,242.4578ZM21.7713,234.6139H298.2287V95.3861H21.7713Z"/><rect class="a" x="228.3451" y="138.7134" width="29.2907" height="21.0292"/><rect class="a" x="218.5814" y="170.2574" width="29.2909" height="21.0292"/><rect class="a" x="218.5814" y="107.1695" width="29.2909" height="21.0292"/><rect class="a" x="189.2907" y="138.7134" width="29.2907" height="21.0292"/><rect class="a" x="179.5273" y="107.1695" width="29.2905" height="21.0292"/><rect class="a" x="150.2364" y="138.7134" width="29.2909" height="21.0292"/><rect class="a" x="140.4727" y="170.2574" width="29.2909" height="21.0292"/><rect class="a" x="140.4727" y="107.1695" width="29.2909" height="21.0292"/><rect class="a" x="111.1822" y="138.7134" width="29.2905" height="21.0292"/><rect class="a" x="101.4186" y="107.1695" width="29.2907" height="21.0292"/><rect class="a" x="62.3642" y="107.1695" width="29.2907" height="21.0292"/><rect class="a" x="72.1276" y="138.7134" width="29.2909" height="21.0292"/><rect class="a" x="33.0735" y="107.1695" width="19.5271" height="21.0292"/><rect class="a" x="33.0735" y="138.7134" width="29.2907" height="21.0292"/><rect class="a" x="33.0735" y="170.2574" width="19.5271" height="21.0292"/><rect class="a" x="33.0735" y="201.8011" width="29.2907" height="21.0292"/><rect class="a" x="62.3642" y="170.2574" width="29.2907" height="21.0292"/><rect class="a" x="72.1276" y="201.8011" width="29.2909" height="21.0292"/><rect class="a" x="101.4186" y="170.2574" width="29.2907" height="21.0292"/><rect class="a" x="111.1822" y="201.8011" width="97.6356" height="21.0292"/><rect class="a" x="179.5273" y="170.2574" width="29.2905" height="21.0292"/><rect class="a" x="218.5814" y="201.8011" width="39.0544" height="21.0292"/><rect class="a" x="267.3995" y="201.8011" width="19.5271" height="21.0292"/><rect class="a" x="257.6358" y="170.2574" width="29.2907" height="21.0292"/><rect class="a" x="267.3995" y="138.7134" width="19.5271" height="21.0292"/><rect class="a" x="257.6358" y="107.1695" width="29.2907" height="21.0292"/><rect class="a" x="140.4727" y="170.2574" width="29.2909" height="21.0292"/><rect class="a" x="111.1822" y="138.7134" width="29.2905" height="21.0292"/><rect class="a" x="62.3642" y="107.1695" width="29.2907" height="21.0292"/><rect class="a" x="72.1276" y="138.7134" width="29.2909" height="21.0292"/><rect class="a" x="33.0735" y="107.1695" width="19.5271" height="21.0292"/><rect class="a" x="140.4727" y="107.1695" width="29.2909" height="21.0292"/><rect class="a" x="218.5814" y="107.1695" width="29.2909" height="21.0292"/><rect class="a" x="218.5814" y="170.2574" width="29.2909" height="21.0292"/><rect class="a" x="228.3451" y="138.7134" width="29.2907" height="21.0292"/><rect class="a" x="189.2907" y="138.7134" width="29.2907" height="21.0292"/><rect class="a" x="150.2364" y="138.7134" width="29.2909" height="21.0292"/><rect class="a" x="179.5273" y="107.1695" width="29.2905" height="21.0292"/><rect class="a" x="101.4186" y="107.1695" width="29.2907" height="21.0292"/><rect class="a" x="267.3995" y="201.8011" width="19.5271" height="21.0292"/><rect class="a" x="218.5814" y="201.8011" width="39.0544" height="21.0292"/><rect class="a" x="257.6358" y="170.2574" width="29.2907" height="21.0292"/><rect class="a" x="257.6358" y="107.1695" width="29.2907" height="21.0292"/><rect class="a" x="267.3995" y="138.7134" width="19.5271" height="21.0292"/><rect class="a" x="179.5273" y="170.2574" width="29.2905" height="21.0292"/><rect class="a" x="33.0735" y="201.8011" width="29.2907" height="21.0292"/><rect class="a" x="111.1822" y="201.8011" width="97.6356" height="21.0292"/><rect class="a" x="33.0735" y="170.2574" width="19.5271" height="21.0292"/><rect class="a" x="62.3642" y="170.2574" width="29.2907" height="21.0292"/><rect class="a" x="33.0735" y="138.7134" width="29.2907" height="21.0292"/><rect class="a" x="101.4186" y="170.2574" width="29.2907" height="21.0292"/><rect class="a" x="72.1276" y="201.8011" width="29.2909" height="21.0292"/><rect class="b" x="101.4186" y="107.1695" width="29.2907" height="21.0292"/><rect class="b" x="111.1822" y="138.7134" width="29.2905" height="21.0292"/><rect class="b" x="72.1276" y="138.7134" width="29.2909" height="21.0292"/><rect class="b" x="62.3642" y="107.1695" width="29.2907" height="21.0292"/><rect class="b" x="33.0735" y="107.1695" width="19.5271" height="21.0292"/><rect class="b" x="33.0735" y="138.7134" width="29.2907" height="21.0292"/><rect class="b" x="140.4727" y="107.1695" width="29.2909" height="21.0292"/><rect class="b" x="140.4727" y="170.2574" width="29.2909" height="21.0292"/><rect class="b" x="218.5814" y="107.1695" width="29.2909" height="21.0292"/><rect class="b" x="228.3451" y="138.7134" width="29.2907" height="21.0292"/><rect class="b" x="218.5814" y="170.2574" width="29.2909" height="21.0292"/><rect class="b" x="150.2364" y="138.7134" width="29.2909" height="21.0292"/><rect class="b" x="179.5273" y="107.1695" width="29.2905" height="21.0292"/><rect class="b" x="189.2907" y="138.7134" width="29.2907" height="21.0292"/><rect class="b" x="257.6358" y="170.2574" width="29.2907" height="21.0292"/><rect class="b" x="267.3995" y="201.8011" width="19.5271" height="21.0292"/><rect class="b" x="267.3995" y="138.7134" width="19.5271" height="21.0292"/><rect class="b" x="33.0735" y="170.2574" width="19.5271" height="21.0292"/><rect class="b" x="257.6358" y="107.1695" width="29.2907" height="21.0292"/><rect class="b" x="218.5814" y="201.8011" width="39.0544" height="21.0292"/><rect class="b" x="62.3642" y="170.2574" width="29.2907" height="21.0292"/><rect class="b" x="72.1276" y="201.8011" width="29.2909" height="21.0292"/><rect class="b" x="33.0735" y="201.8011" width="29.2907" height="21.0292"/><rect class="b" x="111.1822" y="201.8011" width="97.6356" height="21.0292"/><rect class="b" x="101.4186" y="170.2574" width="29.2907" height="21.0292"/><rect class="b" x="179.5273" y="170.2574" width="29.2905" height="21.0292"/><path class="b" d="M302.0158,242.4578H17.9842a3.8565,3.8565,0,0,1-3.7871-3.9219V91.4641a3.8565,3.8565,0,0,1,3.7871-3.9219H302.0158a3.8565,3.8565,0,0,1,3.7871,3.9219V238.5359A3.8565,3.8565,0,0,1,302.0158,242.4578ZM21.7713,234.6139H298.2287V95.3861H21.7713Z"/><rect class="b" x="228.3451" y="138.7134" width="29.2907" height="21.0292"/><rect class="b" x="218.5814" y="170.2574" width="29.2909" height="21.0292"/><rect class="b" x="218.5814" y="107.1695" width="29.2909" height="21.0292"/><rect class="b" x="189.2907" y="138.7134" width="29.2907" height="21.0292"/><rect class="b" x="179.5273" y="107.1695" width="29.2905" height="21.0292"/><rect class="b" x="150.2364" y="138.7134" width="29.2909" height="21.0292"/><rect class="b" x="140.4727" y="170.2574" width="29.2909" height="21.0292"/><rect class="b" x="140.4727" y="107.1695" width="29.2909" height="21.0292"/><rect class="b" x="111.1822" y="138.7134" width="29.2905" height="21.0292"/><rect class="b" x="101.4186" y="107.1695" width="29.2907" height="21.0292"/><rect class="b" x="62.3642" y="107.1695" width="29.2907" height="21.0292"/><rect class="b" x="72.1276" y="138.7134" width="29.2909" height="21.0292"/><rect class="b" x="33.0735" y="107.1695" width="19.5271" height="21.0292"/><rect class="b" x="33.0735" y="138.7134" width="29.2907" height="21.0292"/><rect class="b" x="33.0735" y="170.2574" width="19.5271" height="21.0292"/><rect class="b" x="33.0735" y="201.8011" width="29.2907" height="21.0292"/><rect class="b" x="62.3642" y="170.2574" width="29.2907" height="21.0292"/><rect class="b" x="72.1276" y="201.8011" width="29.2909" height="21.0292"/><rect class="b" x="101.4186" y="170.2574" width="29.2907" height="21.0292"/><rect class="b" x="111.1822" y="201.8011" width="97.6356" height="21.0292"/><rect class="b" x="179.5273" y="170.2574" width="29.2905" height="21.0292"/><rect class="b" x="218.5814" y="201.8011" width="39.0544" height="21.0292"/><rect class="b" x="267.3995" y="201.8011" width="19.5271" height="21.0292"/><rect class="b" x="257.6358" y="170.2574" width="29.2907" height="21.0292"/><rect class="b" x="267.3995" y="138.7134" width="19.5271" height="21.0292"/><rect class="b" x="257.6358" y="107.1695" width="29.2907" height="21.0292"/><rect class="b" x="140.4727" y="170.2574" width="29.2909" height="21.0292"/><rect class="b" x="111.1822" y="138.7134" width="29.2905" height="21.0292"/><rect class="b" x="62.3642" y="107.1695" width="29.2907" height="21.0292"/><rect class="b" x="72.1276" y="138.7134" width="29.2909" height="21.0292"/><rect class="b" x="33.0735" y="107.1695" width="19.5271" height="21.0292"/><rect class="b" x="140.4727" y="107.1695" width="29.2909" height="21.0292"/><rect class="b" x="218.5814" y="107.1695" width="29.2909" height="21.0292"/><rect class="b" x="218.5814" y="170.2574" width="29.2909" height="21.0292"/><rect class="b" x="228.3451" y="138.7134" width="29.2907" height="21.0292"/><rect class="b" x="189.2907" y="138.7134" width="29.2907" height="21.0292"/><rect class="b" x="150.2364" y="138.7134" width="29.2909" height="21.0292"/><rect class="b" x="179.5273" y="107.1695" width="29.2905" height="21.0292"/><rect class="b" x="101.4186" y="107.1695" width="29.2907" height="21.0292"/><rect class="b" x="267.3995" y="201.8011" width="19.5271" height="21.0292"/><rect class="b" x="218.5814" y="201.8011" width="39.0544" height="21.0292"/><rect class="b" x="257.6358" y="170.2574" width="29.2907" height="21.0292"/><rect class="b" x="257.6358" y="107.1695" width="29.2907" height="21.0292"/><rect class="b" x="267.3995" y="138.7134" width="19.5271" height="21.0292"/><rect class="b" x="179.5273" y="170.2574" width="29.2905" height="21.0292"/><rect class="b" x="33.0735" y="201.8011" width="29.2907" height="21.0292"/><rect class="b" x="111.1822" y="201.8011" width="97.6356" height="21.0292"/><rect class="b" x="33.0735" y="170.2574" width="19.5271" height="21.0292"/><rect class="b" x="62.3642" y="170.2574" width="29.2907" height="21.0292"/><rect class="b" x="33.0735" y="138.7134" width="29.2907" height="21.0292"/><rect class="b" x="101.4186" y="170.2574" width="29.2907" height="21.0292"/><rect class="b" x="72.1276" y="201.8011" width="29.2909" height="21.0292"/></svg>