<svg xmlns="http://www.w3.org/2000/svg" viewBox="0 0 320 320">
  <title>landscape-outline</title>
  <g id="Layer_15" data-name="Layer 15">
    <path d="M83.2182,152.2766,117.531,100l36.9905,52.6294c-.4083,3.0031-2.3491,9.1388-11.2273,12.8125-12.0833,5-25.677-20.4166-25.677-20.4166s-4.1536-6.6667-14.7266-7.5C95.5345,136.9455,87.4584,146.4392,83.2182,152.2766Z" class="outline"/>
    <path d="M233.1641,158.81c14.7414-4.8453,28.6671-13.4068,32.9733-16.1752L227.5,100l-32.1982,47.3721C197.7356,149.3741,216.5953,164.2554,233.1641,158.81Z" class="outline"/>
    <path d="M266.1373,142.6343c-4.3061,2.7684-18.2319,11.33-32.9733,16.1752-16.5687,5.4459-35.4285-9.4354-37.8623-11.4374l-23.5554,28.0216-17.2248-22.7643c-.4083,3.0031-2.3491,9.1388-11.2273,12.8125-12.0833,5-25.677-20.4166-25.677-20.4166s-4.1536-6.6666-14.7266-7.5c-7.3561-.58-15.4322,8.9139-19.6723,14.7513l-2.8057,4.1278L10,260H300V180Z" class="fill"/>
  </g>
</svg>
