<svg xmlns="http://www.w3.org/2000/svg" viewBox="0 0 320 320"><defs><style>.a{fill:#1a1a1a;}.b{fill:none;stroke:#1a1a1a;stroke-miterlimit:2;stroke-width:4px;}</style></defs><title>leaves-filled</title><path class="a" d="M50,197.3937s39.177,10.4528,75.1367,5.3492a78.3073,78.3073,0,0,0,35.6818-14.9456,73.8657,73.8657,0,0,0,9.1145,36.7491C187.2929,255.6786,219.3511,280,219.3511,280s10.299-25.9085,2.3481-54.8569-43.1157-71.9883-43.1157-71.9883l-.085.05c-1.975-.0543-56.86-1.4578-84.8733,9.4814C65.0966,173.8271,50,197.3937,50,197.3937Z"/><path class="a" d="M206.0006,40s-23.8552,18.9251-36.63,44.1944a64.8245,64.8245,0,0,0-6.5429,30.3841A60.4259,60.4259,0,0,0,135.98,100.54c-27.0174-5.8548-56.324,1.158-56.324,1.158s11.5137,20.3744,33.0046,30.95,63.7918,11.6754,63.7918,11.6754l.0064-.08c.9093-1.208,26.1121-34.8364,31.7418-58.2635C213.9339,62.1213,206.0006,40,206.0006,40Z"/><path class="a" d="M252.2416,209.2159s-2.7427-23.3246-14.4487-42.1962A52.5761,52.5761,0,0,0,220,150a47.28,47.28,0,0,0,20.8155-11.3514c15.3515-14.9108,22.9646-36.72,22.9646-36.72s-18.5522-1.2933-34.7666,8.0721-34.71,36.0032-34.71,36.0032l.0519.0377c.8165.5932,12.47,31.5945,25.9422,45.0934C234.0175,204.8828,252.2416,209.2159,252.2416,209.2159Z"/><path class="b" d="M50,197.3937s39.177,10.4528,75.1367,5.3492a78.3073,78.3073,0,0,0,35.6818-14.9456,73.8657,73.8657,0,0,0,9.1145,36.7491C187.2929,255.6786,219.3511,280,219.3511,280s10.299-25.9085,2.3481-54.8569-43.1157-71.9883-43.1157-71.9883l-.085.05c-1.975-.0543-56.86-1.4578-84.8733,9.4814C65.0966,173.8271,50,197.3937,50,197.3937Z"/><path class="b" d="M206.0006,40s-23.8552,18.9251-36.63,44.1944a64.8245,64.8245,0,0,0-6.5429,30.3841A60.4259,60.4259,0,0,0,135.98,100.54c-27.0174-5.8548-56.324,1.158-56.324,1.158s11.5137,20.3744,33.0046,30.95,63.7918,11.6754,63.7918,11.6754l.0064-.08c.9093-1.208,26.1121-34.8364,31.7418-58.2635C213.9339,62.1213,206.0006,40,206.0006,40Z"/><path class="b" d="M252.2416,209.2159s-2.7427-23.3246-14.4487-42.1962A52.5761,52.5761,0,0,0,220,150a47.28,47.28,0,0,0,20.8155-11.3514c15.3515-14.9108,22.9646-36.72,22.9646-36.72s-18.5522-1.2933-34.7666,8.0721-34.71,36.0032-34.71,36.0032l.0519.0377c.8165.5932,12.47,31.5945,25.9422,45.0934C234.0175,204.8828,252.2416,209.2159,252.2416,209.2159Z"/></svg>