<svg xmlns="http://www.w3.org/2000/svg" viewBox="0 0 320 320">
  <defs>
    <style>
      .cls-1 {
        fill: none;
        stroke: #1a1a1a;
        stroke-linejoin: round;
        stroke-width: 8px;
      }
    </style>
  </defs>
  <title>location</title>
  <g id="Layer_15" data-name="Layer 15">
    <path  d="M239.894,127.7484l.106.2635a136.1187,136.1187,0,0,1-1.249,18.775c-7.9529,57.1094-35.3619,90.6679-74.5965,131.5847l0,0A5.2113,5.2113,0,0,1,160,279.987h0a5.2113,5.2113,0,0,1-4.1544-1.6151l0,0C116.6108,237.4549,89.2018,203.8964,81.249,146.787A136.1187,136.1187,0,0,1,80,128.012l.1059-.263c-.07-1.4305.0037-8.6852.0037-8.6852C82.2874,75.0163,117.2217,40,160,40c44.1828,0,80,37.3529,80,83.43Q240,125.6029,239.894,127.7484ZM160,81.1338a43.75,43.75,0,1,0,43.75,43.75A43.75,43.75,0,0,0,160,81.1338Z"/>
  </g>
</svg>
