<svg xmlns="http://www.w3.org/2000/svg" viewBox="0 0 320 320">
  <defs>
    <style>
      .Graphic-Style-3 {
        fill: #1a1a1a;
        stroke: #1a1a1a;
        stroke-miterlimit: 2;
        stroke-width: 4px;
      }

      .cls-1 {
        fill: none;
      }
    </style>
  </defs>
  <title>lock-filled</title>
  <g id="Layer_8" data-name="Layer 8">
    <path class="Graphic-Style-3" d="M230.5488,134.4c0-51.2,0-102.4-71.062-102.4s-71.062,51.2-71.062,102.4H60V288H258.9736V134.4Zm-60.3953,76.8,8,50.1333H140.82l8-50.1333s-17.7581,0-17.7581-25.6S159.4868,160,159.4868,160s28.4248,0,28.4248,25.6S170.1536,211.2,170.1536,211.2ZM116.85,134.4c0-51.2,0-76.8,42.6372-76.8s42.6372,25.6,42.6372,76.8Z"/>
    <path class="cls-1" d="M159.4868,57.6C116.85,57.6,116.85,83.2,116.85,134.4H202.124C202.124,83.2,202.124,57.6,159.4868,57.6Z"/>
  </g>
</svg>
