<svg xmlns="http://www.w3.org/2000/svg" viewBox="0 0 320 320">
  <title>male</title>
  <g id="male">
    <path d="M197.8182,57.9287a37.8183,37.8183,0,1,0-37.8375,37.9046A37.8835,37.8835,0,0,0,197.8182,57.9287Z" class="outline"/>
    <path d="M191.5377,98.75H128.4623a29.1915,29.1915,0,0,0-25.5277,14.9277q-.1236.2218-.2465.4457a56.1117,56.1117,0,0,0-6.6881,27v53.2344a10.9218,10.9218,0,0,0,10.9076,10.936h4.758a10.9629,10.9629,0,0,0,10.941-10.5351l2.4843-61.6159h0V289.9016A10.115,10.115,0,0,0,135.1631,300h9.3278a10.0384,10.0384,0,0,0,10.0206-9.7105l2.479-73.0142a3.0356,3.0356,0,0,1,3.01-2.9578h0a3.0356,3.0356,0,0,1,3.01,2.9578l2.479,73.0142A10.0384,10.0384,0,0,0,175.5091,300h9.3721a10.041,10.041,0,0,0,10.0279-10.054V133.1431h0l2.486,61.6584a10.9186,10.9186,0,0,0,10.8969,10.4925h4.7561A10.9984,10.9984,0,0,0,224,194.3137v-53.19a56.1117,56.1117,0,0,0-6.6881-27q-.1229-.224-.2465-.4457A29.1915,29.1915,0,0,0,191.5377,98.75Z" class="outline"/>
  </g>
</svg>
