<svg xmlns="http://www.w3.org/2000/svg" viewBox="0 0 320 320">
  <title>misc.hummingbird</title>
  <g id="colibri">
    <path d="M77.9342,150.3426C58.9291,142.162,62.6721,123.5118,58.49,116.398c-1.9976-3.3992-10.6872-8.8095-18.6563-13.6325C30.0411,96.8323,20,91.6134,20,91.6134l1.1591-1.6177s10.4163,5.5723,20.9968,10.4561c6.8861,3.1794,13.844,6.0687,18.0426,6.94,9.2153,1.9125,21.5378-13.4864,37.8153-4.91,15,7.9066,19.847,21.663,11.5754,35.4783C99.4087,154.9621,87.45,154.4419,77.9342,150.3426Zm6.674,2.05c-1.2093-.3753-2.5522-.7213-4.0383-1.0384A27.5029,27.5029,0,0,0,84.6082,152.3925Zm210.8051-25.4891A34.4494,34.4494,0,0,0,300,117.84s-47.6589-5.8481-91.2106.3458a170.6684,170.6684,0,0,0-19.0794,3.8566c.7521-.8038,1.6591-1.8517,2.7327-3.2279,3.2524-4.1716,5.24-11.0164,5.24-11.0164l-1.8685-.856c2.0566-2.4678,3.3789-4.9716,5.1978-11.8713.7874-3.0023,1.7335-8.7186,1.7335-8.7186l-2.41-.3174c1.6856-3.251,2.3079-5.13,3.7106-14.92.74-5.1492-.56-7.5012-.56-7.5012l-2.2763.0537s1.5822-1.51.624-11.328c-.5949-6.03-4.3226-12.34-4.3226-12.34s-31.46,10.03-65.5818,51.0468a193.76,193.76,0,0,0-19.3123,27.2506c1.93,6.08,1.0434,12.8633-3.0273,19.6624-7.9136,13.2164-16.9009,15.8428-24.9809,14.4327,17.7426,5.5065,7.3535,17.3451,16.6187,37.6636,10.3189,22.6258,18.3555,30.3015,21.8233,34.7924,3.6764,4.7573.4206,7.99,4.4012,15.624l7.4255-3.4636c-8.6939,12.0325-1.8121,21.8348-1.8121,21.8348,2.3455.2974,5.5321-4.2422,5.5321-4.2422C131.1517,265.78,139.6935,280,139.6935,280c15.8672-3.611,22.8789-36.5416,24.61-57.7388,1.2776-15.5546,1.7671-20.7049.0483-26.7432,10.3508,2.3734,20.6005,4.1475,20.6005,4.1475l.471-2.95s5.2423,1.647,8.9632,1.093c3.1994-.4785,12.407-3.0161,12.407-3.0161l-.8292-2.2748s10.2308-.6793,13.4748-1.4277c2.7925-.642,10.1308-4.6339,10.1308-4.6339l-.5547-1.9711a22.9469,22.9469,0,0,0,9.8239-1.94c4.6415-2.1168,17.381-10.1458,17.381-10.1458l.04-3.3091a14.5557,14.5557,0,0,0,6.8689-1.9933c3.9568-2.486,14.5988-11.343,14.5988-11.343l-2.4609-2.625s2.8635-.9847,9.2-8.1987a70.1184,70.1184,0,0,0,6.1408-9.1265l-1.8353-1.4246S290.7838,133.3232,295.4133,126.9034ZM79.4847,151.1221c.38.0739.7232.1547,1.0852.232q-.4933-.166-.9792-.3478Z" class="outline"/>
  </g>
</svg>
