<svg xmlns="http://www.w3.org/2000/svg" viewBox="0 0 320 320">
  <title>mouse-buttons-filled</title>
  <g id="mouse">
    <path d="M275.8291,289.76c-1.1562-5.0244-5.5244-9.3408-12.9814-12.83a140.3318,140.3318,0,0,1-32.4648-20.9014q-.4321-.3853-.8545-.77a73.1684,73.1684,0,0,0,7.2939-2.0771c9.8584-3.3818,22.5586-10.2588,27.0752-23.8076,3.0039-9.0117.4463-18.0723-7.0146-24.8594-8.7129-7.9258-21.6094-10.4482-31.3594-6.1367C219.7256,200.9424,210,208.2959,210,228.7412c0,8.3252,4.6025,16.4941,11.3545,23.916-14.6406,1.9336-29.9336-.0391-38.2451-5.58-24.804-16.536-20.0222-41.72-18.1946-48.5023,9.0356-.8613,37.2429-6.2389,37.2429-39.8341V104.4861c0-40.0758-31.8765-43.2772-38.7153-43.5031v-.0305c-.7217-.009-1.2109.0042-1.4424.0127-.2314-.0085-.7207-.0217-1.4424-.0127v.0305c-6.8389.2258-38.7153,3.4272-38.7153,43.5031v54.2546c0,34.7485,30.1753,39.3088,38.1016,39.9077-1.176,4.2341-7.7449,32.6284,20.9468,51.7568,9.7559,6.5049,27.42,8.5859,43.9043,5.7979,10.9346,10.6094,25.7109,19.3672,36.3574,24.35,6.1689,2.8867,9.8926,6.3633,10.7676,10.0547a8.6321,8.6321,0,0,1-1.4746,6.875L273.5547,300A12.7407,12.7407,0,0,0,275.8291,289.76ZM198.1577,99.6172s-19.2607,6.7865-33.8179,7.924l-.377-42.4574C197.8848,65.0837,198.1577,99.6172,198.1577,99.6172Zm-72.3154,0s.2729-34.5334,34.1946-34.5334l-.3767,42.4574C145.103,106.4037,125.8423,99.6172,125.8423,99.6172ZM214,228.7412c0-13.4736,4.667-22.957,13.1416-26.7051a21.5766,21.5766,0,0,1,8.7324-1.7646,27.7042,27.7042,0,0,1,18.3174,7.2021c6.2363,5.6738,8.3916,13.1943,5.9111,20.6348-4,11.999-15.5732,18.2-24.5781,21.29a70.31,70.31,0,0,1-9.4775,2.499C218.1426,243.7881,214,235.8564,214,228.7412Z" class="fill"/>
  </g>
</svg>
