<svg xmlns="http://www.w3.org/2000/svg" viewBox="0 0 320 320"><defs><style>.a{fill:#1a1a1a;}</style></defs><title>mouse-outline</title><path  d="M271.3057,285.84c-2.0693-2.6791-5.38-5.2737-10.458-7.6514-10.4426-4.8829-22.8186-12.318-32.4648-20.9016-.2881-.2561-.5654-.5164-.8484-.7744a68.8066,68.8066,0,0,0,13.1624-4.4139,46.3349,46.3349,0,0,0,13.02-8.681,31.8005,31.8005,0,0,0,8.1809-12.785,23.1787,23.1787,0,0,0,1.2266-7.3508,21.987,21.987,0,0,0-2.6284-10.3732,28.4924,28.4924,0,0,0-11.2073-11.1719,31.8,31.8,0,0,0-15.5-4.1919,25.4975,25.4975,0,0,0-9.6,1.81,23.3679,23.3679,0,0,0-11.6062,10.3461C209.6855,214.7827,208,221.4866,208,230c.0024,5.49,1.97,10.849,5.1367,15.9156a57.5072,57.5072,0,0,0,6.1543,8.02,82.8187,82.8187,0,0,1-10.8655.7307,70.1591,70.1591,0,0,1-15.5974-1.6586,35.9915,35.9915,0,0,1-11.7187-4.6715c-8.7166-5.8165-13.8447-12.4067-16.8489-18.8049A41.57,41.57,0,0,1,160.4,211.84a43.7321,43.7321,0,0,1,.7642-8.1823c.1316-.6836.2612-1.2562.3755-1.7208a52.3,52.3,0,0,0,19.355-5.1479,37.1076,37.1076,0,0,0,14.52-12.5544C199.3987,178.2667,202.0056,170.3295,202,160V100c.0059-10.33-2.6011-18.2668-6.5857-24.2345a34.9448,34.9448,0,0,0-5.1387-6.0662,34.9252,34.9252,0,0,0-6.041-5.1135C178.658,60.8624,171.36,58.3433,162,58.0336V58h-4v.0336c-9.3608.31-16.6582,2.829-22.2346,6.5522a34.939,34.939,0,0,0-6.0662,5.1385,34.9264,34.9264,0,0,0-5.1134,6.0411c-3.9506,5.9166-6.5433,13.7725-6.5818,23.973-.0033.1526-.0039.2473-.004.2615v3.75Q118,115,118,160c-.0059,10.3293,2.6012,18.2667,6.5858,24.2344a36.0048,36.0048,0,0,0,10.6022,10.3287,48.2973,48.2973,0,0,0,16.7156,6.51,52.9608,52.9608,0,0,0,5.5476.7886A47.015,47.015,0,0,0,156.4,211.84a45.571,45.571,0,0,0,4.2388,19.3888c3.2959,7.0417,8.9678,14.2516,18.2517,20.4354a39.8706,39.8706,0,0,0,13.0374,5.2406,74.1063,74.1063,0,0,0,16.4978,1.7611,86.8674,86.8674,0,0,0,14.2913-1.1907,107.2815,107.2815,0,0,0,10.9622,9.2286,153.4012,153.4012,0,0,0,25.4731,15.1077c4.6772,2.1874,7.4307,4.4509,8.9863,6.4716a8.6074,8.6074,0,0,1,1.99,5.3646,8.76,8.76,0,0,1-.8713,3.7159,9.054,9.054,0,0,1-.5974,1.0718c-.0784.12-.1409.2076-.1794.26l-.0383.0513-.0039.0048.8772.6942,2.24,1.8129a11.5052,11.5052,0,0,0,1.3164-2.1819,12.2679,12.2679,0,0,0-1.5654-13.2366ZM127.0154,80.4481a35.0378,35.0378,0,0,1,5.6-7.9723,33.7859,33.7859,0,0,1,4.7358-3.6744,44.3455,44.3455,0,0,1,15.3206-5.9487A48.7775,48.7775,0,0,1,158,62.1057v45.8588a90.6082,90.6082,0,0,1-24.8677-4.8619c-3.6868-1.2289-6.7618-2.459-8.9071-3.3784-.9008-.386-1.6261-.7124-2.1757-.9657A48.3526,48.3526,0,0,1,127.0154,80.4481ZM162,62.1052a48.2635,48.2635,0,0,1,17.552,4.91,35.0444,35.0444,0,0,1,7.9719,5.5992,33.7928,33.7928,0,0,1,3.6748,4.7363,44.3446,44.3446,0,0,1,5.9487,15.3206,48.8125,48.8125,0,0,1,.748,5.3409c.0227.2771.04.5229.0535.7468a111.7484,111.7484,0,0,1-11.78,4.5736A89.8353,89.8353,0,0,1,162,107.9421ZM140.448,192.9845A32.8908,32.8908,0,0,1,127.75,181.7666c-3.4247-5.2548-5.7444-12.2473-5.75-21.7666V103.1191c2.241.979,5.6635,2.3765,9.8676,3.7782A94.2526,94.2526,0,0,0,158,111.9668V112h4v-.0331a94.2544,94.2544,0,0,0,26.1326-5.0695c4.2041-1.4017,7.6267-2.7992,9.8677-3.7782,0,35.8311,0,17.9666,0,56.8809-.0059,9.67-2.3989,16.733-5.9143,22.0155a31.9978,31.9978,0,0,1-9.4368,9.183,44.3455,44.3455,0,0,1-15.3206,5.9487,48.8457,48.8457,0,0,1-5.3411.7482c-.6484.053-1.157.0792-1.4976.092-.17.0065-.2986.01-.3813.0111l-.09.0012L160,198h-.0132A47.93,47.93,0,0,1,140.448,192.9845Zm76.0806,50.8108C213.6311,239.1614,211.9973,234.51,212,230a42.9168,42.9168,0,0,1,1.9063-13.4185c1.81-5.476,4.7009-9.1685,8.1479-11.559a20.4162,20.4162,0,0,1,11.7346-3.478,28.1082,28.1082,0,0,1,17.4031,6.3251,22.9891,22.9891,0,0,1,5.7712,6.9154,17.9837,17.9837,0,0,1,2.1611,8.4966,19.1791,19.1791,0,0,1-1.0215,6.0861,27.7942,27.7942,0,0,1-7.1743,11.1816c-4.8972,4.7661-11.6128,8.3206-19.0767,10.6563a72.4088,72.4088,0,0,1-7.7939,1.9507A56.66,56.66,0,0,1,216.5286,243.7953Z"/></svg>