<svg xmlns="http://www.w3.org/2000/svg" viewBox="0 0 320 320"><defs><style>.a{fill:none;stroke:#1a1a1a;stroke-linejoin:round;stroke-width:8px;}</style></defs><title>mouse</title><path  d="M120.9211,100c0-40,40-40,40-40s40,0,40,40v60c0,40-40,40-40,40s-40,0-40-40Z"/><path  d="M120.9211,100s20,10,40,10V60C120.9211,60,120.9211,100,120.9211,100Z"/><path  d="M160.9211,60v50c20,0,40-10,40-10S200.9211,60,160.9211,60Z"/><path  d="M160.9211,200s-10,30,20,50c18.6052,12.4035,70.5132,8.46,80-20,10-30-50-50-50,0,0,20,28.81,40.0844,50,50,18.9956,8.8889,10,20,10,20"/></svg>