<svg xmlns="http://www.w3.org/2000/svg" viewBox="0 0 320 320">
  <title>paper-pile</title>
  <g id="undo">
    <path d="M291.3552,125.7388a2.0749,2.0749,0,0,0-2.5894.4749l-.3379.3986V78.225l2.4133-2.4866a2.077,2.077,0,0,0,.4375-2.22l-3-7.4849a2.0775,2.0775,0,0,0-3.4565-.6345L283.4214,66.92a2.0541,2.0541,0,0,0-.0273-.4871l-1.7012-9.3066a5.1854,5.1854,0,0,1-.1462-.4729c-.0056-.0125-.0159-.0215-.0217-.0339a2.058,2.058,0,0,0-.2175-.3423c-.0364-.0493-.0627-.1062-.103-.1518a2.0694,2.0694,0,0,0-.345-.2977c-.0347-.0251-.062-.06-.0981-.0826a2.0842,2.0842,0,0,0-.5312-.24l-.0027,0c-.0415-.012-.0872-.01-.13-.0189a2.0884,2.0884,0,0,0-.4636-.061c-.0061,0-.0117-.0024-.0178-.0023L144.4395,57.58a2.0588,2.0588,0,0,0-1.0217.2875L32.7089,123.1125a2.05,2.05,0,0,0-.7345,2.8331l-3.9753,8.4263a2.0774,2.0774,0,0,0,1.9116,2.9636l3.0085-.0474-4.7712,7.1754a2.06,2.06,0,0,0,1.5608,3.2041l.0918,8.3251a2.0737,2.0737,0,0,0,2.0765,2.0546l2.3964.001L32.834,165.953a2.07,2.07,0,0,0,.4446,1.6981c.041.05.0918.0873.1367.1324l-5.3031,8.554a2.057,2.057,0,0,0,1.5177,3.1389l-1.61,7.7908a2.06,2.06,0,0,0-.4471,1.313l.2285,11.5728A2.0771,2.0771,0,0,0,29.06,202.02a2.0626,2.0626,0,0,0-.479,1.137l-.7227,7.808a2.0736,2.0736,0,0,0-.1334.76l.2109,10.64a2.07,2.07,0,0,0-.2109.9321l.2109,10.64a2.07,2.07,0,0,0-.2109.9326l.2109,10.6391a2.0657,2.0657,0,0,0-.2109.9332l.2295,11.5722a2.0773,2.0773,0,0,0,2.1017,2.0362l139.4989-1.6495,59.8818,6.1655a2.0734,2.0734,0,0,0,1.9041-.86L288.67,183.3447a2.07,2.07,0,0,0,.3862-1.2065V140.2a2.0464,2.0464,0,0,0-.2373-.9134l3.5127-11.1025A2.0752,2.0752,0,0,0,291.3552,125.7388Zm-258.93,60.7394,1.4353-6.9434,135.7607.8555h.0149l.1685-.0058,60-4.499a2.0761,2.0761,0,0,0,1.4109-.7068l53.0571-60.8866v4.1791l-55.6292,65.9818-59.0391,2.926Zm137.2109-17.2323.2207-.01,60-6.0239a2.0843,2.0843,0,0,0,1.3352-.6759l53.0806-58.8684v4.3L228.6433,171.806l-59.0652,4.429-135.9736-.8712,4.3037-6.9421Zm22.1218,28.7434-22.1311.5342L31.915,198.0414l-.1465-7.4109,137.8672.904.1165-.0025,60-2.9736a2.0715,2.0715,0,0,0,1.4854-.7358l53.0352-62.9047v4.0565L228.644,197.0989ZM32.1564,209.6075l.3905-4.2185L169.69,202.6782l.009,0,60-1.4482a2.0748,2.0748,0,0,0,.44-.0582,2.0346,2.0346,0,0,0,.1943-.069,2.06,2.06,0,0,0,.218-.0789,2.0166,2.0166,0,0,0,.1858-.1143,2.05,2.05,0,0,0,.1873-.118c.0535-.0416.0981-.0938.1477-.1407a2.0928,2.0928,0,0,0,.1616-.1542l54.0186-63.7138-.7678,2.427-55.8394,70.5339-58.9934-.0754Zm-.0886,11.5653-.1469-7.41,137.7275.0606,59.9983.0766a2.0657,2.0657,0,0,0,1.2488-.4221c.0142-.0106.031-.0172.0449-.0283a617.8643,617.8643,0,0,1,.3308-.3289l53.63-67.0009v3.8528l-56.2476,72.4144-58.9485-1.574-.061-.0007Zm252.8331-50.2-53.1287,72.4489-62.1121-.3215h-.0291L32.0674,244.3035l-.1467-7.4081,137.68-.7834,59.94,3.1238a2.0842,2.0842,0,0,0,1.7666-.8235l53.593-71.04Zm-56.1641,76.5883-.08.1083-1.5032-.1166Zm56.1638-87.0884L228.6553,235.029l-58.8979-3.07-.12-.0027-137.57.7815-.1471-7.4094,137.7034-.3616,59.97,1.6012a2.0822,2.0822,0,0,0,1.6963-.8023l53.6106-69.02Zm.7466-89.8364,1.2729,3.1758-1.7209,1.7731a2.0336,2.0336,0,0,0-.3408.26L228.645,133.8563l-59.1575,8.9468-135.72.7126,4.1216-6.1984,133.606-2.2139.2-.0129,60.1885-6.8262a2.0864,2.0864,0,0,0,1.2942-.6569Zm-102.491,47.285,26.5132-14.8926,13.8027,7.4463ZM36.0925,126.9543l135.4087-2.64a1.9267,1.9267,0,0,0,.3384-.0344l58.1885-10.79c.0154-.0029.0286-.0125.0439-.0157a2.0661,2.0661,0,0,0,.57-.2045l.0083-.0032c.0552-.03.0962-.08.1482-.1152a2.0971,2.0971,0,0,0,.3511-.2736c.0068-.0072.0166-.011.0234-.0183l47.179-50.9035.7766,4.25-48.2666,56.2675-59.5649,8.4778L33.18,133.1285ZM145.0544,61.7261l129.7649-2.0713-45.6,49.2L210.6357,98.8293a2.07,2.07,0,0,0-2.0039.0171L170.67,120.17,41.64,122.6717ZM33.864,147.68l135.7964-.7228.3-.0233,60-9.0742a2.0811,2.0811,0,0,0,.64-.2075c.0349-.018.0605-.05.0945-.07a2.07,2.07,0,0,0,.4453-.33l.001-.0009h0l.0613-.0631,53.0706-54.6822v4.4507L228.644,146.5076,169.52,153.9468l-132.755-.0546-.0216.0019-2.81-.0011Zm135.7844,10.4218.26-.0163,60-7.5493a2.0653,2.0653,0,0,0,1.2588-.6431l53.1055-56.85v4.4187l-55.6294,61.6951-59.092,5.9328-132.1843-.8388,1.1293-6.2016Zm115.2522,23.3713L228.66,260.31l-58.7976-6.0539-.2373-.0108L32.0671,255.8714l-.1467-7.4095,137.6575-1.2055,59.9109,4.6454a2.07,2.07,0,0,0,1.8359-.8428l2.5454-3.4709.7683.004a2.0691,2.0691,0,0,0,1.7061-.8765L284.9006,178.18Z" class="outline"/>
  </g>
</svg>
