<svg xmlns="http://www.w3.org/2000/svg" viewBox="0 0 320 320">
  <title>pencil-outline</title>
  <g id="pen">
    <g>
      <path d="M113.0635,22.6C99.3494,30.7035,78.4664,42.5475,78.4664,42.5475s-13.7142,8.1038-6.2337,21.5063,15.2726,26.805,15.2726,26.805a7.91,7.91,0,0,0,10.909,2.8052c6.8571-4.0519,41.4542-24,48.3113-28.0517s3.1169-10.5973,3.1169-10.5973L134.57,28.21C134.57,27.8983,126.7777,14.4958,113.0635,22.6Z" class="outline"/>
      <path d="M150.7775,72.1577c-6.8571,4.0519-41.4542,24-48.3113,28.0517s-3.1169,10.5973-3.1169,10.5973,80.7266,140.57,84.7785,147.1157C191.92,271.3249,249.8936,300,249.8936,300s4.0519-64.8306-3.4285-78.2331c-3.74-6.5454-84.7785-147.1157-84.7785-147.1157S157.6346,68.1058,150.7775,72.1577Z" class="outline"/>
    </g>
  </g>
</svg>
