<svg xmlns="http://www.w3.org/2000/svg" viewBox="0 0 320 320">
  <title>pencil-filled</title>
  <g id="pen">
    <path d="M112.5689,22.6C98.8547,30.7035,77.9718,42.5475,77.9718,42.5475s-13.7142,8.1038-6.2337,21.5063,15.2726,26.805,15.2726,26.805A7.91,7.91,0,0,0,97.92,93.664c6.8571-4.0519,41.4542-24,48.3113-28.0517s3.1169-10.5973,3.1169-10.5973L134.0752,28.21C134.0752,27.8983,126.2831,14.4958,112.5689,22.6Z" class="fill"/>
    <path d="M153.6491,78.4389c-6.8571,4.0519-41.4542,24-48.3113,28.0517s-3.1169,10.5973-3.1169,10.5973,77.36,134.289,81.4123,140.8344C191.4254,271.3249,249.399,300,249.399,300s4.0519-64.8306-3.4285-78.2331c-3.74-6.5454-81.4123-140.8344-81.4123-140.8344S160.5062,74.387,153.6491,78.4389Z" class="fill"/>
  </g>
</svg>
