<svg xmlns="http://www.w3.org/2000/svg" viewBox="0 0 320 320"><defs><style>.a{fill:none;stroke:#1a1a1a;stroke-linejoin:round;stroke-width:8px;}</style></defs><title>phone</title><path class="a" d="M101.4832,137.4019c7.216-2.8644,17.016-16.28,24.382-18.7664,16.1053-5.4353,52.1643-5.4353,68.27,0,7.366,2.4859,17.166,15.902,24.382,18.7664,4.5078,1.7894,14.6922.7515,19.5056,0,3.8054-.5941,12.1248-1.8718,14.6292-4.6916,4.8173-5.424,6.3685-21.161,4.8764-28.15-1.5707-7.3566-12.9359-19.4019-19.5056-23.4579-8.4608-5.2235-29.0336-8.2014-39.0112-9.3832-19.3595-2.2929-58.663-2.2929-78.0224,0-9.9776,1.1818-30.55,4.16-39.0112,9.3832-6.57,4.056-17.9349,16.1013-19.5056,23.4579-1.4921,6.9885.0591,22.7256,4.8764,28.15,2.5044,2.82,10.8239,4.0975,14.6292,4.6916C86.791,138.1535,96.9754,139.1913,101.4832,137.4019Z"/><path class="a" d="M160,170.2429c-10.7576,0-19.5056,8.4165-19.5056,18.7664s8.748,18.7664,19.5056,18.7664,19.5056-8.4165,19.5056-18.7664S170.7577,170.2429,160,170.2429Z"/><path class="a" d="M238.0225,155.07c-3.721-3.0325-14.9206,1.597-19.5056,0-8.9528-3.1187-20.3056-20.34-29.2584-23.4579-13.7557-4.7915-44.7615-4.7915-58.5168,0-8.9528,3.1184-20.3056,20.3393-29.2584,23.4579-4.5853,1.597-15.7849-3.0325-19.5056,0C70.6611,164.2934,54.3824,205,61.9265,220s31.1427,21.4311,39.5568,23.882c28.003,8.1573,89.0306,8.1573,117.0336,0,8.4138-2.4509,32.0124-8.882,39.5566-23.882S249.3388,164.2934,238.0225,155.07ZM160,226.542c-21.51,0-39.0112-16.8375-39.0112-37.5327S138.49,151.4766,160,151.4766s39.0112,16.8375,39.0112,37.5327S181.5106,226.542,160,226.542Z"/></svg>