<svg xmlns="http://www.w3.org/2000/svg" viewBox="0 0 320 320">
  <title>phone-traditional</title>
  <g id="phone-traditional">
    <path d="M239.3543,155.07c-3.79-3.0325-15.1967,1.597-19.8665,0-9.1184-3.1187-20.6814-20.34-29.8-23.4579-14.01-4.7915-45.59-4.7915-59.6,0-9.1184,3.1184-20.6814,20.3393-29.8,23.4579-4.67,1.597-16.077-3.0325-19.8665,0-11.526,9.2231-17.2729,57.5739-9.9333,70.0454,4.35,7.3925,21.23,16.3155,29.8,18.7664,28.5211,8.1573,90.678,8.1573,119.1991,0,8.5694-2.4509,25.4491-11.3739,29.8-18.7664C256.6269,212.6442,250.88,164.2934,239.3543,155.07ZM159.8883,226.542c-21.9085,0-39.733-16.8375-39.733-37.5327s17.8246-37.5327,39.733-37.5327,39.733,16.8375,39.733,37.5327S181.7967,226.542,159.8883,226.542Z" class="outline"/>
    <path d="M159.8883,170.2429c-10.9567,0-19.8665,8.4165-19.8665,18.7664s8.91,18.7664,19.8665,18.7664,19.8665-8.4165,19.8665-18.7664S170.8449,170.2429,159.8883,170.2429Z" class="outline"/>
    <path d="M100.2886,137.4019c7.35-2.8644,17.3308-16.28,24.8332-18.7664,16.4033-5.4353,53.13-5.4353,69.5328,0,7.5023,2.4859,17.4836,15.902,24.8332,18.7664,4.5912,1.7894,14.964.7515,19.8665,0,3.8758-.5941,12.3491-1.8718,14.9-4.6916,4.9065-5.424,6.4864-21.161,4.9666-28.15-1.6-7.3566-13.1752-19.4019-19.8665-23.4579-8.6173-5.2235-29.5708-8.2014-39.733-9.3832-19.7177-2.2929-59.7484-2.2929-79.4661,0-10.1623,1.1818-31.1157,4.16-39.733,9.3832-6.6913,4.056-18.2667,16.1013-19.8665,23.4579-1.52,6.9885.06,22.7256,4.9666,28.15,2.5507,2.82,11.0241,4.0975,14.9,4.6916C85.3246,138.1535,95.6974,139.1913,100.2886,137.4019Z" class="outline"/>
  </g>
</svg>
