<svg xmlns="http://www.w3.org/2000/svg" viewBox="0 0 320 320">
  <defs>
    <style>
      .Graphic-Style-3 {
        fill: #1a1a1a;
      }

      .Graphic-Style, .Graphic-Style-3 {
        stroke: #1a1a1a;
        stroke-miterlimit: 2;
        stroke-width: 4px;
      }

      .Graphic-Style {
        fill: none;
      }
    </style>
  </defs>
  <title>picture-filled</title>
  <g id="Layer_15" data-name="Layer 15">
    <path class="Graphic-Style-3" d="M149.5052,181.2016c-10.8333,4.1667-23.0208-17.0138-23.0208-17.0138s-3.7239-5.5556-13.2031-6.25c-6.5951-.4832-13.8358,7.4282-17.6373,12.2927l-2.5154,3.44c-.0983.1464-.16.24-.16.24s.0615-.0932.16-.24L30,260h96.4071l50.375-68.3333L159.571,170.5245C159.2049,173.0271,157.4649,178.14,149.5052,181.2016Z"/>
    <path class="Graphic-Style" d="M76.7009,60s0,15.966-15.567,31.9322S30,107.8984,30,107.8984V260H290V60Zm18.943,110.2305-2.5154,3.44C93.4658,173.1686,94.3571,171.8773,95.6439,170.2305Zm17.6373-12.2927c9.4792.6944,13.2031,6.25,13.2031,6.25s12.1875,21.18,23.0208,17.0138c7.96-3.0614,9.7-8.1745,10.0659-10.6771l-33.1639-43.8578L95.6439,170.2305C99.4455,165.366,106.6861,157.4546,113.2813,157.9378Zm116.7969,17.7368c13.2164-4.0377,25.7016-11.1724,29.5622-13.4794L225,126.6667l-28.8673,39.4768C198.3147,167.8117,215.2234,180.2128,230.0781,175.6746Z"/>
    <path class="Graphic-Style-3" d="M259.64,162.1952c-3.8607,2.307-16.3458,9.4416-29.5622,13.4794-14.8547,4.5382-31.7634-7.8629-33.9454-9.5311L127.5,260H290V193.3333Z"/>
  </g>
</svg>
