<svg xmlns="http://www.w3.org/2000/svg" viewBox="0 0 320 320">
  <title>pipette</title>
  <g id="color">
    <g id="pipette">
      <path d="M254.7665,136.6993l-16.8473-16.8474c4.9138-4.9138,11.2314-11.2316,16.8474-16.8473,11.2314-11.2317-14.04-36.5027-25.2712-25.2712-5.6157,5.616-11.9333,11.9336-16.8474,16.8474L195.8006,77.7335a5.9564,5.9564,0,0,0-8.4236,0h0a5.9564,5.9564,0,0,0,0,8.4238l16.8474,16.8473h0l25.271,25.271h0l16.8472,16.8473a5.9564,5.9564,0,0,0,8.4237,0h0A5.9564,5.9564,0,0,0,254.7665,136.6993Z" class="fill"/>
      <path d="M233.7073,132.4875,132.623,233.5717c-16.8474,16.8474-25.2711,8.4237-33.6948,16.8474l-8.4237,8.4237c-16.8474,16.8474-33.6948,0-16.8474-16.8474l8.4237-8.4237c8.4237-8.4237,0-16.8474,16.8474-33.6948L200.0125,98.7927Z" class="outline"/>
    </g>
  </g>
</svg>
