<svg xmlns="http://www.w3.org/2000/svg" viewBox="0 0 320 320">
  <title>pipette-filled</title>
  <g id="color">
    <path d="M266.8983,118.2082,248.3271,99.6369c5.4166-5.4166,12.3807-12.3808,18.5713-18.5711,12.3807-12.3809-15.4761-40.2377-27.857-27.857C232.851,59.3993,225.887,66.3634,220.47,71.78L201.899,53.2089a6.5659,6.5659,0,0,0-9.2855,0h0a6.5659,6.5659,0,0,0,0,9.2857l18.5712,18.5711h0l27.8567,27.8567h0l18.5711,18.5712a6.5659,6.5659,0,0,0,9.2856,0h0A6.5659,6.5659,0,0,0,266.8983,118.2082Z" class="fill"/>
    <path d="M234.119,123.0234,122.6917,234.4507c-18.5712,18.5712-27.8568,9.2856-37.1424,18.5712l-9.2856,9.2856c-18.5712,18.5712-37.1424,0-18.5712-18.5712l9.2856-9.2856c9.2856-9.2856,0-18.5712,18.5712-37.1424L196.9766,85.881Z" class="fill"/>
  </g>
</svg>
