<svg xmlns="http://www.w3.org/2000/svg" viewBox="0 0 320 320"><defs><style>.a{fill:#1a1a1a;}</style></defs><title>plus-circled-filled</title><path class="a" d="M253.3818,66.6182c-51.491-51.491-135.2726-51.491-186.7636,0s-51.491,135.2726,0,186.7636,135.2726,51.491,186.7636,0S304.8727,118.1092,253.3818,66.6182ZM173.7225,221.7447a12.0057,12.0057,0,0,1-24.0114,0V173.7225l-48.0225,0a12.0057,12.0057,0,0,1,0-24.0114l48.0225,0,0-48.0225a12.0057,12.0057,0,0,1,24.0114,0l0,48.0225h48.0222a12.0057,12.0057,0,1,1,0,24.0114l-48.0225,0Z"/></svg>