<svg xmlns="http://www.w3.org/2000/svg" viewBox="0 0 320 320">
  <defs>
    <style>
      .Graphic-Style {
        fill: none;
        stroke: #1a1a1a;
        stroke-miterlimit: 2;
        stroke-width: 4px;
      }
    </style>
  </defs>
  <title>refresh-outline</title>
  <g id="Layer_16" data-name="Layer 16">
    <path  d="M158.5739,280c2.2225,0,4.3671-.0781,6.0222-.2v-.0228A119.2744,119.2744,0,0,0,279.4015,160.1294c0-8.3982-.2707-15.9885-1.9089-24.3231h2.5022L280,45.522,247.6482,77.9676A118.502,118.502,0,0,0,160.8276,40c-1.245,0-2.6488.0093-3.9375.059C92.2386,41.2929,40,94.7839,40,160.1833a127.71,127.71,0,0,0,2.3607,23.964H40.0053L40,274.4437l31.9742-32.367A117.7074,117.7074,0,0,0,158.5739,280ZM73.8151,160.1619c0-45.3653,34.5053-82.7871,79.1949-85.3892v.1538c1.6552-.1571,4.5283-.2653,6.6373-.2824a85.2161,85.2161,0,0,1,62.47,28.8665l-31.5022,32.2956H241.988c2.33,6.6677,3,15.8436,3,24.3817,0,45.3653-35.7022,82.4143-80.3918,85.0164v-.153c-1.6552.1612-3.5245.2629-5.6153.2759-24.6078-.3769-46.4194-11.6168-61.697-28.8722l32.1007-32.3078H77.795C75.6088,175.8126,73.8151,168.42,73.8151,160.1619Z"/>
  </g>
</svg>
