<svg xmlns="http://www.w3.org/2000/svg" viewBox="0 0 320 320">
  <title>regular.folder-filled</title>
  <g id="Layer_4" data-name="Layer 4">
    <path d="M211.2987,93.7218H144.61a4.3037,4.3037,0,0,1-3.0694-1.2934L125.4389,76.0476l-7.4152-7.5437a4.3037,4.3037,0,0,0-3.0694-1.2934H27.1708a4.4041,4.4041,0,0,0-4.129,5.7786l56.3569,176.747a4.3487,4.3487,0,0,0,4.129,3.0535H264.9451L215.43,96.7809A4.3488,4.3488,0,0,0,211.2987,93.7218Z" class="fill"/>
    <path d="M291.8343,87.157H235.7285L232.95,77.46a10.9153,10.9153,0,0,0-10.4531-7.9772H134.49L149.117,84.3635a2.1515,2.1515,0,0,0,1.543.6531h66.6885a6.4694,6.4694,0,0,1,6.1709,4.5522L273.045,245.6094a3.8976,3.8976,0,0,0,1.72-2.5332l27.8469-142.5613A11.1272,11.1272,0,0,0,291.8343,87.157Z" class="fill"/>
  </g>
</svg>
