<svg xmlns="http://www.w3.org/2000/svg" viewBox="0 0 320 320">
  <title>regular.microphone-filled</title>
  <g id="Layer_15" data-name="Layer 15">
    <path d="M195,78.9565V147.13c0,21.5151-15.67,38.9565-35,38.9565s-35-17.4414-35-38.9565V78.9565C125,57.4414,140.67,40,160,40S195,57.4414,195,78.9565Zm25,67.4782H210c0,30.7357-22.3857,55.6522-50,55.6522s-50-24.9165-50-55.6522H100c0,35.007,24.2047,63.7031,55,66.5339v55.9009H139.0767a20.849,20.849,0,0,0-15.495,7.1439C122.26,277.4845,123.1961,280,125.0653,280h69.8694c1.8692,0,2.8053-2.5155,1.4836-3.9867a20.849,20.849,0,0,0-15.495-7.1439H165V212.9686C195.7953,210.1379,220,181.4417,220,146.4347Z" class="fill"/>
  </g>
</svg>
