<svg xmlns="http://www.w3.org/2000/svg" viewBox="0 0 320 320">
  <title>regular.folder-outline</title>
  <g id="Layer_4" data-name="Layer 4">
    <path d="M288.7647,92.2581a11.3729,11.3729,0,0,1,11.0161,13.653l-28.4618,145.71a3.9467,3.9467,0,0,1-3.8537,3.218h0L216.9168,95.5754a4.7561,4.7561,0,0,0-4.5332-3.3173H142.6352L124.8782,74.1935h93.0181a11.1564,11.1564,0,0,1,10.684,8.1533l2.84,9.9112Zm-76.1305,0H144.4729a4.3987,4.3987,0,0,1-3.1372-1.322L124.8782,74.1935l-7.579-7.71a4.3987,4.3987,0,0,0-3.1372-1.322H24.44a4.5014,4.5014,0,0,0-4.22,5.9062l57.6015,180.65a4.4447,4.4447,0,0,0,4.22,3.1209H267.4653l-50.609-159.454A4.4449,4.4449,0,0,0,212.6342,92.2581Z" class="outline"/>
  </g>
</svg>
