<svg xmlns="http://www.w3.org/2000/svg" viewBox="0 0 320 320">
  <title>regular.pencil-tip</title>
  <g id="Layer_14" data-name="Layer 14">
    <path d="M250,123.8048q-33.07,49.3065-66.1429,98.6109l-17.8665,9.0379,0-.0014-40.6125,20.5391v0L70,280q3.9414-53.1552,7.8821-106.3105l-.0009.0006,1.4688-19.792L145.492,55.2872,188.967,40,113.3009,152.8077,86.4191,168.6564,82.9569,215.359c17.677-3.5924,38.7008,10.1876,42.2305,27.686l42.1677-21.3258q2.1574-15.3231,4.3084-30.6483,37.8305-56.4054,75.6646-112.8085ZM132.2774,187.1518l26.4562-20.4461c24.45-36.3805,46.8353-74.2488,61.6771-115.2841l-79.37,103.655Z" class="outline"/>
  </g>
</svg>
