<svg xmlns="http://www.w3.org/2000/svg" viewBox="0 0 320 320">
  <title>regular.database-filled</title>
  <g id="Layer_15" data-name="Layer 15">
    <path d="M249.8927,202.4418A7.1045,7.1045,0,0,1,250,203.5665v40.7756C250,264.0352,209.7056,280,160,280s-90-15.9648-90-35.6579V203.5665a7.1045,7.1045,0,0,1,.1073-1.1247c2.2169,18.9121,41.61,33.9763,89.8926,33.9763S247.6755,221.3538,249.8927,202.4418ZM160,174.7078c-48.2824,0-87.6757-15.0642-89.8926-33.9763A7.1045,7.1045,0,0,0,70,141.8562v40.7756c0,19.6932,40.2944,35.6579,90,35.6579s90-15.9648,90-35.6579V141.8562a7.1045,7.1045,0,0,0-.1073-1.1247C247.6755,159.6436,208.2822,174.7078,160,174.7078Zm0-63.3919c-48.2823,0-87.6758-15.0642-89.8927-33.9766A7.1173,7.1173,0,0,0,70,78.4644V119.24c0,19.6933,40.2944,35.658,90,35.658s90-15.9647,90-35.658V78.4644a7.1173,7.1173,0,0,0-.1073-1.125C247.6758,96.2517,208.2823,111.3159,160,111.3159ZM160,40c-49.7056,0-90,15.9645-90,35.658a14.4476,14.4476,0,0,0,.1073,1.6814c2.2169,18.9124,41.61,33.9766,89.8927,33.9766s87.6758-15.0642,89.8927-33.9766A14.4476,14.4476,0,0,0,250,75.658C250,55.9645,209.7056,40,160,40Z" class="fill"/>
  </g>
</svg>
