<svg xmlns="http://www.w3.org/2000/svg" viewBox="0 0 320 320">
  <title>regular.trash-outline</title>
  <g id="Layer_10" data-name="Layer 10">
    <path d="M85.3333,275.5556V106.6667H234.6667V275.5556A12.4444,12.4444,0,0,1,222.2222,288H97.7778A12.4444,12.4444,0,0,1,85.3333,275.5556ZM64,70.4444v29.7778a6.4444,6.4444,0,0,0,6.4444,6.4444H249.5556A6.4444,6.4444,0,0,0,256,100.2222V70.4444A6.4444,6.4444,0,0,0,249.5556,64H70.4444A6.4444,6.4444,0,0,0,64,70.4444ZM192,64V54.4444A22.4444,22.4444,0,0,0,169.5556,32H150.4444A22.4444,22.4444,0,0,0,128,54.4444V64m-5.3333,64V266.6667m37.3333,0V128m37.3333,0V266.6667" class="outline"/>
  </g>
</svg>
