<svg xmlns="http://www.w3.org/2000/svg" viewBox="0 0 320 320">
  <title>regular.picture-outline</title>
  <g id="Layer_15" data-name="Layer 15">
    <path d="M95.6439,170.2305l-2.5154,3.44C93.4658,173.1686,94.3571,171.8773,95.6439,170.2305Z" class="outline"/>
    <path d="M113.2813,157.9378c9.4792.6944,13.2031,6.25,13.2031,6.25s12.1875,21.18,23.0208,17.0138c7.96-3.0614,9.7-8.1745,10.0659-10.6771l-33.1639-43.8578L95.6439,170.2305C99.4455,165.366,106.6861,157.4546,113.2813,157.9378Zm116.7969,17.7368c13.2164-4.0377,25.7016-11.1724,29.5622-13.4794L225,126.6667l-28.8673,39.4768C198.3147,167.8117,215.2234,180.2128,230.0781,175.6746ZM290,60V193.3333l-30.36-31.1381c-3.8606,2.307-16.3459,9.4417-29.5623,13.4794-14.8547,4.5382-31.7634-7.8628-33.9453-9.5311L127.5,260h-1.0929l50.3751-68.3334L159.571,170.5244c-.366,2.5027-2.1062,7.6157-10.0659,10.6771-10.8333,4.1666-23.0208-17.0138-23.0208-17.0138s-3.7239-5.5557-13.2031-6.25c-6.5951-.4832-13.8357,7.4282-17.6373,12.2927l-2.5154,3.44L30,260V107.8983s15.567,0,31.1339-15.9662S76.7009,60,76.7009,60Z" class="fill"/>
    <path d="M159.571,170.5244c-.366,2.5027-2.1062,7.6157-10.0659,10.6771-10.8333,4.1666-23.0208-17.0138-23.0208-17.0138s-3.7239-5.5557-13.2031-6.25c-6.5951-.4832-13.8357,7.4282-17.6373,12.2927l-2.5154,3.44c-.0983.1462-.16.24-.16.24s.0615-.0933.16-.24L30,260h96.4071l50.3751-68.3334Z" class="outline"/>
    <path d="M230.0781,175.6746c-14.8547,4.5382-31.7634-7.8628-33.9453-9.5311L127.5,260H290V193.3333l-30.36-31.1381C255.78,164.5022,243.2944,171.6368,230.0781,175.6746Z" class="outline"/>
  </g>
</svg>
