<svg xmlns="http://www.w3.org/2000/svg" viewBox="0 0 320 320">
  <title>regular.trash-filled</title>
  <g id="Layer_10" data-name="Layer 10">
    <path d="M249.5557,64H196V54.4443A26.4745,26.4745,0,0,0,169.5557,28H150.4443A26.4745,26.4745,0,0,0,124,54.4443V64H70.4443A6.4444,6.4444,0,0,0,64,70.4445v29.7778a6.4444,6.4444,0,0,0,6.4443,6.4444H249.5557A6.4444,6.4444,0,0,0,256,100.2222V70.4445A6.4444,6.4444,0,0,0,249.5557,64ZM132,64V54.4443A18.4653,18.4653,0,0,1,150.4443,36h19.1113A18.4653,18.4653,0,0,1,188,54.4443V64Z" class="fill"/>
    <path d="M85.3333,114V275.5555A12.4445,12.4445,0,0,0,97.7778,288H222.2222a12.4445,12.4445,0,0,0,12.4446-12.4445V114ZM126.667,266.6665h-8V128h8Zm37.333,0h-8V128h8Zm37.333,0h-8V128h8Z" class="fill"/>
  </g>
</svg>
