<svg xmlns="http://www.w3.org/2000/svg" viewBox="0 0 320 320">
  <title>regular.cog</title>
  <g id="Layer_11" data-name="Layer 11">
    <path d="M252.6157,177.33l-20.2523,43.0156,16.6337,23.9432-41.0635,28.5272-18.2807-26.314-44.502,3.7277-13.6482,28.9885L86.2656,257.92l12.4186-26.3768L71.5579,192.4959l-29.0523,2.4336L38.332,145.104l23.2988-1.9516L84.3425,94.9133l-13.34-19.2016,41.0635-28.5272,11.6924,16.8307,56.009-4.6916,8.73-18.5413L233.7344,62.08l-9.9593,21.1533,30.42,43.7885,23.2988-1.9516,4.1736,49.8255Zm-97.3111-73.3833a52.5,52.5,0,1,0,56.6991,47.9345A52.5,52.5,0,0,0,155.3047,103.9463Z" class="outline"/>
  </g>
</svg>
