<svg xmlns="http://www.w3.org/2000/svg" viewBox="0 0 320 320">
  <title>satellite-dish</title>
  <g id="satellite-dish">
    <path id="_Path_" data-name="&lt;Path&gt;" d="M260,143.908c-7.0485-60.6051-69.29-111.62-133.3241-102.9414l.8267,5.5425c61.3225-6.6755,117.3505,36.4338,126.8989,97.66Z" class="outline"/>
    <path id="_Path_2" data-name="&lt;Path&gt;" d="M130.6262,70.202l.7316,5.5491c45.2847-4.56,86.5284,27.178,93.935,72.291l5.5235-.7349C223.0016,99.1388,178.953,65.2455,130.6262,70.202Z" class="outline"/>
    <path id="_Path_3" data-name="&lt;Path&gt;" d="M176.48,114.3162a59.9543,59.9543,0,0,1,22.5912,37.2146l5.521-.7345a65.6677,65.6677,0,0,0-70.4927-54.2511l.7312,5.5464A59.4253,59.4253,0,0,1,176.48,114.3162Z" class="outline"/>
    <path id="_Path_4" data-name="&lt;Path&gt;" d="M93.9339,213.9521,77.6844,270h83.68L145.5,237.6664s-8.7821-3.1509-25.0824-9.3321A122.2862,122.2862,0,0,1,93.9339,213.9521Z" class="outline"/>
    <path id="_Path_5" data-name="&lt;Path&gt;" d="M107.6106,211.6866c43.8181,28.742,98.2937,22.8821,121.6748-13.0884L70.6061,94.5142C47.225,130.4848,63.7925,182.9446,107.6106,211.6866Z" class="outline"/>
  </g>
</svg>
