<svg xmlns="http://www.w3.org/2000/svg" viewBox="0 0 320 320">
  <title>screw</title>
  <g id="screw">
    <path d="M175,268a3.9943,3.9943,0,0,1-1.9458-.5054l-31-17.4946A4,4,0,0,1,140,246.5054V217.0615a4,4,0,0,1,5.9458-3.4946l31,17.4951A4,4,0,0,1,179,234.5566V264a4.0005,4.0005,0,0,1-4,4Z" class="outline"/>
    <path d="M187.4575,229.835a3.9943,3.9943,0,0,1-1.9458-.5054L132.63,199.8857a4,4,0,0,1-2.0542-3.4946V166.9478a4,4,0,0,1,5.9458-3.4946l52.8813,29.4434a4,4,0,0,1,2.0542,3.4946V225.835a4.0005,4.0005,0,0,1-4,4Z" class="outline"/>
    <path d="M187.4575,185.6694a3.9943,3.9943,0,0,1-1.9458-.5054L132.63,155.7207a4,4,0,0,1-2.0542-3.4946V95.8569h-6.9087a3.9979,3.9979,0,0,1-1.9526-.5093l-23.6675-13.24A4,4,0,0,1,96,78.6172V63.8955a4,4,0,0,1,1.9746-3.4492l23.6675-13.8955A3.9985,3.9985,0,0,1,123.6675,46H198.78a3.9988,3.9988,0,0,1,2.1914.6538l21.22,13.8955A4,4,0,0,1,224,63.8955V78.6172a3.9989,3.9989,0,0,1-1.8828,3.3936l-21.22,13.24a3.9969,3.9969,0,0,1-2.1172.6064h-7.3228v85.8125a4.0005,4.0005,0,0,1-4,4Z" class="outline"/>
  </g>
</svg>
