<svg xmlns="http://www.w3.org/2000/svg" viewBox="0 0 320 320"><defs><style>.a{fill:none;stroke:#1a1a1a;stroke-miterlimit:2;stroke-width:4px;}</style></defs><title>shrink</title><path class="a" d="M298.0085,261.7446a6.8,6.8,0,0,0-9.6159,0l-8.516,8.516-73.4-73.4,17.6291-11.2185-51.2848-12.8212,12.8212,51.2848,11.2185-17.6291,73.4,73.4-8.5161,8.5161a6.7994,6.7994,0,0,0,0,9.6158h0a6.8,6.8,0,0,0,9.6159,0l26.648-26.648A6.8,6.8,0,0,0,298.0085,261.7446Z"/><path class="a" d="M147.1788,147.1788,134.3576,95.894l-11.2185,17.6291-73.4-73.4,8.516-8.516a6.7995,6.7995,0,1,0-9.6159-9.6159l-26.648,26.648a6.7994,6.7994,0,0,0,0,9.6158h0a6.8,6.8,0,0,0,9.6159,0l8.516-8.516,73.4,73.4L95.894,134.3576Z"/></svg>