<svg xmlns="http://www.w3.org/2000/svg" viewBox="0 0 320 320">
  <title>support.pencil-filled</title>
  <g id="pen">
    <path d="M207.9257,22.6c13.7142,8.1038,34.5971,19.9479,34.5971,19.9479s13.7142,8.1038,6.2337,21.5063-15.2726,26.805-15.2726,26.805a7.91,7.91,0,0,1-10.909,2.8052c-6.8571-4.0519-41.4542-24-48.3113-28.0517s-3.1169-10.5973-3.1169-10.5973L186.4194,28.21C186.4194,27.8983,194.2115,14.4958,207.9257,22.6Z" class="fill"/>
    <path d="M166.8455,78.4389c6.8571,4.0519,41.4542,24,48.3113,28.0517s3.1169,10.5973,3.1169,10.5973-77.36,134.289-81.4123,140.8344C129.0692,271.3249,71.0956,300,71.0956,300s-4.0519-64.8306,3.4285-78.2331c3.74-6.5454,81.4123-140.8344,81.4123-140.8344S159.9884,74.387,166.8455,78.4389Z" class="fill"/>
  </g>
</svg>
