<svg xmlns="http://www.w3.org/2000/svg" viewBox="0 0 320 320">
  <title>support.earth</title>
  <g id="globe">
    <path d="M178.1818,114.5455l-8.7791,17.5583c-.659,1.3179,8.0847,10.0616,9.4027,9.4027l9.9763-4.9882c1.4754-.7377,6.76-2.3094,7.582-3.791,2.0561-3.7046,0-13.813,0-18.1818l18.0029,18.0029c1.4691,1.4691,9.27-1.517,9.27.96v16.6193c0,2.4883-22.4987,6.4059-25.4354,7.14-2.4776.6194-8.3883,3.3775-10.9282,2.7321-2.7929-.71-6.979-6.979-9.0909-9.0909L160.1789,168.912c-1.5285,1.5285,8.7636,18.2123,11.2689,20.7176,7.2054,7.2054,10.56,14.3851,15.1515,23.569,1.6206,3.2411-.6051,7.2722.6734,10.4377,1.2706,3.1459,6.6509,6.6509,9.0909,9.0909l26.961-53.9219c1.7777-3.5554.3118-10.6682.3118-14.5884,0-6.367,2.992-4.217,9.0909-4.217,4.8937,0,8.2308-.43,12.52,1.7147,4.9175,2.4587,7.7516,4.9175,12.6691,7.3762,0-5.417,2.9514-12.2159,1.8183-18.8444-1.5306-8.9537-6.7471-16.8677-10.1206-25.3016-2.4131-6.0327-4.1761-14.06-7.7961-19.49-4.2654-6.3981-11.8852-11.8852-17.3345-17.3345-4.5686-4.5686-11.2417-7.7769-16.5921-11.3438l-10.7127-7.1418c-1.8136-1.2091-5.19,1.6441-6.9257,2.5118L178.8053,77.87c-1.0261.5131-1.4195,8.6067-.6235,9.4027.958.958,8.6982.3927,9.7643-.6734l8.4175-8.4175c0,1.5644-.9889,8.102,0,9.0909s7.5265,0,9.0909,0L197.037,95.69c-1.8344,1.8344-7.3391.6734-9.7643.6734s-7.93-1.161-9.7643.6734l-8.4175,8.4175Z" class="outline"/>
    <path d="M150.9091,87.2727v9.0909l8.4175-8.4175c1.847-1.847.6734-7.23.6734-9.7643Z" class="outline"/>
    <path d="M123.6364,250.9091l19.214-6.4047c7.8324-2.6108,8.2036-2.6138,15.6408,1.1047,6.062,3.031,9.5935,5.3,16.2067,5.3h21.6659L179.008,255.248C173.2809,256.68,165.9324,260,160,260c-5.4162,0-12.13-3.0325-17.3556-4.3389Z" class="outline"/>
    <path d="M160,60A99.67,99.67,0,0,0,89.9033,88.6893c2.6633.0587,5.13-.0868,6.46-1.4166l12.0713,6.0356c3.48,1.74,6.8361,1.6041,4.9633,5.35q-3.635,7.27-7.27,14.54c-1.36,2.72-6.5607,1.3468-9.3027,1.3468-5.541,0-22.9507,12.1212-28.4919,12.1212-1.079,0-1.3987-1.48-1.3029-3.5648A99.3943,99.3943,0,0,0,60.65,148.593c2.4648-4.4686,9.4775-10.7661,10.816-14.7817.8169-2.4507,7.1094-1.084,9.4521-1.084,0,6.3383,15.2932,4.8506,12.4155,10.6061C91.0679,147.8643,87.2654,155.4691,85,160c-.4392.8784,9.0278,6.5972,8.3333,8.3333C106.1805,174.9305,105.1389,160.6945,110,160c-.7062.1009,11.1006,8.0725,11.1006,8.5157v16.3c0,6.2052-15.6417,25.572-12.8893,31.0768q3.635,7.27,7.27,14.5405c1.7968,3.5933,1.1473,7.3861,1.1473,11.3854l-9.0909-4.5455c-2.0939-1.0469-7.8289-2.6525-9.1543-4.64q-6.976-10.4639-13.9518-20.9278A93.3227,93.3227,0,0,0,71.8477,197.037a63.16,63.16,0,0,1-8.3936-10.9151A100.0078,100.0078,0,1,0,160,60Z" class="outline"/>
    <path d="M63.1267,169.0909a9.82,9.82,0,0,1-2.7251-.1584q.4427,5,1.3676,9.8513c1.8929-2.37,3.7621-7.5542,5.0687-9.455A25.3153,25.3153,0,0,0,63.1267,169.0909Z" class="outline"/>
    <path d="M84.4318,211.7044q6.9758,10.4639,13.9518,20.9278c1.3254,1.988,7.06,3.5936,9.1543,4.64l9.0909,4.5455c0-3.9993.6494-7.7922-1.1473-11.3854q-3.635-7.27-7.27-14.5405c-2.7524-5.5048,12.8893-24.8716,12.8893-31.0768v-16.3c0-.4432-11.8068-8.4148-11.1006-8.5157-4.8611.6945-3.8195,14.9305-16.6667,8.3333.6946-1.7361-8.7725-7.455-8.3333-8.3333,2.2654-4.5309,6.0679-12.1357,8.3333-16.6667,2.8777-5.7555-12.4155-4.2679-12.4155-10.6061-2.3428,0-8.6353-1.3666-9.4521,1.084-1.3385,4.0156-8.3512,10.3131-10.816,14.7817A100.9618,100.9618,0,0,0,60,160c0,3.0112.1409,5.989.4016,8.9325a9.82,9.82,0,0,0,2.7251.1584,25.3153,25.3153,0,0,1,3.7112.2379c-1.3066,1.9008-3.1758,7.0854-5.0687,9.455q.707,3.72,1.6849,7.3381a63.16,63.16,0,0,0,8.3936,10.9151A93.3227,93.3227,0,0,1,84.4318,211.7044Z" class="outline"/>
    <path d="M68.3333,126.6666c5.5413,0,22.9509-12.1212,28.4919-12.1212,2.7421,0,7.9427,1.3733,9.3027-1.3468q3.635-7.27,7.27-14.54c1.8728-3.7457-1.4832-3.61-4.9633-5.35L96.3636,87.2727c-1.33,1.33-3.797,1.4753-6.46,1.4166A100.1231,100.1231,0,0,0,67.03,123.1018C66.9346,125.1869,67.2543,126.6666,68.3333,126.6666Z" class="outline"/>
  </g>
</svg>
