<svg xmlns="http://www.w3.org/2000/svg" viewBox="0 0 320 320">
  <title>support.earth-filled</title>
  <g id="globe">
    <g>
      <g>
        <path d="M259.735,150.2465c-.1215-.7106-.2736-1.4126-.4387-2.1109q.4349,3.6791.601,7.4361A21.1347,21.1347,0,0,0,259.735,150.2465Z" class="fill"/>
        <path d="M259.8972,155.5717c-.4019,4.8409-1.98,9.5511-1.98,13.5192-4.9175-2.4587-7.7517-4.9175-12.6692-7.3762C240.958,159.57,237.621,160,232.7273,160c-6.0989,0-9.0909-2.15-9.0909,4.217,0,3.92,1.4659,11.033-.3118,14.5883q-13.48,26.961-26.9609,53.9219c-2.44-2.44-7.82-5.9449-9.0909-9.0909-1.2784-3.1655.9473-7.1966-.6733-10.4377-4.592-9.184-7.9462-16.3636-15.1516-23.569-2.5052-2.5054-12.7974-19.1891-11.2688-20.7176l18.0029-18.003c2.1118,2.1119,6.2979,8.3812,9.0908,9.0909,2.54.6454,8.4507-2.1127,10.9282-2.7321,2.9368-.7342,25.4354-4.6519,25.4354-7.14V133.5085c0-2.4771-7.8007.509-9.27-.96l-18.0029-18.003c0,4.3688,2.056,14.4772,0,18.1818-.8224,1.4816-6.1066,3.0533-7.582,3.791l-9.9762,4.9882c-1.318.6589-10.0618-8.0847-9.4028-9.4026q4.39-8.7792,8.7793-17.5583l-9.0911-9.0909,8.4176-8.4175c1.8345-1.8345,7.3391-.6734,9.7643-.6734s7.93,1.161,9.7644-.6734l8.4175-8.4175c-1.5645,0-8.1021.9889-9.0909,0s0-7.5265,0-9.0909l-8.4176,8.4175c-1.066,1.0661-8.8062,1.6314-9.7642.6734-.796-.796-.4026-8.89.6235-9.4026l11.4478-5.7239c1.7352-.8676,5.1121-3.7208,6.9257-2.5118l10.7128,7.1418c5.35,3.5669,12.0234,6.7753,16.592,11.3438,5.4493,5.4493,1.251,5.4819,5.5164,11.88,3.62,5.43,17.2012,18.9122,19.6143,24.9449,3.1057,7.7645,7.7664,15.0905,9.682,23.1907A100.0012,100.0012,0,1,0,160,260c-5.4163,0-12.13-3.0325-17.3557-4.3389l-19.0079-4.752,19.214-6.4047c7.8324-2.6108,8.2036-2.6138,15.6407,1.1048,6.062,3.031,9.5935,5.3,16.2067,5.3h21.6659l-17.3556,4.3389C173.281,256.68,165.9324,260,160,260A99.9993,99.9993,0,0,0,260,160C260,158.5156,259.9612,157.04,259.8972,155.5717ZM78.1819,105.4545c1.24-2.9359,6.2732-6.2732,8.4983-8.4984l9.6835-9.6834,12.0713,6.0356c3.48,1.74,6.8361,1.6041,4.9633,5.35q-3.635,7.27-7.27,14.54c-1.36,2.72-6.5607,1.3468-9.3027,1.3468-5.541,0-22.9507,12.1212-28.4919,12.1212C65.0176,126.6666,77.0278,108.1877,78.1819,105.4545Zm42.9187,79.3608c0,6.2052-15.6417,25.572-12.8893,31.0768q3.635,7.27,7.27,14.5405c1.7968,3.5933,1.1473,7.3861,1.1473,11.3854l-9.0909-4.5455c-2.0939-1.0469-7.8289-2.6525-9.1543-4.64q-6.976-10.4639-13.9518-20.9278A93.3227,93.3227,0,0,0,71.8477,197.037c-4.5057-4.5056-6.9109-13.1484-9.7644-18.8553,2.4362,0,3.0386-6.3567,4.7546-8.8528-1.18-.0885-2.4348-.2379-3.7112-.2379-3.6825,0,3.54-20.882,3.8821-21.91l4.4568-13.37c.8169-2.4507,7.1094-1.084,9.4521-1.084,0,6.3383,15.2932,4.8506,12.4155,10.6061C91.0679,147.8643,87.2654,155.4691,85,160c-.4392.8784,9.0278,6.5972,8.3333,8.3333C106.1805,174.9305,105.1389,160.6945,110,160c-.7062.1009,11.1006,8.0725,11.1006,8.5157Zm29.8086-88.4517V87.2727L160,78.1818c0,2.534,1.1736,7.9173-.6733,9.7643Q155.1178,92.1549,150.9092,96.3636Z" class="fill"/>
      </g>
      <g>
        <path d="M259.735,150.2465c-.1215-.7106-.2736-1.4126-.4387-2.1109q.4349,3.6791.601,7.4361A21.1347,21.1347,0,0,0,259.735,150.2465Z" class="outline"/>
        <path d="M259.8972,155.5717c-.4019,4.8409-1.98,9.5511-1.98,13.5192-4.9175-2.4587-7.7517-4.9175-12.6692-7.3762C240.958,159.57,237.621,160,232.7273,160c-6.0989,0-9.0909-2.15-9.0909,4.217,0,3.92,1.4659,11.033-.3118,14.5883q-13.48,26.961-26.9609,53.9219c-2.44-2.44-7.82-5.9449-9.0909-9.0909-1.2784-3.1655.9473-7.1966-.6733-10.4377-4.592-9.184-7.9462-16.3636-15.1516-23.569-2.5052-2.5054-12.7974-19.1891-11.2688-20.7176l18.0029-18.003c2.1118,2.1119,6.2979,8.3812,9.0908,9.0909,2.54.6454,8.4507-2.1127,10.9282-2.7321,2.9368-.7342,25.4354-4.6519,25.4354-7.14V133.5085c0-2.4771-7.8007.509-9.27-.96l-18.0029-18.003c0,4.3688,2.056,14.4772,0,18.1818-.8224,1.4816-6.1066,3.0533-7.582,3.791l-9.9762,4.9882c-1.318.6589-10.0618-8.0847-9.4028-9.4026q4.39-8.7792,8.7793-17.5583l-9.0911-9.0909,8.4176-8.4175c1.8345-1.8345,7.3391-.6734,9.7643-.6734s7.93,1.161,9.7644-.6734l8.4175-8.4175c-1.5645,0-8.1021.9889-9.0909,0s0-7.5265,0-9.0909l-8.4176,8.4175c-1.066,1.0661-8.8062,1.6314-9.7642.6734-.796-.796-.4026-8.89.6235-9.4026l11.4478-5.7239c1.7352-.8676,5.1121-3.7208,6.9257-2.5118l10.7128,7.1418c5.35,3.5669,12.0234,6.7753,16.592,11.3438,5.4493,5.4493,1.251,5.4819,5.5164,11.88,3.62,5.43,17.2012,18.9122,19.6143,24.9449,3.1057,7.7645,7.7664,15.0905,9.682,23.1907A100.0012,100.0012,0,1,0,160,260c-5.4163,0-12.13-3.0325-17.3557-4.3389l-19.0079-4.752,19.214-6.4047c7.8324-2.6108,8.2036-2.6138,15.6407,1.1048,6.062,3.031,9.5935,5.3,16.2067,5.3h21.6659l-17.3556,4.3389C173.281,256.68,165.9324,260,160,260A99.9993,99.9993,0,0,0,260,160C260,158.5156,259.9612,157.04,259.8972,155.5717ZM78.1819,105.4545c1.24-2.9359,6.2732-6.2732,8.4983-8.4984l9.6835-9.6834,12.0713,6.0356c3.48,1.74,6.8361,1.6041,4.9633,5.35q-3.635,7.27-7.27,14.54c-1.36,2.72-6.5607,1.3468-9.3027,1.3468-5.541,0-22.9507,12.1212-28.4919,12.1212C65.0176,126.6666,77.0278,108.1877,78.1819,105.4545Zm42.9187,79.3608c0,6.2052-15.6417,25.572-12.8893,31.0768q3.635,7.27,7.27,14.5405c1.7968,3.5933,1.1473,7.3861,1.1473,11.3854l-9.0909-4.5455c-2.0939-1.0469-7.8289-2.6525-9.1543-4.64q-6.976-10.4639-13.9518-20.9278A93.3227,93.3227,0,0,0,71.8477,197.037c-4.5057-4.5056-6.9109-13.1484-9.7644-18.8553,2.4362,0,3.0386-6.3567,4.7546-8.8528-1.18-.0885-2.4348-.2379-3.7112-.2379-3.6825,0,3.54-20.882,3.8821-21.91l4.4568-13.37c.8169-2.4507,7.1094-1.084,9.4521-1.084,0,6.3383,15.2932,4.8506,12.4155,10.6061C91.0679,147.8643,87.2654,155.4691,85,160c-.4392.8784,9.0278,6.5972,8.3333,8.3333C106.1805,174.9305,105.1389,160.6945,110,160c-.7062.1009,11.1006,8.0725,11.1006,8.5157Zm29.8086-88.4517V87.2727L160,78.1818c0,2.534,1.1736,7.9173-.6733,9.7643Q155.1178,92.1549,150.9092,96.3636Z" class="outline"/>
      </g>
    </g>
  </g>
</svg>
