<svg xmlns="http://www.w3.org/2000/svg" viewBox="0 0 320 320">
  <title>support.pipette</title>
  <g id="color">
    <path d="M266.9047,127.2266h0a6.5523,6.5523,0,0,1-9.2664,0l-18.5327-18.5328h0L211.3061,80.8947h0L192.7733,62.3618a6.5523,6.5523,0,0,1,0-9.2665h0a6.5523,6.5523,0,0,1,9.2664,0l18.5328,18.5328c5.4057-5.4054,12.3553-12.3551,18.5329-18.5329C251.4607,40.74,279.26,68.5393,266.9048,80.8947c-6.1778,6.1775-13.1275,13.1273-18.5329,18.5328L266.9047,117.96A6.5523,6.5523,0,0,1,266.9047,127.2266Z" class="fill"/>
    <path d="M206.6729,76.2614,95.4758,187.4585c-18.5328,18.5328-9.2664,27.7993-18.5328,37.0657l-9.2664,9.2664c-18.5328,18.5328,0,37.0657,18.5328,18.5328l9.2664-9.2664c9.2664-9.2664,18.5328,0,37.0657-18.5328L243.7386,113.3271Z" class="outline"/>
  </g>
</svg>
