<svg xmlns="http://www.w3.org/2000/svg" viewBox="0 0 320 320">
  <title>support.empty_16</title>
  <g id="plane">
    <path d="M275.7023,45.4522c-18.8562-18.8562-58.9256,16.4992-68.3537,25.9272L188.4924,90.2357c-9.4281,9.4281-110.78-16.4992-120.2082-7.0711L40,111.4489l82.4958,44.7834L80.6586,208.6761c-9.143,9.143-14.7314,4.1248-24.1595,13.5529l10.6066,10.6066L88.319,254.0487l10.6066,10.6066c9.4281-9.4281,3.6561-14.2627,13.5529-24.1595l52.4438-41.8372,44.7834,82.4958L237.99,252.87c9.4281-9.4281-16.4992-110.78-7.0711-120.2082l18.8562-18.8562C259.2031,104.3778,294.5584,64.3084,275.7023,45.4522Z" class="fill"/>
  </g>
</svg>
