<svg xmlns="http://www.w3.org/2000/svg" viewBox="0 0 320 320">
  <title>support.briefcase-filled</title>
  <g id="briefcase">
    <path d="M123.3333,169.1667h73.3333c73.3333,0,73.3333-27.5,73.3333-27.5l-4.5833-27.5S260.8333,105,242.5,95.8333c-8.6385-4.32-29.3334-3.2084-29.3334-3.2084s.2445-18.7527-9.2847-28.7877C195.1628,54.6549,180.4012,50,160,50c-22.0439,0-37.6021,5.6106-46.2451,16.6772-8.2172,10.5262-6.5818,26.8644-6.5818,26.8644S86.2,91.4833,77.5,95.8333C59.1667,105,54.5833,114.1667,54.5833,114.1667L50,132.5S50,169.1667,123.3333,169.1667Zm4.5833-94.0277C133.7309,67.6888,142.6558,63.75,160,63.75c16.2476,0,25.2274,4.291,31.1669,10.5416,5.568,5.8634,4.9431,19.25,4.9431,19.25H123.8867S123.5437,80.7383,127.9167,75.139Z" class="fill"/>
    <path d="M205.8333,182.7455v.1712a9.1666,9.1666,0,0,1-9.1667,9.1667H123.3333a9.1666,9.1666,0,0,1-9.1667-9.1667v-.1995C50.0492,180.1486,50,150.8333,50,150.8333v82.5C50,270,86.6667,270,86.6667,270H233.9242S270,270,270,233.3333V155.4167S269.9508,180.5436,205.8333,182.7455Z" class="fill"/>
  </g>
</svg>
