<svg xmlns="http://www.w3.org/2000/svg" viewBox="0 0 320 320">
  <title>support.infinity-filled</title>
  <g id="infini">
    <polygon points="32 164.345 32 164.272 32 164.27 32 164.345" class="fill"/>
    <path d="M280.0254,131.6843a63.31,63.31,0,0,0-23.7161-24.03,64.42,64.42,0,0,0-32.3294-8.42,69.98,69.98,0,0,0-26.0385,5.0139,62.0071,62.0071,0,0,0-22.062,14.8685,81.7591,81.7591,0,0,0-14.31,21.4779,176.6112,176.6112,0,0,0-6.6463,16.5659c-2.8937,8.1655-5.4614,16.0271-8.7515,23.17a76.5274,76.5274,0,0,1-5.5671,10.1738,56.4917,56.4917,0,0,1-7.3561,9.052,37.8645,37.8645,0,0,1-13.8925,8.6646,50.8193,50.8193,0,0,1-17.3424,2.9124A61.6817,61.6817,0,0,1,82.28,207.8267,54.722,54.722,0,0,1,57.8741,191.62,41.7663,41.7663,0,0,1,48,164.2666v-.02a59.4145,59.4145,0,0,1,4.2064-22.55,49.1572,49.1572,0,0,1,18.9323-22.9674,53.6968,53.6968,0,0,1,29.2888-8.3577c12.0128.0037,25.0762,3.6176,37.8983,11.8368a8,8,0,0,0,8.6389-13.4673c-15.1926-9.7513-31.2953-14.373-46.5372-14.3694A71.3892,71.3892,0,0,0,74.11,99.3a65.2747,65.2747,0,0,0-30.34,24.3452C36.2868,134.7791,31.9893,148.6609,32,164.25v.022A58.0114,58.0114,0,0,0,38.3721,191.02a60.2515,60.2515,0,0,0,11.61,15.5876,71.6113,71.6113,0,0,0,24.15,15.2791,77.79,77.79,0,0,0,27.8817,5.2468,66.76,66.76,0,0,0,22.8177-3.8782,53.8682,53.8682,0,0,0,19.705-12.3589,77.8609,77.8609,0,0,0,14.86-21.125,157.2343,157.2343,0,0,0,6.8267-16.5244c2.9371-8.1841,5.4834-16.124,8.71-23.4036a68.3257,68.3257,0,0,1,12.5969-19.759A46.0348,46.0348,0,0,1,203.9178,119.09a54.0191,54.0191,0,0,1,20.0621-3.856,48.4656,48.4656,0,0,1,24.2964,6.2572A47.1259,47.1259,0,0,1,272,162.5022a45.7913,45.7913,0,0,1-5.17,21.2712A44.437,44.437,0,0,1,251.2245,200.65a47.9553,47.9553,0,0,1-13.0788,5.7483,55.8486,55.8486,0,0,1-29.7364-.1228,48.0276,48.0276,0,0,1-13.4528-6.1221,8,8,0,1,0-8.8574,13.3247v0a63.9956,63.9956,0,0,0,17.9329,8.187,71.8505,71.8505,0,0,0,38.3661.158,63.9254,63.9254,0,0,0,17.4423-7.6907A60.4809,60.4809,0,0,0,281,191.2053a61.7857,61.7857,0,0,0,7-28.7031A63.488,63.488,0,0,0,280.0254,131.6843Z" class="fill"/>
  </g>
</svg>
