<svg xmlns="http://www.w3.org/2000/svg" viewBox="0 0 320 320">
  <title>support.car-filled</title>
  <g id="car">
    <ellipse cx="82.9058" cy="217.9592" rx="21.5142" ry="22.0408" class="fill"/>
    <ellipse cx="238.1331" cy="217.9592" rx="21.5142" ry="22.0408" class="fill"/>
    <path d="M274.143,168.98c-23.9046,0-47.8093-48.98-71.7139-48.98H142.6675c-23.9046,0-59.7616,47.9551-83.6663,47.9551-60.9451,0-47.8093,37.7592-47.8093,37.7592s0,12.2449,11.9523,12.2449h29.635c0-.0427-.0031-.0849-.0031-.1277,0-16.9769,13.4338-30.74,30.0051-30.74s30.0054,13.7628,30.0054,30.74c0,.0427-.0029.0849-.0032.1277h95.376c0-.0427-.0031-.0849-.0031-.1277,0-16.9769,13.4338-30.74,30.0051-30.74s30.0054,13.7628,30.0054,30.74c0,.0427-.0029.0849-.0032.1277h29.884c11.9523,0,11.9523,0,11.9523-36.7347C310,168.98,286.0954,168.98,274.143,168.98Z" class="fill"/>
  </g>
</svg>
