<svg xmlns="http://www.w3.org/2000/svg" viewBox="0 0 320 320">
  <title>support.brush</title>
  <g id="console">
    <path d="M128.8979,270.2722c-7.67,4.8486-27.4631,12.349-46.5233,8.81-.4652-.0864-.95-.0322-1.2574-.1263C68.1951,275.0053,40,264.4275,40,264.4275c10.6112-2.4926,24.6316-4.8293,31.0027-9.88,6.8163-5.4033,13.2457-20.0556,17.4418-31.0332,6.2874-16.4487,18.0865-22.8638,29.9536-22.6666,15.6449.26,31.3931,12.0244,34.8037,27.5172C156.0394,241.2547,150.342,256.7156,128.8979,270.2722ZM268.8824,47.5768C260.3662,41.278,248.4486,40,248.4486,40s-37.5436,14.2857-66.7973,57.1468c-7.3788,10.8112-35.5123,53.7044-35.486,53.6576,1.7777-.8388,4.1646-.8339,6.9291-.131,27.2446,4.7175,39.7822,39.0411,36.723,44.9772C258.6722,134.8728,280,62.7348,280,62.7348S278.9042,54.9892,268.8824,47.5768ZM153.0944,150.6734c-2.7646-.7029-5.1514-.7078-6.9291.131-.0263.0467-25.5455,45.6462-27.7671,50.0436,15.6449.26,31.3931,12.0244,34.8037,27.5172,5.3941-3.7714,35.653-31.91,36.6155-32.7146C192.8766,189.7145,180.339,155.3909,153.0944,150.6734Z" class="outline"/>
  </g>
</svg>
