<svg xmlns="http://www.w3.org/2000/svg" viewBox="0 0 320 320">
  <title>support.infinity-bold</title>
  <g id="bell">
    <path d="M289.9393,157.3275C288.5169,119.7363,256.6955,89.98,217.9382,90c-57.5921,0-69.6015,47.418-72.09,67.8-3.5608,29.1291-18.932,44.2947-45.6158,45.0782-24.4094-.9624-43.3933-20.9478-42.4017-44.6388a42.2905,42.2905,0,0,1,11.7368-27.4219l2.0016-1.9641a45.3067,45.3067,0,0,1,60.7105-.29l.7188.6762,20.17-18.6645-1.1058-1.0733c-.2986-.29-.5971-.58-.9068-.8586-27.9112-25.0466-71.0485-24.8073-98.6629.5474l-.7409.6654a10.8838,10.8838,0,0,0-.8626.8694l-1.6588,1.6421a68.5384,68.5384,0,0,0,3.8458,98.8942A73.0617,73.0617,0,0,0,92.9121,229.356l6.4139.59s.8294.0537,2.3333.0537a77.0739,77.0739,0,0,0,10.1848-.7084l.6193-.0751c16.4-2.3076,55.2145-13.2873,61.2082-65.0736a135.0993,135.0993,0,0,1,6.8341-24.6213c2.5877-6.751,11.4123-22.4747,37.4769-22.5391,24.43.0071,44.2276,19.234,44.22,42.9445A42.2492,42.2492,0,0,1,250.35,189.1613c-.2875.3112-.575.601-.8294.8372l-2.3775,2.211a45.3747,45.3747,0,0,1-58.2335.161l-1.1611-.9767-19.0978,17.6449-.8626,1.245,1.1058.9874c27.9023,25.0392,71.0236,24.8093,98.6408-.5259l3.3175-3.22A68.4024,68.4024,0,0,0,289.9393,157.3275Z" class="fill"/>
  </g>
</svg>
