<svg xmlns="http://www.w3.org/2000/svg" viewBox="0 0 320 320">
  <title>tablet-landscape</title>
  <g id="undo">
    <g>
      <path d="M280,86a6.0176,6.0176,0,0,0-6-6H46a6.0176,6.0176,0,0,0-6,6V234a6.0176,6.0176,0,0,0,6,6H274a6.0176,6.0176,0,0,0,6-6ZM51.3621,160.7614a9.5167,9.5167,0,1,1,7.7692,7.7675A9.5234,9.5234,0,0,1,51.3621,160.7614ZM85.2,220.4a6.0176,6.0176,0,0,1-6-6V105.6a6.0176,6.0176,0,0,1,6-6H254.4a6.0176,6.0176,0,0,1,6,6V214.4a6.0176,6.0176,0,0,1-6,6Z" class="fill"/>
      <path d="M280,86a6.0176,6.0176,0,0,0-6-6H46a6.0176,6.0176,0,0,0-6,6V234a6.0176,6.0176,0,0,0,6,6H274a6.0176,6.0176,0,0,0,6-6ZM51.3621,160.7614a9.5167,9.5167,0,1,1,7.7692,7.7675A9.5234,9.5234,0,0,1,51.3621,160.7614ZM85.2,220.4a6.0176,6.0176,0,0,1-6-6V105.6a6.0176,6.0176,0,0,1,6-6H254.4a6.0176,6.0176,0,0,1,6,6V214.4a6.0176,6.0176,0,0,1-6,6Z" class="outline"/>
    </g>
  </g>
</svg>
