<svg xmlns="http://www.w3.org/2000/svg" viewBox="0 0 320 320">
  <defs>
    <style>
      .Graphic-Style-3 {
        fill: #1a1a1a;
        stroke: #1a1a1a;
        stroke-miterlimit: 2;
        stroke-width: 4px;
      }
    </style>
  </defs>
  <title>trash-filled</title>
  <g id="Layer_10" data-name="Layer 10">
    <rect class="Graphic-Style-3" x="64" y="64" width="192" height="42.6667" rx="6.4444" ry="6.4444"/>
    <path class="Graphic-Style-3" d="M196,64h-8V54.4443A18.4653,18.4653,0,0,0,169.5557,36H150.4443A18.4653,18.4653,0,0,0,132,54.4443V64h-8V54.4443A26.4745,26.4745,0,0,1,150.4443,28h19.1113A26.4745,26.4745,0,0,1,196,54.4443Z"/>
    <path class="Graphic-Style-3" d="M85.3333,114V275.5555A12.4445,12.4445,0,0,0,97.7778,288H222.2222a12.4445,12.4445,0,0,0,12.4446-12.4445V114ZM126.667,266.6665h-8V128h8Zm37.333,0h-8V128h8Zm37.333,0h-8V128h8Z"/>
  </g>
</svg>
