<svg xmlns="http://www.w3.org/2000/svg" viewBox="0 0 320 320">
  <title>type-filled</title>
  <g id="alignment">
    <g>
      <path d="M69.7373,188.5024,49.3438,244.2793H31.6523L93.8174,72.772h21.377l64.6221,171.5073H160.8975l-20.6406-55.7769Zm65.36-15.4795c-17.9375-48.4058-27.2744-72.4854-30.7148-84.771h-.2451c-4.1777,13.76-14.9883,43.4912-29.24,84.771Z" class="fill"/>
      <path d="M286.627,219.2168c0,11.0571.9834,21.377,1.7207,25.0625H272.6221c-.9834-2.9487-1.7207-8.6-1.9658-17.6914-4.4229,8.6-14.7432,20.64-39.56,20.64-28.9941,0-41.28-18.6743-41.28-37.3486,0-27.52,21.377-39.8052,58.2344-39.8052H270.41V158.28c0-11.7939-3.6855-26.7822-29.4854-26.7822-23.0967,0-26.5371,11.7939-28.9941,21.6226H195.7139c1.4736-14.9883,10.8115-35.3828,45.7021-35.3828,28.9941,0,45.2109,12.04,45.2109,39.56Zm-15.9707-36.6113h-22.36c-26.0449,0-41.5254,6.88-41.5254,26.291,0,14.4971,10.0742,24.5713,26.5371,24.5713,32.9258,0,37.3486-21.8682,37.3486-46.6851Z" class="fill"/>
    </g>
  </g>
</svg>
