<svg id="calendar" xmlns="http://www.w3.org/2000/svg" viewBox="0 0 320 320">
  <title>utilities.calendar-filled</title>
  <path d="M100,86.6667S100,80,105,80s5,6.6667,5,6.6667v6.6667S110,100,105,100s-5-6.6667-5-6.6667Z" class="fill"/>
  <path d="M210,86.6667S210,80,215,80s5,6.6667,5,6.6667v6.6667S220,100,215,100s-5-6.6667-5-6.6667Z" class="fill"/>
  <path d="M50,90V259.9686A10.0315,10.0315,0,0,0,60.0314,270H259.9686A10.0315,10.0315,0,0,0,270,259.9686V90ZM156.6572,226.471H90.35v-7.3556l36.74-29.9474c15.2207-12.4341,22.3939-20.84,22.3939-32.75,0-12.96-8.7474-23.8176-27.1176-23.8176-18.1953,0-25.5434,10.8578-26.2427,22.0662L90,152.9156c1.75-18.9141,16.97-26.4446,33.2411-26.4446,20.994,0,32.8909,12.6091,32.8909,30.2975,0,13.4854-6.9978,22.2418-24.8434,36.778l-32.8909,26.62.1749.175h58.0846Zm82.2741-92.6444L186.7954,226.471h-7.1732l45.6626-81.436c3.1489-5.6042,6.4733-10.1577,6.4733-10.3327l-.1749-.175s-6.6487.175-12.5968.175H170v-6.3049h68.9313Z" class="fill"/>
  <path d="M259.9686,50H60.0314A10.0314,10.0314,0,0,0,50,60.0314V90H270V60.0314A10.0314,10.0314,0,0,0,259.9686,50Z" class="outline"/>
</svg>
