<svg xmlns="http://www.w3.org/2000/svg" viewBox="0 0 320 320">
  <title>utilities.briefcase-solid</title>
  <g id="briefcase">
    <path d="M201.5645,84.4194c0-10.3485-6.2533-29.9194-29.9194-29.9194H147.71c-23.6661,0-29.9194,19.5709-29.9194,29.9194H51.9457A11.9457,11.9457,0,0,0,40,96.3651V228.0543A11.9457,11.9457,0,0,0,51.9457,240H267.4091a11.9457,11.9457,0,0,0,11.9457-11.9457V96.3651a11.9457,11.9457,0,0,0-11.9457-11.9457Zm-71.8065,0c0-1.8372.5037-17.9516,17.9516-17.9516h23.9355c7.4471,0,12.4966,2.7331,15.4359,8.3564a24.0366,24.0366,0,0,1,2.5157,9.5952Z" class="outline"/>
  </g>
</svg>
