<svg xmlns="http://www.w3.org/2000/svg" viewBox="0 0 320 320">
  <title>weather-thunder</title>
  <g id="briefcase">
    <polygon id="_Path_" data-name="&lt;Path&gt;" points="151.88 118.107 139.626 185.4 159.232 177.923 149.429 234 178.838 162.969 161.683 166.707 173.937 118.107 151.88 118.107" class="outline"/>
    <polygon id="_Path_2" data-name="&lt;Path&gt;" points="116.061 118.107 94.918 165.96 105.946 165.96 87.446 207.831 129.613 153.997 114.908 153.997 134.442 118.107 116.061 118.107" class="outline"/>
    <path id="_Path_3" data-name="&lt;Path&gt;" d="M69.766,84.753c-2.96,11.4184,1.1147,22.5385,12.9105,22.5385H222.2179s29.6154.3846,27.6923-27.6923-27.6923-27.6923-27.6923-27.6923-.3846-25.7692-27.6923-36.9231c-32.962-13.4633-46.1538,4.6154-46.1538,4.6154S121.8333,5.3685,97.6025,28.83s-9.2308,36.9231-9.2308,36.9231S74.91,66.1377,69.91,84.2146Q69.8352,84.4858,69.766,84.753Z" class="outline"/>
  </g>
</svg>
