<svg xmlns="http://www.w3.org/2000/svg" viewBox="0 0 320 320">
  <title>weather-light-rain-filled</title>
  <g id="briefcase">
    <path id="_Path_" data-name="&lt;Path&gt;" d="M40.0172,179.36C39.5892,190.7185,47.1615,210,62.495,210H243.8859s38.4972.5026,35.9974-36.19-35.9974-36.19-35.9974-36.19-1.5523-35.84-35.9974-52.7776C178.529,70.4048,147.8928,95.397,147.8928,95.397s-28.6381-29.7753-65.8786-6.5132c-25.3815,15.8544-17.9987,48.2538-17.9987,48.2538S41.2671,146.1851,40.0172,179.36Z" class="fill"/>
    <path d="M125.106,280a8.3681,8.3681,0,0,1-7.7715-5.262l-16.734-41.8349a8.3667,8.3667,0,1,1,15.5369-6.214l16.734,41.8349A8.3719,8.3719,0,0,1,125.106,280Z" class="outline"/>
    <path d="M173.9322,271.633a8.37,8.37,0,0,1-7.7266-5.1507l-13.9446-33.4679a8.3672,8.3672,0,1,1,15.4471-6.4366l13.9446,33.4679a8.3711,8.3711,0,0,1-7.72,11.5873Z" class="outline"/>
    <path d="M215.0491,254.899a8.3686,8.3686,0,0,1-7.8349-5.4316l-6.2752-16.734a8.3664,8.3664,0,0,1,15.6677-5.8749l6.2752,16.734a8.3727,8.3727,0,0,1-7.8328,11.3065Z" class="outline"/>
  </g>
</svg>
