<svg xmlns="http://www.w3.org/2000/svg" viewBox="0 0 320 320">
  <title>weather.fog</title>
  <g id="briefcase">
    <path d="M150.7183,187.2727H49.2265c-5.0953,0-9.2265-4.8846-9.2265-10.9091s4.1312-10.9091,9.2265-10.9091H150.7183c5.0953,0,9.2265,4.8846,9.2265,10.9091S155.8137,187.2727,150.7183,187.2727Zm55.3592-43.6364c0-6.0245-4.1312-10.9091-9.2265-10.9091H86.1326c-5.0953,0-9.2265,4.8846-9.2265,10.9091s4.1312,10.9091,9.2265,10.9091H196.851C201.9463,154.5455,206.0775,149.6609,206.0775,143.6364Zm-9.2265,65.4545c0-6.0245-4.1312-10.9091-9.2265-10.9091H104.5857c-5.0953,0-9.2265,4.8846-9.2265,10.9091S99.49,220,104.5857,220h83.0388C192.72,220,196.851,215.1154,196.851,209.0909ZM279.89,176.3636c0-6.0245-4.1312-10.9091-9.2265-10.9091H178.3979c-5.0953,0-9.2265,4.8846-9.2265,10.9091s4.1312,10.9091,9.2265,10.9091h92.2653C275.7585,187.2727,279.89,182.3881,279.89,176.3636Zm-27.68,32.7273c0-6.0245-4.1312-10.9091-9.2265-10.9091h-27.68c-5.0953,0-9.2265,4.8846-9.2265,10.9091S210.2087,220,215.304,220h27.68C248.0789,220,252.21,215.1154,252.21,209.0909Zm-18.4531-98.1818c0-6.0245-4.1312-10.9091-9.2265-10.9091H141.4918c-5.0953,0-9.2265,4.8846-9.2265,10.9091s4.1312,10.9091,9.2265,10.9091h83.0388C229.6259,121.8182,233.7571,116.9336,233.7571,110.9091ZM252.21,143.6364c0-6.0245-4.1312-10.9091-9.2265-10.9091H224.5306c-5.0953,0-9.2265,4.8846-9.2265,10.9091s4.1312,10.9091,9.2265,10.9091h18.4531C248.0789,154.5455,252.21,149.6609,252.21,143.6364Z" class="outline"/>
  </g>
</svg>
