<svg xmlns="http://www.w3.org/2000/svg" viewBox="0 0 320 320">
  <title>weather.cloudy</title>
  <g id="briefcase">
    <path id="_Path_" data-name="&lt;Path&gt;" d="M30.0172,230.36C29.5892,241.7185,37.1615,261,52.495,261H233.8859s38.4972.5026,35.9974-36.19-35.9974-36.19-35.9974-36.19-1.5523-35.84-35.9974-52.7776c-29.3595-14.4366-59.9957,10.5555-59.9957,10.5555s-28.6381-29.7753-65.8786-6.5132c-25.3815,15.8544-17.9987,48.2538-17.9987,48.2538S31.2671,197.1851,30.0172,230.36Z" class="outline"/>
    <path d="M265.5672,120.675,293.35,96.6465l-36.0747-6.9177,12.0464-34.7L234.6211,67.0747,227.7033,31,203.675,58.7827,179.6467,31l-6.9178,36.0747L138.0283,55.0283l12.0464,34.7L114,96.6465l27.7827,24.0285-10.9369,10.0536a85.155,85.155,0,0,0,8.2109,5.2054s29.3413-26.0147,62.2515-9.8321c27.1537,13.352,36.0627,37.1676,38.9644,50.1353l29.0491,10.0843-12.0464-34.7,36.0747-6.9179Z" class="outline"/>
  </g>
</svg>
