<svg xmlns="http://www.w3.org/2000/svg" viewBox="0 0 320 320">
  <title>weather.thunder-filled</title>
  <g id="briefcase">
    <path id="_Path_" data-name="&lt;Path&gt;" d="M69.766,84.753c-2.96,11.4184,1.1147,22.5385,12.9105,22.5385H222.2179s29.6154.3846,27.6923-27.6923-27.6923-27.6923-27.6923-27.6923-.3846-25.7692-27.6923-36.9231c-32.962-13.4633-46.1538,4.6154-46.1538,4.6154S121.8333,5.3685,97.6025,28.83s-9.2308,36.9231-9.2308,36.9231S74.91,66.1377,69.91,84.2146Q69.8352,84.4858,69.766,84.753Z" class="fill"/>
    <polygon id="_Path_2" data-name="&lt;Path&gt;" points="137.473 115.492 121.787 228.432 146.884 215.883 134.336 310 171.982 190.785 150.022 197.06 165.708 115.492 137.473 115.492" class="fill"/>
    <polygon id="_Path_3" data-name="&lt;Path&gt;" points="181.095 115.492 188.835 165.744 203.7 160.16 210.501 202.037 216.53 137.128 202.762 142.537 200.105 115.492 181.095 115.492" class="fill"/>
    <polygon id="_Path_4" data-name="&lt;Path&gt;" points="106.109 115.492 85.273 183.497 96.142 183.497 77.91 243.002 119.464 166.496 104.973 166.496 124.223 115.492 106.109 115.492" class="fill"/>
  </g>
</svg>
