<svg xmlns="http://www.w3.org/2000/svg" viewBox="0 0 320 320">
  <title>weather.clouds-filled</title>
  <g id="briefcase">
    <path id="_Path_" data-name="&lt;Path&gt;" d="M55.168,191.2143c-.3506,9.3068,5.8536,25.1044,18.4168,25.1044H222.2039s31.542.4118,29.4938-29.6518-29.4938-29.6518-29.4938-29.6518-1.2718-29.365-29.4938-43.2423c-24.0551-11.8284-49.1563,8.6485-49.1563,8.6485S120.09,98.0254,89.5774,117.0847C68.7816,130.0747,74.8305,156.62,74.8305,156.62S56.1921,164.0335,55.168,191.2143Z" class="fill"/>
    <path d="M41.9425,188.4054c1.0434-24.6787,16.2274-35.4238,23.1083-39.0444-1.2363-8.2754-3.1567-32.7619,22.2877-46.4507,24.9-13.3961,46.89-.2138,55.53,6.0977,3.3747-2.0742,13.1729-7.4776,20.644-10.0889,2.0306-.7095,5.8155-1.31,17.9615-1.0428-18-47.8762-78-27.8762-78-7.8762,0,0-30-30-60,0-20,20-9.8632,41.5714-9.8632,41.5714s-22.3646,7.9253-23.5935,36.9849c-.4207,9.95,7.0238,26.84,22.0987,26.84h10.495A28.4819,28.4819,0,0,1,41.9425,188.4054Z" class="fill"/>
    <path d="M303.3714,148.2983c-2.19-32.1416-31.5323-31.7014-31.5323-31.7014s-.1683-34.1147-31.5323-46.231C213.4736,60,185.8953,89.9981,191.1577,100.5119a41.39,41.39,0,0,1,6.0293,2.3894c25.6406,12.6077,31.8314,36.0774,33.3079,45.5564.0717.1841.1357.3794.2052.5667,8.33,1.1155,27.7135,6.3727,31.3226,30.9753h9.8163S305.5612,180.44,303.3714,148.2983Z" class="fill"/>
  </g>
</svg>
