<svg xmlns="http://www.w3.org/2000/svg" viewBox="0 0 320 320">
  <title>weather-heavy-rain-filled</title>
  <g id="briefcase">
    <path d="M64.0155,87.1375S56.6327,54.7381,82.0142,38.8837c37.2405-23.262,65.8786,6.5132,65.8786,6.5132s30.6362-24.9921,59.9957-10.5555c34.4451,16.9373,35.9974,52.7776,35.9974,52.7776s33.4976-.5026,35.9974,36.19S243.8859,160,243.8859,160H62.495c-15.3335,0-22.9058-19.2812-22.4779-30.64C41.2671,96.1851,64.0155,87.1375,64.0155,87.1375Zm56.2716,157.6518a8.5322,8.5322,0,0,0,5.2353-10.8726l-14.9329-42.6654a8.5329,8.5329,0,1,0-16.1078,5.6373l14.9329,42.6654a8.5247,8.5247,0,0,0,10.8726,5.2353Zm48.1852-15.5435a8.533,8.533,0,0,0,5.1946-10.8924l-12.0882-34.1323a8.5331,8.5331,0,1,0-16.087,5.6977L157.58,224.0511a8.5257,8.5257,0,0,0,10.8924,5.1946Zm45.9882-17.12a8.531,8.531,0,0,0,4.9936-10.9851l-6.4-17.0661a8.5325,8.5325,0,1,0-15.9787,5.9915l6.4,17.0661a8.5234,8.5234,0,0,0,10.9851,4.9936ZM161.05,280.42a8.5345,8.5345,0,0,0,5.103-10.9361L132.021,175.62a8.5334,8.5334,0,1,0-16.0391,5.8332l34.1323,93.8638A8.5273,8.5273,0,0,0,161.05,280.42Zm43.41-25.6294a8.531,8.531,0,0,0,4.9936-10.9851l-25.5992-68.2646a8.5325,8.5325,0,1,0-15.9787,5.9915l25.5992,68.2646a8.5234,8.5234,0,0,0,10.9851,4.9936Zm43.84-16.96a8.5345,8.5345,0,0,0,5.3967-10.7945L236.6311,175.838a8.5336,8.5336,0,1,0-16.1912,5.3978l17.0661,51.1984a8.5278,8.5278,0,0,0,10.7945,5.3967Z" class="fill"/>
  </g>
</svg>
