<svg xmlns="http://www.w3.org/2000/svg" viewBox="0 0 320 320">
  <title>weather.tornado</title>
  <g id="briefcase">
    <path d="M148.7914,257.3271c-1.1671-.0361-2.2713-.1142-3.32-.224,5.9232-.1345,14.7192-.9633,21.86-4.2271.12.0994.2688.205.3737.3006C164.7942,255.0381,158.2856,257.6207,148.7914,257.3271Zm8.4317-47.0927c19.6877.6087,32.3527-5.12,35.7389-8.3656a10.9555,10.9555,0,0,0-2.7254-2.6333,161.7967,161.7967,0,0,1-27.498,1.6988c-3.1054-.096-18.1231-.7611-31.8978-4.7381a21.4065,21.4065,0,0,0-5.9838,3.5668C127.05,203.1811,137.5353,209.6257,157.2231,210.2344Zm99.4216-103.69c-4.6421,3.3216-24.5616,18.1918-30.5941,20.7094,1.9747,1.8131,2.9568,3.452,2.9394,4.6986-1.0939,3.1636-9.6049,8.4728-24.1091,12.3-11.3443,2.9935-26.354,5.0808-44.3546,4.5242a156.4464,156.4464,0,0,1-30.1218-3.6779c-16.55-3.8038-26.6491-9.7123-30.1825-14.0171a110.0137,110.0137,0,0,1-16.0743-6.3439,24.8458,24.8458,0,0,0-.66,2.7156c-2.6216,14.6422,8.9066,25.1832,26.421,31.7973a118.2922,118.2922,0,0,0,18.439,5.1588,176.0633,176.0633,0,0,0,28.8059,3.2044,177.3179,177.3179,0,0,0,44.64-4.0818,94.2869,94.2869,0,0,0,23.6509-8.5846c10.1252-5.5444,17.1583-12.9856,18.8657-22.5214C245.2324,127.2748,258.869,110.6889,256.6446,106.5446Zm-31.6219,50.7578a94.2869,94.2869,0,0,1-23.6509,8.5846c5.7017,1.9077,9.5454,4.0433,11.4859,5.8172-2.9943,1.9192-8.77,4.1668-16.8962,5.81a129.4586,129.4586,0,0,1-29.4288,2.228c-14.368-.4443-25.2908-2.7654-32.7261-5.4286-4.9976-1.79-6.2637-7.6153-34.6842-16.2192-1.2093,2.0551,8.28,7.8295,7.8309,10.3349-1.3871,7.7473,1.9847,13.506,7.6783,17.788,4.4944,3.38,10.4363,5.8355,16.6305,7.6239,13.7748,3.977,28.7924,4.6421,31.8978,4.7381a161.7967,161.7967,0,0,0,27.498-1.6988,92.55,92.55,0,0,0,18.314-4.5785c10.2964-3.8826,18.7258-10.1037,20.5127-20.084A16.4852,16.4852,0,0,0,225.0228,157.3024Zm-71.594,74.1238c-10.7236-.3316-21.4884-2.4493-29.81-6.42a36.0833,36.0833,0,0,1-7.949-5.0567,16.309,16.309,0,0,0-4.0078,8.1988c-1.091,6.0934,1.38,10.3228,5.3974,13.2629,7.5066,5.4935,20.4259,6.4769,25.6919,6.64,1.1231.0347,2.6129.0519,4.3387.0128,5.9232-.1345,14.7192-.9633,21.86-4.2271,5.7563-2.6309,10.4329-6.84,11.6355-13.5572.0864-.4823.1418-.9482.1846-1.4075.0183-.1968.0114-.38.0219-.5727-1.9706.5511-3.9934,1.03-6.0521,1.4341A96.4491,96.4491,0,0,1,153.4288,231.4261Zm55.1218-36.7691a92.55,92.55,0,0,1-18.314,4.5785,10.9555,10.9555,0,0,1,2.7254,2.6333c-3.3861,3.2456-16.0511,8.9744-35.7389,8.3656s-30.1732-7.0533-32.3662-10.4714a21.4065,21.4065,0,0,1,5.9838-3.5668c-6.1942-1.7884-12.1361-4.2438-16.6305-7.6239a22.8885,22.8885,0,0,0-5.0791,10.7044c-1.3579,7.5842,1.5279,13.6668,6.9606,18.3183a36.0833,36.0833,0,0,0,7.949,5.0567c8.3214,3.9705,19.0862,6.0882,29.81,6.42a96.4491,96.4491,0,0,0,21.3118-1.6927c2.0587-.4046,4.0815-.8831,6.0521-1.4341,14-3.9152,25.3214-11.57,27.4735-23.59A18.9824,18.9824,0,0,0,208.5506,194.657Zm-80.4044,72.4013a19.1125,19.1125,0,0,0-.9535,3.3784c-1.9544,10.9155,6.29,19.1359,19.602,19.5475s24.393-7.2112,26.3473-18.1267a16.245,16.245,0,0,0-.2223-6.9967c-6.8865,4.1864-16.1442,6.4907-26.5815,6.168A45.7394,45.7394,0,0,1,128.1462,267.0583Zm54.1855-36.1516c-2.5893,11.2723-12.4971,17.9818-32.2755,19.3566a18.3877,18.3877,0,0,1-3.32-.224c-1.7258.0391-3.2156.022-4.3387-.0128-5.266-.1628-18.1852-1.1463-25.6919-6.64-.0866.3683-.2015.7264-.2687,1.1017-1.6072,8.9768,3.0688,16.3642,12.0541,20.6416a45.7394,45.7394,0,0,0,18.192,3.97c10.4373.3227,19.695-1.9815,26.5815-6.168,6.5012-3.9524,10.891-9.5806,12.0963-16.3128C186.466,240.4491,186.5151,235.0872,182.3317,230.9066ZM238.0866,55.9831l-50.1789,4.8721C226.9138,66.3466,245.697,81.6706,244.24,89.806c-.6093,3.4033-5.1869,7.8328-13.2515,12.0575a112.2536,112.2536,0,0,1-27.6145,9.512,198.4529,198.4529,0,0,1-48.4334,4.0814,196.4163,196.4163,0,0,1-33.8034-3.8113,123.6247,123.6247,0,0,1-24.2107-7.4413C81.9029,97.6417,74.8454,89.7027,75.76,84.5966c1.5987-8.9288,40.2061-25.5614,88.161-26.3645l55.4069-3.62c-13.7511-3.7358-35-14.0115-50.8959-14.503-49.4736-1.53-102.4529,13.0972-107.9885,44.0144-2.7466,15.34,7.4954,27.428,24.5474,35.9057a110.0137,110.0137,0,0,0,16.0743,6.3439c14.9348,4.6712,32.5616,7.3666,50.5034,7.9214,26.78.828,54.5718-3.0882,75.3254-11.7494a81.8989,81.8989,0,0,0,16.1052-8.7591c8.8913-6.362,14.89-14.1887,16.558-23.5059C262.134,75.8855,253.2755,64.355,238.0866,55.9831Z" class="outline"/>
  </g>
</svg>
