<svg xmlns="http://www.w3.org/2000/svg" viewBox="0 0 320 320">
  <title>weather.clouds</title>
  <g id="briefcase">
    <path id="_Path_" data-name="&lt;Path&gt;" d="M61.6944,191.2143c-.3506,9.3068,5.8536,25.1044,18.4168,25.1044H228.73s31.542.4118,29.4938-29.6518S228.73,157.015,228.73,157.015s-1.2718-29.365-29.4938-43.2423c-24.0551-11.8284-49.1563,8.6485-49.1563,8.6485s-23.4641-24.3958-53.9764-5.3365C75.308,130.0747,81.3569,156.62,81.3569,156.62S62.7185,164.0335,61.6944,191.2143Z" class="outline"/>
    <path d="M309.8978,148.2983c-2.19-32.1416-31.5323-31.7014-31.5323-31.7014s-.1683-34.1147-31.5323-46.231C220,60,192.4217,89.9981,197.6841,100.5119a41.39,41.39,0,0,1,6.0293,2.3894c25.6406,12.6077,31.8314,36.0774,33.3079,45.5564.0717.1841.1357.3794.2052.5667,8.33,1.1155,27.7135,6.3727,31.3226,30.9753h9.8163S312.0876,180.44,309.8978,148.2983Z" class="outline"/>
  </g>
</svg>
