<svg xmlns="http://www.w3.org/2000/svg" viewBox="0 0 320 320"><defs><style>.Graphic-Style-59{fill:none;stroke:#1a1a1a;stroke-miterlimit:2;stroke-width:4px;}</style></defs><title>wrench-outline</title><path  d="M187.4408,102.0568a35.6455,35.6455,0,0,1,43.6665-25.2659L274.76,88.524l.24-.8978-32.133-43.86a12.81,12.81,0,0,0-12.3914-3.3273L172.0472,56.1275a12.8427,12.8427,0,0,0-9.0712,9.0905L147.32,123.7712a12.8745,12.8745,0,0,0,3.32,12.4179l2.5023,2.5076L48.8725,243.19a13.27,13.27,0,0,0,0,18.7381l14.1612,14.1914a13.2015,13.2015,0,0,0,18.698,0l104.27-104.493,12.648,12.675,56.86-23.7831.3367-1.2594-43.65-11.7323a35.74,35.74,0,0,1-25.213-43.7613Z"/></svg>